<svg width="24" height="24" viewBox="0 0 24 24" fill="none" xmlns="http://www.w3.org/2000/svg">
<path d="M14 19C14 19.2626 13.9483 19.5227 13.8478 19.7654C13.7472 20.008 13.5999 20.2285 13.4142 20.4142C13.2285 20.5999 13.008 20.7472 12.7654 20.8478C12.5227 20.9483 12.2626 21 12 21C11.7374 21 11.4773 20.9483 11.2346 20.8478C10.992 20.7472 10.7715 20.5999 10.5858 20.4142C10.4001 20.2285 10.2528 20.008 10.1522 19.7654C10.0517 19.5227 10 19.2626 10 19" stroke="black" stroke-width="2" stroke-linecap="round" stroke-linejoin="round"/>
<path d="M7.92306 7.80004C8.57188 6.11312 10.1926 5 12 5V5C13.8074 5 15.4281 6.11312 16.0769 7.80004L18.5778 14.3023C19.2633 16.0845 17.9477 18 16.0382 18H7.96177C6.05227 18 4.73672 16.0845 5.42219 14.3023L7.92306 7.80004Z" stroke="black" stroke-width="2" stroke-linecap="round" stroke-linejoin="round"/>
</svg>
