<svg width="24" height="24" viewBox="0 0 24 24" fill="none" xmlns="http://www.w3.org/2000/svg">
<path fill="black" d="M17 17L14 14"/>
<path fill="black" d="M19 7L17.8292 4.65836C17.321 3.64201 16.2822 3 15.1459 3H7.079C5.82847 3 4.70911 3.77572 4.27001 4.94663L3.24438 7.68165C2.64228 9.28726 3.82921 11 5.544 11V11C6.90041 11 8 9.90041 8 8.544V8"/>
<path fill="black" d="M8 8V8.5C8 9.88071 9.11929 11 10.5 11V11C11.8807 11 13 9.88071 13 8.5V8"/>
<path fill="black" d="M8 20V20C6.34315 20 5 18.6569 5 17V11"/>
<path fill="black" d="M16.5 11.5L11.5 16.5C10.6716 17.3284 10.6716 18.6716 11.5 19.5C12.3284 20.3284 13.6716 20.3284 14.5 19.5L19.5 14.5C20.3284 13.6716 20.3284 12.3284 19.5 11.5C18.6716 10.6716 17.3284 10.6716 16.5 11.5Z"/>
</svg>
