<svg width="24" height="24" viewBox="0 0 24 24" fill="none" xmlns="http://www.w3.org/2000/svg">
<path fill="black" d="M11.1093 4.24536C11.4804 3.51811 12.5196 3.51811 12.8907 4.24536L14.7665 7.92089C14.9118 8.20561 15.1844 8.40371 15.5001 8.45392L19.5754 9.10206C20.3817 9.2303 20.7028 10.2186 20.1259 10.7963L17.2099 13.716C16.984 13.9422 16.8798 14.2627 16.9296 14.5785L17.5726 18.6546C17.6998 19.4611 16.8591 20.0719 16.1314 19.7017L12.4534 17.8307C12.1685 17.6857 11.8315 17.6857 11.5466 17.8307L7.86865 19.7017C7.14092 20.0719 6.30023 19.4611 6.42744 18.6546L7.07035 14.5785C7.12016 14.2627 7.01601 13.9422 6.79012 13.716L3.87413 10.7963C3.29716 10.2186 3.61827 9.2303 4.42462 9.10206L8.49989 8.45392C8.81558 8.40371 9.08824 8.20561 9.23354 7.92089L11.1093 4.24536Z"/>
</svg>
