<svg width="24" height="24" viewBox="0 0 24 24" fill="none" xmlns="http://www.w3.org/2000/svg">
<path d="M5 6.49988C5 7.32831 5.67157 7.99988 6.5 7.99988H17.5C18.3284 7.99988 19 7.32831 19 6.49988V5.49988C19 4.67145 18.3284 3.99988 17.5 3.99988H6.5C5.67157 3.99988 5 4.67145 5 5.49988V6.49988Z" stroke="black" stroke-width="2" stroke-linecap="round" stroke-linejoin="round"/>
<path d="M7 7.99988H17V16.9999C17 18.6567 15.6569 19.9999 14 19.9999H10C8.34315 19.9999 7 18.6567 7 16.9999V7.99988Z" stroke="black" stroke-width="2" stroke-linecap="round" stroke-linejoin="round"/>
<path d="M9.5 3.99988L9.5 7.99988" stroke="black" stroke-width="2" stroke-linecap="round" stroke-linejoin="round"/>
<path d="M14.5 3.99988L14.5 7.99988" stroke="black" stroke-width="2" stroke-linecap="round" stroke-linejoin="round"/>
<path d="M12 11.9999L12 15.9999" stroke="black" stroke-width="2" stroke-linecap="round" stroke-linejoin="round"/>
<path d="M14 13.9999H10" stroke="black" stroke-width="2" stroke-linecap="round" stroke-linejoin="round"/>
</svg>
