<svg width="24" height="24" viewBox="0 0 24 24" fill="none" xmlns="http://www.w3.org/2000/svg">
<path d="M17.0866 13.6194C17.6932 13.8707 18.3434 14 19 14C18.3434 14 17.6932 14.1293 17.0866 14.3806C16.48 14.6319 15.9288 15.0002 15.4645 15.4645C15.0002 15.9288 14.6319 16.48 14.3806 17.0866C14.1293 17.6932 14 18.3434 14 19C14 18.3434 13.8707 17.6932 13.6194 17.0866C13.3681 16.48 12.9998 15.9288 12.5355 15.4645C12.0712 15.0002 11.52 14.6319 10.9134 14.3806C10.3068 14.1293 9.65661 14 9 14C9.65661 14 10.3068 13.8707 10.9134 13.6194C11.52 13.3681 12.0712 12.9998 12.5355 12.5355C12.9998 12.0712 13.3681 11.52 13.6194 10.9134C13.8707 10.3068 14 9.65661 14 9C14 9.65661 14.1293 10.3068 14.3806 10.9134C14.6319 11.52 15.0002 12.0712 15.4645 12.5355C15.9288 12.9998 16.48 13.3681 17.0866 13.6194Z" stroke="#808080" stroke-width="2" stroke-linecap="round" stroke-linejoin="round"/>
<path d="M8.52566 5.57697L8.47434 5.42303C8.32239 4.96718 7.67761 4.96718 7.52566 5.42303L7.47434 5.57697C7.17574 6.47279 6.47279 7.17574 5.57697 7.47434L5.42303 7.52566C4.96718 7.67761 4.96718 8.32239 5.42303 8.47434L5.57697 8.52566C6.47279 8.82426 7.17574 9.52721 7.47434 10.423L7.52566 10.577C7.67761 11.0328 8.32239 11.0328 8.47434 10.577L8.52566 10.423C8.82426 9.52721 9.52721 8.82426 10.423 8.52566L10.577 8.47434C11.0328 8.32239 11.0328 7.67761 10.577 7.52566L10.423 7.47434C9.52721 7.17574 8.82426 6.47279 8.52566 5.57697Z" fill="black"/>
</svg>
