<svg width="24" height="24" viewBox="0 0 24 24" fill="none" xmlns="http://www.w3.org/2000/svg">
<path fill="black" d="M16 5L19 8"/>
<path fill="black" d="M20 12C20 13.5823 19.5308 15.129 18.6518 16.4446C17.7727 17.7602 16.5233 18.7855 15.0615 19.391C13.5997 19.9965 11.9911 20.155 10.4393 19.8463C8.88743 19.5376 7.46197 18.7757 6.34315 17.6569C5.22433 16.538 4.4624 15.1126 4.15372 13.5607C3.84504 12.0089 4.00346 10.4003 4.60896 8.93853C5.21446 7.47672 6.23984 6.22729 7.55544 5.34824C8.87103 4.46919 10.4177 4 12 4"/>
<path fill="black" d="M10 11L17.5 3.5C18.3284 2.67157 19.6716 2.67157 20.5 3.5C21.3284 4.32843 21.3284 5.67157 20.5 6.5L13 14H10V11Z"/>
</svg>
