<svg width="24" height="24" viewBox="0 0 24 24" fill="none" xmlns="http://www.w3.org/2000/svg">
<circle fill="black" cx="12" cy="7" r="3"/>
<path fill="black" d="M18.4671 17.3212L18.4671 17.3212C18.483 17.3594 18.4984 17.3977 18.5135 17.4361C18.664 17.8183 18.5813 18.1586 18.3234 18.4488C18.0444 18.7628 17.5596 19 17 19H6.99999C6.44037 19 5.95561 18.7628 5.67653 18.4488C5.41866 18.1586 5.33599 17.8183 5.48644 17.4361C5.50155 17.3977 5.51702 17.3594 5.53283 17.3212L4.60895 16.9385L5.53283 17.3212C5.88461 16.4719 6.40023 15.7003 7.05024 15.0503C7.70025 14.4002 8.47192 13.8846 9.3212 13.5328C10.1705 13.1811 11.0807 13 12 13C12.9192 13 13.8295 13.1811 14.6788 13.5328C15.528 13.8846 16.2997 14.4002 16.9497 15.0503C17.5997 15.7003 18.1154 16.4719 18.4671 17.3212Z"/>
</svg>
