<svg width="24" height="24" viewBox="0 0 24 24" fill="none" xmlns="http://www.w3.org/2000/svg">
<path d="M3.65686 13.6765L3.73334 13.6C4.617 12.7163 6.04969 12.7163 6.93335 13.6C7.15427 13.8209 7.51244 13.8209 7.73335 13.6L13.6001 7.73333C13.821 7.51242 13.821 7.15424 13.6001 6.93333C12.7164 6.04967 12.7164 4.61698 13.6001 3.73332L13.6766 3.65684C14.5916 2.74178 16.0752 2.74178 16.9903 3.65684C17.21 3.87655 17.3334 4.17455 17.3334 4.48527V5.20821C17.3334 6.01369 17.9864 6.66666 18.7919 6.66666H19.5148C19.8255 6.66666 20.1235 6.7901 20.3432 7.00981C21.2583 7.92487 21.2583 9.40847 20.3432 10.3235L20.2668 10.4C19.3831 11.2837 17.9504 11.2837 17.0668 10.4C16.8458 10.1791 16.4877 10.1791 16.2667 10.4L10.4 16.2667C10.1791 16.4876 10.1791 16.8458 10.4 17.0667C11.2837 17.9503 11.2837 19.383 10.4 20.2667L10.3235 20.3432C9.40849 21.2582 7.92489 21.2582 7.00983 20.3432C6.79012 20.1235 6.66668 19.8255 6.66668 19.5147V18.7918C6.66668 17.9863 6.01371 17.3333 5.20823 17.3333H4.48529C4.17457 17.3333 3.87657 17.2099 3.65686 16.9902C2.7418 16.0751 2.7418 14.5915 3.65686 13.6765Z" stroke="black" stroke-width="2" stroke-linecap="round" stroke-linejoin="round"/>
</svg>
