<svg width="24" height="24" viewBox="0 0 24 24" fill="none" xmlns="http://www.w3.org/2000/svg">
<path d="M10 17H14" stroke="#808080" stroke-width="2" stroke-linecap="round" stroke-linejoin="round"/>
<path d="M16 12C16 13.1402 15.5243 14.1676 14.7577 14.8974L16.1368 16.3459C17.2834 15.2542 18 13.71 18 12H16ZM12 8C14.2091 8 16 9.79086 16 12H18C18 8.68629 15.3137 6 12 6V8ZM8 12C8 9.79086 9.79086 8 12 8V6C8.68629 6 6 8.68629 6 12H8ZM9.24231 14.8974C8.47574 14.1676 8 13.1402 8 12H6C6 13.71 6.71663 15.2542 7.86319 16.3459L9.24231 14.8974ZM11 19V18.3307H9V19H11ZM13 18.3307V19H15V18.3307H13ZM9 19C9 20.6569 10.3431 22 12 22V20C11.4477 20 11 19.5523 11 19H9ZM7.86319 16.3459C8.58405 17.0323 9 17.6983 9 18.3307H11C11 16.8411 10.0582 15.6743 9.24231 14.8974L7.86319 16.3459ZM12 22C13.6569 22 15 20.6569 15 19H13C13 19.5523 12.5523 20 12 20V22ZM14.7577 14.8974C13.9418 15.6743 13 16.8411 13 18.3307H15C15 17.6983 15.4159 17.0323 16.1368 16.3459L14.7577 14.8974Z" fill="black"/>
<path d="M20 12H21" stroke="black" stroke-width="2" stroke-linecap="round" stroke-linejoin="round"/>
<path d="M3 12H4" stroke="black" stroke-width="2" stroke-linecap="round" stroke-linejoin="round"/>
<path d="M17.6567 6.34314L18.3638 5.63603" stroke="black" stroke-width="2" stroke-linecap="round" stroke-linejoin="round"/>
<path d="M5.63623 5.6362L6.34334 6.34331" stroke="black" stroke-width="2" stroke-linecap="round" stroke-linejoin="round"/>
<path d="M12 3V4" stroke="black" stroke-width="2" stroke-linecap="round" stroke-linejoin="round"/>
</svg>
