<svg width="24" height="24" viewBox="0 0 24 24" fill="none" xmlns="http://www.w3.org/2000/svg">
<circle cx="12" cy="12" r="3" stroke="black" stroke-width="2" stroke-linecap="round" stroke-linejoin="round"/>
<path d="M14.0706 19.7274C12.456 20.16 10.7464 20.0761 9.182 19.4872C7.61759 18.8984 6.27691 17.8344 5.34824 16.4446C4.41958 15.0547 3.94959 13.4089 4.00428 11.7382C4.05897 10.0676 4.6356 8.45604 5.65317 7.12991C6.67075 5.80378 8.07815 4.8297 9.67772 4.34448C11.2773 3.85925 12.9887 3.88726 14.5715 4.42456C16.1544 4.96186 17.5291 5.98147 18.5028 7.34018C19.4764 8.69889 20 10.3285 20 12" stroke="black" stroke-width="2" stroke-linecap="round" stroke-linejoin="round"/>
<path d="M15 9V13.5C15 14.8807 16.1193 16 17.5 16V16C18.8807 16 20 14.8807 20 13.5V12" stroke="black" stroke-width="2" stroke-linecap="round" stroke-linejoin="round"/>
</svg>
