<svg width="24" height="24" viewBox="0 0 24 24" fill="none" xmlns="http://www.w3.org/2000/svg">
<path d="M4 9.5V10.375C4 11.8247 5.17525 13 6.625 13C7.10825 13 7.5 13.3918 7.5 13.875V16.25C7.5 17.2165 8.2835 18 9.25 18C10.2165 18 11 17.2165 11 16.25V9.5C11 7.567 9.433 6 7.5 6C5.567 6 4 7.567 4 9.5Z" stroke="black" stroke-width="2" stroke-linecap="round" stroke-linejoin="round"/>
<path d="M13 9.5V10.375C13 11.8247 14.1753 13 15.625 13C16.1082 13 16.5 13.3918 16.5 13.875V16.25C16.5 17.2165 17.2835 18 18.25 18C19.2165 18 20 17.2165 20 16.25V9.5C20 7.567 18.433 6 16.5 6C14.567 6 13 7.567 13 9.5Z" stroke="#808080" stroke-width="2" stroke-linecap="round" stroke-linejoin="round"/>
</svg>
