<svg width="24" height="24" viewBox="0 0 24 24" fill="none" xmlns="http://www.w3.org/2000/svg">
<circle cx="15" cy="14" r="1" fill="black"/>
<circle cx="9" cy="14" r="1" fill="black"/>
<path d="M20 13V15C20 17.2091 18.2091 19 16 19H8C5.79086 19 4 17.2091 4 15V13C4 10.7909 5.79086 9 8 9H9" stroke="black" stroke-width="2" stroke-linecap="round" stroke-linejoin="round"/>
<path d="M20 14L21 14" stroke="black" stroke-width="2" stroke-linecap="round" stroke-linejoin="round"/>
<path d="M3 14L4 14" stroke="black" stroke-width="2" stroke-linecap="round" stroke-linejoin="round"/>
<path d="M12 6C12 4.89543 12.8954 4 14 4H19C20.1046 4 21 4.89543 21 6V8C21 9.10457 20.1046 10 19 10H14.4142C14.149 10 13.8946 10.1054 13.7071 10.2929V10.2929C13.0771 10.9229 12 10.4767 12 9.58579V6Z" stroke="#808080" stroke-width="2" stroke-linecap="round" stroke-linejoin="round"/>
</svg>
