<svg width="24" height="24" viewBox="0 0 24 24" fill="none" xmlns="http://www.w3.org/2000/svg">
<path d="M2 5H16" stroke="black" stroke-width="2" stroke-linecap="round" stroke-linejoin="round"/>
<path d="M9 5V2" stroke="black" stroke-width="2" stroke-linecap="round" stroke-linejoin="round"/>
<path d="M12 5V8.34315C12 9.40401 11.5786 10.4214 10.8284 11.1716L4 18" stroke="black" stroke-width="2" stroke-linecap="round" stroke-linejoin="round"/>
<path d="M6 8V8.75736C6 9.55301 6.31607 10.3161 6.87868 10.8787L11 15" stroke="black" stroke-width="2" stroke-linecap="round" stroke-linejoin="round"/>
<path d="M13 21V20.6366C13 20.2169 13.0881 19.8018 13.2586 19.4182L16.7969 11.4569C16.9204 11.1791 17.1959 11 17.5 11V11C17.8041 11 18.0796 11.1791 18.2031 11.4569L21.7414 19.4182C21.9119 19.8018 22 20.2169 22 20.6366V21" stroke="black" stroke-width="2" stroke-linecap="round" stroke-linejoin="round"/>
<path d="M14 18H21" stroke="black" stroke-width="2" stroke-linecap="round" stroke-linejoin="round"/>
</svg>
