<svg width="24" height="24" viewBox="0 0 24 24" fill="none" xmlns="http://www.w3.org/2000/svg">
<path d="M20.6737 16.6313L20.242 18.7899C20.0979 19.5106 19.5039 20.0551 18.7735 20.1363C10.1743 21.0917 2.90825 13.8257 3.86372 5.22651C3.94488 4.49606 4.48942 3.90212 5.21009 3.75798L7.36867 3.32627C8.31407 3.13719 9.25979 3.64949 9.61786 4.54465L10.7551 7.38777C10.9037 7.75918 10.8166 8.1834 10.5337 8.46626L9.30761 9.69239C9.11677 9.88323 9.04005 10.1602 9.10551 10.422C9.65609 12.6243 11.3757 14.3439 13.578 14.8945C13.8398 14.9599 14.1168 14.8832 14.3076 14.6924L15.5337 13.4663C15.8166 13.1834 16.2408 13.0963 16.6122 13.2449L19.4554 14.3821C20.3505 14.7402 20.8628 15.6859 20.6737 16.6313Z" stroke="black" stroke-width="2" stroke-linecap="round" stroke-linejoin="round"/>
<path d="M20.6737 16.6313L20.242 18.7899C20.0979 19.5106 19.5039 20.0551 18.7735 20.1363C10.1743 21.0917 2.90825 13.8257 3.86372 5.22651C3.94488 4.49606 4.48942 3.90212 5.21009 3.75798L7.36867 3.32627C8.31407 3.13719 9.25979 3.64949 9.61786 4.54465L10.7551 7.38777C10.9037 7.75918 10.8166 8.1834 10.5337 8.46626L9.30761 9.69239C9.11677 9.88323 9.04005 10.1602 9.10551 10.422C9.65609 12.6243 11.3757 14.3439 13.578 14.8945C13.8398 14.9599 14.1168 14.8832 14.3076 14.6924L15.5337 13.4663C15.8166 13.1834 16.2408 13.0963 16.6122 13.2449L19.4554 14.3821C20.3505 14.7402 20.8628 15.6859 20.6737 16.6313Z" stroke="black" stroke-width="2" stroke-linecap="round" stroke-linejoin="round"/>
</svg>
