<svg width="24" height="24" viewBox="0 0 24 24" fill="none" xmlns="http://www.w3.org/2000/svg">
<path d="M7.20703 10V11C7.6545 11 8.0475 10.7027 8.16928 10.2722L7.20703 10ZM17.8158 10.0833L16.8494 10.3402C16.9466 10.7061 17.2422 10.9856 17.6129 11.0625L17.8158 10.0833ZM8.16928 10.2722C8.70365 8.38286 10.4416 7 12.5 7V5C9.52326 5 7.01627 7.00014 6.24478 9.72784L8.16928 10.2722ZM12.5 7C14.5831 7 16.338 8.41632 16.8494 10.3402L18.7822 9.82635C18.0437 7.04824 15.5123 5 12.5 5V7ZM17.6129 11.0625C18.976 11.3449 20 12.554 20 14H22C22 11.5868 20.2915 9.57501 18.0187 9.10406L17.6129 11.0625ZM20 14C20 15.6569 18.6569 17 17 17V19C19.7614 19 22 16.7614 22 14H20ZM17 17H7V19H17V17ZM7 17C5.34315 17 4 15.6569 4 14H2C2 16.7614 4.23858 19 7 19V17ZM4 14C4 12.3431 5.34315 11 7 11V9C4.23858 9 2 11.2386 2 14H4ZM7 11H7.20703V9H7V11Z" fill="black"/>
</svg>
