<svg width="24" height="24" viewBox="0 0 24 24" fill="none" xmlns="http://www.w3.org/2000/svg">
<path fill="black" d="M12 6V7H11C9.34315 7 8 5.65685 8 4V3H9C10.6569 3 12 4.34315 12 6Z"/>
<path fill="black" d="M15 3L12 7"/>
<path fill="black" d="M9.88948 7.15579L10.5144 7.40577C11.4681 7.78723 12.5319 7.78723 13.4856 7.40577L14.1105 7.15579C15.7758 6.48968 17.6784 7.1306 18.6011 8.66857C19.4825 10.1375 19.6264 11.9339 18.9902 13.5244L17.1376 18.1561C16.5252 19.687 14.7352 20.3676 13.2604 19.6302C12.467 19.2335 11.533 19.2335 10.7396 19.6302C9.26483 20.3676 7.47481 19.687 6.86244 18.1561L5.00977 13.5244C4.37357 11.9339 4.51752 10.1375 5.39886 8.66857C6.32164 7.1306 8.22419 6.48968 9.88948 7.15579Z"/>
</svg>
