<svg width="24" height="24" viewBox="0 0 24 24" fill="none" xmlns="http://www.w3.org/2000/svg">
<path d="M6 9V6C6 4.34315 7.34315 3 9 3C10.6569 3 12 4.34315 12 6V18C12 19.6569 10.6569 21 9 21C7.34315 21 6 19.6569 6 18V15C4.34315 15 3 13.6569 3 12C3 10.3431 4.34315 9 6 9Z" stroke="black" stroke-width="2" stroke-linecap="round" stroke-linejoin="round"/>
<path d="M12 5V6C12 7.10457 11.1046 8 10 8V8" stroke="black" stroke-width="2" stroke-linecap="round" stroke-linejoin="round"/>
<path d="M6 15H7C8.10457 15 9 15.8954 9 17V17" stroke="black" stroke-width="2" stroke-linecap="round" stroke-linejoin="round"/>
<path d="M6 7V8C6 9.65685 7.34315 11 9 11V11" stroke="black" stroke-width="2" stroke-linecap="round" stroke-linejoin="round"/>
<path d="M18 9V6C18 4.34315 16.6569 3 15 3C13.3431 3 12 4.34315 12 6V18C12 19.6569 13.3431 21 15 21C16.6569 21 18 19.6569 18 18V15C19.6569 15 21 13.6569 21 12C21 10.3431 19.6569 9 18 9Z" stroke="#808080" stroke-width="2" stroke-linecap="round" stroke-linejoin="round"/>
<path d="M12 5V6C12 7.10457 12.8954 8 14 8V8" stroke="#808080" stroke-width="2" stroke-linecap="round" stroke-linejoin="round"/>
<path d="M18 15H17C15.8954 15 15 15.8954 15 17V17" stroke="#808080" stroke-width="2" stroke-linecap="round" stroke-linejoin="round"/>
<path d="M18 7V8C18 9.65685 16.6569 11 15 11V11" stroke="#808080" stroke-width="2" stroke-linecap="round" stroke-linejoin="round"/>
</svg>
