<svg width="24" height="24" viewBox="0 0 24 24" fill="none" xmlns="http://www.w3.org/2000/svg">
<path fill="black" d="M10.3018 5.9605L9.34504 5.66955L10.3018 5.9605ZM9.14745 4.5236L8.79079 3.58936L9.14745 4.5236ZM17.5187 14.9811L17.5917 15.9785L17.5187 14.9811ZM18.6659 16.4249L19.4985 16.9787L18.6659 16.4249ZM17.4456 13.9838C17.2987 13.9946 17.1501 14.0001 17 14.0001V16.0001C17.1989 16.0001 17.3962 15.9928 17.5917 15.9785L17.4456 13.9838ZM17 14.0001C13.6863 14.0001 11 11.3138 11 8.00005H9C9 12.4183 12.5817 16.0001 17 16.0001V14.0001ZM11 8.00005C11 7.39027 11.0906 6.80347 11.2585 6.25144L9.34504 5.66955C9.12044 6.40814 9 7.19094 9 8.00005H11ZM5 12.0001C5 9.01492 6.86898 6.46382 9.50411 5.45783L8.79079 3.58936C5.40652 4.88135 3 8.15842 3 12.0001H5ZM12 19.0001C8.13401 19.0001 5 15.8661 5 12.0001H3C3 16.9706 7.02944 21.0001 12 21.0001V19.0001ZM17.8333 15.8711C16.5774 17.7592 14.4334 19.0001 12 19.0001V21.0001C15.1309 21.0001 17.8877 19.4005 19.4985 16.9787L17.8333 15.8711ZM11.2585 6.25144C11.4753 5.53849 11.3251 4.77411 10.9166 4.22606C10.4811 3.64177 9.6817 3.24925 8.79079 3.58936L9.50411 5.45783C9.50283 5.45832 9.48627 5.46414 9.45728 5.46479C9.42812 5.46544 9.39779 5.46057 9.37019 5.45102C9.3156 5.43212 9.30237 5.40698 9.3131 5.42137C9.32396 5.43594 9.3431 5.47119 9.35245 5.5242C9.36146 5.57531 9.35831 5.62591 9.34504 5.66955L11.2585 6.25144ZM17.5917 15.9785C17.6371 15.9751 17.6871 15.9832 17.7349 16.0032C17.7845 16.024 17.8147 16.0505 17.8266 16.0644C17.8383 16.0781 17.8168 16.0599 17.8105 16.0027C17.8073 15.9739 17.8092 15.9433 17.8162 15.9151C17.8232 15.8871 17.8325 15.8722 17.8333 15.8711L19.4985 16.9787C20.0267 16.1847 19.8202 15.3183 19.3465 14.7645C18.9021 14.2449 18.1894 13.9293 17.4456 13.9838L17.5917 15.9785Z"/>
</svg>
