<svg width="24" height="24" viewBox="0 0 24 24" fill="none" xmlns="http://www.w3.org/2000/svg">
<path fill="black" d="M19 12H15.618C15.2393 12 14.893 12.214 14.7236 12.5528L14.2764 13.4472C14.107 13.786 13.7607 14 13.382 14H10.618C10.2393 14 9.893 13.786 9.72361 13.4472L9.27639 12.5528C9.107 12.214 8.76074 12 8.38197 12H5"/>
<path fill="black" d="M17 19H7C5.34315 19 4 17.6569 4 16V12.3693C4 12.124 4.03008 11.8797 4.08957 11.6417L5.62127 5.51493C5.84385 4.62459 6.64382 4 7.56155 4H16.4384C17.3562 4 18.1561 4.62459 18.3787 5.51493L19.9104 11.6417C19.9699 11.8797 20 12.124 20 12.3693V16C20 17.6569 18.6569 19 17 19Z"/>
</svg>
