<svg width="24" height="24" viewBox="0 0 24 24" fill="none" xmlns="http://www.w3.org/2000/svg">
<circle cx="14" cy="3" r="2" fill="black"/>
<path d="M8.04463 18.7889C9.68916 19.1178 11.2963 18.0764 11.6679 16.441L12 14.98L13.6795 16.5795C13.948 16.8353 14.1 17.1898 14.1 17.5606V21.98C14.1 22.5323 14.5477 22.98 15.1 22.98C15.6523 22.98 16.1 22.5323 16.1 21.98V16.8035C16.1 15.9583 15.7536 15.1501 15.1416 14.5672L14 13.48L14.6 10.48C15.7005 11.7498 17.3026 12.6613 19.1031 12.9111C19.6501 12.9871 20.1 12.5323 20.1 11.98C20.1 11.4277 19.6481 10.9903 19.1057 10.8862C17.6497 10.6069 16.4559 9.72789 15.8 8.57998L14.8 6.97998C14.4 6.37998 13.8 5.97998 13.1 5.97998C12.8 5.97998 12.6 6.07998 12.3 6.07998L8.53717 7.67195C7.66603 8.04051 7.1 8.89458 7.1 9.84048V11.98C7.1 12.5323 7.54771 12.98 8.1 12.98C8.65228 12.98 9.1 12.5323 9.1 11.98V10.0765C9.1 9.77716 9.28378 9.50851 9.56278 9.40001L10.9 8.87998L9.49419 15.9969C9.38714 16.5388 8.8594 16.8901 8.31814 16.7796L5.40117 16.1843C4.84888 16.0716 4.31015 16.4292 4.19961 16.9819C4.08937 17.5331 4.44684 18.0693 4.99804 18.1796L8.04463 18.7889Z" fill="black"/>
</svg>
