<svg width="24" height="24" viewBox="0 0 24 24" fill="none" xmlns="http://www.w3.org/2000/svg">
<path d="M7.54614 7.36159C7.81718 6.54846 8.57813 6 9.43524 6H14.5648C15.4219 6 16.1828 6.54846 16.4539 7.36159V7.36159C16.7672 8.3017 16.3416 9.32918 15.4553 9.77235L15.4279 9.78605C15.1465 9.92675 14.8362 10 14.5216 10H9.47841C9.16379 10 8.8535 9.92675 8.57209 9.78605L8.54471 9.77235C7.65836 9.32918 7.23277 8.3017 7.54614 7.36159V7.36159Z" stroke="black" stroke-width="2" stroke-linecap="round" stroke-linejoin="round"/>
<path d="M8.47795 18.6508C8.78298 20.0234 10.0004 21 11.4065 21H12.5935C13.9996 21 15.217 20.0234 15.522 18.6508L16.6503 13.5737C16.8681 12.5935 16.5701 11.5701 15.8601 10.8601V10.8601C15.3094 10.3094 14.5625 10 13.7836 10H10.2164C9.43755 10 8.69061 10.3094 8.13989 10.8601V10.8601C7.42993 11.5701 7.1319 12.5935 7.3497 13.5737L8.47795 18.6508Z" stroke="black" stroke-width="2" stroke-linecap="round" stroke-linejoin="round"/>
<path d="M12 5V3" stroke="black" stroke-width="2" stroke-linecap="round" stroke-linejoin="round"/>
<path d="M14 3H10" stroke="black" stroke-width="2" stroke-linecap="round" stroke-linejoin="round"/>
</svg>
