<svg width="24" height="24" viewBox="0 0 24 24" fill="none" xmlns="http://www.w3.org/2000/svg">
<path fill="black" d="M12 16H18V18C18 19.1046 17.1046 20 16 20C15.3705 20 14.7777 19.7036 14.4 19.2L12 16Z"/>
<path fill="black" d="M16 4H7C5.34315 4 4 5.34315 4 7V9C4 10.6569 5.34315 12 7 12H8V13C8 14.6569 9.34315 16 11 16H16C18.2091 16 20 14.2091 20 12V8C20 5.79086 18.2091 4 16 4Z"/>
<path fill="black" d="M8 12V12C8 10.8954 8.89543 10 10 10H12C13.1046 10 14 9.10457 14 8V7"/>
<path fill="black" d="M8 7V7C9.10457 7 10 6.10457 10 5L10 4"/>
<path fill="black" d="M13 13V14C13 15.1046 13.8954 16 15 16H17"/>
<path fill="black" d="M17 12V11C17 9.89543 17.8954 9 19 9H20"/>
</svg>
