<svg width="24" height="24" viewBox="0 0 24 24" fill="none" xmlns="http://www.w3.org/2000/svg">
<path d="M13.3301 6.5C12.9467 5.83581 12.4155 5.26874 11.7779 4.84265C11.1402 4.41656 10.413 4.14288 9.65263 4.04278C8.89225 3.94267 8.11904 4.01883 7.3928 4.26535C6.66656 4.51187 6.00677 4.92216 5.46447 5.46447C4.92216 6.00677 4.51187 6.66657 4.26535 7.3928C4.01882 8.11904 3.94267 8.89225 4.04278 9.65263C4.14288 10.413 4.41656 11.1402 4.84265 11.7779C5.26874 12.4155 5.83581 12.9467 6.5 13.3301" stroke="#808080" stroke-width="2" stroke-linecap="round" stroke-linejoin="round"/>
<path d="M18 12L12 18" stroke="black" stroke-width="2" stroke-linecap="round" stroke-linejoin="round"/>
<rect x="10" y="10" width="10" height="10" rx="5" stroke="black" stroke-width="2" stroke-linecap="round" stroke-linejoin="round"/>
</svg>
