<svg width="24" height="24" viewBox="0 0 24 24" fill="none" xmlns="http://www.w3.org/2000/svg">
<path fill="black" d="M12 3V9.83772C12 11.129 11.1737 12.2754 9.94868 12.6838L9 13"/>
<path fill="black" d="M12 3V9.83772C12 11.129 12.8263 12.2754 14.0513 12.6838L15 13"/>
<path fill="black" d="M5.03394 8.18754L4.53976 9.22427C3.52605 11.3509 3 13.6771 3 16.033C3 17.6716 4.34478 19 5.9834 19C7.64025 19 9 17.6569 9 16V9.08445C9 7.93324 8.06676 7 6.91555 7C6.11186 7 5.37976 7.46205 5.03394 8.18754Z"/>
<path fill="black" d="M18.9661 8.18754L19.4602 9.22427C20.4739 11.3509 21 13.6771 21 16.033C21 17.6716 19.6552 19 18.0166 19C16.3598 19 15 17.6569 15 16V9.08445C15 7.93324 15.9332 7 17.0844 7C17.8881 7 18.6202 7.46205 18.9661 8.18754Z"/>
</svg>
