<svg width="24" height="24" viewBox="0 0 24 24" fill="none" xmlns="http://www.w3.org/2000/svg">
<circle fill="black" cx="13" cy="3" r="2"/>
<path fill="black" d="M9.8 8.9L7.24689 21.7567C7.1191 22.4003 7.61146 23 8.26754 23C8.75422 23 9.1759 22.6627 9.28274 22.1878L10.9 15L12.5795 16.5996C12.848 16.8553 13 17.2099 13 17.5806V22C13 22.5523 13.4477 23 14 23C14.5523 23 15 22.5523 15 22V17.3243C15 16.1594 14.5225 15.0453 13.6789 14.2418L12.9 13.5L13.5 10.5C14.6005 11.7698 16.2026 12.6813 18.0031 12.9312C18.5501 13.0071 19 12.5523 19 12C19 11.4477 18.5481 11.0103 18.0057 10.9062C16.5497 10.6269 15.356 9.74792 14.7 8.6L13.7 7C13.14 6.11 12.02 5.75 11.05 6.16L7.43621 7.69139C6.56556 8.06034 6 8.91425 6 9.85984V12C6 12.5523 6.44772 13 7 13C7.55228 13 8 12.5523 8 12V10.0965C8 9.79719 8.18378 9.52853 8.46278 9.42003L9.8 8.9Z"/>
</svg>
