<svg width="24" height="24" viewBox="0 0 24 24" fill="none" xmlns="http://www.w3.org/2000/svg">
<path d="M9.7735 4.51567L9.93696 4.62464C11.1862 5.45749 12.8138 5.45749 14.063 4.62464L14.2265 4.51567C14.7309 4.17943 15.3235 4 15.9296 4C17.6253 4 19 5.37465 19 7.07037V8.24264C19 9.36786 18.553 10.447 17.7574 11.2426L17.5857 11.4143C17.2061 11.7939 16.9638 12.2892 16.8973 12.822L16.1266 18.9873C16.0543 19.5658 15.5625 20 14.9794 20C14.4142 20 13.9319 19.5914 13.839 19.0339L13.1644 14.9864C13.0695 14.4172 12.5771 14 12 14C11.4229 14 10.9305 14.4172 10.8356 14.9864L10.161 19.0339C10.0681 19.5914 9.58577 20 9.02061 20C8.43755 20 7.94573 19.5658 7.87341 18.9873L7.10275 12.822C7.03615 12.2892 6.79389 11.7939 6.41426 11.4143L6.24264 11.2426C5.44699 10.447 5 9.36786 5 8.24264V7.07037C5 5.37465 6.37465 4 8.07037 4C8.67653 4 9.26914 4.17943 9.7735 4.51567Z" stroke="black" stroke-width="2" stroke-linecap="round" stroke-linejoin="round"/>
<circle cx="12" cy="10" r="1" fill="#808080"/>
<circle cx="9" cy="8" r="1" fill="#808080"/>
<circle cx="15" cy="8" r="1" fill="#808080"/>
</svg>
