<svg width="24" height="24" viewBox="0 0 24 24" fill="none" xmlns="http://www.w3.org/2000/svg">
<path d="M3 10C4.06087 10 5.07828 9.57857 5.82843 8.82843C6.57857 8.07828 7 7.06087 7 6" stroke="black" stroke-width="2" stroke-linecap="round" stroke-linejoin="round"/>
<path d="M21 10C19.9391 10 18.9217 9.57857 18.1716 8.82843C17.4214 8.07828 17 7.06087 17 6" stroke="black" stroke-width="2" stroke-linecap="round" stroke-linejoin="round"/>
<path d="M3 14C4.06087 14 5.07828 14.4214 5.82843 15.1716C6.57857 15.9217 7 16.9391 7 18" stroke="black" stroke-width="2" stroke-linecap="round" stroke-linejoin="round"/>
<path d="M21 14C19.9391 14 18.9217 14.4214 18.1716 15.1716C17.4214 15.9217 17 16.9391 17 18" stroke="black" stroke-width="2" stroke-linecap="round" stroke-linejoin="round"/>
<rect x="3" y="6" width="18" height="12" rx="2" stroke="black" stroke-width="2" stroke-linecap="round" stroke-linejoin="round"/>
<circle cx="12" cy="12" r="3" stroke="black" stroke-width="2" stroke-linecap="round" stroke-linejoin="round"/>
</svg>
