<svg width="24" height="24" viewBox="0 0 24 24" fill="none" xmlns="http://www.w3.org/2000/svg">
<path d="M20.0949 8.02062L20.9609 7.52062L20.0949 8.02062ZM18.9906 12.3698L17.9919 12.3178L18.9906 12.3698ZM20.0949 15.9794L19.2289 15.4794L20.0949 15.9794ZM15.8141 17.8707L15.2686 17.0326L15.8141 17.8707ZM15.1758 18.2399L14.7215 17.349L15.1758 18.2399ZM4.5065 17.0207L5.37253 16.5207L4.5065 17.0207ZM3.90532 15.9794L3.0393 16.4794L3.90532 15.9794ZM5.00974 12.3697L4.01109 12.4217L5.00974 12.3697ZM5.00974 11.6303L4.01109 11.5783L5.00974 11.6303ZM3.90532 8.02057L4.77135 8.52057L3.90532 8.02057ZM8.82445 5.76014L8.37016 4.86929L8.82445 5.76014ZM15.8141 6.12931L15.2686 6.96737L15.8141 6.12931ZM8.18614 17.8707L7.64056 18.7087L8.18614 17.8707ZM19.4937 6.97928L20.3597 6.47928L19.4937 6.97928ZM11.3979 4H12.6024V2H11.3979V4ZM8.73174 6.96738C8.90796 6.85265 9.09052 6.74698 9.27875 6.65099L8.37016 4.86929C8.11894 4.9974 7.87546 5.13835 7.64058 5.29125L8.73174 6.96738ZM4.77135 8.52057L5.37252 7.47931L3.64047 6.47931L3.0393 7.52057L4.77135 8.52057ZM6.00015 12C6.00015 11.8933 6.00292 11.7874 6.00839 11.6823L4.01109 11.5783C4.00382 11.7181 4.00015 11.8586 4.00015 12H6.00015ZM6.00839 12.3177C6.00292 12.2126 6.00015 12.1067 6.00015 12H4.00015C4.00015 12.1413 4.00382 12.2819 4.01109 12.4217L6.00839 12.3177ZM5.37253 16.5207L4.77135 15.4794L3.0393 16.4794L3.64048 17.5207L5.37253 16.5207ZM9.27875 17.349C9.09052 17.253 8.90795 17.1473 8.73172 17.0326L7.64056 18.7087C7.87545 18.8616 8.11894 19.0026 8.37016 19.1307L9.27875 17.349ZM12.6024 20H11.3979V22H12.6024V20ZM15.2686 17.0326C15.0923 17.1473 14.9098 17.253 14.7215 17.349L15.6301 19.1307C15.8814 19.0026 16.1248 18.8616 16.3597 18.7087L15.2686 17.0326ZM19.2289 15.4794L18.6277 16.5207L20.3597 17.5207L20.9609 16.4794L19.2289 15.4794ZM18.0001 12C18.0001 12.1067 17.9974 12.2126 17.9919 12.3178L19.9892 12.4217C19.9965 12.282 20.0001 12.1414 20.0001 12H18.0001ZM17.9919 11.6822C17.9974 11.7873 18.0001 11.8933 18.0001 12H20.0001C20.0001 11.8586 19.9965 11.718 19.9892 11.5782L17.9919 11.6822ZM18.6277 7.47928L19.2289 8.52062L20.9609 7.52062L20.3597 6.47928L18.6277 7.47928ZM14.7215 6.65099C14.9098 6.74698 15.0923 6.85265 15.2686 6.96737L16.3597 5.29125C16.1248 5.13834 15.8814 4.9974 15.6301 4.86929L14.7215 6.65099ZM15.6301 4.86929C15.3184 4.71032 15.1699 4.47208 15.1484 4.27873L13.1606 4.49959C13.2727 5.5087 13.9555 6.26033 14.7215 6.65099L15.6301 4.86929ZM20.2601 10.8665C21.3121 10.0926 21.6139 8.65157 20.9609 7.52062L19.2289 8.52062C19.3723 8.769 19.306 9.08549 19.075 9.25545L20.2601 10.8665ZM19.9892 11.5782C19.9711 11.2299 20.103 10.9821 20.2601 10.8665L19.075 9.25545C18.2579 9.85656 17.9472 10.8227 17.9919 11.6822L19.9892 11.5782ZM20.2601 13.1335C20.103 13.0179 19.9711 12.7701 19.9892 12.4217L17.9919 12.3178C17.9472 13.1772 18.2579 14.1434 19.075 14.7445L20.2601 13.1335ZM20.9609 16.4794C21.6139 15.3484 21.3121 13.9074 20.2601 13.1335L19.075 14.7445C19.306 14.9145 19.3723 15.231 19.2289 15.4794L20.9609 16.4794ZM17.1119 18.5867C18.308 19.1107 19.7068 18.6516 20.3597 17.5207L18.6277 16.5207C18.4843 16.769 18.1771 16.8699 17.9145 16.7548L17.1119 18.5867ZM16.3597 18.7087C16.6525 18.5181 16.9332 18.5084 17.1119 18.5867L17.9145 16.7548C16.984 16.3471 15.9907 16.5625 15.2686 17.0326L16.3597 18.7087ZM15.1484 19.7213C15.1699 19.5279 15.3184 19.2897 15.6301 19.1307L14.7215 17.349C13.9555 17.7397 13.2727 18.4913 13.1606 19.5004L15.1484 19.7213ZM12.6024 22C13.9077 22 15.0042 21.0186 15.1484 19.7213L13.1606 19.5004C13.129 19.7848 12.8886 20 12.6024 20V22ZM8.85191 19.7213C8.99606 21.0186 10.0926 22 11.3979 22V20C11.1117 20 10.8713 19.7848 10.8397 19.5004L8.85191 19.7213ZM8.37016 19.1307C8.68189 19.2897 8.83043 19.5279 8.85191 19.7213L10.8397 19.5004C10.7276 18.4913 10.0448 17.7397 9.27875 17.349L8.37016 19.1307ZM3.64048 17.5207C4.29341 18.6516 5.69227 19.1107 6.88837 18.5867L6.08576 16.7548C5.8231 16.8699 5.51591 16.769 5.37253 16.5207L3.64048 17.5207ZM3.74012 13.1335C2.68817 13.9073 2.38633 15.3484 3.0393 16.4794L4.77135 15.4794C4.62793 15.231 4.69423 14.9145 4.92528 14.7445L3.74012 13.1335ZM4.01109 12.4217C4.02922 12.7701 3.89728 13.0179 3.74012 13.1335L4.92528 14.7445C5.7424 14.1434 6.05311 13.1772 6.00839 12.3177L4.01109 12.4217ZM3.74012 10.8665C3.89728 10.9821 4.02922 11.2299 4.01109 11.5783L6.00839 11.6823C6.05311 10.8228 5.7424 9.8566 4.92528 9.25548L3.74012 10.8665ZM3.0393 7.52057C2.38633 8.65155 2.68817 10.0926 3.74012 10.8665L4.92528 9.25548C4.69423 9.08551 4.62793 8.76898 4.77135 8.52057L3.0393 7.52057ZM6.88838 5.41333C5.69228 4.88928 4.29341 5.34839 3.64047 6.47931L5.37252 7.47931C5.51591 7.23096 5.8231 7.13013 6.08577 7.24522L6.88838 5.41333ZM7.64058 5.29125C7.34778 5.48187 7.06706 5.49162 6.88838 5.41333L6.08577 7.24522C7.0163 7.65291 8.00964 7.43746 8.73174 6.96738L7.64058 5.29125ZM8.85191 4.27873C8.83043 4.47208 8.68189 4.71032 8.37016 4.86929L9.27875 6.65099C10.0448 6.26033 10.7276 5.5087 10.8397 4.49959L8.85191 4.27873ZM17.1119 5.41332C16.9332 5.4916 16.6525 5.48185 16.3597 5.29125L15.2686 6.96737C15.9906 7.43745 16.984 7.65289 17.9145 7.24521L17.1119 5.41332ZM12.6024 4C12.8886 4 13.129 4.21517 13.1606 4.49959L15.1484 4.27873C15.0042 2.98145 13.9077 2 12.6024 2V4ZM6.88837 18.5867C7.06705 18.5084 7.34777 18.5181 7.64056 18.7087L8.73172 17.0326C8.00962 16.5625 7.01629 16.3471 6.08576 16.7548L6.88837 18.5867ZM20.3597 6.47928C19.7068 5.34838 18.308 4.88927 17.1119 5.41332L17.9145 7.24521C18.1771 7.13013 18.4843 7.23095 18.6277 7.47928L20.3597 6.47928ZM11.3979 2C10.0926 2 8.99606 2.98145 8.85191 4.27873L10.8397 4.49959C10.8713 4.21517 11.1117 4 11.3979 4V2Z" fill="black"/>
<circle cx="12" cy="12" r="3" stroke="black" stroke-width="2" stroke-linecap="round" stroke-linejoin="round"/>
</svg>
