<svg width="24" height="24" viewBox="0 0 24 24" fill="none" xmlns="http://www.w3.org/2000/svg">
<path fill="black" d="M8 15V15C8 17.2091 9.79086 19 12 19H14C16.2091 19 18 17.2091 18 15V11C18 8.79086 16.2091 7 14 7H13"/>
<path fill="black" d="M6 21L6.17082 20.6584C6.679 19.642 7.71779 19 8.8541 19H17.1459C18.2822 19 19.321 19.642 19.8292 20.6584L20 21"/>
<path fill="black" d="M6 15H10"/>
<path fill="black" d="M9.09424 10.8807L8.83542 11.8467"/>
<path fill="black" d="M11.1648 3.15333L10.906 4.11926"/>
<path fill="black" d="M8.45648 5.53347C8.74237 4.46654 9.83904 3.83338 10.906 4.11926V4.11926C11.9729 4.40514 12.6061 5.50182 12.3202 6.56875L11.5437 9.46653C11.2578 10.5335 10.1612 11.1666 9.09424 10.8807V10.8807C8.02731 10.5949 7.39414 9.49818 7.68003 8.43125L8.45648 5.53347Z"/>
</svg>
