<svg width="24" height="24" viewBox="0 0 24 24" fill="none" xmlns="http://www.w3.org/2000/svg">
<path fill="black" d="M20 8L18 8"/>
<path fill="black" d="M20 16L18 16"/>
<path fill="black" d="M6 8L4 8"/>
<path fill="black" d="M6 16L4 16"/>
<path fill="black" d="M6 12L4 12"/>
<path fill="black" d="M20 12L18 12"/>
<path fill="black" d="M8 4L8 6"/>
<path fill="black" d="M16 4L16 6"/>
<path fill="black" d="M12 18L12 20"/>
<path fill="black" d="M12 4L12 6"/>
<path fill="black" d="M8 18L8 20"/>
<path fill="black" d="M16 18L16 20"/>
<rect fill="black" x="6" y="6" width="12" height="12" rx="4"/>
<path fill="black" d="M10 11V13C10 13.5523 10.4477 14 11 14H13C13.5523 14 14 13.5523 14 13V11C14 10.4477 13.5523 10 13 10H11C10.4477 10 10 10.4477 10 11Z"/>
</svg>
