<svg width="24" height="24" viewBox="0 0 24 24" fill="none" xmlns="http://www.w3.org/2000/svg">
<path d="M3 7H6.55813C7.46948 7 8.33142 7.41427 8.90073 8.12591L15.0993 15.8741C15.6686 16.5857 16.5305 17 17.4419 17H21" stroke="black" stroke-width="2" stroke-linecap="round" stroke-linejoin="round"/>
<path d="M3 17H6.55813C7.46948 17 8.33142 16.5857 8.90073 15.8741L10 14.5M21 7H17.4419C16.5305 7 15.6686 7.41427 15.0993 8.12592L14 9.5" stroke="black" stroke-width="2" stroke-linecap="round" stroke-linejoin="round"/>
<path d="M19 4L21.2929 6.29289C21.6834 6.68342 21.6834 7.31658 21.2929 7.70711L19 10" stroke="black" stroke-width="2" stroke-linecap="round" stroke-linejoin="round"/>
<path d="M19 14L21.2929 16.2929C21.6834 16.6834 21.6834 17.3166 21.2929 17.7071L19 20" stroke="black" stroke-width="2" stroke-linecap="round" stroke-linejoin="round"/>
</svg>
