<svg width="24" height="24" viewBox="0 0 24 24" fill="none" xmlns="http://www.w3.org/2000/svg">
<path fill-rule="evenodd" clip-rule="evenodd" d="M15.0848 5.50082C11.7605 4.29221 7.86026 5.10462 5.31017 7.93806L2.87425 10.6446C2.17659 11.4198 2.19169 12.601 2.90894 13.3581L5.0099 15.5757L6.42463 14.161L4.36084 11.9826L6.79676 9.27599C8.54708 7.33119 11.1152 6.61055 13.4716 7.11407L15.0848 5.50082ZM12.5484 8.03726C12.369 8.01267 12.1859 7.99996 11.9998 7.99996C9.79068 7.99996 7.99982 9.79082 7.99982 12C7.99982 12.1861 8.01253 12.3692 8.03712 12.5485L12.5484 8.03726ZM8.89364 14.5204C9.62705 15.4231 10.7461 16 11.9998 16C14.209 16 15.9998 14.2091 15.9998 12C15.9998 10.7462 15.423 9.62719 14.5203 8.89378L13.0907 10.3234C13.638 10.6802 13.9998 11.2978 13.9998 12C13.9998 13.1045 13.1044 14 11.9998 14C11.2977 14 10.6801 13.6382 10.3232 13.0908L8.89364 14.5204ZM7.88305 15.531C10.6685 17.5617 14.6214 17.2787 17.0815 14.6819L19.6388 11.9826L17.2029 9.27599C16.6991 8.71628 16.1277 8.25797 15.513 7.90105L16.9653 6.44879C17.5858 6.86007 18.1661 7.35649 18.6895 7.93806L21.1254 10.6446C21.823 11.4198 21.808 12.601 21.0907 13.3581L18.5334 16.0574C15.2956 19.4751 10.0466 19.7755 6.45525 16.9588L7.88305 15.531Z" fill="black"/>
<path d="M19 5L5 19" stroke="black" stroke-width="2" stroke-linecap="round" stroke-linejoin="round"/>
</svg>
