<svg width="24" height="24" viewBox="0 0 24 24" fill="none" xmlns="http://www.w3.org/2000/svg">
<path fill-rule="evenodd" clip-rule="evenodd" d="M8 6C8 3.79086 9.79086 2 12 2C14.0759 2 15.7825 3.58135 15.9808 5.60515L14 7.58591V6C14 4.89543 13.1046 4 12 4C10.8954 4 10 4.89543 10 6V11C10 11.1792 10.0236 11.3529 10.0678 11.5181L8.55386 13.032C8.20195 12.4365 8 11.7418 8 11V6ZM7.82879 13.7571C7.65324 13.4915 7.50303 13.2091 7.3806 12.9135C7.12933 12.3069 7 11.6567 7 11.0001C7 10.4478 6.55228 10.0001 6 10.0001C5.44772 10.0001 5 10.4478 5 11.0001C5 11.9194 5.18106 12.8296 5.53284 13.6789C5.75628 14.2183 6.04582 14.7265 6.39391 15.192L7.82879 13.7571ZM7.80813 16.6062L9.24301 15.1713C9.50861 15.3469 9.79102 15.4971 10.0866 15.6195C10.6932 15.8708 11.3434 16.0001 12 16.0001C12.6566 16.0001 13.3068 15.8708 13.9134 15.6195C14.52 15.3682 15.0712 14.9999 15.5355 14.5357C15.9998 14.0714 16.3681 13.5202 16.6194 12.9135C16.8707 12.3069 17 11.6567 17 11.0001C17 10.4478 17.4477 10.0001 18 10.0001C18.5523 10.0001 19 10.4478 19 11.0001C19 11.9194 18.8189 12.8296 18.4672 13.6789C18.1154 14.5282 17.5998 15.2999 16.9497 15.9499C16.2997 16.5999 15.5281 17.1155 14.6788 17.4673C14.1393 17.6907 13.5753 17.8453 13 17.9283V20.0001H15C15.5523 20.0001 16 20.4478 16 21.0001C16 21.5524 15.5523 22.0001 15 22.0001H12H9C8.44772 22.0001 8 21.5524 8 21.0001C8 20.4478 8.44772 20.0001 9 20.0001H11V17.9283C10.4247 17.8453 9.86065 17.6907 9.32122 17.4673C8.78178 17.2438 8.27365 16.9543 7.80813 16.6062ZM9.96811 14.4462L11.4821 12.9323C11.6473 12.9765 11.8209 13 12 13C13.1046 13 14 12.1046 14 11V10.4143L16 8.41434V11C16 13.2091 14.2091 15 12 15C11.2582 15 10.5636 14.7981 9.96811 14.4462Z" fill="black"/>
<path d="M19 5L5 19" stroke="#808080" stroke-width="2" stroke-linecap="round" stroke-linejoin="round"/>
</svg>
