<svg width="24" height="24" viewBox="0 0 24 24" fill="none" xmlns="http://www.w3.org/2000/svg">
<path d="M20 11.5V11C20 8.79086 18.2091 7 16 7H8C5.79086 7 4 8.79086 4 11V16C4 18.2091 5.79086 20 8 20H16C18.2091 20 20 18.2091 20 16V15.5" stroke="black" stroke-width="2" stroke-linecap="round" stroke-linejoin="round"/>
<path d="M15 13.5C15 12.3954 15.8954 11.5 17 11.5H19C20.1046 11.5 21 12.3954 21 13.5V13.5C21 14.6046 20.1046 15.5 19 15.5H17C15.8954 15.5 15 14.6046 15 13.5V13.5Z" stroke="black" stroke-width="2" stroke-linecap="round" stroke-linejoin="round"/>
<path d="M14 7V6C14 4.89543 13.1046 4 12 4H7C5.34315 4 4 5.34315 4 7L4 11" stroke="black" stroke-width="2" stroke-linecap="round" stroke-linejoin="round"/>
</svg>
