<svg width="24" height="24" viewBox="0 0 24 24" fill="none" xmlns="http://www.w3.org/2000/svg">
<path d="M15.5 9.40192C15.9561 9.66523 16.3348 10.0439 16.5981 10.5C16.8614 10.9561 17 11.4734 17 12C17 12.5266 16.8614 13.0439 16.5981 13.5C16.3348 13.9561 15.9561 14.3348 15.5 14.5981" stroke="black" stroke-width="2" stroke-linecap="round" stroke-linejoin="round"/>
<path d="M17.5 5.93782C18.5641 6.5522 19.4478 7.43587 20.0622 8.5C20.6766 9.56413 21 10.7712 21 12C21 13.2288 20.6766 14.4359 20.0622 15.5C19.4478 16.5641 18.5641 17.4478 17.5 18.0622" stroke="black" stroke-width="2" stroke-linecap="round" stroke-linejoin="round"/>
<path d="M9.58579 8.41421L12 6V18L9.58579 15.5858C9.21071 15.2107 8.70201 15 8.17157 15H6C4.89543 15 4 14.1046 4 13V11C4 9.89543 4.89543 9 6 9H8.17157C8.70201 9 9.21071 8.78929 9.58579 8.41421Z" stroke="black" stroke-width="2" stroke-linecap="round" stroke-linejoin="round"/>
</svg>
