<svg width="24" height="24" viewBox="0 0 24 24" fill="none" xmlns="http://www.w3.org/2000/svg">
<path d="M12 12L12 10" stroke="black" stroke-width="2" stroke-linecap="round" stroke-linejoin="round"/>
<rect x="4" y="4" width="16" height="16" rx="3" stroke="black" stroke-width="2" stroke-linecap="round" stroke-linejoin="round"/>
<path d="M16.6194 10.0866V10.0866C17.0344 11.0884 16.1209 12 15.0365 12H12L8.96348 12C7.87908 12 6.96562 11.0884 7.3806 10.0866V10.0866C7.63188 9.47996 8.00017 8.92876 8.46447 8.46447C8.92876 8.00017 9.47995 7.63188 10.0866 7.3806C10.6932 7.12933 11.3434 7 12 7C12.6566 7 13.3068 7.12933 13.9134 7.3806C14.52 7.63188 15.0712 8.00017 15.5355 8.46447C15.9998 8.92876 16.3681 9.47995 16.6194 10.0866Z" stroke="#808080" stroke-width="2" stroke-linecap="round" stroke-linejoin="round"/>
</svg>
