<svg width="24" height="24" viewBox="0 0 24 24" fill="none" xmlns="http://www.w3.org/2000/svg">
<path d="M12 16V13C12 11.3431 10.6569 10 9 10H4" stroke="black" stroke-width="2" stroke-linecap="round" stroke-linejoin="round"/>
<path d="M14 6V5C14 3.89543 14.8954 3 16 3H17" stroke="black" stroke-width="2" stroke-linecap="round" stroke-linejoin="round"/>
<path d="M7 7V6C7 4.89543 7.89543 4 9 4V4C10.1046 4 11 4.89543 11 6V7H16C17.6569 7 19 8.34315 19 10V12.2984C19 14.638 17.9365 16.8508 16.1096 18.3123V18.3123C14.744 19.4048 13.0472 20 11.2984 20H10C8.34315 20 7 18.6569 7 17V13" stroke="black" stroke-width="2" stroke-linecap="round" stroke-linejoin="round"/>
<path d="M8 10H13C14.1046 10 15 10.8954 15 12V12" stroke="black" stroke-width="2" stroke-linecap="round" stroke-linejoin="round"/>
</svg>
