<svg width="24" height="24" viewBox="0 0 24 24" fill="none" xmlns="http://www.w3.org/2000/svg">
<path d="M15 13H16.5858C17.4913 13 18.3597 12.6403 19 12L19.3981 11.6019C20.4238 10.5762 21 9.18511 21 7.73459V7.73459C21 6.22432 19.7757 5 18.2654 5H7C4.79086 5 3 6.79086 3 9V16.0458C3 17.1251 3.87491 18 4.95416 18V18C5.60754 18 6.2177 17.6735 6.58013 17.1298L7 16.5C7.62474 15.5629 8.6765 15 9.80278 15H12C13.6569 15 15 13.6569 15 12V11" stroke="black" stroke-width="2" stroke-linecap="round" stroke-linejoin="round"/>
<path d="M6 11H7C8.65685 11 10 12.3431 10 14V20" stroke="#808080" stroke-width="2" stroke-linecap="round" stroke-linejoin="round"/>
<path d="M10 20V11C10 9.34315 11.3431 8 13 8H14" stroke="#808080" stroke-width="2" stroke-linecap="round" stroke-linejoin="round"/>
</svg>
