<svg width="24" height="24" viewBox="0 0 24 24" fill="none" xmlns="http://www.w3.org/2000/svg">
<circle cx="12" cy="10" r="3" stroke="black" stroke-width="2" stroke-linecap="round" stroke-linejoin="round"/>
<path d="M18.4672 7.32122C18.8189 8.1705 19 9.08075 19 10C19 12.5612 17.9826 15.0174 16.1716 16.8284L12 21L7.82843 16.8284C6.01742 15.0174 5 12.5612 5 10C5 9.08075 5.18106 8.1705 5.53284 7.32122C5.88463 6.47194 6.40024 5.70026 7.05025 5.05025C7.70026 4.40024 8.47194 3.88463 9.32122 3.53284C10.1705 3.18106 11.0807 3 12 3C12.9193 3 13.8295 3.18106 14.6788 3.53284C15.5281 3.88463 16.2997 4.40024 16.9497 5.05025C17.5998 5.70026 18.1154 6.47194 18.4672 7.32122Z" stroke="black" stroke-width="2" stroke-linecap="round" stroke-linejoin="round"/>
</svg>
