<svg width="24" height="24" viewBox="0 0 24 24" fill="none" xmlns="http://www.w3.org/2000/svg">
<path d="M17 6H13C11.3431 6 10 4.65685 10 3V3" stroke="#808080" stroke-width="2" stroke-linecap="round" stroke-linejoin="round"/>
<path d="M4 20V20C4 18.3431 5.34315 17 7 17L9 17" stroke="#808080" stroke-width="2" stroke-linecap="round" stroke-linejoin="round"/>
<path d="M21 11.1342V9.88376C21 7.73882 19.2612 6 17.1162 6C15.0787 6 13.3875 7.57466 13.2424 9.60705L13.1898 10.3425C13.0722 11.9899 12.0942 13.4529 10.617 14.1915L10.4065 14.2967C9.54451 14.7277 9 15.6088 9 16.5725V17.0318C9 18.6711 10.3289 20 11.9682 20H12.7595C14.5317 20 16.2494 19.3868 17.6211 18.2646C19.7597 16.5148 21 13.8975 21 11.1342Z" stroke="black" stroke-width="2" stroke-linecap="round" stroke-linejoin="round"/>
</svg>
