<svg width="24" height="24" viewBox="0 0 24 24" fill="none" xmlns="http://www.w3.org/2000/svg">
<circle cx="12" cy="4" r="2" fill="#808080"/>
<path d="M14 15C13.4477 15 13 15.4477 13 16V20C13 20.5523 12.5523 21 12 21C11.4477 21 11 20.5523 11 20V16C11 15.4477 10.5523 15 10 15C9.20668 15 8.6465 14.2228 8.89737 13.4702L10.3162 9.21359C10.5578 8.48885 11.236 8 12 8C12.764 8 13.4422 8.48885 13.6838 9.21359L15.1026 13.4702C15.3535 14.2228 14.7933 15 14 15Z" stroke="black" stroke-width="2" stroke-linecap="round" stroke-linejoin="round"/>
</svg>
