<svg width="24" height="24" viewBox="0 0 24 24" fill="none" xmlns="http://www.w3.org/2000/svg">
<path d="M8 7.99988V5.99988C8 4.34302 9.34315 2.99988 11 2.99988H13C14.6569 2.99988 16 4.34302 16 5.99988V7.99988" stroke="#808080" stroke-width="2" stroke-linecap="round" stroke-linejoin="round"/>
<path d="M8 15.9999V17.9999C8 19.6567 9.34315 20.9999 11 20.9999H13C14.6569 20.9999 16 19.6567 16 17.9999V15.9999" stroke="#808080" stroke-width="2" stroke-linecap="round" stroke-linejoin="round"/>
<path d="M18 7.99988C19.6569 7.99988 21 9.34302 21 10.9999L21 12.9999C21 14.6567 19.6569 15.9999 18 15.9999L6 15.9999C4.34315 15.9999 3 14.6567 3 12.9999L3 10.9999C3 9.34302 4.34315 7.99988 6 7.99988L18 7.99988Z" stroke="black" stroke-width="2" stroke-linecap="round" stroke-linejoin="round"/>
<circle cx="12" cy="11.9999" r="1" fill="black"/>
<circle cx="16" cy="11.9999" r="1" fill="black"/>
<circle cx="8" cy="11.9999" r="1" fill="black"/>
</svg>
