<svg width="24" height="24" viewBox="0 0 24 24" fill="none" xmlns="http://www.w3.org/2000/svg">
<path d="M4 4L5 5" stroke="#808080" stroke-width="2" stroke-linecap="round" stroke-linejoin="round"/>
<path d="M19 19L20 20" stroke="#808080" stroke-width="2" stroke-linecap="round" stroke-linejoin="round"/>
<path d="M10 10L14 14" stroke="#808080" stroke-width="2" stroke-linecap="round" stroke-linejoin="round"/>
<path d="M3.41436 10.4143L4.58603 11.5859C5.36708 12.367 6.63341 12.367 7.41445 11.5859L11.586 7.41437C12.3671 6.63332 12.3671 5.36699 11.586 4.58594L10.4144 3.41434C9.63339 2.6333 8.36708 2.63329 7.58603 3.41432L3.41438 7.58582C2.63331 8.36686 2.6333 9.63321 3.41436 10.4143Z" stroke="black" stroke-width="2" stroke-linecap="round" stroke-linejoin="round"/>
<path d="M16.4142 20.5859L20.5858 16.4143C21.3668 15.6333 21.3668 14.367 20.5858 13.5859L19.4142 12.4143C18.6332 11.6333 17.3668 11.6333 16.5858 12.4143L12.4141 16.5858C11.6331 17.3668 11.6331 18.6332 12.4141 19.4142L13.5858 20.5859C14.3668 21.367 15.6332 21.367 16.4142 20.5859Z" stroke="black" stroke-width="2" stroke-linecap="round" stroke-linejoin="round"/>
</svg>
