<svg width="24" height="24" viewBox="0 0 24 24" fill="none" xmlns="http://www.w3.org/2000/svg">
<path d="M18 5H6C4.34315 5 3 6.34315 3 8C3 9.65685 4.34315 11 6 11H18C19.6569 11 21 9.65685 21 8C21 6.34315 19.6569 5 18 5Z" stroke="black" stroke-width="2" stroke-linecap="round" stroke-linejoin="round"/>
<rect x="17" y="7" width="2" height="2" rx="1" fill="black"/>
<rect x="14" y="7" width="2" height="2" rx="1" fill="black"/>
<path d="M18 14H6C4.34315 14 3 15.3431 3 17C3 18.6569 4.34315 20 6 20H18C19.6569 20 21 18.6569 21 17C21 15.3431 19.6569 14 18 14Z" stroke="black" stroke-width="2" stroke-linecap="round" stroke-linejoin="round"/>
<rect x="17" y="16" width="2" height="2" rx="1" fill="black"/>
<rect x="14" y="16" width="2" height="2" rx="1" fill="black"/>
</svg>
