<svg width="24" height="24" viewBox="0 0 24 24" fill="none" xmlns="http://www.w3.org/2000/svg">
<circle fill="black" cx="12" cy="8" r="3"/>
<path fill="black" d="M18.4671 18.3212L18.4671 18.3212C18.483 18.3594 18.4984 18.3977 18.5135 18.4361C18.664 18.8183 18.5813 19.1586 18.3234 19.4488C18.0444 19.7628 17.5596 20 17 20H6.99999C6.44037 20 5.95561 19.7628 5.67653 19.4488C5.41866 19.1586 5.33599 18.8183 5.48644 18.4361C5.50155 18.3977 5.51702 18.3594 5.53283 18.3212L4.60895 17.9385L5.53283 18.3212C5.88461 17.4719 6.40023 16.7003 7.05024 16.0503C7.70025 15.4002 8.47192 14.8846 9.3212 14.5328C10.1705 14.1811 11.0807 14 12 14C12.9192 14 13.8295 14.1811 14.6788 14.5328C15.528 14.8846 16.2997 15.4002 16.9497 16.0503C17.5997 16.7003 18.1154 17.4719 18.4671 18.3212Z"/>
<rect fill="black" x="18" y="6" width="3" height="3" rx="1.5"/>
<rect fill="black" width="3" height="3" rx="1.5" transform="matrix(-1 0 0 1 6 6)"/>
<path fill="black" d="M21.8978 13.2235C21.7615 12.7149 21.4937 12.251 21.1213 11.8787C20.749 11.5063 20.2851 11.2385 19.7765 11.1022C19.2678 10.9659 18.7322 10.9659 18.2235 11.1022C17.7149 11.2385 17.251 11.5063 16.8787 11.8787"/>
<path fill="black" d="M2.10222 13.2235C2.23852 12.7149 2.50631 12.251 2.87868 11.8787C3.25105 11.5063 3.71488 11.2385 4.22354 11.1022C4.73221 10.9659 5.26779 10.9659 5.77646 11.1022C6.28512 11.2385 6.74895 11.5063 7.12132 11.8787"/>
</svg>
