<svg width="24" height="24" viewBox="0 0 24 24" fill="none" xmlns="http://www.w3.org/2000/svg">
<circle cx="16" cy="3" r="2" fill="black"/>
<path d="M18.5037 11.9242C19.0496 12.0079 19.5 11.5523 19.5 11C19.5 10.4477 19.0466 10.0113 18.5085 9.88686C17.129 9.56773 15.9681 8.59853 15.4 7.3L14.8 6.1C14.7 5.6 14.1 5 13.2 5H8.90046C8.02925 5 7.2195 5.4488 6.75776 6.18759L5.52581 8.1587C5.23409 8.62546 5.37082 9.23994 5.83293 9.53896C6.30833 9.84657 6.94378 9.70225 7.23968 9.21948L8.37163 7.3726C8.51351 7.14111 8.76551 7 9.03701 7H11L8.5 10.8C8.2 11.3 8.1 11.9 8.3 12.5L9.26907 15.5563C9.47525 16.2066 9.33577 16.9171 8.89905 17.4411L6.6 20.2H9.2L10.5386 18.6702C11.4476 17.6313 11.7567 16.1972 11.3564 14.8761L11 13.7L13.5643 15.3119C14.1466 15.6779 14.5 16.3174 14.5 17.0051V20.3H16.5V16.7115C16.5 15.3353 15.7926 14.0558 14.6271 13.324L12.2 11.8L14 8.9C14.9387 10.5214 16.6057 11.6331 18.5037 11.9242Z" fill="black"/>
<path d="M4 19L5.12132 20.1213C5.68393 20.6839 6.44699 21 7.24264 21H16.7574C17.553 21 18.3161 20.6839 18.8787 20.1213L20 19" stroke="black" stroke-width="2" stroke-linecap="round" stroke-linejoin="round"/>
</svg>
