<svg width="24" height="24" viewBox="0 0 24 24" fill="none" xmlns="http://www.w3.org/2000/svg">
<path fill="black" d="M16 8V7C16 4.79086 14.2091 3 12 3V3C9.79086 3 8 4.79086 8 7V8H7C4.79086 8 3 9.79086 3 12V12C3 14.2091 4.79086 16 7 16H17C19.2091 16 21 14.2091 21 12V12C21 9.79086 19.2091 8 17 8H16Z"/>
<path fill="black" d="M10 11H14"/>
<path fill="black" d="M12 9L12 13"/>
<path fill="black" d="M8 16V18.5C8 19.3284 7.32843 20 6.5 20H5"/>
<path fill="black" d="M12 16L12 21"/>
<path fill="black" d="M16 16V18.5C16 19.3284 16.6716 20 17.5 20H19"/>
</svg>
