<svg width="24" height="24" viewBox="0 0 24 24" fill="none" xmlns="http://www.w3.org/2000/svg">
<path fill-rule="evenodd" clip-rule="evenodd" d="M13 7.58582V6.00003C13 5.59557 12.7564 5.23093 12.3827 5.07615C12.009 4.92137 11.5789 5.00692 11.2929 5.29292L8.87868 7.70714C8.69114 7.89467 8.43679 8.00003 8.17157 8.00003H6C4.34315 8.00003 3 9.34317 3 11V13C3 14.2398 3.752 15.3039 4.82474 15.7611L6.58579 14H6C5.44772 14 5 13.5523 5 13V11C5 10.4477 5.44772 10 6 10H8.17157C8.96722 10 9.73028 9.68396 10.2929 9.12135L11 8.41424V9.58582L13 7.58582ZM9.22368 14.1906C9.62139 14.3395 9.98681 14.5726 10.2929 14.8787L11 15.5858V12.4142L13 10.4142V18C13 18.4045 12.7564 18.7691 12.3827 18.9239C12.009 19.0787 11.5789 18.9931 11.2929 18.7071L8.87868 16.2929C8.69114 16.1054 8.43679 16 8.17157 16H7.41422L9.22368 14.1906ZM16.781 6.63324C16.8442 6.69851 16.9174 6.75619 17 6.80388C17.9121 7.33049 18.6695 8.08791 19.1962 9.00003C19.7228 9.91214 20 10.9468 20 12C20 13.0532 19.7228 14.0879 19.1962 15C18.6695 15.9121 17.9121 16.6696 17 17.1962C16.5217 17.4723 16.3578 18.0839 16.634 18.5622C16.9101 19.0405 17.5217 19.2044 18 18.9282C19.2162 18.2261 20.2261 17.2162 20.9282 16C21.6304 14.7839 22 13.4043 22 12C22 10.5957 21.6304 9.21618 20.9282 8.00003C20.2677 6.85602 19.3349 5.89452 18.2142 5.20001L16.781 6.63324ZM16 8.53593C15.5217 8.25978 14.9101 8.42366 14.634 8.90195C14.3578 9.38025 14.5217 9.99184 15 10.268C15.304 10.4435 15.5565 10.696 15.7321 11C15.9076 11.3041 16 11.649 16 12C16 12.3511 15.9076 12.696 15.7321 13C15.5565 13.3041 15.304 13.5565 15 13.7321C14.5217 14.0082 14.3578 14.6198 14.634 15.0981C14.9101 15.5764 15.5217 15.7403 16 15.4641C16.6081 15.1131 17.113 14.6081 17.4641 14C17.8152 13.392 18 12.7022 18 12C18 11.2979 17.8152 10.6081 17.4641 10C17.113 9.39195 16.6081 8.887 16 8.53593Z" fill="black"/>
<path d="M19 5L5 19" stroke="black" stroke-width="2" stroke-linecap="round" stroke-linejoin="round"/>
</svg>
