<svg width="24" height="24" viewBox="0 0 24 24" fill="none" xmlns="http://www.w3.org/2000/svg">
<path d="M3 9.90569C3 8.30092 4.30092 7 5.90569 7H6.41886C7.3631 7 8.2014 6.39579 8.5 5.5V5.5C8.7986 4.60421 9.6369 4 10.5811 4H13.4189C14.3631 4 15.2014 4.60421 15.5 5.5V5.5C15.7986 6.39579 16.6369 7 17.5811 7H18.0943C19.6991 7 21 8.30092 21 9.90569V16C21 18.2091 19.2091 20 17 20H7C4.79086 20 3 18.2091 3 16V9.90569Z" stroke="black" stroke-width="2" stroke-linecap="round" stroke-linejoin="round"/>
<circle cx="12" cy="13" r="4" stroke="#808080" stroke-width="2" stroke-linecap="round" stroke-linejoin="round"/>
</svg>
