<svg width="24" height="24" viewBox="0 0 24 24" fill="none" xmlns="http://www.w3.org/2000/svg">
<path d="M3.5 19C3.5 18.4477 3.94772 18 4.5 18H8.5C9.05228 18 9.5 18.4477 9.5 19V20C9.5 21.1046 8.60457 22 7.5 22H5.5C4.39543 22 3.5 21.1046 3.5 20V19Z" fill="black"/>
<path d="M8.5 16H4.5V10.2111C4.5 9.4214 4.73375 8.64937 5.1718 7.9923L5.7265 7.16025C6.20974 6.43539 7.02327 6 7.89445 6C9.33345 6 10.5 7.16654 10.5 8.60555V10.5858C10.5 11.4913 10.1403 12.3597 9.5 13C8.85971 13.6403 8.5 14.5087 8.5 15.4142V16Z" stroke="black" stroke-width="2" stroke-linecap="round" stroke-linejoin="round"/>
<path d="M15.5 13H19.5V7.2111C19.5 6.4214 19.2662 5.64937 18.8282 4.9923L18.2735 4.16025C17.7903 3.43539 16.9767 3 16.1056 3C14.6665 3 13.5 4.16654 13.5 5.60555V7.58579C13.5 8.49129 13.8597 9.35971 14.5 10C15.1403 10.6403 15.5 11.5087 15.5 12.4142V13Z" stroke="black" stroke-width="2" stroke-linecap="round" stroke-linejoin="round"/>
<path d="M20.5 16C20.5 15.4477 20.0523 15 19.5 15H15.5C14.9477 15 14.5 15.4477 14.5 16V17C14.5 18.1046 15.3954 19 16.5 19H18.5C19.6046 19 20.5 18.1046 20.5 17V16Z" fill="black"/>
</svg>
