<svg width="24" height="24" viewBox="0 0 24 24" fill="none" xmlns="http://www.w3.org/2000/svg">
<path fill-rule="evenodd" clip-rule="evenodd" d="M12 2C14.2091 2 16 3.79086 16 6V8C16 12.4183 12.4183 16 8 16H6C3.79086 16 2 14.2091 2 12C2 9.79086 3.79086 8 6 8H8V6C8 3.79086 9.79086 2 12 2Z" stroke="black" stroke-width="2" stroke-linecap="round" stroke-linejoin="round"/>
<path fill-rule="evenodd" clip-rule="evenodd" d="M12 22C9.79086 22 8 20.2091 8 18V16C8 11.5817 11.5817 8 16 8H18C20.2091 8 22 9.79086 22 12C22 14.2091 20.2091 16 18 16H16V18C16 20.2091 14.2091 22 12 22Z" stroke="black" stroke-width="2" stroke-linecap="round" stroke-linejoin="round"/>
</svg>
