<svg width="24" height="24" viewBox="0 0 24 24" fill="none" xmlns="http://www.w3.org/2000/svg">
<path fill="black" d="M21 12C21 14.3869 20.0518 16.6761 18.364 18.364C16.6761 20.0518 14.3869 21 12 21C9.61305 21 7.32387 20.0518 5.63604 18.364C3.94821 16.6761 3 14.3869 3 12"/>
<path fill="black" d="M12 16L12 3"/>
<path fill="black" d="M16 7C16 6.47471 15.8965 5.95457 15.6955 5.46927C15.4945 4.98396 15.1999 4.54301 14.8284 4.17157C14.457 3.80014 14.016 3.5055 13.5307 3.30448C13.0454 3.10346 12.5253 3 12 3C11.4747 3 10.9546 3.10346 10.4693 3.30448C9.98396 3.5055 9.54301 3.80014 9.17157 4.17157C8.80014 4.54301 8.5055 4.98396 8.30448 5.46927C8.10346 5.95457 8 6.47471 8 7"/>
</svg>
