<svg width="24" height="24" viewBox="0 0 24 24" fill="none" xmlns="http://www.w3.org/2000/svg">
<path fill="black" d="M12 8V7C12 4.79086 13.7909 3 16 3V3"/>
<path fill="black" d="M19.1058 8.10583L18 7C16.8954 5.89543 15.1046 5.89543 14 7C12.8954 8.10457 11.1046 8.10457 10 7C8.89543 5.89543 7.10457 5.89543 6 7L4.89418 8.10582C3.74803 9.25197 3.40688 10.9765 4.0303 12.4727L6.69694 18.8727C7.31808 20.3634 9.2537 20.7463 10.3957 19.6044C11.2817 18.7183 12.7183 18.7183 13.6043 19.6043C14.7463 20.7463 16.6819 20.3634 17.3031 18.8727L19.9697 12.4727C20.5931 10.9765 20.252 9.25197 19.1058 8.10583Z"/>
<circle fill="black" cx="14" cy="13" r="1"/>
<circle fill="black" cx="10" cy="13" r="1"/>
</svg>
