<svg width="24" height="24" viewBox="0 0 24 24" fill="none" xmlns="http://www.w3.org/2000/svg">
<path d="M19 8.32129V14C19 17.866 15.866 21 12 21C8.13401 21 5 17.866 5 14V8.32129C5 6.88586 5.76914 5.56049 7.01544 4.84832L10.0154 3.13403C11.2452 2.43133 12.7548 2.43133 13.9846 3.13403L16.9846 4.84832C18.2309 5.56049 19 6.88586 19 8.32129Z" stroke="black" stroke-width="2" stroke-linejoin="round"/>
<path d="M8.5 11.5618C8.5 12.044 8.63622 12.5154 8.89143 12.9164C9.14663 13.3173 9.50937 13.6299 9.93377 13.8144C10.3582 13.9989 10.8252 14.0472 11.2757 13.9531C11.7262 13.8591 12.0749 13.6952 12.4649 13.2859L16.5 9" stroke="black" stroke-width="2" stroke-linejoin="round"/>
</svg>
