<svg width="24" height="24" viewBox="0 0 24 24" fill="none" xmlns="http://www.w3.org/2000/svg">
<path fill="black" d="M5.71391 12.2848L4.23989 8.59973C4.08142 8.20355 4 7.78077 4 7.35407C4 5.50167 5.50167 4 7.35407 4H7.75736C8.55301 4 9.31607 4.31607 9.87868 4.87868C11.0503 6.05025 12.9497 6.05025 14.1213 4.87868C14.6839 4.31607 15.447 4 16.2426 4H16.6459C18.4983 4 20 5.50167 20 7.35407C20 7.78077 19.9186 8.20355 19.7601 8.59974L18.2861 12.2848C18.0971 12.7572 18 13.2615 18 13.7703V19.2566C18 20.2194 17.2194 21 16.2566 21C15.5062 21 14.8399 20.5198 14.6026 19.8079L13.3162 15.9487C13.1274 15.3821 12.5972 15 12 15C11.4028 15 10.8726 15.3821 10.6838 15.9487L9.39737 19.8079C9.16006 20.5198 8.49384 21 7.74342 21C6.78055 21 6 20.2194 6 19.2566V13.7703C6 13.2615 5.9029 12.7572 5.71391 12.2848Z"/>
<circle fill="black" cx="12" cy="11" r="1"/>
<circle fill="black" cx="8" cy="9" r="1"/>
<circle fill="black" cx="16" cy="9" r="1"/>
</svg>
