<svg width="24" height="24" viewBox="0 0 24 24" fill="none" xmlns="http://www.w3.org/2000/svg">
<path fill="black" d="M2 3H10C11.1046 3 12 3.89543 12 5V5C12 6.10457 11.1046 7 10 7H5C3.89543 7 3 7.89543 3 9V9C3 10.1046 3.89543 11 5 11H13"/>
<path fill="black" d="M14 11H19.5C20.3284 11 21 11.6716 21 12.5V12.5C21 13.3284 20.3284 14 19.5 14H16.5C15.6716 14 15 14.6716 15 15.5V15.5C15 16.3284 15.6716 17 16.5 17H22"/>
<path fill="black" d="M5 14.9998H10.5C11.3284 14.9998 12 15.6713 12 16.4998V16.4998C12 17.3282 11.3284 17.9998 10.5 17.9998H7.5C6.67157 17.9998 6 18.6713 6 19.4998V19.4998C6 20.3282 6.67157 20.9998 7.5 20.9998H13"/>
</svg>
