<svg width="24" height="24" viewBox="0 0 24 24" fill="none" xmlns="http://www.w3.org/2000/svg">
<path d="M7.54564 18.6891C9.46783 19.0735 11.3463 17.8563 11.7807 15.9448L12 14.98L12.8875 15.8252C13.6618 16.5626 14.1 17.5851 14.1 18.6544V21.98C14.1 22.5323 14.5477 22.98 15.1 22.98C15.6523 22.98 16.1 22.5323 16.1 21.98V18.38C16.1 16.5281 15.341 14.7571 14 13.48L14.6 10.48C15.7005 11.7498 17.3026 12.6613 19.1031 12.9111C19.6501 12.9871 20.1 12.5323 20.1 11.98C20.1 11.4277 19.6481 10.9903 19.1057 10.8862C17.6497 10.6069 16.4559 9.72789 15.8 8.57998L14.8 6.97998C14.4 6.37998 13.8 5.97998 13.1 5.97998C12.8 5.97998 12.6 6.07998 12.3 6.07998L10.4945 6.84383C8.43694 7.71435 7.1 9.74279 7.1 11.977C7.1 12.5292 7.54771 12.98 8.1 12.98C8.65228 12.98 9.1 12.5323 9.1 11.98V11.5113C9.1 10.3469 9.81481 9.302 10.9 8.87998L9.60301 15.446C9.43597 16.2916 8.61252 16.8397 7.76796 16.6673L5.40117 16.1843C4.84888 16.0716 4.31015 16.4292 4.19961 16.9819C4.08937 17.5331 4.44684 18.0693 4.99804 18.1796L7.54564 18.6891Z" fill="black"/>
<rect x="12" y="1" width="4" height="4" rx="2" fill="black"/>
</svg>
