<svg width="24" height="24" viewBox="0 0 24 24" fill="none" xmlns="http://www.w3.org/2000/svg">
<path d="M10 8.25V16.5C10 18.433 8.433 20 6.5 20C4.567 20 3 18.433 3 16.5V11C3 9.74097 3.59278 8.55542 4.6 7.8L6.4 6.45C6.78947 6.1579 7.26317 6 7.75 6C8.99264 6 10 7.00736 10 8.25Z" stroke="black" stroke-width="2" stroke-linejoin="round"/>
<path d="M14 8.82843V16.5C14 18.433 15.567 20 17.5 20C19.433 20 21 18.433 21 16.5V10.6569C21 9.59599 20.5786 8.57857 19.8284 7.82843L18.8284 6.82843C18.298 6.29799 17.5786 6 16.8284 6C15.2663 6 14 7.26633 14 8.82843Z" stroke="black" stroke-width="2" stroke-linejoin="round"/>
<path d="M12 2V8C12 9.65685 13.3431 11 15 11V11C16.6569 11 18 12.3431 18 14V14.5" stroke="#808080" stroke-width="2" stroke-linejoin="round"/>
<path d="M12 2V8C12 9.65685 10.6569 11 9 11V11C7.34315 11 6 12.3431 6 14V14.5" stroke="#808080" stroke-width="2" stroke-linejoin="round"/>
</svg>
