<svg width="24" height="24" viewBox="0 0 24 24" fill="none" xmlns="http://www.w3.org/2000/svg">
<path fill="black" d="M9 12L9 17"/>
<path fill="black" d="M15 7L15 12"/>
<circle fill="black" cx="12" cy="12" r="9"/>
<path fill="black" d="M17 14C17 13.7374 16.9483 13.4773 16.8478 13.2346C16.7472 12.992 16.5999 12.7715 16.4142 12.5858C16.2285 12.4001 16.008 12.2528 15.7654 12.1522C15.5227 12.0517 15.2626 12 15 12C14.7374 12 14.4773 12.0517 14.2346 12.1522C13.992 12.2528 13.7715 12.4001 13.5858 12.5858C13.4001 12.7715 13.2528 12.992 13.1522 13.2346C13.0517 13.4773 13 13.7374 13 14C13 14.2626 13.0517 14.5227 13.1522 14.7654C13.2528 15.008 13.4001 15.2285 13.5858 15.4142C13.7715 15.5999 13.992 15.7472 14.2346 15.8478C14.4773 15.9483 14.7374 16 15 16C15.2626 16 15.5227 15.9483 15.7654 15.8478C16.008 15.7472 16.2285 15.5999 16.4142 15.4142C16.5999 15.2285 16.7472 15.008 16.8478 14.7654C16.9483 14.5227 17 14.2626 17 14L17 14Z"/>
<path fill="black" d="M11 10C11 9.73736 10.9483 9.47728 10.8478 9.23463C10.7472 8.99198 10.5999 8.7715 10.4142 8.58579C10.2285 8.40007 10.008 8.25275 9.76537 8.15224C9.52272 8.05173 9.26264 8 9 8C8.73736 8 8.47728 8.05173 8.23463 8.15224C7.99198 8.25275 7.7715 8.40007 7.58579 8.58579C7.40007 8.7715 7.25275 8.99198 7.15224 9.23463C7.05173 9.47728 7 9.73736 7 10C7 10.2626 7.05173 10.5227 7.15224 10.7654C7.25275 11.008 7.40007 11.2285 7.58579 11.4142C7.7715 11.5999 7.99198 11.7472 8.23463 11.8478C8.47728 11.9483 8.73736 12 9 12C9.26264 12 9.52272 11.9483 9.76537 11.8478C10.008 11.7472 10.2285 11.5999 10.4142 11.4142C10.5999 11.2285 10.7472 11.008 10.8478 10.7654C10.9483 10.5227 11 10.2626 11 10L11 10Z"/>
</svg>
