<svg width="24" height="24" viewBox="0 0 24 24" fill="none" xmlns="http://www.w3.org/2000/svg">
<path d="M3 10V10C5.20914 10 7 11.7909 7 14V14" stroke="black" stroke-width="2" stroke-linejoin="round"/>
<path d="M3 6C3 7.41829 3 11.0895 3 14.0009C3 16.2101 4.79086 18 7 18H17C19.2091 18 21 16.2091 21 14V11" stroke="black" stroke-width="2" stroke-linejoin="round"/>
<path d="M3 14H21" stroke="black" stroke-width="2" stroke-linejoin="round"/>
<path d="M14 3V11" stroke="black" stroke-width="2" stroke-linejoin="round"/>
<path d="M18 7L10 7" stroke="black" stroke-width="2" stroke-linejoin="round"/>
<path d="M3 22C3 21.2044 3.31607 20.4413 3.87868 19.8787C4.44129 19.3161 5.20435 19 6 19C6.79565 19 7.55871 19.3161 8.12132 19.8787C8.68393 20.4413 9 21.2043 9 22" stroke="black" stroke-width="2" stroke-linejoin="round"/>
<path d="M15 22C15 21.2044 15.3161 20.4413 15.8787 19.8787C16.4413 19.3161 17.2044 19 18 19C18.7956 19 19.5587 19.3161 20.1213 19.8787C20.6839 20.4413 21 21.2043 21 22" stroke="black" stroke-width="2" stroke-linejoin="round"/>
</svg>
