<svg width="24" height="24" viewBox="0 0 24 24" fill="none" xmlns="http://www.w3.org/2000/svg">
<path fill="black" d="M18.5037 12.9242C19.0496 13.0079 19.5 12.5523 19.5 12C19.5 11.4477 19.0466 11.0113 18.5085 10.8869C17.129 10.5677 15.9681 9.59853 15.4 8.3L14.8 7.1C14.7 6.6 14.1 6 13.2 6H9.19912C8.14212 6 7.15968 6.54452 6.59947 7.44085L5.52581 9.1587C5.23409 9.62546 5.37082 10.2399 5.83293 10.539C6.30833 10.8466 6.94378 10.7023 7.23968 10.2195L8.26694 8.54342C8.47386 8.20581 8.84139 8 9.23737 8H11L8.5 11.8C8.2 12.3 8.1 12.9 8.3 13.5L8.93813 15.5126C9.3505 16.8131 9.07154 18.2342 8.1981 19.2823L6.6 21.2H9.2L9.72935 20.595C11.1417 18.9809 11.622 16.7526 11 14.7C13.1781 16.0691 14.5 18.4613 14.5 21.034V21.3H16.5V20.5774C16.5 17.4178 14.8758 14.4802 12.2 12.8L14 9.9C14.9387 11.5214 16.6057 12.6331 18.5037 12.9242Z"/>
<rect fill="black" x="14" y="2" width="4" height="4" rx="2"/>
<path fill="black" d="M4 18V18C4 19.6569 5.34315 21 7 21H17C18.6569 21 20 19.6569 20 18V18"/>
</svg>
