<svg width="24" height="24" viewBox="0 0 24 24" fill="none" xmlns="http://www.w3.org/2000/svg">
<path d="M11 14.5V9.5C11 8.67157 10.3284 8 9.5 8C8.67157 8 8 8.67157 8 9.5V14.5C8 15.3284 8.67157 16 9.5 16C10.3284 16 11 15.3284 11 14.5Z" stroke="#808080" stroke-width="2" stroke-linejoin="round"/>
<path d="M16 14.5V9.5C16 8.67157 15.3284 8 14.5 8C13.6716 8 13 8.67157 13 9.5V14.5C13 15.3284 13.6716 16 14.5 16C15.3284 16 16 15.3284 16 14.5Z" stroke="#808080" stroke-width="2" stroke-linejoin="round"/>
<circle cx="12" cy="12" r="9" stroke="black" stroke-width="2" stroke-linejoin="round"/>
</svg>
