<svg width="24" height="24" viewBox="0 0 24 24" fill="none" xmlns="http://www.w3.org/2000/svg">
<path d="M7 17H17" stroke="black" stroke-width="2" stroke-linejoin="round"/>
<path d="M18 3C18 4.5913 17.3679 6.11742 16.2426 7.24264C16.0949 7.39038 15.9403 7.52962 15.7795 7.66004C14.3966 8.78167 13 10.2194 13 12V12C13 13.7806 14.3966 15.2183 15.7795 16.34C15.9403 16.4704 16.0949 16.6096 16.2426 16.7574C17.3679 17.8826 18 19.4087 18 21H6C6 19.4087 6.63214 17.8826 7.75736 16.7574C7.9051 16.6096 8.05975 16.4704 8.22055 16.34C9.60342 15.2183 11 13.7806 11 12V12C11 10.2194 9.60342 8.78167 8.22055 7.66004C8.05975 7.52962 7.9051 7.39038 7.75736 7.24264C6.63214 6.11742 6 4.5913 6 3H18Z" stroke="black" stroke-width="2" stroke-linejoin="round"/>
<path d="M3 3H21" stroke="black" stroke-width="2" stroke-linejoin="round"/>
<path d="M3 21H21" stroke="black" stroke-width="2" stroke-linejoin="round"/>
</svg>
