<svg width="24" height="24" viewBox="0 0 24 24" fill="none" xmlns="http://www.w3.org/2000/svg">
<path fill="black" d="M10 18H5.41421C5.149 18 4.89464 18.1054 4.70711 18.2929C4.07714 18.9229 3 18.4767 3 17.5858V14C3 11.7909 4.79086 10 7 10H10C12.2091 10 14 11.7909 14 14C14 16.2091 12.2091 18 10 18Z"/>
<path fill="black" d="M16 12H17C19.2091 12 21 10.2091 21 8V8C21 5.79086 19.2091 4 17 4H13C10.7909 4 9 5.79086 9 8V8"/>
<circle fill="black" cx="7" cy="14" r="1"/>
<circle fill="black" cx="10" cy="14" r="1"/>
</svg>
