<svg width="24" height="24" viewBox="0 0 24 24" fill="none" xmlns="http://www.w3.org/2000/svg">
<path d="M3 18V6C3 4.89543 3.89543 4 5 4C6.10457 4 7 4.89543 7 6V18C7 19.1046 6.10457 20 5 20C3.89543 20 3 19.1046 3 18Z" stroke="black" stroke-width="2" stroke-linejoin="round"/>
<path d="M17 18V15C17 13.8954 17.8954 13 19 13C20.1046 13 21 13.8954 21 15V18C21 19.1046 20.1046 20 19 20C17.8954 20 17 19.1046 17 18Z" stroke="black" stroke-width="2" stroke-linejoin="round"/>
<path d="M10 18V11C10 9.89543 10.8954 9 12 9C13.1046 9 14 9.89543 14 11V18C14 19.1046 13.1046 20 12 20C10.8954 20 10 19.1046 10 18Z" stroke="black" stroke-width="2" stroke-linejoin="round"/>
</svg>
