<svg width="24" height="24" viewBox="0 0 24 24" fill="none" xmlns="http://www.w3.org/2000/svg">
<path d="M15 8V8C15 6.34315 13.6569 5 12 5H9C6.79086 5 5 6.79086 5 9L5 12" stroke="#808080" stroke-width="2" stroke-linejoin="round"/>
<path d="M19 12V12C19 9.79086 17.2091 8 15 8H9C6.79086 8 5 9.79086 5 12V15C5 17.2091 6.79086 19 9 19H15C17.2091 19 19 17.2091 19 15V15" stroke="black" stroke-width="2" stroke-linejoin="round"/>
<path d="M13 13.5C13 12.6716 13.6716 12 14.5 12H18.5C19.3284 12 20 12.6716 20 13.5V13.5C20 14.3284 19.3284 15 18.5 15H14.5C13.6716 15 13 14.3284 13 13.5V13.5Z" stroke="black" stroke-width="2" stroke-linejoin="round"/>
</svg>
