<svg width="24" height="24" viewBox="0 0 24 24" fill="none" xmlns="http://www.w3.org/2000/svg">
<path fill="black" d="M7.12094 7.90202L6.14513 7.68337L7.12094 7.90202ZM16.8791 7.90202L17.8549 7.68337L16.8791 7.90202ZM17 9C18.6569 9 20 10.3431 20 12H22C22 9.23858 19.7614 7 17 7V9ZM20 12C20 13.6569 18.6569 15 17 15V17C19.7614 17 22 14.7614 22 12H20ZM17 15H7V17H17V15ZM7 15C5.34315 15 4 13.6569 4 12H2C2 14.7614 4.23858 17 7 17V15ZM4 12C4 10.3431 5.34315 9 7 9V7C4.23858 7 2 9.23858 2 12H4ZM8.09674 8.12066C8.49702 6.33425 10.0939 5 12 5V3C9.13769 3 6.74565 5.00329 6.14513 7.68337L8.09674 8.12066ZM12 5C13.9061 5 15.503 6.33425 15.9033 8.12066L17.8549 7.68337C17.2544 5.00329 14.8623 3 12 3V5ZM7 9C7.54002 9 7.98473 8.62058 8.09674 8.12066L6.14513 7.68337C6.2317 7.29703 6.57637 7 7 7V9ZM17 7C17.4236 7 17.7683 7.29702 17.8549 7.68337L15.9033 8.12066C16.0153 8.62058 16.46 9 17 9V7Z"/>
<path fill="black" d="M9 11H15"/>
<path fill="black" d="M12 8L12 14"/>
<path fill="black" d="M12 16L12 21"/>
<path fill="black" d="M16 16V16C16 18.2091 17.7909 20 20 20V20"/>
<path fill="black" d="M8 16V16C8 18.2091 6.20914 20 4 20V20"/>
</svg>
