<svg width="24" height="24" viewBox="0 0 24 24" fill="none" xmlns="http://www.w3.org/2000/svg">
<path d="M17.997 5.28898L17.7122 6.24756L18.6636 4.54355L17.997 5.28898ZM17.997 18.711L18.6636 19.4565L17.7122 17.7524L17.997 18.711ZM16 6C16.5964 6 17.1708 6.08671 17.7122 6.24756L18.2818 4.3304C17.5575 4.1152 16.7913 4 16 4V6ZM10 12C10 8.68629 12.6863 6 16 6V4C11.5817 4 8 7.58172 8 12H10ZM16 18C12.6863 18 10 15.3137 10 12H8C8 16.4183 11.5817 20 16 20V18ZM17.7122 17.7524C17.1708 17.9133 16.5964 18 16 18V20C16.7913 20 17.5575 19.8848 18.2818 19.6696L17.7122 17.7524ZM17.3304 17.9656C15.9147 19.2315 14.0483 20 12 20V22C14.5589 22 16.8954 21.0375 18.6636 19.4565L17.3304 17.9656ZM12 20C7.58172 20 4 16.4183 4 12H2C2 17.5228 6.47715 22 12 22V20ZM4 12C4 7.58172 7.58172 4 12 4V2C6.47715 2 2 6.47715 2 12H4ZM12 4C14.0483 4 15.9147 4.76848 17.3304 6.03441L18.6636 4.54355C16.8954 2.96246 14.5589 2 12 2V4Z" fill="black"/>
</svg>
