<svg width="24" height="24" viewBox="0 0 24 24" fill="none" xmlns="http://www.w3.org/2000/svg">
<path d="M14.5 20.3301C15.2601 19.8913 15.8913 19.2601 16.3302 18.5L12 14L7.66992 18.5C8.10876 19.2601 8.73995 19.8913 9.50005 20.3301C10.2601 20.769 11.1224 21 12 21C12.8777 21 13.74 20.769 14.5 20.3301Z" stroke="#808080" stroke-width="2" stroke-linejoin="round"/>
<path d="M14.5 3.66987C15.2601 4.10871 15.8913 4.7399 16.3302 5.5L12 10L7.66992 5.5C8.10876 4.7399 8.73995 4.10872 9.50005 3.66987C10.2601 3.23103 11.1224 3 12 3C12.8777 3 13.74 3.23103 14.5 3.66987Z" stroke="#808080" stroke-width="2" stroke-linejoin="round"/>
<path d="M20.3301 14.5C19.8913 15.2601 19.2601 15.8913 18.5 16.3302L14 12L18.5 7.66992C19.2601 8.10876 19.8913 8.73995 20.3301 9.50005C20.769 10.2601 21 11.1224 21 12C21 12.8777 20.769 13.74 20.3301 14.5Z" stroke="black" stroke-width="2" stroke-linejoin="round"/>
<path d="M3.66987 14.5C4.10872 15.2601 4.7399 15.8913 5.5 16.3302L10 12L5.5 7.66992C4.7399 8.10876 4.10872 8.73995 3.66987 9.50005C3.23103 10.2601 3 11.1224 3 12C3 12.8777 3.23103 13.74 3.66987 14.5Z" stroke="black" stroke-width="2" stroke-linejoin="round"/>
</svg>
