<svg width="24" height="24" viewBox="0 0 24 24" fill="none" xmlns="http://www.w3.org/2000/svg">
<path d="M16 10.3431V8.5C16 6.29086 14.2091 4.5 12 4.5C9.79086 4.5 8 6.29086 8 8.5V10.3431C8 11.404 7.57857 12.4214 6.82843 13.1716L5.41421 14.5858C5.149 14.851 5 15.2107 5 15.5858C5 16.3668 5.63316 17 6.41421 17H17.5858C18.3668 17 19 16.3668 19 15.5858C19 15.2107 18.851 14.851 18.5858 14.5858L17.1716 13.1716C16.4214 12.4214 16 11.404 16 10.3431Z" stroke="black" stroke-width="2" stroke-linejoin="round"/>
<path d="M14 18C14 18.2626 13.9483 18.5227 13.8478 18.7654C13.7472 19.008 13.5999 19.2285 13.4142 19.4142C13.2285 19.5999 13.008 19.7472 12.7654 19.8478C12.5227 19.9483 12.2626 20 12 20C11.7374 20 11.4773 19.9483 11.2346 19.8478C10.992 19.7472 10.7715 19.5999 10.5858 19.4142C10.4001 19.2285 10.2528 19.008 10.1522 18.7654C10.0517 18.5227 10 18.2626 10 18" stroke="black" stroke-width="2" stroke-linejoin="round"/>
</svg>
