<svg width="24" height="24" viewBox="0 0 24 24" fill="none" xmlns="http://www.w3.org/2000/svg">
<circle cx="12" cy="12" r="9" stroke="black" stroke-width="2"/>
<path d="M16.8296 13.2941C16.5448 14.3573 15.917 15.2967 15.0438 15.9668C14.1706 16.6368 13.1007 17 12 17C10.8993 17 9.82942 16.6368 8.95619 15.9668C8.08297 15.2967 7.45525 14.3573 7.17037 13.2941" stroke="black" stroke-width="2"/>
<path d="M10 10.5C10 10.303 9.9612 10.108 9.88582 9.92597C9.81044 9.74399 9.69995 9.57863 9.56066 9.43934C9.42137 9.30005 9.25601 9.18956 9.07403 9.11418C8.89204 9.0388 8.69698 9 8.5 9C8.30302 9 8.10796 9.0388 7.92597 9.11418C7.74399 9.18956 7.57863 9.30005 7.43934 9.43934C7.30005 9.57863 7.18956 9.74399 7.11418 9.92597C7.0388 10.108 7 10.303 7 10.5" stroke="black" stroke-width="2"/>
<path d="M17 10.5C17 10.303 16.9612 10.108 16.8858 9.92597C16.8104 9.74399 16.6999 9.57863 16.5607 9.43934C16.4214 9.30005 16.256 9.18956 16.074 9.11418C15.892 9.0388 15.697 9 15.5 9C15.303 9 15.108 9.0388 14.926 9.11418C14.744 9.18956 14.5786 9.30005 14.4393 9.43934C14.3001 9.57863 14.1896 9.74399 14.1142 9.92597C14.0388 10.108 14 10.303 14 10.5" stroke="black" stroke-width="2"/>
</svg>
