<svg width="24" height="24" viewBox="0 0 24 24" fill="none" xmlns="http://www.w3.org/2000/svg">
<path fill="black" d="M6 13H18"/>
<path fill="black" d="M10 3V2C9.44772 2 9 2.44772 9 3H10ZM14 3H15C15 2.44772 14.5523 2 14 2V3ZM10 9.34141L10.3332 10.2843C10.7328 10.143 11 9.76523 11 9.34141H10ZM14 9.34141H13C13 9.76523 13.2672 10.143 13.6668 10.2843L14 9.34141ZM10 4H14V2H10V4ZM11 9.34141V3H9V9.34141H11ZM7 15C7 12.8245 8.38991 10.9711 10.3332 10.2843L9.66675 8.39857C6.94932 9.35905 5 11.9506 5 15H7ZM12 20C9.23858 20 7 17.7614 7 15H5C5 18.866 8.13401 22 12 22V20ZM17 15C17 17.7614 14.7614 20 12 20V22C15.866 22 19 18.866 19 15H17ZM13.6668 10.2843C15.6101 10.9711 17 12.8245 17 15H19C19 11.9506 17.0507 9.35905 14.3332 8.39857L13.6668 10.2843ZM13 3V9.34141H15V3H13Z"/>
<path fill="black" d="M8 3L16 3"/>
</svg>
