<svg width="24" height="24" viewBox="0 0 24 24" fill="none" xmlns="http://www.w3.org/2000/svg">
<circle cx="18" cy="19" r="3" stroke="#808080" stroke-width="2"/>
<circle cx="3" cy="3" r="3" transform="matrix(-1 0 0 1 9 12)" stroke="#808080" stroke-width="2"/>
<path d="M19.8 8.4L19 7.33333C18.3705 6.49398 17.3825 6 16.3333 6C14.4924 6 13 7.49238 13 9.33333V10.6056C13 11.5148 13.2691 12.4037 13.7735 13.1603L14.0976 13.6464C14.686 14.529 15 15.5661 15 16.6269V19C15 20.6569 16.3431 22 18 22C19.6569 22 21 20.6569 21 19V12C21 10.7018 20.5789 9.43858 19.8 8.4Z" stroke="black" stroke-width="2"/>
<path d="M4.2 4.4L5 3.33333C5.62951 2.49398 6.61748 2 7.66667 2C9.50762 2 11 3.49238 11 5.33333V6.60555C11 7.5148 10.7309 8.40371 10.2265 9.16025L9.90242 9.64637C9.314 10.529 9 11.5661 9 12.6269V15C9 16.6569 7.65685 18 6 18C4.34315 18 3 16.6569 3 15V8C3 6.70178 3.42107 5.43858 4.2 4.4Z" stroke="black" stroke-width="2"/>
</svg>
