<svg width="24" height="24" viewBox="0 0 24 24" fill="none" xmlns="http://www.w3.org/2000/svg">
<path fill="black" d="M3 11H7.5C8.32843 11 9 11.6716 9 12.5V12.5C9 13.3284 9.67157 14 10.5 14V14C11.3284 14 12 13.3284 12 12.5V11V9.5C12 8.67157 12.6716 8 13.5 8V8C14.3284 8 15 8.67157 15 9.5V9.5C15 10.3284 15.6716 11 16.5 11H21"/>
<path fill="black" d="M12 17V17C12 19.2091 13.7909 21 16 21L18 21"/>
<path fill="black" d="M12 17V17C12 19.2091 10.2091 21 8 21L6 21"/>
<path fill="black" d="M15 5H9C5.68629 5 3 7.68629 3 11C3 14.3137 5.68629 17 9 17H15C18.3137 17 21 14.3137 21 11C21 7.68629 18.3137 5 15 5Z"/>
</svg>
