<svg width="24" height="24" viewBox="0 0 24 24" fill="none" xmlns="http://www.w3.org/2000/svg">
<rect fill="black" x="10" y="10" width="4" height="4" rx="2"/>
<path fill="black" d="M19 14C19 14.9193 18.8189 15.8295 18.4672 16.6788C18.1154 17.5281 17.5998 18.2997 16.9497 18.9497C16.2997 19.5998 15.5281 20.1154 14.6788 20.4672C13.8295 20.8189 12.9193 21 12 21C11.0807 21 10.1705 20.8189 9.32122 20.4672C8.47194 20.1154 7.70026 19.5998 7.05025 18.9497C6.40024 18.2997 5.88463 17.5281 5.53284 16.6788C5.18106 15.8295 5 14.9193 5 14"/>
<path fill="black" d="M19 14V8.32129C19 6.88586 18.2309 5.56049 16.9846 4.84832L13.9846 3.13403C12.7548 2.43133 11.2452 2.43133 10.0154 3.13403L7.01544 4.84832C5.76914 5.56049 5 6.88586 5 8.32129V14"/>
</svg>
