<svg width="24" height="24" viewBox="0 0 24 24" fill="none" xmlns="http://www.w3.org/2000/svg">
<path fill="black" d="M14 11.446V8.5C14 6.567 15.567 5 17.5 5H17.8676C19.5976 5 21 6.40241 21 8.13238C21 8.70011 20.8457 9.25716 20.5536 9.74398L18.744 12.76C18.2824 13.5293 17.4511 14 16.554 14C15.1435 14 14 12.8565 14 11.446Z"/>
<path fill="black" d="M8.1459 16.7082L7.68328 17.6334C7.26452 18.471 6.40851 19 5.47214 19C4.10681 19 3 17.8932 3 16.5279V9C3 6.79086 4.79086 5 7 5H10C12.2091 5 14 6.79086 14 9V11.9098C14 13.6165 12.6165 15 10.9098 15C9.73936 15 8.66935 15.6613 8.1459 16.7082Z"/>
<path fill="black" d="M14 21L14 15C14 13.3431 12.6569 12 11 12V12C9.34315 12 8 10.6569 8 9V8"/>
<path fill="black" d="M14 21L14 13C14 10.7909 15.7909 9 18 9V9"/>
</svg>
