<svg width="24" height="24" viewBox="0 0 24 24" fill="none" xmlns="http://www.w3.org/2000/svg">
<path fill="black" d="M12 17L12 21"/>
<path fill="black" d="M16 13C16 14.0609 15.5786 15.0783 14.8284 15.8284C14.0783 16.5786 13.0609 17 12 17C10.9391 17 9.92172 16.5786 9.17157 15.8284C8.42143 15.0783 8 14.0609 8 13"/>
<path fill="black" d="M3 21C3 19.8181 3.23279 18.6478 3.68508 17.5558C4.13738 16.4639 4.80031 15.4718 5.63604 14.636C6.47177 13.8003 7.46392 13.1374 8.55585 12.6851C9.64778 12.2328 10.8181 12 12 12C13.1819 12 14.3522 12.2328 15.4442 12.6851C16.5361 13.1374 17.5282 13.8003 18.364 14.636C19.1997 15.4718 19.8626 16.4639 20.3149 17.5559C20.7672 18.6478 21 19.8181 21 21"/>
<rect fill="black" x="8" y="4" width="8" height="8" rx="4"/>
<path fill="black" d="M8 7H16"/>
</svg>
