<svg width="24" height="24" viewBox="0 0 24 24" fill="none" xmlns="http://www.w3.org/2000/svg">
<path fill="black" d="M5.63604 18.364C6.96575 19.6937 8.67857 20.5735 10.5339 20.8798C12.3893 21.1861 14.294 20.9036 15.9806 20.0719C17.6672 19.2401 19.0508 17.901 19.9373 16.2426C20.8237 14.5841 21.1685 12.6897 20.923 10.8253C20.6776 8.96086 19.8543 7.22017 18.5688 5.84767C17.2833 4.47517 15.6002 3.5398 13.7558 3.17293C11.9115 2.80607 9.99851 3.02613 8.28564 3.80222C6.57277 4.57832 5.14602 5.87145 4.20577 7.5"/>
<path fill="black" d="M3.5359 3C3.09563 3.76257 2.91929 4.6491 3.03422 5.5221C3.14915 6.39511 3.54894 7.20579 4.17157 7.82843C4.79421 8.45106 5.60489 8.85085 6.4779 8.96578C7.3509 9.08071 8.23743 8.90437 9 8.4641"/>
</svg>
