<svg width="24" height="24" viewBox="0 0 24 24" fill="none" xmlns="http://www.w3.org/2000/svg">
<path d="M19 8L19 20" stroke="black" stroke-width="2" stroke-linejoin="round"/>
<path d="M21 6C21 5.73736 20.9483 5.47728 20.8478 5.23463C20.7472 4.99198 20.5999 4.7715 20.4142 4.58579C20.2285 4.40007 20.008 4.25275 19.7654 4.15224C19.5227 4.05173 19.2626 4 19 4C18.7374 4 18.4773 4.05173 18.2346 4.15224C17.992 4.25275 17.7715 4.40007 17.5858 4.58579C17.4001 4.7715 17.2528 4.99198 17.1522 5.23463C17.0517 5.47728 17 5.73736 17 6C17 6.26264 17.0517 6.52272 17.1522 6.76537C17.2528 7.00802 17.4001 7.2285 17.5858 7.41421C17.7715 7.59993 17.992 7.74725 18.2346 7.84776C18.4773 7.94827 18.7374 8 19 8C19.2626 8 19.5227 7.94827 19.7654 7.84776C20.008 7.74725 20.2285 7.59993 20.4142 7.41421C20.5999 7.2285 20.7472 7.00802 20.8478 6.76537C20.9483 6.52272 21 6.26264 21 6L21 6Z" stroke="black" stroke-width="2" stroke-linejoin="round"/>
<path d="M12 3L12 10" stroke="#808080" stroke-width="2" stroke-linejoin="round"/>
<path d="M12 13L12 20" stroke="#808080" stroke-width="2" stroke-linejoin="round"/>
<path d="M14 12C14 11.7374 13.9483 11.4773 13.8478 11.2346C13.7472 10.992 13.5999 10.7715 13.4142 10.5858C13.2285 10.4001 13.008 10.2528 12.7654 10.1522C12.5227 10.0517 12.2626 10 12 10C11.7374 10 11.4773 10.0517 11.2346 10.1522C10.992 10.2528 10.7715 10.4001 10.5858 10.5858C10.4001 10.7715 10.2528 10.992 10.1522 11.2346C10.0517 11.4773 10 11.7374 10 12C10 12.2626 10.0517 12.5227 10.1522 12.7654C10.2528 13.008 10.4001 13.2285 10.5858 13.4142C10.7715 13.5999 10.992 13.7472 11.2346 13.8478C11.4773 13.9483 11.7374 14 12 14C12.2626 14 12.5227 13.9483 12.7654 13.8478C13.008 13.7472 13.2285 13.5999 13.4142 13.4142C13.5999 13.2285 13.7472 13.008 13.8478 12.7654C13.9483 12.5227 14 12.2626 14 12L14 12Z" stroke="#808080" stroke-width="2" stroke-linejoin="round"/>
<path d="M5 3L5 16" stroke="black" stroke-width="2" stroke-linejoin="round"/>
<path d="M7 18C7 17.7374 6.94827 17.4773 6.84776 17.2346C6.74725 16.992 6.59993 16.7715 6.41421 16.5858C6.2285 16.4001 6.00802 16.2528 5.76537 16.1522C5.52272 16.0517 5.26264 16 5 16C4.73736 16 4.47728 16.0517 4.23463 16.1522C3.99198 16.2528 3.7715 16.4001 3.58579 16.5858C3.40007 16.7715 3.25275 16.992 3.15224 17.2346C3.05173 17.4773 3 17.7374 3 18C3 18.2626 3.05173 18.5227 3.15224 18.7654C3.25275 19.008 3.40007 19.2285 3.58579 19.4142C3.7715 19.5999 3.99198 19.7472 4.23463 19.8478C4.47728 19.9483 4.73736 20 5 20C5.26264 20 5.52272 19.9483 5.76537 19.8478C6.00802 19.7472 6.2285 19.5999 6.41421 19.4142C6.59993 19.2285 6.74725 19.008 6.84776 18.7654C6.94827 18.5227 7 18.2626 7 18L7 18Z" stroke="black" stroke-width="2" stroke-linejoin="round"/>
</svg>
