<svg width="24" height="24" viewBox="0 0 24 24" fill="none" xmlns="http://www.w3.org/2000/svg">
<circle cx="7" cy="6" r="1" fill="black"/>
<circle cx="10" cy="6" r="1" fill="black"/>
<circle cx="17" cy="6" r="1" fill="black"/>
<path d="M21 17V7C21 4.79086 19.2091 3 17 3H7C4.79086 3 3 4.79086 3 7V17C3 19.2091 4.79086 21 7 21H17C19.2091 21 21 19.2091 21 17Z" stroke="black" stroke-width="2" stroke-linejoin="round"/>
<path d="M16 20V20C16 17.7909 14.2091 16 12 16V16C9.79086 16 8 17.7909 8 20V20" stroke="#808080" stroke-width="2" stroke-linejoin="round"/>
<circle cx="12" cy="14" r="2" stroke="#808080" stroke-width="2" stroke-linejoin="round"/>
<path d="M3 9H21" stroke="black" stroke-width="2" stroke-linejoin="round"/>
</svg>
