<svg width="24" height="24" viewBox="0 0 24 24" fill="none" xmlns="http://www.w3.org/2000/svg">
<path fill="black" d="M10.8 10.5L13.2 8.1L14 8.9C15.0875 9.98755 16.455 10.7252 18.1024 10.9372C18.6502 11.0077 19.1 10.5523 19.1 10C19.1 9.44772 18.648 9.01148 18.1056 8.9071C17.06 8.70586 16.1914 8.19147 15.5 7.5L13.6 5.6C13.1 5.2 12.6 5 12 5C11.4 5 10.9 5.2 10.6 5.6L7.79995 8.4C7.39995 8.8 7.19995 9.3 7.19995 9.8C7.19995 10.4 7.39995 10.9 7.79995 11.2L10.4354 13.506C10.7942 13.8199 11 14.2734 11 14.7501V18C11 18.5523 11.4477 19 12 19C12.5522 19 13 18.5523 13 18V14.5754C13 13.436 12.5604 12.3404 11.7728 11.517L10.8 10.5Z"/>
<rect fill="black" x="15" y="13" width="7" height="7" rx="3.5"/>
<rect fill="black" x="2" y="13" width="7" height="7" rx="3.5"/>
<rect fill="black" x="13" y="1" width="4" height="4" rx="2"/>
</svg>
