<svg width="24" height="24" viewBox="0 0 24 24" fill="none" xmlns="http://www.w3.org/2000/svg">
<path d="M21 6H19" stroke="black" stroke-width="2" stroke-linejoin="round"/>
<path d="M5 6H3" stroke="black" stroke-width="2" stroke-linejoin="round"/>
<path d="M5 15H3" stroke="black" stroke-width="2" stroke-linejoin="round"/>
<path d="M21 15H19" stroke="black" stroke-width="2" stroke-linejoin="round"/>
<path d="M8 4H7.5C6.11929 4 5 5.11929 5 6.5C5 7.88071 6.11929 9 7.5 9H16.5C17.8807 9 19 7.88071 19 6.5C19 5.11929 17.8807 4 16.5 4H16H8Z" stroke="black" stroke-width="2" stroke-linejoin="round"/>
<path d="M8 12H7.5C6.11929 12 5 13.1193 5 14.5C5 15.8807 6.11929 17 7.5 17H16.5C17.8807 17 19 15.8807 19 14.5C19 13.1193 17.8807 12 16.5 12H16H8Z" stroke="black" stroke-width="2" stroke-linejoin="round"/>
<path d="M8 9H6.5C5.67157 9 5 9.67157 5 10.5C5 11.3284 5.67157 12 6.5 12H17.5C18.3284 12 19 11.3284 19 10.5C19 9.67157 18.3284 9 17.5 9H16H8Z" stroke="black" stroke-width="2" stroke-linejoin="round"/>
<path d="M8 17H6.5C5.67157 17 5 17.6716 5 18.5C5 19.3284 5.67157 20 6.5 20H17.5C18.3284 20 19 19.3284 19 18.5C19 17.6716 18.3284 17 17.5 17H16H8Z" stroke="black" stroke-width="2" stroke-linejoin="round"/>
</svg>
