<svg width="24" height="24" viewBox="0 0 24 24" fill="none" xmlns="http://www.w3.org/2000/svg">
<path d="M7 21V18C7 16.8954 7.89543 16 9 16V16C10.1046 16 11 16.8954 11 18V21" stroke="#808080" stroke-width="2" stroke-linejoin="round"/>
<path d="M9 7V13" stroke="#808080" stroke-width="2" stroke-linejoin="round"/>
<path d="M12 10L6 10" stroke="#808080" stroke-width="2" stroke-linejoin="round"/>
<path d="M22 21H2" stroke="black" stroke-width="2" stroke-linejoin="round"/>
<path d="M4 21V9C4 6.23858 6.23858 4 9 4V4C11.7614 4 14 6.23858 14 9V21" stroke="black" stroke-width="2" stroke-linejoin="round"/>
<path d="M14 21V15C14 13.3431 15.3431 12 17 12V12C18.6569 12 20 13.3431 20 15V21" stroke="black" stroke-width="2" stroke-linejoin="round"/>
</svg>
