<svg width="24" height="24" viewBox="0 0 24 24" fill="none" xmlns="http://www.w3.org/2000/svg">
<circle cx="12" cy="13" r="4" stroke="black" stroke-width="2"/>
<path d="M21 16V10C21 7.79086 19.2091 6 17 6H16C15.4477 6 15.0156 5.54027 14.8349 5.01839C14.6877 4.59336 14.4454 4.20276 14.1213 3.87868C13.5587 3.31607 12.7956 3 12 3C11.2044 3 10.4413 3.31607 9.87868 3.87868C9.55459 4.20276 9.31232 4.59336 9.16514 5.01839C8.98442 5.54027 8.55228 6 8 6H7C4.79086 6 3 7.79086 3 10V16C3 18.2091 4.79086 20 7 20H17C19.2091 20 21 18.2091 21 16Z" stroke="black" stroke-width="2"/>
</svg>
