<svg width="24" height="24" viewBox="0 0 24 24" fill="none" xmlns="http://www.w3.org/2000/svg">
<path fill="black" d="M8 10V17.5294V18"/>
<path fill="black" d="M6 10H7.55848C8.41934 10 9.18362 9.44914 9.45585 8.63246L10.6026 5.1921C10.8399 4.48019 11.5062 4 12.2566 4C13.2194 4 14 4.78055 14 5.74342V8.25562C14 9.21901 14.781 10 15.7444 10C17.946 10 19.5972 12.0142 19.1654 14.173L18.6431 16.7845C18.2692 18.6542 16.6275 20 14.7208 20H14.4222C12.8428 20 11.2987 19.5325 9.9846 18.6564L9.75577 18.5038C9.26297 18.1753 8.68395 18 8.09167 18H6C4.89543 18 4 17.1046 4 16V12C4 10.8954 4.89543 10 6 10Z"/>
</svg>
