<svg width="24" height="24" viewBox="0 0 24 24" fill="none" xmlns="http://www.w3.org/2000/svg">
<path fill="black" d="M10 17V19C10 20.1046 10.8954 21 12 21V21C13.1046 21 14 20.1046 14 19V17"/>
<path fill="black" d="M12 17C9.23858 17 7 14.7614 7 12C7 9.23858 9.23858 7 12 7C14.7614 7 17 9.23858 17 12C17 14.7614 14.7614 17 12 17Z"/>
<path fill="black" d="M12 5V2"/>
<path fill="black" d="M19 12L22 12"/>
<path fill="black" d="M2 12L5 12"/>
<path fill="black" d="M5 5L7 7"/>
<path fill="black" d="M19 5L17 7"/>
</svg>
