<svg width="24" height="24" viewBox="0 0 24 24" fill="none" xmlns="http://www.w3.org/2000/svg">
<path d="M10.1839 3.93709C10.8987 2.38734 13.1013 2.38734 13.8161 3.93709L15.1989 6.93491C15.4902 7.56652 16.0888 8.00141 16.7795 8.08331L20.0579 8.47201C21.7527 8.67296 22.4333 10.7677 21.1803 11.9265L18.7565 14.1679C18.2459 14.6402 18.0172 15.3438 18.1528 16.0261L18.7962 19.2641C19.1288 20.9381 17.3469 22.2327 15.8577 21.3991L12.9769 19.7866C12.37 19.4468 11.6301 19.4468 11.0231 19.7866L8.14239 21.3991C6.65316 22.2327 4.87124 20.9381 5.20385 19.2641L5.84725 16.0261C5.98281 15.3438 5.75417 14.6402 5.2435 14.1679L2.8197 11.9265C1.5667 10.7677 2.24733 8.67296 3.94212 8.47201L7.22052 8.08331C7.91124 8.00141 8.50981 7.56652 8.80115 6.93491L10.1839 3.93709Z" stroke="black" stroke-width="2" stroke-linejoin="round"/>
</svg>
