<svg width="24" height="24" viewBox="0 0 24 24" fill="none" xmlns="http://www.w3.org/2000/svg">
<path d="M9.17157 19.8284L19.5 9.5C20.8807 8.11929 20.8807 5.88071 19.5 4.5C18.1193 3.11929 15.8807 3.11929 14.5 4.5L4.17157 14.8284C3.42143 15.5786 3 16.596 3 17.6569V21H6.34315C7.40401 21 8.42143 20.5786 9.17157 19.8284Z" stroke="black" stroke-width="2" stroke-linejoin="round"/>
<path d="M19.5 4.5C18.1193 3.11929 15.8807 3.11929 14.5 4.5C13.1193 5.88071 13.1193 8.11929 14.5 9.5C15.8807 10.8807 18.1193 10.8807 19.5 9.5C20.8807 8.11929 20.8807 5.88071 19.5 4.5Z" stroke="black" stroke-width="2" stroke-linejoin="round"/>
</svg>
