<svg width="24" height="24" viewBox="0 0 24 24" fill="none" xmlns="http://www.w3.org/2000/svg">
<circle cx="8" cy="19" r="2" stroke="black" stroke-width="2" stroke-linejoin="round"/>
<circle cx="16" cy="19" r="2" stroke="black" stroke-width="2" stroke-linejoin="round"/>
<path d="M10 5C10 4.46957 10.2107 3.96086 10.5858 3.58579C10.9609 3.21071 11.4696 3 12 3C12.5304 3 13.0391 3.21071 13.4142 3.58579C13.7893 3.96086 14 4.46957 14 5" stroke="black" stroke-width="2" stroke-linejoin="round"/>
<path d="M14 19H10M18 19V19C19.6569 19 21 17.6569 21 16V10C21 7.79086 19.2091 6 17 6H7C4.79086 6 3 7.79086 3 10V16C3 17.6569 4.34315 19 6 19V19" stroke="black" stroke-width="2" stroke-linejoin="round"/>
<path d="M9 9V15" stroke="black" stroke-width="2" stroke-linejoin="round"/>
<path d="M12 12L6 12" stroke="black" stroke-width="2" stroke-linejoin="round"/>
<path d="M14 6V7C14 10.866 17.134 14 21 14V14" stroke="black" stroke-width="2" stroke-linejoin="round"/>
</svg>
