<svg width="24" height="24" viewBox="0 0 24 24" fill="none" xmlns="http://www.w3.org/2000/svg">
<path fill="black" d="M20 12L4 12"/>
<path fill="black" d="M4 11.4721C4 9.95705 4.85601 8.572 6.21115 7.89443L10.2111 5.89443C11.3373 5.33137 12.6627 5.33137 13.7889 5.89443L17.7889 7.89443C19.144 8.572 20 9.95705 20 11.4721V12.5279C20 14.043 19.144 15.428 17.7889 16.1056L13.7889 18.1056C12.6627 18.6686 11.3373 18.6686 10.2111 18.1056L6.21114 16.1056C4.85601 15.428 4 14.043 4 12.5279V11.4721Z"/>
<path fill="black" d="M22 9L2 9"/>
<path fill="black" d="M22 15L2 15"/>
</svg>
