<svg width="24" height="24" viewBox="0 0 24 24" fill="none" xmlns="http://www.w3.org/2000/svg">
<path d="M10 5C10 3.89543 10.8954 3 12 3V3C13.1046 3 14 3.89543 14 5V8.03596L16.6293 6.51794C17.5859 5.96566 18.809 6.29341 19.3613 7.25V7.25C19.9136 8.20658 19.5859 9.42976 18.6293 9.98205L16 11.5001L18.6291 13.0179C19.5856 13.5702 19.9134 14.7934 19.3611 15.75V15.75C18.8088 16.7066 17.5856 17.0343 16.6291 16.482L14 14.9642V18C14 19.1046 13.1046 20 12 20V20C10.8954 20 10 19.1046 10 18V14.9642L7.37095 16.482C6.41436 17.0343 5.19118 16.7066 4.6389 15.75V15.75C4.08661 14.7934 4.41436 13.5702 5.37095 13.0179L8 11.5001L5.37072 9.98205C4.41414 9.42976 4.08639 8.20658 4.63867 7.25V7.25C5.19096 6.29341 6.41414 5.96566 7.37072 6.51794L10 8.03596V5Z" stroke="black" stroke-width="2" stroke-linejoin="round"/>
</svg>
