<svg width="24" height="24" viewBox="0 0 24 24" fill="none" xmlns="http://www.w3.org/2000/svg">
<path fill="black" d="M6 7.42424C6 7.18994 6.18994 7 6.42424 7H17.5758C17.8101 7 18 7.18994 18 7.42424V15C18 18.3137 15.3137 21 12 21V21C8.68629 21 6 18.3137 6 15V7.42424Z"/>
<path fill="black" d="M4 5C4 3.89543 4.89543 3 6 3H18C19.1046 3 20 3.89543 20 5V5C20 6.10457 19.1046 7 18 7H6C4.89543 7 4 6.10457 4 5V5Z"/>
<path fill="black" d="M12 3L12 7"/>
<path fill="black" d="M16 3V7"/>
<path fill="black" d="M8 3V7"/>
<path fill="black" d="M9 12H15"/>
<path fill="black" d="M9 15H12"/>
</svg>
