<svg width="24" height="24" viewBox="0 0 24 24" fill="none" xmlns="http://www.w3.org/2000/svg">
<path fill-rule="evenodd" clip-rule="evenodd" d="M18.3532 14.9389C18.7753 14.0264 19 13.0248 19 12H17C17 12.4742 16.9326 12.9415 16.8032 13.389L18.3532 14.9389ZM15.8163 15.2305C15.7273 15.3356 15.6337 15.4374 15.5355 15.5355C14.5979 16.4732 13.3261 17 12 17C10.6739 17 9.40215 16.4732 8.46447 15.5355C7.52678 14.5979 7 13.3261 7 12H5C5 13.8565 5.7375 15.637 7.05025 16.9497C8.12499 18.0245 9.51321 18.7137 11 18.9282V22H13V18.9282C14.4868 18.7137 15.875 18.0245 16.9497 16.9497C17.0477 16.8518 17.1425 16.7512 17.234 16.6482L15.8163 15.2305ZM15.9627 12.5485C15.9873 12.3692 16 12.1861 16 12V6C16 3.79086 14.2091 2 12 2C10.2176 2 8.70755 3.16576 8.19061 4.7764L10 6.58579V6C10 4.89543 10.8954 4 12 4C13.1046 4 14 4.89543 14 6V10.5858L15.9627 12.5485ZM13.6766 13.0908L15.1062 14.5204C14.3728 15.4232 13.2538 16 12 16C9.79086 16 8 14.2091 8 12V7.41421L10 9.41421V12C10 13.1046 10.8954 14 12 14C12.7021 14 13.3198 13.6382 13.6766 13.0908Z" fill="black"/>
<path d="M3 3L21 21" stroke="black" stroke-width="2"/>
</svg>
