<svg width="24" height="24" viewBox="0 0 24 24" fill="none" xmlns="http://www.w3.org/2000/svg">
<path fill-rule="evenodd" clip-rule="evenodd" d="M20.1525 16.7383C21.2996 15.4917 22 13.8276 22 12C22 8.13401 18.866 5 15 5H9C8.81033 5 8.62242 5.00754 8.43656 5.02235L10.4142 7H15C17.7614 7 20 9.23858 20 12C20 13.2753 19.5225 14.4391 18.7366 15.3224L20.1525 16.7383ZM15.9627 12.5485C15.9873 12.3692 16 12.1861 16 12C16 9.79086 14.2091 8 12 8C11.8139 8 11.6308 8.01271 11.4515 8.03729L15.9627 12.5485ZM9.47958 8.89379C8.57683 9.6272 8 10.7462 8 12C8 14.2091 9.79086 16 12 16C13.2538 16 14.3728 15.4232 15.1062 14.5204L13.6766 13.0908C13.3198 13.6382 12.7021 14 12 14C10.8954 14 10 13.1046 10 12C10 11.2979 10.3618 10.6802 10.9092 10.3234L9.47958 8.89379ZM7.74468 7.15889C5.59085 7.7158 4 9.67212 4 12C4 14.7614 6.23858 17 9 17H15C15.7566 17 16.474 16.8319 17.1169 16.5311L18.594 18.0082C17.5434 18.638 16.314 19 15 19H9C5.13401 19 2 15.866 2 12C2 9.1381 3.71746 6.67734 6.17793 5.59215L7.74468 7.15889Z" fill="black"/>
<path d="M3 3L21 21" stroke="#808080" stroke-width="2" stroke-linejoin="round"/>
</svg>
