<svg width="24" height="24" viewBox="0 0 24 24" fill="none" xmlns="http://www.w3.org/2000/svg">
<path d="M13 11V8C13 6.89543 13.8954 6 15 6V6C16.1046 6 17 6.89543 17 8V11" stroke="black" stroke-width="2" stroke-linejoin="round"/>
<path d="M17 13V11C17 9.89543 17.8954 9 19 9V9C20.1046 9 21 9.89543 21 11V14.3731C21 15.4339 20.686 16.471 20.0976 17.3536L19.1039 18.8441C17.7895 20.8157 15.5767 22 13.2071 22V22C10.6136 22 8.2273 20.5834 6.98541 18.3066L3.80449 12.4749C3.3491 11.64 3.6066 10.5956 4.39788 10.0681V10.0681C5.2701 9.4866 6.45133 9.75222 6.99067 10.6511L9 14V4C9 2.89543 9.89543 2 11 2V2C12.1046 2 13 2.89543 13 4V10" stroke="black" stroke-width="2" stroke-linejoin="round"/>
</svg>
