<svg width="24" height="24" viewBox="0 0 24 24" fill="none" xmlns="http://www.w3.org/2000/svg">
<path fill="black" d="M9 9L15 15"/>
<path fill="black" d="M4 4L5 5"/>
<path fill="black" d="M19 19L20 20"/>
<path fill="black" d="M7.50023 3.50008L3.50022 7.49995C2.67174 8.3284 2.67173 9.67161 3.50019 10.5001C4.32865 11.3285 5.67184 11.3285 6.50029 10.5001L8.50024 8.50012L10.5002 6.50014C11.3287 5.6717 11.3287 4.32854 10.5002 3.50011C9.67181 2.67169 8.32867 2.67167 7.50023 3.50008Z"/>
<path fill="black" d="M16.5003 20.5001L20.5002 16.5001C21.3287 15.6717 21.3287 14.3285 20.5002 13.5001C19.6718 12.6717 18.3287 12.6717 17.5002 13.5001L13.5002 17.5C12.6717 18.3284 12.6717 19.6716 13.5002 20.5001C14.3286 21.3285 15.6718 21.3285 16.5003 20.5001Z"/>
</svg>
