<svg width="24" height="24" viewBox="0 0 24 24" fill="none" xmlns="http://www.w3.org/2000/svg">
<path fill="black" d="M14.1193 15.5941C14.2883 14.9631 14.6306 14.392 15.1074 13.9455C15.5842 13.4989 16.1765 13.1947 16.8172 13.0673C17.4579 12.9398 18.1215 12.9942 18.7329 13.2243C19.3443 13.4544 19.8791 13.8511 20.2767 14.3693C20.6744 14.8876 20.9191 15.5068 20.9831 16.1569C21.0472 16.8071 20.928 17.4621 20.6391 18.048C20.3501 18.6339 19.903 19.1272 19.3482 19.4722C18.7935 19.8172 18.1533 20 17.5 20"/>
<path fill="black" d="M8.40587 9.88074C9.03687 9.71166 9.60796 9.36937 10.0545 8.89257C10.5011 8.41578 10.8053 7.82353 10.9327 7.18282C11.0602 6.54211 11.0058 5.87852 10.7757 5.26712C10.5456 4.65573 10.1489 4.12094 9.63066 3.72326C9.1124 3.32558 8.49318 3.08088 7.84306 3.01685C7.19294 2.95282 6.53788 3.07202 5.95199 3.36095C5.3661 3.64988 4.87276 4.09701 4.52779 4.65176C4.18283 5.20651 4 5.84674 4 6.5"/>
<path fill="black" d="M4 6V6C4 13.732 10.268 20 18 20V20"/>
<path fill="black" d="M9 9V9C9 12.3137 11.6863 15 15 15V15"/>
</svg>
