<svg width="24" height="24" viewBox="0 0 24 24" fill="none" xmlns="http://www.w3.org/2000/svg">
<path fill="black" d="M9 9H15"/>
<path fill="black" d="M12 6L12 12"/>
<path fill="black" d="M15 20V18C15 16.3431 13.6569 15 12 15V15C10.3431 15 9 16.3431 9 18V20"/>
<path fill="black" d="M18 9C18 8.21207 17.8448 7.43185 17.5433 6.7039C17.2417 5.97595 16.7998 5.31451 16.2426 4.75736C15.6855 4.20021 15.0241 3.75825 14.2961 3.45672C13.5681 3.15519 12.7879 3 12 3C11.2121 3 10.4319 3.15519 9.7039 3.45672C8.97595 3.75825 8.31451 4.20021 7.75736 4.75736C7.20021 5.31451 6.75825 5.97595 6.45672 6.7039C6.15519 7.43185 6 8.21207 6 9"/>
<path fill="black" d="M6 9V20"/>
<path fill="black" d="M18 9V20"/>
<path fill="black" d="M18 13.5C18 12.6716 18.6716 12 19.5 12V12C20.3284 12 21 12.6716 21 13.5V19H18V13.5Z"/>
<path fill="black" d="M3 13.5C3 12.6716 3.67157 12 4.5 12V12C5.32843 12 6 12.6716 6 13.5V19H3V13.5Z"/>
<path fill="black" d="M3 19H21"/>
</svg>
