<svg width="24" height="24" viewBox="0 0 24 24" fill="none" xmlns="http://www.w3.org/2000/svg">
<circle cx="7" cy="6" r="1" fill="black"/>
<circle cx="10" cy="6" r="1" fill="black"/>
<circle cx="17" cy="6" r="1" fill="black"/>
<path d="M21 17V7C21 4.79086 19.2091 3 17 3H7C4.79086 3 3 4.79086 3 7V17C3 19.2091 4.79086 21 7 21H17C19.2091 21 21 19.2091 21 17Z" stroke="black" stroke-width="2" stroke-linejoin="round"/>
<path d="M6 15C6 13.3431 7.34315 12 9 12H15C16.6569 12 18 13.3431 18 15V15C18 16.6569 16.6569 18 15 18H9C7.34315 18 6 16.6569 6 15V15Z" stroke="black" stroke-width="2" stroke-linejoin="round"/>
<path d="M12 12V18" stroke="black" stroke-width="2" stroke-linejoin="round"/>
<path d="M3 9H21" stroke="black" stroke-width="2" stroke-linejoin="round"/>
</svg>
