<svg width="24" height="24" viewBox="0 0 24 24" fill="none" xmlns="http://www.w3.org/2000/svg">
<path d="M12 19C10.1435 19 8.36301 18.2625 7.05025 16.9497C5.7375 15.637 5 13.8565 5 12C5 10.1435 5.7375 8.36301 7.05025 7.05025C8.36301 5.7375 10.1435 5 12 5L12 12L12 19Z" stroke="black" stroke-width="2"/>
<path d="M5 14C4.46957 14 3.96086 13.7893 3.58579 13.4142C3.21071 13.0391 3 12.5304 3 12C3 11.4696 3.21071 10.9609 3.58579 10.5858C3.96086 10.2107 4.46957 10 5 10" stroke="black" stroke-width="2"/>
<path d="M14 19C15.8565 19 17.637 18.2625 18.9497 16.9497C20.2625 15.637 21 13.8565 21 12C21 10.1435 20.2625 8.36301 18.9497 7.05025C17.637 5.7375 15.8565 5 14 5" stroke="black" stroke-width="2"/>
<path d="M14 15C14.7956 15 15.5587 14.6839 16.1213 14.1213C16.6839 13.5587 17 12.7956 17 12C17 11.2044 16.6839 10.4413 16.1213 9.87868C15.5587 9.31607 14.7956 9 14 9" stroke="black" stroke-width="2"/>
</svg>
