<svg width="24" height="24" viewBox="0 0 24 24" fill="none" xmlns="http://www.w3.org/2000/svg">
<path d="M17 13H16.5C14.567 13 13 11.433 13 9.5C13 7.567 14.567 6 16.5 6C18.433 6 20 7.567 20 9.5V16.5C20 17.3284 19.3284 18 18.5 18C17.6716 18 17 17.3284 17 16.5V13Z" stroke="black" stroke-width="2" stroke-linejoin="round"/>
<path d="M7 13H6.5C4.567 13 3 11.433 3 9.5C3 7.567 4.567 6 6.5 6C8.433 6 10 7.567 10 9.5V16.5C10 17.3284 9.32843 18 8.5 18C7.67157 18 7 17.3284 7 16.5V13Z" stroke="black" stroke-width="2" stroke-linejoin="round"/>
</svg>
