<svg width="24" height="24" viewBox="0 0 24 24" fill="none" xmlns="http://www.w3.org/2000/svg">
<path fill="black" d="M4 13H7.19722C8.3235 13 9.37526 13.5629 10 14.5L10.8066 15.7099C10.9274 15.8912 11.1308 16 11.3486 16V16C11.7084 16 12 15.7084 12 15.3486V10.6514C12 10.2916 12.2916 10 12.6514 10V10C12.8692 10 13.0726 10.1088 13.1934 10.2901L14 11.5C14.6247 12.4371 15.6765 13 16.8028 13H20"/>
<path fill="black" d="M19.5 13.5L12.6471 20.3529C12.2897 20.7103 11.7103 20.7103 11.3529 20.3529L4.5 13.5C2.567 11.567 2.567 8.433 4.5 6.5C6.433 4.567 9.567 4.567 11.5 6.5L12 7L12.5 6.5C14.433 4.567 17.567 4.567 19.5 6.5C21.433 8.433 21.433 11.567 19.5 13.5Z"/>
</svg>
