<svg width="24" height="24" viewBox="0 0 24 24" fill="none" xmlns="http://www.w3.org/2000/svg">
<path d="M17 7H8C5.79086 7 4 8.79086 4 11V13" stroke="black" stroke-width="2" stroke-linejoin="round"/>
<path d="M7 17H16C18.2091 17 20 15.2091 20 13V11" stroke="black" stroke-width="2" stroke-linejoin="round"/>
<path d="M14.5 2.66987C15.2601 3.10871 15.8913 3.7399 16.3301 4.5C16.769 5.2601 17 6.12232 17 7C17 7.87768 16.769 8.7399 16.3301 9.5C15.8913 10.2601 15.2601 10.8913 14.5 11.3301" stroke="#808080" stroke-width="2" stroke-linejoin="round"/>
<path d="M9.5 21.3301C8.7399 20.8913 8.10871 20.2601 7.66987 19.5C7.23103 18.7399 7 17.8777 7 17C7 16.1223 7.23103 15.2601 7.66987 14.5C8.10871 13.7399 8.7399 13.1087 9.5 12.6699" stroke="#808080" stroke-width="2" stroke-linejoin="round"/>
</svg>
