<svg width="24" height="24" viewBox="0 0 24 24" fill="none" xmlns="http://www.w3.org/2000/svg">
<path d="M13 22L13 6" stroke="#808080" stroke-width="2" stroke-linejoin="round"/>
<path d="M9 8V8C11.2091 8 13 9.79086 13 12V12" stroke="#808080" stroke-width="2" stroke-linejoin="round"/>
<path d="M16 11C16 11.7956 15.6839 12.5587 15.1213 13.1213C14.5587 13.6839 13.7956 14 13 14C12.2044 14 11.4413 13.6839 10.8787 13.1213C10.3161 12.5587 10 11.7956 10 11" stroke="#808080" stroke-width="2" stroke-linejoin="round"/>
<path d="M17.0325 22V17.7963C17.0325 16.4955 17.7297 15.3218 18.5277 14.2947C18.836 13.898 19.1018 13.4676 19.3196 13.0105C19.8365 11.9253 20.0653 10.7254 19.9839 9.52617C19.9026 8.32696 19.5138 7.16891 18.855 6.16354C18.1963 5.15817 17.2898 4.33937 16.2228 3.78599C15.1557 3.23262 13.9642 2.96331 12.763 3.00402C11.5617 3.04472 10.3911 3.39406 9.36402 4.01839C8.33692 4.64273 7.48789 5.52101 6.89869 6.56867C6.3095 7.61632 6 8.79803 6 10L4 14H6V17H9V22" stroke="black" stroke-width="2" stroke-linejoin="round"/>
<path d="M16 11V9" stroke="#808080" stroke-width="2" stroke-linejoin="round"/>
</svg>
