<svg width="24" height="24" viewBox="0 0 24 24" fill="none" xmlns="http://www.w3.org/2000/svg">
<path fill="black" d="M13 12H15C17.2091 12 19 13.7909 19 16V22"/>
<path fill="black" d="M11.5 12H15C17.2091 12 19 10.2091 19 8V6"/>
<path fill="black" d="M5.63604 5.63604C7.32387 3.94821 9.61305 3 12 3C13.6569 3 15 4.34315 15 6V6.20761C15 7.32148 14.4221 8.35561 13.4735 8.93939L13.3368 9.02353C11.1191 10.3882 11.1191 13.6118 13.3368 14.9765L13.4735 15.0606C14.4221 15.6444 15 16.6785 15 17.7924V18C15 19.6569 13.6569 21 12 21C9.61305 21 7.32386 20.0518 5.63604 18.364C3.94821 16.6761 3 14.3869 3 12C3 9.61305 3.94821 7.32387 5.63604 5.63604Z"/>
</svg>
