<svg width="24" height="24" viewBox="0 0 24 24" fill="none" xmlns="http://www.w3.org/2000/svg">
<path fill="black" d="M18 9V9C18 5.68629 15.3137 3 12 3V3C8.68629 3 6 5.68629 6 9V9M6 15V15C6 18.3137 8.68629 21 12 21V21C15.3137 21 18 18.3137 18 15V15"/>
<path fill="black" d="M2 12H5.30742C6.93364 12 8.39603 12.9901 9 14.5L9.70013 16.2503C9.88124 16.7031 10.3198 17 10.8074 17V17C11.4661 17 12 16.4661 12 15.8074V8.19258C12 7.53394 12.5339 7 13.1926 7V7C13.6802 7 14.1188 7.29689 14.2999 7.74967L15 9.5C15.604 11.0099 17.0664 12 18.6926 12H22"/>
</svg>
