<svg width="24" height="24" viewBox="0 0 24 24" fill="none" xmlns="http://www.w3.org/2000/svg">
<path fill="black" d="M21 18V11C21 9.89543 20.1046 9 19 9C17.8954 9 17 9.89543 17 11V18C17 19.1046 17.8954 20 19 20C20.1046 20 21 19.1046 21 18Z"/>
<path fill="black" d="M7 18V15C7 13.8954 6.10457 13 5 13C3.89543 13 3 13.8954 3 15V18C3 19.1046 3.89543 20 5 20C6.10457 20 7 19.1046 7 18Z"/>
<path fill="black" d="M14 18V6C14 4.89543 13.1046 4 12 4C10.8954 4 10 4.89543 10 6V18C10 19.1046 10.8954 20 12 20C13.1046 20 14 19.1046 14 18Z"/>
</svg>
