<svg width="24" height="24" viewBox="0 0 24 24" fill="none" xmlns="http://www.w3.org/2000/svg">
<path fill="black" d="M14 12C14 11.7374 13.9483 11.4773 13.8478 11.2346C13.7472 10.992 13.5999 10.7715 13.4142 10.5858C13.2285 10.4001 13.008 10.2528 12.7654 10.1522C12.5227 10.0517 12.2626 10 12 10C11.7374 10 11.4773 10.0517 11.2346 10.1522C10.992 10.2528 10.7715 10.4001 10.5858 10.5858C10.4001 10.7715 10.2528 10.992 10.1522 11.2346C10.0517 11.4773 10 11.7374 10 12C10 12.2626 10.0517 12.5227 10.1522 12.7654C10.2528 13.008 10.4001 13.2285 10.5858 13.4142C10.7715 13.5999 10.992 13.7472 11.2346 13.8478C11.4773 13.9483 11.7374 14 12 14C12.2626 14 12.5227 13.9483 12.7654 13.8478C13.008 13.7472 13.2285 13.5999 13.4142 13.4142C13.5999 13.2285 13.7472 13.008 13.8478 12.7654C13.9483 12.5227 14 12.2626 14 12L14 12Z"/>
<path fill="black" d="M14 2C14 2.26264 13.9483 2.52272 13.8478 2.76537C13.7472 3.00802 13.5999 3.2285 13.4142 3.41421C13.2285 3.59993 13.008 3.74725 12.7654 3.84776C12.5227 3.94827 12.2626 4 12 4C11.7374 4 11.4773 3.94827 11.2346 3.84776C10.992 3.74725 10.7715 3.59993 10.5858 3.41421C10.4001 3.2285 10.2528 3.00802 10.1522 2.76537C10.0517 2.52272 10 2.26264 10 2"/>
<path fill="black" d="M14 22C14 21.7374 13.9483 21.4773 13.8478 21.2346C13.7472 20.992 13.5999 20.7715 13.4142 20.5858C13.2285 20.4001 13.008 20.2528 12.7654 20.1522C12.5227 20.0517 12.2626 20 12 20C11.7374 20 11.4773 20.0517 11.2346 20.1522C10.992 20.2528 10.7715 20.4001 10.5858 20.5858C10.4001 20.7715 10.2528 20.992 10.1522 21.2346C10.0517 21.4773 10 21.7374 10 22"/>
<path fill="black" d="M20.4853 6.34315C20.2996 6.52886 20.0791 6.67618 19.8365 6.77669C19.5938 6.8772 19.3337 6.92893 19.0711 6.92893C18.8085 6.92893 18.5484 6.8772 18.3057 6.77669C18.0631 6.67618 17.8426 6.52886 17.6569 6.34315C17.4712 6.15743 17.3239 5.93695 17.2233 5.6943C17.1228 5.45165 17.0711 5.19158 17.0711 4.92893C17.0711 4.66629 17.1228 4.40622 17.2233 4.16357C17.3239 3.92091 17.4712 3.70044 17.6569 3.51472"/>
<path fill="black" d="M6.34317 20.4853C6.52889 20.2996 6.6762 20.0791 6.77671 19.8364C6.87722 19.5938 6.92896 19.3337 6.92896 19.0711C6.92896 18.8084 6.87722 18.5484 6.77671 18.3057C6.6762 18.0631 6.52889 17.8426 6.34317 17.6569C6.15745 17.4711 5.93697 17.3238 5.69432 17.2233C5.45167 17.1228 5.1916 17.0711 4.92895 17.0711C4.66631 17.0711 4.40624 17.1228 4.16359 17.2233C3.92094 17.3238 3.70046 17.4711 3.51474 17.6569"/>
<path fill="black" d="M22 14C21.7374 14 21.4773 13.9482 21.2346 13.8477C20.992 13.7472 20.7715 13.5999 20.5858 13.4142C20.4001 13.2285 20.2528 13.008 20.1522 12.7653C20.0517 12.5227 20 12.2626 20 12C20 11.7373 20.0517 11.4773 20.1522 11.2346C20.2528 10.992 20.4001 10.7715 20.5858 10.5858C20.7715 10.4 20.992 10.2527 21.2346 10.1522C21.4773 10.0517 21.7374 9.99998 22 9.99998"/>
<path fill="black" d="M2 14C2.26264 14 2.52272 13.9483 2.76537 13.8478C3.00802 13.7473 3.2285 13.5999 3.41421 13.4142C3.59993 13.2285 3.74725 13.008 3.84776 12.7654C3.94827 12.5227 4 12.2627 4 12C4 11.7374 3.94827 11.4773 3.84776 11.2347C3.74725 10.992 3.59993 10.7715 3.41421 10.5858C3.2285 10.4001 3.00802 10.2528 2.76537 10.1523C2.52272 10.0518 2.26264 10 2 10"/>
<path fill="black" d="M17.6568 20.4853C17.4711 20.2995 17.3238 20.0791 17.2233 19.8364C17.1228 19.5938 17.071 19.3337 17.071 19.071C17.071 18.8084 17.1228 18.5483 17.2233 18.3057C17.3238 18.063 17.4711 17.8425 17.6568 17.6568C17.8425 17.4711 18.063 17.3238 18.3057 17.2233C18.5483 17.1228 18.8084 17.071 19.071 17.071C19.3337 17.071 19.5938 17.1228 19.8364 17.2233C20.0791 17.3238 20.2995 17.4711 20.4853 17.6568"/>
<path fill="black" d="M3.51468 6.34317C3.7004 6.52889 3.92088 6.6762 4.16353 6.77671C4.40618 6.87722 4.66625 6.92896 4.9289 6.92896C5.19154 6.92896 5.45161 6.87722 5.69426 6.77671C5.93692 6.6762 6.15739 6.52889 6.34311 6.34317C6.52883 6.15745 6.67615 5.93697 6.77666 5.69432C6.87717 5.45167 6.9289 5.1916 6.9289 4.92895C6.9289 4.66631 6.87717 4.40624 6.77666 4.16359C6.67615 3.92094 6.52883 3.70046 6.34311 3.51474"/>
<path fill="black" d="M18 12C18 11.2121 17.8448 10.4319 17.5433 9.7039C17.2417 8.97595 16.7998 8.31451 16.2426 7.75736C15.6855 7.20021 15.0241 6.75825 14.2961 6.45672C13.5681 6.15519 12.7879 6 12 6C11.2121 6 10.4319 6.15519 9.7039 6.45672C8.97595 6.75825 8.31451 7.20021 7.75736 7.75736C7.20021 8.31451 6.75825 8.97595 6.45672 9.7039C6.15519 10.4319 6 11.2121 6 12C6 12.7879 6.15519 13.5681 6.45672 14.2961C6.75825 15.0241 7.20021 15.6855 7.75736 16.2426C8.31451 16.7998 8.97595 17.2417 9.7039 17.5433C10.4319 17.8448 11.2121 18 12 18C12.7879 18 13.5681 17.8448 14.2961 17.5433C15.0241 17.2417 15.6855 16.7998 16.2426 16.2426C16.7998 15.6855 17.2417 15.0241 17.5433 14.2961C17.8448 13.5681 18 12.7879 18 12L18 12Z"/>
</svg>
