<svg width="24" height="24" viewBox="0 0 24 24" fill="none" xmlns="http://www.w3.org/2000/svg">
<path d="M19 13H16.118C15.4328 13 14.8064 13.3871 14.5 14V14C14.1936 14.6129 13.5672 15 12.882 15H11.118C10.4328 15 9.80643 14.6129 9.5 14V14C9.19357 13.3871 8.56717 13 7.88197 13H5" stroke="#808080" stroke-width="2" stroke-linejoin="round"/>
<path d="M15 19H9C6.79086 19 5 17.2091 5 15V13.4924C5 13.1654 5.04011 12.8396 5.11943 12.5223L6.24254 8.02986C6.6877 6.24919 8.28764 5 10.1231 5H13.8769C15.7124 5 17.3123 6.24919 17.7575 8.02986L18.8806 12.5223C18.9599 12.8396 19 13.1654 19 13.4924V15C19 17.2091 17.2091 19 15 19Z" stroke="black" stroke-width="2" stroke-linejoin="round"/>
</svg>
