<svg width="24" height="24" viewBox="0 0 24 24" fill="none" xmlns="http://www.w3.org/2000/svg">
<path fill="black" d="M9.8 8.89999L7.24689 21.7567C7.1191 22.4002 7.61146 23 8.26754 23C8.75422 23 9.1759 22.6627 9.28274 22.1878L10.9 15L12.2507 16.2864C12.7292 16.7421 13 17.374 13 18.0347V22C13 22.5523 13.4477 23 14 23C14.5523 23 15 22.5523 15 22V17.75C15 16.3132 14.4111 14.9392 13.3707 13.9483L12.9 13.5L13.5 10.5C14.6005 11.7698 16.2026 12.6813 18.0031 12.9312C18.5501 13.0071 19 12.5523 19 12C19 11.4477 18.5481 11.0103 18.0057 10.9062C16.5497 10.6269 15.356 9.74791 14.7 8.6L13.7 7C13.14 6.11 12.02 5.75 11.05 6.16L7.34917 7.72827C6.53128 8.07486 6 8.87701 6 9.7653V12C6 12.5523 6.44772 13 7 13C7.55228 13 8 12.5523 8 12V9.99923C8 9.75854 8.14776 9.54253 8.37209 9.45529L9.8 8.89999Z"/>
<rect fill="black" x="11" y="1" width="4" height="4" rx="2"/>
</svg>
