<svg width="24" height="24" viewBox="0 0 24 24" fill="none" xmlns="http://www.w3.org/2000/svg">
<path d="M18 5H6C4.34315 5 3 6.34315 3 8C3 9.65685 4.34315 11 6 11H18C19.6569 11 21 9.65685 21 8C21 6.34315 19.6569 5 18 5Z" stroke="black" stroke-width="2" stroke-linejoin="round"/>
<path d="M6 8L11 8" stroke="#808080" stroke-width="2" stroke-linejoin="round"/>
<circle cx="14" cy="8" r="1" fill="black"/>
<circle cx="17" cy="8" r="1" fill="black"/>
<path d="M18 13H6C4.34315 13 3 14.3431 3 16C3 17.6569 4.34315 19 6 19H18C19.6569 19 21 17.6569 21 16C21 14.3431 19.6569 13 18 13Z" stroke="black" stroke-width="2" stroke-linejoin="round"/>
<path d="M6 16L11 16" stroke="#808080" stroke-width="2" stroke-linejoin="round"/>
<circle cx="14" cy="16" r="1" fill="black"/>
<circle cx="17" cy="16" r="1" fill="black"/>
</svg>
