<svg width="24" height="24" viewBox="0 0 24 24" fill="none" xmlns="http://www.w3.org/2000/svg">
<path fill="black" d="M11 16H13"/>
<path fill="black" d="M16 12C16.3956 12 16.7822 12.1173 17.1111 12.3371C17.44 12.5568 17.6964 12.8692 17.8478 13.2346C17.9991 13.6001 18.0387 14.0022 17.9616 14.3902C17.8844 14.7781 17.6939 15.1345 17.4142 15.4142"/>
<path fill="black" d="M13 16C13.3068 16 13.6094 16.0706 13.8846 16.2063C14.1597 16.3419 14.4 16.5391 14.5867 16.7825C14.7735 17.0259 14.9017 17.3089 14.9616 17.6098C15.0214 17.9107 15.0113 18.2213 14.9319 18.5176"/>
<path fill="black" d="M11 16C10.6932 16 10.3906 16.0706 10.1154 16.2063C9.84028 16.3419 9.60005 16.5391 9.41329 16.7825C9.22654 17.0259 9.09828 17.3089 9.03843 17.6098C8.97858 17.9107 8.98875 18.2213 9.06815 18.5176"/>
<path fill="black" d="M17 7C17.5266 7 18.0439 7.13862 18.5 7.40192C18.9561 7.66523 19.3348 8.04394 19.5981 8.5C19.8614 8.95606 20 9.47339 20 10C20 10.5266 19.8614 11.0439 19.5981 11.5"/>
<path fill="black" d="M7 7C6.47339 7 5.95606 7.13862 5.5 7.40192C5.04394 7.66523 4.66523 8.04394 4.40192 8.5C4.13862 8.95606 4 9.47339 4 10C4 10.5266 4.13862 11.0439 4.40192 11.5"/>
<path fill="black" d="M8 12C7.60444 12 7.21776 12.1173 6.88886 12.3371C6.55996 12.5568 6.30362 12.8692 6.15224 13.2346C6.00087 13.6001 5.96126 14.0022 6.03843 14.3902C6.1156 14.7781 6.30608 15.1345 6.58579 15.4142"/>
<path fill="black" d="M8 12H16"/>
<path fill="black" d="M7 7H17"/>
</svg>
