<svg width="24" height="24" viewBox="0 0 24 24" fill="none" xmlns="http://www.w3.org/2000/svg">
<path fill="black" d="M8 7.5V7C8 4.79086 9.79086 3 12 3V3C14.2091 3 16 4.79086 16 7V7.5M8 16.5L8 17C8 19.2091 9.79086 21 12 21V21C14.2091 21 16 19.2091 16 17V16.5"/>
<circle fill="black" cx="12" cy="12" r="1"/>
<circle fill="black" cx="8" cy="12" r="1"/>
<circle fill="black" cx="16" cy="12" r="1"/>
<path fill="black" d="M17 8C19.2091 8 21 9.79086 21 12V12C21 14.2091 19.2091 16 17 16L7 16C4.79086 16 3 14.2091 3 12V12C3 9.79086 4.79086 8 7 8L17 8Z"/>
</svg>
