<svg width="24" height="24" viewBox="0 0 24 24" fill="none" xmlns="http://www.w3.org/2000/svg">
<path d="M8.11774 6.86734C8.64215 5.16301 10.2168 4 12 4V4C13.7832 4 15.3578 5.16301 15.8823 6.86734L17.7429 12.9145C18.3676 14.9446 16.8495 17 14.7255 17H9.27454C7.15045 17 5.63242 14.9446 6.25708 12.9145L8.11774 6.86734Z" stroke="black" stroke-width="2" stroke-linejoin="round"/>
<path d="M14 18C14 18.2626 13.9483 18.5227 13.8478 18.7654C13.7472 19.008 13.5999 19.2285 13.4142 19.4142C13.2285 19.5999 13.008 19.7472 12.7654 19.8478C12.5227 19.9483 12.2626 20 12 20C11.7374 20 11.4773 19.9483 11.2346 19.8478C10.992 19.7472 10.7715 19.5999 10.5858 19.4142C10.4001 19.2285 10.2528 19.008 10.1522 18.7654C10.0517 18.5227 10 18.2626 10 18" stroke="black" stroke-width="2" stroke-linejoin="round"/>
</svg>
