<svg width="24" height="24" viewBox="0 0 24 24" fill="none" xmlns="http://www.w3.org/2000/svg">
<path fill-rule="evenodd" clip-rule="evenodd" d="M20.3196 16.9054C21.403 15.5097 22 13.7856 22 12C22 9.87827 21.1571 7.84344 19.6569 6.34315C18.1566 4.84285 16.1217 4 14 4V6C15.5913 6 17.1174 6.63214 18.2426 7.75736C19.3679 8.88258 20 10.4087 20 12C20 13.254 19.6075 14.4675 18.8904 15.4762L20.3196 16.9054ZM17.4762 16.8904C16.4675 17.6075 15.254 18 14 18V20C15.7856 20 17.5097 19.403 18.9054 18.3196L17.4762 16.8904ZM17.4457 14.0315C17.8056 13.4212 18 12.7206 18 12C18 10.9391 17.5786 9.92172 16.8284 9.17157C16.0783 8.42143 15.0609 8 14 8V10C14.5304 10 15.0391 10.2107 15.4142 10.5858C15.7893 10.9609 16 11.4696 16 12C16 12.1763 15.9767 12.3502 15.9319 12.5176L17.4457 14.0315ZM14.5176 13.9319L16.0315 15.4457C15.4212 15.8056 14.7206 16 14 16V14C14.1763 14 14.3502 13.9767 14.5176 13.9319ZM13 12.4142V19V20H12C9.87827 20 7.84344 19.1571 6.34315 17.6569C5.56908 16.8828 4.97002 15.9664 4.57143 14.9692C3.93423 14.8773 3.33928 14.5819 2.87868 14.1213C2.31607 13.5587 2 12.7956 2 12C2 11.2044 2.31607 10.4413 2.87868 9.87868C3.33928 9.41808 3.93424 9.12272 4.57143 9.03076C4.97002 8.03358 5.56908 7.11721 6.34315 6.34315C6.44107 6.24522 6.54127 6.1501 6.64362 6.05783L8.06037 7.47458C7.95647 7.56504 7.85539 7.65933 7.75736 7.75736C6.63214 8.88258 6 10.4087 6 12C6 13.5913 6.63214 15.1174 7.75736 16.2426C8.64405 17.1293 9.77969 17.7098 11 17.9161V12V10.4142L13 12.4142ZM13 9.58579V5V4H12C10.705 4 9.44243 4.31397 8.31398 4.89976L9.82306 6.40885C10.2022 6.26125 10.5964 6.15211 11 6.08389V7.58579L13 9.58579Z" fill="black"/>
<path d="M3 3L21 21" stroke="black" stroke-width="2"/>
</svg>
