<svg width="24" height="24" viewBox="0 0 24 24" fill="none" xmlns="http://www.w3.org/2000/svg">
<path fill="black" d="M17.5 10.78C16.27 10.41 15.28 9.61 14.7 8.6L13.7 7C13.29 6.35 12.59 6 11.86 6C11.08 6 10.27 6.5 10.08 7.44C9.92397 8.21216 7.94601 18.2152 7.24464 21.7628C7.11739 22.4064 7.61108 23 8.26713 23C8.75408 23 9.17599 22.6625 9.28288 22.1874L10.9 15L12.2508 16.2864C12.7292 16.7421 13 17.374 13 18.0347V22C13 22.5523 13.4478 23 14 23C14.5523 23 15 22.5523 15 22V17.75C15 16.3132 14.4112 14.9392 13.3707 13.9483L12.9 13.5L13.5 10.5C14.5 11.65 15.91 12.51 17.5 12.84V22.25C17.5 22.6642 17.8358 23 18.25 23C18.6643 23 19 22.6642 19 22.25V9.75C19 9.33579 18.6643 9 18.25 9C17.8358 9 17.5 9.33579 17.5 9.75V10.78ZM7.43004 13.13L5.31004 12.72C4.77004 12.61 4.41004 12.09 4.52004 11.55L5.28004 7.62C5.49004 6.54 6.54004 5.83 7.62004 6.04L8.78004 6.27L7.43004 13.13Z"/>
<rect fill="black" x="11" y="1" width="4" height="4" rx="2"/>
</svg>
