<svg width="24" height="24" viewBox="0 0 24 24" fill="none" xmlns="http://www.w3.org/2000/svg">
<path d="M9 21H15C17.2091 21 19 19.2091 19 17V14V8.65685C19 7.59599 18.5786 6.57857 17.8284 5.82843L16.1716 4.17157C15.4214 3.42143 14.404 3 13.3431 3H9C6.79086 3 5 4.79086 5 7V17C5 19.2091 6.79086 21 9 21Z" stroke="black" stroke-width="2" stroke-linejoin="round"/>
<path d="M9 11L15 11" stroke="black" stroke-width="2" stroke-linejoin="round"/>
<path d="M9 15L13 15" stroke="black" stroke-width="2" stroke-linejoin="round"/>
<path d="M18.5 7.59808C17.9281 7.92828 17.2632 8.06053 16.6084 7.97433C15.9537 7.88813 15.3457 7.5883 14.8787 7.12132C14.4117 6.65435 14.1119 6.04633 14.0257 5.39158C13.9395 4.73683 14.0717 4.07193 14.4019 3.5" stroke="black" stroke-width="2" stroke-linejoin="round"/>
</svg>
