<svg width="24" height="24" viewBox="0 0 24 24" fill="none" xmlns="http://www.w3.org/2000/svg">
<path d="M14 12.5C14 13.8807 12.8807 15 11.5 15C10.1193 15 9 13.8807 9 12.5C9 11.1193 10.1193 10 11.5 10C12.8807 10 14 11.1193 14 12.5Z" stroke="black" stroke-width="2" stroke-linejoin="round"/>
<path d="M13 14L16 17" stroke="black" stroke-width="2" stroke-linejoin="round"/>
<path d="M19 17V9.40312C19 8.49484 18.6909 7.6136 18.1235 6.90434L16.201 4.50122C15.4419 3.55236 14.2926 3 13.0775 3H9C6.79086 3 5 4.79086 5 7V17C5 19.2091 6.79086 21 9 21H15C17.2091 21 19 19.2091 19 17Z" stroke="black" stroke-width="2" stroke-linejoin="round"/>
<path d="M18.5 7.59808C17.9281 7.92828 17.2632 8.06053 16.6084 7.97433C15.9537 7.88813 15.3457 7.5883 14.8787 7.12132C14.4117 6.65435 14.1119 6.04633 14.0257 5.39158C13.9395 4.73683 14.0717 4.07193 14.4019 3.5" stroke="black" stroke-width="2" stroke-linejoin="round"/>
</svg>
