<svg width="24" height="24" viewBox="0 0 24 24" fill="none" xmlns="http://www.w3.org/2000/svg">
<path d="M15.5356 5.63602L14.8284 4.92891V4.92891L15.5356 5.63602ZM18.364 5.63602L17.6569 6.34312L18.364 5.63602ZM18.3639 15.5355L17.6568 16.2426V16.2426L18.3639 15.5355ZM18.3639 18.3639L19.071 19.071L18.3639 18.3639ZM5.63606 18.3639L4.92895 19.071H4.92895L5.63606 18.3639ZM5.63606 15.5355L6.34317 16.2426H6.34317L5.63606 15.5355ZM5 10L5 11H5V10ZM5.63602 8.46445L4.92891 9.17155L5.63602 8.46445ZM5.63602 5.63602L6.34312 6.34312L5.63602 5.63602ZM8.46444 5.63602L7.75734 6.34312L8.46444 5.63602ZM11.0004 5C11.0004 4.44772 11.4481 4 12.0004 4V2C10.3436 2 9.00043 3.34315 9.00043 5H11.0004ZM12.0004 4C12.5527 4 13.0004 4.44772 13.0004 5H15.0004C15.0004 3.34315 13.6573 2 12.0004 2V4ZM13.0004 5C13.0004 6.69171 15.046 7.53983 16.2427 6.34312L14.8284 4.92891C14.8344 4.92298 14.8557 4.90822 14.8861 4.90295C14.911 4.89864 14.9284 4.9029 14.9383 4.90704C14.9483 4.91117 14.9635 4.92041 14.9781 4.94103C14.9958 4.96619 15.0004 4.99164 15.0004 5H13.0004ZM16.2427 6.34312C16.6332 5.9526 17.2664 5.9526 17.6569 6.34312L19.0711 4.92891C17.8995 3.75734 16 3.75734 14.8284 4.92891L16.2427 6.34312ZM17.6569 6.34312C18.0474 6.73365 18.0474 7.36681 17.6569 7.75734L19.0711 9.17155C20.2427 7.99998 20.2427 6.10048 19.0711 4.92891L17.6569 6.34312ZM17.6569 7.75734C16.4603 8.9539 17.3077 11 19 11V9C19.0083 9 19.0338 9.00461 19.0589 9.02234C19.0795 9.03687 19.0888 9.05211 19.0929 9.06205C19.097 9.07199 19.1012 9.08929 19.0969 9.11413C19.0917 9.14444 19.077 9.16567 19.0711 9.17155L17.6569 7.75734ZM19 11C19.5523 11 20 11.4477 20 12H22C22 10.3431 20.6569 9 19 9V11ZM20 12C20 12.5523 19.5523 13 19 13V15C20.6569 15 22 13.6569 22 12H20ZM19 13C17.3078 13 16.4602 15.046 17.6568 16.2426L19.071 14.8284C19.0769 14.8343 19.0917 14.8555 19.0969 14.8859C19.1012 14.9107 19.097 14.928 19.0928 14.938C19.0887 14.9479 19.0795 14.9632 19.0589 14.9777C19.0337 14.9954 19.0083 15 19 15V13ZM17.6568 16.2426C18.0474 16.6331 18.0474 17.2663 17.6568 17.6568L19.071 19.071C20.2426 17.8995 20.2426 16 19.071 14.8284L17.6568 16.2426ZM17.6568 17.6568C17.2663 18.0474 16.6331 18.0474 16.2426 17.6568L14.8284 19.071C16 20.2426 17.8995 20.2426 19.071 19.071L17.6568 17.6568ZM16.2426 17.6568C15.0458 16.46 13.0004 17.3085 13.0004 19H15.0004C15.0004 19.0084 14.9958 19.0338 14.9781 19.059C14.9636 19.0796 14.9483 19.0888 14.9384 19.0929C14.9284 19.0971 14.911 19.1013 14.8861 19.097C14.8557 19.0918 14.8343 19.077 14.8284 19.071L16.2426 17.6568ZM13.0004 19C13.0004 19.5523 12.5527 20 12.0004 20V22C13.6573 22 15.0004 20.6569 15.0004 19H13.0004ZM12.0004 20C11.4481 20 11.0004 19.5523 11.0004 19H9.00043C9.00043 20.6569 10.3436 22 12.0004 22V20ZM11.0004 19C11.0004 17.3072 8.95386 16.4603 7.75738 17.6568L9.17159 19.071C9.16575 19.0769 9.14456 19.0916 9.11432 19.0968C9.08954 19.1011 9.0723 19.0969 9.0624 19.0928C9.0525 19.0887 9.03728 19.0795 9.02276 19.0589C9.00503 19.0337 9.00043 19.0083 9.00043 19H11.0004ZM7.75738 17.6568C7.36686 18.0474 6.73369 18.0474 6.34317 17.6568L4.92895 19.071C6.10053 20.2426 8.00002 20.2426 9.17159 19.071L7.75738 17.6568ZM6.34317 17.6568C5.95264 17.2663 5.95264 16.6331 6.34317 16.2426L4.92895 14.8284C3.75738 16 3.75738 17.8995 4.92895 19.071L6.34317 17.6568ZM6.34317 16.2426C7.53982 15.046 6.69218 13 5 13V15C4.99169 15 4.96626 14.9954 4.94111 14.9777C4.9205 14.9631 4.91128 14.9479 4.90716 14.938C4.90304 14.928 4.89878 14.9107 4.90309 14.8859C4.90834 14.8555 4.92307 14.8343 4.92895 14.8284L6.34317 16.2426ZM5 13C4.44772 13 4 12.5523 4 12H2C2 13.6569 3.34315 15 5 15V13ZM4 12C4 11.4477 4.44772 11 5 11L5 9C3.34315 9 2 10.3431 2 12H4ZM5 11C6.69234 11 7.53968 8.9539 6.34312 7.75734L4.92891 9.17155C4.92303 9.16568 4.90831 9.14444 4.90306 9.11413C4.89876 9.08929 4.90301 9.072 4.90712 9.06205C4.91124 9.05211 4.92047 9.03687 4.94109 9.02234C4.96625 9.00461 4.99168 9 5 9V11ZM6.34312 7.75734C5.9526 7.36681 5.9526 6.73365 6.34312 6.34312L4.92891 4.92891C3.75734 6.10048 3.75734 7.99998 4.92891 9.17155L6.34312 7.75734ZM6.34312 6.34312C6.73365 5.9526 7.36681 5.9526 7.75734 6.34312L9.17155 4.92891C7.99998 3.75734 6.10048 3.75734 4.92891 4.92891L6.34312 6.34312ZM7.75734 6.34312C8.95372 7.5395 11.0004 6.69292 11.0004 5H9.00043C9.00043 4.99169 9.00504 4.96625 9.02277 4.9411C9.0373 4.92048 9.05252 4.91128 9.06242 4.90718C9.07231 4.90309 9.08954 4.89885 9.1143 4.90314C9.14452 4.90838 9.1657 4.92307 9.17155 4.92891L7.75734 6.34312Z" fill="black"/>
<circle cx="12" cy="12" r="3" stroke="#808080" stroke-width="2"/>
</svg>
