<svg width="24" height="24" viewBox="0 0 24 24" fill="none" xmlns="http://www.w3.org/2000/svg">
<path fill="black" d="M10.5 10.5L12.1213 8.87862C12.6839 8.31603 12.9999 7.553 13 6.75739L13 5.50005C13 4.11931 14.1193 3.00002 15.5001 3.00001V3.00001C16.8808 3.00001 18.0001 4.11927 18.0001 5.49998L18.0002 5.99986L18.5001 5.99989C19.8808 5.99996 21 7.11925 21 8.49994V8.49994C21 9.88068 19.8807 11 18.4999 11L17.2426 11C16.4469 11 15.6839 11.3161 15.1212 11.8787L13.5 13.5"/>
<path fill="black" d="M10.5 10.5L8.87868 12.1213C8.31607 12.6839 7.553 13 6.75734 13L5.49999 13C4.11928 13 3 14.1193 3 15.5V15.5C3 16.8807 4.11929 18 5.50001 18L6 18L6 18.5C6 19.8807 7.11929 21 8.5 21V21C9.88071 21 11 19.8807 11 18.5L11 17.2426C11 16.447 11.3161 15.6839 11.8787 15.1213L13.5 13.5"/>
</svg>
