<svg width="24" height="24" viewBox="0 0 24 24" fill="none" xmlns="http://www.w3.org/2000/svg">
<path fill="black" d="M9.99505 3.47578C10.8857 1.93168 13.1143 1.93168 14.0049 3.47578V3.47578C14.5287 4.38381 15.5974 4.82646 16.6098 4.55476V4.55476C18.3315 4.09273 19.9073 5.66853 19.4452 7.39018V7.39018C19.1735 8.40262 19.6162 9.47127 20.5242 9.99505V9.99505C22.0683 10.8857 22.0683 13.1143 20.5242 14.0049V14.0049C19.6162 14.5287 19.1735 15.5974 19.4452 16.6098V16.6098C19.9073 18.3315 18.3315 19.9073 16.6098 19.4452V19.4452C15.5974 19.1735 14.5287 19.6162 14.0049 20.5242V20.5242C13.1143 22.0683 10.8857 22.0683 9.99505 20.5242V20.5242C9.47127 19.6162 8.40262 19.1735 7.39018 19.4452V19.4452C5.66853 19.9073 4.09273 18.3315 4.55476 16.6098V16.6098C4.82646 15.5974 4.38381 14.5287 3.47578 14.0049V14.0049C1.93168 13.1143 1.93168 10.8857 3.47578 9.99505V9.99505C4.38381 9.47127 4.82646 8.40262 4.55476 7.39018V7.39018C4.09273 5.66853 5.66853 4.09273 7.39018 4.55476V4.55476C8.40262 4.82646 9.47127 4.38381 9.99505 3.47578V3.47578Z"/>
<path fill="black" d="M8 12.5618C8 13.044 8.13622 13.5154 8.39143 13.9164C8.64663 14.3173 9.00937 14.6299 9.43377 14.8144C9.85816 14.9989 10.3252 15.0472 10.7757 14.9531C11.2262 14.8591 11.5749 14.6952 11.9649 14.2859L17 9"/>
</svg>
