<svg width="24" height="24" viewBox="0 0 24 24" fill="none" xmlns="http://www.w3.org/2000/svg">
<path d="M6 12V16C6 18.7614 8.23858 21 11 21V21C13.7614 21 16 18.7614 16 16V13" stroke="black" stroke-width="2" stroke-linejoin="round"/>
<path d="M8 10C8 9.73736 7.94827 9.47728 7.84776 9.23463C7.74725 8.99198 7.59993 8.7715 7.41421 8.58579C7.2285 8.40007 7.00802 8.25275 6.76537 8.15224C6.52272 8.05173 6.26264 8 6 8C5.73736 8 5.47728 8.05173 5.23463 8.15224C4.99198 8.25275 4.7715 8.40007 4.58579 8.58579C4.40007 8.7715 4.25275 8.99198 4.15224 9.23463C4.05173 9.47728 4 9.73736 4 10C4 10.2626 4.05173 10.5227 4.15224 10.7654C4.25275 11.008 4.40007 11.2285 4.58579 11.4142C4.7715 11.5999 4.99198 11.7472 5.23463 11.8478C5.47728 11.9483 5.73736 12 6 12C6.26264 12 6.52272 11.9483 6.76537 11.8478C7.00802 11.7472 7.2285 11.5999 7.41421 11.4142C7.59993 11.2285 7.74725 11.008 7.84776 10.7654C7.94827 10.5227 8 10.2626 8 10L8 10Z" stroke="black" stroke-width="2" stroke-linejoin="round"/>
<path d="M15 3V3C13.3431 3 12 4.34315 12 6V9C12 11.2091 13.7909 13 16 13V13C18.2091 13 20 11.2091 20 9V6C20 4.34315 18.6569 3 17 3V3" stroke="black" stroke-width="2" stroke-linejoin="round"/>
</svg>
