<svg width="24" height="24" viewBox="0 0 24 24" fill="none" xmlns="http://www.w3.org/2000/svg">
<path d="M21 12C21 14.3869 20.0518 16.6761 18.364 18.364C16.6761 20.0518 14.3869 21 12 21C9.61305 21 7.32387 20.0518 5.63604 18.364C3.94821 16.6761 3 14.3869 3 12" stroke="black" stroke-width="2" stroke-linejoin="round"/>
<path d="M12 3L12 16" stroke="black" stroke-width="2" stroke-linejoin="round"/>
<path d="M16 12C16 12.5253 15.8965 13.0454 15.6955 13.5307C15.4945 14.016 15.1999 14.457 14.8284 14.8284C14.457 15.1999 14.016 15.4945 13.5307 15.6955C13.0454 15.8965 12.5253 16 12 16C11.4747 16 10.9546 15.8965 10.4693 15.6955C9.98396 15.4945 9.54301 15.1999 9.17157 14.8284C8.80014 14.457 8.5055 14.016 8.30448 13.5307C8.10346 13.0454 8 12.5253 8 12" stroke="black" stroke-width="2" stroke-linejoin="round"/>
</svg>
