<svg width="24" height="24" viewBox="0 0 24 24" fill="none" xmlns="http://www.w3.org/2000/svg">
<path d="M18 16.5V17C18 19.2091 16.2091 21 14 21H10C7.79086 21 6 19.2091 6 17V7C6 4.79086 7.79086 3 10 3H14C16.2091 3 18 4.79086 18 7V7.5" stroke="black" stroke-width="2" stroke-linejoin="round"/>
<path d="M15 3C15 3.39397 14.9224 3.78407 14.7716 4.14805C14.6209 4.51203 14.3999 4.84274 14.1213 5.12132C13.8427 5.3999 13.512 5.62087 13.1481 5.77164C12.7841 5.9224 12.394 6 12 6C11.606 6 11.2159 5.9224 10.8519 5.77164C10.488 5.62087 10.1573 5.3999 9.87868 5.12132C9.6001 4.84274 9.37913 4.51203 9.22836 4.14805C9.0776 3.78407 9 3.39397 9 3" stroke="black" stroke-width="2" stroke-linejoin="round"/>
<path d="M11 12C11 12.5933 11.1759 13.1734 11.5056 13.6667C11.8352 14.1601 12.3038 14.5446 12.8519 14.7716C13.4001 14.9987 14.0033 15.0581 14.5853 14.9424C15.1672 14.8266 15.7018 14.5409 16.1213 14.1213L22 8" stroke="#808080" stroke-width="2" stroke-linejoin="round"/>
</svg>
