<svg width="24" height="24" viewBox="0 0 24 24" fill="none" xmlns="http://www.w3.org/2000/svg">
<path d="M7 7V7C7 6.69343 7 6.54015 7.02007 6.41186C7.13226 5.69478 7.69478 5.13226 8.41186 5.02007C8.54015 5 8.69343 5 9 5V5C9.30657 5 9.45985 5 9.58814 5.02007C10.3052 5.13226 10.8677 5.69478 10.9799 6.41186C11 6.54015 11 6.69343 11 7V7" stroke="black" stroke-width="2" stroke-linecap="round" stroke-linejoin="round"/>
<path d="M14 10V10C14 9.69343 14 9.54015 14.0201 9.41186C14.1323 8.69478 14.6948 8.13226 15.4119 8.02007C15.5401 8 15.6934 8 16 8V8C16.3066 8 16.4599 8 16.5881 8.02007C17.3052 8.13226 17.8677 8.69478 17.9799 9.41186C18 9.54015 18 9.69343 18 10V10" stroke="black" stroke-width="2" stroke-linecap="round" stroke-linejoin="round"/>
<path d="M21 21H12.6C9.23969 21 7.55953 21 6.27606 20.346C5.14708 19.7708 4.2292 18.8529 3.65396 17.7239C3 16.4405 3 14.7603 3 11.4L3 3" stroke="black" stroke-width="2" stroke-linecap="round" stroke-linejoin="round"/>
<path d="M7 14V14C7 13.6934 7 13.5401 7.02007 13.4119C7.13226 12.6948 7.69478 12.1323 8.41186 12.0201C8.54015 12 8.69343 12 9 12V12C9.30657 12 9.45985 12 9.58814 12.0201C10.3052 12.1323 10.8677 12.6948 10.9799 13.4119C11 13.5401 11 13.6934 11 14V14" stroke="black" stroke-width="2" stroke-linecap="round" stroke-linejoin="round"/>
<path d="M14 17V17C14 16.6934 14 16.5401 14.0201 16.4119C14.1323 15.6948 14.6948 15.1323 15.4119 15.0201C15.5401 15 15.6934 15 16 15V15C16.3066 15 16.4599 15 16.5881 15.0201C17.3052 15.1323 17.8677 15.6948 17.9799 16.4119C18 16.5401 18 16.6934 18 17V17" stroke="black" stroke-width="2" stroke-linecap="round" stroke-linejoin="round"/>
</svg>
