<svg width="24" height="24" viewBox="0 0 24 24" fill="none" xmlns="http://www.w3.org/2000/svg">
<path fill="black" d="M7 10L7.67894 11.3579C8.1422 12.2844 8.37383 12.7477 8.38251 13.1995C8.39031 13.6059 8.27407 14.0051 8.04928 14.3438C7.79938 14.7204 7.35525 14.9869 6.46698 15.5198L5.97389 15.8157C5.57286 16.0563 5.37234 16.1766 5.18046 16.244C4.49606 16.4844 3.73516 16.3353 3.19202 15.8545C3.03975 15.7197 2.89522 15.527 2.60616 15.1415V15.1415C2.29794 14.7306 2.14383 14.5251 2.05599 14.3368C1.70354 13.5811 1.85684 12.6861 2.44069 12.0909C2.58621 11.9425 2.79316 11.8046 3.20707 11.5286V11.5286C3.96959 11.0203 4.35084 10.7661 4.74237 10.5455C6.27581 9.68142 7.98055 9.16527 9.73574 9.03362C10.1839 9 10.6421 9 11.5585 9H12.4415C13.3579 9 13.8161 9 14.2643 9.03362C16.0195 9.16527 17.7242 9.68142 19.2576 10.5455C19.6492 10.7661 20.0304 11.0203 20.7929 11.5286V11.5286C21.2068 11.8046 21.4138 11.9425 21.5593 12.0909C22.1432 12.6861 22.2965 13.5811 21.944 14.3368C21.8562 14.5251 21.7021 14.7306 21.3938 15.1415V15.1415C21.1048 15.527 20.9602 15.7197 20.808 15.8545C20.2648 16.3353 19.5039 16.4844 18.8195 16.244C18.6277 16.1766 18.4271 16.0563 18.0261 15.8157L17.533 15.5198C16.6448 14.9869 16.2006 14.7204 15.9507 14.3438C15.7259 14.0051 15.6097 13.6059 15.6175 13.1995C15.6262 12.7477 15.8578 12.2844 16.3211 11.3579L17 10"/>
</svg>
