<svg width="24" height="24" viewBox="0 0 24 24" fill="none" xmlns="http://www.w3.org/2000/svg">
<path fill="black" d="M20 12L4 12"/>
<path fill="black" d="M4 12C4 10.1614 5.03879 8.48061 6.68328 7.65836L8.42229 6.78885C9.73411 6.13294 10.39 5.80499 11.078 5.67591C11.6874 5.56159 12.3126 5.56159 12.922 5.67591C13.61 5.80499 14.2659 6.13294 15.5777 6.78885L17.3167 7.65836C18.9612 8.48061 20 10.1614 20 12V12C20 13.8386 18.9612 15.5194 17.3167 16.3416L15.5777 17.2111C14.2659 17.8671 13.61 18.195 12.922 18.3241C12.3126 18.4384 11.6874 18.4384 11.078 18.3241C10.39 18.195 9.73411 17.8671 8.42229 17.2111L6.68328 16.3416C5.03879 15.5194 4 13.8386 4 12V12Z"/>
<path fill="black" d="M21 9L3 9"/>
<path fill="black" d="M21 15L3 15"/>
</svg>
