<svg width="24" height="24" viewBox="0 0 24 24" fill="none" xmlns="http://www.w3.org/2000/svg">
<path d="M13 11V8C13 6.89543 13.8954 6 15 6V6C16.1046 6 17 6.89543 17 8V11" stroke="black" stroke-width="2" stroke-linecap="round" stroke-linejoin="round"/>
<path d="M17 13V11C17 9.89543 17.8954 9 19 9V9C20.1046 9 21 9.89543 21 11V13.3944C21 14.1761 21 14.5669 20.9512 14.9473C20.8663 15.6087 20.6717 16.2514 20.3754 16.8488C20.2051 17.1924 19.9883 17.5176 19.5547 18.1679L19.1039 18.8441C18.7899 19.3151 18.6329 19.5506 18.4655 19.7589C17.4434 21.0306 15.9474 21.8312 14.3224 21.9762C14.0562 22 13.7731 22 13.2071 22V22C12.5826 22 12.2704 22 11.9803 21.9718C10.2054 21.7989 8.59931 20.8455 7.59765 19.37C7.43397 19.1289 7.28445 18.8548 6.98541 18.3066L3.80449 12.4749C3.3491 11.64 3.6066 10.5956 4.39788 10.0681V10.0681C5.2701 9.4866 6.45133 9.75222 6.99067 10.6511L9 14V4C9 2.89543 9.89543 2 11 2V2C12.1046 2 13 2.89543 13 4V10" stroke="black" stroke-width="2" stroke-linecap="round" stroke-linejoin="round"/>
</svg>
