<svg width="24" height="24" viewBox="0 0 24 24" fill="none" xmlns="http://www.w3.org/2000/svg">
<path d="M5 16.5V13.4047C5 12.5149 5 12.07 5.09265 11.647C5.17483 11.2719 5.3106 10.9105 5.49579 10.5741C5.70458 10.1948 5.99755 9.85994 6.58351 9.19028L9.59175 5.75228C10.4232 4.80201 10.839 4.32687 11.3315 4.1522C11.764 3.99885 12.236 3.99885 12.6685 4.1522C13.161 4.32687 13.5768 4.80201 14.4082 5.75228L17.4165 9.19028C18.0024 9.85994 18.2954 10.1948 18.5042 10.5741C18.6894 10.9105 18.8252 11.2719 18.9074 11.647C19 12.07 19 12.5149 19 13.4047V16.5C19 16.9647 19 17.197 18.9616 17.3902C18.8038 18.1836 18.1836 18.8038 17.3902 18.9616C17.197 19 16.9647 19 16.5 19C16.0353 19 15.803 19 15.6098 18.9616C14.8164 18.8038 14.1962 18.1836 14.0384 17.3902C14 17.197 14 16.9647 14 16.5V15.6C14 15.0399 14 14.7599 13.891 14.546C13.7951 14.3578 13.6422 14.2049 13.454 14.109C13.2401 14 12.9601 14 12.4 14H11.6C11.0399 14 10.7599 14 10.546 14.109C10.3578 14.2049 10.2049 14.3578 10.109 14.546C10 14.7599 10 15.0399 10 15.6V16.5C10 16.9647 10 17.197 9.96157 17.3902C9.80376 18.1836 9.18356 18.8038 8.39018 18.9616C8.19698 19 7.96466 19 7.5 19C7.03534 19 6.80302 19 6.60982 18.9616C5.81644 18.8038 5.19624 18.1836 5.03843 17.3902C5 17.197 5 16.9647 5 16.5Z" stroke="black" stroke-width="2" stroke-linecap="round" stroke-linejoin="round"/>
</svg>
