<svg width="24" height="24" viewBox="0 0 24 24" fill="none" xmlns="http://www.w3.org/2000/svg">
<path d="M10 21L9.39411 20.3941C8.20606 19.2061 7.61204 18.612 7.38947 17.9271C7.1937 17.3245 7.1937 16.6755 7.38947 16.0729C7.61204 15.388 8.20606 14.7939 9.39411 13.6059L10 13" stroke="black" stroke-width="2" stroke-linecap="round" stroke-linejoin="round"/>
<path d="M8 17H15.2C16.8802 17 17.7202 17 18.362 16.673C18.9265 16.3854 19.3854 15.9265 19.673 15.362C20 14.7202 20 13.8802 20 12.2V11" stroke="black" stroke-width="2" stroke-linecap="round" stroke-linejoin="round"/>
<path d="M14 3L14.6059 3.60589C15.7939 4.79394 16.388 5.38796 16.6105 6.07295C16.8063 6.67548 16.8063 7.32452 16.6105 7.92705C16.388 8.61204 15.7939 9.20606 14.6059 10.3941L14 11" stroke="#808080" stroke-width="2" stroke-linecap="round" stroke-linejoin="round"/>
<path d="M16 7H8.8C7.11984 7 6.27976 7 5.63803 7.32698C5.07354 7.6146 4.6146 8.07354 4.32698 8.63803C4 9.27976 4 10.1198 4 11.8V13" stroke="#808080" stroke-width="2" stroke-linecap="round" stroke-linejoin="round"/>
</svg>
