<svg width="24" height="24" viewBox="0 0 24 24" fill="none" xmlns="http://www.w3.org/2000/svg">
<path d="M14 21L14.6059 20.3941C15.7939 19.2061 16.388 18.612 16.6105 17.9271C16.8063 17.3245 16.8063 16.6755 16.6105 16.0729C16.388 15.388 15.7939 14.7939 14.6059 13.6059L14 13" stroke="black" stroke-width="2" stroke-linecap="round" stroke-linejoin="round"/>
<path d="M16 17H8.8C7.11984 17 6.27976 17 5.63803 16.673C5.07354 16.3854 4.6146 15.9265 4.32698 15.362C4 14.7202 4 13.8802 4 12.2V11" stroke="black" stroke-width="2" stroke-linecap="round" stroke-linejoin="round"/>
<path d="M10 3L9.39411 3.60589C8.20606 4.79394 7.61204 5.38796 7.38947 6.07295C7.1937 6.67548 7.1937 7.32452 7.38947 7.92705C7.61204 8.61204 8.20606 9.20606 9.39411 10.3941L10 11" stroke="#808080" stroke-width="2" stroke-linecap="round" stroke-linejoin="round"/>
<path d="M8 7H15.2C16.8802 7 17.7202 7 18.362 7.32698C18.9265 7.6146 19.3854 8.07354 19.673 8.63803C20 9.27976 20 10.1198 20 11.8V13" stroke="#808080" stroke-width="2" stroke-linecap="round" stroke-linejoin="round"/>
</svg>
