<svg width="24" height="24" viewBox="0 0 24 24" fill="none" xmlns="http://www.w3.org/2000/svg">
<path d="M19 14.2859V10V9.4C19 7.15979 19 6.03969 18.564 5.18404C18.1805 4.43139 17.5686 3.81947 16.816 3.43597C15.9603 3 14.8402 3 12.6 3H11.4C9.15979 3 8.03969 3 7.18404 3.43597C6.43139 3.81947 5.81947 4.43139 5.43597 5.18404C5 6.03969 5 7.15979 5 9.4V10V14.2859C5 15.6386 5 16.315 5.19743 16.9199C5.37211 17.455 5.65778 17.9473 6.03578 18.3645C6.463 18.836 7.05024 19.1716 8.22471 19.8427L8.82471 20.1855C9.98207 20.8469 10.5608 21.1776 11.1753 21.3071C11.7191 21.4216 12.2809 21.4216 12.8247 21.3071C13.4392 21.1776 14.0179 20.8469 15.1753 20.1855L15.7753 19.8427C16.9498 19.1716 17.537 18.836 17.9642 18.3645C18.3422 17.9473 18.6279 17.455 18.8026 16.9199C19 16.315 19 15.6386 19 14.2859Z" stroke="black" stroke-width="2" stroke-linecap="round" stroke-linejoin="round"/>
<path d="M8.5 13V13C9.04525 13.5452 9.31787 13.8179 9.61197 13.9636C10.1715 14.2409 10.8285 14.2409 11.388 13.9636C11.6821 13.8179 11.9548 13.5452 12.5 13L15.5 10" stroke="#808080" stroke-width="2" stroke-linecap="round" stroke-linejoin="round"/>
</svg>
