<svg width="24" height="24" viewBox="0 0 24 24" fill="none" xmlns="http://www.w3.org/2000/svg">
<path d="M9.44276 7.87025C10.2249 5.46298 10.616 4.25934 11.1954 3.9408C11.6964 3.66538 12.3035 3.66538 12.8045 3.9408C13.3839 4.25934 13.775 5.46298 14.5572 7.87025V7.87025C14.6878 8.27223 14.7531 8.47322 14.8747 8.6202C14.982 8.74999 15.1205 8.85055 15.2771 8.91256C15.4544 8.98278 15.6658 8.98278 16.0884 8.98278V8.98278C18.6196 8.98278 19.8852 8.98278 20.3672 9.4354C20.7839 9.82676 20.9715 10.4041 20.8644 10.9657C20.7405 11.6152 19.7166 12.3591 17.6689 13.8469V13.8469C17.3269 14.0953 17.1559 14.2195 17.0537 14.3806C16.9635 14.5228 16.9106 14.6855 16.9 14.8536C16.8881 15.044 16.9534 15.245 17.084 15.647V15.647C17.8661 18.0542 18.2572 19.2579 17.9757 19.8562C17.7323 20.3735 17.2412 20.7303 16.674 20.8019C16.018 20.8848 14.9941 20.1409 12.9463 18.6531V18.6531C12.6044 18.4047 12.4334 18.2805 12.2487 18.233C12.0855 18.1912 11.9144 18.1912 11.7513 18.233C11.5665 18.2805 11.3955 18.4047 11.0536 18.6531V18.6531C9.00584 20.1409 7.98196 20.8848 7.32598 20.8019C6.75878 20.7303 6.26765 20.3735 6.02422 19.8562C5.7427 19.2579 6.13378 18.0542 6.91596 15.647V15.647C7.04657 15.245 7.11187 15.044 7.09989 14.8536C7.08932 14.6855 7.03645 14.5228 6.9462 14.3806C6.84398 14.2195 6.67301 14.0953 6.33107 13.8469V13.8469C4.28331 12.3591 3.25944 11.6152 3.13554 10.9657C3.02841 10.4041 3.21601 9.82676 3.63277 9.4354C4.11476 8.98278 5.38034 8.98278 7.91151 8.98278V8.98278C8.33417 8.98278 8.5455 8.98278 8.72286 8.91256C8.87948 8.85055 9.01789 8.74999 9.12525 8.6202C9.24685 8.47322 9.31215 8.27223 9.44276 7.87025V7.87025Z" stroke="black" stroke-width="2" stroke-linejoin="round"/>
</svg>
