<svg width="24" height="24" viewBox="0 0 24 24" fill="none" xmlns="http://www.w3.org/2000/svg">
<path fill="black" d="M7 14V14C7 15.6569 8.34315 17 10 17H14C15.6569 17 17 15.6569 17 14V14"/>
<path fill="black" d="M3.45672 17.2961C3 16.1935 3 14.7956 3 12C3 9.20435 3 7.80653 3.45672 6.7039C4.06569 5.23373 5.23373 4.06569 6.7039 3.45672C7.80653 3 9.20435 3 12 3C14.7956 3 16.1935 3 17.2961 3.45672C18.7663 4.06569 19.9343 5.23373 20.5433 6.7039C21 7.80653 21 9.20435 21 12C21 14.7956 21 16.1935 20.5433 17.2961C19.9343 18.7663 18.7663 19.9343 17.2961 20.5433C16.1935 21 14.7956 21 12 21C9.20435 21 7.80653 21 6.7039 20.5433C5.23373 19.9343 4.06569 18.7663 3.45672 17.2961Z"/>
<path fill="black" d="M14 10V10C14 9.44772 14.4477 9 15 9H16C16.5523 9 17 9.44772 17 10V10"/>
<path fill="black" d="M7 10V10C7 9.44772 7.44772 9 8 9H9C9.55228 9 10 9.44772 10 10V10"/>
</svg>
