<svg width="24" height="24" viewBox="0 0 24 24" fill="none" xmlns="http://www.w3.org/2000/svg">
<path d="M12 3L12 21" stroke="black" stroke-width="2" stroke-linecap="round" stroke-linejoin="round"/>
<path d="M8.8 3.84752C9.96577 3.17446 10.5487 2.83793 11.1684 2.70621C11.7167 2.58967 12.2833 2.58967 12.8316 2.70621C13.4513 2.83793 14.0342 3.17446 15.2 3.84752L17.4603 5.15248C18.626 5.82554 19.2089 6.16207 19.6328 6.63288C20.0079 7.04945 20.2913 7.54021 20.4645 8.07333C20.6603 8.67586 20.6603 9.34892 20.6603 10.695V13.305C20.6603 14.6511 20.6603 15.3241 20.4645 15.9267C20.2913 16.4598 20.0079 16.9505 19.6328 17.3671C19.2089 17.8379 18.626 18.1745 17.4603 18.8475L15.2 20.1525C14.0342 20.8255 13.4513 21.1621 12.8316 21.2938C12.2833 21.4103 11.7167 21.4103 11.1684 21.2938C10.5487 21.1621 9.96577 20.8255 8.8 20.1525L6.53975 18.8475C5.37397 18.1745 4.79109 17.8379 4.36717 17.3671C3.99208 16.9505 3.70874 16.4598 3.53552 15.9267C3.33975 15.3241 3.33975 14.6511 3.33975 13.305V10.695C3.33975 9.34892 3.33975 8.67586 3.53552 8.07333C3.70874 7.54021 3.99208 7.04945 4.36717 6.63288C4.79109 6.16207 5.37397 5.82554 6.53975 5.15248L8.8 3.84752Z" stroke="black" stroke-width="2" stroke-linecap="round" stroke-linejoin="round"/>
</svg>
