<svg width="24" height="24" viewBox="0 0 24 24" fill="none" xmlns="http://www.w3.org/2000/svg">
<path fill="black" d="M3 4V4C5.20914 4 7 5.79086 7 8V12V12C7 14.2091 8.79086 16 11 16H16.5C16.9643 16 17.1965 16 17.3921 15.9807C19.2912 15.7937 20.7937 14.2912 20.9807 12.3921C21 12.1965 21 11.9643 21 11.5V11.5C21 11.0357 21 10.8035 20.9807 10.6079C20.7937 8.70882 19.2912 7.20631 17.3921 7.01926C17.1965 7 16.9643 7 16.5 7H11"/>
<rect fill="black" x="7" y="18" width="3" height="3" rx="1.5"/>
<rect fill="black" x="18" y="18" width="3" height="3" rx="1.5"/>
</svg>
