<svg width="24" height="24" viewBox="0 0 24 24" fill="none" xmlns="http://www.w3.org/2000/svg">
<path d="M13.2189 21H10.7811C7.23006 21 5.45456 21 4.41063 20.2531C3.49967 19.6013 2.90373 18.5974 2.76775 17.4856C2.61193 16.2115 3.46213 14.6528 5.16254 11.5353L6.38147 9.30064C8.2113 5.94595 9.12622 4.2686 10.3377 3.71508C11.3934 3.23272 12.6066 3.23272 13.6623 3.71508C14.8738 4.2686 15.7887 5.94595 17.6185 9.30064L18.8375 11.5353C20.5379 14.6528 21.3881 16.2115 21.2322 17.4856C21.0963 18.5974 20.5003 19.6013 19.5894 20.2531C18.5454 21 16.7699 21 13.2189 21Z" stroke="black" stroke-width="2"/>
<path d="M12 8L12 14" stroke="black" stroke-width="2" stroke-linecap="round" stroke-linejoin="round"/>
<circle cx="12" cy="17" r="1" fill="black"/>
</svg>
