<svg width="24" height="24" viewBox="0 0 24 24" fill="none" xmlns="http://www.w3.org/2000/svg">
<path fill="black" d="M14.2627 13.7373L15.2686 12.7314C16.1254 11.8746 16.5538 11.4462 16.5827 11.0785C16.6078 10.7593 16.4786 10.4475 16.2352 10.2396C15.9547 10 15.3489 10 14.1373 10H9.86274C8.65111 10 8.04529 10 7.76477 10.2396C7.52136 10.4475 7.39218 10.7593 7.4173 11.0785C7.44624 11.4462 7.87462 11.8746 8.73137 12.7314L9.73726 13.7373C10.5293 14.5293 10.9253 14.9253 11.382 15.0737C11.7837 15.2042 12.2163 15.2042 12.618 15.0737C13.0747 14.9253 13.4707 14.5293 14.2627 13.7373Z"/>
</svg>
