<svg width="24" height="24" viewBox="0 0 24 24" fill="none" xmlns="http://www.w3.org/2000/svg">
<circle cx="8" cy="10" r="1" fill="black"/>
<circle cx="12" cy="10" r="1" fill="black"/>
<circle cx="16" cy="10" r="1" fill="black"/>
<path d="M21 10C21 9.07116 21 8.60674 20.9487 8.21684C20.5942 5.52444 18.4756 3.40579 15.7832 3.05133C15.3933 3 14.9288 3 14 3H10C9.07116 3 8.60674 3 8.21684 3.05133C5.52444 3.40579 3.40579 5.52444 3.05133 8.21684C3 8.60674 3 9.07116 3 10V10V17.2654C3 18.6436 4.66625 19.3337 5.64075 18.3592V18.3592C6.51106 17.4889 7.69146 17 8.92226 17H14C14.9288 17 15.3933 17 15.7832 16.9487C18.4756 16.5942 20.5942 14.4756 20.9487 11.7832C21 11.3933 21 10.9288 21 10V10Z" stroke="black" stroke-width="2" stroke-linejoin="round"/>
</svg>
