<svg width="24" height="24" viewBox="0 0 24 24" fill="none" xmlns="http://www.w3.org/2000/svg">
<path fill="black" d="M16 20V20C9.37258 20 4 14.6274 4 8V8"/>
<path fill="black" d="M4 6.5V7.5C4 7.96466 4 8.19698 4.03843 8.39018C4.19624 9.18356 4.81644 9.80376 5.60982 9.96157C5.80302 10 6.03534 10 6.5 10C6.96466 10 7.19698 10 7.39018 9.96157C8.18356 9.80376 8.80376 9.18356 8.96157 8.39018C9 8.19698 9 7.96466 9 7.5V6.5C9 6.03534 9 5.80302 8.96157 5.60982C8.80376 4.81644 8.18356 4.19624 7.39018 4.03843C7.19698 4 6.96466 4 6.5 4C6.03534 4 5.80302 4 5.60982 4.03843C4.81644 4.19624 4.19624 4.81644 4.03843 5.60982C4 5.80302 4 6.03534 4 6.5Z"/>
<path fill="black" d="M17.5 15L16.5 15C16.0353 15 15.803 15 15.6098 15.0384C14.8164 15.1962 14.1962 15.8164 14.0384 16.6098C14 16.803 14 17.0353 14 17.5C14 17.9647 14 18.197 14.0384 18.3902C14.1962 19.1836 14.8164 19.8038 15.6098 19.9616C15.803 20 16.0353 20 16.5 20L17.5 20C17.9647 20 18.197 20 18.3902 19.9616C19.1836 19.8038 19.8038 19.1836 19.9616 18.3902C20 18.197 20 17.9647 20 17.5C20 17.0353 20 16.803 19.9616 16.6098C19.8038 15.8164 19.1836 15.1962 18.3902 15.0384C18.197 15 17.9647 15 17.5 15Z"/>
</svg>
