<svg width="24" height="24" viewBox="0 0 24 24" fill="none" xmlns="http://www.w3.org/2000/svg">
<path d="M8 7.5V7C8 6.07003 8 5.60504 8.10222 5.22354C8.37962 4.18827 9.18827 3.37962 10.2235 3.10222C10.605 3 11.07 3 12 3V3C12.93 3 13.395 3 13.7765 3.10222C14.8117 3.37962 15.6204 4.18827 15.8978 5.22354C16 5.60504 16 6.07003 16 7V7.5M8 16.5L8 17C8 17.93 8 18.395 8.10222 18.7765C8.37962 19.8117 9.18827 20.6204 10.2235 20.8978C10.605 21 11.07 21 12 21V21C12.93 21 13.395 21 13.7765 20.8978C14.8117 20.6204 15.6204 19.8117 15.8978 18.7765C16 18.395 16 17.93 16 17V16.5" stroke="black" stroke-width="2" stroke-linecap="round" stroke-linejoin="round"/>
<circle cx="12" cy="12" r="1" fill="black"/>
<circle cx="8" cy="12" r="1" fill="black"/>
<circle cx="16" cy="12" r="1" fill="black"/>
<path d="M17 8C17.93 8 18.395 8 18.7765 8.10222C19.8117 8.37962 20.6204 9.18827 20.8978 10.2235C21 10.605 21 11.07 21 12V12C21 12.93 21 13.395 20.8978 13.7765C20.6204 14.8117 19.8117 15.6204 18.7765 15.8978C18.395 16 17.93 16 17 16L7 16C6.07003 16 5.60504 16 5.22354 15.8978C4.18827 15.6204 3.37962 14.8117 3.10222 13.7765C3 13.395 3 12.93 3 12V12C3 11.07 3 10.605 3.10222 10.2235C3.37962 9.18827 4.18827 8.37962 5.22354 8.10222C5.60504 8 6.07003 8 7 8L17 8Z" stroke="black" stroke-width="2" stroke-linecap="round" stroke-linejoin="round"/>
</svg>
