<svg width="24" height="24" viewBox="0 0 24 24" fill="none" xmlns="http://www.w3.org/2000/svg">
<path d="M8 3V3.2C8 4.88016 8 5.72024 8.32698 6.36197C8.6146 6.92646 9.07354 7.3854 9.63803 7.67302C10.2798 8 11.1198 8 12.8 8H13" stroke="#808080" stroke-width="2" stroke-linecap="round" stroke-linejoin="round"/>
<path d="M3 21V21C3 19.3431 4.34315 18 6 18H7" stroke="#808080" stroke-width="2" stroke-linecap="round" stroke-linejoin="round"/>
<path d="M21 10.8182V8C21 7.07003 21 6.60504 20.8978 6.22354C20.6204 5.18827 19.8117 4.37962 18.7765 4.10222C18.395 4 17.93 4 17 4C16.07 4 15.605 4 15.2235 4.10222C14.1883 4.37962 13.3796 5.18827 13.1022 6.22354C13 6.60504 13 7.07003 13 8V12C13 13.6569 11.6569 15 10 15C8.34315 15 7 16.3431 7 18C7 19.6569 8.34315 21 10 21H10.8182C12.8461 21 13.8601 21 14.7005 20.8172C17.761 20.1514 20.1514 17.761 20.8172 14.7005C21 13.8601 21 12.8461 21 10.8182Z" stroke="black" stroke-width="2" stroke-linecap="round" stroke-linejoin="round"/>
</svg>
