<svg width="24" height="24" viewBox="0 0 24 24" fill="none" xmlns="http://www.w3.org/2000/svg">
<rect x="16" y="17" width="4" height="4" rx="2" stroke="black" stroke-width="2" stroke-linecap="round" stroke-linejoin="round"/>
<path d="M3 20L9 14" stroke="black" stroke-width="2" stroke-linecap="round" stroke-linejoin="round"/>
<path d="M11.8618 14.6276L11.3868 14.7226C11.314 14.7372 11.2776 14.7445 11.2431 14.7504C10.468 14.883 9.67557 14.643 9.10412 14.1027C9.07868 14.0787 9.05245 14.0525 9 14L8.99999 14C8.94755 13.9475 8.92132 13.9213 8.89727 13.8959C8.35696 13.3244 8.11705 12.532 8.24963 11.7569C8.25553 11.7224 8.2628 11.686 8.27735 11.6132L8.37237 11.1382C8.52353 10.3824 8.59911 10.0044 8.70788 9.64237C9.01512 8.61968 9.52399 7.66885 10.2045 6.84592C10.4454 6.55457 10.7179 6.28206 11.263 5.73703L12 5L12 4.99997C12.1593 4.84068 12.239 4.76103 12.3095 4.69693C13.8351 3.31016 16.1649 3.31016 17.6905 4.69693C17.761 4.76104 17.8407 4.84069 18 5L18.0001 5.00009C18.1593 5.15934 18.239 5.23897 18.3031 5.30948C19.6898 6.83512 19.6898 9.16488 18.3031 10.6905C18.239 10.761 18.1593 10.8407 18 11L17.263 11.737C16.7179 12.2821 16.4454 12.5546 16.1541 12.7955C15.3312 13.476 14.3803 13.9849 13.3576 14.2921C12.9956 14.4009 12.6176 14.4765 11.8618 14.6276Z" stroke="black" stroke-width="2" stroke-linecap="round" stroke-linejoin="round"/>
</svg>
