<svg width="24" height="24" viewBox="0 0 24 24" fill="none" xmlns="http://www.w3.org/2000/svg">
<path d="M18 15.5C18 16.8956 18 17.5933 17.8278 18.1611C17.44 19.4395 16.4395 20.44 15.1611 20.8278C14.5933 21 13.8956 21 12.5 21H12C10.1362 21 9.20435 21 8.46927 20.6955C7.48915 20.2895 6.71046 19.5108 6.30448 18.5307C6 17.7956 6 16.8638 6 15V9C6 7.13623 6 6.20435 6.30448 5.46927C6.71046 4.48915 7.48915 3.71046 8.46927 3.30448C9.20435 3 10.1362 3 12 3H13.5C13.9643 3 14.1965 3 14.3921 3.01926C16.2912 3.20631 17.7937 4.70882 17.9807 6.60793" stroke="black" stroke-width="2" stroke-linecap="round" stroke-linejoin="round"/>
<path d="M9 4V4C9 5.10457 9.89543 6 11 6H13C14.1046 6 15 5.10457 15 4V4" stroke="black" stroke-width="2" stroke-linecap="round" stroke-linejoin="round"/>
<path d="M10 13V13C10.8179 13.8179 11.2268 14.2268 11.668 14.4454C12.5073 14.8613 13.4927 14.8613 14.332 14.4454C14.7732 14.2268 15.1821 13.8179 16 13L21 8" stroke="#808080" stroke-width="2" stroke-linecap="round" stroke-linejoin="round"/>
</svg>
