<svg width="24" height="24" viewBox="0 0 24 24" fill="none" xmlns="http://www.w3.org/2000/svg">
<path fill="black" d="M14 4H12C11.071 4 10.6065 4 10.2178 4.06156C8.07837 4.40042 6.40042 6.07837 6.06156 8.21783C6 8.60649 6 9.07099 6 10C6 10.929 6 11.3935 6.06156 11.7822C6.40042 13.9216 8.07837 15.5996 10.2178 15.9384C10.6065 16 11.071 16 12 16H14C14.929 16 15.3935 16 15.7822 15.9384C17.9216 15.5996 19.5996 13.9216 19.9384 11.7822C20 11.3935 20 10.929 20 10C20 9.07099 20 8.60649 19.9384 8.21783C19.5996 6.07837 17.9216 4.40042 15.7822 4.06156C15.3935 4 14.929 4 14 4Z"/>
<path fill="black" d="M15 10H12.4C10.1598 10 9.03968 10 8.18404 10.436C7.43139 10.8195 6.81947 11.4314 6.43597 12.184C6 13.0397 6 14.1598 6 16.4V21"/>
</svg>
