<svg width="24" height="24" viewBox="0 0 24 24" fill="none" xmlns="http://www.w3.org/2000/svg">
<path d="M18.2686 12.2686L15.3941 9.39411C14.2061 8.20606 13.612 7.61204 12.9271 7.38947C12.3245 7.1937 11.6755 7.1937 11.0729 7.38947C10.388 7.61204 9.79394 8.20606 8.60589 9.39411L5.73137 12.2686C4.87462 13.1254 4.44624 13.5538 4.4173 13.9215C4.39218 14.2407 4.52136 14.5525 4.76477 14.7604C5.04529 15 5.65111 15 6.86274 15H17.1373C18.3489 15 18.9547 15 19.2352 14.7604C19.4786 14.5525 19.6078 14.2407 19.5827 13.9215C19.5538 13.5538 19.1254 13.1254 18.2686 12.2686Z" fill="black"/>
</svg>
