<svg width="24" height="24" viewBox="0 0 24 24" fill="none" xmlns="http://www.w3.org/2000/svg">
<path fill="black" d="M16.5 11.5L14.1314 13.8686C13.7354 14.2646 13.5373 14.4627 13.309 14.5368C13.1082 14.6021 12.8918 14.6021 12.691 14.5368C12.4627 14.4627 12.2646 14.2646 11.8686 13.8686L9.5 11.5C9.20338 11.2034 9.05507 11.0551 8.9586 10.9056C8.60278 10.3543 8.60278 9.64571 8.9586 9.0944C9.05507 8.94493 9.20338 8.79662 9.5 8.5C9.79662 8.20338 9.94493 8.05507 10.0944 7.9586C10.6457 7.60278 11.3543 7.60278 11.9056 7.9586C12.0551 8.05507 12.2034 8.20338 12.5 8.5L13 9L13.5 8.5L13.5 8.5C13.7966 8.20338 13.9449 8.05507 14.0944 7.9586C14.6457 7.60278 15.3543 7.60278 15.9056 7.9586C16.0551 8.05507 16.2034 8.20338 16.5 8.5L16.5 8.50002C16.7966 8.79662 16.9449 8.94493 17.0414 9.0944C17.3972 9.64571 17.3972 10.3543 17.0414 10.9056C16.9449 11.0551 16.7966 11.2034 16.5 11.5L16.5 11.5Z"/>
<path fill="black" d="M17.0325 22V17.7351C17.0325 16.4522 17.5708 15.2281 18.5163 14.3609V14.3609C19.4617 13.4937 20 12.2696 20 10.9867V8.99998C20 5.13399 16.866 1.99998 13 1.99998V1.99998C9.13401 1.99998 6 5.13399 6 8.99998V9.43059C6 9.80505 5.91282 10.1744 5.74536 10.5093L4.55279 12.8944C4.29882 13.4024 4.66817 14 5.23607 14V14C5.65798 14 6 14.342 6 14.7639V15.5C6 16.3284 6.67157 17 7.5 17V17C8.32843 17 9 17.6716 9 18.5V22"/>
</svg>
