<svg width="24" height="24" viewBox="0 0 24 24" fill="none" xmlns="http://www.w3.org/2000/svg">
<path d="M3 3H10.7878C11.4573 3 12 3.54273 12 4.21221V4.21221C12 4.69127 11.7179 5.12539 11.2801 5.31995L3.71989 8.68005C3.28212 8.87461 3 9.30873 3 9.78779V9.78779C3 10.4573 3.54273 11 4.21221 11H12" stroke="black" stroke-width="2" stroke-linecap="round" stroke-linejoin="round"/>
<path d="M15 11H20.3486C20.7084 11 21 11.2916 21 11.6514V11.6514C21 11.8692 20.8912 12.0726 20.7099 12.1934L15.2901 15.8066C15.1088 15.9274 15 16.1308 15 16.3486V16.3486C15 16.7084 15.2916 17 15.6514 17H21" stroke="black" stroke-width="2" stroke-linecap="round" stroke-linejoin="round"/>
<path d="M7 15H11.3246C11.6976 15 12 15.3024 12 15.6754V15.6754C12 15.8806 11.9067 16.0746 11.7465 16.2028L7.25348 19.7972C7.09326 19.9254 7 20.1194 7 20.3246V20.3246C7 20.6976 7.30238 21 7.67539 21H12" stroke="black" stroke-width="2" stroke-linecap="round" stroke-linejoin="round"/>
</svg>
