<svg width="24" height="24" viewBox="0 0 24 24" fill="none" xmlns="http://www.w3.org/2000/svg">
<path fill="black" d="M10 8V13C10 13.465 10 13.6975 10.0511 13.8882C10.1898 14.4059 10.5941 14.8102 11.1118 14.9489C11.3025 15 11.535 15 12 15V15C12.465 15 12.6975 15 12.8882 14.9489C13.4059 14.8102 13.8102 14.4059 13.9489 13.8882C14 13.6975 14 13.465 14 13V8C14 7.07003 14 6.60504 13.8978 6.22354C13.6204 5.18827 12.8117 4.37962 11.7765 4.10222C11.395 4 10.93 4 10 4V4C9.07003 4 8.60504 4 8.22354 4.10222C7.18827 4.37962 6.37962 5.18827 6.10222 6.22354C6 6.60504 6 7.07003 6 8V14C6 15.8638 6 16.7956 6.30448 17.5307C6.71046 18.5108 7.48915 19.2895 8.46927 19.6955C9.20435 20 10.1362 20 12 20V20C13.8638 20 14.7956 20 15.5307 19.6955C16.5108 19.2895 17.2895 18.5108 17.6955 17.5307C18 16.7956 18 15.8638 18 14V7.5"/>
</svg>
