<svg width="24" height="24" viewBox="0 0 24 24" fill="none" xmlns="http://www.w3.org/2000/svg">
<path d="M11 14V10C11 9.69343 11 9.54015 10.9799 9.41186C10.8677 8.69478 10.3052 8.13226 9.58814 8.02007C9.45985 8 9.30657 8 9 8C8.69343 8 8.54015 8 8.41186 8.02007C7.69478 8.13226 7.13226 8.69478 7.02007 9.41186C7 9.54015 7 9.69343 7 10V14C7 14.3066 7 14.4599 7.02007 14.5881C7.13226 15.3052 7.69478 15.8677 8.41186 15.9799C8.54015 16 8.69343 16 9 16C9.30657 16 9.45985 16 9.58814 15.9799C10.3052 15.8677 10.8677 15.3052 10.9799 14.5881C11 14.4599 11 14.3066 11 14Z" stroke="black" stroke-width="2" stroke-linejoin="round"/>
<path d="M17 14V10C17 9.69343 17 9.54015 16.9799 9.41186C16.8677 8.69478 16.3052 8.13226 15.5881 8.02007C15.4599 8 15.3066 8 15 8C14.6934 8 14.5401 8 14.4119 8.02007C13.6948 8.13226 13.1323 8.69478 13.0201 9.41186C13 9.54015 13 9.69343 13 10V14C13 14.3066 13 14.4599 13.0201 14.5881C13.1323 15.3052 13.6948 15.8677 14.4119 15.9799C14.5401 16 14.6934 16 15 16C15.3066 16 15.4599 16 15.5881 15.9799C16.3052 15.8677 16.8677 15.3052 16.9799 14.5881C17 14.4599 17 14.3066 17 14Z" stroke="black" stroke-width="2" stroke-linejoin="round"/>
<rect x="3" y="3" width="18" height="18" rx="6" stroke="black" stroke-width="2" stroke-linecap="round" stroke-linejoin="round"/>
</svg>
