<svg width="24" height="24" viewBox="0 0 24 24" fill="none" xmlns="http://www.w3.org/2000/svg">
<path fill="black" d="M12 12H12.6C14.8402 12 15.9603 12 16.816 12.436C17.5686 12.8195 18.1805 13.4314 18.564 14.184C19 15.0397 19 16.1598 19 18.4V21"/>
<path fill="black" d="M12 12H13C14.8638 12 15.7956 12 16.5307 11.6955C17.5108 11.2895 18.2895 10.5108 18.6955 9.53073C19 8.79565 19 7.86377 19 6V6"/>
<path fill="black" d="M11.6 13.45L12.7126 14.2845C14.0622 15.2966 14.5646 17.0885 13.9381 18.6547C13.3715 20.0712 11.9989 21 10.4733 21C6.3472 21 3 17.6551 3 13.529V10.4062C3 6.31588 6.31588 3 10.4062 3C11.9634 3 13.3542 3.97417 13.8864 5.4376L13.9795 5.6935L13.9923 5.72906C14.5827 7.37504 14.0355 9.21375 12.6412 10.2691L12.611 10.2918L11.6 11.05C11.2223 11.3333 11 11.7779 11 12.25C11 12.7221 11.2223 13.1667 11.6 13.45Z"/>
</svg>
