<svg width="24" height="24" viewBox="0 0 24 24" fill="none" xmlns="http://www.w3.org/2000/svg">
<path fill="black" d="M7.60002 7.15027L7.10002 8.0163L7.60002 7.15027ZM9.10455 7.79839L9.00002 6.80386L9.10455 7.79839ZM9.80904 7.39165L10.6181 7.97943L9.80904 7.39165ZM4.40576 7.15358L5.27178 7.65358L4.40576 7.15358ZM5.02714 6.2953L5.57178 7.13397L5.02714 6.2953ZM5.62412 6.13534L5.67645 5.13671L5.62412 6.13534ZM4.59139 10.032L4.09139 10.8981L4.59139 10.032ZM5.59998 13.3856L6.09998 14.2517L5.59998 13.3856ZM6.91353 12.4067L5.99998 12L6.91353 12.4067ZM6.91353 11.5933L7.82707 11.1865L6.91353 11.5933ZM4.00575 16.1536L3.13973 16.6536L4.00575 16.1536ZM3.57315 15.1863L2.57452 15.2386L3.57315 15.1863ZM4.59139 13.9679L4.09139 13.1019L4.59139 13.9679ZM3.73311 14.5893L2.89444 14.0447L3.73311 14.5893ZM6.59139 17.432L6.09139 16.566L6.59139 17.432ZM5.62411 17.8646L5.57178 16.866L5.62411 17.8646ZM4.40575 16.8464L5.27178 16.3464L4.40575 16.8464ZM5.02714 17.7047L5.57178 16.866L5.02714 17.7047ZM9.80904 16.6083L10.6181 16.0206L9.80904 16.6083ZM7.60002 16.8497L7.10002 15.9837L7.60002 16.8497ZM9.10455 16.2016L9.20908 15.2071L9.10455 16.2016ZM10.546 20.891L11 20L10.546 20.891ZM10.109 20.454L9.21801 20.908L10.109 20.454ZM13.891 20.454L14.782 20.908L13.891 20.454ZM13.454 20.891L13.908 21.782L13.454 20.891ZM14.8955 16.2016L15 17.1962L14.8955 16.2016ZM14.191 16.6084L15 17.1962L14.191 16.6084ZM19.5942 16.8464L18.7282 16.3464L19.5942 16.8464ZM18.9728 17.7047L19.5175 18.5434L18.9728 17.7047ZM17.4086 17.432L16.9086 18.2981L17.4086 17.432ZM18.3759 17.8646L18.3235 18.8633L18.3759 17.8646ZM19.4086 13.9679L18.9086 14.834L19.4086 13.9679ZM20.2669 14.5893L19.4282 15.134L20.2669 14.5893ZM19.9942 16.1536L20.8602 16.6536L19.9942 16.1536ZM20.4268 15.1863L21.4254 15.2386L20.4268 15.1863ZM18.4 10.6144L17.9 9.74833L18.4 10.6144ZM17.0864 11.5933L18 12L17.0864 11.5933ZM18.4 13.3856L17.9 14.2517L18.4 13.3856ZM17.0864 12.4067L18 12L17.0864 12.4067ZM19.9942 7.84641L19.1282 8.34641L19.9942 7.84641ZM20.4268 8.81368L19.4282 8.86602L20.4268 8.81368ZM19.4086 10.032L19.9086 10.8981L19.4086 10.032ZM20.2669 9.41066L19.4282 8.86602L20.2669 9.41066ZM17.4086 6.56794L16.9086 5.70192L17.4086 6.56794ZM18.3758 6.13534L18.3235 5.13671L18.3758 6.13534ZM19.5942 7.15358L20.4602 6.65358L19.5942 7.15358ZM18.9728 6.2953L19.5175 5.45663L18.9728 6.2953ZM14.191 7.3916L13.382 7.97939L14.191 7.3916ZM16.4 7.15023L15.9 6.28421L16.4 7.15023ZM14.8955 7.79834L15 6.80382L14.8955 7.79834ZM10.546 3.10899L10.092 2.21799L10.546 3.10899ZM10.109 3.54601L11 4L10.109 3.54601ZM13.454 3.10899L13.908 2.21799L13.454 3.10899ZM13.891 3.54601L14.782 3.09202L13.891 3.54601ZM12.4 2H11.6V4H12.4V2ZM15 5.76459V4.6H13V5.76459H15ZM16.9086 5.70192L15.9 6.28421L16.9 8.01626L17.9086 7.43397L16.9086 5.70192ZM20.8602 7.34641L20.4602 6.65358L18.7282 7.65358L19.1282 8.34641L20.8602 7.34641ZM18.9 11.4804L19.9086 10.8981L18.9086 9.16602L17.9 9.74833L18.9 11.4804ZM17.9 14.2517L18.9086 14.834L19.9086 13.1019L18.9 12.5196L17.9 14.2517ZM19.1282 15.6536L18.7282 16.3464L20.4602 17.3464L20.8602 16.6536L19.1282 15.6536ZM17.9086 16.566L16.9 15.9837L15.9 17.7158L16.9086 18.2981L17.9086 16.566ZM15 19.4V18.2354H13V19.4H15ZM11.6 22H12.4V20H11.6V22ZM9.00002 18.2354V19.4H11V18.2354H9.00002ZM7.09139 18.2981L8.10002 17.7157L7.10002 15.9837L6.09139 16.566L7.09139 18.2981ZM3.13973 16.6536L3.53973 17.3464L5.27178 16.3464L4.87178 15.6536L3.13973 16.6536ZM5.09998 12.5196L4.09139 13.1019L5.09139 14.834L6.09998 14.2517L5.09998 12.5196ZM6.09998 9.74833L5.09139 9.16602L4.09139 10.8981L5.09998 11.4804L6.09998 9.74833ZM4.87178 8.3464L5.27178 7.65358L3.53973 6.65358L3.13973 7.3464L4.87178 8.3464ZM6.0914 7.43397L7.10002 8.0163L8.10002 6.28425L7.0914 5.70192L6.0914 7.43397ZM9.00002 4.6V5.76463H11V4.6H9.00002ZM7.10002 8.0163C7.47674 8.2338 7.81882 8.43246 8.10766 8.56567C8.39177 8.69669 8.77353 8.83869 9.20908 8.79291L9.00002 6.80386C9.11243 6.79205 9.13572 6.83734 8.94524 6.7495C8.75951 6.66384 8.51089 6.52146 8.10002 6.28425L7.10002 8.0163ZM9.00002 5.76463C9.00002 6.23906 8.99902 6.52556 8.98033 6.72925C8.96117 6.93812 8.93359 6.8953 9.00002 6.80386L10.6181 7.97943C10.8755 7.62513 10.9434 7.22352 10.972 6.91196C11.001 6.59521 11 6.19964 11 5.76463H9.00002ZM9.20908 8.79291C9.77279 8.73366 10.2849 8.438 10.6181 7.97943L9.00002 6.80386L9.20908 8.79291ZM5.27178 7.65358C5.42004 7.39678 5.50184 7.25666 5.56839 7.16045C5.62827 7.07388 5.62591 7.09881 5.57178 7.13397L4.4825 5.45663C4.22702 5.62254 4.05399 5.8341 3.92352 6.02273C3.79971 6.20173 3.67149 6.42536 3.53973 6.65358L5.27178 7.65358ZM7.0914 5.70192C6.86318 5.57016 6.64032 5.44059 6.4436 5.34748C6.23629 5.24936 5.98066 5.15265 5.67645 5.13671L5.57178 7.13397C5.50732 7.13059 5.49282 7.11018 5.58796 7.15521C5.69369 7.20525 5.8346 7.28571 6.0914 7.43397L7.0914 5.70192ZM5.57178 7.13397L5.67645 5.13671C5.25467 5.11461 4.83672 5.22659 4.4825 5.45663L5.57178 7.13397ZM5.09139 9.16602C4.83459 9.01776 4.69447 8.93596 4.59827 8.86941C4.5117 8.80954 4.53663 8.81189 4.57178 8.86602L2.89444 9.9553C3.06035 10.2108 3.27191 10.3838 3.46054 10.5143C3.63954 10.6381 3.86317 10.7663 4.09139 10.8981L5.09139 9.16602ZM3.13973 7.3464C3.00797 7.57462 2.8784 7.79748 2.78529 7.9942C2.68717 8.20151 2.59046 8.45714 2.57452 8.76135L4.57178 8.86602C4.5684 8.93048 4.54799 8.94498 4.59302 8.84984C4.64306 8.74411 4.72352 8.6032 4.87178 8.3464L3.13973 7.3464ZM4.57178 8.86602L2.57452 8.76135C2.55242 9.18313 2.66441 9.60108 2.89444 9.9553L4.57178 8.86602ZM6.09998 14.2517C6.47671 14.0342 6.81979 13.8372 7.07957 13.6537C7.3351 13.4732 7.64895 13.2135 7.82707 12.8135L5.99998 12C6.04595 11.8967 6.09683 11.8992 5.92552 12.0202C5.75847 12.1383 5.51085 12.2824 5.09998 12.5196L6.09998 14.2517ZM5.09998 11.4804C5.51085 11.7176 5.75847 11.8617 5.92552 11.9797C6.09683 12.1008 6.04595 12.1032 5.99998 12L7.82707 11.1865C7.64895 10.7864 7.3351 10.5268 7.07957 10.3463C6.81979 10.1627 6.47671 9.96583 6.09998 9.74833L5.09998 11.4804ZM7.82707 12.8135C8.05762 12.2957 8.05762 11.7043 7.82707 11.1865L5.99998 12L7.82707 12.8135ZM4.87178 15.6536C4.72351 15.3968 4.64306 15.2559 4.59302 15.1502C4.54799 15.055 4.5684 15.0695 4.57178 15.134L2.57452 15.2386C2.59046 15.5428 2.68717 15.7985 2.78529 16.0058C2.8784 16.2025 3.00796 16.4254 3.13973 16.6536L4.87178 15.6536ZM4.09139 13.1019C3.86317 13.2337 3.63954 13.3619 3.46054 13.4857C3.27191 13.6162 3.06035 13.7892 2.89444 14.0447L4.57178 15.134C4.53662 15.1881 4.51169 15.1905 4.59826 15.1306C4.69447 15.064 4.83459 14.9822 5.09139 14.834L4.09139 13.1019ZM4.57178 15.134L2.89444 14.0447C2.6644 14.3989 2.55241 14.8169 2.57452 15.2386L4.57178 15.134ZM6.09139 16.566C5.83459 16.7143 5.69369 16.7947 5.58796 16.8448C5.49282 16.8898 5.50732 16.8694 5.57178 16.866L5.67645 18.8633C5.98066 18.8473 6.23629 18.7506 6.44359 18.6525C6.64031 18.5594 6.86317 18.4298 7.09139 18.2981L6.09139 16.566ZM3.53973 17.3464C3.67149 17.5746 3.79971 17.7983 3.92352 17.9773C4.05399 18.1659 4.22702 18.3774 4.4825 18.5434L5.57178 16.866C5.62591 16.9012 5.62826 16.9261 5.56838 16.8395C5.50184 16.7433 5.42004 16.6032 5.27178 16.3464L3.53973 17.3464ZM5.57178 16.866L4.4825 18.5434C4.83672 18.7734 5.25467 18.8854 5.67645 18.8633L5.57178 16.866ZM11 18.2354C11 17.8004 11.001 17.4048 10.972 17.088C10.9434 16.7765 10.8755 16.3749 10.6181 16.0206L9.00002 17.1961C8.93359 17.1047 8.96117 17.0619 8.98033 17.2707C8.99902 17.4744 9.00002 17.7609 9.00002 18.2354H11ZM8.10002 17.7157C8.51089 17.4785 8.75951 17.3361 8.94525 17.2505C9.13572 17.1626 9.11243 17.2079 9.00002 17.1961L9.20908 15.2071C8.77353 15.1613 8.39177 15.3033 8.10767 15.4343C7.81882 15.5675 7.47675 15.7662 7.10002 15.9837L8.10002 17.7157ZM10.6181 16.0206C10.2849 15.562 9.77279 15.2663 9.20908 15.2071L9.00002 17.1961L10.6181 16.0206ZM11.6 20C11.3035 20 11.1412 19.9992 11.0247 19.9897C10.9197 19.9811 10.9425 19.9707 11 20L10.092 21.782C10.3635 21.9203 10.6332 21.9644 10.8618 21.9831C11.0787 22.0008 11.3365 22 11.6 22V20ZM9.00002 19.4C9.00002 19.6635 8.99924 19.9213 9.01697 20.1382C9.03564 20.3668 9.07971 20.6366 9.21801 20.908L11 20C11.0293 20.0575 11.0189 20.0803 11.0103 19.9754C11.0008 19.8588 11 19.6965 11 19.4H9.00002ZM11 20L9.21801 20.908C9.40975 21.2843 9.71572 21.5903 10.092 21.782L11 20ZM13 19.4C13 19.6965 12.9992 19.8588 12.9897 19.9754C12.9811 20.0803 12.9707 20.0575 13 20L14.782 20.908C14.9203 20.6366 14.9644 20.3668 14.9831 20.1382C15.0008 19.9213 15 19.6635 15 19.4H13ZM12.4 22C12.6635 22 12.9213 22.0008 13.1383 21.9831C13.3668 21.9644 13.6366 21.9203 13.908 21.782L13 20C13.0575 19.9707 13.0803 19.9811 12.9754 19.9897C12.8588 19.9992 12.6965 20 12.4 20V22ZM13 20L13.908 21.782C14.2843 21.5903 14.5903 21.2843 14.782 20.908L13 20ZM16.9 15.9837C16.5233 15.7662 16.1812 15.5676 15.8924 15.4344C15.6083 15.3033 15.2265 15.1613 14.791 15.2071L15 17.1962C14.8876 17.208 14.8643 17.1627 15.0548 17.2505C15.2405 17.3362 15.4892 17.4786 15.9 17.7158L16.9 15.9837ZM15 18.2354C15 17.761 15.001 17.4745 15.0197 17.2708C15.0389 17.0619 15.0665 17.1047 15 17.1962L13.382 16.0206C13.1246 16.3749 13.0567 16.7765 13.0281 17.0881C12.999 17.4048 13 17.8004 13 18.2354H15ZM14.791 15.2071C14.2273 15.2664 13.7152 15.562 13.382 16.0206L15 17.1962L14.791 15.2071ZM18.7282 16.3464C18.5799 16.6032 18.4981 16.7433 18.4316 16.8395C18.3717 16.9261 18.3741 16.9012 18.4282 16.866L19.5175 18.5434C19.7729 18.3775 19.946 18.1659 20.0764 17.9773C20.2003 17.7983 20.3285 17.5746 20.4602 17.3464L18.7282 16.3464ZM16.9086 18.2981C17.1368 18.4298 17.3597 18.5594 17.5564 18.6525C17.7637 18.7506 18.0193 18.8473 18.3235 18.8633L18.4282 16.866C18.4926 16.8694 18.5071 16.8898 18.412 16.8448C18.3063 16.7947 18.1654 16.7143 17.9086 16.566L16.9086 18.2981ZM18.4282 16.866L18.3235 18.8633C18.7453 18.8854 19.1632 18.7734 19.5175 18.5434L18.4282 16.866ZM18.9086 14.834C19.1654 14.9822 19.3055 15.064 19.4017 15.1306C19.4883 15.1905 19.4633 15.1881 19.4282 15.134L21.1055 14.0447C20.9396 13.7892 20.7281 13.6162 20.5394 13.4857C20.3604 13.3619 20.1368 13.2337 19.9086 13.1019L18.9086 14.834ZM20.8602 16.6536C20.992 16.4254 21.1216 16.2025 21.2147 16.0058C21.3128 15.7985 21.4095 15.5429 21.4254 15.2386L19.4282 15.134C19.4316 15.0695 19.452 15.055 19.4069 15.1502C19.3569 15.2559 19.2765 15.3968 19.1282 15.6536L20.8602 16.6536ZM19.4282 15.134L21.4254 15.2386C21.4475 14.8169 21.3356 14.3989 21.1055 14.0447L19.4282 15.134ZM17.9 9.74833C17.5233 9.96583 17.1802 10.1627 16.9204 10.3463C16.6649 10.5268 16.351 10.7864 16.1729 11.1865L18 12C17.954 12.1032 17.9031 12.1008 18.0744 11.9797C18.2415 11.8617 18.4891 11.7176 18.9 11.4804L17.9 9.74833ZM18.9 12.5196C18.4891 12.2824 18.2415 12.1383 18.0744 12.0203C17.9031 11.8992 17.954 11.8967 18 12L16.1729 12.8135C16.351 13.2135 16.6649 13.4732 16.9204 13.6537C17.1802 13.8372 17.5233 14.0342 17.9 14.2517L18.9 12.5196ZM16.1729 11.1865C15.9423 11.7043 15.9423 12.2957 16.1729 12.8135L18 12L16.1729 11.1865ZM19.1282 8.34641C19.2764 8.60321 19.3569 8.74411 19.4069 8.84984C19.452 8.94498 19.4316 8.93048 19.4282 8.86602L21.4254 8.76135C21.4095 8.45714 21.3128 8.20151 21.2147 7.9942C21.1216 7.79748 20.992 7.57463 20.8602 7.34641L19.1282 8.34641ZM19.9086 10.8981C20.1368 10.7663 20.3604 10.6381 20.5394 10.5143C20.7281 10.3838 20.9396 10.2108 21.1055 9.9553L19.4282 8.86602C19.4633 8.81189 19.4883 8.80954 19.4017 8.86941C19.3055 8.93596 19.1654 9.01776 18.9086 9.16602L19.9086 10.8981ZM19.4282 8.86602L21.1055 9.9553C21.3356 9.60108 21.4475 9.18313 21.4254 8.76135L19.4282 8.86602ZM17.9086 7.43397C18.1654 7.28571 18.3063 7.20525 18.412 7.15521C18.5071 7.11018 18.4926 7.13059 18.4282 7.13397L18.3235 5.13671C18.0193 5.15265 17.7637 5.24936 17.5564 5.34748C17.3596 5.44059 17.1368 5.57016 16.9086 5.70192L17.9086 7.43397ZM20.4602 6.65358C20.3285 6.42537 20.2003 6.20173 20.0764 6.02273C19.946 5.8341 19.7729 5.62254 19.5175 5.45663L18.4282 7.13397C18.3741 7.09881 18.3717 7.07388 18.4316 7.16045C18.4981 7.25666 18.5799 7.39678 18.7282 7.65358L20.4602 6.65358ZM18.4282 7.13397L19.5175 5.45663C19.1632 5.2266 18.7453 5.11461 18.3235 5.13671L18.4282 7.13397ZM13 5.76459C13 6.19959 12.999 6.59517 13.0281 6.91192C13.0567 7.22347 13.1246 7.62509 13.382 7.97939L15 6.80382C15.0665 6.89526 15.0389 6.93808 15.0197 6.7292C15.001 6.52552 15 6.23902 15 5.76459H13ZM15.9 6.28421C15.4892 6.52142 15.2405 6.6638 15.0548 6.74946C14.8643 6.8373 14.8876 6.79201 15 6.80382L14.791 8.79286C15.2265 8.83864 15.6083 8.69665 15.8924 8.56562C16.1812 8.43242 16.5233 8.23376 16.9 8.01626L15.9 6.28421ZM13.382 7.97939C13.7152 8.43796 14.2273 8.73361 14.791 8.79286L15 6.80382L13.382 7.97939ZM11.6 2C11.3365 2 11.0787 1.99922 10.8618 2.01695C10.6332 2.03562 10.3635 2.07969 10.092 2.21799L11 4C10.9425 4.0293 10.9197 4.01887 11.0247 4.0103C11.1412 4.00078 11.3035 4 11.6 4V2ZM11 4.6C11 4.30347 11.0008 4.14122 11.0103 4.02463C11.0189 3.91972 11.0293 3.94249 11 4L9.21801 3.09202C9.07971 3.36344 9.03564 3.63318 9.01697 3.86177C8.99924 4.07869 9.00002 4.33647 9.00002 4.6H11ZM10.092 2.21799C9.71572 2.40973 9.40975 2.71569 9.21801 3.09202L11 4L10.092 2.21799ZM12.4 4C12.6965 4 12.8588 4.00078 12.9754 4.0103C13.0803 4.01887 13.0575 4.0293 13 4L13.908 2.21799C13.6366 2.07969 13.3668 2.03562 13.1383 2.01695C12.9213 1.99922 12.6635 2 12.4 2V4ZM15 4.6C15 4.33647 15.0008 4.07869 14.9831 3.86177C14.9644 3.63318 14.9203 3.36344 14.782 3.09202L13 4C12.9707 3.94249 12.9811 3.91972 12.9897 4.02463C12.9992 4.14122 13 4.30347 13 4.6H15ZM13 4L14.782 3.09202C14.5903 2.71569 14.2843 2.40973 13.908 2.21799L13 4Z"/>
</svg>
