<svg width="24" height="24" viewBox="0 0 24 24" fill="none" xmlns="http://www.w3.org/2000/svg">
<path d="M12 4V4C10.1401 4 9.21009 4 8.44709 4.20445C6.37653 4.75925 4.75925 6.37653 4.20445 8.44709C4 9.21009 4 10.1401 4 12V12C4 13.8599 4 14.7899 4.20445 15.5529C4.75925 17.6235 6.37653 19.2408 8.44709 19.7956C9.21009 20 10.1401 20 12 20V20C13.8599 20 14.7899 20 15.5529 19.7956C17.6235 19.2408 19.2408 17.6235 19.7956 15.5529C20 14.7899 20 13.8599 20 12V12" stroke="black" stroke-width="2" stroke-linecap="round" stroke-linejoin="round"/>
<path d="M10.4686 10.5314L17.5 3.5C17.5797 3.42035 17.6195 3.38052 17.6547 3.34847C18.4176 2.65508 19.5824 2.65508 20.3453 3.34847C20.3805 3.38052 20.4203 3.42035 20.5 3.5L20.5 3.50004C20.5797 3.57967 20.6195 3.61949 20.6515 3.65474C21.3449 4.41756 21.3449 5.58244 20.6515 6.34526C20.6195 6.38052 20.5797 6.42035 20.5 6.5L13.4686 13.5314C13.2957 13.7043 13.2092 13.7908 13.1083 13.8526C13.0188 13.9075 12.9213 13.9479 12.8192 13.9724C12.7041 14 12.5818 14 12.3373 14H11.6C11.0399 14 10.7599 14 10.546 13.891C10.3578 13.7951 10.2049 13.6422 10.109 13.454C10 13.2401 10 12.9601 10 12.4V11.6627C10 11.4182 10 11.2959 10.0276 11.1808C10.0521 11.0787 10.0925 10.9812 10.1474 10.8917C10.2092 10.7908 10.2957 10.7043 10.4686 10.5314L10.4686 10.5314Z" stroke="black" stroke-width="2" stroke-linecap="round" stroke-linejoin="round"/>
<path d="M16 5L19 8" stroke="black" stroke-width="2" stroke-linecap="round" stroke-linejoin="round"/>
</svg>
