<svg width="24" height="24" viewBox="0 0 24 24" fill="none" xmlns="http://www.w3.org/2000/svg">
<path d="M13 6L18 11" stroke="#808080" stroke-width="2" stroke-linejoin="round"/>
<path d="M9.40589 19.5941L18.5 10.5C18.8518 10.1482 19.0276 9.97237 19.1543 9.80406C19.9584 8.73574 19.9584 7.26426 19.1543 6.19594C19.0276 6.02763 18.8518 5.85176 18.5 5.50001L18.5 5.5C18.1482 5.14825 17.9724 4.97237 17.8041 4.84569C16.7357 4.04162 15.2643 4.04162 14.1959 4.84569C14.0276 4.97237 13.8518 5.14825 13.5 5.5L4.40589 14.5941C3.88703 15.113 3.6276 15.3724 3.44208 15.6751C3.27759 15.9436 3.15638 16.2362 3.08289 16.5423C3 16.8876 3 17.2545 3 17.9882V19.4C3 19.9601 3 20.2401 3.10899 20.454C3.20487 20.6422 3.35785 20.7951 3.54601 20.891C3.75992 21 4.03995 21 4.6 21H6.01177C6.74555 21 7.11243 21 7.4577 20.9171C7.7638 20.8436 8.05644 20.7224 8.32485 20.5579C8.6276 20.3724 8.88703 20.113 9.40589 19.5941Z" stroke="black" stroke-width="2" stroke-linejoin="round"/>
</svg>
