<svg width="24" height="24" viewBox="0 0 24 24" fill="none" xmlns="http://www.w3.org/2000/svg">
<path fill="black" d="M21 15L3 15"/>
<path fill="black" d="M21 9L3 9"/>
<path fill="black" d="M19 12H5"/>
<path fill="black" d="M12 6H14C14.929 6 15.3935 6 15.7822 6.06156C17.9216 6.40042 19.5996 8.07837 19.9384 10.2178C20 10.6065 20 11.071 20 12V12C20 12.929 20 13.3935 19.9384 13.7822C19.5996 15.9216 17.9216 17.5996 15.7822 17.9384C15.3935 18 14.929 18 14 18H10C9.07099 18 8.60649 18 8.21783 17.9384C6.07837 17.5996 4.40042 15.9216 4.06156 13.7822C4 13.3935 4 12.929 4 12V12C4 11.071 4 10.6065 4.06156 10.2178C4.40042 8.07837 6.07837 6.40042 8.21783 6.06156C8.60649 6 9.07099 6 10 6H12Z"/>
</svg>
