<svg width="24" height="24" viewBox="0 0 24 24" fill="none" xmlns="http://www.w3.org/2000/svg">
<path d="M17.5 10.78C16.27 10.41 15.28 9.61 14.7 8.6L13.7 7C13.29 6.35 12.59 6 11.86 6C11.08 6 10.27 6.5 10.08 7.44C9.92397 8.21216 7.94601 18.2152 7.24464 21.7628C7.19361 22.0209 7.1681 22.1499 7.17569 22.2567C7.19979 22.5957 7.43541 22.8825 7.76326 22.9718C7.86659 23 8.0001 23 8.26713 23C8.45016 23 8.54168 23 8.62163 22.9835C8.8725 22.9318 9.08343 22.763 9.18898 22.5296C9.22261 22.4553 9.2427 22.366 9.28288 22.1874L10.9 15L11.5104 15.5813C12.0596 16.1043 12.3342 16.3659 12.5308 16.6748C12.7052 16.9486 12.8339 17.249 12.912 17.5641C13 17.9195 13 18.2987 13 19.0571V22C13 22.1859 13 22.2788 13.0154 22.3561C13.0785 22.6734 13.3266 22.9215 13.644 22.9846C13.7213 23 13.8142 23 14 23C14.1859 23 14.2788 23 14.3561 22.9846C14.6735 22.9215 14.9215 22.6734 14.9847 22.3561C15 22.2788 15 22.1859 15 22V18.4C15 18.0775 15 17.9162 14.992 17.7612C14.9182 16.3356 14.3385 14.983 13.3571 13.9464C13.2504 13.8337 13.1336 13.7224 12.9 13.5L13.5 10.5C14.5 11.65 15.91 12.51 17.5 12.84V22.25C17.5 22.6642 17.8358 23 18.25 23C18.6643 23 19 22.6642 19 22.25V9.75C19 9.33579 18.6643 9 18.25 9C17.8358 9 17.5 9.33579 17.5 9.75V10.78ZM7.43004 13.13L5.31004 12.72C4.77004 12.61 4.41004 12.09 4.52004 11.55L5.28004 7.62C5.49004 6.54 6.54004 5.83 7.62004 6.04L8.78004 6.27L7.43004 13.13Z" fill="black"/>
<rect x="11" y="1" width="4" height="4" rx="1.67" fill="black"/>
</svg>
