<svg width="24" height="24" viewBox="0 0 24 24" fill="none" xmlns="http://www.w3.org/2000/svg">
<path fill="black" d="M12 5V5C12 5.30657 12 5.45985 12.0201 5.58814C12.1323 6.30522 12.6948 6.86774 13.4119 6.97993C13.5401 7 13.6934 7 14 7V7"/>
<path fill="black" d="M18 9V6C18 5.5355 18 5.30325 17.9692 5.10891C17.7998 4.03918 16.9608 3.20021 15.8911 3.03078C15.6968 3 15.4645 3 15 3C14.5355 3 14.3032 3 14.1089 3.03078C13.0392 3.20021 12.2002 4.03918 12.0308 5.10891C12 5.30325 12 5.5355 12 6V18C12 18.4645 12 18.6968 12.0308 18.8911C12.2002 19.9608 13.0392 20.7998 14.1089 20.9692C14.3032 21 14.5355 21 15 21C15.4645 21 15.6968 21 15.8911 20.9692C16.9608 20.7998 17.7998 19.9608 17.9692 18.8911C18 18.6968 18 18.4645 18 18V15C18.4645 15 18.6968 15 18.8911 14.9692C19.9608 14.7998 20.7998 13.9608 20.9692 12.8911C21 12.6968 21 12.4645 21 12C21 11.5355 21 11.3032 20.9692 11.1089C20.7998 10.0392 19.9608 9.20021 18.8911 9.03078C18.6968 9 18.4645 9 18 9Z"/>
<path fill="black" d="M6 9V6C6 5.5355 6 5.30325 6.03078 5.10891C6.20021 4.03918 7.03918 3.20021 8.10891 3.03078C8.30325 3 8.5355 3 9 3C9.4645 3 9.69675 3 9.89109 3.03078C10.9608 3.20021 11.7998 4.03918 11.9692 5.10891C12 5.30325 12 5.5355 12 6V18C12 18.4645 12 18.6968 11.9692 18.8911C11.7998 19.9608 10.9608 20.7998 9.89109 20.9692C9.69675 21 9.4645 21 9 21C8.5355 21 8.30325 21 8.10891 20.9692C7.03918 20.7998 6.20021 19.9608 6.03078 18.8911C6 18.6968 6 18.4645 6 18V15C5.5355 15 5.30325 15 5.10891 14.9692C4.03918 14.7998 3.20021 13.9608 3.03078 12.8911C3 12.6968 3 12.4645 3 12C3 11.5355 3 11.3032 3.03078 11.1089C3.20021 10.0392 4.03918 9.20021 5.10891 9.03078C5.30325 9 5.5355 9 6 9Z"/>
<path fill="black" d="M12 5V5C12 5.30657 12 5.45985 11.9799 5.58814C11.8677 6.30522 11.3052 6.86774 10.5881 6.97993C10.4599 7 10.3066 7 10 7V7"/>
<path fill="black" d="M6 15H7C7.30657 15 7.45985 15 7.58814 15.0201C8.30522 15.1323 8.86774 15.6948 8.97993 16.4119C9 16.5401 9 16.6934 9 17V17"/>
<path fill="black" d="M6 9V9C6 9.30657 6 9.45985 6.02007 9.58814C6.13226 10.3052 6.69478 10.8677 7.41186 10.9799C7.54015 11 7.69343 11 8 11V11"/>
<path fill="black" d="M18 15H17C16.6934 15 16.5401 15 16.4119 15.0201C15.6948 15.1323 15.1323 15.6948 15.0201 16.4119C15 16.5401 15 16.6934 15 17V17"/>
<path fill="black" d="M18 8V9C18 9.30657 18 9.45985 17.9799 9.58814C17.8677 10.3052 17.3052 10.8677 16.5881 10.9799C16.4599 11 16.3066 11 16 11V11"/>
</svg>
