<svg width="24" height="24" viewBox="0 0 24 24" fill="none" xmlns="http://www.w3.org/2000/svg">
<path d="M10 19V19C10 19.3066 10 19.4599 10.0201 19.5881C10.1323 20.3052 10.6948 20.8677 11.4119 20.9799C11.5401 21 11.6934 21 12 21V21C12.3066 21 12.4599 21 12.5881 20.9799C13.3052 20.8677 13.8677 20.3052 13.9799 19.5881C14 19.4599 14 19.3066 14 19V19" stroke="#808080" stroke-width="2" stroke-linecap="round" stroke-linejoin="round"/>
<path d="M17 18V11C17 10.0707 17 9.60603 16.9231 9.21964C16.6075 7.63288 15.3671 6.39249 13.7804 6.07686C13.394 6 12.9293 6 12 6V6C11.0707 6 10.606 6 10.2196 6.07686C8.63288 6.39249 7.39249 7.63288 7.07686 9.21964C7 9.60603 7 10.0707 7 11V18" stroke="black" stroke-width="2" stroke-linejoin="round"/>
<path d="M5 18H19" stroke="black" stroke-width="2" stroke-linecap="round" stroke-linejoin="round"/>
<path d="M12 6V4" stroke="black" stroke-width="2" stroke-linecap="round" stroke-linejoin="round"/>
</svg>
