<svg width="24" height="24" viewBox="0 0 24 24" fill="none" xmlns="http://www.w3.org/2000/svg">
<path d="M8 10V10C8 13.3137 10.6863 16 14 16V16" stroke="black" stroke-width="2" stroke-linecap="round" stroke-linejoin="round"/>
<path d="M8 10V10C9.14759 10 10.1205 9.15616 10.2828 8.0201L10.4293 6.99498C10.7305 4.88646 9.09439 3 6.96446 3H6C4.34315 3 3 4.34315 3 6V6V6C3 6.92853 3 7.3928 3.02202 7.78499C3.42155 14.8992 9.10078 20.5784 16.215 20.978C16.6072 21 17.0715 21 18 21V21V21C19.6569 21 21 19.6569 21 18V17.0355C21 14.9056 19.1135 13.2695 17.005 13.5707L15.9799 13.7172C14.8438 13.8795 14 14.8524 14 16V16" stroke="black" stroke-width="2" stroke-linecap="round" stroke-linejoin="round"/>
</svg>
