<svg width="24" height="24" viewBox="0 0 24 24" fill="none" xmlns="http://www.w3.org/2000/svg">
<path d="M6.5 11.5L7.40026 11.8858C7.50638 11.9313 7.55943 11.954 7.60857 11.9736C9.05706 12.5495 10.7082 12.2316 11.8392 11.1588C11.8775 11.1225 11.9184 11.0816 12 11V11C12.0816 10.9184 12.1225 10.8775 12.1608 10.8412C13.2918 9.76845 14.9429 9.45047 16.3914 10.0264C16.4406 10.046 16.4936 10.0687 16.5997 10.1142L17.5 10.5" stroke="black" stroke-width="2" stroke-linecap="round" stroke-linejoin="round"/>
<path d="M16.2969 4H7.70312C7.11067 4 6.81445 4 6.59386 4.11765C6.39999 4.22105 6.24557 4.38542 6.15447 4.58536C6.0508 4.81286 6.06928 5.10851 6.10624 5.69981L6.68811 15.0097C6.76061 16.1697 6.79686 16.7498 6.95058 17.2268C7.37251 18.5362 8.43771 19.5369 9.77087 19.8763C10.2566 20 10.8377 20 12 20C13.1623 20 13.7434 20 14.2291 19.8763C15.5623 19.5369 16.6275 18.5362 17.0494 17.2268C17.2031 16.7498 17.2394 16.1698 17.3119 15.0098V15.0097L17.8938 5.69981C17.9307 5.10851 17.9492 4.81286 17.8455 4.58536C17.7544 4.38542 17.6 4.22105 17.4061 4.11765C17.1856 4 16.8893 4 16.2969 4Z" stroke="black" stroke-width="2" stroke-linecap="round" stroke-linejoin="round"/>
</svg>
