<svg width="24" height="24" viewBox="0 0 24 24" fill="none" xmlns="http://www.w3.org/2000/svg">
<path d="M10 19V19C10 19.3066 10 19.4599 10.0201 19.5881C10.1323 20.3052 10.6948 20.8677 11.4119 20.9799C11.5401 21 11.6934 21 12 21V21C12.3066 21 12.4599 21 12.5881 20.9799C13.3052 20.8677 13.8677 20.3052 13.9799 19.5881C14 19.4599 14 19.3066 14 19V19" stroke="black" stroke-width="2" stroke-linecap="round" stroke-linejoin="round"/>
<path d="M15.5207 18H8.47934C7.36099 18 6.80181 18 6.46487 17.8748C5.45607 17.5001 4.92462 16.3944 5.26221 15.3726C5.37497 15.0313 5.72429 14.5946 6.42292 13.7214L6.42292 13.7213C6.56001 13.55 6.62856 13.4643 6.68609 13.3741C6.85213 13.1139 6.95566 12.8187 6.98859 12.5118C7 12.4054 7 12.2957 7 12.0762V11C7 10.0707 7 9.60603 7.07686 9.21964C7.39249 7.63288 8.63288 6.39249 10.2196 6.07686C10.606 6 11.0707 6 12 6C12.9293 6 13.394 6 13.7804 6.07686C15.3671 6.39249 16.6075 7.63288 16.9231 9.21964C17 9.60603 17 10.0707 17 11V12.0762C17 12.2957 17 12.4054 17.0114 12.5118C17.0443 12.8187 17.1479 13.1139 17.3139 13.3741C17.3714 13.4643 17.44 13.55 17.5771 13.7213L17.5771 13.7214C18.2757 14.5946 18.625 15.0313 18.7378 15.3726C19.0754 16.3944 18.5439 17.5001 17.5351 17.8748C17.1982 18 16.639 18 15.5207 18Z" stroke="black" stroke-width="2" stroke-linejoin="round"/>
<path d="M12 6V4" stroke="black" stroke-width="2" stroke-linecap="round" stroke-linejoin="round"/>
</svg>
