<svg width="24" height="24" viewBox="0 0 24 24" fill="none" xmlns="http://www.w3.org/2000/svg">
<path d="M12 6V12" stroke="black" stroke-width="2" stroke-linecap="round" stroke-linejoin="round"/>
<path d="M15 9L9 9" stroke="black" stroke-width="2" stroke-linecap="round" stroke-linejoin="round"/>
<path d="M4 12V12C4 14.2091 5.79086 16 8 16H16C18.2091 16 20 14.2091 20 12V12" stroke="black" stroke-width="2" stroke-linecap="round" stroke-linejoin="round"/>
<path d="M12 17V17C12 17.93 12 18.395 12.1022 18.7765C12.3796 19.8117 13.1883 20.6204 14.2235 20.8978C14.605 21 15.07 21 16 21L18 21" stroke="black" stroke-width="2" stroke-linecap="round" stroke-linejoin="round"/>
<path d="M12 17V17C12 17.93 12 18.395 11.8978 18.7765C11.6204 19.8117 10.8117 20.6204 9.77646 20.8978C9.39496 21 8.92997 21 8 21L6 21" stroke="black" stroke-width="2" stroke-linecap="round" stroke-linejoin="round"/>
</svg>
