<svg width="24" height="24" viewBox="0 0 24 24" fill="none" xmlns="http://www.w3.org/2000/svg">
<path fill="black" d="M7 12H12"/>
<path fill="black" d="M16.5152 9.08185L9.70492 6.01722C8.11594 5.30217 7.32144 4.94465 6.82517 4.97674C5.82578 5.04136 5.02826 5.8352 4.95901 6.83428C4.92462 7.3304 5.27846 8.12654 5.98614 9.71882C6.27246 10.363 6.41561 10.6851 6.49919 11.0135C6.66391 11.6609 6.66391 12.3391 6.49919 12.9865C6.41561 13.3149 6.27246 13.637 5.98614 14.2812C5.27846 15.8735 4.92462 16.6696 4.95901 17.1657C5.02826 18.1648 5.82578 18.9586 6.82517 19.0233C7.32144 19.0553 8.11594 18.6978 9.70493 17.9828L16.5152 14.9181C18.5725 13.9924 19.6012 13.5295 19.9191 12.8864C20.1953 12.3278 20.1953 11.6722 19.9191 11.1136C19.6012 10.4705 18.5725 10.0076 16.5152 9.08185Z"/>
</svg>
