<svg width="24" height="24" viewBox="0 0 24 24" fill="none" xmlns="http://www.w3.org/2000/svg">
<rect fill="black" x="6" y="6" width="12" height="12" rx="4"/>
<path fill="black" d="M12 6V2"/>
<path fill="black" d="M12 18V22"/>
<path fill="black" d="M6 12L2 12"/>
<path fill="black" d="M18 12L22 12"/>
<path fill="black" d="M6.75738 6.75736L4.92896 4.92893"/>
<path fill="black" d="M17.2426 17.2426L19.071 19.0711"/>
<path fill="black" d="M6.75738 17.2426L4.92896 19.071"/>
<path fill="black" d="M17.2426 6.75738L19.071 4.92896"/>
<path fill="black" d="M13.9799 12.5881C14 12.4599 14 12.3066 14 12C14 11.6934 14 11.5401 13.9799 11.4119C13.8677 10.6948 13.3052 10.1323 12.5881 10.0201C12.4599 10 12.3066 10 12 10C11.6934 10 11.5401 10 11.4119 10.0201C10.6948 10.1323 10.1323 10.6948 10.0201 11.4119C10 11.5401 10 11.6934 10 12C10 12.3066 10 12.4599 10.0201 12.5881C10.1323 13.3052 10.6948 13.8677 11.4119 13.9799C11.5401 14 11.6934 14 12 14C12.3066 14 12.4599 14 12.5881 13.9799C13.3052 13.8677 13.8677 13.3052 13.9799 12.5881Z"/>
</svg>
