<svg width="24" height="24" viewBox="0 0 24 24" fill="none" xmlns="http://www.w3.org/2000/svg">
<path fill="black" d="M8 7H16"/>
<path fill="black" d="M20 20V19.4C20 17.1598 20 16.0397 19.564 15.184C19.1805 14.4314 18.5686 13.8195 17.816 13.436C16.9603 13 15.8402 13 13.6 13H10.4C8.15979 13 7.03968 13 6.18404 13.436C5.43139 13.8195 4.81947 14.4314 4.43597 15.184C4 16.0397 4 17.1598 4 19.4V20"/>
<rect fill="black" x="8" y="4" width="8" height="8" rx="2.5"/>
<path fill="black" d="M8 13V13C8 13.93 8 14.395 8.10222 14.7765C8.37962 15.8117 9.18827 16.6204 10.2235 16.8978C10.605 17 11.07 17 12 17V17C12.93 17 13.395 17 13.7765 16.8978C14.8117 16.6204 15.6204 15.8117 15.8978 14.7765C16 14.395 16 13.93 16 13V13"/>
<path fill="black" d="M12 17V20"/>
</svg>
