<svg width="24" height="24" viewBox="0 0 24 24" fill="none" xmlns="http://www.w3.org/2000/svg">
<path fill="black" d="M13 10V9.5C13 9.03558 13 8.80337 13.0257 8.60842C13.2029 7.26222 14.2622 6.2029 15.6084 6.02567C15.8034 6 16.0356 6 16.5 6C16.9644 6 17.1966 6 17.3916 6.02567C18.7378 6.2029 19.7971 7.26222 19.9743 8.60842C20 8.80337 20 9.03558 20 9.5V16.5C20 17.3284 19.3284 18 18.5 18C17.6716 18 17 17.3284 17 16.5V14C17 13.4477 16.5523 13 16 13C14.3431 13 13 11.6569 13 10Z"/>
<path fill="black" d="M3 10V9.5C3 9.03558 3 8.80337 3.02567 8.60842C3.2029 7.26222 4.26222 6.2029 5.60842 6.02567C5.80337 6 6.03558 6 6.5 6C6.96442 6 7.19663 6 7.39158 6.02567C8.73778 6.2029 9.7971 7.26222 9.97433 8.60842C10 8.80337 10 9.03558 10 9.5V16.5C10 17.3284 9.32843 18 8.5 18C7.67157 18 7 17.3284 7 16.5V14C7 13.4477 6.55228 13 6 13C4.34315 13 3 11.6569 3 10Z"/>
</svg>
