<svg width="24" height="24" viewBox="0 0 24 24" fill="none" xmlns="http://www.w3.org/2000/svg">
<path d="M4 4V9C4 9.93188 4 10.3978 4.15224 10.7654C4.35523 11.2554 4.74458 11.6448 5.23463 11.8478C5.60218 12 6.06812 12 7 12V12C7.93188 12 8.39782 12 8.76537 11.8478C9.25542 11.6448 9.64477 11.2554 9.84776 10.7654C10 10.3978 10 9.93188 10 9V4" stroke="black" stroke-width="2" stroke-linecap="round" stroke-linejoin="round"/>
<path d="M4 20V15C4 14.0681 4 13.6022 4.15224 13.2346C4.35523 12.7446 4.74458 12.3552 5.23463 12.1522C5.60218 12 6.06812 12 7 12V12C7.93188 12 8.39782 12 8.76537 12.1522C9.25542 12.3552 9.64477 12.7446 9.84776 13.2346C10 13.6022 10 14.0681 10 15V20" stroke="black" stroke-width="2" stroke-linecap="round" stroke-linejoin="round"/>
<path d="M14 4V9C14 9.93188 14 10.3978 14.1522 10.7654C14.3552 11.2554 14.7446 11.6448 15.2346 11.8478C15.6022 12 16.0681 12 17 12V12C17.9319 12 18.3978 12 18.7654 11.8478C19.2554 11.6448 19.6448 11.2554 19.8478 10.7654C20 10.3978 20 9.93188 20 9V4" stroke="#808080" stroke-width="2" stroke-linecap="round" stroke-linejoin="round"/>
<path d="M17 12L17 20" stroke="#808080" stroke-width="2" stroke-linecap="round" stroke-linejoin="round"/>
</svg>
