<svg width="24" height="24" viewBox="0 0 24 24" fill="none" xmlns="http://www.w3.org/2000/svg">
<path fill="black" d="M6 20V9.8C6 8.11984 6 7.27976 6.32698 6.63803C6.6146 6.07354 7.07354 5.6146 7.63803 5.32698C8.27976 5 9.11984 5 10.8 5H11.882C12.5672 5 13.1936 5.38713 13.5 6V6C13.8064 6.61287 14.4328 7 15.118 7H15.459C15.9615 7 16.2128 7 16.4235 7.03004C17.744 7.21834 18.7817 8.25595 18.97 9.5765C19 9.78719 19 10.0385 19 10.541V11.459C19 11.9615 19 12.2128 18.97 12.4235C18.7817 13.744 17.744 14.7817 16.4235 14.97C16.2128 15 15.9615 15 15.459 15H15.118C14.4328 15 13.8064 14.6129 13.5 14V14C13.1936 13.3871 12.5672 13 11.882 13H6"/>
</svg>
