<svg width="24" height="24" viewBox="0 0 24 24" fill="none" xmlns="http://www.w3.org/2000/svg">
<path fill="black" d="M14.2627 10.2627L15.2686 11.2686C16.1254 12.1254 16.5538 12.5538 16.5827 12.9215C16.6078 13.2407 16.4786 13.5525 16.2352 13.7604C15.9547 14 15.3489 14 14.1373 14H9.86274C8.65111 14 8.04529 14 7.76477 13.7604C7.52136 13.5525 7.39218 13.2407 7.4173 12.9215C7.44624 12.5538 7.87462 12.1254 8.73137 11.2686L9.73726 10.2627C10.5293 9.47071 10.9253 9.07469 11.382 8.92631C11.7837 8.7958 12.2163 8.7958 12.618 8.92631C13.0747 9.07469 13.4707 9.47071 14.2627 10.2627Z"/>
</svg>
