<svg width="24" height="24" viewBox="0 0 24 24" fill="none" xmlns="http://www.w3.org/2000/svg">
<path fill="black" d="M4 16L7.5 12.5C8.04525 11.9548 8.31787 11.6821 8.61197 11.5364C9.17152 11.2591 9.82848 11.2591 10.388 11.5364C10.6821 11.6821 10.9548 11.9548 11.5 12.5V12.5C12.0452 13.0452 12.3179 13.3179 12.612 13.4636C13.1715 13.7409 13.8285 13.7409 14.388 13.4636C14.6821 13.3179 14.9548 13.0452 15.5 12.5L20 8"/>
<path fill="black" d="M15 7H16.2C17.8802 7 18.7202 7 19.362 7.32698C19.9265 7.6146 20.3854 8.07354 20.673 8.63803C21 9.27976 21 10.1198 21 11.8V13"/>
</svg>
