<svg width="24" height="24" viewBox="0 0 24 24" fill="none" xmlns="http://www.w3.org/2000/svg">
<path d="M16 12V13.5C16 14.8807 17.1193 16 18.5 16V16C19.8807 16 21 14.8807 21 13.5V9.5C21 9.03572 21 8.80358 20.9872 8.60758C20.7902 5.60304 18.397 3.20977 15.3924 3.01285C15.1964 3 14.9643 3 14.5 3H12C9.20435 3 7.80653 3 6.7039 3.45672C5.23373 4.06569 4.06569 5.23373 3.45672 6.7039C3 7.80653 3 9.20435 3 12V12C3 14.7956 3 16.1935 3.45672 17.2961C4.06569 18.7663 5.23373 19.9343 6.7039 20.5433C7.80653 21 9.20435 21 12 21H15" stroke="black" stroke-width="2" stroke-linecap="round"/>
<rect x="8" y="8" width="8" height="8" rx="3" stroke="black" stroke-width="2" stroke-linecap="round"/>
</svg>
