<svg width="24" height="24" viewBox="0 0 24 24" fill="none" xmlns="http://www.w3.org/2000/svg">
<path d="M9.5 20V20C9.03572 20 8.80358 20 8.60758 19.9872C5.60304 19.7902 3.20977 17.397 3.01285 14.3924C3 14.1964 3 13.9643 3 13.5V12V12C3 9.20435 3 7.80653 3.45672 6.7039C4.06569 5.23373 5.23373 4.06569 6.7039 3.45672C7.80653 3 9.20435 3 12 3V3C14.7956 3 16.1935 3 17.2961 3.45672C18.7663 4.06569 19.9343 5.23373 20.5433 6.7039C21 7.80653 21 9.20435 21 12V12V13.5C21 13.9643 21 14.1964 20.9872 14.3924C20.7902 17.397 18.397 19.7902 15.3924 19.9872C15.1964 20 14.9643 20 14.5 20V20" stroke="black" stroke-width="2" stroke-linecap="round" stroke-linejoin="round"/>
<path d="M16 8L14 10" stroke="black" stroke-width="2" stroke-linecap="round" stroke-linejoin="round"/>
<path d="M13.9799 12.5881C14 12.4599 14 12.3066 14 12C14 11.6934 14 11.5401 13.9799 11.4119C13.8677 10.6948 13.3052 10.1323 12.5881 10.0201C12.4599 10 12.3066 10 12 10C11.6934 10 11.5401 10 11.4119 10.0201C10.6948 10.1323 10.1323 10.6948 10.0201 11.4119C10 11.5401 10 11.6934 10 12C10 12.3066 10 12.4599 10.0201 12.5881C10.1323 13.3052 10.6948 13.8677 11.4119 13.9799C11.5401 14 11.6934 14 12 14C12.3066 14 12.4599 14 12.5881 13.9799C13.3052 13.8677 13.8677 13.3052 13.9799 12.5881Z" stroke="black" stroke-width="2" stroke-linecap="round" stroke-linejoin="round"/>
</svg>
