<svg width="24" height="24" viewBox="0 0 24 24" fill="none" xmlns="http://www.w3.org/2000/svg">
<path d="M13.9799 9.58814C14 9.45985 14 9.30657 14 9C14 8.69343 14 8.54015 13.9799 8.41186C13.8677 7.69478 13.3052 7.13226 12.5881 7.02007C12.4599 7 12.3066 7 12 7C11.6934 7 11.5401 7 11.4119 7.02007C10.6948 7.13226 10.1323 7.69478 10.0201 8.41186C10 8.54015 10 8.69343 10 9C10 9.30657 10 9.45985 10.0201 9.58814C10.1323 10.3052 10.6948 10.8677 11.4119 10.9799C11.5401 11 11.6934 11 12 11C12.3066 11 12.4599 11 12.5881 10.9799C13.3052 10.8677 13.8677 10.3052 13.9799 9.58814Z" stroke="black" stroke-width="2" stroke-linecap="round" stroke-linejoin="round"/>
<path d="M6 9.27674C6 9.78628 6 10.041 6.0242 10.2861C6.11887 11.2448 6.48849 12.1558 7.08861 12.9094C7.24201 13.1021 7.41953 13.2848 7.77457 13.6503L9.70471 15.6372C10.5058 16.4619 10.9064 16.8743 11.3709 17.0282C11.7794 17.1635 12.2206 17.1635 12.629 17.0282C13.0936 16.8743 13.4941 16.4619 14.2953 15.6372L16.2254 13.6503C16.5805 13.2848 16.758 13.1021 16.9114 12.9094C17.5115 12.1558 17.8811 11.2448 17.9758 10.2861C18 10.041 18 9.78628 18 9.27674V9C18 8.07099 18 7.60649 17.9384 7.21783C17.5996 5.07837 15.9216 3.40042 13.7822 3.06156C13.3935 3 12.929 3 12 3V3C11.071 3 10.6065 3 10.2178 3.06156C8.07837 3.40042 6.40042 5.07837 6.06156 7.21783C6 7.60649 6 8.07099 6 9V9.27674Z" stroke="black" stroke-width="2" stroke-linejoin="round"/>
<path d="M7 20H17" stroke="black" stroke-width="2" stroke-linecap="round" stroke-linejoin="round"/>
</svg>
