<svg width="24" height="24" viewBox="0 0 24 24" fill="none" xmlns="http://www.w3.org/2000/svg">
<path d="M6 9H7.4C7.96005 9 8.24008 9 8.45399 8.89101C8.64215 8.79513 8.79513 8.64215 8.89101 8.45399C9 8.24008 9 7.96005 9 7.4V6C9 5.5355 9 5.30325 9.03078 5.10891C9.20021 4.03918 10.0392 3.20021 11.1089 3.03078C11.3032 3 11.5355 3 12 3C12.4645 3 12.6968 3 12.8911 3.03078C13.9608 3.20021 14.7998 4.03918 14.9692 5.10891C15 5.30325 15 5.5355 15 6V7.4C15 7.96005 15 8.24008 15.109 8.45399C15.2049 8.64215 15.3578 8.79513 15.546 8.89101C15.7599 9 16.0399 9 16.6 9H18C18.4645 9 18.6968 9 18.8911 9.03078C19.9608 9.20021 20.7998 10.0392 20.9692 11.1089C21 11.3032 21 11.5355 21 12C21 12.4645 21 12.6968 20.9692 12.8911C20.7998 13.9608 19.9608 14.7998 18.8911 14.9692C18.6968 15 18.4645 15 18 15H16.6C16.0399 15 15.7599 15 15.546 15.109C15.3578 15.2049 15.2049 15.3578 15.109 15.546C15 15.7599 15 16.0399 15 16.6V18C15 18.4645 15 18.6968 14.9692 18.8911C14.7998 19.9608 13.9608 20.7998 12.8911 20.9692C12.6968 21 12.4645 21 12 21C11.5355 21 11.3032 21 11.1089 20.9692C10.0392 20.7998 9.20021 19.9608 9.03078 18.8911C9 18.6968 9 18.4645 9 18V16.6C9 16.0399 9 15.7599 8.89101 15.546C8.79513 15.3578 8.64215 15.2049 8.45399 15.109C8.24008 15 7.96005 15 7.4 15H6C5.5355 15 5.30325 15 5.10891 14.9692C4.03918 14.7998 3.20021 13.9608 3.03078 12.8911C3 12.6968 3 12.4645 3 12C3 11.5355 3 11.3032 3.03078 11.1089C3.20021 10.0392 4.03918 9.20021 5.10891 9.03078C5.30325 9 5.5355 9 6 9Z" stroke="black" stroke-width="2" stroke-linecap="round" stroke-linejoin="round"/>
<path d="M12 21V21C12.4645 21 12.6968 21 12.8911 20.9692C13.9608 20.7998 14.7998 19.9608 14.9692 18.8911C15 18.6968 15 18.4645 15 18V16.6C15 16.0399 15 15.7599 15.109 15.546C15.2049 15.3578 15.3578 15.2049 15.546 15.109C15.7599 15 16.0399 15 16.6 15H18C18.4645 15 18.6968 15 18.8911 14.9692C19.9608 14.7998 20.7998 13.9608 20.9692 12.8911C21 12.6968 21 12.4645 21 12V12C21 11.5355 21 11.3032 20.9692 11.1089C20.7998 10.0392 19.9608 9.20021 18.8911 9.03078C18.6968 9 18.4645 9 18 9H16.6C16.0399 9 15.7599 9 15.546 8.89101C15.3578 8.79513 15.2049 8.64215 15.109 8.45399C15 8.24008 15 7.96005 15 7.4V6C15 5.5355 15 5.30325 14.9692 5.10891C14.7998 4.03918 13.9608 3.20021 12.8911 3.03078C12.6968 3 12.4645 3 12 3V3" stroke="black" stroke-width="2" stroke-linecap="round" stroke-linejoin="round"/>
</svg>
