<svg width="24" height="24" viewBox="0 0 24 24" fill="none" xmlns="http://www.w3.org/2000/svg">
<path d="M14.3922 9.96116L15.4882 15.4412C15.5777 15.8884 15.6224 16.1121 15.6417 16.3266C15.7347 17.3586 15.4235 18.3865 14.7737 19.1936C14.6386 19.3614 14.4773 19.5227 14.1548 19.8452L14.1548 19.8452C13.7952 20.2048 13.6154 20.3846 13.4392 20.5087C12.576 21.1164 11.424 21.1164 10.5608 20.5087C10.3846 20.3846 10.2048 20.2048 9.84518 19.8452L9.84517 19.8452L9.84517 19.8452C9.52267 19.5227 9.36142 19.3614 9.22635 19.1936C8.57655 18.3865 8.26534 17.3586 8.35827 16.3266C8.37759 16.1121 8.42231 15.8884 8.51176 15.4412L8.51176 15.4412L9.60777 9.96116C9.7251 9.37451 9.78376 9.08119 9.91474 8.84913C10.1197 8.486 10.4531 8.21269 10.8494 8.08293C11.1026 8 11.4017 8 12 8C12.5983 8 12.8974 8 13.1506 8.08293C13.5469 8.21269 13.8803 8.486 14.0853 8.84913C14.2162 9.08119 14.2749 9.37451 14.3922 9.96116Z" stroke="black" stroke-width="2" stroke-linecap="round" stroke-linejoin="round"/>
<path d="M15 3V3C15 4.10457 14.1046 5 13 5L11 5C9.89543 5 9 4.10457 9 3V3" stroke="black" stroke-width="2" stroke-linecap="round" stroke-linejoin="round"/>
</svg>
