<svg width="24" height="24" viewBox="0 0 24 24" fill="none" xmlns="http://www.w3.org/2000/svg">
<path fill="black" d="M13 16V20"/>
<path fill="black" d="M14 7V7C14.93 7 15.395 7 15.7765 7.10222C16.8117 7.37962 17.6204 8.18827 17.8978 9.22354C18 9.60504 18 10.07 18 11V11.5C18 12.8978 18 13.5967 17.7716 14.1481C17.4672 14.8831 16.8831 15.4672 16.1481 15.7716C15.5967 16 14.8978 16 13.5 16H7"/>
<path fill="black" d="M13.4824 5.41543C13.5617 5.11931 13.6014 4.97125 13.6152 4.84214C13.6924 4.12045 13.2947 3.43152 12.6311 3.13755C12.5123 3.08496 12.3643 3.04529 12.0681 2.96594V2.96594C11.772 2.8866 11.624 2.84693 11.4949 2.83311C10.7732 2.75588 10.0842 3.15364 9.79027 3.81725C9.73768 3.93597 9.698 4.08404 9.61866 4.38016L8.58338 8.24386C8.50404 8.53998 8.46436 8.68804 8.45055 8.81716C8.37332 9.53884 8.77108 10.2278 9.43469 10.5217C9.55341 10.5743 9.70147 10.614 9.9976 10.6933V10.6933C10.2937 10.7727 10.4418 10.8124 10.5709 10.8262C11.2926 10.9034 11.9815 10.5057 12.2755 9.84204C12.3281 9.72332 12.3677 9.57526 12.4471 9.27914L13.4824 5.41543Z"/>
<path fill="black" d="M12.0681 2.96593L12.3269 2"/>
<path fill="black" d="M9.73874 11.6593L9.99756 10.6934"/>
<path fill="black" d="M4 20H20"/>
</svg>
