<svg width="24" height="24" viewBox="0 0 24 24" fill="none" xmlns="http://www.w3.org/2000/svg">
<path d="M3.45672 17.2961C3 16.1935 3 14.7956 3 12C3 9.20435 3 7.80653 3.45672 6.7039C4.06569 5.23373 5.23373 4.06569 6.7039 3.45672C7.80653 3 9.20435 3 12 3C14.7956 3 16.1935 3 17.2961 3.45672C18.7663 4.06569 19.9343 5.23373 20.5433 6.7039C21 7.80653 21 9.20435 21 12C21 14.7956 21 16.1935 20.5433 17.2961C19.9343 18.7663 18.7663 19.9343 17.2961 20.5433C16.1935 21 14.7956 21 12 21C9.20435 21 7.80653 21 6.7039 20.5433C5.23373 19.9343 4.06569 18.7663 3.45672 17.2961Z" stroke="black" stroke-width="2" stroke-linecap="round" stroke-linejoin="round"/>
<path d="M6 15C6 14.5355 6 14.3032 6.03078 14.1089C6.20021 13.0392 7.03918 12.2002 8.10891 12.0308C8.30325 12 8.5355 12 9 12H15C15.4645 12 15.6968 12 15.8911 12.0308C16.9608 12.2002 17.7998 13.0392 17.9692 14.1089C18 14.3032 18 14.5355 18 15V15C18 15.4645 18 15.6968 17.9692 15.8911C17.7998 16.9608 16.9608 17.7998 15.8911 17.9692C15.6968 18 15.4645 18 15 18H9C8.5355 18 8.30325 18 8.10891 17.9692C7.03918 17.7998 6.20021 16.9608 6.03078 15.8911C6 15.6968 6 15.4645 6 15V15Z" stroke="#808080" stroke-width="2" stroke-linecap="round" stroke-linejoin="round"/>
<path d="M12 12V18" stroke="#808080" stroke-width="2" stroke-linecap="round" stroke-linejoin="round"/>
<circle cx="7" cy="7" r="1" fill="black"/>
<circle cx="10" cy="7" r="1" fill="black"/>
<circle cx="17" cy="7" r="1" fill="black"/>
</svg>
