<svg width="24" height="24" viewBox="0 0 24 24" fill="none" xmlns="http://www.w3.org/2000/svg">
<path d="M3 3H3.25466C4.22898 3 4.71614 3 5.10961 3.17829C5.4564 3.33543 5.75113 3.58828 5.95917 3.90714C6.19522 4.26893 6.2693 4.75043 6.41745 5.71342L7.1651 10.5732C7.46141 12.4992 7.60956 13.4621 8.08165 14.1857C8.49773 14.8234 9.0872 15.3291 9.78077 15.6434C10.5677 16 11.542 16 13.4907 16H14.901C15.677 16 16.065 16 16.4041 15.9412C17.7881 15.7013 18.9447 14.753 19.4514 13.443C19.5756 13.122 19.6517 12.7415 19.8039 11.9806V11.9806C20.0214 10.893 20.1302 10.3492 20.1197 9.9055C20.0763 8.07005 18.789 6.4998 16.9977 6.09731C16.5646 6 16.0101 6 14.901 6H11" stroke="black" stroke-width="2" stroke-linecap="round" stroke-linejoin="round"/>
<rect x="7" y="18" width="3" height="3" rx="1.5" fill="#808080"/>
<rect x="17" y="18" width="3" height="3" rx="1.5" fill="#808080"/>
</svg>
