<svg width="24" height="24" viewBox="0 0 24 24" fill="none" xmlns="http://www.w3.org/2000/svg">
<path fill="black" d="M3 16H21"/>
<path fill="black" d="M21 19V17.4C21 15.1598 21 14.0397 20.564 13.184C20.1805 12.4314 19.5686 11.8195 18.816 11.436C17.9603 11 16.8402 11 14.6 11H9.4C7.15979 11 6.03968 11 5.18404 11.436C4.43139 11.8195 3.81947 12.4314 3.43597 13.184C3 14.0397 3 15.1598 3 17.4V19"/>
<path fill="black" d="M12 11V10C12 9.07003 12 8.60504 11.8978 8.22354C11.6204 7.18827 10.8117 6.37962 9.77646 6.10222C9.39496 6 8.92997 6 8 6V6C7.07003 6 6.60504 6 6.22354 6.10222C5.18827 6.37962 4.37962 7.18827 4.10222 8.22354C4 8.60504 4 9.07003 4 10V12"/>
<path fill="black" d="M20 12V10C20 9.07003 20 8.60504 19.8978 8.22354C19.6204 7.18827 18.8117 6.37962 17.7765 6.10222C17.395 6 16.93 6 16 6V6C15.07 6 14.605 6 14.2235 6.10222C13.1883 6.37962 12.3796 7.18827 12.1022 8.22354C12 8.60504 12 9.07003 12 10V11"/>
</svg>
