<svg width="24" height="24" viewBox="0 0 24 24" fill="none" xmlns="http://www.w3.org/2000/svg">
<path d="M17.5 8H16.5C16.0357 8 15.8035 8 15.6079 8.01926C13.7088 8.20631 12.2063 9.70882 12.0193 11.6079C12 11.8035 12 12.0357 12 12.5C12 12.9643 12 13.1965 12.0193 13.3921C12.2063 15.2912 13.7088 16.7937 15.6079 16.9807C15.8035 17 16.0357 17 16.5 17H17.5C17.9643 17 18.1965 17 18.3921 16.9807C20.2912 16.7937 21.7937 15.2912 21.9807 13.3921C22 13.1965 22 12.9643 22 12.5C22 12.0357 22 11.8035 21.9807 11.6079C21.7937 9.70882 20.2912 8.20631 18.3921 8.01926C18.1965 8 17.9643 8 17.5 8Z" stroke="black" stroke-width="2" stroke-linecap="round" stroke-linejoin="round"/>
<path d="M6.5 3H7.5C7.96434 3 8.19651 3 8.39207 3.01926C10.2912 3.20631 11.7937 4.70882 11.9807 6.60793C12 6.80349 12 7.03566 12 7.5C12 7.96434 12 8.19651 11.9807 8.39207C11.7937 10.2912 10.2912 11.7937 8.39207 11.9807C8.19651 12 7.96434 12 7.5 12H6.5C6.03566 12 5.80349 12 5.60793 11.9807C3.70882 11.7937 2.20631 10.2912 2.01926 8.39207C2 8.19651 2 7.96434 2 7.5C2 7.03566 2 6.80349 2.01926 6.60793C2.20631 4.70882 3.70882 3.20631 5.60793 3.01926C5.80349 3 6.03566 3 6.5 3Z" stroke="black" stroke-width="2" stroke-linecap="round" stroke-linejoin="round"/>
<path d="M7 8H7.2C8.88016 8 9.72024 8 10.362 8.32698C10.9265 8.6146 11.3854 9.07354 11.673 9.63803C12 10.2798 12 11.1198 12 12.8V21" stroke="black" stroke-width="2" stroke-linecap="round" stroke-linejoin="round"/>
<path d="M17 13H16.8C15.1198 13 14.2798 13 13.638 13.327C13.0735 13.6146 12.6146 14.0735 12.327 14.638C12 15.2798 12 16.1198 12 17.8V22" stroke="black" stroke-width="2" stroke-linecap="round" stroke-linejoin="round"/>
</svg>
