<svg width="24" height="24" viewBox="0 0 24 24" fill="none" xmlns="http://www.w3.org/2000/svg">
<path d="M10.8 10.5L13.2 8.1L14 8.9C15.0875 9.98755 16.455 10.7252 18.1024 10.9372C18.2224 10.9527 18.2824 10.9604 18.3673 10.9532C18.6898 10.9259 19.0138 10.6409 19.082 10.3246C19.1 10.2413 19.1 10.1609 19.1 10C19.1 9.79332 19.1 9.68998 19.0881 9.6218C19.0325 9.30304 18.8863 9.12604 18.5838 9.01123C18.5191 8.98668 18.3813 8.96015 18.1056 8.9071C17.06 8.70586 16.1914 8.19147 15.5 7.5L13.6 5.6C13.1 5.2 12.6 5 12 5C11.5377 5 11.1349 5.11868 10.8371 5.35605C10.753 5.42303 10.9631 5.25558 10.9247 5.28844C10.8815 5.32529 10.8655 5.33958 10.824 5.37834C10.7871 5.4129 10.6443 5.55567 10.3587 5.84121L7.79995 8.4C7.39995 8.8 7.19995 9.3 7.19995 9.8C7.19995 10.4 7.39995 10.9 7.79995 11.2L9.36077 12.5657C9.96397 13.0935 10.2656 13.3574 10.4821 13.6764C10.6739 13.959 10.8161 14.2723 10.9025 14.6029C11 14.9758 11 15.3766 11 16.1781V18C11 18.1859 11 18.2788 11.0153 18.3561C11.0784 18.6734 11.3265 18.9215 11.6439 18.9846C11.7212 19 11.8141 19 12 19C12.1858 19 12.2787 19 12.356 18.9846C12.6734 18.9215 12.9215 18.6734 12.9846 18.3561C13 18.2788 13 18.1859 13 18V15.9828C13 15.2199 13 14.8385 12.9547 14.4722C12.8272 13.4393 12.4332 12.4574 11.8114 11.6229C11.5909 11.3269 11.3273 11.0513 10.8 10.5Z" fill="black"/>
<rect x="15" y="13" width="7" height="7" rx="3" stroke="black" stroke-width="2"/>
<rect x="2" y="13" width="7" height="7" rx="3" stroke="black" stroke-width="2"/>
<rect x="13" y="1" width="4" height="4" rx="1.67" fill="#808080"/>
</svg>
