<svg width="24" height="24" viewBox="0 0 24 24" fill="none" xmlns="http://www.w3.org/2000/svg">
<path d="M10 10H14" stroke="#808080" stroke-width="2" stroke-linecap="round" stroke-linejoin="round"/>
<path d="M12 8L12 12" stroke="#808080" stroke-width="2" stroke-linecap="round" stroke-linejoin="round"/>
<path d="M17 13V13C17.93 13 18.395 13 18.7765 13.1022C19.8117 13.3796 20.6204 14.1883 20.8978 15.2235C21 15.605 21 16.07 21 17V20H17V13Z" stroke="black" stroke-width="2" stroke-linecap="round" stroke-linejoin="round"/>
<path d="M3 17C3 16.07 3 15.605 3.10222 15.2235C3.37962 14.1883 4.18827 13.3796 5.22354 13.1022C5.60504 13 6.07003 13 7 13V13V20H3V17Z" stroke="black" stroke-width="2" stroke-linecap="round" stroke-linejoin="round"/>
<path d="M7 9C7 8.07069 7 7.60603 7.07686 7.21964C7.39249 5.63288 8.63288 4.39249 10.2196 4.07686C10.606 4 11.0707 4 12 4V4C12.9293 4 13.394 4 13.7804 4.07686C15.3671 4.39249 16.6075 5.63288 16.9231 7.21964C17 7.60603 17 8.07069 17 9V20H7V9Z" stroke="black" stroke-width="2" stroke-linecap="round" stroke-linejoin="round"/>
</svg>
