<svg width="24" height="24" viewBox="0 0 24 24" fill="none" xmlns="http://www.w3.org/2000/svg">
<path d="M6 11H9.5C9.96442 11 10.1966 11 10.3916 10.9743C11.7378 10.7971 12.7971 9.73778 12.9743 8.39158C13 8.19663 13 7.96442 13 7.5V7.5C13 7.03558 13 6.80337 12.9743 6.60842C12.7971 5.26222 11.7378 4.2029 10.3916 4.02567C10.1966 4 9.96442 4 9.5 4V4C9.03558 4 8.80337 4 8.60842 4.02567C7.26222 4.2029 6.2029 5.26222 6.02567 6.60842C6 6.80337 6 7.03558 6 7.5V16" stroke="black" stroke-width="2" stroke-linecap="round" stroke-linejoin="round"/>
<path d="M10 11L19 20" stroke="black" stroke-width="2" stroke-linecap="round" stroke-linejoin="round"/>
<path d="M19 12L11 20" stroke="#808080" stroke-width="2" stroke-linecap="round" stroke-linejoin="round"/>
</svg>
