<svg width="24" height="24" viewBox="0 0 24 24" fill="none" xmlns="http://www.w3.org/2000/svg">
<path d="M18 5H6C5.5355 5 5.30325 5 5.10891 5.03078C4.03918 5.20021 3.20021 6.03918 3.03078 7.10891C3 7.30325 3 7.5355 3 8C3 8.4645 3 8.69675 3.03078 8.89109C3.20021 9.96082 4.03918 10.7998 5.10891 10.9692C5.30325 11 5.5355 11 6 11H18C18.4645 11 18.6968 11 18.8911 10.9692C19.9608 10.7998 20.7998 9.96082 20.9692 8.89109C21 8.69675 21 8.4645 21 8C21 7.5355 21 7.30325 20.9692 7.10891C20.7998 6.03918 19.9608 5.20021 18.8911 5.03078C18.6968 5 18.4645 5 18 5Z" stroke="black" stroke-width="2" stroke-linecap="round" stroke-linejoin="round"/>
<path d="M6 8L11 8" stroke="black" stroke-width="2" stroke-linecap="round" stroke-linejoin="round"/>
<circle cx="14" cy="8" r="1" fill="#808080"/>
<circle cx="17" cy="8" r="1" fill="#808080"/>
<path d="M18 14H6C5.5355 14 5.30325 14 5.10891 14.0308C4.03918 14.2002 3.20021 15.0392 3.03078 16.1089C3 16.3032 3 16.5355 3 17C3 17.4645 3 17.6968 3.03078 17.8911C3.20021 18.9608 4.03918 19.7998 5.10891 19.9692C5.30325 20 5.5355 20 6 20H18C18.4645 20 18.6968 20 18.8911 19.9692C19.9608 19.7998 20.7998 18.9608 20.9692 17.8911C21 17.6968 21 17.4645 21 17C21 16.5355 21 16.3032 20.9692 16.1089C20.7998 15.0392 19.9608 14.2002 18.8911 14.0308C18.6968 14 18.4645 14 18 14Z" stroke="black" stroke-width="2" stroke-linecap="round" stroke-linejoin="round"/>
<path d="M6 17L11 17" stroke="black" stroke-width="2" stroke-linecap="round" stroke-linejoin="round"/>
<circle cx="14" cy="17" r="1" fill="#808080"/>
<circle cx="17" cy="17" r="1" fill="#808080"/>
</svg>
