<svg width="24" height="24" viewBox="0 0 24 24" fill="none" xmlns="http://www.w3.org/2000/svg">
<path d="M10 8.25V16.5C10 16.9644 10 17.1966 9.97433 17.3916C9.7971 18.7378 8.73778 19.7971 7.39158 19.9743C7.19663 20 6.96442 20 6.5 20C6.03558 20 5.80337 20 5.60842 19.9743C4.26222 19.7971 3.2029 18.7378 3.02567 17.3916C3 17.1966 3 16.9644 3 16.5V11.4C3 10.52 3 10.08 3.11534 9.67616C3.21749 9.31847 3.38527 8.98291 3.61013 8.68658C3.864 8.352 4.216 8.088 4.92 7.56L6.4 6.45C6.78947 6.1579 7.26317 6 7.75 6C8.99264 6 10 7.00736 10 8.25Z" stroke="black" stroke-width="2" stroke-linecap="round" stroke-linejoin="round"/>
<path d="M14 8.82843V16.5C14 16.9644 14 17.1966 14.0257 17.3916C14.2029 18.7378 15.2622 19.7971 16.6084 19.9743C16.8034 20 17.0356 20 17.5 20C17.9644 20 18.1966 20 18.3916 19.9743C19.7378 19.7971 20.7971 18.7378 20.9743 17.3916C21 17.1966 21 16.9644 21 16.5V10.9882C21 10.2545 21 9.88757 20.9171 9.5423C20.8436 9.2362 20.7224 8.94356 20.5579 8.67514C20.3724 8.3724 20.113 8.11297 19.5941 7.59411L18.8284 6.82843C18.298 6.29799 17.5786 6 16.8284 6C15.2663 6 14 7.26633 14 8.82843Z" stroke="black" stroke-width="2" stroke-linecap="round" stroke-linejoin="round"/>
<path d="M12 2V8C12 9.65685 13.3431 11 15 11V11C16.6569 11 18 12.3431 18 14V14.5" stroke="black" stroke-width="2" stroke-linecap="round" stroke-linejoin="round"/>
<path d="M12 2V8C12 9.65685 10.6569 11 9 11V11C7.34315 11 6 12.3431 6 14V14.5" stroke="black" stroke-width="2" stroke-linecap="round" stroke-linejoin="round"/>
</svg>
