<svg width="24" height="24" viewBox="0 0 24 24" fill="none" xmlns="http://www.w3.org/2000/svg">
<path d="M7 8H17" stroke="#808080" stroke-width="2" stroke-linecap="round" stroke-linejoin="round"/>
<path d="M7 9V4.57143C7 4.03831 7 3.77176 7.09903 3.56612C7.19732 3.36201 7.36201 3.19732 7.56612 3.09903C7.77176 3 8.03831 3 8.57143 3H15.4286C15.9617 3 16.2282 3 16.4339 3.09903C16.638 3.19732 16.8027 3.36201 16.901 3.56612C17 3.77176 17 4.03831 17 4.57143V9C17 11.7614 14.7614 14 12 14C9.23858 14 7 11.7614 7 9Z" stroke="black" stroke-width="2" stroke-linecap="round" stroke-linejoin="round"/>
<path d="M12 14L12 20" stroke="black" stroke-width="2" stroke-linecap="round" stroke-linejoin="round"/>
<path d="M16 21H8" stroke="black" stroke-width="2" stroke-linecap="round" stroke-linejoin="round"/>
</svg>
