<svg width="24" height="24" viewBox="0 0 24 24" fill="none" xmlns="http://www.w3.org/2000/svg">
<path fill="black" d="M11 16L16 11C16.2157 10.7843 16.3235 10.6765 16.4237 10.5951C17.3421 9.84901 18.6579 9.84901 19.5763 10.5951C19.6765 10.6765 19.7843 10.7843 20 11L20 11C20.2157 11.2157 20.3235 11.3235 20.4049 11.4237C21.151 12.3421 21.151 13.6579 20.4049 14.5763C20.3235 14.6765 20.2157 14.7843 20 15L15 20L15 20C14.7843 20.2157 14.6765 20.3235 14.5763 20.4049C13.6579 21.151 12.3421 21.151 11.4237 20.4049C11.3235 20.3235 11.2157 20.2157 11 20L11 20C10.7843 19.7843 10.6765 19.6765 10.5951 19.5763C9.84901 18.6579 9.84901 17.3421 10.5951 16.4237C10.6765 16.3235 10.7843 16.2157 11 16Z"/>
<path fill="black" d="M22 8V8C22 7.07069 22 6.60603 21.9231 6.21964C21.6075 4.63288 20.3671 3.39249 18.7804 3.07686C18.394 3 17.9293 3 17 3H8C6.13623 3 5.20435 3 4.46927 3.30448C3.48915 3.71046 2.71046 4.48915 2.30448 5.46927C2 6.20435 2 7.13623 2 9V9V9.5C2 9.96466 2 10.197 2.03843 10.3902C2.19624 11.1836 2.81644 11.8038 3.60982 11.9616C3.80302 12 4.03534 12 4.5 12V12C4.96466 12 5.19698 12 5.39018 11.9616C6.18356 11.8038 6.80376 11.1836 6.96157 10.3902C7 10.197 7 9.96466 7 9.5V9"/>
<path fill="black" d="M7 9V9.5C7 9.96466 7 10.197 7.03843 10.3902C7.19624 11.1836 7.81644 11.8038 8.60982 11.9616C8.80302 12 9.03534 12 9.5 12V12C9.96466 12 10.197 12 10.3902 11.9616C11.1836 11.8038 11.8038 11.1836 11.9616 10.3902C12 10.197 12 9.96466 12 9.5V9"/>
<path fill="black" d="M8 21V21C5.79086 21 4 19.2091 4 17V12"/>
<path fill="black" d="M14 14L17 17"/>
</svg>
