<svg width="24" height="24" viewBox="0 0 24 24" fill="none" xmlns="http://www.w3.org/2000/svg">
<path fill="black" d="M8 10V17.5294V18"/>
<path fill="black" d="M6.90569 10H7.41886C7.55228 10 7.61899 10 7.67939 9.99634C8.45061 9.94963 9.12595 9.46288 9.41414 8.746C9.43671 8.68986 9.45781 8.62657 9.5 8.5L10.6026 5.1921C10.8399 4.48019 11.5062 4 12.2566 4C13.2194 4 14 4.78055 14 5.74342V7.29706C14 8.78985 15.2101 10 16.7029 10C18.4086 10 19.6879 11.5605 19.3534 13.233L18.8039 15.9806C18.3365 18.3177 16.2844 20 13.901 20H13.6183C12.5631 20 11.5315 19.6877 10.6535 19.1023L10.5 19C9.52192 18.3479 8.37272 18 7.19722 18H6.6201C6.04355 18 5.75528 18 5.51778 17.941C4.7989 17.7624 4.2376 17.2011 4.05901 16.4822C4 16.2447 4 15.9564 4 15.3799V12.9057C4 12.0623 4 11.6405 4.12517 11.3036C4.32782 10.758 4.75803 10.3278 5.30357 10.1252C5.64054 10 6.06226 10 6.90569 10Z"/>
</svg>
