<svg width="24" height="24" viewBox="0 0 24 24" fill="none" xmlns="http://www.w3.org/2000/svg">
<path d="M3.45672 6.7039C3 7.80653 3 9.20435 3 12C3 14.7956 3 16.1935 3.45672 17.2961C4.06569 18.7663 5.23373 19.9343 6.7039 20.5433C7.80653 21 9.20435 21 12 21H14.982C18.2717 21 20.9384 18.3332 20.9384 15.0436C20.9384 14.9212 20.6359 14.8781 20.5872 14.9903C19.918 16.5328 18.4986 17.6666 16.7822 17.9384C16.3935 18 15.929 18 15 18C14.071 18 13.6065 18 13.2178 17.9384C11.0784 17.5996 9.40042 15.9216 9.06156 13.7822C9 13.3935 9 12.929 9 12C9 11.071 9 10.6065 9.06156 10.2178C9.40042 8.07837 11.0784 6.40042 13.2178 6.06156C13.6065 6 14.071 6 15 6C15.929 6 16.3935 6 16.7822 6.06156C18.4986 6.33341 19.918 7.46717 20.5872 9.00965C20.6359 9.1219 20.9384 9.07879 20.9384 8.95643C20.9384 5.66679 18.2717 3 14.982 3H12C9.20435 3 7.80653 3 6.7039 3.45672C5.23373 4.06569 4.06569 5.23373 3.45672 6.7039Z" stroke="black" stroke-width="2" stroke-linecap="round" stroke-linejoin="round"/>
</svg>
