<svg width="24" height="24" viewBox="0 0 24 24" fill="none" xmlns="http://www.w3.org/2000/svg">
<path d="M3 15V13.4C3 11.1598 3 10.0397 3.43597 9.18404C3.81947 8.43139 4.43139 7.81947 5.18404 7.43597C6.03968 7 7.15979 7 9.4 7H12.6C14.8402 7 15.9603 7 16.816 7.43597C17.5686 7.81947 18.1805 8.43139 18.564 9.18404C19 10.0397 19 11.1598 19 13.4V15" stroke="black" stroke-width="2" stroke-linecap="round" stroke-linejoin="round"/>
<path d="M22 14V14C21.1821 14.8179 20.7732 15.2268 20.332 15.4454C19.4927 15.8613 18.5073 15.8613 17.668 15.4454C17.2268 15.2268 16.8179 14.8179 16 14V14" stroke="#808080" stroke-width="2" stroke-linecap="round" stroke-linejoin="round"/>
</svg>
