<svg width="24" height="24" viewBox="0 0 24 24" fill="none" xmlns="http://www.w3.org/2000/svg">
<path fill="black" d="M6.26284 6.38416C5.84893 6.73676 5.38376 7.20197 4.69707 7.88873L4.56779 8.018C4.15503 8.43061 3.87386 8.71169 3.66195 8.99324C2.32183 10.7738 2.32183 13.2263 3.66195 15.0068C3.87386 15.2883 4.15502 15.5694 4.56779 15.982L4.69706 16.1113C5.56776 16.9821 6.08232 17.4967 6.58782 17.8771C9.79277 20.2894 14.2072 20.2894 17.4122 17.8771C17.476 17.8291 17.54 17.7789 17.6048 17.7261L16.18 16.3013C13.6897 18.1553 10.2734 18.1479 7.79052 16.2792C7.41195 15.9942 7.00255 15.5883 6.04045 14.6262C5.54735 14.1331 5.37594 13.9582 5.25991 13.8041C4.45584 12.7358 4.45584 11.2643 5.25991 10.1959C5.37594 10.0418 5.54735 9.86688 6.04045 9.37379C6.91253 8.5017 7.33051 8.0866 7.68303 7.80435L6.26284 6.38416Z"/>
<path fill="black" d="M10.5802 6.45889L8.96237 4.84105C11.7599 3.83834 14.9446 4.26561 17.4122 6.12288C17.9177 6.50333 18.4322 7.01792 19.3029 7.88865L19.4322 8.018C19.845 8.43061 20.1262 8.71169 20.3381 8.99324C21.6782 10.7738 21.6782 13.2263 20.3381 15.0068C20.1891 15.2047 20.006 15.4023 19.7669 15.6456L18.3524 14.2311C18.5598 14.0199 18.6624 13.9073 18.7401 13.8041C19.5442 12.7358 19.5442 11.2643 18.7401 10.1959C18.6241 10.0418 18.4527 9.86688 17.9596 9.37379C16.9975 8.41169 16.5881 8.00578 16.2095 7.72084C14.5628 6.48146 12.5056 6.0608 10.5802 6.45889Z"/>
<path fill="black" d="M8.96522 9.08654C8.48705 9.58868 8.157 10.2333 8.0431 10.9525C7.99967 11.2266 7.99981 11.5343 7.99998 11.9243V12.0757C7.99981 12.4657 7.99967 12.7734 8.0431 13.0475C8.2803 14.5452 9.45486 15.7197 10.9525 15.9569C11.2266 16.0003 11.5343 16.0002 11.9243 16H12.0757C12.4657 16.0002 12.7734 16.0003 13.0475 15.9569C13.7667 15.843 14.4113 15.513 14.9135 15.0348L13.4983 13.6196C13.2886 13.8066 13.0259 13.9354 12.7347 13.9815C12.6377 13.9969 12.5027 14 12 14C11.4973 14 11.3624 13.9969 11.2654 13.9815C10.6235 13.8799 10.1201 13.3765 10.0185 12.7347C10.0031 12.6377 10 12.5027 10 12C10 11.4973 10.0031 11.3624 10.0185 11.2654C10.0646 10.9741 10.1935 10.7114 10.3804 10.5017L8.96522 9.08654Z"/>
<path fill="black" d="M16 11.8787L12.1213 7.99997C12.4898 7.99987 12.7841 8.00139 13.0475 8.0431C14.5452 8.2803 15.7197 9.45487 15.9569 10.9525C15.9986 11.2159 16.0001 11.5102 16 11.8787Z"/>
<path fill="black" d="M21 21L2 2"/>
</svg>
