<svg width="24" height="24" viewBox="0 0 24 24" fill="none" xmlns="http://www.w3.org/2000/svg">
<path d="M19 3H14.6C11.2397 3 9.55953 3 8.27606 3.65396C7.14708 4.2292 6.2292 5.14708 5.65396 6.27606C5 7.55953 5 9.23969 5 12.6V21" stroke="black" stroke-width="2" stroke-linecap="round" stroke-linejoin="round"/>
<path d="M18 13V11C18 10.0707 18 9.60603 17.9231 9.21964C17.6075 7.63288 16.3671 6.39249 14.7804 6.07686C14.394 6 13.9293 6 13 6C12.0707 6 11.606 6 11.2196 6.07686C9.63288 6.39249 8.39249 7.63288 8.07686 9.21964C8 9.60603 8 10.0707 8 11V13C8 13.9293 8 14.394 8.07686 14.7804C8.39249 16.3671 9.63288 17.6075 11.2196 17.9231C11.606 18 12.0707 18 13 18C13.9293 18 14.394 18 14.7804 17.9231C16.3671 17.6075 17.6075 16.3671 17.9231 14.7804C18 14.394 18 13.9293 18 13Z" stroke="black" stroke-width="2" stroke-linecap="round" stroke-linejoin="round"/>
<path d="M13 6V4" stroke="black" stroke-width="2" stroke-linecap="round" stroke-linejoin="round"/>
<path d="M11 18L11 21" stroke="black" stroke-width="2" stroke-linecap="round" stroke-linejoin="round"/>
<path d="M15 18L15 21" stroke="black" stroke-width="2" stroke-linecap="round" stroke-linejoin="round"/>
<path d="M13 10V14" stroke="black" stroke-width="2" stroke-linecap="round" stroke-linejoin="round"/>
<path d="M15 12L11 12" stroke="black" stroke-width="2" stroke-linecap="round" stroke-linejoin="round"/>
</svg>
