<svg width="24" height="24" viewBox="0 0 24 24" fill="none" xmlns="http://www.w3.org/2000/svg">
<rect fill="black" x="9" y="4" width="6" height="6" rx="2.5"/>
<path fill="black" d="M14.9091 13H9.09091C8.07694 13 7.56996 13 7.14974 13.0914C5.61952 13.4243 4.42429 14.6195 4.09141 16.1497C4 16.57 4 17.0769 4 18.0909C4 18.4711 4 18.6613 4.03428 18.8188C4.15911 19.3927 4.60732 19.8409 5.18115 19.9657C5.33873 20 5.52885 20 5.90909 20H18.0909C18.4711 20 18.6613 20 18.8188 19.9657C19.3927 19.8409 19.8409 19.3927 19.9657 18.8188C20 18.6613 20 18.4711 20 18.0909C20 17.0769 20 16.57 19.9086 16.1497C19.5757 14.6195 18.3805 13.4243 16.8503 13.0914C16.43 13 15.9231 13 14.9091 13Z"/>
</svg>
