<svg width="24" height="24" viewBox="0 0 24 24" fill="none" xmlns="http://www.w3.org/2000/svg">
<path d="M19 21H6C4.89543 21 4 20.1046 4 19V19C4 17.8954 4.89543 17 6 17H13.6C15.8402 17 16.9603 17 17.816 16.564C18.5686 16.1805 19.1805 15.5686 19.564 14.816C20 13.9603 20 12.8402 20 10.6V9.4C20 7.15979 20 6.03968 19.564 5.18404C19.1805 4.43139 18.5686 3.81947 17.816 3.43597C16.9603 3 15.8402 3 13.6 3H10.4C8.15979 3 7.03968 3 6.18404 3.43597C5.43139 3.81947 4.81947 4.43139 4.43597 5.18404C4 6.03968 4 7.15979 4 9.4V19" stroke="black" stroke-width="2" stroke-linecap="round" stroke-linejoin="round"/>
</svg>
