<svg width="24" height="24" viewBox="0 0 24 24" fill="none" xmlns="http://www.w3.org/2000/svg">
<path d="M12 15V22" stroke="#808080" stroke-width="2" stroke-linecap="round"/>
<path d="M16 8L21 3" stroke="#808080" stroke-width="2" stroke-linecap="round"/>
<path d="M8 8L4 4" stroke="#808080" stroke-width="2" stroke-linecap="round"/>
<rect x="8" y="7" width="8" height="8" rx="3" stroke="black" stroke-width="2" stroke-linecap="round"/>
<path d="M10 19H14" stroke="black" stroke-width="2" stroke-linecap="round"/>
<path d="M8 4L4 8" stroke="black" stroke-width="2" stroke-linecap="round"/>
<path d="M18 2V2C18.93 2 19.395 2 19.7765 2.10222C20.8117 2.37962 21.6204 3.18827 21.8978 4.22354C22 4.60504 22 5.07003 22 6V6" stroke="black" stroke-width="2" stroke-linecap="round"/>
<path d="M6 2V2C5.07003 2 4.60504 2 4.22354 2.10222C3.18827 2.37962 2.37962 3.18827 2.10222 4.22354C2 4.60504 2 5.07003 2 6V6" stroke="black" stroke-width="2" stroke-linecap="round"/>
</svg>
