<svg width="24" height="24" viewBox="0 0 24 24" fill="none" xmlns="http://www.w3.org/2000/svg">
<path fill="black" d="M4 12H7.43112C8.37033 12 8.83994 12 9.2662 12.1295C9.64357 12.2441 9.99464 12.4319 10.2993 12.6824C10.6435 12.9652 10.904 13.356 11.425 14.1374L12 15V9L12.575 9.86256C13.096 10.644 13.3565 11.0348 13.7007 11.3176C14.0054 11.5681 14.3564 11.7559 14.7338 11.8705C15.1601 12 15.6297 12 16.5689 12H20"/>
<path fill="black" d="M19.5 13.5L16.5255 16.4745C14.9414 18.0586 14.1494 18.8506 13.2361 19.1474C12.4327 19.4084 11.5673 19.4084 10.7639 19.1474C9.85062 18.8506 9.05858 18.0586 7.47451 16.4745L4.5 13.5C3.87596 12.876 3.56393 12.5639 3.35306 12.255C2.42478 10.895 2.42478 9.10504 3.35306 7.74501C3.56393 7.43607 3.87596 7.12404 4.5 6.5L4.8 6.2C5.14508 5.85492 5.31762 5.68238 5.47793 5.55215C6.94743 4.35842 9.05257 4.35842 10.5221 5.55215C10.6824 5.68238 10.8549 5.85492 11.2 6.2L11.2 6.20002C11.2863 6.28628 11.3294 6.32941 11.3695 6.36196C11.7369 6.66039 12.2631 6.66039 12.6305 6.36196C12.6706 6.32941 12.7137 6.28628 12.8 6.20002L12.8 6.2C13.1451 5.85492 13.3176 5.68238 13.4779 5.55215C14.9474 4.35842 17.0526 4.35842 18.5221 5.55215C18.6824 5.68238 18.8549 5.85492 19.2 6.2L19.5 6.5C20.124 7.12404 20.4361 7.43607 20.6469 7.74501C21.5752 9.10504 21.5752 10.895 20.6469 12.255C20.4361 12.5639 20.124 12.876 19.5 13.5Z"/>
</svg>
