<svg width="24" height="24" viewBox="0 0 24 24" fill="none" xmlns="http://www.w3.org/2000/svg">
<path fill="black" d="M18.9946 7.99456L18 7C16.8954 5.89543 15.1046 5.89543 14 7C12.8954 8.10457 11.1046 8.10457 10 7C8.89543 5.89543 7.10457 5.89543 6 7L5.00544 7.99456C4.89858 8.10142 4.84515 8.15485 4.79786 8.20554C3.76064 9.31727 3.4434 10.9209 3.9792 12.3438C4.00363 12.4087 4.03269 12.4785 4.09081 12.6179L4.09081 12.618L6.69694 18.8727C7.31808 20.3634 9.2537 20.7463 10.3957 19.6043C11.2817 18.7183 12.7183 18.7183 13.6044 19.6044C14.7463 20.7463 16.6819 20.3634 17.3031 18.8727L19.9092 12.618C19.9673 12.4785 19.9964 12.4087 20.0208 12.3438C20.5566 10.9209 20.2394 9.31727 19.2021 8.20554C19.1548 8.15485 19.1014 8.10142 18.9946 7.99456Z"/>
<path fill="black" d="M12 7V6C12 4.34315 13.3431 3 15 3V3"/>
<circle fill="black" cx="14" cy="13" r="1"/>
<circle fill="black" cx="10" cy="13" r="1"/>
</svg>
