<svg width="24" height="24" viewBox="0 0 24 24" fill="none" xmlns="http://www.w3.org/2000/svg">
<path fill="black" d="M4 11H20"/>
<rect fill="black" x="3" y="7" width="18" height="13" rx="6"/>
<path fill="black" d="M10 12V12C10 12.3066 10 12.4599 10.0201 12.5881C10.1323 13.3052 10.6948 13.8677 11.4119 13.9799C11.5401 14 11.6934 14 12 14V14C12.3066 14 12.4599 14 12.5881 13.9799C13.3052 13.8677 13.8677 13.3052 13.9799 12.5881C14 12.4599 14 12.3066 14 12V12"/>
<path fill="black" d="M9 7V6C9 5.5355 9 5.30325 9.03078 5.10891C9.20021 4.03918 10.0392 3.20021 11.1089 3.03078C11.3032 3 11.5355 3 12 3V3C12.4645 3 12.6968 3 12.8911 3.03078C13.9608 3.20021 14.7998 4.03918 14.9692 5.10891C15 5.30325 15 5.5355 15 6V7"/>
</svg>
