<svg width="24" height="24" viewBox="0 0 24 24" fill="none" xmlns="http://www.w3.org/2000/svg">
<path d="M15 9L11 13" stroke="#808080" stroke-width="2" stroke-linecap="round" stroke-linejoin="round"/>
<path d="M8 16L4 20" stroke="black" stroke-width="2" stroke-linecap="round" stroke-linejoin="round"/>
<path d="M18 12L14 16C13.5121 16.4879 13.2682 16.7318 13.0301 16.9014C11.815 17.7665 10.185 17.7665 8.96994 16.9014C8.73182 16.7318 8.48788 16.4879 8 16C7.51212 15.5121 7.26818 15.2682 7.09863 15.0301C6.23345 13.815 6.23345 12.185 7.09863 10.9699C7.26818 10.7318 7.51212 10.4879 7.99999 10L8 10L12 6L12 5.99999C12.4879 5.51212 12.7318 5.26818 12.9699 5.09863C14.185 4.23345 15.815 4.23345 17.0301 5.09863C17.2682 5.26818 17.5121 5.51212 18 6C18.4879 6.48788 18.7318 6.73182 18.9014 6.96994C19.7665 8.18504 19.7665 9.81496 18.9014 11.0301C18.7318 11.2682 18.4879 11.5121 18 12Z" stroke="black" stroke-width="2" stroke-linecap="round" stroke-linejoin="round"/>
</svg>
