<svg width="24" height="24" viewBox="0 0 24 24" fill="none" xmlns="http://www.w3.org/2000/svg">
<path fill="black" d="M15.1962 18C14.6695 18.9121 13.9121 19.6695 13 20.1962C12.0879 20.7228 11.0532 21 10 21C8.94678 21 7.91212 20.7228 7 20.1962C6.08788 19.6695 5.33046 18.9121 4.80385 18C4.27724 17.0879 4 16.0532 4 15C4 13.9468 4.27724 12.9121 4.80385 12C5.33046 11.0879 6.08788 10.3305 7 9.80385C7.91212 9.27724 8.94678 9 10 9"/>
<circle fill="black" cx="10" cy="4" r="2"/>
<path fill="black" d="M10 6V9.8C10 10.9201 10 11.4802 10.218 11.908C10.4097 12.2843 10.7157 12.5903 11.092 12.782C11.5198 13 12.0799 13 13.2 13H14.2874C14.9136 13 15.2266 13 15.5108 13.0863C15.7624 13.1627 15.9964 13.288 16.1996 13.4549C16.429 13.6435 16.6027 13.904 16.95 14.425L18.7597 17.1395C19.4682 18.2024 20.8574 18.5713 22 18V18"/>
</svg>
