<svg width="24" height="24" viewBox="0 0 24 24" fill="none" xmlns="http://www.w3.org/2000/svg">
<path d="M7 9H14C14.9293 9 15.394 9 15.7804 9.07686C17.3671 9.39249 18.6075 10.6329 18.9231 12.2196C19 12.606 19 13.0707 19 14V14V14C19 14.9293 19 15.394 18.9231 15.7804C18.6075 17.3671 17.3671 18.6075 15.7804 18.9231C15.394 19 14.9293 19 14 19H10" stroke="black" stroke-width="2" stroke-linecap="round" stroke-linejoin="round"/>
<path d="M9 13L8.39411 12.3941C7.20606 11.2061 6.61204 10.612 6.38947 9.92705C6.1937 9.32452 6.1937 8.67548 6.38947 8.07295C6.61204 7.38796 7.20606 6.79394 8.39411 5.60589L9 5" stroke="#808080" stroke-width="2" stroke-linecap="round" stroke-linejoin="round"/>
</svg>
