<svg width="24" height="24" viewBox="0 0 24 24" fill="none" xmlns="http://www.w3.org/2000/svg">
<path d="M12 3L12 20" stroke="#808080" stroke-width="2" stroke-linecap="round" stroke-linejoin="round"/>
<path d="M8.23817 4.73313C9.59017 3.75084 10.2662 3.2597 11.0052 3.06994C11.6578 2.90238 12.3422 2.90238 12.9948 3.06994C13.7338 3.2597 14.4098 3.75084 15.7618 4.73313L17.7487 6.1767C19.1007 7.15899 19.7767 7.65013 20.1856 8.29439C20.5466 8.86326 20.7581 9.5141 20.8004 10.1865C20.8483 10.9481 20.5901 11.7428 20.0737 13.3321L19.3147 15.6679C18.7983 17.2572 18.5401 18.0519 18.0537 18.6399C17.6243 19.159 17.0706 19.5612 16.4442 19.8093C15.7347 20.0902 14.8991 20.0902 13.228 20.0902H10.772C9.10086 20.0902 8.26528 20.0902 7.55582 19.8093C6.92938 19.5612 6.37573 19.159 5.94626 18.6399C5.45988 18.0519 5.20168 17.2572 4.68526 15.6679L3.92632 13.3321C3.40991 11.7428 3.1517 10.9481 3.19961 10.1865C3.24192 9.5141 3.45339 8.86326 3.81441 8.29439C4.22326 7.65013 4.89926 7.15899 6.25126 6.1767L8.23817 4.73313Z" stroke="black" stroke-width="2" stroke-linecap="round" stroke-linejoin="round"/>
</svg>
