<svg width="24" height="24" viewBox="0 0 24 24" fill="none" xmlns="http://www.w3.org/2000/svg">
<path d="M12 5V19" stroke="#808080" stroke-width="2" stroke-linecap="round" stroke-linejoin="round"/>
<path d="M8.15998 5.87997C9.53701 4.84721 10.2255 4.33083 10.9817 4.13177C11.6492 3.95607 12.3508 3.95607 13.0182 4.13178C13.7744 4.33084 14.4629 4.84723 15.84 5.88L18.8799 8.16C20.6169 9.46272 21.4854 10.1141 21.7959 10.9126C22.0679 11.612 22.0679 12.388 21.7959 13.0874C21.4853 13.8859 20.6169 14.5373 18.8799 15.84L15.84 18.12C14.4629 19.1528 13.7744 19.6691 13.0182 19.8682C12.3508 20.0439 11.6492 20.0439 10.9817 19.8682C10.2255 19.6692 9.53701 19.1528 8.15997 18.12L5.11993 15.84C3.38296 14.5373 2.51448 13.8859 2.20391 13.0874C1.93189 12.388 1.93189 11.612 2.20391 10.9126C2.51448 10.114 3.38296 9.46269 5.11994 8.15997L8.15998 5.87997Z" stroke="black" stroke-width="2" stroke-linecap="round" stroke-linejoin="round"/>
</svg>
