<svg width="24" height="24" viewBox="0 0 24 24" fill="none" xmlns="http://www.w3.org/2000/svg">
<path d="M10.5 10.5L11.3981 9.60184C11.8212 9.17873 12.0328 8.96716 12.2056 8.73556C12.6039 8.20187 12.8627 7.57718 12.9584 6.91816C13 6.63218 13 6.33299 13 5.73461L13 5.50005C13 5.03533 13 4.80296 13.0384 4.60974C13.1963 3.81642 13.8164 3.19628 14.6097 3.03846C14.803 3.00001 15.0354 3.00001 15.5001 3.00001C15.9648 3.00001 16.1971 3.00001 16.3903 3.03845C17.1837 3.19627 17.8038 3.81639 17.9617 4.60968C18.0001 4.80291 18.0001 5.03526 18.0001 5.49998L18.0002 5.99986L18.5001 5.99989C18.9647 5.99991 19.1971 5.99992 19.3903 6.03837C20.1836 6.19622 20.8038 6.81638 20.9616 7.6097C21 7.80292 21 8.03526 21 8.49994C21 8.96464 21 9.197 20.9616 9.39021C20.8037 10.1836 20.1836 10.8037 19.3902 10.9616C19.197 11 18.9646 11 18.4999 11L18.2654 11C17.667 11 17.3678 11 17.0819 11.0415C16.4228 11.1372 15.798 11.396 15.2643 11.7944C15.0327 11.9672 14.8211 12.1788 14.398 12.6019L13.4999 13.5" stroke="#808080" stroke-width="2" stroke-linecap="round" stroke-linejoin="round"/>
<path d="M10.5 10.5L9.60188 11.3981C9.17879 11.8212 8.96725 12.0327 8.73567 12.2056C8.20193 12.6039 7.57716 12.8627 6.91805 12.9585C6.63208 13 6.33291 13 5.73457 13L5.49999 13C5.03534 13 4.80302 13 4.60983 13.0384C3.81644 13.1962 3.19624 13.8164 3.03843 14.6098C3 14.803 3 15.0354 3 15.5C3 15.9646 3 16.197 3.03843 16.3902C3.19624 17.1836 3.81645 17.8038 4.60984 17.9616C4.80303 18 5.03536 18 5.50001 18L6 18L6 18.5C6 18.9647 6 19.197 6.03843 19.3902C6.19624 20.1836 6.81644 20.8038 7.60982 20.9616C7.80302 21 8.03534 21 8.5 21C8.96465 21 9.19698 21 9.39018 20.9616C10.1836 20.8038 10.8038 20.1836 10.9616 19.3902C11 19.197 11 18.9647 11 18.5V18.2654C11 17.667 11 17.3678 11.0415 17.0819C11.1373 16.4228 11.396 15.7981 11.7944 15.2644C11.9672 15.0328 12.1788 14.8212 12.6018 14.3981L13.4999 13.5" stroke="black" stroke-width="2" stroke-linecap="round" stroke-linejoin="round"/>
</svg>
