<svg width="24" height="24" viewBox="0 0 24 24" fill="none" xmlns="http://www.w3.org/2000/svg">
<path d="M3 10H6.43112C7.37033 10 7.83994 10 8.2662 10.1295C8.64357 10.2441 8.99464 10.4319 9.29933 10.6824C9.64349 10.9652 9.90398 11.356 10.425 12.1374L10.8066 12.7099C10.9274 12.8912 11.1308 13 11.3486 13V13C11.7084 13 12 12.7084 12 12.3486V10V7.65139C12 7.29164 12.2916 7 12.6514 7V7C12.8692 7 13.0726 7.10885 13.1934 7.29006L13.575 7.86256C14.096 8.64403 14.3565 9.03477 14.7007 9.31764C15.0054 9.56806 15.3564 9.75594 15.7338 9.87055C16.1601 10 16.6297 10 17.5689 10H21" stroke="#808080" stroke-width="2" stroke-linecap="round" stroke-linejoin="round"/>
<path d="M12 17V17C12 17.93 12 18.395 12.1022 18.7765C12.3796 19.8117 13.1883 20.6204 14.2235 20.8978C14.605 21 15.07 21 16 21L18 21" stroke="black" stroke-width="2" stroke-linecap="round" stroke-linejoin="round"/>
<path d="M12 17V17C12 17.93 12 18.395 11.8978 18.7765C11.6204 19.8117 10.8117 20.6204 9.77646 20.8978C9.39496 21 8.92997 21 8 21L6 21" stroke="black" stroke-width="2" stroke-linecap="round" stroke-linejoin="round"/>
<path d="M21 10.6V9.4C21 7.15979 21 6.03969 20.564 5.18404C20.1805 4.43139 19.5686 3.81947 18.816 3.43597C17.9603 3 16.8402 3 14.6 3H9.4C7.15979 3 6.03969 3 5.18404 3.43597C4.43139 3.81947 3.81947 4.43139 3.43597 5.18404C3 6.03969 3 7.15979 3 9.4V10.6C3 12.8402 3 13.9603 3.43597 14.816C3.81947 15.5686 4.43139 16.1805 5.18404 16.564C6.03969 17 7.15979 17 9.4 17H14.6C16.8402 17 17.9603 17 18.816 16.564C19.5686 16.1805 20.1805 15.5686 20.564 14.816C21 13.9603 21 12.8402 21 10.6Z" stroke="black" stroke-width="2" stroke-linecap="round" stroke-linejoin="round"/>
</svg>
