<svg width="24" height="24" viewBox="0 0 24 24" fill="none" xmlns="http://www.w3.org/2000/svg">
<path d="M16.9799 15.5881C17 15.4599 17 15.3066 17 15C17 14.6934 17 14.5401 16.9799 14.4119C16.8677 13.6948 16.3052 13.1323 15.5881 13.0201C15.4599 13 15.3066 13 15 13C14.6934 13 14.5401 13 14.4119 13.0201C13.6948 13.1323 13.1323 13.6948 13.0201 14.4119C13 14.5401 13 14.6934 13 15C13 15.3066 13 15.4599 13.0201 15.5881C13.1323 16.3052 13.6948 16.8677 14.4119 16.9799C14.5401 17 14.6934 17 15 17C15.3066 17 15.4599 17 15.5881 16.9799C16.3052 16.8677 16.8677 16.3052 16.9799 15.5881Z" stroke="#808080" stroke-width="2" stroke-linecap="round" stroke-linejoin="round"/>
<path d="M10.9799 11.5881C11 11.4599 11 11.3066 11 11C11 10.6934 11 10.5401 10.9799 10.4119C10.8677 9.69478 10.3052 9.13226 9.58814 9.02007C9.45985 9 9.30657 9 9 9C8.69343 9 8.54015 9 8.41186 9.02007C7.69478 9.13226 7.13226 9.69478 7.02007 10.4119C7 10.5401 7 10.6934 7 11C7 11.3066 7 11.4599 7.02007 11.5881C7.13226 12.3052 7.69478 12.8677 8.41186 12.9799C8.54015 13 8.69343 13 9 13C9.30657 13 9.45985 13 9.58814 12.9799C10.3052 12.8677 10.8677 12.3052 10.9799 11.5881Z" stroke="#808080" stroke-width="2" stroke-linecap="round" stroke-linejoin="round"/>
<path d="M16.9799 7.58814C17 7.45985 17 7.30657 17 7C17 6.69343 17 6.54015 16.9799 6.41186C16.8677 5.69478 16.3052 5.13226 15.5881 5.02007C15.4599 5 15.3066 5 15 5C14.6934 5 14.5401 5 14.4119 5.02007C13.6948 5.13226 13.1323 5.69478 13.0201 6.41186C13 6.54015 13 6.69343 13 7C13 7.30657 13 7.45985 13.0201 7.58814C13.1323 8.30522 13.6948 8.86774 14.4119 8.97993C14.5401 9 14.6934 9 15 9C15.3066 9 15.4599 9 15.5881 8.97993C16.3052 8.86774 16.8677 8.30522 16.9799 7.58814Z" stroke="#808080" stroke-width="2" stroke-linecap="round" stroke-linejoin="round"/>
<path d="M21 21H12.6C9.23969 21 7.55953 21 6.27606 20.346C5.14708 19.7708 4.2292 18.8529 3.65396 17.7239C3 16.4405 3 14.7603 3 11.4L3 3" stroke="black" stroke-width="2" stroke-linecap="round" stroke-linejoin="round"/>
</svg>
