<svg width="24" height="24" viewBox="0 0 24 24" fill="none" xmlns="http://www.w3.org/2000/svg">
<path d="M5 11.4V12.636C5 14.8423 5 15.9454 5.42321 16.7907C5.81004 17.5633 6.43665 18.19 7.2093 18.5768C8.05464 19 9.15775 19 11.364 19C12.3276 19 12.8094 19 13.2632 18.8928C13.6809 18.794 14.08 18.6287 14.4452 18.4031C14.8419 18.1581 15.1826 17.8174 15.864 17.136L17.136 15.864C17.8174 15.1826 18.1581 14.8419 18.4031 14.4452C18.6287 14.08 18.794 13.6809 18.8928 13.2632C19 12.8094 19 12.3276 19 11.364C19 9.15775 19 8.05464 18.5768 7.2093C18.19 6.43665 17.5633 5.81004 16.7907 5.42321C15.9454 5 14.8423 5 12.636 5H11.4C9.15979 5 8.03969 5 7.18404 5.43597C6.43139 5.81947 5.81947 6.43139 5.43597 7.18404C5 8.03969 5 9.15979 5 11.4Z" stroke="black" stroke-width="2" stroke-linecap="round" stroke-linejoin="round"/>
<path d="M9 9H15" stroke="black" stroke-width="2" stroke-linecap="round" stroke-linejoin="round"/>
<path d="M9 12H11" stroke="black" stroke-width="2" stroke-linecap="round" stroke-linejoin="round"/>
<path d="M18 14H17.2C16.0799 14 15.5198 14 15.092 14.218C14.7157 14.4097 14.4097 14.7157 14.218 15.092C14 15.5198 14 16.0799 14 17.2V18" stroke="black" stroke-width="2" stroke-linecap="round" stroke-linejoin="round"/>
</svg>
