<svg width="24" height="24" viewBox="0 0 24 24" fill="none" xmlns="http://www.w3.org/2000/svg">
<path fill="black" d="M14.9377 10H14.6149C14.0432 10 13.7573 10 13.5217 9.94197C12.7996 9.76413 12.2359 9.20035 12.058 8.4783C12 8.24267 12 7.9568 12 7.38506C12 6.02289 12 5.34181 11.8797 5.05985C11.4968 4.16204 10.372 3.86332 9.59403 4.45285C9.34972 4.63799 9.01181 5.22933 8.33599 6.41202L6.51158 9.60473C5.81173 10.8295 5.4618 11.4418 5.44721 11.9416C5.42504 12.7009 5.83493 13.4072 6.50518 13.7647C6.94636 14 7.65166 14 9.06226 14H9.38506C9.9568 14 10.2427 14 10.4783 14.058C11.2004 14.2359 11.7641 14.7996 11.942 15.5217C12 15.7573 12 16.0432 12 16.6149C12 17.9771 12 18.6582 12.1203 18.9401C12.5032 19.838 13.628 20.1367 14.406 19.5472C14.6503 19.362 14.9882 18.7707 15.664 17.588L17.4884 14.3953C18.1883 13.1705 18.5382 12.5582 18.5528 12.0584C18.575 11.2991 18.1651 10.5928 17.4948 10.2353C17.0536 10 16.3483 10 14.9377 10Z"/>
</svg>
