<svg width="24" height="24" viewBox="0 0 24 24" fill="none" xmlns="http://www.w3.org/2000/svg">
<path fill="black" d="M19 13H15.9889C15.6299 13 15.4504 13 15.292 13.0547C15.1518 13.103 15.0242 13.1819 14.9183 13.2856C14.7986 13.4029 14.7183 13.5634 14.5578 13.8845L14.4422 14.1155C14.2817 14.4366 14.2014 14.5971 14.0817 14.7144C13.9758 14.8181 13.8482 14.897 13.708 14.9453C13.5496 15 13.3701 15 13.0111 15H10.9889C10.6299 15 10.4504 15 10.292 14.9453C10.1518 14.897 10.0242 14.8181 9.91831 14.7144C9.79857 14.5971 9.7183 14.4366 9.55777 14.1155L9.44223 13.8845C9.2817 13.5634 9.20143 13.4029 9.08169 13.2856C8.97579 13.1819 8.84816 13.103 8.70804 13.0547C8.54958 13 8.3701 13 8.01115 13H5"/>
<path fill="black" d="M13.6577 19H10.3423C9.09397 19 8.4698 19 7.9579 18.8619C6.58306 18.4909 5.50912 17.4169 5.13813 16.0421C5 15.5302 5 14.906 5 13.6577C5 13.4927 5 13.4102 5.00338 13.328C5.0123 13.1111 5.03888 12.8952 5.08284 12.6826C5.09949 12.602 5.1195 12.522 5.15951 12.362L5.78806 9.84777C6.22139 8.11444 6.43805 7.24778 6.92124 6.60249C7.34756 6.03314 7.91799 5.58776 8.57374 5.31225C9.31696 5 10.2113 5 12 5C13.7887 5 14.683 5 15.4263 5.31225C16.082 5.58776 16.6524 6.03314 17.0788 6.60249C17.5619 7.24778 17.7786 8.11444 18.2119 9.84777L18.8405 12.362L18.8405 12.362C18.8805 12.522 18.9005 12.6021 18.9172 12.6826C18.9611 12.8952 18.9877 13.1111 18.9966 13.328C19 13.4102 19 13.4927 19 13.6577C19 14.906 19 15.5302 18.8619 16.0421C18.4909 17.4169 17.4169 18.4909 16.0421 18.8619C15.5302 19 14.906 19 13.6577 19Z"/>
</svg>
