<svg width="24" height="24" viewBox="0 0 24 24" fill="none" xmlns="http://www.w3.org/2000/svg">
<path d="M17 19L17 20" stroke="black" stroke-width="2" stroke-linecap="round" stroke-linejoin="round"/>
<path d="M8 19L8 20" stroke="black" stroke-width="2" stroke-linecap="round" stroke-linejoin="round"/>
<path d="M14 15H7C5.89543 15 5 15.8954 5 17V17C5 18.1046 5.89543 19 7 19H19" stroke="black" stroke-width="2" stroke-linecap="round" stroke-linejoin="round"/>
<path d="M2 3V3C3.65685 3 5 4.34315 5 6V10V10C5 10.9293 5 11.394 5.07686 11.7804C5.39249 13.3671 6.63288 14.6075 8.21964 14.9231C8.60603 15 9.07069 15 10 15H15.5C15.9643 15 16.1965 15 16.3921 14.9807C18.2912 14.7937 19.7937 13.2912 19.9807 11.3921C20 11.1965 20 10.9643 20 10.5V10.5C20 10.0357 20 9.80349 19.9807 9.60793C19.7937 7.70882 18.2912 6.20631 16.3921 6.01926C16.1965 6 15.9643 6 15.5 6H5" stroke="black" stroke-width="2" stroke-linecap="round" stroke-linejoin="round"/>
</svg>
