<svg width="24" height="24" viewBox="0 0 24 24" fill="none" xmlns="http://www.w3.org/2000/svg">
<path fill="black" d="M10 18H5.41421C5.149 18 4.89464 18.1054 4.70711 18.2929C4.07714 18.9229 3 18.4767 3 17.5858V14C3 13.07 3 12.605 3.10222 12.2235C3.37962 11.1883 4.18827 10.3796 5.22354 10.1022C5.60504 10 6.07003 10 7 10H10C10.93 10 11.395 10 11.7765 10.1022C12.8117 10.3796 13.6204 11.1883 13.8978 12.2235C14 12.605 14 13.07 14 14C14 14.93 14 15.395 13.8978 15.7765C13.6204 16.8117 12.8117 17.6204 11.7765 17.8978C11.395 18 10.93 18 10 18Z"/>
<path fill="black" d="M17 12V12C17.93 12 18.395 12 18.7765 11.8978C19.8117 11.6204 20.6204 10.8117 20.8978 9.77646C21 9.39496 21 8.92997 21 8V8C21 7.07003 21 6.60504 20.8978 6.22354C20.6204 5.18827 19.8117 4.37962 18.7765 4.10222C18.395 4 17.93 4 17 4H12C10.3431 4 9 5.34315 9 7V7"/>
<circle fill="black" cx="7" cy="14" r="1"/>
<circle fill="black" cx="10" cy="14" r="1"/>
</svg>
