<svg width="24" height="24" viewBox="0 0 24 24" fill="none" xmlns="http://www.w3.org/2000/svg">
<path d="M16 9L10 15" stroke="black" stroke-width="2" stroke-linecap="round" stroke-linejoin="round"/>
<path d="M10 9L16 15" stroke="black" stroke-width="2" stroke-linecap="round" stroke-linejoin="round"/>
<path d="M14.6 5H10.7141C9.36136 5 8.68501 5 8.08014 5.19743C7.54497 5.37211 7.0527 5.65778 6.63552 6.03578C6.164 6.463 5.82844 7.05024 5.15731 8.22471L4.81445 8.82471C4.1531 9.98207 3.82243 10.5608 3.69294 11.1753C3.57836 11.7191 3.57836 12.2809 3.69294 12.8247C3.82243 13.4392 4.1531 14.0179 4.81445 15.1753L5.15731 15.7753C5.82844 16.9498 6.164 17.537 6.63552 17.9642C7.0527 18.3422 7.54497 18.6279 8.08014 18.8026C8.68501 19 9.36136 19 10.7141 19H14.6C16.8402 19 17.9603 19 18.816 18.564C19.5686 18.1805 20.1805 17.5686 20.564 16.816C21 15.9603 21 14.8402 21 12.6V11.4C21 9.15979 21 8.03969 20.564 7.18404C20.1805 6.43139 19.5686 5.81947 18.816 5.43597C17.9603 5 16.8402 5 14.6 5Z" stroke="black" stroke-width="2" stroke-linecap="round" stroke-linejoin="round"/>
</svg>
