<svg width="24" height="24" viewBox="0 0 24 24" fill="none" xmlns="http://www.w3.org/2000/svg">
<path d="M7 18V11C7 8.79086 8.79086 7 11 7H13.4645C15.4171 7 17 8.58291 17 10.5355C17 11.4732 16.6275 12.3725 15.9645 13.0355L14.0355 14.9645C13.3725 15.6275 13 16.5268 13 17.4645V18C13 19.6569 11.6569 21 10 21C8.34315 21 7 19.6569 7 18Z" stroke="black" stroke-width="2" stroke-linecap="round" stroke-linejoin="round"/>
<path d="M4.5 7C4.5 6.44772 4.94772 6 5.5 6C6.05228 6 6.5 6.44772 6.5 7V7.25C6.5 7.80228 6.05228 8.25 5.5 8.25C4.94772 8.25 4.5 7.80228 4.5 7.25V7Z" fill="#808080"/>
<path d="M7 4.75C7 4.19772 7.44772 3.75 8 3.75C8.55228 3.75 9 4.19772 9 4.75V5.25C9 5.80228 8.55228 6.25 8 6.25C7.44772 6.25 7 5.80228 7 5.25V4.75Z" fill="#808080"/>
<path d="M10 3.75C10 3.19772 10.4477 2.75 11 2.75C11.5523 2.75 12 3.19772 12 3.75V4.25C12 4.80228 11.5523 5.25 11 5.25C10.4477 5.25 10 4.80228 10 4.25L10 3.75Z" fill="#808080"/>
<path d="M13 3.25C13 2.69772 13.4477 2.25 14 2.25C14.5523 2.25 15 2.69772 15 3.25V4.25C15 4.80228 14.5523 5.25 14 5.25C13.4477 5.25 13 4.80228 13 4.25L13 3.25Z" fill="#808080"/>
<path d="M16 3.75C16 3.51775 16 3.40162 16.0154 3.30446C16.1001 2.76959 16.5196 2.3501 17.0545 2.26539C17.1516 2.25 17.2677 2.25 17.5 2.25C17.7323 2.25 17.8484 2.25 17.9455 2.26539C18.4804 2.3501 18.8999 2.76959 18.9846 3.30446C19 3.40162 19 3.51775 19 3.75V4.75C19 4.98225 19 5.09838 18.9846 5.19554C18.8999 5.73041 18.4804 6.1499 17.9455 6.23461C17.8484 6.25 17.7323 6.25 17.5 6.25C17.2677 6.25 17.1516 6.25 17.0545 6.23461C16.5196 6.1499 16.1001 5.73041 16.0154 5.19554C16 5.09838 16 4.98225 16 4.75L16 3.75Z" fill="#808080"/>
</svg>
