<svg width="24" height="24" viewBox="0 0 24 24" fill="none" xmlns="http://www.w3.org/2000/svg">
<path d="M12 21L19.5 13.5C20.124 12.876 20.4361 12.5639 20.6469 12.255C21.5752 10.895 21.5752 9.10504 20.6469 7.74501C20.4361 7.43607 20.124 7.12404 19.5 6.5V6.5C18.876 5.87596 18.5639 5.56393 18.255 5.35306C16.895 4.42478 15.105 4.42478 13.745 5.35306C13.4361 5.56393 13.124 5.87596 12.5 6.5L12 7" stroke="black" stroke-width="2" stroke-linecap="round" stroke-linejoin="round"/>
<path d="M12 21L4.5 13.5C3.87596 12.876 3.56393 12.5639 3.35306 12.255C2.42478 10.895 2.42478 9.10504 3.35306 7.74501C3.56393 7.43607 3.87596 7.12404 4.5 6.5V6.5C5.12404 5.87596 5.43607 5.56393 5.74501 5.35306C7.10504 4.42478 8.89496 4.42478 10.255 5.35306C10.5639 5.56393 10.876 5.87596 11.5 6.5L12 7" stroke="#808080" stroke-width="2" stroke-linecap="round" stroke-linejoin="round"/>
</svg>
