<svg width="24" height="24" viewBox="0 0 24 24" fill="none" xmlns="http://www.w3.org/2000/svg">
<path d="M13.9799 11.5881C14 11.4599 14 11.3066 14 11C14 10.6934 14 10.5401 13.9799 10.4119C13.8677 9.69478 13.3052 9.13226 12.5881 9.02007C12.4599 9 12.3066 9 12 9C11.6934 9 11.5401 9 11.4119 9.02007C10.6948 9.13226 10.1323 9.69478 10.0201 10.4119C10 10.5401 10 10.6934 10 11C10 11.3066 10 11.4599 10.0201 11.5881C10.1323 12.3052 10.6948 12.8677 11.4119 12.9799C11.5401 13 11.6934 13 12 13C12.3066 13 12.4599 13 12.5881 12.9799C13.3052 12.8677 13.8677 12.3052 13.9799 11.5881Z" stroke="#808080" stroke-width="2" stroke-linecap="round" stroke-linejoin="round"/>
<path d="M5 11.0501C5 11.5001 5 11.7251 5.01474 11.935C5.10591 13.2335 5.6169 14.4671 6.47061 15.4498C6.60859 15.6086 6.76275 15.7627 7.07107 16.0711L9.73726 18.7373C10.5293 19.5293 10.9253 19.9253 11.382 20.0737C11.7837 20.2042 12.2163 20.2042 12.618 20.0737C13.0747 19.9253 13.4707 19.5293 14.2627 18.7373L16.9289 16.0711C17.2373 15.7628 17.3914 15.6086 17.5294 15.4498C18.3831 14.4671 18.8941 13.2335 18.9853 11.935C19 11.7251 19 11.5001 19 11.0501V11.0501C19 10.0879 19 9.60674 18.9487 9.21684C18.5942 6.52444 16.4756 4.40579 13.7832 4.05133C13.3933 4 12.9288 4 12 4V4C11.0712 4 10.6067 4 10.2168 4.05133C7.52444 4.40579 5.40579 6.52444 5.05133 9.21684C5 9.60674 5 10.0879 5 11.0501V11.0501Z" stroke="black" stroke-width="2" stroke-linejoin="round"/>
</svg>
