<svg width="24" height="24" viewBox="0 0 24 24" fill="none" xmlns="http://www.w3.org/2000/svg">
<path fill="black" d="M14 9H19"/>
<path fill="black" d="M14 13H19"/>
<path fill="black" d="M4 11C4 9.13623 4 8.20435 4.30448 7.46927C4.71046 6.48915 5.48915 5.71046 6.46927 5.30448C7.20435 5 8.13623 5 10 5H14C15.8638 5 16.7956 5 17.5307 5.30448C18.5108 5.71046 19.2895 6.48915 19.6955 7.46927C20 8.20435 20 9.13623 20 11V11C20 12.8638 20 13.7956 19.6955 14.5307C19.2895 15.5108 18.5108 16.2895 17.5307 16.6955C16.7956 17 15.8638 17 14 17H10C8.13623 17 7.20435 17 6.46927 16.6955C5.48915 16.2895 4.71046 15.5108 4.30448 14.5307C4 13.7956 4 12.8638 4 11V11Z"/>
<path fill="black" d="M12 5L12 3"/>
<path fill="black" d="M10 17L10 21"/>
<path fill="black" d="M14 17V17C14 17.93 14 18.395 14.1022 18.7765C14.3796 19.8117 15.1883 20.6204 16.2235 20.8978C16.605 21 17.07 21 18 21H19"/>
</svg>
