<svg width="24" height="24" viewBox="0 0 24 24" fill="none" xmlns="http://www.w3.org/2000/svg">
<path d="M6 7H18V15C18 16.8638 18 17.7956 17.6955 18.5307C17.2895 19.5108 16.5108 20.2895 15.5307 20.6955C14.7956 21 13.8638 21 12 21V21C10.1362 21 9.20435 21 8.46927 20.6955C7.48915 20.2895 6.71046 19.5108 6.30448 18.5307C6 17.7956 6 16.8638 6 15V7Z" stroke="black" stroke-width="2" stroke-linecap="round" stroke-linejoin="round"/>
<path d="M4 5C4 4.69343 4 4.54015 4.02007 4.41186C4.13226 3.69478 4.69478 3.13226 5.41186 3.02007C5.54015 3 5.69343 3 6 3H18C18.3066 3 18.4599 3 18.5881 3.02007C19.3052 3.13226 19.8677 3.69478 19.9799 4.41186C20 4.54015 20 4.69343 20 5V5C20 5.30657 20 5.45985 19.9799 5.58814C19.8677 6.30522 19.3052 6.86774 18.5881 6.97993C18.4599 7 18.3066 7 18 7H6C5.69343 7 5.54015 7 5.41186 6.97993C4.69478 6.86774 4.13226 6.30522 4.02007 5.58814C4 5.45985 4 5.30657 4 5V5Z" stroke="black" stroke-width="2" stroke-linecap="round" stroke-linejoin="round"/>
<path d="M12 3L12 7" stroke="black" stroke-width="2" stroke-linecap="round" stroke-linejoin="round"/>
<path d="M16 3V7" stroke="black" stroke-width="2" stroke-linecap="round" stroke-linejoin="round"/>
<path d="M8 3V7" stroke="black" stroke-width="2" stroke-linecap="round" stroke-linejoin="round"/>
<path d="M9 12H15" stroke="#808080" stroke-width="2" stroke-linecap="round" stroke-linejoin="round"/>
<path d="M9 16H12" stroke="#808080" stroke-width="2" stroke-linecap="round" stroke-linejoin="round"/>
</svg>
