<svg width="24" height="24" viewBox="0 0 24 24" fill="none" xmlns="http://www.w3.org/2000/svg">
<path fill="black" d="M21 15V13.4C21 11.1598 21 10.0397 20.564 9.18404C20.1805 8.43139 19.5686 7.81947 18.816 7.43597C17.9603 7 16.8402 7 14.6 7H11.4C9.15979 7 8.03968 7 7.18404 7.43597C6.43139 7.81947 5.81947 8.43139 5.43597 9.18404C5 10.0397 5 11.1598 5 13.4V15"/>
<path fill="black" d="M2 14V14C2.81787 14.8179 3.22681 15.2268 3.66795 15.4454C4.50728 15.8613 5.49272 15.8613 6.33205 15.4454C6.77319 15.2268 7.18213 14.8179 8 14V14"/>
</svg>
