<svg width="24" height="24" viewBox="0 0 24 24" fill="none" xmlns="http://www.w3.org/2000/svg">
<path d="M10 3.00931C8.46295 3.03407 7.50543 3.12473 6.7039 3.45673C5.23373 4.06569 4.06569 5.23374 3.45672 6.70391C3 7.80653 3 9.20436 3 12C3 14.7957 3 16.1935 3.45672 17.2961C4.06569 18.7663 5.23373 19.9343 6.7039 20.5433C7.66646 20.942 8.85398 20.9926 11 20.9991" stroke="black" stroke-width="2" stroke-linecap="round" stroke-linejoin="round"/>
<path d="M15 20.9597C15.9818 20.9095 16.6844 20.7967 17.2961 20.5433C18.7663 19.9343 19.9343 18.7663 20.5433 17.2961C20.942 16.3335 20.9926 15.146 20.9991 13" stroke="black" stroke-width="2" stroke-linecap="round" stroke-linejoin="round"/>
<path d="M20.9819 9C20.9595 8.34377 20.909 7.86915 20.7956 7.44591C20.2408 5.37536 18.6235 3.75807 16.5529 3.20327C16.0678 3.07327 15.1108 3.02594 14 3.0087" stroke="black" stroke-width="2" stroke-linecap="round" stroke-linejoin="round"/>
</svg>
