<svg width="24" height="24" viewBox="0 0 24 24" fill="none" xmlns="http://www.w3.org/2000/svg">
<rect x="3" y="3" width="18" height="18" rx="6" stroke="black" stroke-width="2" stroke-linecap="round" stroke-linejoin="round"/>
<path d="M11.0355 15.6007C11.5348 15.5918 12.1468 15.2518 13.3708 14.5718C14.6572 13.8571 15.3004 13.4998 15.5734 13.0669C15.9845 12.4151 15.9845 11.5849 15.5734 10.9331C15.3004 10.5002 14.6572 10.1429 13.3708 9.42821C12.1468 8.74821 11.5348 8.40821 11.0355 8.39934C10.2838 8.386 9.58812 8.79534 9.23473 9.45892C9 9.89967 9 10.5998 9 12C9 13.4002 9 14.1003 9.23473 14.5411C9.58812 15.2047 10.2838 15.614 11.0355 15.6007Z" stroke="black" stroke-width="2" stroke-linejoin="round"/>
</svg>
