<svg width="24" height="24" viewBox="0 0 24 24" fill="none" xmlns="http://www.w3.org/2000/svg">
<path d="M14 16L10 14" stroke="#808080" stroke-width="2" stroke-linecap="round" stroke-linejoin="round"/>
<path d="M14 8L10 10" stroke="#808080" stroke-width="2" stroke-linecap="round" stroke-linejoin="round"/>
<path d="M9.84776 13.7654C10 13.3978 10 12.9319 10 12C10 11.0681 10 10.6022 9.84776 10.2346C9.64477 9.74458 9.25542 9.35523 8.76537 9.15224C8.39782 9 7.93188 9 7 9C6.06812 9 5.60218 9 5.23463 9.15224C4.74458 9.35523 4.35523 9.74458 4.15224 10.2346C4 10.6022 4 11.0681 4 12C4 12.9319 4 13.3978 4.15224 13.7654C4.35523 14.2554 4.74458 14.6448 5.23463 14.8478C5.60218 15 6.06812 15 7 15C7.93188 15 8.39782 15 8.76537 14.8478C9.25542 14.6448 9.64477 14.2554 9.84776 13.7654Z" stroke="black" stroke-width="2" stroke-linecap="round" stroke-linejoin="round"/>
<path d="M19.8478 7.76537C20 7.39782 20 6.93188 20 6C20 5.06812 20 4.60218 19.8478 4.23463C19.6448 3.74458 19.2554 3.35523 18.7654 3.15224C18.3978 3 17.9319 3 17 3C16.0681 3 15.6022 3 15.2346 3.15224C14.7446 3.35523 14.3552 3.74458 14.1522 4.23463C14 4.60218 14 5.06812 14 6C14 6.93188 14 7.39782 14.1522 7.76537C14.3552 8.25542 14.7446 8.64477 15.2346 8.84776C15.6022 9 16.0681 9 17 9C17.9319 9 18.3978 9 18.7654 8.84776C19.2554 8.64477 19.6448 8.25542 19.8478 7.76537Z" stroke="black" stroke-width="2" stroke-linecap="round" stroke-linejoin="round"/>
<path d="M19.8478 19.7654C20 19.3978 20 18.9319 20 18C20 17.0681 20 16.6022 19.8478 16.2346C19.6448 15.7446 19.2554 15.3552 18.7654 15.1522C18.3978 15 17.9319 15 17 15C16.0681 15 15.6022 15 15.2346 15.1522C14.7446 15.3552 14.3552 15.7446 14.1522 16.2346C14 16.6022 14 17.0681 14 18C14 18.9319 14 19.3978 14.1522 19.7654C14.3552 20.2554 14.7446 20.6448 15.2346 20.8478C15.6022 21 16.0681 21 17 21C17.9319 21 18.3978 21 18.7654 20.8478C19.2554 20.6448 19.6448 20.2554 19.8478 19.7654Z" stroke="black" stroke-width="2" stroke-linecap="round" stroke-linejoin="round"/>
</svg>
