<svg width="24" height="24" viewBox="0 0 24 24" fill="none" xmlns="http://www.w3.org/2000/svg">
<path fill="black" d="M3 18V6C3 5.69343 3 5.54015 3.02007 5.41186C3.13226 4.69478 3.69478 4.13226 4.41186 4.02007C4.54015 4 4.69343 4 5 4C5.30657 4 5.45985 4 5.58814 4.02007C6.30522 4.13226 6.86774 4.69478 6.97993 5.41186C7 5.54015 7 5.69343 7 6V18C7 18.3066 7 18.4599 6.97993 18.5881C6.86774 19.3052 6.30522 19.8677 5.58814 19.9799C5.45985 20 5.30657 20 5 20C4.69343 20 4.54015 20 4.41186 19.9799C3.69478 19.8677 3.13226 19.3052 3.02007 18.5881C3 18.4599 3 18.3066 3 18Z"/>
<path fill="black" d="M17 18V15C17 14.6934 17 14.5401 17.0201 14.4119C17.1323 13.6948 17.6948 13.1323 18.4119 13.0201C18.5401 13 18.6934 13 19 13C19.3066 13 19.4599 13 19.5881 13.0201C20.3052 13.1323 20.8677 13.6948 20.9799 14.4119C21 14.5401 21 14.6934 21 15V18C21 18.3066 21 18.4599 20.9799 18.5881C20.8677 19.3052 20.3052 19.8677 19.5881 19.9799C19.4599 20 19.3066 20 19 20C18.6934 20 18.5401 20 18.4119 19.9799C17.6948 19.8677 17.1323 19.3052 17.0201 18.5881C17 18.4599 17 18.3066 17 18Z"/>
<path fill="black" d="M10 18V11C10 10.6934 10 10.5401 10.0201 10.4119C10.1323 9.69478 10.6948 9.13226 11.4119 9.02007C11.5401 9 11.6934 9 12 9C12.3066 9 12.4599 9 12.5881 9.02007C13.3052 9.13226 13.8677 9.69478 13.9799 10.4119C14 10.5401 14 10.6934 14 11V18C14 18.3066 14 18.4599 13.9799 18.5881C13.8677 19.3052 13.3052 19.8677 12.5881 19.9799C12.4599 20 12.3066 20 12 20C11.6934 20 11.5401 20 11.4119 19.9799C10.6948 19.8677 10.1323 19.3052 10.0201 18.5881C10 18.4599 10 18.3066 10 18Z"/>
</svg>
