<svg width="24" height="24" viewBox="0 0 24 24" fill="none" xmlns="http://www.w3.org/2000/svg">
<path fill="black" d="M11 8L16 13"/>
<path fill="black" d="M8 11L13 16"/>
<path fill="black" d="M6.00039 12L12.0003 6.00012C12.8182 5.1823 13.2271 4.77339 13.6682 4.55479C14.5075 4.13886 15.4929 4.13885 16.3322 4.55475C16.7734 4.77333 17.1823 5.18222 18.0001 6.00001C18.8181 6.81786 19.227 7.22678 19.4456 7.66792C19.8616 8.50727 19.8616 9.49275 19.4457 10.3321C19.2271 10.7733 18.8182 11.1822 18.0003 12.0001L12.0004 18C11.1825 18.8179 10.7736 19.2268 10.3324 19.4454C9.49309 19.8613 8.50765 19.8613 7.66831 19.4454C7.22718 19.2268 6.81824 18.8179 6.00038 18C5.1825 17.1821 4.77357 16.7732 4.55497 16.332C4.13904 15.4927 4.13904 14.5073 4.55497 13.6679C4.77358 13.2268 5.18251 12.8179 6.00039 12Z"/>
<circle fill="black" cx="16" cy="8" r="1"/>
<circle fill="black" cx="8" cy="16" r="1"/>
</svg>
