<svg width="24" height="24" viewBox="0 0 24 24" fill="none" xmlns="http://www.w3.org/2000/svg">
<path d="M8.72289 8.91245C8.54553 8.98268 8.3342 8.98268 7.91153 8.98268C5.38037 8.98268 4.11479 8.98268 3.63279 9.4353C3.21603 9.82666 3.02844 10.404 3.13557 10.9656C3.25946 11.6151 4.28334 12.359 6.33109 13.8468L6.3311 13.8468C6.67304 14.0952 6.84401 14.2194 6.94622 14.3805C7.03648 14.5227 7.08934 14.6854 7.09992 14.8535C7.1119 15.0439 7.04659 15.2449 6.91598 15.6469C6.13381 18.0541 5.74272 19.2578 6.02425 19.8561C6.26767 20.3734 6.7588 20.7302 7.326 20.8018C7.98199 20.8847 9.00586 20.1408 11.0536 18.653L11.0536 18.653C11.3956 18.4046 11.5665 18.2804 11.7513 18.2329C11.8329 18.212 11.9164 18.2015 12 18.2015V3.73413C11.723 3.73413 11.446 3.80299 11.1955 3.9407C10.616 4.25923 10.225 5.46287 9.44279 7.87014L9.44279 7.87015C9.31218 8.27213 9.24687 8.47312 9.12528 8.6201C9.01791 8.74989 8.8795 8.85045 8.72289 8.91245Z" stroke="black" stroke-width="2" stroke-linejoin="round"/>
</svg>
