<svg width="24" height="24" viewBox="0 0 24 24" fill="none" xmlns="http://www.w3.org/2000/svg">
<path d="M3 12.6V8.83796C3 6.71831 4.71831 5 6.83796 5C7.59567 5 8.33642 5.22428 8.96688 5.64458L9.5 6C9.98782 6.32521 10.2317 6.48782 10.4915 6.61153C10.8543 6.78423 11.2409 6.90131 11.6385 6.95881C11.9233 7 12.2165 7 12.8028 7H15C16.8638 7 17.7956 7 18.5307 7.30448C19.5108 7.71046 20.2895 8.48915 20.6955 9.46927C21 10.2044 21 11.1362 21 13C21 14.8638 21 15.7956 20.6955 16.5307C20.2895 17.5108 19.5108 18.2895 18.5307 18.6955C17.7956 19 16.8638 19 15 19H9.4C7.15979 19 6.03969 19 5.18404 18.564C4.43139 18.1805 3.81947 17.5686 3.43597 16.816C3 15.9603 3 14.8402 3 12.6Z" stroke="black" stroke-width="2" stroke-linecap="round" stroke-linejoin="round"/>
<path d="M12 11L12 15" stroke="black" stroke-width="2" stroke-linecap="round" stroke-linejoin="round"/>
<path d="M14 13H10" stroke="black" stroke-width="2" stroke-linecap="round" stroke-linejoin="round"/>
</svg>
