<svg width="24" height="24" viewBox="0 0 24 24" fill="none" xmlns="http://www.w3.org/2000/svg">
<path d="M17 9H10C9.07069 9 8.60603 9 8.21964 9.07686C6.63288 9.39249 5.39249 10.6329 5.07686 12.2196C5 12.606 5 13.0707 5 14V14V14C5 14.9293 5 15.394 5.07686 15.7804C5.39249 17.3671 6.63288 18.6075 8.21964 18.9231C8.60603 19 9.07069 19 10 19H14" stroke="black" stroke-width="2" stroke-linecap="round" stroke-linejoin="round"/>
<path d="M15 13L15.6059 12.3941C16.7939 11.2061 17.388 10.612 17.6105 9.92705C17.8063 9.32452 17.8063 8.67548 17.6105 8.07295C17.388 7.38796 16.7939 6.79394 15.6059 5.60589L15 5" stroke="black" stroke-width="2" stroke-linecap="round" stroke-linejoin="round"/>
</svg>
