<svg width="24" height="24" viewBox="0 0 24 24" fill="none" xmlns="http://www.w3.org/2000/svg">
<path d="M19 21H7C5.89543 21 5 20.1046 5 19V19C5 17.8954 5.89543 17 7 17H12" stroke="black" stroke-width="2" stroke-linecap="round" stroke-linejoin="round"/>
<path d="M9 8H15" stroke="#808080" stroke-width="2" stroke-linecap="round" stroke-linejoin="round"/>
<path d="M9 12H12" stroke="#808080" stroke-width="2" stroke-linecap="round" stroke-linejoin="round"/>
<path d="M5 7.8C5 6.11984 5 5.27976 5.32698 4.63803C5.6146 4.07354 6.07354 3.6146 6.63803 3.32698C7.27976 3 8.11984 3 9.8 3H14.2C15.8802 3 16.7202 3 17.362 3.32698C17.9265 3.6146 18.3854 4.07354 18.673 4.63803C19 5.27976 19 6.11984 19 7.8V12.2C19 13.8802 19 14.7202 18.673 15.362C18.3854 15.9265 17.9265 16.3854 17.362 16.673C16.7202 17 15.8802 17 14.2 17H5V7.8Z" stroke="black" stroke-width="2" stroke-linecap="round" stroke-linejoin="round"/>
<path d="M17 17L17 21" stroke="black" stroke-width="2" stroke-linecap="round" stroke-linejoin="round"/>
<path d="M5 19L5 15" stroke="black" stroke-width="2" stroke-linecap="round" stroke-linejoin="round"/>
</svg>
