<svg width="24" height="24" viewBox="0 0 24 24" fill="none" xmlns="http://www.w3.org/2000/svg">
<path d="M6.83416 6.95554C6.7036 7.20576 6.60067 7.47424 6.52986 7.7575L6.47341 7.98327C6.32402 8.58083 5.78712 9.00004 5.17116 9.00004C3.97206 9.00004 3 9.9721 3 11.1712V12.8289C3 14.028 3.97206 15 5.17116 15C5.78712 15 6.32403 15.4192 6.47342 16.0168L6.52986 16.2426C6.935 17.8632 8.3911 19 10.0616 19H11C11.5523 19 12 18.5523 12 18V12.1214L10 10.1214V16.9989C9.27329 16.9718 8.64771 16.4678 8.47014 15.7575L8.4137 15.5317C8.04173 14.0438 6.70485 13 5.17116 13C5.07663 13 5 12.9234 5 12.8289V11.1712C5 11.0767 5.07663 11 5.17116 11C6.68657 11 8.00982 9.98098 8.39999 8.52137L6.83416 6.95554Z" fill="black"/>
<path d="M12 7.87874L9.21964 5.09838C9.49101 5.03394 9.77309 5.00004 10.0616 5.00004H11C11.5523 5.00004 12 5.44775 12 6.00004V7.87874Z" fill="black"/>
<path d="M13 13.1214V14C13 14.5523 13.4477 15 14 15C14.2453 15 14.4699 14.9117 14.6438 14.7652L13 13.1214Z" fill="black"/>
<path d="M15 10.8787L13.3561 9.23487C13.5301 9.08833 13.7547 9.00004 14 9.00004C14.5523 9.00004 15 9.44775 15 10V10.8787Z" fill="black"/>
<path d="M15.6438 15.7652C15.4699 15.9117 15.2453 16 15 16C14.4477 16 14 16.4478 14 17C14 17.5523 14.4477 18 15 18C15.7976 18 16.5224 17.6888 17.0598 17.1812L15.6438 15.7652Z" fill="black"/>
<path d="M18 13.8787L16 11.8787V9.00004C16 8.44775 15.5523 8.00004 15 8.00004C14.4477 8.00004 14 7.55232 14 7.00004C14 6.44775 14.4477 6.00004 15 6.00004C16.6569 6.00004 18 7.34318 18 9.00004V13.8787Z" fill="black"/>
<path d="M18.0598 18.1812C17.6581 18.5606 17.151 18.8299 16.5853 18.9424C16.3198 18.9952 15.9772 19 15 19C14.4477 19 14 19.4478 14 20C14 20.5523 14.4477 21 15 21L15.1157 21.0001C15.9334 21.0003 16.4906 21.0004 16.9755 20.904C17.9379 20.7125 18.7984 20.2489 19.4743 19.5957L18.0598 18.1812Z" fill="black"/>
<path d="M20.9326 16.8113L19 14.8787V9.00004C19 8.0228 18.9952 7.68021 18.9424 7.41477C18.7056 6.22469 17.7753 5.2944 16.5853 5.05768C16.3198 5.00488 15.9772 5.00004 15 5.00004C14.4477 5.00004 14 4.55232 14 4.00004C14 3.44775 14.4477 3.00004 15 3.00004L15.1158 3.00002C15.9334 2.99982 16.4906 2.99968 16.9755 3.09611C18.9589 3.49064 20.5094 5.04113 20.9039 7.02459C21.0004 7.50939 21.0002 8.06668 21 8.88428V15.1158C21.0002 15.8428 21.0003 16.3639 20.9326 16.8113Z" fill="black"/>
<path d="M21 21L2 2" stroke="black" stroke-width="2" stroke-linecap="round"/>
</svg>
