<svg width="24" height="24" viewBox="0 0 24 24" fill="none" xmlns="http://www.w3.org/2000/svg">
<path d="M14 11.446V8.5C14 6.567 15.567 5 17.5 5H17.8676C19.5976 5 21 6.40241 21 8.13238C21 8.70011 20.8457 9.25716 20.5536 9.74398L18.744 12.76C18.2824 13.5293 17.4511 14 16.554 14C15.1435 14 14 12.8565 14 11.446Z" stroke="black" stroke-width="2" stroke-linecap="round" stroke-linejoin="round"/>
<path d="M10.8117 16.8219L7.72876 18.5836C7.2512 18.8565 6.71068 19 6.16065 19C4.41507 19 3 17.5849 3 15.8394V10.5C3 9.10444 3 8.40666 3.17224 7.83886C3.56004 6.56046 4.56046 5.56004 5.83886 5.17224C6.40666 5 7.10444 5 8.5 5C9.89556 5 10.5933 5 11.1611 5.17224C12.4395 5.56004 13.44 6.56046 13.8278 7.83886C14 8.40666 14 9.10444 14 10.5V11.3278C14 12.6396 14 13.2955 13.8142 13.8837C13.6369 14.4449 13.3379 14.9601 12.9386 15.3925C12.5201 15.8456 11.9506 16.1711 10.8117 16.8219Z" stroke="black" stroke-width="2" stroke-linecap="round" stroke-linejoin="round"/>
<path d="M14 21L14 15C14 13.3431 12.6569 12 11 12V12C9.34315 12 8 10.6569 8 9V8" stroke="#808080" stroke-width="2" stroke-linecap="round" stroke-linejoin="round"/>
<path d="M14 21L14 13C14 10.7909 15.7909 9 18 9V9" stroke="#808080" stroke-width="2" stroke-linecap="round" stroke-linejoin="round"/>
</svg>
