<svg width="24" height="24" viewBox="0 0 24 24" fill="none" xmlns="http://www.w3.org/2000/svg">
<path fill="black" d="M18.5037 12.9242C18.6107 12.9406 18.6642 12.9488 18.7505 12.9433C19.0734 12.9229 19.4124 12.632 19.4815 12.3159C19.5 12.2314 19.5 12.1543 19.5 12C19.5 11.79 19.5 11.6849 19.4887 11.6186C19.4347 11.2995 19.3067 11.1386 19.008 11.014C18.9459 10.988 18.8001 10.9543 18.5085 10.8869C17.129 10.5677 15.9681 9.59853 15.4 8.3L14.8 7.1C14.7 6.6 14.1 6 13.2 6H11.3138C10.8396 6 10.6024 6 10.38 6.01656C8.63037 6.14683 7.02542 7.03637 5.98765 8.45101C5.85571 8.63086 5.73004 8.83194 5.47868 9.23411C5.42167 9.32533 5.39316 9.37094 5.3735 9.41222C5.21556 9.74391 5.30381 10.1405 5.5875 10.3739C5.6228 10.403 5.66796 10.4322 5.75828 10.4907L5.83293 10.539C5.99867 10.6462 6.08154 10.6998 6.15917 10.7297C6.46194 10.8461 6.80504 10.7682 7.02782 10.5324C7.08494 10.4719 7.13652 10.3878 7.23968 10.2195L7.34585 10.0462C7.7115 9.44966 7.89432 9.15137 8.1234 8.91449C8.53181 8.49216 9.05525 8.19905 9.62875 8.07153C9.95041 8 10.3003 8 11 8L8.5 11.8C8.2 12.3 8.1 12.9 8.3 13.5L8.9057 15.4103C9.09819 16.0174 9.19444 16.3209 9.22664 16.6197C9.29167 17.2232 9.17211 17.8323 8.88375 18.3664C8.74097 18.6308 8.53711 18.8755 8.12939 19.3647L7.97273 19.5527C7.73681 19.8358 7.61885 19.9774 7.57289 20.0845C7.38414 20.5242 7.62113 21.0302 8.0798 21.1668C8.19149 21.2 8.37575 21.2 8.74427 21.2H8.78191C8.83587 21.2 8.86285 21.2 8.88866 21.1983C9.08309 21.1857 9.26626 21.1026 9.40376 20.9646C9.42202 20.9463 9.43978 20.926 9.47532 20.8854L9.72935 20.595C9.80563 20.5078 9.84377 20.4643 9.87889 20.4226C11.164 18.8989 11.6086 16.8365 11.0652 14.9187C11.0504 14.8663 11.0336 14.8109 11 14.7L12.2544 15.4885C13.0742 16.0038 13.4841 16.2615 13.7814 16.6096C14.0446 16.9178 14.2426 17.2761 14.3634 17.6629C14.5 18.0999 14.5 18.584 14.5 19.5523V20.3C14.5 20.4859 14.5 20.5788 14.5154 20.6561C14.5785 20.9734 14.8266 21.2215 15.1439 21.2846C15.2212 21.3 15.3141 21.3 15.5 21.3C15.6859 21.3 15.7788 21.3 15.8561 21.2846C16.1734 21.2215 16.4215 20.9734 16.4846 20.6561C16.5 20.5788 16.5 20.4859 16.5 20.3V20.173C16.5 18.8549 16.5 18.1959 16.3726 17.5876C16.126 16.4096 15.5308 15.333 14.6643 14.4977C14.2169 14.0664 13.6587 13.716 12.5424 13.015L12.2 12.8L14 9.9C14.9387 11.5214 16.6057 12.6331 18.5037 12.9242Z"/>
<rect fill="black" x="14" y="2" width="4" height="4" rx="1.67"/>
<path fill="black" d="M4 18V18C4 19.6569 5.34315 21 7 21H17C18.6569 21 20 19.6569 20 18V18"/>
</svg>
