<svg width="24" height="24" viewBox="0 0 24 24" fill="none" xmlns="http://www.w3.org/2000/svg">
<path d="M12 11L12 15" stroke="#808080" stroke-width="2" stroke-linecap="round" stroke-linejoin="round"/>
<path d="M14 13H10" stroke="#808080" stroke-width="2" stroke-linecap="round" stroke-linejoin="round"/>
<path d="M4.99951 12.9499C4.99951 11.0745 5.7445 9.25502 7.07058 7.92893L8.67342 6.32609C9.79735 5.20217 10.3593 4.6402 11.0009 4.41372C11.6471 4.18561 12.3519 4.18561 12.9981 4.41372C13.6397 4.6402 14.2017 5.20217 15.3256 6.32611C15.8519 6.85235 16.3741 7.37462 16.9284 7.9289C18.2545 9.25499 18.9995 11.0745 18.9995 12.9499V12.9499C18.9995 16.8159 15.8655 20 11.9995 20V20C8.13352 20 4.99951 16.8159 4.99951 12.9499V12.9499Z" stroke="black" stroke-width="2" stroke-linecap="round" stroke-linejoin="round"/>
</svg>
