<svg width="24" height="24" viewBox="0 0 24 24" fill="none" xmlns="http://www.w3.org/2000/svg">
<rect x="6" y="6" width="12" height="12" rx="4" stroke="black" stroke-width="2" stroke-linecap="round" stroke-linejoin="round"/>
<path d="M12 6V4C12 2.89543 12.8954 2 14 2V2" stroke="black" stroke-width="2" stroke-linecap="round" stroke-linejoin="round"/>
<path d="M12 6V4C12 2.89543 11.1046 2 10 2V2" stroke="black" stroke-width="2" stroke-linecap="round" stroke-linejoin="round"/>
<path d="M12 18V20C12 21.1046 12.8954 22 14 22V22" stroke="black" stroke-width="2" stroke-linecap="round" stroke-linejoin="round"/>
<path d="M12 18V20C12 21.1046 11.1046 22 10 22V22" stroke="black" stroke-width="2" stroke-linecap="round" stroke-linejoin="round"/>
<path d="M6 12L4 12C2.89543 12 2 11.1046 2 10V10" stroke="black" stroke-width="2" stroke-linecap="round" stroke-linejoin="round"/>
<path d="M6 12L4 12C2.89543 12 2 12.8954 2 14V14" stroke="black" stroke-width="2" stroke-linecap="round" stroke-linejoin="round"/>
<path d="M18 12L20 12C21.1046 12 22 11.1046 22 10V10" stroke="black" stroke-width="2" stroke-linecap="round" stroke-linejoin="round"/>
<path d="M18 12L20 12C21.1046 12 22 12.8954 22 14V14" stroke="black" stroke-width="2" stroke-linecap="round" stroke-linejoin="round"/>
<path d="M13.9799 12.5881C14 12.4599 14 12.3066 14 12C14 11.6934 14 11.5401 13.9799 11.4119C13.8677 10.6948 13.3052 10.1323 12.5881 10.0201C12.4599 10 12.3066 10 12 10C11.6934 10 11.5401 10 11.4119 10.0201C10.6948 10.1323 10.1323 10.6948 10.0201 11.4119C10 11.5401 10 11.6934 10 12C10 12.3066 10 12.4599 10.0201 12.5881C10.1323 13.3052 10.6948 13.8677 11.4119 13.9799C11.5401 14 11.6934 14 12 14C12.3066 14 12.4599 14 12.5881 13.9799C13.3052 13.8677 13.8677 13.3052 13.9799 12.5881Z" stroke="black" stroke-width="2" stroke-linecap="round" stroke-linejoin="round"/>
<path d="M17 7L18 6C18.0797 5.92035 18.1195 5.88052 18.1547 5.84847C18.9176 5.15508 20.0824 5.15508 20.8453 5.84847C20.8805 5.88052 20.9203 5.92035 21 6V6" stroke="black" stroke-width="2" stroke-linecap="round" stroke-linejoin="round"/>
<path d="M17 17L18 18C18.0797 18.0797 18.1195 18.1195 18.1547 18.1515C18.9176 18.8449 20.0824 18.8449 20.8453 18.1515C20.8805 18.1195 20.9203 18.0797 21 18V18" stroke="black" stroke-width="2" stroke-linecap="round" stroke-linejoin="round"/>
<path d="M17 7L18 6C18.0797 5.92035 18.1195 5.88052 18.1515 5.84526C18.8449 5.08244 18.8449 3.91756 18.1515 3.15474C18.1195 3.11948 18.0797 3.07965 18 3V3" stroke="black" stroke-width="2" stroke-linecap="round" stroke-linejoin="round"/>
<path d="M17 17L18 18C18.0797 18.0797 18.1195 18.1195 18.1515 18.1547C18.8449 18.9176 18.8449 20.0824 18.1515 20.8453C18.1195 20.8805 18.0797 20.9203 18 21V21" stroke="black" stroke-width="2" stroke-linecap="round" stroke-linejoin="round"/>
<path d="M7 7L6 6C5.92035 5.92035 5.88052 5.88052 5.84526 5.84847C5.08244 5.15508 3.91756 5.15508 3.15474 5.84847C3.11948 5.88052 3.07965 5.92035 3 6V6" stroke="black" stroke-width="2" stroke-linecap="round" stroke-linejoin="round"/>
<path d="M7 17L6 18C5.92035 18.0797 5.88052 18.1195 5.84526 18.1515C5.08244 18.8449 3.91756 18.8449 3.15474 18.1515C3.11948 18.1195 3.07965 18.0797 3 18V18" stroke="black" stroke-width="2" stroke-linecap="round" stroke-linejoin="round"/>
<path d="M7 7L6 6C5.92035 5.92035 5.88052 5.88052 5.84847 5.84526C5.15508 5.08244 5.15508 3.91756 5.84847 3.15474C5.88052 3.11948 5.92035 3.07965 6 3V3" stroke="black" stroke-width="2" stroke-linecap="round" stroke-linejoin="round"/>
<path d="M7 17L6 18C5.92035 18.0797 5.88052 18.1195 5.84847 18.1547C5.15508 18.9176 5.15508 20.0824 5.84847 20.8453C5.88052 20.8805 5.92035 20.9203 6 21V21" stroke="black" stroke-width="2" stroke-linecap="round" stroke-linejoin="round"/>
</svg>
