<svg width="24" height="24" viewBox="0 0 24 24" fill="none" xmlns="http://www.w3.org/2000/svg">
<path d="M10 8H11.2C12.8802 8 13.7202 8 14.362 8.32698C14.9265 8.6146 15.3854 9.07354 15.673 9.63803C16 10.2798 16 11.1198 16 12.8V17" stroke="#808080" stroke-width="2" stroke-linecap="round" stroke-linejoin="round"/>
<path d="M8 12L8 13" stroke="black" stroke-width="2" stroke-linecap="round" stroke-linejoin="round"/>
<path d="M8 3L8 4" stroke="black" stroke-width="2" stroke-linecap="round" stroke-linejoin="round"/>
<rect x="6" y="4" width="4" height="8" rx="1.67" stroke="black" stroke-width="2" stroke-linecap="round" stroke-linejoin="round"/>
<path d="M4 21H6.5C6.98806 21 7.23208 21 7.46261 20.9732C8.39308 20.8648 9.25601 20.4334 9.90096 19.754C10.0607 19.5857 10.2072 19.3904 10.5 19V19C10.7928 18.6096 10.9393 18.4143 11.099 18.246C11.744 17.5666 12.6069 17.1352 13.5374 17.0268C13.7679 17 14.0119 17 14.5 17H16C18.2091 17 20 18.7909 20 21V21" stroke="black" stroke-width="2" stroke-linecap="round" stroke-linejoin="round"/>
</svg>
