<svg width="24" height="24" viewBox="0 0 24 24" fill="none" xmlns="http://www.w3.org/2000/svg">
<path d="M13 9.33333V10.6056C13 11.0873 13 11.3282 13.0371 11.5618C13.08 11.8321 13.1596 12.0953 13.2739 12.3441C13.3727 12.559 13.5063 12.7594 13.7735 13.1603L14.1938 13.7908L14.1939 13.7908C14.4935 14.2402 14.6433 14.465 14.7494 14.7081C14.8437 14.9239 14.9121 15.15 14.9534 15.3819C15 15.643 15 15.9131 15 16.4533V18H21V11.6C21 11.0063 21 10.7095 20.9443 10.4244C20.8948 10.1715 20.813 9.92593 20.7008 9.69389C20.5743 9.43238 20.3962 9.19492 20.04 8.72L20.04 8.72L19 7.33333C18.9024 7.20322 18.8536 7.13817 18.8041 7.0788C18.2687 6.43662 17.4895 6.04704 16.6545 6.00398C16.5773 6 16.496 6 16.3333 6C16.0238 6 15.869 6 15.7385 6.01142C14.2882 6.1383 13.1383 7.28819 13.0114 8.73853C13 8.86902 13 9.02379 13 9.33333Z" stroke="black" stroke-width="2" stroke-linecap="round" stroke-linejoin="round"/>
<path d="M21 18H15V19C15 19.9319 15 20.3978 15.1522 20.7654C15.3552 21.2554 15.7446 21.6448 16.2346 21.8478C16.6022 22 17.0681 22 18 22C18.9319 22 19.3978 22 19.7654 21.8478C20.2554 21.6448 20.6448 21.2554 20.8478 20.7654C21 20.3978 21 19.9319 21 19V18Z" stroke="black" stroke-width="2" stroke-linecap="round" stroke-linejoin="round"/>
<path d="M11 5.33333V6.60555C11 7.0873 11 7.32818 10.9629 7.56176C10.92 7.83212 10.8404 8.09533 10.7261 8.34408C10.6273 8.55899 10.4937 8.75941 10.2265 9.16025L9.80616 9.79076L9.80615 9.79078C9.50651 10.2402 9.35669 10.465 9.25056 10.7081C9.15635 10.9239 9.08788 11.15 9.04656 11.3819C9 11.643 9 11.9131 9 12.4533V14H3V7.6C3 7.00635 3 6.70952 3.05573 6.42444C3.10518 6.17147 3.18703 5.92593 3.29925 5.69389C3.42571 5.43238 3.60381 5.19492 3.96 4.72L3.96 4.72L5 3.33333C5.09758 3.20322 5.14637 3.13817 5.19587 3.0788C5.73133 2.43662 6.5105 2.04704 7.34552 2.00398C7.42271 2 7.50403 2 7.66667 2C7.97621 2 8.13098 2 8.26147 2.01142C9.71181 2.1383 10.8617 3.28819 10.9886 4.73853C11 4.86902 11 5.02379 11 5.33333Z" stroke="#808080" stroke-width="2" stroke-linecap="round" stroke-linejoin="round"/>
<path d="M3 14H9V15C9 15.9319 9 16.3978 8.84776 16.7654C8.64477 17.2554 8.25542 17.6448 7.76537 17.8478C7.39782 18 6.93188 18 6 18C5.06812 18 4.60218 18 4.23463 17.8478C3.74458 17.6448 3.35523 17.2554 3.15224 16.7654C3 16.3978 3 15.9319 3 15V14Z" stroke="#808080" stroke-width="2" stroke-linecap="round" stroke-linejoin="round"/>
</svg>
