<svg width="24" height="24" viewBox="0 0 24 24" fill="none" xmlns="http://www.w3.org/2000/svg">
<path fill="black" d="M20 11.25V11.25C20 9.04086 18.2091 7.25 16 7.25H10C8.13623 7.25 7.20435 7.25 6.46927 7.55448C5.48915 7.96046 4.71046 8.73915 4.30448 9.71927C4 10.4544 4 11.3862 4 13.25V13.25C4 15.1138 4 16.0456 4.30448 16.7807C4.71046 17.7608 5.48915 18.5395 6.46927 18.9455C7.20435 19.25 8.13623 19.25 10 19.25H16C18.2091 19.25 20 17.4591 20 15.25V15.25"/>
<path fill="black" d="M15 13.25C15 12.785 15 12.5525 15.0511 12.3618C15.1898 11.8441 15.5941 11.4398 16.1118 11.3011C16.3025 11.25 16.535 11.25 17 11.25H19C19.465 11.25 19.6975 11.25 19.8882 11.3011C20.4059 11.4398 20.8102 11.8441 20.9489 12.3618C21 12.5525 21 12.785 21 13.25V13.25C21 13.715 21 13.9475 20.9489 14.1382C20.8102 14.6559 20.4059 15.0602 19.8882 15.1989C19.6975 15.25 19.465 15.25 19 15.25H17C16.535 15.25 16.3025 15.25 16.1118 15.1989C15.5941 15.0602 15.1898 14.6559 15.0511 14.1382C15 13.9475 15 13.715 15 13.25V13.25Z"/>
<path fill="black" d="M14 7.25V7.25C14 5.59315 12.6569 4.25 11 4.25H9C8.07069 4.25 7.60603 4.25 7.21964 4.32686C5.63288 4.64249 4.39249 5.88288 4.07686 7.46964C4 7.85603 4 8.32069 4 9.25L4 13.25"/>
</svg>
