<svg width="24" height="24" viewBox="0 0 24 24" fill="none" xmlns="http://www.w3.org/2000/svg">
<path fill="black" d="M5 20H21"/>
<path fill="black" d="M18 20V13C18 12.0707 18 11.606 17.9231 11.2196C17.6075 9.63288 16.3671 8.39249 14.7804 8.07686C14.394 8 13.9293 8 13 8V8C12.0707 8 11.606 8 11.2196 8.07686C9.63288 8.39249 8.39249 9.63288 8.07686 11.2196C8 11.606 8 12.0707 8 13V20"/>
<path fill="black" d="M4 4L7 7"/>
<path fill="black" d="M11 3L11 5"/>
<path fill="black" d="M3 11L5 11"/>
<path fill="black" d="M14.9799 13.5881C15 13.4599 15 13.3066 15 13C15 12.6934 15 12.5401 14.9799 12.4119C14.8677 11.6948 14.3052 11.1323 13.5881 11.0201C13.4599 11 13.3066 11 13 11C12.6934 11 12.5401 11 12.4119 11.0201C11.6948 11.1323 11.1323 11.6948 11.0201 12.4119C11 12.5401 11 12.6934 11 13C11 13.3066 11 13.4599 11.0201 13.5881C11.1323 14.3052 11.6948 14.8677 12.4119 14.9799C12.5401 15 12.6934 15 13 15C13.3066 15 13.4599 15 13.5881 14.9799C14.3052 14.8677 14.8677 14.3052 14.9799 13.5881Z"/>
</svg>
