<svg width="24" height="24" viewBox="0 0 24 24" fill="none" xmlns="http://www.w3.org/2000/svg">
<path fill="black" d="M8 12L21 12"/>
<path fill="black" d="M19 8V8C20.0905 9.0905 20.6357 9.63575 20.9272 10.2239C21.4818 11.343 21.4818 12.657 20.9272 13.7761C20.6357 14.3643 20.0905 14.9095 19 16V16"/>
<path fill="black" d="M11 3L9.4 3C7.15979 3 6.03968 3 5.18404 3.43597C4.43139 3.81947 3.81947 4.43139 3.43597 5.18404C3 6.03968 3 7.15979 3 9.4L3 14.6C3 16.8402 3 17.9603 3.43597 18.816C3.81947 19.5686 4.43139 20.1805 5.18404 20.564C6.03968 21 7.15979 21 9.4 21L11 21"/>
</svg>
