<svg width="24" height="24" viewBox="0 0 24 24" fill="none" xmlns="http://www.w3.org/2000/svg">
<path d="M19 8L19 20" stroke="black" stroke-width="2" stroke-linecap="round" stroke-linejoin="round"/>
<path d="M12 3L12 10" stroke="black" stroke-width="2" stroke-linecap="round" stroke-linejoin="round"/>
<path d="M12 14L12 20" stroke="black" stroke-width="2" stroke-linecap="round" stroke-linejoin="round"/>
<path d="M5 4L5 16" stroke="black" stroke-width="2" stroke-linecap="round" stroke-linejoin="round"/>
<path d="M13.9799 12.5881C14 12.4599 14 12.3066 14 12C14 11.6934 14 11.5401 13.9799 11.4119C13.8677 10.6948 13.3052 10.1323 12.5881 10.0201C12.4599 10 12.3066 10 12 10C11.6934 10 11.5401 10 11.4119 10.0201C10.6948 10.1323 10.1323 10.6948 10.0201 11.4119C10 11.5401 10 11.6934 10 12C10 12.3066 10 12.4599 10.0201 12.5881C10.1323 13.3052 10.6948 13.8677 11.4119 13.9799C11.5401 14 11.6934 14 12 14C12.3066 14 12.4599 14 12.5881 13.9799C13.3052 13.8677 13.8677 13.3052 13.9799 12.5881Z" stroke="#808080" stroke-width="2" stroke-linecap="round" stroke-linejoin="round"/>
<path d="M20.9799 6.58814C21 6.45985 21 6.30657 21 6C21 5.69343 21 5.54015 20.9799 5.41186C20.8677 4.69478 20.3052 4.13226 19.5881 4.02007C19.4599 4 19.3066 4 19 4C18.6934 4 18.5401 4 18.4119 4.02007C17.6948 4.13226 17.1323 4.69478 17.0201 5.41186C17 5.54015 17 5.69343 17 6C17 6.30657 17 6.45985 17.0201 6.58814C17.1323 7.30522 17.6948 7.86774 18.4119 7.97993C18.5401 8 18.6934 8 19 8C19.3066 8 19.4599 8 19.5881 7.97993C20.3052 7.86774 20.8677 7.30522 20.9799 6.58814Z" stroke="#808080" stroke-width="2" stroke-linecap="round" stroke-linejoin="round"/>
<path d="M6.97993 18.5881C7 18.4599 7 18.3066 7 18C7 17.6934 7 17.5401 6.97993 17.4119C6.86774 16.6948 6.30522 16.1323 5.58814 16.0201C5.45985 16 5.30657 16 5 16C4.69343 16 4.54015 16 4.41186 16.0201C3.69478 16.1323 3.13226 16.6948 3.02007 17.4119C3 17.5401 3 17.6934 3 18C3 18.3066 3 18.4599 3.02007 18.5881C3.13226 19.3052 3.69478 19.8677 4.41186 19.9799C4.54015 20 4.69343 20 5 20C5.30657 20 5.45985 20 5.58814 19.9799C6.30522 19.8677 6.86774 19.3052 6.97993 18.5881Z" stroke="#808080" stroke-width="2" stroke-linecap="round" stroke-linejoin="round"/>
</svg>
