<svg width="24" height="24" viewBox="0 0 24 24" fill="none" xmlns="http://www.w3.org/2000/svg">
<path d="M14.7071 11.2929L17.3333 8.66667C17.7015 8.29848 18.2985 8.29848 18.6667 8.66667C20.5076 10.5076 20.5076 13.4924 18.6667 15.3333C18.2985 15.7015 17.7015 15.7015 17.3333 15.3333L14.7071 12.7071C14.3166 12.3166 14.3166 11.6834 14.7071 11.2929Z" stroke="black" stroke-width="2" stroke-linecap="round" stroke-linejoin="round"/>
<path d="M11.2929 9.29289L8.66667 6.66667C8.29848 6.29848 8.29848 5.70152 8.66667 5.33333C10.5076 3.49238 13.4924 3.49238 15.3333 5.33333C15.7015 5.70152 15.7015 6.29848 15.3333 6.66667L12.7071 9.29289C12.3166 9.68342 11.6834 9.68342 11.2929 9.29289Z" stroke="black" stroke-width="2" stroke-linecap="round" stroke-linejoin="round"/>
<path d="M9.29289 11.2929L6.66667 8.66667C6.29848 8.29848 5.70152 8.29848 5.33333 8.66667C3.49238 10.5076 3.49238 13.4924 5.33333 15.3333C5.70152 15.7015 6.29848 15.7015 6.66667 15.3333L9.29289 12.7071C9.68342 12.3166 9.68342 11.6834 9.29289 11.2929Z" stroke="black" stroke-width="2" stroke-linecap="round" stroke-linejoin="round"/>
<path d="M11.2929 14.7071L8.66667 17.3333C8.29848 17.7015 8.29848 18.2985 8.66667 18.6667C10.5076 20.5076 13.4924 20.5076 15.3333 18.6667C15.7015 18.2985 15.7015 17.7015 15.3333 17.3333L12.7071 14.7071C12.3166 14.3166 11.6834 14.3166 11.2929 14.7071Z" stroke="black" stroke-width="2" stroke-linecap="round" stroke-linejoin="round"/>
</svg>
