<svg width="24" height="24" viewBox="0 0 24 24" fill="none" xmlns="http://www.w3.org/2000/svg">
<path fill="black" d="M9.8 8.89999L7.24689 21.7567C7.19495 22.0183 7.16899 22.149 7.17643 22.2557C7.20011 22.5952 7.43603 22.8826 7.76445 22.9719C7.86759 23 8.00091 23 8.26754 23C8.45014 23 8.54144 23 8.62122 22.9836C8.87237 22.9319 9.08354 22.763 9.18909 22.5293C9.22261 22.4551 9.24265 22.366 9.28274 22.1878L10.9 15L11.5103 15.5813C12.0595 16.1043 12.3341 16.3659 12.5308 16.6748C12.7051 16.9486 12.8338 17.249 12.9119 17.5641C13 17.9195 13 18.2987 13 19.0571V22C13 22.1859 13 22.2788 13.0154 22.3561C13.0785 22.6734 13.3266 22.9215 13.6439 22.9846C13.7212 23 13.8141 23 14 23H14.3598C14.7134 23 15 22.7133 15 22.3598V17.9312C15 16.3787 14.3637 14.894 13.2395 13.8233C13.0281 13.622 12.9347 13.3265 12.9919 13.0403L13.5 10.5C14.6005 11.7698 16.2026 12.6813 18.0031 12.9312C18.1177 12.9471 18.175 12.955 18.2605 12.9485C18.5831 12.9241 18.9132 12.6366 18.9818 12.3204C19 12.2366 19 12.1577 19 12C19 11.7926 19 11.6889 18.9881 11.6206C18.9325 11.3019 18.786 11.1246 18.4835 11.01C18.4187 10.9855 18.2811 10.959 18.0057 10.9062C16.5497 10.6269 15.356 9.74791 14.7 8.6L13.7 7C13.14 6.11 12.02 5.75 11.05 6.16L9.48548 6.82298C9.06603 7.00073 8.85631 7.0896 8.671 7.18714C7.16068 7.98217 6.16023 9.49269 6.01751 11.1935C6 11.4022 6 11.63 6 12.0855C6 12.1918 6 12.245 6.00505 12.2897C6.0469 12.6605 6.3395 12.9531 6.71027 12.9949C6.75499 13 6.80816 13 6.91449 13H7.04635C7.18909 13 7.26045 13 7.32022 12.9909C7.6665 12.9383 7.93828 12.6665 7.99092 12.3202C8 12.2604 8 12.1891 8 12.0463V11.5313C8 10.367 8.71481 9.32201 9.8 8.89999Z"/>
<rect fill="black" x="11" y="1" width="4" height="4" rx="1.67"/>
</svg>
