<svg width="24" height="24" viewBox="0 0 24 24" fill="none" xmlns="http://www.w3.org/2000/svg">
<rect x="9" y="9" width="6" height="6" rx="2.5" stroke="black" stroke-width="2" stroke-linecap="round" stroke-linejoin="round"/>
<path d="M6.18614 5.0859L5.47903 4.37879L6.18614 5.0859ZM5.0858 17.8137L4.37869 18.5208L5.0858 17.8137ZM6.18619 18.9141L6.8933 18.207L6.18619 18.9141ZM17.8136 18.9143L18.5207 19.6214L17.8136 18.9143ZM18.9142 17.8137L19.6213 18.5208L18.9142 17.8137ZM12.7787 2H11.2224V4H12.7787V2ZM19.6213 5.47915L18.5207 4.37854L17.1065 5.79275L18.2071 6.89337L19.6213 5.47915ZM22 12.7782V11.2218H20V12.7782H22ZM18.2071 17.1066L17.1064 18.2072L18.5207 19.6214L19.6213 18.5208L18.2071 17.1066ZM11.2224 22H12.7787V20H11.2224V22ZM4.37869 18.5208L5.47909 19.6212L6.8933 18.207L5.79291 17.1066L4.37869 18.5208ZM2 11.2218V12.7782H4V11.2218H2ZM5.79288 6.89337L6.89324 5.793L5.47903 4.37879L4.37866 5.47916L5.79288 6.89337ZM7.20725 5.79303C8.60687 7.19266 11.0004 6.20168 11.0004 4.22195H9.00043C9.00043 4.28545 8.98333 4.32285 8.96533 4.3484C8.94412 4.37849 8.9096 4.40783 8.86342 4.42695C8.81725 4.44607 8.77207 4.44974 8.73577 4.44345C8.70493 4.43811 8.66637 4.42373 8.62146 4.37882L7.20725 5.79303ZM6.89324 5.793C6.97991 5.70634 7.12051 5.7063 7.20725 5.79303L8.62146 4.37882C7.75374 3.5111 6.34681 3.51101 5.47903 4.37879L6.89324 5.793ZM5.79288 7.2071C5.70624 7.12046 5.70625 6.98 5.79288 6.89337L4.37866 5.47916C3.51098 6.34684 3.51099 7.75364 4.37867 8.62131L5.79288 7.2071ZM4.22182 11C6.20129 11 7.19253 8.60675 5.79288 7.2071L4.37867 8.62131C4.42355 8.6662 4.43792 8.70473 4.44325 8.73553C4.44953 8.77178 4.44587 8.81692 4.42675 8.86307C4.40764 8.90921 4.37832 8.94372 4.34824 8.96491C4.3227 8.98291 4.2853 9 4.22182 9L4.22182 11ZM4 11.2218C4 11.0993 4.09931 11 4.22182 11L4.22182 9C2.99474 9 2 9.99474 2 11.2218H4ZM4.22183 13C4.09931 13 4 12.9007 4 12.7782H2C2 14.0053 2.99476 15 4.22183 15V13ZM5.79291 16.7929C7.19259 15.3932 6.20123 13 4.22183 13V15C4.28531 15 4.32271 15.0171 4.34826 15.0351C4.37833 15.0563 4.40766 15.0908 4.42677 15.1369C4.44589 15.1831 4.44955 15.2282 4.44327 15.2645C4.43794 15.2953 4.42358 15.3338 4.37869 15.3787L5.79291 16.7929ZM5.79291 17.1066C5.70628 17.0199 5.70628 16.8795 5.79291 16.7929L4.37869 15.3787C3.51102 16.2463 3.51102 17.6531 4.37869 18.5208L5.79291 17.1066ZM7.20727 18.2069C7.12055 18.2937 6.97997 18.2936 6.8933 18.207L5.47909 19.6212C6.34685 20.4889 7.75376 20.4889 8.62148 19.6212L7.20727 18.2069ZM11.0004 19.778C11.0004 17.7984 8.60693 16.8073 7.20727 18.2069L8.62148 19.6212C8.66639 19.5762 8.70495 19.5619 8.73578 19.5565C8.77208 19.5502 8.81725 19.5539 8.86342 19.573C8.90959 19.5922 8.94412 19.6215 8.96532 19.6516C8.98333 19.6771 9.00043 19.7146 9.00043 19.778H11.0004ZM11.2224 20C11.0998 20 11.0004 19.9006 11.0004 19.778H9.00043C9.00043 21.0052 9.99523 22 11.2224 22V20ZM13.0004 19.7783C13.0004 19.9007 12.9011 20 12.7787 20V22C14.0058 22 15.0004 21.0052 15.0004 19.7783H13.0004ZM16.793 18.2072C15.3933 16.8075 13.0004 17.7992 13.0004 19.7783H15.0004C15.0004 19.7148 15.0175 19.6774 15.0355 19.6519C15.0567 19.6218 15.0912 19.5925 15.1373 19.5734C15.1834 19.5543 15.2285 19.5507 15.2647 19.5569C15.2955 19.5622 15.3339 19.5766 15.3788 19.6214L16.793 18.2072ZM17.1064 18.2072C17.0199 18.2938 16.8796 18.2938 16.793 18.2072L15.3788 19.6214C16.2464 20.489 17.6531 20.489 18.5207 19.6214L17.1064 18.2072ZM18.2071 16.7929C18.2937 16.8795 18.2937 17.0199 18.2071 17.1066L19.6213 18.5208C20.489 17.6531 20.489 16.2463 19.6213 15.3787L18.2071 16.7929ZM19.7782 13C17.7988 13 16.8074 15.3932 18.2071 16.7929L19.6213 15.3787C19.5764 15.3338 19.5621 15.2953 19.5567 15.2645C19.5504 15.2282 19.5541 15.1831 19.5732 15.1369C19.5923 15.0908 19.6217 15.0563 19.6517 15.0351C19.6773 15.0171 19.7147 15 19.7782 15V13ZM20 12.7782C20 12.9007 19.9007 13 19.7782 13V15C21.0052 15 22 14.0053 22 12.7782H20ZM19.7782 11C19.9007 11 20 11.0993 20 11.2218H22C22 9.99475 21.0053 9 19.7782 9V11ZM18.2071 7.20709C16.8075 8.60675 17.7987 11 19.7782 11V9C19.7147 9 19.6773 8.98291 19.6518 8.96491C19.6217 8.94372 19.5924 8.90921 19.5732 8.86307C19.5541 8.81692 19.5505 8.77178 19.5567 8.73552C19.5621 8.70473 19.5764 8.6662 19.6213 8.62131L18.2071 7.20709ZM18.2071 6.89337C18.2937 6.98 18.2938 7.12046 18.2071 7.20709L19.6213 8.62131C20.489 7.75363 20.489 6.34684 19.6213 5.47915L18.2071 6.89337ZM16.793 5.79275C16.8796 5.70619 17.0199 5.70619 17.1065 5.79275L18.5207 4.37854C17.6531 3.51093 16.2464 3.51093 15.3788 4.37854L16.793 5.79275ZM13.0004 4.22173C13.0004 6.20089 15.3934 7.19241 16.793 5.79275L15.3788 4.37854C15.334 4.42339 15.2955 4.43773 15.2647 4.44306C15.2285 4.44933 15.1834 4.44567 15.1373 4.42656C15.0912 4.40746 15.0567 4.37815 15.0355 4.34808C15.0175 4.32255 15.0004 4.28517 15.0004 4.22173H13.0004ZM11.2224 2C9.99523 2 9.00043 2.9948 9.00043 4.22195H11.0004C11.0004 4.09937 11.0998 4 11.2224 4V2ZM12.7787 4C12.9011 4 13.0004 4.09926 13.0004 4.22173H15.0004C15.0004 2.99475 14.0058 2 12.7787 2V4Z" fill="black"/>
</svg>
