<svg width="24" height="24" viewBox="0 0 24 24" fill="none" xmlns="http://www.w3.org/2000/svg">
<path d="M21 12H19.6206C18.3228 12 17.6739 12 17.1286 11.7773C16.6473 11.5807 16.2253 11.2624 15.9041 10.8537C15.5401 10.3905 15.3619 9.76657 15.0053 8.51866L14.2362 5.82686C14.0964 5.33743 13.6491 5 13.1401 5V5C12.5104 5 12 5.51042 12 6.14005V12" stroke="black" stroke-width="2" stroke-linecap="round" stroke-linejoin="round"/>
<path d="M3 12H4.37935C5.6772 12 6.32612 12 6.87141 12.2227C7.35271 12.4193 7.77467 12.7376 8.0959 13.1463C8.45985 13.6095 8.63812 14.2334 8.99467 15.4813L9.76375 18.1731C9.90359 18.6626 10.3509 19 10.8599 19V19C11.4896 19 12 18.4896 12 17.8599V12" stroke="black" stroke-width="2" stroke-linecap="round" stroke-linejoin="round"/>
</svg>
