<svg width="24" height="24" viewBox="0 0 24 24" fill="none" xmlns="http://www.w3.org/2000/svg">
<path d="M10.8978 13.7765C11 13.395 11 12.93 11 12C11 11.07 11 10.605 10.8978 10.2235C10.6204 9.18827 9.81173 8.37962 8.77646 8.10222C8.39496 8 7.92997 8 7 8C6.07003 8 5.60504 8 5.22354 8.10222C4.18827 8.37962 3.37962 9.18827 3.10222 10.2235C3 10.605 3 11.07 3 12C3 12.93 3 13.395 3.10222 13.7765C3.37962 14.8117 4.18827 15.6204 5.22354 15.8978C5.60504 16 6.07003 16 7 16C7.92997 16 8.39496 16 8.77646 15.8978C9.81173 15.6204 10.6204 14.8117 10.8978 13.7765Z" stroke="black" stroke-width="2" stroke-linecap="round" stroke-linejoin="round"/>
<path d="M11 12H21" stroke="black" stroke-width="2" stroke-linecap="round" stroke-linejoin="round"/>
<circle cx="7" cy="12" r="1" fill="black"/>
<path d="M16 15V12" stroke="black" stroke-width="2" stroke-linecap="round" stroke-linejoin="round"/>
<path d="M19 15V12" stroke="black" stroke-width="2" stroke-linecap="round" stroke-linejoin="round"/>
</svg>
