<svg width="24" height="24" viewBox="0 0 24 24" fill="none" xmlns="http://www.w3.org/2000/svg">
<path fill="black" d="M14 3H10V8C10 8.55228 9.55228 9 9 9V9C6.79086 9 5 10.7909 5 13V15C5 16.8638 5 17.7956 5.30448 18.5307C5.71046 19.5108 6.48915 20.2895 7.46927 20.6955C8.20435 21 9.13623 21 11 21H13C14.8638 21 15.7956 21 16.5307 20.6955C17.5108 20.2895 18.2895 19.5108 18.6955 18.5307C19 17.7956 19 16.8638 19 15V13C19 10.7909 17.2091 9 15 9V9C14.4477 9 14 8.55228 14 8V3Z"/>
<path fill="black" d="M6 13H18"/>
<path fill="black" d="M8 3L16 3"/>
</svg>
