<svg width="24" height="24" viewBox="0 0 24 24" fill="none" xmlns="http://www.w3.org/2000/svg">
<rect x="10" y="2" width="4" height="4" rx="1.67" fill="black"/>
<path d="M14 14C13.4477 14 13 14.4477 13 15V20C13 20.5523 12.5523 21 12 21C11.4477 21 11 20.5523 11 20V15C11 14.4477 10.5523 14 10 14C9.44772 14 9 13.5523 9 13V11C9 10.0056 9.00859 9.70464 9.06815 9.48236C9.25308 8.79218 9.79218 8.25308 10.4824 8.06815C10.7046 8.00859 11.0056 8 12 8C12.9944 8 13.2954 8.00859 13.5176 8.06815C14.2078 8.25308 14.7469 8.79218 14.9319 9.48236C14.9914 9.70464 15 10.0056 15 11V13C15 13.5523 14.5523 14 14 14Z" stroke="black" stroke-width="2" stroke-linecap="round" stroke-linejoin="round"/>
</svg>
