<svg width="24" height="24" viewBox="0 0 24 24" fill="none" xmlns="http://www.w3.org/2000/svg">
<path fill="black" d="M6 12V16C6 16.9293 6 17.394 6.07686 17.7804C6.39249 19.3671 7.63288 20.6075 9.21964 20.9231C9.60603 21 10.0707 21 11 21V21C11.9293 21 12.394 21 12.7804 20.9231C14.3671 20.6075 15.6075 19.3671 15.9231 17.7804C16 17.394 16 16.9293 16 16V13"/>
<path fill="black" d="M14 3.17071C12.8348 3.58254 12 4.69378 12 6V9C12 9.92997 12 10.395 12.1022 10.7765C12.3796 11.8117 13.1883 12.6204 14.2235 12.8978C14.605 13 15.07 13 16 13C16.93 13 17.395 13 17.7765 12.8978C18.8117 12.6204 19.6204 11.8117 19.8978 10.7765C20 10.395 20 9.92997 20 9V6C20 4.69378 19.1652 3.58254 18 3.17071"/>
<path fill="black" d="M7.97993 9.58814C8 9.45985 8 9.30657 8 9C8 8.69343 8 8.54015 7.97993 8.41186C7.86774 7.69478 7.30522 7.13226 6.58814 7.02007C6.45985 7 6.30657 7 6 7C5.69343 7 5.54015 7 5.41186 7.02007C4.69478 7.13226 4.13226 7.69478 4.02007 8.41186C4 8.54015 4 8.69343 4 9C4 9.30657 4 9.45985 4.02007 9.58814C4.13226 10.3052 4.69478 10.8677 5.41186 10.9799C5.54015 11 5.69343 11 6 11C6.30657 11 6.45985 11 6.58814 10.9799C7.30522 10.8677 7.86774 10.3052 7.97993 9.58814Z"/>
</svg>
