<svg width="24" height="24" viewBox="0 0 24 24" fill="none" xmlns="http://www.w3.org/2000/svg">
<path d="M5 10V16.1471C5 17.7674 5 18.5776 5.34114 19.0841C5.63933 19.5269 6.10215 19.8321 6.62658 19.9318C7.22653 20.0458 7.97511 19.725 9.47228 19.0833L9.4723 19.0833C10.4062 18.6831 10.8731 18.4829 11.355 18.4042C11.7822 18.3344 12.2178 18.3344 12.645 18.4042C13.1269 18.4829 13.5938 18.6831 14.5277 19.0833L14.5277 19.0833C16.0249 19.725 16.7735 20.0458 17.3734 19.9318C17.8979 19.8321 18.3607 19.5269 18.6589 19.0841C19 18.5776 19 17.7674 19 16.1471V10C19 9.07116 19 8.60674 18.9487 8.21684C18.5942 5.52444 16.4756 3.40579 13.7832 3.05133C13.3933 3 12.9288 3 12 3C11.0712 3 10.6067 3 10.2168 3.05133C7.52444 3.40579 5.40579 5.52444 5.05133 8.21684C5 8.60674 5 9.07116 5 10Z" stroke="black" stroke-width="2" stroke-linecap="round" stroke-linejoin="round"/>
<rect x="10" y="7" width="4" height="4" rx="1.67" stroke="black" stroke-width="2" stroke-linecap="round" stroke-linejoin="round"/>
</svg>
