<svg width="24" height="24" viewBox="0 0 24 24" fill="none" xmlns="http://www.w3.org/2000/svg">
<path d="M13.9799 13.5881C14 13.4599 14 13.3066 14 13C14 12.6934 14 12.5401 13.9799 12.4119C13.8677 11.6948 13.3052 11.1323 12.5881 11.0201C12.4599 11 12.3066 11 12 11C11.6934 11 11.5401 11 11.4119 11.0201C10.6948 11.1323 10.1323 11.6948 10.0201 12.4119C10 12.5401 10 12.6934 10 13C10 13.3066 10 13.4599 10.0201 13.5881C10.1323 14.3052 10.6948 14.8677 11.4119 14.9799C11.5401 15 11.6934 15 12 15C12.3066 15 12.4599 15 12.5881 14.9799C13.3052 14.8677 13.8677 14.3052 13.9799 13.5881Z" stroke="#808080" stroke-width="2" stroke-linecap="round" stroke-linejoin="round"/>
<path d="M8 20V20C8 19.07 8 18.605 8.10222 18.2235C8.37962 17.1883 9.18827 16.3796 10.2235 16.1022C10.605 16 11.07 16 12 16V16C12.93 16 13.395 16 13.7765 16.1022C14.8117 16.3796 15.6204 17.1883 15.8978 18.2235C16 18.605 16 19.07 16 20V20" stroke="#808080" stroke-width="2" stroke-linecap="round" stroke-linejoin="round"/>
<path d="M3.45672 17.2961C3 16.1935 3 14.7956 3 12C3 9.20435 3 7.80653 3.45672 6.7039C4.06569 5.23373 5.23373 4.06569 6.7039 3.45672C7.80653 3 9.20435 3 12 3C14.7956 3 16.1935 3 17.2961 3.45672C18.7663 4.06569 19.9343 5.23373 20.5433 6.7039C21 7.80653 21 9.20435 21 12C21 14.7956 21 16.1935 20.5433 17.2961C19.9343 18.7663 18.7663 19.9343 17.2961 20.5433C16.1935 21 14.7956 21 12 21C9.20435 21 7.80653 21 6.7039 20.5433C5.23373 19.9343 4.06569 18.7663 3.45672 17.2961Z" stroke="black" stroke-width="2" stroke-linecap="round" stroke-linejoin="round"/>
<circle cx="7" cy="7" r="1" fill="black"/>
<circle cx="10" cy="7" r="1" fill="black"/>
<circle cx="17" cy="7" r="1" fill="black"/>
</svg>
