<svg width="24" height="24" viewBox="0 0 24 24" fill="none" xmlns="http://www.w3.org/2000/svg">
<rect x="8" y="9" width="8" height="8" rx="4" stroke="black" stroke-width="2" stroke-linecap="round" stroke-linejoin="round"/>
<path d="M3 13V11C3 8.23858 5.23858 6 8 6C8.55228 6 9 5.55228 9 5C9 3.89543 9.89543 3 11 3H13C14.1046 3 15 3.89543 15 5C15 5.55228 15.4477 6 16 6C18.7614 6 21 8.23858 21 11V13C21 14.8613 21 15.7919 20.7553 16.5451C20.2607 18.0673 19.0673 19.2607 17.5451 19.7553C16.7919 20 15.8613 20 14 20H10C8.13872 20 7.20808 20 6.45492 19.7553C4.93273 19.2607 3.73931 18.0673 3.24472 16.5451C3 15.7919 3 14.8613 3 13Z" stroke="black" stroke-width="2" stroke-linecap="round" stroke-linejoin="round"/>
</svg>
