<svg width="24" height="24" viewBox="0 0 24 24" fill="none" xmlns="http://www.w3.org/2000/svg">
<path fill="black" d="M18.2686 11.7314L15.3941 14.6059C14.2061 15.7939 13.612 16.388 12.9271 16.6105C12.3245 16.8063 11.6755 16.8063 11.0729 16.6105C10.388 16.388 9.79394 15.7939 8.60589 14.6059L5.73137 11.7314C4.87462 10.8746 4.44624 10.4462 4.4173 10.0785C4.39218 9.75934 4.52136 9.44749 4.76477 9.23959C5.04529 9 5.65111 9 6.86274 9H17.1373C18.3489 9 18.9547 9 19.2352 9.23959C19.4786 9.44749 19.6078 9.75934 19.5827 10.0785C19.5538 10.4462 19.1254 10.8746 18.2686 11.7314Z"/>
</svg>
