<svg width="24" height="24" viewBox="0 0 24 24" fill="none" xmlns="http://www.w3.org/2000/svg">
<path d="M9 9L15 15" stroke="#808080" stroke-width="2" stroke-linecap="round" stroke-linejoin="round"/>
<path d="M5.49988 18.5C4.682 17.6821 4.27307 17.2732 4.05446 16.832C3.63854 15.9927 3.63854 15.0073 4.05446 14.168C4.27307 13.7268 4.682 13.3179 5.49988 12.5L12.4999 5.5C13.3178 4.68213 13.7267 4.27319 14.1678 4.05458C15.0072 3.63866 15.9926 3.63866 16.8319 4.05458C17.2731 4.27319 17.682 4.68213 18.4999 5.5V5.5C19.3178 6.31787 19.7267 6.72681 19.9453 7.16795C20.3612 8.00728 20.3612 8.99272 19.9453 9.83205C19.7267 10.2732 19.3178 10.6821 18.4999 11.5L11.4999 18.5C10.682 19.3179 10.2731 19.7268 9.83193 19.9454C8.9926 20.3613 8.00716 20.3613 7.16783 19.9454C6.72669 19.7268 6.31775 19.3179 5.49988 18.5V18.5Z" stroke="black" stroke-width="2" stroke-linecap="round" stroke-linejoin="round"/>
</svg>
