<svg width="24" height="24" viewBox="0 0 24 24" fill="none" xmlns="http://www.w3.org/2000/svg">
<path d="M17.9799 19.5881C18 19.4599 18 19.3066 18 19C18 18.6934 18 18.5401 17.9799 18.4119C17.8677 17.6948 17.3052 17.1323 16.5881 17.0201C16.4599 17 16.3066 17 16 17C15.6934 17 15.5401 17 15.4119 17.0201C14.6948 17.1323 14.1323 17.6948 14.0201 18.4119C14 18.5401 14 18.6934 14 19C14 19.3066 14 19.4599 14.0201 19.5881C14.1323 20.3052 14.6948 20.8677 15.4119 20.9799C15.5401 21 15.6934 21 16 21C16.3066 21 16.4599 21 16.5881 20.9799C17.3052 20.8677 17.8677 20.3052 17.9799 19.5881Z" stroke="black" stroke-width="2" stroke-linecap="round" stroke-linejoin="round"/>
<path d="M10 5V5C10 4.69343 10 4.54015 10.0201 4.41186C10.1323 3.69478 10.6948 3.13226 11.4119 3.02007C11.5401 3 11.6934 3 12 3V3C12.3066 3 12.4599 3 12.5881 3.02007C13.3052 3.13226 13.8677 3.69478 13.9799 4.41186C14 4.54015 14 4.69343 14 5V5" stroke="black" stroke-width="2" stroke-linecap="round" stroke-linejoin="round"/>
<path d="M9.97993 19.5881C10 19.4599 10 19.3066 10 19C10 18.6934 10 18.5401 9.97993 18.4119C9.86774 17.6948 9.30522 17.1323 8.58814 17.0201C8.45985 17 8.30657 17 8 17C7.69343 17 7.54015 17 7.41186 17.0201C6.69478 17.1323 6.13226 17.6948 6.02007 18.4119C6 18.5401 6 18.6934 6 19C6 19.3066 6 19.4599 6.02007 19.5881C6.13226 20.3052 6.69478 20.8677 7.41186 20.9799C7.54015 21 7.69343 21 8 21C8.30657 21 8.45985 21 8.58814 20.9799C9.30522 20.8677 9.86774 20.3052 9.97993 19.5881Z" stroke="black" stroke-width="2" stroke-linecap="round" stroke-linejoin="round"/>
<path d="M14 19H10M18 19V19C19.6569 19 21 17.6569 21 16V12.4C21 10.1598 21 9.03968 20.564 8.18404C20.1805 7.43139 19.5686 6.81947 18.816 6.43597C17.9603 6 16.8402 6 14.6 6H9.4C7.15979 6 6.03968 6 5.18404 6.43597C4.43139 6.81947 3.81947 7.43139 3.43597 8.18404C3 9.03968 3 10.1598 3 12.4V16C3 17.6569 4.34315 19 6 19V19" stroke="black" stroke-width="2" stroke-linecap="round" stroke-linejoin="round"/>
<path d="M9 10V14" stroke="#808080" stroke-width="2" stroke-linecap="round" stroke-linejoin="round"/>
<path d="M11 12L7 12" stroke="#808080" stroke-width="2" stroke-linecap="round" stroke-linejoin="round"/>
<path d="M15 6V8.2C15 9.88016 15 10.7202 15.327 11.362C15.6146 11.9265 16.0735 12.3854 16.638 12.673C17.2798 13 18.1198 13 19.8 13H21" stroke="black" stroke-width="2" stroke-linecap="round" stroke-linejoin="round"/>
</svg>
