<svg width="24" height="24" viewBox="0 0 24 24" fill="none" xmlns="http://www.w3.org/2000/svg">
<path d="M13.9799 15.5881C14 15.4599 14 15.3066 14 15C14 14.6934 14 14.5401 13.9799 14.4119C13.8677 13.6948 13.3052 13.1323 12.5881 13.0201C12.4599 13 12.3066 13 12 13C11.6934 13 11.5401 13 11.4119 13.0201C10.6948 13.1323 10.1323 13.6948 10.0201 14.4119C10 14.5401 10 14.6934 10 15C10 15.3066 10 15.4599 10.0201 15.5881C10.1323 16.3052 10.6948 16.8677 11.4119 16.9799C11.5401 17 11.6934 17 12 17C12.3066 17 12.4599 17 12.5881 16.9799C13.3052 16.8677 13.8677 16.3052 13.9799 15.5881Z" stroke="black" stroke-width="2" stroke-linecap="round" stroke-linejoin="round"/>
<path d="M9 6V5.672C9 4.73671 9 4.26907 9.18202 3.91184C9.34213 3.59761 9.59761 3.34213 9.91184 3.18202C10.2691 3 10.7367 3 11.672 3H12.328C13.2633 3 13.7309 3 14.0882 3.18202C14.4024 3.34213 14.6579 3.59761 14.818 3.91184C15 4.26907 15 4.73671 15 5.672V6" stroke="black" stroke-width="2" stroke-linecap="round" stroke-linejoin="round"/>
<path d="M5 6H19" stroke="black" stroke-width="2" stroke-linecap="round" stroke-linejoin="round"/>
<path d="M6 6V15C6 16.8638 6 17.7956 6.30448 18.5307C6.71046 19.5108 7.48915 20.2895 8.46927 20.6955C9.20435 21 10.1362 21 12 21V21C13.8638 21 14.7956 21 15.5307 20.6955C16.5108 20.2895 17.2895 19.5108 17.6955 18.5307C18 17.7956 18 16.8638 18 15V6" stroke="black" stroke-width="2" stroke-linecap="round" stroke-linejoin="round"/>
</svg>
