<svg width="24" height="24" viewBox="0 0 24 24" fill="none" xmlns="http://www.w3.org/2000/svg">
<path d="M4 8L7.5 11.5C8.04525 12.0452 8.31787 12.3179 8.61197 12.4636C9.17152 12.7409 9.82848 12.7409 10.388 12.4636C10.6821 12.3179 10.9548 12.0452 11.5 11.5V11.5C12.0452 10.9548 12.3179 10.6821 12.612 10.5364C13.1715 10.2591 13.8285 10.2591 14.388 10.5364C14.6821 10.6821 14.9548 10.9548 15.5 11.5L20 16" stroke="black" stroke-width="2" stroke-linecap="round" stroke-linejoin="round"/>
<path d="M15 17H16.2C17.8802 17 18.7202 17 19.362 16.673C19.9265 16.3854 20.3854 15.9265 20.673 15.362C21 14.7202 21 13.8802 21 12.2V11" stroke="black" stroke-width="2" stroke-linecap="round" stroke-linejoin="round"/>
</svg>
