<svg width="24" height="24" viewBox="0 0 24 24" fill="none" xmlns="http://www.w3.org/2000/svg">
<rect fill="black" x="14" y="5" width="4" height="4" rx="1.67"/>
<rect fill="black" width="4" height="4" rx="1.67" transform="matrix(-1 0 0 1 10 5)"/>
<rect fill="black" x="10" y="11" width="4" height="4" rx="1.67"/>
<path fill="black" d="M16 9H17C17.93 9 18.395 9 18.7765 9.10222C19.8117 9.37962 20.6204 10.1883 20.8978 11.2235C21 11.605 21 12.07 21 13V13"/>
<path fill="black" d="M8 9H7C6.07003 9 5.60504 9 5.22354 9.10222C4.18827 9.37962 3.37962 10.1883 3.10222 11.2235C3 11.605 3 12.07 3 13V13"/>
<path fill="black" d="M7 20V20C7 19.07 7 18.605 7.10222 18.2235C7.37962 17.1883 8.18827 16.3796 9.22354 16.1022C9.60504 16 10.07 16 11 16H13C13.93 16 14.395 16 14.7765 16.1022C15.8117 16.3796 16.6204 17.1883 16.8978 18.2235C17 18.605 17 19.07 17 20V20"/>
</svg>
