<svg width="24" height="24" viewBox="0 0 24 24" fill="none" xmlns="http://www.w3.org/2000/svg">
<rect fill="black" x="5" y="5" width="14" height="14" rx="5"/>
<path fill="black" d="M21 9L19 9"/>
<path fill="black" d="M21 15L19 15"/>
<path fill="black" d="M5 9L3 9"/>
<path fill="black" d="M5 15L3 15"/>
<path fill="black" d="M5 12L3 12"/>
<path fill="black" d="M21 12L19 12"/>
<path fill="black" d="M9 3.00002L9 5.00002"/>
<path fill="black" d="M15 3.00002L15 5.00002"/>
<path fill="black" d="M12 19L12 21"/>
<path fill="black" d="M12 3.00002L12 5.00002"/>
<path fill="black" d="M9 19L9 21"/>
<path fill="black" d="M15 19L15 21"/>
<path fill="black" d="M13.9799 12.5881C14 12.4599 14 12.3066 14 12C14 11.6934 14 11.5401 13.9799 11.4119C13.8677 10.6948 13.3052 10.1323 12.5881 10.0201C12.4599 10 12.3066 10 12 10C11.6934 10 11.5401 10 11.4119 10.0201C10.6948 10.1323 10.1323 10.6948 10.0201 11.4119C10 11.5401 10 11.6934 10 12C10 12.3066 10 12.4599 10.0201 12.5881C10.1323 13.3052 10.6948 13.8677 11.4119 13.9799C11.5401 14 11.6934 14 12 14C12.3066 14 12.4599 14 12.5881 13.9799C13.3052 13.8677 13.8677 13.3052 13.9799 12.5881Z"/>
</svg>
