<svg width="24" height="24" viewBox="0 0 24 24" fill="none" xmlns="http://www.w3.org/2000/svg">
<path d="M19 10H18" stroke="black" stroke-width="2" stroke-linecap="round" stroke-linejoin="round"/>
<path d="M19 15H18" stroke="black" stroke-width="2" stroke-linecap="round" stroke-linejoin="round"/>
<rect x="6" y="6" width="12" height="12" rx="4" stroke="black" stroke-width="2" stroke-linecap="round" stroke-linejoin="round"/>
<path d="M8 6V6C8 5.06812 8 4.60218 8.15224 4.23463C8.35523 3.74458 8.74458 3.35523 9.23463 3.15224C9.60218 3 10.0681 3 11 3L13 3C13.9319 3 14.3978 3 14.7654 3.15224C15.2554 3.35523 15.6448 3.74458 15.8478 4.23463C16 4.60218 16 5.06812 16 6V6" stroke="black" stroke-width="2" stroke-linecap="round" stroke-linejoin="round"/>
<path d="M8 18V18C8 18.9319 8 19.3978 8.15224 19.7654C8.35523 20.2554 8.74458 20.6448 9.23463 20.8478C9.60218 21 10.0681 21 11 21L13 21C13.9319 21 14.3978 21 14.7654 20.8478C15.2554 20.6448 15.6448 20.2554 15.8478 19.7654C16 19.3978 16 18.9319 16 18V18" stroke="black" stroke-width="2" stroke-linecap="round" stroke-linejoin="round"/>
<path d="M10 12H14" stroke="#808080" stroke-width="2" stroke-linecap="round" stroke-linejoin="round"/>
<path d="M12 10L12 14" stroke="#808080" stroke-width="2" stroke-linecap="round" stroke-linejoin="round"/>
</svg>
