<svg width="24" height="24" viewBox="0 0 24 24" fill="none" xmlns="http://www.w3.org/2000/svg">
<path d="M4 4L5 5" stroke="black" stroke-width="2" stroke-linecap="round" stroke-linejoin="round"/>
<path d="M19 19L20 20" stroke="black" stroke-width="2" stroke-linecap="round" stroke-linejoin="round"/>
<path d="M9 9L15 15" stroke="black" stroke-width="2" stroke-linecap="round" stroke-linejoin="round"/>
<path d="M7.50023 3.50008L3.50022 7.49995L3.50022 7.49996C3.09122 7.90894 2.88673 8.11343 2.77742 8.33402C2.56948 8.75367 2.56947 9.24635 2.7774 9.66599C2.88671 9.88659 3.09121 10.0911 3.50019 10.5001C3.90918 10.9091 4.11367 11.1135 4.33427 11.2229C4.75391 11.4308 5.24658 11.4308 5.66622 11.2229C5.88682 11.1135 6.09131 10.9091 6.50029 10.5001L8.50024 8.50012L10.5002 6.50014C10.9092 6.09119 11.1137 5.88671 11.223 5.66613C11.4309 5.24648 11.4309 4.75377 11.223 4.33411C11.1137 4.11353 10.9092 3.90906 10.5002 3.50011C10.0913 3.09117 9.88682 2.88669 9.66624 2.77739C9.24659 2.56944 8.75389 2.56943 8.33423 2.77738C8.11366 2.88668 7.90918 3.09115 7.50023 3.50008Z" stroke="black" stroke-width="2" stroke-linecap="round" stroke-linejoin="round"/>
<path d="M16.5003 20.5001L20.5002 16.5001C20.9092 16.0912 21.1137 15.8867 21.223 15.6661C21.4309 15.2465 21.4309 14.7538 21.223 14.3341C21.1137 14.1135 20.9092 13.9091 20.5002 13.5001C20.0913 13.0912 19.8868 12.8867 19.6662 12.7774C19.2466 12.5694 18.7539 12.5694 18.3342 12.7774C18.1137 12.8867 17.9092 13.0911 17.5002 13.5001L13.5002 17.5L13.5002 17.5C13.0912 17.9089 12.8867 18.1134 12.7774 18.334C12.5695 18.7537 12.5695 19.2463 12.7774 19.666C12.8867 19.8866 13.0912 20.0911 13.5002 20.5001C13.9092 20.9091 14.1137 21.1135 14.3343 21.2229C14.7539 21.4308 15.2466 21.4308 15.6662 21.2229C15.8868 21.1135 16.0913 20.9091 16.5003 20.5001Z" stroke="black" stroke-width="2" stroke-linecap="round" stroke-linejoin="round"/>
</svg>
