<svg width="24" height="24" viewBox="0 0 24 24" fill="none" xmlns="http://www.w3.org/2000/svg">
<path d="M14.1401 7.88403L13.2696 7.36175C10.8902 5.9341 9.70046 5.22027 8.72157 5.31152C7.868 5.39108 7.08926 5.832 6.58188 6.52299C6 7.31544 6 8.70286 6 11.4777V12.5223C6 15.2971 6 16.6846 6.58188 17.477C7.08926 18.168 7.868 18.6089 8.72157 18.6885C9.70046 18.7797 10.8902 18.0659 13.2696 16.6383L14.1401 16.116C16.4027 14.7584 17.5341 14.0796 17.9178 13.2017C18.2528 12.4356 18.2528 11.5644 17.9178 10.7983C17.5341 9.92043 16.4027 9.24163 14.1401 7.88403Z" stroke="black" stroke-width="2" stroke-linejoin="round"/>
</svg>
