<svg width="24" height="24" viewBox="0 0 24 24" fill="none" xmlns="http://www.w3.org/2000/svg">
<path d="M8.00002 8.12137L8 12.0758C7.99982 12.4658 7.99969 12.7734 8.04311 13.0476C8.28031 14.5452 9.45487 15.7198 10.9525 15.957C11.2266 16.0004 11.5343 16.0002 11.9243 16.0001H12.0757C12.4657 16.0002 12.7734 16.0004 13.0475 15.957C13.7667 15.8431 14.4113 15.513 14.9135 15.0348L13.4983 13.6196C13.2887 13.8066 13.0259 13.9354 12.7347 13.9816C12.6377 13.9969 12.5027 14 12 14C11.4973 14 11.3624 13.9969 11.2654 13.9816C10.6235 13.8799 10.1201 13.3765 10.0185 12.7347C10.0031 12.6377 10 12.5028 10 12V10.1214L8.00002 8.12137Z" fill="black"/>
<path d="M10.0001 5.8788L8.27081 4.14952C8.73135 3.04802 9.7352 2.23593 10.9525 2.04313C11.2267 1.99971 11.5343 1.99985 11.9243 2.00002H12.0757C12.4657 1.99985 12.7734 1.99971 13.0475 2.04313C14.5452 2.28033 15.7197 3.4549 15.9569 4.95252C16.0003 5.22667 16.0002 5.53432 16 5.9243L16 11.8787L14 9.87873V6.00004C14 5.49733 13.9969 5.3624 13.9816 5.26539C13.8799 4.62355 13.3765 4.12017 12.7347 4.01851C12.6377 4.00315 12.5027 4.00004 12 4.00004C11.4973 4.00004 11.3624 4.00315 11.2654 4.01851C10.6235 4.12017 10.1201 4.62355 10.0185 5.26539C10.0044 5.35409 10.0006 5.4745 10.0001 5.8788Z" fill="black"/>
<path d="M15.7671 15.8885C15.192 16.4395 14.4519 16.82 13.6258 16.9508C13.3344 16.9969 12.9672 17 12 17C11.0328 17 10.6656 16.9969 10.3743 16.9508C8.66271 16.6797 7.32035 15.3374 7.04926 13.6258C7.00312 13.3344 7.00002 12.9673 7.00002 12C7.00002 11.4478 6.5523 11 6.00002 11C5.44773 11 5.00002 11.4478 5.00002 12L5.00001 12.0997C4.9999 12.9332 4.99983 13.471 5.07389 13.9387C5.48052 16.506 7.49406 18.5195 10.0614 18.9262C10.3351 18.9695 10.6329 18.9875 11 18.9949V21C11 21.5523 11.4477 22 12 22C12.5523 22 13 21.5523 13 21V18.9949C13.3671 18.9875 13.6649 18.9695 13.9386 18.9262C15.1926 18.7276 16.3145 18.1456 17.1816 17.3029L15.7671 15.8885Z" fill="black"/>
<path d="M18.7695 14.6482L16.9964 12.8751C16.9996 12.6515 17 12.3696 17 12C17 11.4478 17.4477 11 18 11C18.5523 11 19 11.4478 19 12L19 12.0997C19.0001 12.9332 19.0002 13.471 18.9261 13.9387C18.8879 14.1804 18.8353 14.4172 18.7695 14.6482Z" fill="black"/>
<path d="M21 21L2 2" stroke="black" stroke-width="2" stroke-linecap="round"/>
</svg>
