<svg width="24" height="24" viewBox="0 0 24 24" fill="none" xmlns="http://www.w3.org/2000/svg">
<path fill="black" d="M3.45672 17.2961C4.06569 18.7663 5.23373 19.9343 6.7039 20.5433C7.80653 21 9.20435 21 12 21C14.7956 21 16.1935 21 17.2961 20.5433C18.7663 19.9343 19.9343 18.7663 20.5433 17.2961C21 16.1935 21 14.7956 21 12C21 9.20435 21 7.80653 20.5433 6.7039C19.9343 5.23373 18.7663 4.06569 17.2961 3.45672C16.1935 3 14.7956 3 12 3C9.20435 3 7.80653 3 6.7039 3.45672C5.23373 4.06569 4.06569 5.23373 3.45672 6.7039"/>
<path fill="black" d="M2 3V3.2C2 4.88016 2 5.72024 2.32698 6.36197C2.6146 6.92646 3.07354 7.3854 3.63803 7.67302C4.27976 8 5.11984 8 6.8 8L7 8"/>
</svg>
