<svg width="24" height="24" viewBox="0 0 24 24" fill="none" xmlns="http://www.w3.org/2000/svg">
<path fill="black" d="M12 17V16.4C12 14.1598 12 13.0397 11.564 12.184C11.1805 11.4314 10.5686 10.8195 9.81596 10.436C8.96032 10 7.84021 10 5.6 10H3"/>
<path fill="black" d="M13 6V6C13 4.34315 14.3431 3 16 3H18"/>
<path fill="black" d="M6 7V5C6 3.89543 6.89543 3 8 3V3C9.10457 3 10 3.89543 10 5V5C10 5.55228 10.4477 6 11 6H15C15.9293 6 16.394 6 16.7804 6.07686C18.3671 6.39249 19.6075 7.63288 19.9231 9.21964C20 9.60603 20 10.0707 20 11V11.6667C20 12.9051 20 13.5243 19.9316 14.0442C19.4589 17.6341 16.6341 20.4589 13.0442 20.9316C12.5243 21 11.9051 21 10.6667 21V21C10.0474 21 9.73783 21 9.4779 20.9658C7.68296 20.7295 6.27053 19.317 6.03422 17.5221C6 17.2622 6 16.9526 6 16.3333V13"/>
<path fill="black" d="M7 10H12C14.2091 10 16 11.7909 16 14V14"/>
</svg>
