<svg width="24" height="24" viewBox="0 0 24 24" fill="none" xmlns="http://www.w3.org/2000/svg">
<path fill="black" d="M20.6386 8.74286L21.3658 8.05634L20.6386 8.74286C20.8446 8.96095 20.9417 9.25994 20.9033 9.55741C20.8894 9.66489 20.8374 9.80811 20.544 10.4745L21.4592 10.8775L20.544 10.4745C20.5362 10.4923 20.5284 10.51 20.5206 10.5276C20.4067 10.7859 20.3065 11.0131 20.2449 11.2525C20.1187 11.7429 20.1187 12.2571 20.2449 12.7475C20.3065 12.9869 20.4067 13.2141 20.5206 13.4724C20.5284 13.49 20.5362 13.5077 20.544 13.5255C20.8374 14.1919 20.8894 14.3351 20.9033 14.4426C20.9417 14.7401 20.8446 15.0391 20.6386 15.2571C20.5642 15.3359 20.438 15.4212 19.8089 15.7879C19.7921 15.7977 19.7754 15.8074 19.7588 15.8171C19.5148 15.9591 19.3001 16.084 19.1096 16.2415C18.7193 16.564 18.4171 16.9801 18.2309 17.4509L19.1609 17.8186L18.2309 17.4509C18.14 17.6808 18.0875 17.9235 18.0279 18.1995C18.0238 18.2183 18.0197 18.2372 18.0156 18.2562C17.8613 18.9678 17.8192 19.1142 17.7672 19.2093C17.6234 19.4726 17.3691 19.6573 17.0743 19.7127C16.9678 19.7328 16.8155 19.7276 16.0911 19.6544C16.0717 19.6525 16.0524 19.6505 16.0334 19.6486C15.7525 19.6201 15.5054 19.595 15.2587 19.6104C14.7534 19.6419 14.2643 19.8008 13.8369 20.0723C13.6283 20.2049 13.4432 20.3704 13.2327 20.5586C13.2184 20.5714 13.204 20.5843 13.1894 20.5973C12.6463 21.0822 12.5262 21.1759 12.4282 21.2224C12.1572 21.3508 11.8428 21.3508 11.5718 21.2224C11.4738 21.1759 11.3537 21.0822 10.8106 20.5973C10.796 20.5843 10.7816 20.5714 10.7673 20.5586C10.5568 20.3704 10.3717 20.2049 10.1631 20.0723C9.73572 19.8008 9.24662 19.6419 8.74132 19.6104C8.49459 19.595 8.24755 19.6201 7.96664 19.6486C7.94756 19.6505 7.92832 19.6525 7.90891 19.6544C7.18448 19.7276 7.0322 19.7328 6.92569 19.7127C6.63091 19.6573 6.37657 19.4726 6.23279 19.2093C6.18084 19.1142 6.13873 18.9678 5.98441 18.2562C5.98028 18.2372 5.97619 18.2183 5.97214 18.1995C5.91247 17.9235 5.86 17.6808 5.7691 17.4509C5.58294 16.9801 5.28066 16.564 4.89041 16.2415L4.29155 16.9661L4.89041 16.2415C4.69984 16.084 4.48522 15.9591 4.24117 15.8171C4.22461 15.8074 4.20791 15.7977 4.19107 15.7879C3.56201 15.4212 3.43576 15.3359 3.36135 15.2571C3.15544 15.0391 3.05829 14.7401 3.09669 14.4426C3.11057 14.3351 3.16257 14.1919 3.45598 13.5255C3.46383 13.5077 3.47163 13.49 3.47936 13.4724C3.59331 13.2141 3.69352 12.9869 3.75512 12.7475C3.88126 12.2571 3.88126 11.7429 3.75512 11.2525C3.69352 11.0131 3.59331 10.7859 3.47936 10.5276C3.47163 10.51 3.46383 10.4923 3.45597 10.4745C3.16257 9.80811 3.11057 9.6649 3.09669 9.55741C3.05829 9.25994 3.15544 8.96095 3.36135 8.74286C3.43576 8.66406 3.56201 8.57877 4.19107 8.21211C4.20791 8.20229 4.22461 8.19257 4.24118 8.18293C4.48522 8.04089 4.69984 7.91598 4.89041 7.75849L4.25335 6.98767L4.89041 7.75849C5.28066 7.43595 5.58294 7.0199 5.7691 6.54908L4.83914 6.1814L5.7691 6.54908C5.86 6.31917 5.91247 6.07646 5.97214 5.80047C5.97619 5.78173 5.98028 5.76284 5.98441 5.74379C6.13873 5.03222 6.18084 4.88578 6.23279 4.79067C6.37657 4.52744 6.63091 4.34265 6.92569 4.28725C7.0322 4.26723 7.18448 4.27244 7.90891 4.34556C7.9283 4.34751 7.94753 4.34947 7.9666 4.3514C8.24753 4.37994 8.49457 4.40504 8.74132 4.38963C9.24662 4.35808 9.73572 4.19916 10.1631 3.92768L9.64252 3.1083L10.1631 3.92768C10.3717 3.79511 10.5569 3.62959 10.7674 3.44137C10.7817 3.4286 10.7961 3.41572 10.8106 3.40274C11.3537 2.91778 11.4738 2.82406 11.5718 2.77765C11.8428 2.64921 12.1572 2.64921 12.4282 2.77765C12.5262 2.82406 12.6463 2.91778 13.1894 3.40274C13.2039 3.41573 13.2184 3.42861 13.2327 3.44139C13.4431 3.6296 13.6283 3.79511 13.8369 3.92768L14.3575 3.1083L13.8369 3.92768C14.2643 4.19916 14.7534 4.35808 15.2587 4.38963C15.5054 4.40504 15.7525 4.37994 16.0334 4.3514C16.0525 4.34947 16.0717 4.34751 16.0911 4.34556C16.8155 4.27244 16.9678 4.26723 17.0743 4.28725C17.3691 4.34265 17.6234 4.52744 17.7672 4.79067C17.8192 4.88578 17.8613 5.03222 18.0156 5.74379C18.0197 5.76284 18.0238 5.78174 18.0279 5.80048C18.0875 6.07647 18.14 6.31917 18.2309 6.54907L19.1609 6.1814L18.2309 6.54908C18.4171 7.0199 18.7193 7.43595 19.1096 7.75849C19.3002 7.91599 19.5148 8.04089 19.7588 8.18294C19.7754 8.19258 19.7921 8.20229 19.8089 8.21211C20.438 8.57876 20.5642 8.66406 20.6386 8.74286Z"/>
<path fill="black" d="M7 13L7.73726 13.7373C8.52929 14.5293 8.92531 14.9253 9.38197 15.0737C9.78365 15.2042 10.2163 15.2042 10.618 15.0737C11.0747 14.9253 11.4707 14.5293 12.2627 13.7373L16.5 9.5"/>
</svg>
