<svg width="24" height="24" viewBox="0 0 24 24" fill="none" xmlns="http://www.w3.org/2000/svg">
<path d="M9 9L15 15" stroke="#808080" stroke-width="2" stroke-linecap="round" stroke-linejoin="round"/>
<path d="M13 5C13.1593 4.84069 13.239 4.76104 13.3095 4.69694C14.8351 3.31016 17.1649 3.31016 18.6905 4.69694C18.761 4.76104 18.8407 4.84069 19 5V5C19.1593 5.15931 19.239 5.23896 19.3031 5.30948C20.6898 6.83512 20.6898 9.16488 19.3031 10.6905C19.239 10.761 19.1593 10.8407 19 11L11 19C10.8407 19.1593 10.761 19.239 10.6905 19.3031C9.16488 20.6898 6.83512 20.6898 5.30948 19.3031C5.23896 19.239 5.15931 19.1593 5 19V19C4.84069 18.8407 4.76104 18.761 4.69693 18.6905C3.31016 17.1649 3.31016 14.8351 4.69693 13.3095C4.76104 13.239 4.84069 13.1593 5 13L13 5Z" stroke="black" stroke-width="2" stroke-linecap="round" stroke-linejoin="round"/>
</svg>
