<svg width="24" height="24" viewBox="0 0 24 24" fill="none" xmlns="http://www.w3.org/2000/svg">
<path fill="black" d="M8 13H16"/>
<path fill="black" d="M9.99976 3V8.17897C9.99976 8.85496 9.99976 9.19296 9.93767 9.51818C9.88257 9.8068 9.79135 10.0873 9.66615 10.3531C9.52508 10.6527 9.32628 10.926 8.92868 11.4727L7.54392 13.3768C5.75503 15.8365 4.86059 17.0664 4.89251 18.0932C4.92031 18.9871 5.34544 19.822 6.05201 20.3702C6.8637 21 8.38441 21 11.4259 21H12.5737C15.6151 21 17.1358 21 17.9475 20.3702C18.6541 19.822 19.0792 18.9871 19.107 18.0932C19.1389 17.0664 18.2445 15.8365 16.4556 13.3768L15.0708 11.4727C14.6732 10.926 14.4744 10.6527 14.3334 10.3531C14.2082 10.0873 14.1169 9.8068 14.0618 9.51818C13.9998 9.19296 13.9998 8.85496 13.9998 8.17897V3"/>
<path fill="black" d="M8 3L16 3"/>
</svg>
