<svg width="24" height="24" viewBox="0 0 24 24" fill="none" xmlns="http://www.w3.org/2000/svg">
<path d="M6 13C6 11.1362 6 10.2044 6.30448 9.46927C6.71046 8.48915 7.48915 7.71046 8.46927 7.30448C9.20435 7 10.1362 7 12 7V7C13.8638 7 14.7956 7 15.5307 7.30448C16.5108 7.71046 17.2895 8.48915 17.6955 9.46927C18 10.2044 18 11.1362 18 13V15C18 16.8638 18 17.7956 17.6955 18.5307C17.2895 19.5108 16.5108 20.2895 15.5307 20.6955C14.7956 21 13.8638 21 12 21V21C10.1362 21 9.20435 21 8.46927 20.6955C7.48915 20.2895 6.71046 19.5108 6.30448 18.5307C6 17.7956 6 16.8638 6 15V13Z" stroke="black" stroke-width="2" stroke-linecap="round" stroke-linejoin="round"/>
<path d="M16 4H8" stroke="black" stroke-width="2" stroke-linecap="round" stroke-linejoin="round"/>
<path d="M10 14H14" stroke="#808080" stroke-width="2" stroke-linecap="round" stroke-linejoin="round"/>
<path d="M12 12L12 16" stroke="#808080" stroke-width="2" stroke-linecap="round" stroke-linejoin="round"/>
</svg>
