<svg width="24" height="24" viewBox="0 0 24 24" fill="none" xmlns="http://www.w3.org/2000/svg">
<path d="M9 9L15 15" stroke="#808080" stroke-width="2" stroke-linecap="round" stroke-linejoin="round"/>
<path d="M3.92878 15.4273C3.97615 15.1431 4.05094 14.8642 4.15211 14.5944V14.5944C5.96162 9.769 9.769 5.96162 14.5944 4.15211V4.15211C14.8642 4.05094 15.1431 3.97615 15.4273 3.92878L16.0335 3.82774C18.4677 3.42206 20.5779 5.53234 20.1723 7.96646L20.0712 8.57267C20.0239 8.85689 19.9491 9.13585 19.8479 9.40564V9.40564C18.0384 14.231 14.231 18.0384 9.40564 19.8479V19.8479C9.13585 19.9491 8.85689 20.0239 8.57267 20.0712L7.96646 20.1723C5.53234 20.5779 3.42206 18.4677 3.82774 16.0335L3.92878 15.4273Z" stroke="black" stroke-width="2" stroke-linecap="round" stroke-linejoin="round"/>
</svg>
