<svg width="24" height="24" viewBox="0 0 24 24" fill="none" xmlns="http://www.w3.org/2000/svg">
<path fill="black" d="M10.0355 5.03553L10.3592 5.35925C10.5697 5.56966 10.6749 5.67487 10.7744 5.75206C11.4957 6.31141 12.5043 6.31141 13.2256 5.75206C13.3251 5.67487 13.4303 5.56966 13.6408 5.35925L13.9645 5.03553C14.6275 4.37249 15.5268 4 16.4645 4C18.4171 4 20 5.58291 20 7.53553V9.58579C20 10.4913 19.6403 11.3597 19 12C18.3597 12.6403 18 13.5087 18 14.4142V19.1459C18 20.1699 17.1699 21 16.1459 21C15.4436 21 14.8016 20.6032 14.4875 19.9751L13.3416 17.6833C12.9588 16.9176 12.7674 16.5348 12.5257 16.3854C12.2035 16.1863 11.7965 16.1863 11.4743 16.3854C11.2326 16.5348 11.0412 16.9176 10.6584 17.6833L9.51246 19.9751C9.19839 20.6032 8.55638 21 7.8541 21C6.83011 21 6 20.1699 6 19.1459V14.4142C6 13.5087 5.64029 12.6403 5 12C4.35971 11.3597 4 10.4913 4 9.58579V7.53553C4 5.58291 5.58291 4 7.53553 4C8.47322 4 9.37249 4.37249 10.0355 5.03553Z"/>
<circle fill="black" cx="12" cy="11" r="1"/>
<circle fill="black" cx="8" cy="9" r="1"/>
<circle fill="black" cx="16" cy="9" r="1"/>
</svg>
