<svg width="24" height="24" viewBox="0 0 24 24" fill="none" xmlns="http://www.w3.org/2000/svg">
<path d="M12 11.3431C12 10.0491 13.0491 9 14.3431 9H18C18.4645 9 18.6968 9 18.8911 9.03078C19.9608 9.20021 20.7998 10.0392 20.9692 11.1089C21 11.3032 21 11.5355 21 12V12C21 12.4645 21 12.6968 20.9692 12.8911C20.7998 13.9608 19.9608 14.7998 18.8911 14.9692C18.6968 15 18.4645 15 18 15H14.4142C14.149 15 13.8946 15.1054 13.7071 15.2929V15.2929C13.0771 15.9229 12 15.4767 12 14.5858V11.3431Z" stroke="black" stroke-width="2" stroke-linecap="round" stroke-linejoin="round"/>
<path d="M9 4V4C9 5.10457 9.89543 6 11 6H13C14.1046 6 15 5.10457 15 4V4" stroke="black" stroke-width="2" stroke-linecap="round" stroke-linejoin="round"/>
<path d="M17.9807 17.3921C17.7937 19.2912 16.2912 20.7937 14.3921 20.9807C14.1965 21 13.9643 21 13.5 21H12C10.1362 21 9.20435 21 8.46927 20.6955C7.48915 20.2895 6.71046 19.5108 6.30448 18.5307C6 17.7956 6 16.8638 6 15V9C6 7.13623 6 6.20435 6.30448 5.46927C6.71046 4.48915 7.48915 3.71046 8.46927 3.30448C9.20435 3 10.1362 3 12 3H13.5C13.9643 3 14.1965 3 14.3921 3.01926C16.2912 3.20631 17.7937 4.70882 17.9807 6.60793" stroke="black" stroke-width="2" stroke-linecap="round" stroke-linejoin="round"/>
</svg>
