<svg width="24" height="24" viewBox="0 0 24 24" fill="none" xmlns="http://www.w3.org/2000/svg">
<path fill="black" fill-rule="evenodd" clip-rule="evenodd" d="M12 6H15C17.2091 6 19 7.79086 19 10V16C19 18.2091 17.2091 20 15 20H11C8.79086 20 7 18.2091 7 16V15H9V16C9 17.1046 9.89543 18 11 18H15C16.1046 18 17 17.1046 17 16V10C17 8.89543 16.1046 8 15 8H12V6Z"/>
<path fill="black" fill-rule="evenodd" clip-rule="evenodd" d="M11.9554 3.46039C12.9977 3.97947 13.5662 5.17627 13.2532 6.34455L12.2179 10.2082C11.9049 11.3765 10.8141 12.1287 9.65195 12.0571L9.38017 13.0714L7.44832 12.5538L7.7201 11.5395C6.6778 11.0204 6.1093 9.82361 6.42234 8.65533L7.45761 4.79163C7.77065 3.62337 8.86137 2.87117 10.0236 2.94276L10.2953 1.92856L12.2272 2.4462L11.9554 3.46039ZM9.38946 5.30927C9.46094 5.04254 9.7351 4.88425 10.0018 4.95572L10.9678 5.21454C11.2345 5.28601 11.3928 5.56017 11.3213 5.82691L10.286 9.69061C10.2146 9.95734 9.9404 10.1156 9.67367 10.0442L8.70774 9.78535C8.44101 9.71387 8.28272 9.43971 8.35419 9.17297L9.38946 5.30927Z"/>
<path fill="black" d="M11 16H5V14H11V16Z"/>
<path fill="black" d="M9 20C7.89543 20 7 20.8954 7 22H5C5 19.7909 6.79086 18 9 18H17C19.2091 18 21 19.7909 21 22H19C19 20.8954 18.1046 20 17 20H9Z"/>
</svg>
