<svg width="24" height="24" viewBox="0 0 24 24" fill="none" xmlns="http://www.w3.org/2000/svg">
<path fill="black" d="M9.5 8C8.67157 8 8 8.67157 8 9.5V14.5C8 15.3284 8.67157 16 9.5 16H14.5C15.3284 16 16 15.3284 16 14.5V9.5C16 8.67157 15.3284 8 14.5 8H9.5Z"/>
<path fill="black" fill-rule="evenodd" clip-rule="evenodd" d="M6 2C3.79086 2 2 3.79086 2 6V18C2 20.2091 3.79086 22 6 22H18C20.2091 22 22 20.2091 22 18V6C22 3.79086 20.2091 2 18 2H6ZM4 6C4 4.89543 4.89543 4 6 4H18C19.1046 4 20 4.89543 20 6V18C20 19.1046 19.1046 20 18 20H6C4.89543 20 4 19.1046 4 18V6Z"/>
</svg>
