<svg width="24" height="24" viewBox="0 0 24 24" fill="none" xmlns="http://www.w3.org/2000/svg">
<path fill-rule="evenodd" clip-rule="evenodd" d="M4 3V13C4 15.2091 5.79086 17 8 17H14C16.2091 17 18 15.2091 18 13V9.94999C18.1616 9.98278 18.3288 10 18.5 10H19.5C20.8807 10 22 8.88071 22 7.5V5.5C22 4.11929 20.8807 3 19.5 3H4ZM16 5H6V13C6 14.1046 6.89543 15 8 15H14C15.1046 15 16 14.1046 16 13V5ZM18 5V7.5C18 7.77614 18.2239 8 18.5 8H19.5C19.7761 8 20 7.77614 20 7.5V5.5C20 5.22386 19.7761 5 19.5 5H18Z" fill="black"/>
<path fill-rule="evenodd" clip-rule="evenodd" d="M6 21C3.79086 21 2 19.2091 2 17H4C4 18.1046 4.89543 19 6 19H16C17.1046 19 18 18.1046 18 17H20C20 19.2091 18.2091 21 16 21H6Z" fill="#808080"/>
</svg>
