<svg width="24" height="24" viewBox="0 0 24 24" fill="none" xmlns="http://www.w3.org/2000/svg">
<path fill-rule="evenodd" clip-rule="evenodd" d="M9.5 7.5C7.84315 7.5 6.5 8.84315 6.5 10.5C6.5 12.1569 7.84315 13.5 9.5 13.5C11.1569 13.5 12.5 12.1569 12.5 10.5C12.5 8.84315 11.1569 7.5 9.5 7.5ZM8.5 10.5C8.5 9.94772 8.94772 9.5 9.5 9.5C10.0523 9.5 10.5 9.94772 10.5 10.5C10.5 11.0523 10.0523 11.5 9.5 11.5C8.94772 11.5 8.5 11.0523 8.5 10.5Z" fill="black"/>
<path fill-rule="evenodd" clip-rule="evenodd" d="M3 9C3 6.79086 4.79086 5 7 5H17C19.2091 5 21 6.79086 21 9V15C21 17.2091 19.2091 19 17 19H7C4.79086 19 3 17.2091 3 15V9ZM7 7C5.89543 7 5 7.89543 5 9V15C5 15.0238 5.00042 15.0475 5.00124 15.0711C5.60857 14.7206 6.26067 14.4507 6.94115 14.2695C7.95634 13.9991 9.01485 13.9313 10.0562 14.07C11.0976 14.2088 12.1015 14.5512 13.0105 15.0779C13.8684 15.5749 14.6259 16.2268 15.2449 17H17C18.1046 17 19 16.1046 19 15V9C19 7.89543 18.1046 7 17 7H7ZM7 17C6.66164 17 6.34291 16.916 6.06352 16.7677C6.50112 16.5221 6.96879 16.3318 7.45585 16.2021C8.21724 15.9993 9.01112 15.9485 9.79215 16.0525C10.5732 16.1566 11.3261 16.4134 12.0078 16.8084C12.1128 16.8692 12.2157 16.9331 12.3166 17H7Z" fill="black"/>
<path d="M14 9V11H18V9H14Z" fill="#808080"/>
<path d="M14 12V14H18V12H14Z" fill="#808080"/>
</svg>
