<svg width="24" height="24" viewBox="0 0 24 24" fill="none" xmlns="http://www.w3.org/2000/svg">
<path fill-rule="evenodd" clip-rule="evenodd" d="M8.5382 4.98341C10.0789 2.32227 13.9209 2.32226 15.4616 4.9834L21.2583 14.9958C22.8021 17.6625 20.8779 21 17.7966 21H6.20325C3.12193 21 1.19768 17.6625 2.74154 14.9958L8.5382 4.98341ZM13.7308 5.98547C12.9604 4.65491 11.0394 4.65491 10.2691 5.98548L4.4724 15.9979C3.70047 17.3312 4.66258 19 6.20325 19H17.7966C19.3372 19 20.2994 17.3312 19.5274 15.9979L13.7308 5.98547Z" fill="black"/>
<path d="M11 8V14H13L13 8H11Z" fill="black"/>
<path d="M11.5 15C11.2239 15 11 15.2239 11 15.5V16.5C11 16.7761 11.2239 17 11.5 17H12.5C12.7761 17 13 16.7761 13 16.5V15.5C13 15.2239 12.7761 15 12.5 15H11.5Z" fill="black"/>
</svg>
