<svg width="24" height="24" viewBox="0 0 24 24" fill="none" xmlns="http://www.w3.org/2000/svg">
<path fill-rule="evenodd" clip-rule="evenodd" d="M10 5C8.89543 5 8 5.89543 8 7V9H6V7C6 4.79086 7.79086 3 10 3H14C16.2091 3 18 4.79086 18 7V9.5C18 11.433 16.433 13 14.5 13C13.6716 13 13 13.6716 13 14.5V17H11V14.5C11 12.567 12.567 11 14.5 11C15.3284 11 16 10.3284 16 9.5V7C16 5.89543 15.1046 5 14 5H10Z" fill="black"/>
<path d="M11 19.5C11 19.2239 11.2239 19 11.5 19H12.5C12.7761 19 13 19.2239 13 19.5V20.5C13 20.7761 12.7761 21 12.5 21H11.5C11.2239 21 11 20.7761 11 20.5V19.5Z" fill="#808080"/>
</svg>
