<svg width="24" height="24" viewBox="0 0 24 24" fill="none" xmlns="http://www.w3.org/2000/svg">
<path fill-rule="evenodd" clip-rule="evenodd" d="M5 6C5 3.79086 6.79086 2 9 2H15C17.2091 2 19 3.79086 19 6V9.5H17V6C17 4.89543 16.1046 4 15 4H9C7.89543 4 7 4.89543 7 6V9.5H5V6ZM7 14.5V18C7 19.1046 7.89543 20 9 20H15C16.1046 20 17 19.1046 17 18V14.5H19V18C19 20.2091 17.2091 22 15 22H9C6.79086 22 5 20.2091 5 18V14.5H7Z" fill="black"/>
<path d="M22 11H17.0754C16.1785 11 15.3913 10.4029 15.1495 9.53926L14.363 6.73037C14.2421 6.29854 13.8484 6 13.4 6C12.9516 6 12.5579 6.29854 12.437 6.73037L10.5778 13.3704C9.9429 11.9453 8.52058 11 6.92462 11H2V13H6.92462C7.8215 13 8.60872 13.5971 8.85055 14.4607L9.63704 17.2696C9.75795 17.7015 10.1516 18 10.6 18C11.0484 18 11.4421 17.7015 11.563 17.2696L13.4222 10.6296C14.0571 12.0547 15.4794 13 17.0754 13H22V11Z" fill="#808080"/>
</svg>
