<svg width="24" height="24" viewBox="0 0 24 24" fill="none" xmlns="http://www.w3.org/2000/svg">
<path fill-rule="evenodd" clip-rule="evenodd" d="M18.9498 20.364L13.293 14.7072L14.7072 13.2929L20.364 18.9498L18.9498 20.364Z" fill="black"/>
<path fill-rule="evenodd" clip-rule="evenodd" d="M4.34308 12.8284C2.78098 11.2663 2.78098 8.73367 4.34308 7.17157L7.1715 4.34315C8.7336 2.78105 11.2663 2.78105 12.8284 4.34315L15.6568 7.17157C17.2189 8.73367 17.2189 11.2663 15.6568 12.8284L12.8284 15.6569C11.2663 17.219 8.7336 17.219 7.1715 15.6569L4.34308 12.8284ZM5.75729 8.58579C4.97624 9.36683 4.97624 10.6332 5.75729 11.4142L8.58572 14.2426C9.36676 15.0237 10.6331 15.0237 11.4141 14.2426L14.2426 11.4142C15.0236 10.6332 15.0236 9.36683 14.2426 8.58579L11.4141 5.75736C10.6331 4.97631 9.36676 4.97631 8.58572 5.75736L5.75729 8.58579Z" fill="black"/>
</svg>
