<svg width="24" height="24" viewBox="0 0 24 24" fill="none" xmlns="http://www.w3.org/2000/svg">
<path fill-rule="evenodd" clip-rule="evenodd" d="M2 6C2 3.79086 3.79086 2 6 2H12C14.2091 2 16 3.79086 16 6H14C14 4.89543 13.1046 4 12 4H6C4.89543 4 4 4.89543 4 6V12C4 13.1046 4.89543 14 6 14V16C3.79086 16 2 14.2091 2 12V6Z" fill="#808080"/>
<path fill-rule="evenodd" clip-rule="evenodd" d="M12 8C9.79086 8 8 9.79086 8 12V18C8 20.2091 9.79086 22 12 22H18C20.2091 22 22 20.2091 22 18V12C22 9.79086 20.2091 8 18 8H12ZM10 12C10 10.8954 10.8954 10 12 10H18C18.1792 10 18.3528 10.0236 18.518 10.0677L10.0677 18.518C10.0236 18.3528 10 18.1792 10 18V12ZM11.482 19.9323C11.6472 19.9764 11.8208 20 12 20H18C19.1046 20 20 19.1046 20 18V12C20 11.8208 19.9764 11.6472 19.9323 11.482L11.482 19.9323Z" fill="black"/>
</svg>
