<svg width="24" height="24" viewBox="0 0 24 24" fill="none" xmlns="http://www.w3.org/2000/svg">
<path fill="black" fill-rule="evenodd" clip-rule="evenodd" d="M7.5 6C7.22386 6 7 6.22386 7 6.5V12H10.5458C11.0394 12 11.5219 12.1461 11.9326 12.4199L14.1768 13.916C14.2589 13.9708 14.3555 14 14.4542 14H17.5C17.7761 14 18 13.7761 18 13.5V8.5C18 8.22386 17.7761 8 17.5 8H14.4542C13.9606 8 13.4781 7.8539 13.0674 7.58013L10.8232 6.08397C10.7411 6.02922 10.6445 6 10.5458 6H7.5ZM7 14H10.5458C10.6445 14 10.7411 14.0292 10.8232 14.084L13.0674 15.5801C13.4781 15.8539 13.9606 16 14.4542 16H17.5C18.8807 16 20 14.8807 20 13.5V8.5C20 7.11929 18.8807 6 17.5 6H14.4542C14.3555 6 14.2589 5.97078 14.1768 5.91603L11.9326 4.41987C11.5219 4.1461 11.0394 4 10.5458 4H7.5C6.11929 4 5 5.11929 5 6.5V21H7V14Z"/>
</svg>
