<svg width="24" height="24" viewBox="0 0 24 24" fill="none" xmlns="http://www.w3.org/2000/svg">
<path fill="black" fill-rule="evenodd" clip-rule="evenodd" d="M21 9H3V7H21V9Z"/>
<path fill="black" d="M8 13V11H10V13H12V15H10V17H8V15H6V13H8Z"/>
<path fill="black" d="M18 13H14V11H18V13Z"/>
<path fill="black" d="M14 17H18V15H14V17Z"/>
<path fill="black" fill-rule="evenodd" clip-rule="evenodd" d="M2 7C2 4.79086 3.79086 3 6 3H18C20.2091 3 22 4.79086 22 7V17C22 19.2091 20.2091 21 18 21H6C3.79086 21 2 19.2091 2 17V7ZM6 5C4.89543 5 4 5.89543 4 7V17C4 18.1046 4.89543 19 6 19H18C19.1046 19 20 18.1046 20 17V7C20 5.89543 19.1046 5 18 5H6Z"/>
</svg>
