<svg width="24" height="24" viewBox="0 0 24 24" fill="none" xmlns="http://www.w3.org/2000/svg">
<path fill="black" fill-rule="evenodd" clip-rule="evenodd" d="M7 4.5C7 3.11929 8.11929 2 9.5 2H14.5C15.8807 2 17 3.11929 17 4.5V10C19.2091 10 21 11.7909 21 14V21H19V14C19 12.8954 18.1046 12 17 12H16.95C16.7184 13.1411 15.7095 14 14.5 14H9.5C8.29052 14 7.28164 13.1411 7.05001 12H7C5.89543 12 5 12.8954 5 14V21H3V14C3 11.7909 4.79086 10 7 10V4.5ZM15 4.5V6H9V4.5C9 4.22386 9.22386 4 9.5 4H14.5C14.7761 4 15 4.22386 15 4.5ZM9 11.5V8H15V11.5C15 11.7761 14.7761 12 14.5 12H9.5C9.22386 12 9 11.7761 9 11.5Z"/>
<path fill="black" d="M11 19L11 21H13V19H15V17L13 17V15H11L11 17L9 17V19H11Z"/>
</svg>
