<svg width="24" height="24" viewBox="0 0 24 24" fill="none" xmlns="http://www.w3.org/2000/svg">
<path d="M13.2 8.1L14 8.9C15.1952 10.0952 16.7285 10.8678 18.6 10.9846C18.8756 11.0018 19.1 10.7761 19.1 10.5V9.5C19.1 9.22386 18.8754 9.00265 18.6005 8.97722C17.3312 8.85984 16.2977 8.29778 15.5 7.5L13.6 5.6C13.1 5.2 12.6 5 12 5C11.4859 5 11.0453 5.14679 10.7409 5.44036C10.686 5.49334 10.6348 5.55005 10.5837 5.60677C10.5396 5.65555 10.4956 5.70434 10.4492 5.75076L7.79995 8.4C7.39995 8.8 7.19995 9.3 7.19995 9.8C7.19995 10.4 7.39995 10.9 7.79995 11.2L9.97547 13.1036C10.6265 13.6732 11 14.4962 11 15.3613V18.5C11 18.7761 11.2238 19 11.5 19H12.5C12.7761 19 13 18.7761 13 18.5V15.2075C13 13.6624 12.4038 12.1768 11.3358 11.0602L10.8 10.5L13.2 8.1Z" fill="black"/>
<path fill-rule="evenodd" clip-rule="evenodd" d="M17 12C15.3431 12 14 13.3431 14 15V18C14 19.6569 15.3431 21 17 21H20C21.6569 21 23 19.6569 23 18V15C23 13.3431 21.6569 12 20 12H17ZM20 14H17C16.4477 14 16 14.4477 16 15V18C16 18.5523 16.4477 19 17 19H20C20.5523 19 21 18.5523 21 18V15C21 14.4477 20.5523 14 20 14Z" fill="black"/>
<path fill-rule="evenodd" clip-rule="evenodd" d="M1 15C1 13.3431 2.34315 12 4 12H7C8.65685 12 10 13.3431 10 15V18C10 19.6569 8.65685 21 7 21H4C2.34315 21 1 19.6569 1 18V15ZM4 14H7C7.55228 14 8 14.4477 8 15V18C8 18.5523 7.55228 19 7 19H4C3.44772 19 3 18.5523 3 18V15C3 14.4477 3.44772 14 4 14Z" fill="black"/>
<rect x="13" y="1" width="4" height="4" rx="1.5" fill="black"/>
</svg>
