<svg width="24" height="24" viewBox="0 0 24 24" fill="none" xmlns="http://www.w3.org/2000/svg">
<path fill-rule="evenodd" clip-rule="evenodd" d="M10 6C7.79086 6 6 7.79086 6 10V15C6 16.6569 7.34315 18 9 18V19.5C9 20.8807 10.1193 22 11.5 22H12.5C13.8807 22 15 20.8807 15 19.5V18C16.6569 18 18 16.6569 18 15V10C18 7.79086 16.2091 6 14 6H10ZM15 16C15.5523 16 16 15.5523 16 15V10C16 8.89543 15.1046 8 14 8H10C8.89543 8 8 8.89543 8 10V15C8 15.5523 8.44772 16 9 16H15ZM11 18V19.5C11 19.7761 11.2239 20 11.5 20H12.5C12.7761 20 13 19.7761 13 19.5V18H11Z" fill="black"/>
<path d="M13 2H11V5H13V2Z" fill="black"/>
<path d="M20.414 4.99983L18.9996 3.58579L16.5857 6.00023L18.0001 7.41427L20.414 4.99983Z" fill="black"/>
<path d="M2 11H5V13H2V11Z" fill="black"/>
<path d="M19 11H22V13H19V11Z" fill="black"/>
<path d="M5.00009 3.58585L7.41421 6.00027L5.99991 7.4144L3.58579 4.99997L5.00009 3.58585Z" fill="black"/>
</svg>
