<svg width="24" height="24" viewBox="0 0 24 24" fill="none" xmlns="http://www.w3.org/2000/svg">
<path fill="black" fill-rule="evenodd" clip-rule="evenodd" d="M7 5C5.89543 5 5 5.89543 5 7V17C5 18.1046 5.89543 19 7 19H17C18.1046 19 19 18.1046 19 17V12H21V17C21 19.2091 19.2091 21 17 21H7C4.79086 21 3 19.2091 3 17V7C3 4.79086 4.79086 3 7 3H12V5H7Z"/>
<path fill="black" d="M17.5859 5H14.0001V3H18.5001C19.8808 3 21.0001 4.11929 21.0001 5.5V10H19.0001V6.41421L9.70718 15.7071L8.29297 14.2929L17.5859 5Z"/>
</svg>
