<svg width="24" height="24" viewBox="0 0 24 24" fill="none" xmlns="http://www.w3.org/2000/svg">
<path fill-rule="evenodd" clip-rule="evenodd" d="M17.2569 9.95736C15.5611 8.68553 13.3083 8 11 8C8.69166 8 6.43892 8.68553 4.74314 9.95736C3.04187 11.2333 2 13.0354 2 15H4C4 13.782 4.64384 12.5318 5.94315 11.5574C7.24796 10.5788 9.06488 10 11 10C12.9351 10 14.752 10.5788 16.0569 11.5574C17.3562 12.5318 18 13.782 18 15H20C20 13.0354 18.9581 11.2333 17.2569 9.95736Z" fill="black"/>
<path fill-rule="evenodd" clip-rule="evenodd" d="M21.5 9V13.5C21.5 14.8807 20.3807 16 19 16H14.5V14H19C19.2761 14 19.5 13.7761 19.5 13.5V9H21.5Z" fill="#808080"/>
</svg>
