<svg width="24" height="24" viewBox="0 0 24 24" fill="none" xmlns="http://www.w3.org/2000/svg">
<path fill-rule="evenodd" clip-rule="evenodd" d="M2 6C2 3.79086 3.79086 2 6 2H18C20.2091 2 22 3.79086 22 6V18C22 20.2091 20.2091 22 18 22H6C3.79086 22 2 20.2091 2 18V6ZM6 4C4.89543 4 4 4.89543 4 6V18C4 19.1046 4.89543 20 6 20H18C19.1046 20 20 19.1046 20 18V6C20 4.89543 19.1046 4 18 4H6Z" fill="black"/>
<path fill-rule="evenodd" clip-rule="evenodd" d="M8.5 8C8.22386 8 8 8.22386 8 8.5V11H6V8.5C6 7.11929 7.11929 6 8.5 6H15.5C16.8807 6 18 7.11929 18 8.5V11H16V8.5C16 8.22386 15.7761 8 15.5 8H8.5Z" fill="black"/>
</svg>
