<svg width="24" height="24" viewBox="0 0 24 24" fill="none" xmlns="http://www.w3.org/2000/svg">
<path fill-rule="evenodd" clip-rule="evenodd" d="M7.9999 4.71287C7.9999 3.21459 9.2145 2 10.7128 2H13.4309C14.8497 2 15.9999 3.15017 15.9999 4.56898V4.95417C16.0001 4.95448 16.0003 4.95481 16.0005 4.95516C16.0069 4.96525 16.0222 4.98236 16.0479 4.99661C16.0719 5.00991 16.0916 5.01309 16.1009 5.01328C16.101 5.01328 16.1012 5.01329 16.1013 5.01329L16.4267 4.82544C17.6602 4.11327 19.2374 4.5359 19.9496 5.76941L21.4051 8.29044C22.0982 9.49095 21.6869 11.026 20.4864 11.7192L20.2221 11.8718C20.2208 11.8725 20.2121 11.8773 20.2013 11.8977C20.1894 11.92 20.1784 11.9555 20.1784 12C20.1784 12.0446 20.1894 12.0801 20.2013 12.1024C20.2121 12.1226 20.2207 12.1275 20.2221 12.1284L20.2221 12.1284L20.4864 12.281C21.6869 12.9741 22.0982 14.5092 21.4051 15.7097L19.9496 18.2306C19.2375 19.4642 17.6601 19.8868 16.4266 19.1746L16.1012 18.9868C16.1011 18.9868 16.1009 18.9868 16.1008 18.9868C16.0915 18.987 16.0719 18.9901 16.0479 19.0034C16.0221 19.0177 16.0069 19.0348 16.0005 19.0448C16.0003 19.0452 16.0001 19.0455 15.9999 19.0458V19.431C15.9999 20.8498 14.8497 22 13.4309 22H10.7128C9.2145 22 7.9999 20.7854 7.9999 19.2871V18.9282L7.67518 19.1157C6.38528 19.8604 4.73589 19.4185 3.99117 18.1286L2.72526 15.936C1.95999 14.6105 2.41414 12.9156 3.73963 12.1503L3.99986 12.0001L3.73964 11.8498C2.41414 11.0845 1.95999 9.38963 2.72527 8.06413L3.9912 5.87146C4.73591 4.5816 6.38526 4.13965 7.67513 4.88436L7.9999 5.07187V4.71287ZM10.7128 4C10.3191 4 9.9999 4.31916 9.9999 4.71287V5.259C9.9999 5.95738 9.6052 6.54297 9.07775 6.86207C8.52635 7.19567 7.79156 7.26099 7.16289 6.89802L6.67513 6.61641C6.34184 6.42399 5.91568 6.53818 5.72325 6.87146L4.45732 9.06413C4.24433 9.43304 4.37072 9.90477 4.73963 10.1178L5.29029 10.4357C5.87747 10.7747 6.17841 11.3946 6.17841 12C6.17841 12.6054 5.87745 13.2254 5.29021 13.5645L4.73963 13.8823C4.37072 14.0953 4.24432 14.5671 4.45731 14.936L5.72322 17.1286C5.91566 17.4619 6.34187 17.5761 6.67518 17.3837L7.16302 17.102C7.79166 16.7391 8.52641 16.8044 9.07778 17.1379C9.60522 17.457 9.9999 18.0426 9.9999 18.741V19.2871C9.9999 19.6808 10.3191 20 10.7128 20H13.4309C13.7452 20 13.9999 19.7453 13.9999 19.431V19.036C13.9999 18.2402 14.4739 17.5887 15.0793 17.2536C15.6667 16.9284 16.4337 16.8693 17.0941 17.2506L17.4266 17.4426C17.7036 17.6025 18.0577 17.5076 18.2176 17.2306L19.6731 14.7097C19.8139 14.4657 19.7303 14.1538 19.4864 14.013L19.2221 13.8604C18.5191 13.4545 18.1784 12.7084 18.1784 12C18.1784 11.2917 18.519 10.5456 19.2221 10.1397L19.4864 9.9871C19.7303 9.84627 19.8139 9.53436 19.6731 9.29044L18.2176 6.76941C18.0577 6.49249 17.7036 6.39761 17.4267 6.55749L17.0943 6.74941C16.4338 7.13073 15.6668 7.0716 15.0793 6.74641C14.4739 6.41128 13.9999 5.75975 13.9999 4.96398V4.56898C13.9999 4.25474 13.7452 4 13.4309 4H10.7128Z" fill="black"/>
<path fill-rule="evenodd" clip-rule="evenodd" d="M8 12C8 9.79086 9.79086 8 12 8C14.2091 8 16 9.79086 16 12C16 14.2091 14.2091 16 12 16C9.79086 16 8 14.2091 8 12ZM12 10C10.8954 10 10 10.8954 10 12C10 13.1046 10.8954 14 12 14C13.1046 14 14 13.1046 14 12C14 10.8954 13.1046 10 12 10Z" fill="black"/>
</svg>
