<svg width="24" height="24" viewBox="0 0 24 24" fill="none" xmlns="http://www.w3.org/2000/svg">
<path fill-rule="evenodd" clip-rule="evenodd" d="M15 10.5C15 9.11929 13.8807 8 12.5 8H11.5C10.1193 8 9 9.11929 9 10.5V17.5C9 18.8807 10.1193 20 11.5 20H12.5C13.8807 20 15 18.8807 15 17.5V10.5ZM12.5 10C12.7761 10 13 10.2239 13 10.5V17.5C13 17.7761 12.7761 18 12.5 18H11.5C11.2239 18 11 17.7761 11 17.5V10.5C11 10.2239 11.2239 10 11.5 10H12.5Z" fill="black"/>
<path fill-rule="evenodd" clip-rule="evenodd" d="M6 3C7.38071 3 8.5 4.11929 8.5 5.5V17.5C8.5 18.8807 7.38071 20 6 20H5C3.61929 20 2.5 18.8807 2.5 17.5V5.5C2.5 4.11929 3.61929 3 5 3H6ZM6.5 5.5C6.5 5.22386 6.27614 5 6 5H5C4.72386 5 4.5 5.22386 4.5 5.5V17.5C4.5 17.7761 4.72386 18 5 18H6C6.27614 18 6.5 17.7761 6.5 17.5V5.5Z" fill="black"/>
<path fill-rule="evenodd" clip-rule="evenodd" d="M19 11C20.3807 11 21.5 12.1193 21.5 13.5V17.5C21.5 18.8807 20.3807 20 19 20H18C16.6193 20 15.5 18.8807 15.5 17.5V13.5C15.5 12.1193 16.6193 11 18 11H19ZM19.5 13.5C19.5 13.2239 19.2761 13 19 13H18C17.7239 13 17.5 13.2239 17.5 13.5V17.5C17.5 17.7761 17.7239 18 18 18H19C19.2761 18 19.5 17.7761 19.5 17.5V13.5Z" fill="black"/>
</svg>
