<svg width="24" height="24" viewBox="0 0 24 24" fill="none" xmlns="http://www.w3.org/2000/svg">
<path fill="black" d="M8 7V9H16V7H8Z"/>
<path fill="black" d="M8 11V13H13V11H8Z"/>
<path fill="black" fill-rule="evenodd" clip-rule="evenodd" d="M5 5.5C5 4.11929 6.11929 3 7.5 3H16.5C17.8807 3 19 4.11929 19 5.5V14.5C19 15.5252 18.383 16.4062 17.5 16.792V19H19V21H7.5C6.11929 21 5 19.8807 5 18.5V17.5C5 16.9372 5.18597 16.4178 5.49982 16C5.18597 15.5822 5 15.0628 5 14.5V5.5ZM15.5 19V17H7.5C7.22386 17 7 17.2239 7 17.5V18.5C7 18.7761 7.22386 19 7.5 19H15.5ZM16.5 15C16.7761 15 17 14.7761 17 14.5V5.5C17 5.22386 16.7761 5 16.5 5H7.5C7.22386 5 7 5.22386 7 5.5V14.5C7 14.7761 7.22386 15 7.5 15H16.5Z"/>
<path fill="black" d="M6 18V15"/>
</svg>
