<svg width="24" height="24" viewBox="0 0 24 24" fill="none" xmlns="http://www.w3.org/2000/svg">
<path fill-rule="evenodd" clip-rule="evenodd" d="M9 8.5C9 7.67157 9.67157 7 10.5 7H13.5C14.3284 7 15 7.67157 15 8.5V11.5C15 12.3284 14.3284 13 13.5 13H10.5C9.67157 13 9 12.3284 9 11.5V8.5ZM11 9V11H13V9H11Z" fill="#808080"/>
<path fill-rule="evenodd" clip-rule="evenodd" d="M3.5 11C2.67157 11 2 11.6716 2 12.5V15.5C2 16.3284 2.67157 17 3.5 17H6.5C7.32843 17 8 16.3284 8 15.5V12.5C8 11.6716 7.32843 11 6.5 11H3.5ZM4 15V13H6V15H4Z" fill="black"/>
<path fill-rule="evenodd" clip-rule="evenodd" d="M17.5 11C16.6716 11 16 11.6716 16 12.5V15.5C16 16.3284 16.6716 17 17.5 17H20.5C21.3284 17 22 16.3284 22 15.5V12.5C22 11.6716 21.3284 11 20.5 11H17.5ZM18 15V13H20V15H18Z" fill="black"/>
</svg>
