<svg width="24" height="24" viewBox="0 0 24 24" fill="none" xmlns="http://www.w3.org/2000/svg">
<path d="M8.82598 20.2169C8.92766 20.6745 9.33347 21 9.80217 21H14.1978C14.6665 21 15.0723 20.6745 15.174 20.2169L16.8809 12.5359C16.9551 12.2021 16.8536 11.8536 16.6118 11.6118L15.2929 10.2929C15.1054 10.1054 14.851 10 14.5858 10H9.41421C9.149 10 8.89464 10.1054 8.70711 10.2929L7.38816 11.6118C7.1464 11.8536 7.04491 12.2021 7.11908 12.5359L8.82598 20.2169Z" stroke="black" stroke-width="2"/>
<path d="M7.77208 6.68377C7.90819 6.27543 8.29033 6 8.72076 6H15.2792C15.7097 6 16.0918 6.27543 16.2279 6.68377L16.7257 8.17721C16.8831 8.64932 16.6694 9.16531 16.2243 9.38787L15.2111 9.89443C15.0723 9.96385 14.9192 10 14.7639 10H9.23607C9.08082 10 8.92771 9.96385 8.78885 9.89443L7.77573 9.38787C7.33062 9.16531 7.11689 8.64932 7.27426 8.17721L7.77208 6.68377Z" stroke="#808080" stroke-width="2"/>
<path d="M12 5V3" stroke="black" stroke-width="2"/>
<path d="M14 3H10" stroke="black" stroke-width="2"/>
</svg>
