<svg width="24" height="24" viewBox="0 0 24 24" fill="none" xmlns="http://www.w3.org/2000/svg">
<path fill-rule="evenodd" clip-rule="evenodd" d="M5.5 3C4.11929 3 3 4.11929 3 5.5V10.5C3 11.8807 4.11929 13 5.5 13H10.5C11.8807 13 13 11.8807 13 10.5V5.5C13 4.11929 11.8807 3 10.5 3H5.5ZM5 5.5C5 5.22386 5.22386 5 5.5 5H10.5C10.7761 5 11 5.22386 11 5.5V10.5C11 10.7761 10.7761 11 10.5 11H5.5C5.22386 11 5 10.7761 5 10.5V5.5Z" fill="black"/>
<path fill-rule="evenodd" clip-rule="evenodd" d="M16.5 10C15.1193 10 14 11.1193 14 12.5V18.5C14 19.8807 15.1193 21 16.5 21H18.5C19.8807 21 21 19.8807 21 18.5V12.5C21 11.1193 19.8807 10 18.5 10H16.5ZM16 12.5C16 12.2239 16.2239 12 16.5 12H18.5C18.7761 12 19 12.2239 19 12.5V18.5C19 18.7761 18.7761 19 18.5 19H16.5C16.2239 19 16 18.7761 16 18.5V12.5Z" fill="black"/>
<path fill-rule="evenodd" clip-rule="evenodd" d="M16.5 3C15.1193 3 14 4.11929 14 5.5V6.5C14 7.88071 15.1193 9 16.5 9H18.5C19.8807 9 21 7.88071 21 6.5V5.5C21 4.11929 19.8807 3 18.5 3H16.5ZM16 5.5C16 5.22386 16.2239 5 16.5 5H18.5C18.7761 5 19 5.22386 19 5.5V6.5C19 6.77614 18.7761 7 18.5 7H16.5C16.2239 7 16 6.77614 16 6.5V5.5Z" fill="#808080"/>
<path fill-rule="evenodd" clip-rule="evenodd" d="M5.5 14C4.11929 14 3 15.1193 3 16.5V18.5C3 19.8807 4.11929 21 5.5 21H10.5C11.8807 21 13 19.8807 13 18.5V16.5C13 15.1193 11.8807 14 10.5 14H5.5ZM5 16.5C5 16.2239 5.22386 16 5.5 16H10.5C10.7761 16 11 16.2239 11 16.5V18.5C11 18.7761 10.7761 19 10.5 19H5.5C5.22386 19 5 18.7761 5 18.5V16.5Z" fill="#808080"/>
</svg>
