<svg width="24" height="24" viewBox="0 0 24 24" fill="none" xmlns="http://www.w3.org/2000/svg">
<path fill="black" fill-rule="evenodd" clip-rule="evenodd" d="M19 11V18C19 20.2091 17.2091 22 15 22H11C8.79086 22 7 20.2091 7 18V12H9V18C9 19.1046 9.89543 20 11 20H15C16.1046 20 17 19.1046 17 18V11H19Z"/>
<path fill="black" d="M4.5 2C3.11929 2 2 3.11929 2 4.5V10C2 12.2091 3.79086 14 6 14H10C12.2091 14 14 12.2091 14 10V4.5C14 3.11929 12.8807 2 11.5 2H10V4H11.5C11.7761 4 12 4.22386 12 4.5V10C12 11.1046 11.1046 12 10 12H6C4.89543 12 4 11.1046 4 10V4.5C4 4.22386 4.22386 4 4.5 4H6V2H4.5Z"/>
<path fill="black" fill-rule="evenodd" clip-rule="evenodd" d="M17.5 6C16.1193 6 15 7.11929 15 8.5V9.5C15 10.8807 16.1193 12 17.5 12H18.5C19.8807 12 21 10.8807 21 9.5V8.5C21 7.11929 19.8807 6 18.5 6H17.5ZM17 8.5C17 8.22386 17.2239 8 17.5 8H18.5C18.7761 8 19 8.22386 19 8.5V9.5C19 9.77614 18.7761 10 18.5 10H17.5C17.2239 10 17 9.77614 17 9.5V8.5Z"/>
</svg>
