<svg width="24" height="24" viewBox="0 0 24 24" fill="none" xmlns="http://www.w3.org/2000/svg">
<path fill-rule="evenodd" clip-rule="evenodd" d="M11.923 4C9.20405 4 6.9999 6.20415 6.9999 8.9231C6.9999 9.15466 6.93697 9.38188 6.81783 9.58044L4.8429 12.872C4.83029 12.893 4.82914 12.9058 4.82918 12.9138C4.82924 12.925 4.83248 12.9406 4.84183 12.9571C4.85118 12.9736 4.86288 12.9844 4.87247 12.9903C4.87935 12.9944 4.89086 13 4.91538 13C6.06663 13 6.9999 13.9333 6.9999 15.0845V16.5C6.9999 16.7761 7.22376 17 7.4999 17H8.4999C9.88062 17 10.9999 18.1193 10.9999 19.5V22H8.9999V19.5C8.9999 19.2239 8.77605 19 8.4999 19H7.4999C6.11919 19 4.9999 17.8807 4.9999 16.5V15.0845C4.9999 15.0378 4.96206 15 4.91538 15C3.29509 15 2.29428 13.2324 3.12792 11.843L5.00288 8.71805C5.11134 4.98938 8.16807 2 11.923 2H12.9999C17.4182 2 20.9999 5.58172 20.9999 10V11.7281C20.9999 14.5832 19.4631 17.2049 16.9999 18.6054V22H14.9999V18.2002C14.9999 17.6988 15.2832 17.2403 15.7318 17.016C17.7347 16.0146 18.9999 13.9674 18.9999 11.7281V10C18.9999 6.68629 16.3136 4 12.9999 4H11.923Z" fill="black"/>
<path d="M12 12V15H14V12H17V10H14V7H12V10H9V12H12Z" fill="#808080"/>
</svg>
