<svg width="24" height="24" viewBox="0 0 24 24" fill="none" xmlns="http://www.w3.org/2000/svg">
<path fill="black" d="M12.293 12.7071L14.293 14.7071L15.7072 13.2929L13.7072 11.2929L12.293 12.7071Z"/>
<path fill="black" d="M10.293 14.7071L12.293 16.7071L13.7072 15.2929L11.7072 13.2929L10.293 14.7071Z"/>
<path fill="black" fill-rule="evenodd" clip-rule="evenodd" d="M21.293 8.70711L22.7072 7.29289L16.7072 1.29289L15.293 2.70711L17.5859 5L16.0001 6.58579L11.7072 2.29289L10.293 3.70711L11.5859 5L4.41429 12.1716C2.85219 13.7337 2.85219 16.2663 4.41429 17.8284L4.57121 17.9854L1.29297 21.2636L2.70718 22.6778L5.98543 19.3996L6.17165 19.5858C7.73374 21.1479 10.2664 21.1479 11.8285 19.5858L19.0001 12.4142L20.293 13.7071L21.7072 12.2929L17.4143 8L19.0001 6.41421L21.293 8.70711ZM17.5859 11L13.0001 6.41421L5.8285 13.5858C5.04745 14.3668 5.04745 15.6332 5.8285 16.4142L7.58586 18.1716C8.36691 18.9526 9.63324 18.9526 10.4143 18.1716L17.5859 11Z"/>
</svg>
