<svg width="24" height="24" viewBox="0 0 24 24" fill="none" xmlns="http://www.w3.org/2000/svg">
<path fill-rule="evenodd" clip-rule="evenodd" d="M2 6C2 3.79086 3.79086 2 6 2H18C20.2091 2 22 3.79086 22 6V18C22 20.2091 20.2091 22 18 22H6C3.79086 22 2 20.2091 2 18V6ZM6 4C4.89543 4 4 4.89543 4 6V18C4 19.1046 4.89543 20 6 20H18C19.1046 20 20 19.1046 20 18V6C20 4.89543 19.1046 4 18 4H6Z" fill="black"/>
<path fill-rule="evenodd" clip-rule="evenodd" d="M13.5859 9.17165L11.7072 7.29297L10.293 8.70718L12.1716 10.5859C12.9527 11.3669 12.9527 12.6332 12.1716 13.4143L10.293 15.293L11.7072 16.7072L13.5859 14.8285C15.148 13.2664 15.148 10.7337 13.5859 9.17165Z" fill="black"/>
</svg>
