<svg width="24" height="24" viewBox="0 0 24 24" fill="none" xmlns="http://www.w3.org/2000/svg">
<path fill="black" fill-rule="evenodd" clip-rule="evenodd" d="M5.5 3C4.11929 3 3 4.11929 3 5.5V14.5C3 15.8807 4.11929 17 5.5 17H14.5C15.8807 17 17 15.8807 17 14.5V5.5C17 4.11929 15.8807 3 14.5 3H5.5ZM5 5.5C5 5.22386 5.22386 5 5.5 5H14.5C14.7761 5 15 5.22386 15 5.5V14.5C15 14.7761 14.7761 15 14.5 15H5.5C5.22386 15 5 14.7761 5 14.5V5.5Z"/>
<path fill="black" d="M17 21C19.2091 21 21 19.2091 21 17V10H19V17C19 18.1046 18.1046 19 17 19H10V21H17Z"/>
<path fill="black" d="M9 11V13H11V11H13V9L11 9V7H9V9L7 9V11H9Z"/>
</svg>
