<svg width="24" height="24" viewBox="0 0 24 24" fill="none" xmlns="http://www.w3.org/2000/svg">
<path fill-rule="evenodd" clip-rule="evenodd" d="M2 6C2 3.79086 3.79086 2 6 2H18C20.2091 2 22 3.79086 22 6V18C22 20.2091 20.2091 22 18 22H6C3.79086 22 2 20.2091 2 18V6ZM6 4C4.89543 4 4 4.89543 4 6V18C4 19.1046 4.89543 20 6 20H18C19.1046 20 20 19.1046 20 18V6C20 4.89543 19.1046 4 18 4H6Z" fill="black"/>
<path d="M15.0001 13.5859L8.70718 7.29297L7.29297 8.70718L13.5859 15.0001H10.0001V17.0001H14.5001C15.8808 17.0001 17.0001 15.8808 17.0001 14.5001V10.0001H15.0001V13.5859Z" fill="#808080"/>
</svg>
