<svg width="24" height="24" viewBox="0 0 24 24" fill="none" xmlns="http://www.w3.org/2000/svg">
<path fill-rule="evenodd" clip-rule="evenodd" d="M4 18V11.2426C4 10.447 4.31607 9.68393 4.87868 9.12132L6.12132 7.87868C6.68393 7.31607 7.44699 7 8.24264 7H9C10.6569 7 12 8.34315 12 10V13.0917C12 13.6839 11.8247 14.263 11.4962 14.7558L10.2519 16.6221C10.0877 16.8685 10 17.158 10 17.4542V18H4ZM6 16H8.31638C8.39342 15.8313 8.48408 15.6683 8.58782 15.5127L9.83205 13.6464C9.94156 13.4821 10 13.2891 10 13.0917V10C10 9.44772 9.55228 9 9 9H8.24264C7.97742 9 7.72307 9.10536 7.53553 9.29289L6.29289 10.5355C6.10536 10.7231 6 10.9774 6 11.2426V16Z" fill="black"/>
<path d="M10 19H4V21.5C4 22.3284 4.67157 23 5.5 23H8.5C9.32843 23 10 22.3284 10 21.5V19Z" fill="black"/>
<path fill-rule="evenodd" clip-rule="evenodd" d="M21 13V5.24264C21 4.44699 20.6839 3.68393 20.1213 3.12132L18.8787 1.87868C18.3161 1.31607 17.553 1 16.7574 1H16C14.3431 1 13 2.34315 13 4V7.09167C13 7.68395 13.1753 8.26297 13.5038 8.75577L14.4962 10.2442C14.8247 10.737 15 11.3161 15 11.9083V13H21ZM19 11H16.9168C16.7942 10.3365 16.538 9.70147 16.1603 9.13483L15.1679 7.64637C15.0584 7.48211 15 7.2891 15 7.09167V4C15 3.44772 15.4477 3 16 3H16.7574C17.0226 3 17.2769 3.10536 17.4645 3.29289L18.7071 4.53553C18.8946 4.72307 19 4.97742 19 5.24264V11Z" fill="#808080"/>
<path d="M15 14H21V16.5C21 17.3284 20.3284 18 19.5 18H16.5C15.6716 18 15 17.3284 15 16.5V14Z" fill="#808080"/>
</svg>
