<svg width="24" height="24" viewBox="0 0 24 24" fill="none" xmlns="http://www.w3.org/2000/svg">
<path fill-rule="evenodd" clip-rule="evenodd" d="M13.5 4C13.2239 4 13 4.22386 13 4.5V5.07089C14.1859 5.24052 15.276 5.7074 16.1922 6.39364L16.5962 5.9896C17.5726 5.01329 19.1555 5.01329 20.1318 5.9896L21.1924 7.05026L19.7782 8.46447L18.7176 7.40381C18.5223 7.20855 18.2057 7.20855 18.0105 7.40381L17.6064 7.80786C18.2926 8.72408 18.7595 9.81407 18.9291 10.9999H19.5C20.8807 10.9999 22 12.1192 22 13.4999V14.9999H20V13.4999C20 13.2238 19.7761 12.9999 19.5 12.9999H18.9291C18.7595 14.1859 18.2926 15.2759 17.6064 16.1922L18.0105 16.5962C18.9868 17.5726 18.9868 19.1555 18.0105 20.1318L16.9498 21.1924L15.5356 19.7782L16.5962 18.7176C16.7915 18.5223 16.7915 18.2057 16.5962 18.0105L16.1922 17.6064C15.2759 18.2926 14.1859 18.7595 13 18.9291V19.5C13 20.8807 11.8807 22 10.5 22H9L9 20H10.5C10.7761 20 11 19.7761 11 19.5V18.9291C9.81408 18.7595 8.72404 18.2926 7.80779 17.6064L7.40375 18.0104C6.42744 18.9867 4.84453 18.9867 3.86822 18.0104L2.80756 16.9497L4.22177 15.5355L5.28243 16.5962C5.4777 16.7914 5.79428 16.7914 5.98954 16.5962L6.39359 16.1921C5.70739 15.2759 5.24053 14.1859 5.0709 13.0001H4.5C3.11929 13.0001 2 11.8808 2 10.5001V9.00006L4 9.00006V10.5001C4 10.7762 4.22386 11.0001 4.5 11.0001H5.07088C5.2405 9.81415 5.70737 8.72412 6.39359 7.80786L5.98954 7.40381C5.01323 6.4275 5.01323 4.84459 5.98954 3.86828L7.0502 2.80762L8.46441 4.22183L7.40375 5.28249C7.20849 5.47776 7.20849 5.79434 7.40375 5.9896L7.80779 6.39364C8.72404 5.7074 9.81408 5.24052 11 5.07089V4.5C11 3.11929 12.1193 2 13.5 2H15V4H13.5ZM7 12C7 9.23858 9.23858 7 12 7C14.7614 7 17 9.23858 17 12C17 14.7614 14.7614 17 12 17C9.23858 17 7 14.7614 7 12Z" fill="black"/>
<path d="M11 8.5C11 8.22386 11.2239 8 11.5 8H12.5C12.7761 8 13 8.22386 13 8.5V9.5C13 9.77614 12.7761 10 12.5 10H11.5C11.2239 10 11 9.77614 11 9.5V8.5Z" fill="black"/>
<path d="M11 11.5C11 11.2239 11.2239 11 11.5 11H12.5C12.7761 11 13 11.2239 13 11.5V12.5C13 12.7761 12.7761 13 12.5 13H11.5C11.2239 13 11 12.7761 11 12.5V11.5Z" fill="black"/>
<path d="M11.5 14C11.2239 14 11 14.2239 11 14.5V15.5C11 15.7761 11.2239 16 11.5 16H12.5C12.7761 16 13 15.7761 13 15.5V14.5C13 14.2239 12.7761 14 12.5 14H11.5Z" fill="black"/>
<path d="M15.5 11C15.7761 11 16 11.2239 16 11.5V12.5C16 12.7761 15.7761 13 15.5 13H14.5C14.2239 13 14 12.7761 14 12.5V11.5C14 11.2239 14.2239 11 14.5 11H15.5Z" fill="black"/>
<path d="M10 11.5C10 11.2239 9.77614 11 9.5 11H8.5C8.22386 11 8 11.2239 8 11.5V12.5C8 12.7761 8.22386 13 8.5 13H9.5C9.77614 13 10 12.7761 10 12.5L10 11.5Z" fill="black"/>
</svg>
