<svg width="24" height="24" viewBox="0 0 24 24" fill="none" xmlns="http://www.w3.org/2000/svg">
<path fill="black" fill-rule="evenodd" clip-rule="evenodd" d="M16 15H8V13H16V15Z"/>
<path fill="black" fill-rule="evenodd" clip-rule="evenodd" d="M15.9999 3V5H15V9.70332C15 10.0514 15.0908 10.3934 15.2635 10.6956L18.3034 16.0154C19.8272 18.6821 17.9017 22 14.8304 22H9.16948C6.09819 22 4.17273 18.6821 5.69651 16.0154L8.73644 10.6956C8.90912 10.3934 8.99995 10.0514 8.99995 9.7033V5H7.99995V3H15.9999ZM11 5V9.7033C11 10.3994 10.8183 11.0835 10.4729 11.6879L7.433 17.0077C6.67111 18.341 7.63384 20 9.16948 20H14.8304C16.3661 20 17.3288 18.341 16.5669 17.0077L13.527 11.6879C13.1816 11.0835 13 10.3994 13 9.70332V5H11Z"/>
</svg>
