<svg width="24" height="24" viewBox="0 0 24 24" fill="none" xmlns="http://www.w3.org/2000/svg">
<path fill-rule="evenodd" clip-rule="evenodd" d="M6 2C3.79086 2 2 3.79086 2 6V18C2 20.2091 3.79086 22 6 22H17V20H6C4.89543 20 4 19.1046 4 18V6C4 4.89543 4.89543 4 6 4H18C19.1046 4 20 4.89543 20 6V14.5C20 14.7761 19.7761 15 19.5 15H17.5C17.2239 15 17 14.7761 17 14.5V11C17 8.79086 15.2091 7 13 7H11C8.79086 7 7 8.79086 7 11V13C7 15.2091 8.79086 17 11 17H13C13.973 17 14.8649 16.6526 15.5584 16.075C16.0168 16.6394 16.7163 17 17.5 17H19.5C20.8807 17 22 15.8807 22 14.5V6C22 3.79086 20.2091 2 18 2H6ZM15 13V11C15 9.89543 14.1046 9 13 9H11C9.89543 9 9 9.89543 9 11V13C9 14.1046 9.89543 15 11 15H13C14.1046 15 15 14.1046 15 13Z" fill="black"/>
</svg>
