<svg width="24" height="24" viewBox="0 0 24 24" fill="none" xmlns="http://www.w3.org/2000/svg">
<path fill="black" fill-rule="evenodd" clip-rule="evenodd" d="M14.2928 16.7071L8.29282 10.7071L9.70703 9.29291L15.707 15.2929L14.2928 16.7071Z"/>
<path fill="black" fill-rule="evenodd" clip-rule="evenodd" d="M16.3536 4.76777C16.1583 4.5725 15.8417 4.5725 15.6464 4.76776L3.76777 16.6464C3.5725 16.8417 3.5725 17.1583 3.76777 17.3536L7.64645 21.2322C7.84171 21.4275 8.15829 21.4275 8.35355 21.2322L20.2322 9.35355C20.4275 9.15829 20.4275 8.84171 20.2322 8.64645L16.3536 4.76777ZM14.2322 3.35355C15.2085 2.37724 16.7915 2.37724 17.7678 3.35355L21.6464 7.23223C22.6228 8.20854 22.6228 9.79145 21.6464 10.7678L9.76777 22.6464C8.79145 23.6228 7.20854 23.6228 6.23223 22.6464L2.35355 18.7678C1.37724 17.7915 1.37724 16.2085 2.35355 15.2322L14.2322 3.35355Z"/>
</svg>
