<svg width="24" height="24" viewBox="0 0 24 24" fill="none" xmlns="http://www.w3.org/2000/svg">
<path fill-rule="evenodd" clip-rule="evenodd" d="M14.8283 3.41425C13.2662 1.85215 10.7336 1.85215 9.17148 3.41425L6.58569 6.00004L11.9999 11.4142L17.4141 6.00004L14.8283 3.41425ZM10.5857 4.82846C11.3667 4.04741 12.6331 4.04741 13.4141 4.82846L14.5857 6.00004L11.9999 8.58582L9.41412 6.00004L10.5857 4.82846Z" fill="black"/>
<path fill-rule="evenodd" clip-rule="evenodd" d="M14.8283 20.5858C13.2662 22.1479 10.7336 22.1479 9.17148 20.5858L6.58569 18L11.9999 12.5858L17.4141 18L14.8283 20.5858ZM10.5857 19.1716C11.3667 19.9527 12.6331 19.9527 13.4141 19.1716L14.5857 18L11.9999 15.4142L9.41412 18L10.5857 19.1716Z" fill="black"/>
<path fill-rule="evenodd" clip-rule="evenodd" d="M3.41425 14.8286C1.85215 13.2665 1.85215 10.7338 3.41425 9.17172L6.00004 6.58594L11.4142 12.0002L6.00004 17.4144L3.41425 14.8286ZM4.82846 10.5859C4.04741 11.367 4.04741 12.6333 4.82846 13.4144L6.00004 14.5859L8.58582 12.0002L6.00004 9.41436L4.82846 10.5859Z" fill="black"/>
<path fill-rule="evenodd" clip-rule="evenodd" d="M20.5858 14.8286C22.1479 13.2665 22.1479 10.7338 20.5858 9.17172L18 6.58594L12.5858 12.0002L18 17.4144L20.5858 14.8286ZM19.1716 10.5859C19.9527 11.367 19.9527 12.6333 19.1716 13.4144L18 14.5859L15.4142 12.0002L18 9.41436L19.1716 10.5859Z" fill="black"/>
</svg>
