<svg width="24" height="24" viewBox="0 0 24 24" fill="none" xmlns="http://www.w3.org/2000/svg">
<path fill-rule="evenodd" clip-rule="evenodd" d="M8 4C6.89543 4 6 4.89543 6 6V18.7252C6 19.0841 6.36703 19.3262 6.69696 19.1848L11.0152 17.3341C11.6441 17.0646 12.3559 17.0646 12.9848 17.3341L17.303 19.1848C17.633 19.3262 18 19.0841 18 18.7252V6C18 4.89543 17.1046 4 16 4H8ZM4 6C4 3.79086 5.79086 2 8 2H16C18.2091 2 20 3.79086 20 6V18.7252C20 20.52 18.1649 21.7301 16.5152 21.0231L12.197 19.1724C12.0712 19.1185 11.9288 19.1185 11.803 19.1724L7.4848 21.0231C5.83513 21.7301 4 20.52 4 18.7252V6Z" fill="black"/>
<path fill-rule="evenodd" clip-rule="evenodd" d="M9 8.5C9 7.11929 10.1193 6 11.5 6H12.5C13.8807 6 15 7.11929 15 8.5V9.5C15 10.8807 13.8807 12 12.5 12H11.5C10.1193 12 9 10.8807 9 9.5V8.5ZM11.5 8C11.2239 8 11 8.22386 11 8.5V9.5C11 9.77614 11.2239 10 11.5 10H12.5C12.7761 10 13 9.77614 13 9.5V8.5C13 8.22386 12.7761 8 12.5 8H11.5Z" fill="#808080"/>
</svg>
