<svg width="24" height="24" viewBox="0 0 24 24" fill="none" xmlns="http://www.w3.org/2000/svg">
<path fill-rule="evenodd" clip-rule="evenodd" d="M19.1972 14H14V12H20.3486C21.2606 12 22 12.7394 22 13.6514C22 14.2035 21.7241 14.7191 21.2646 15.0254L16.8028 18H22V20H15.6514C14.7394 20 14 19.2606 14 18.3486C14 17.7965 14.2759 17.2808 14.7354 16.9746L19.1972 14Z" fill="#808080"/>
<path d="M2 4H10.1972L2.73536 8.97457C2.27595 9.28085 2 9.79647 2 10.3486C2 11.2606 2.73935 12 3.65139 12H13V10H4.80278L12.2646 5.02543C12.7241 4.71915 13 4.20353 13 3.65139C13 2.73935 12.2606 2 11.3486 2H2V4Z" fill="black"/>
<path d="M6 18H10.0563L6.7955 19.9565C6.30197 20.2526 6 20.786 6 21.3615C6 22.2664 6.73358 23 7.63849 23H13V21H8.94365L12.2045 19.0435C12.698 18.7474 13 18.214 13 17.6385C13 16.7336 12.2664 16 11.3615 16H6V18Z" fill="black"/>
</svg>
