<svg width="24" height="24" viewBox="0 0 24 24" fill="none" xmlns="http://www.w3.org/2000/svg">
<path fill="black" fill-rule="evenodd" clip-rule="evenodd" d="M4.70718 4.29285L10.5859 10.1715C11.3669 10.9526 12.6332 10.9526 13.4143 10.1715L19.293 4.29285L20.7072 5.70706L14.8285 11.5857C13.2664 13.1478 10.7337 13.1478 9.17165 11.5857L3.29297 5.70706L4.70718 4.29285Z"/>
<path fill="black" fill-rule="evenodd" clip-rule="evenodd" d="M2 7C2 4.79086 3.79086 3 6 3H18C20.2091 3 22 4.79086 22 7V17C22 19.2091 20.2091 21 18 21H6C3.79086 21 2 19.2091 2 17V7ZM6 5C4.89543 5 4 5.89543 4 7V17C4 18.1046 4.89543 19 6 19H18C19.1046 19 20 18.1046 20 17V7C20 5.89543 19.1046 5 18 5H6Z"/>
</svg>
