<svg width="24" height="24" viewBox="0 0 24 24" fill="none" xmlns="http://www.w3.org/2000/svg">
<path fill-rule="evenodd" clip-rule="evenodd" d="M9.5 2C8.11929 2 7 3.11929 7 4.5L7 8C4.79086 8 3 9.79086 3 12V18C3 20.2091 4.79086 22 7 22L17 22C19.2091 22 21 20.2091 21 18V12C21 9.79086 19.2091 8 17 8L17 4.5C17 3.11929 15.8807 2 14.5 2H9.5ZM15 8V4.5C15 4.22386 14.7761 4 14.5 4H9.5C9.22386 4 9 4.22386 9 4.5V8L15 8ZM19 18C19 19.1046 18.1046 20 17 20L7 20C5.89543 20 5 19.1046 5 18L5 12C5 10.8954 5.89543 10 7 10L17 10C18.1046 10 19 10.8954 19 12V18Z" fill="black"/>
<path fill-rule="evenodd" clip-rule="evenodd" d="M9 14C9 12.8954 9.89543 12 11 12H13C14.1046 12 15 12.8954 15 14V16C15 17.1046 14.1046 18 13 18H11C9.89543 18 9 17.1046 9 16V14ZM13 14H11V16H13V14Z" fill="#808080"/>
</svg>
