<svg width="24" height="24" viewBox="0 0 24 24" fill="none" xmlns="http://www.w3.org/2000/svg">
<path fill="black" fill-rule="evenodd" clip-rule="evenodd" d="M11 8C11 5.79086 12.7909 4 15 4H20.5C21.8807 4 23 5.11929 23 6.5V17.5C23 18.8807 21.8807 20 20.5 20H15C13.8954 20 13 20.8954 13 22H11V8ZM13 18.5351C13.5883 18.1948 14.2714 18 15 18H20.5C20.7761 18 21 17.7761 21 17.5V6.5C21 6.22386 20.7761 6 20.5 6H15C13.8954 6 13 6.89543 13 8V18.5351Z"/>
<path fill="black" fill-rule="evenodd" clip-rule="evenodd" d="M13 8C13 5.79086 11.2091 4 9 4H3.5C2.11929 4 1 5.11929 1 6.5V17.5C1 18.8807 2.11929 20 3.5 20H9C10.1046 20 11 20.8954 11 22H13V8ZM11 18.5351C10.4117 18.1948 9.72857 18 9 18H3.5C3.22386 18 3 17.7761 3 17.5V6.5C3 6.22386 3.22386 6 3.5 6H9C10.1046 6 11 6.89543 11 8V18.5351Z"/>
</svg>
