<svg width="24" height="24" viewBox="0 0 24 24" fill="none" xmlns="http://www.w3.org/2000/svg">
<path fill="black" fill-rule="evenodd" clip-rule="evenodd" d="M3 4.5C3 3.11929 4.11929 2 5.5 2H7.5C8.88071 2 10 3.11929 10 4.5V7.37868C10 8.04172 9.73661 8.67761 9.26777 9.14645L6.32534 12.0889L12.5645 19.0213L15.8536 15.7322C16.3224 15.2634 16.9583 15 17.6213 15H19.5C20.8807 15 22 16.1193 22 17.5V19.5C22 20.8807 20.8807 22 19.5 22H14.3361C13.2021 22 12.1215 21.5187 11.3629 20.6759L4.02682 12.5247C3.36577 11.7902 3 10.837 3 9.84879V4.5ZM14.4142 20H19.5C19.7761 20 20 19.7761 20 19.5V17.5C20 17.2239 19.7761 17 19.5 17H17.6213C17.4887 17 17.3615 17.0527 17.2678 17.1464L14.4142 20ZM5.10311 10.4827L7.85355 7.73223C7.94732 7.63846 8 7.51129 8 7.37868V4.5C8 4.22386 7.77614 4 7.5 4H5.5C5.22386 4 5 4.22386 5 4.5V9.84879C5 10.0661 5.03537 10.28 5.10311 10.4827Z"/>
</svg>
