<svg width="24" height="24" viewBox="0 0 24 24" fill="none" xmlns="http://www.w3.org/2000/svg">
<path fill-rule="evenodd" clip-rule="evenodd" d="M4 7C4 4.79086 5.79086 3 8 3H16C18.2091 3 20 4.79086 20 7V14.6202C20 15.7879 19.4897 16.8973 18.6032 17.6572L14.6032 21.0858C13.1052 22.3698 10.8948 22.3698 9.39683 21.0858L5.39683 17.6572C4.51025 16.8973 4 15.7879 4 14.6202V7ZM8 5C6.89543 5 6 5.89543 6 7V14.6202C6 15.204 6.25513 15.7587 6.69842 16.1387L10.6984 19.5673C11.4474 20.2093 12.5526 20.2093 13.3016 19.5673L17.3016 16.1387C17.7449 15.7587 18 15.204 18 14.6202V7C18 5.89543 17.1046 5 16 5H8Z" fill="black"/>
<path fill-rule="evenodd" clip-rule="evenodd" d="M17.2072 9.70718L12.2678 14.6465C11.2915 15.6228 9.70862 15.6228 8.73231 14.6465L6.79297 12.7072L8.20718 11.293L10.1465 13.2323C10.3418 13.4276 10.6584 13.4276 10.8536 13.2323L15.793 8.29297L17.2072 9.70718Z" fill="#808080"/>
</svg>
