<svg width="24" height="24" viewBox="0 0 24 24" fill="none" xmlns="http://www.w3.org/2000/svg">
<path d="M6.5 6C6.22386 6 6 6.22386 6 6.5V7.5C6 7.77614 6.22386 8 6.5 8H7.5C7.77614 8 8 7.77614 8 7.5V6.5C8 6.22386 7.77614 6 7.5 6H6.5Z" fill="black"/>
<path d="M9.5 6C9.22386 6 9 6.22386 9 6.5V7.5C9 7.77614 9.22386 8 9.5 8H10.5C10.7761 8 11 7.77614 11 7.5V6.5C11 6.22386 10.7761 6 10.5 6H9.5Z" fill="black"/>
<path d="M16 6.5C16 6.22386 16.2239 6 16.5 6H17.5C17.7761 6 18 6.22386 18 6.5V7.5C18 7.77614 17.7761 8 17.5 8H16.5C16.2239 8 16 7.77614 16 7.5V6.5Z" fill="black"/>
<path fill-rule="evenodd" clip-rule="evenodd" d="M6 2C3.79086 2 2 3.79086 2 6V18C2 20.2091 3.79086 22 6 22H18C20.2091 22 22 20.2091 22 18V6C22 3.79086 20.2091 2 18 2H6ZM4 6C4 4.89543 4.89543 4 6 4H18C19.1046 4 20 4.89543 20 6V18C20 19.1046 19.1046 20 18 20H6C4.89543 20 4 19.1046 4 18V6Z" fill="black"/>
<path fill-rule="evenodd" clip-rule="evenodd" d="M7.5 11C6.11929 11 5 12.1193 5 13.5V16.5C5 17.8807 6.11929 19 7.5 19H16.5C17.8807 19 19 17.8807 19 16.5V13.5C19 12.1193 17.8807 11 16.5 11H7.5ZM7 13.5C7 13.2239 7.22386 13 7.5 13H11V17H7.5C7.22386 17 7 16.7761 7 16.5V13.5ZM13 17H16.5C16.7761 17 17 16.7761 17 16.5V13.5C17 13.2239 16.7761 13 16.5 13H13V17Z" fill="black"/>
</svg>
