<svg width="24" height="24" viewBox="0 0 24 24" fill="none" xmlns="http://www.w3.org/2000/svg">
<path fill="black" d="M14.7071 2.29297L17.6464 5.23231C18.6228 6.20862 18.6228 7.79153 17.6464 8.76784L14.7071 11.7072L13.2929 10.293L15.5858 8.00008H7C5.89543 8.00008 5 8.89551 5 10.0001V13.0001H3V10.0001C3 7.79094 4.79086 6.00008 7 6.00008H15.5858L13.2929 3.70718L14.7071 2.29297Z"/>
<path fill="black" d="M8.41423 16L10.7071 13.7071L9.29291 12.2929L6.35357 15.2322C5.37726 16.2085 5.37726 17.7915 6.35357 18.7678L9.29291 21.7071L10.7071 20.2929L8.41423 18H17C19.2092 18 21 16.2091 21 14V11H19V14C19 15.1046 18.1046 16 17 16H8.41423Z"/>
</svg>
