<svg width="24" height="24" viewBox="0 0 24 24" fill="none" xmlns="http://www.w3.org/2000/svg">
<path fill-rule="evenodd" clip-rule="evenodd" d="M2 5.27491C2 3.48012 3.83513 2.27005 5.4848 2.97705L21.1769 9.70224C23.1972 10.5681 23.1972 13.4321 21.1769 14.298L5.4848 21.0232C3.83513 21.7302 2 20.5201 2 18.7253V16.0812C2 15.0052 2.68858 14.0498 3.70943 13.7095L7.4147 12.4744C7.87054 12.3225 7.87055 11.6777 7.4147 11.5258L3.70943 10.2907C2.68857 9.95038 2 8.99504 2 7.91896V5.27491ZM4.69696 4.81534C4.36703 4.67394 4 4.91595 4 5.27491V7.91896C4 8.13418 4.13771 8.32525 4.34188 8.3933L8.04715 9.62839C10.3264 10.3881 10.3264 13.6121 8.04715 14.3718L4.34189 15.6069C4.13771 15.675 4 15.866 4 16.0812V18.7253C4 19.0842 4.36703 19.3263 4.69696 19.1849L20.3891 12.4597C20.7931 12.2865 20.7931 11.7137 20.3891 11.5405L4.69696 4.81534Z" fill="black"/>
</svg>
