<svg width="24" height="24" viewBox="0 0 24 24" fill="none" xmlns="http://www.w3.org/2000/svg">
<path d="M17 4H16V6H17C18.1046 6 19 6.89543 19 8V16C19 17.1046 18.1046 18 17 18H16V20H17C19.2091 20 21 18.2091 21 16V8C21 5.79086 19.2091 4 17 4Z" fill="black"/>
<path d="M14.5 8H14V10H14.5C14.7761 10 15 10.2239 15 10.5V13.5C15 13.7761 14.7761 14 14.5 14H14V16H14.5C15.8807 16 17 14.8807 17 13.5V10.5C17 9.11929 15.8807 8 14.5 8Z" fill="black"/>
<path fill-rule="evenodd" clip-rule="evenodd" d="M12 4H10V6C10 7.10457 9.10457 8 8 8H5.5C4.11929 8 3 9.11929 3 10.5V14.5C3 15.8807 4.11929 17 5.5 17H8C9.10457 17 10 17.8954 10 19V21H12V4ZM10 9.46487C9.41165 9.80521 8.72857 10 8 10H5.5C5.22386 10 5 10.2239 5 10.5V14.5C5 14.7761 5.22386 15 5.5 15H8C8.72857 15 9.41165 15.1948 10 15.5351V9.46487Z" fill="black"/>
</svg>
