<svg width="24" height="24" viewBox="0 0 24 24" fill="none" xmlns="http://www.w3.org/2000/svg">
<path fill-rule="evenodd" clip-rule="evenodd" d="M13 2.98448C13 1.67684 11.2054 1.31227 10.6951 2.51621L8.65694 7.32519C8.57861 7.51002 8.39733 7.63007 8.19658 7.63007H3.36512C1.96772 7.63007 1.32947 9.37266 2.39628 10.2752L6.40989 13.6709C6.56635 13.8033 6.62619 14.0177 6.56087 14.212L4.82772 19.3662C4.37986 20.6981 5.84499 21.8594 7.0395 21.1194L13 17.4264V2.98448ZM11 6.9221V16.3128L7.16565 18.6885L8.45656 14.8494C8.78317 13.8781 8.48397 12.8059 7.70167 12.144L4.73023 9.63007H8.19658C9.2003 9.63007 10.1067 9.02979 10.4984 8.10565L11 6.9221Z" fill="black"/>
</svg>
