<svg width="24" height="24" viewBox="0 0 24 24" fill="none" xmlns="http://www.w3.org/2000/svg">
<path fill-rule="evenodd" clip-rule="evenodd" d="M7 10H9V18H7V10Z" fill="#808080"/>
<path fill-rule="evenodd" clip-rule="evenodd" d="M10.2792 3H12.5C13.8807 3 15 4.11929 15 5.5V8.5C15 8.77614 15.2239 9 15.5 9H18.1703C19.7479 9 20.9311 10.4433 20.6217 11.9903L19.2217 18.9903C18.988 20.1589 17.962 21 16.7703 21H12.4542C11.9606 21 11.4781 20.8539 11.0674 20.5801L8.82319 19.084C8.74105 19.0292 8.64455 19 8.54584 19H5.5C4.11929 19 3 17.8807 3 16.5V11.5C3 10.1193 4.11929 9 5.5 9H7.91886C8.13408 9 8.32515 8.86228 8.3932 8.65811L10.2792 3ZM11.7208 5L10.2906 9.29057C9.95028 10.3114 8.99494 11 7.91886 11H5.5C5.22386 11 5 11.2239 5 11.5V16.5C5 16.7761 5.22386 17 5.5 17H8.54584C9.0394 17 9.52192 17.1461 9.93259 17.4199L12.1768 18.916C12.2589 18.9708 12.3555 19 12.4542 19H16.7703C17.0086 19 17.2138 18.8318 17.2606 18.5981L18.6606 11.5981C18.7225 11.2887 18.4858 11 18.1703 11H15.5C14.1193 11 13 9.88071 13 8.5V5.5C13 5.22386 12.7761 5 12.5 5H11.7208Z" fill="black"/>
</svg>
