<svg width="24" height="24" viewBox="0 0 24 24" fill="none" xmlns="http://www.w3.org/2000/svg">
<path fill="black" fill-rule="evenodd" clip-rule="evenodd" d="M6 5.99995C4.89543 5.99995 4 6.89538 4 7.99995V16C4 17.1045 4.89543 18 6 18H18C19.1046 18 20 17.1045 20 16V10.4705C20 9.36597 19.1046 8.47054 18 8.47054H12.971C12.0091 8.47054 11.0794 8.12389 10.3522 7.49411L9.19082 6.48817C8.82726 6.17328 8.3624 5.99995 7.88143 5.99995H6ZM2 7.99995C2 5.79082 3.79086 3.99995 6 3.99995H7.88143C8.84337 3.99995 9.77309 4.34661 10.5002 4.97639L11.6616 5.98233C12.0252 6.29721 12.4901 6.47054 12.971 6.47054H18C20.2091 6.47054 22 8.2614 22 10.4705V16C22 18.2091 20.2091 20 18 20H6C3.79086 20 2 18.2091 2 16V7.99995Z"/>
<path fill="black" d="M11 14L11 16H13V14H15V12L13 12V10H11L11 12L9 12V14H11Z"/>
</svg>
