<svg width="24" height="24" viewBox="0 0 24 24" fill="none" xmlns="http://www.w3.org/2000/svg">
<path fill="black" d="M5 2C2.79086 2 1 3.79086 1 6V10.5C1 11.7095 1.85888 12.7184 3 12.95V18C3 20.2091 4.79086 22 7 22H9V20H7C5.89543 20 5 19.1046 5 18V13H5.5C6.0628 13 6.58217 12.814 7 12.5002C7.41783 12.814 7.9372 13 8.5 13H10.5C11.8807 13 13 11.8807 13 10.5V9H11V10.5C11 10.7761 10.7761 11 10.5 11H8.5C8.22386 11 8 10.7761 8 10.5V9H6V10.5C6 10.7761 5.77614 11 5.5 11H3.5C3.22386 11 3 10.7761 3 10.5V6C3 4.89543 3.89543 4 5 4H19C20.1046 4 21 4.89543 21 6V8H23V6C23 3.79086 21.2091 2 19 2H5Z"/>
<path fill="black" d="M19.7071 17.2929L14.7071 12.2929L13.2929 13.7071L18.2929 18.7071L19.7071 17.2929Z"/>
<path fill="black" fill-rule="evenodd" clip-rule="evenodd" d="M19.3536 10.7678C19.1583 10.5725 18.8417 10.5725 18.6465 10.7678L11.7678 17.6464C11.5725 17.8417 11.5725 18.1583 11.7678 18.3536L13.6465 20.2322C13.8417 20.4275 14.1583 20.4275 14.3536 20.2322L21.2323 13.3536C21.4275 13.1583 21.4275 12.8417 21.2323 12.6465L19.3536 10.7678ZM17.2323 9.35356C18.2086 8.37724 19.7915 8.37725 20.7678 9.35356L22.6465 11.2322C23.6228 12.2085 23.6228 13.7915 22.6465 14.7678L15.7678 21.6465C14.7915 22.6228 13.2086 22.6228 12.2323 21.6464L10.3536 19.7678C9.37726 18.7915 9.37726 17.2085 10.3536 16.2322L17.2323 9.35356Z"/>
</svg>
