<svg width="24" height="24" viewBox="0 0 24 24" fill="none" xmlns="http://www.w3.org/2000/svg">
<path fill-rule="evenodd" clip-rule="evenodd" d="M2 7C2 4.79086 3.79086 3 6 3H18V5H6C4.89543 5 4 5.89543 4 7H18C20.2091 7 22 8.79086 22 11V17C22 19.2091 20.2091 21 18 21H6C3.79086 21 2 19.2091 2 17V7ZM4 9V17C4 18.1046 4.89543 19 6 19H18C19.1046 19 20 18.1046 20 17V11C20 9.89543 19.1046 9 18 9H4Z" fill="black"/>
<path fill-rule="evenodd" clip-rule="evenodd" d="M13 12.5C13 11.6716 13.6716 11 14.5 11H16.5C17.3284 11 18 11.6716 18 12.5V14.5C18 15.3284 17.3284 16 16.5 16H14.5C13.6716 16 13 15.3284 13 14.5V12.5ZM15 13V14H16V13H15Z" fill="black"/>
</svg>
