<svg width="24" height="24" viewBox="0 0 24 24" fill="none" xmlns="http://www.w3.org/2000/svg">
<path fill="black" fill-rule="evenodd" clip-rule="evenodd" d="M10.1735 2.48973C11.1617 1.43246 12.8383 1.43246 13.8265 2.48973L15.1353 3.89015C15.2339 3.99562 15.3732 4.05334 15.5175 4.04846L17.4333 3.98372C18.8796 3.93484 20.0652 5.12041 20.0163 6.56673L19.9516 8.48249C19.9467 8.62676 20.0044 8.7661 20.1099 8.86467L21.5103 10.1735C22.5675 11.1617 22.5676 12.8383 21.5103 13.8265L20.1099 15.1353C20.0044 15.2339 19.9467 15.3732 19.9516 15.5175L20.0163 17.4333C20.0652 18.8796 18.8796 20.0652 17.4333 20.0163L15.5175 19.9516C15.3732 19.9467 15.2339 20.0044 15.1353 20.1099L13.8265 21.5103C12.8383 22.5675 11.1617 22.5676 10.1735 21.5103L8.86467 20.1099C8.7661 20.0044 8.62676 19.9467 8.48249 19.9516L6.56673 20.0163C5.12041 20.0652 3.93484 18.8796 3.98372 17.4333L4.04846 15.5175C4.05334 15.3732 3.99562 15.2339 3.89015 15.1353L2.48973 13.8265C1.43246 12.8383 1.43246 11.1617 2.48973 10.1735L3.89015 8.86467C3.99562 8.7661 4.05334 8.62676 4.04846 8.48249L3.98372 6.56673C3.93484 5.12041 5.12041 3.93484 6.56673 3.98372L8.48249 4.04846C8.62676 4.05334 8.7661 3.99562 8.86467 3.89015L10.1735 2.48973ZM12.3653 3.85537C12.1677 3.64391 11.8323 3.64391 11.6347 3.85537L10.3258 5.2558C9.833 5.78312 9.1363 6.0717 8.41494 6.04732L6.49918 5.98257C6.20991 5.9728 5.9728 6.20991 5.98257 6.49918L6.04732 8.41494C6.0717 9.1363 5.78311 9.833 5.2558 10.3258L3.85537 11.6347C3.64391 11.8323 3.64391 12.1677 3.85537 12.3653L5.2558 13.6742C5.78312 14.167 6.0717 14.8637 6.04732 15.5851L5.98257 17.5008C5.9728 17.7901 6.20991 18.0272 6.49918 18.0174L8.41494 17.9527C9.1363 17.9283 9.833 18.2169 10.3258 18.7442L11.6347 20.1446C11.8323 20.3561 12.1677 20.3561 12.3653 20.1446L13.6742 18.7442C14.167 18.2169 14.8637 17.9283 15.5851 17.9527L17.5008 18.0174C17.7901 18.0272 18.0272 17.7901 18.0174 17.5008L17.9527 15.5851C17.9283 14.8637 18.2169 14.167 18.7442 13.6742L20.1446 12.3653C20.3561 12.1677 20.3561 11.8323 20.1446 11.6347L18.7442 10.3258C18.2169 9.833 17.9283 9.1363 17.9527 8.41494L18.0174 6.49918C18.0272 6.20991 17.7901 5.9728 17.5008 5.98257L15.5851 6.04732C14.8637 6.0717 14.167 5.78311 13.6742 5.2558L12.3653 3.85537Z"/>
<path fill="black" fill-rule="evenodd" clip-rule="evenodd" d="M17.2072 10.2072L12.2678 15.1465C11.2915 16.1228 9.70862 16.1228 8.73231 15.1465L6.79297 13.2072L8.20718 11.793L10.1465 13.7323C10.3418 13.9276 10.6584 13.9276 10.8536 13.7323L15.793 8.79297L17.2072 10.2072Z"/>
</svg>
