<svg width="24" height="24" viewBox="0 0 24 24" fill="none" xmlns="http://www.w3.org/2000/svg">
<path fill="black" d="M19 8V7H17V8C17 9.10457 16.1046 10 15 10H14V12H15C16.1046 12 17 12.8954 17 14V21H19V14C19 12.8053 18.4762 11.7329 17.6458 11C18.4762 10.2671 19 9.19469 19 8Z"/>
<path fill="black" fill-rule="evenodd" clip-rule="evenodd" d="M6.4 4.8C7.72198 3.03736 9.7967 2 12 2C14.2091 2 16 3.79086 16 6V6.76038C16 7.4686 15.812 8.16412 15.4551 8.77587L14.7456 9.99226C14.3823 10.615 14.3823 11.385 14.7456 12.0077L15.4551 13.2241C15.812 13.8359 16 14.5314 16 15.2396V16C16 18.2091 14.2091 20 12 20C9.7967 20 7.72198 18.9626 6.4 17.2L6.25 17C3.58333 13.4444 3.58333 8.55556 6.25 5L6.4 4.8ZM12 4C10.4262 4 8.94427 4.74097 8 6L7.85 6.2C5.71667 9.04445 5.71667 12.9556 7.85 15.8L8 16C8.94427 17.259 10.4262 18 12 18C13.1046 18 14 17.1046 14 16V15.2396C14 14.8855 13.906 14.5377 13.7276 14.2319L13.018 13.0155C12.2915 11.77 12.2915 10.23 13.018 8.98452L13.7276 7.76812C13.906 7.46225 14 7.11449 14 6.76038V6C14 4.89543 13.1046 4 12 4Z"/>
</svg>
