<svg width="24" height="24" viewBox="0 0 24 24" fill="none" xmlns="http://www.w3.org/2000/svg">
<path d="M11 9H8V7H11V9Z" fill="black"/>
<path d="M16 13H8V11H16V13Z" fill="black"/>
<path d="M8 17H16V15H8V17Z" fill="black"/>
<path fill-rule="evenodd" clip-rule="evenodd" d="M7 2C4.79086 2 3 3.79086 3 6V18C3 20.2091 4.79086 22 7 22H17C19.2091 22 21 20.2091 21 18V9.24264C21 8.18178 20.5786 7.16436 19.8284 6.41421L16.5858 3.17157C15.8356 2.42143 14.8182 2 13.7574 2H7ZM5 6C5 4.89543 5.89543 4 7 4H13V6C13 8.20914 14.7909 10 17 10H19V18C19 19.1046 18.1046 20 17 20H7C5.89543 20 5 19.1046 5 18V6ZM18.5671 8C18.5197 7.94022 18.4687 7.88291 18.4142 7.82843L15.1716 4.58579C15.1171 4.5313 15.0598 4.48028 15 4.43288V6C15 7.10457 15.8954 8 17 8H18.5671Z" fill="black"/>
</svg>
