<svg width="24" height="24" viewBox="0 0 24 24" fill="none" xmlns="http://www.w3.org/2000/svg">
<path d="M12 7H8V9L12 9V7Z" fill="black"/>
<path d="M16 12V10L8 10V12L16 12Z" fill="black"/>
<path fill-rule="evenodd" clip-rule="evenodd" d="M6.5 3C5.11929 3 4 4.11929 4 5.5V15C4 17.2091 5.79086 19 8 19H16C18.2091 19 20 17.2091 20 15V14C20 11.7909 18.2091 10 16 10H15C13.8954 10 13 9.10457 13 8V5.5C13 4.11929 11.8807 3 10.5 3H6.5ZM6 5.5C6 5.22386 6.22386 5 6.5 5H10.5C10.7761 5 11 5.22386 11 5.5V8C11 10.2091 12.7909 12 15 12H16C17.1046 12 18 12.8954 18 14V15C18 16.1046 17.1046 17 16 17H8C6.89543 17 6 16.1046 6 15V5.5Z" fill="black"/>
<path d="M5.5 20C5.22386 20 5 20.2239 5 20.5V21.5C5 21.7761 5.22386 22 5.5 22H6.5C6.77614 22 7 21.7761 7 21.5V20.5C7 20.2239 6.77614 20 6.5 20H5.5Z" fill="black"/>
<path d="M8 20.5C8 20.2239 8.22386 20 8.5 20H9.5C9.77614 20 10 20.2239 10 20.5V21.5C10 21.7761 9.77614 22 9.5 22H8.5C8.22386 22 8 21.7761 8 21.5V20.5Z" fill="black"/>
<path d="M11.5 20C11.2239 20 11 20.2239 11 20.5V21.5C11 21.7761 11.2239 22 11.5 22H12.5C12.7761 22 13 21.7761 13 21.5V20.5C13 20.2239 12.7761 20 12.5 20H11.5Z" fill="black"/>
<path d="M14 20.5C14 20.2239 14.2239 20 14.5 20H15.5C15.7761 20 16 20.2239 16 20.5V21.5C16 21.7761 15.7761 22 15.5 22H14.5C14.2239 22 14 21.7761 14 21.5V20.5Z" fill="black"/>
<path d="M17.5 20C17.2239 20 17 20.2239 17 20.5V21.5C17 21.7761 17.2239 22 17.5 22H18.5C18.7761 22 19 21.7761 19 21.5V20.5C19 20.2239 18.7761 20 18.5 20H17.5Z" fill="black"/>
</svg>
