<svg width="24" height="24" viewBox="0 0 24 24" fill="none" xmlns="http://www.w3.org/2000/svg">
<path fill="black" fill-rule="evenodd" clip-rule="evenodd" d="M13.5 4C13.7761 4 14 3.77614 14 3.5L14 3L16 3L16 3.5C16 4.88071 14.8807 6 13.5 6L10.5 6C9.11929 6 8 4.88071 8 3.5L8 3L10 3L10 3.5C10 3.77614 10.2239 4 10.5 4L13.5 4Z"/>
<path fill="black" fill-rule="evenodd" clip-rule="evenodd" d="M13.7679 21.6465C12.7916 22.6228 11.2086 22.6228 10.2323 21.6465L7.86064 19.2748C7.26958 18.6837 7.01302 17.8364 7.17695 17.0167L8.77835 9.00972C9.01206 7.84116 10.0381 7.00001 11.2298 7.00001L12.7704 7.00001C13.9621 7.00001 14.9881 7.84116 15.2218 9.00972L16.8232 17.0167C16.9872 17.8364 16.7306 18.6837 16.1396 19.2748L13.7679 21.6465ZM11.6465 20.2322C11.8418 20.4275 12.1584 20.4275 12.3536 20.2322L14.7253 17.8606C14.8436 17.7423 14.8949 17.5729 14.8621 17.4089L13.2607 9.40196C13.2139 9.16824 13.0087 9.00001 12.7704 9.00001L11.2298 9.00001C10.9915 9.00001 10.7863 9.16824 10.7395 9.40195L9.13811 17.4089C9.10533 17.5729 9.15664 17.7423 9.27485 17.8606L11.6465 20.2322Z"/>
</svg>
