<svg width="24" height="24" viewBox="0 0 24 24" fill="none" xmlns="http://www.w3.org/2000/svg">
<path fill-rule="evenodd" clip-rule="evenodd" d="M17 5.50002C17 4.1193 15.8807 3 14.5 3H9.00002V5H11V8H9C6.79086 8 5 9.79086 5 12V18C5 20.2091 6.79086 22 9 22H15C17.2091 22 19 20.2091 19 18V12C19 9.79086 17.2091 8 15 8H13V5H14.5C14.7761 5 15 5.22386 15 5.5L15 6.49999L17 6.50001L17 5.50002ZM7 12C7 10.8954 7.89543 10 9 10H15C16.1046 10 17 10.8954 17 12V18C17 19.1046 16.1046 20 15 20H9C7.89543 20 7 19.1046 7 18V12Z" fill="black"/>
<path d="M11 16L11 18H13V16H15V14L13 14V12H11L11 14L9 14V16H11Z" fill="black"/>
</svg>
