<svg width="24" height="24" viewBox="0 0 24 24" fill="none" xmlns="http://www.w3.org/2000/svg">
<path fill="black" d="M7 8.5C7 8.22386 7.22386 8 7.5 8H9.5C9.77614 8 10 8.22386 10 8.5V10.5C10 10.7761 9.77614 11 9.5 11H7.5C7.22386 11 7 10.7761 7 10.5V8.5Z"/>
<path fill="black" d="M14.5 8C14.2239 8 14 8.22386 14 8.5V10.5C14 10.7761 14.2239 11 14.5 11H16.5C16.7761 11 17 10.7761 17 10.5V8.5C17 8.22386 16.7761 8 16.5 8H14.5Z"/>
<path fill="black" fill-rule="evenodd" clip-rule="evenodd" d="M3 7C3 4.79086 4.79086 3 7 3H17C19.2091 3 21 4.79086 21 7V17C21 19.2091 19.2091 21 17 21H7C4.79086 21 3 19.2091 3 17V7ZM7 5C5.89543 5 5 5.89543 5 7V17C5 18.1046 5.89543 19 7 19H17C18.1046 19 19 18.1046 19 17V7C19 5.89543 18.1046 5 17 5H7Z"/>
<path fill="black" fill-rule="evenodd" clip-rule="evenodd" d="M7 14.5C7 15.8807 8.11929 17 9.5 17H14.5C15.8807 17 17 15.8807 17 14.5V13H15V14.5C15 14.7761 14.7761 15 14.5 15H9.5C9.22386 15 9 14.7761 9 14.5V13H7V14.5Z"/>
</svg>
