<svg width="24" height="24" viewBox="0 0 24 24" fill="none" xmlns="http://www.w3.org/2000/svg">
<path fill="black" fill-rule="evenodd" clip-rule="evenodd" d="M10.2679 19C10.3551 19.151 10.4619 19.2904 10.5858 19.4142C10.7715 19.5999 10.992 19.7472 11.2346 19.8478C11.4773 19.9483 11.7373 20 12 20C12.2626 20 12.5227 19.9483 12.7653 19.8478C13.008 19.7472 13.2285 19.5999 13.4142 19.4142C13.538 19.2904 13.6448 19.151 13.732 19L10.2679 19ZM8.61649 17.6864C9.00497 17.2468 9.58383 17 10.1781 17L13.8219 17C14.4161 17 14.995 17.2468 15.3835 17.6864C15.7945 18.1516 15.9824 18.8382 15.6955 19.5307C15.4945 20.016 15.1998 20.457 14.8284 20.8284C14.457 21.1999 14.016 21.4945 13.5307 21.6955C13.0454 21.8965 12.5253 22 12 22C11.4747 22 10.9545 21.8965 10.4692 21.6955C9.98394 21.4945 9.54298 21.1999 9.17155 20.8284C8.80011 20.457 8.50547 20.016 8.30446 19.5307C8.01759 18.8382 8.20543 18.1516 8.61649 17.6864Z"/>
<path fill="black" fill-rule="evenodd" clip-rule="evenodd" d="M13.0001 3.07946V2H11.0001V3.07946C8.61464 3.46176 6.61962 5.19155 5.93967 7.57138L4.03 14.2552C3.35063 16.633 5.13604 19 7.609 19H16.3912C18.8641 19 20.6495 16.633 19.9702 14.2552L18.0605 7.57137C17.3805 5.19155 15.3855 3.46175 13.0001 3.07946ZM7.86272 8.12082C8.3905 6.27357 10.0789 5 12.0001 5C13.9212 5 15.6097 6.27357 16.1374 8.12082L18.0471 14.8047C18.3614 15.9048 17.5354 17 16.3912 17H7.609C6.4648 17 5.63871 15.9048 5.95305 14.8047L7.86272 8.12082Z"/>
</svg>
