<svg width="24" height="24" viewBox="0 0 24 24" fill="none" xmlns="http://www.w3.org/2000/svg">
<path fill-rule="evenodd" clip-rule="evenodd" d="M21.7072 7.70718L15.2678 14.1465C14.2915 15.1228 12.7086 15.1228 11.7323 14.1465L9.85363 12.2678C9.65837 12.0726 9.34178 12.0726 9.14652 12.2678L3.70718 17.7072L2.29297 16.293L7.73231 10.8536C8.70862 9.87732 10.2915 9.87732 11.2678 10.8536L13.1465 12.7323C13.3418 12.9276 13.6584 12.9276 13.8536 12.7323L20.293 6.29297L21.7072 7.70718Z" fill="black"/>
<path fill-rule="evenodd" clip-rule="evenodd" d="M19.5 8H15V6H19.5C20.8807 6 22 7.11929 22 8.5V13H20V8.5C20 8.22386 19.7761 8 19.5 8Z" fill="#808080"/>
</svg>
