<svg width="24" height="24" viewBox="0 0 24 24" fill="none" xmlns="http://www.w3.org/2000/svg">
<path fill-rule="evenodd" clip-rule="evenodd" d="M2 6C2 3.79086 3.79086 2 6 2H18C20.2091 2 22 3.79086 22 6V18C22 20.2091 20.2091 22 18 22H6C3.79086 22 2 20.2091 2 18V6ZM6 4C4.89543 4 4 4.89543 4 6V18C4 19.1046 4.89543 20 6 20H18C19.1046 20 20 19.1046 20 18V6C20 4.89543 19.1046 4 18 4H6Z" fill="black"/>
<path d="M17 11L14.5 11C13.6716 11 13 10.3284 13 9.5V7H11L11 9.5C11 11.433 12.567 13 14.5 13H17V11Z" fill="black"/>
<path d="M7 13H9.5C10.3284 13 11 13.6716 11 14.5V17H13V14.5C13 12.567 11.433 11 9.5 11H7V13Z" fill="black"/>
</svg>
