<svg width="24" height="24" viewBox="0 0 24 24" fill="none" xmlns="http://www.w3.org/2000/svg">
<path fill="black" fill-rule="evenodd" clip-rule="evenodd" d="M7.5 4C7.22386 4 7 4.22386 7 4.5V7.19722C7 7.3644 7.08355 7.52052 7.22265 7.61325L12 10.7981L16.7774 7.61325C16.9164 7.52052 17 7.3644 17 7.19722V4.5C17 4.22386 16.7761 4 16.5 4H7.5ZM13.8028 12L17.8868 9.27735C18.5822 8.81369 19 8.03311 19 7.19722V4.5C19 3.11929 17.8807 2 16.5 2H7.5C6.11929 2 5 3.11929 5 4.5V7.19722C5 8.03311 5.41775 8.81369 6.11325 9.27735L10.1972 12L6.11325 14.7226C5.41775 15.1863 5 15.9669 5 16.8028V19.5C5 20.8807 6.11929 22 7.5 22H16.5C17.8807 22 19 20.8807 19 19.5V16.8028C19 15.9669 18.5822 15.1863 17.8868 14.7227L13.8028 12ZM12 13.2018L7.22265 16.3868C7.08355 16.4795 7 16.6356 7 16.8028V19.5C7 19.7761 7.22386 20 7.5 20H16.5C16.7761 20 17 19.7761 17 19.5V16.8028C17 16.6356 16.9164 16.4795 16.7774 16.3868L12 13.2018Z"/>
</svg>
