<svg width="24" height="24" viewBox="0 0 24 24" fill="none" xmlns="http://www.w3.org/2000/svg">
<path fill-rule="evenodd" clip-rule="evenodd" d="M9.5 4C8.11929 4 7 5.11929 7 6.5V7.5C7 8.88071 8.11929 10 9.5 10H12.5C13.8807 10 15 8.88071 15 7.5V6.5C15 5.11929 13.8807 4 12.5 4H9.5ZM9 6.5C9 6.22386 9.22386 6 9.5 6H12.5C12.7761 6 13 6.22386 13 6.5V7.5C13 7.77614 12.7761 8 12.5 8H9.5C9.22386 8 9 7.77614 9 7.5V6.5Z" fill="#808080"/>
<path fill-rule="evenodd" clip-rule="evenodd" d="M12.5 11C11.1193 11 10 12.1193 10 13.5V14.5C10 15.8807 11.1193 17 12.5 17H17.5C18.8807 17 20 15.8807 20 14.5V13.5C20 12.1193 18.8807 11 17.5 11H12.5ZM12 13.5C12 13.2239 12.2239 13 12.5 13H17.5C17.7761 13 18 13.2239 18 13.5V14.5C18 14.7761 17.7761 15 17.5 15H12.5C12.2239 15 12 14.7761 12 14.5V13.5Z" fill="#808080"/>
<path fill-rule="evenodd" clip-rule="evenodd" d="M5 3V17C5 18.1046 5.89543 19 7 19H21V21H7C4.79086 21 3 19.2091 3 17V3H5Z" fill="black"/>
</svg>
