<svg width="24" height="24" viewBox="0 0 24 24" fill="none" xmlns="http://www.w3.org/2000/svg">
<path fill="black" fill-rule="evenodd" clip-rule="evenodd" d="M13 8.80277L13.7227 9.88675C14.1863 10.5822 14.9669 11 15.8028 11H21V9H15.8028C15.6356 9 15.4795 8.91645 15.3868 8.77735L14.0254 6.73536C13.7191 6.27595 13.2035 6 12.6514 6C11.7394 6 11 6.73935 11 7.65139V11.1972L10.2773 10.1132C9.81369 9.41775 9.03311 9 8.19722 9H3V11H8.19722C8.3644 11 8.52052 11.0836 8.61325 11.2227L9.97457 13.2646C10.2809 13.7241 10.7965 14 11.3486 14C12.2606 14 13 13.2606 13 12.3486V8.80277Z"/>
<path fill="black" fill-rule="evenodd" clip-rule="evenodd" d="M6 2C3.79086 2 2 3.79086 2 6V14C2 16.2091 3.79086 18 6 18H11C11 19.1046 10.1046 20 9 20H6V22H9C10.1947 22 11.2671 21.4762 12 20.6458C12.7329 21.4762 13.8053 22 15 22H18V20H15C13.8954 20 13 19.1046 13 18H18C20.2091 18 22 16.2091 22 14V6C22 3.79086 20.2091 2 18 2H6ZM4 6C4 4.89543 4.89543 4 6 4H18C19.1046 4 20 4.89543 20 6V14C20 15.1046 19.1046 16 18 16H6C4.89543 16 4 15.1046 4 14V6Z"/>
</svg>
