<svg width="24" height="24" viewBox="0 0 24 24" fill="none" xmlns="http://www.w3.org/2000/svg">
<path fill="black" fill-rule="evenodd" clip-rule="evenodd" d="M7 5.5C7 4.11929 8.11929 3 9.5 3H18.5C19.8807 3 21 4.11929 21 5.5V14.5C21 15.8807 19.8807 17 18.5 17H9.5C8.11929 17 7 15.8807 7 14.5V5.5ZM9.5 5C9.22386 5 9 5.22386 9 5.5V14.5C9 14.7761 9.22386 15 9.5 15H18.5C18.7761 15 19 14.7761 19 14.5V5.5C19 5.22386 18.7761 5 18.5 5H9.5Z"/>
<path fill="black" fill-rule="evenodd" clip-rule="evenodd" d="M5 10V17C5 18.1046 5.89543 19 7 19H14V21H7C4.79086 21 3 19.2091 3 17V10H5Z"/>
</svg>
