<svg width="24" height="24" viewBox="0 0 24 24" fill="none" xmlns="http://www.w3.org/2000/svg">
<path fill="black" fill-rule="evenodd" clip-rule="evenodd" d="M4.5 7C4.22386 7 4 7.22386 4 7.5V11.5C4 11.7761 4.22386 12 4.5 12H6C6.82843 12 7.5 12.6716 7.5 13.5V17H9V7.5C9 7.22386 8.77614 7 8.5 7H4.5ZM2 7.5C2 6.11929 3.11929 5 4.5 5H8.5C9.88071 5 11 6.11929 11 7.5V17.5C11 18.3284 10.3284 19 9.5 19H7C6.17157 19 5.5 18.3284 5.5 17.5V14H4.5C3.11929 14 2 12.8807 2 11.5V7.5Z"/>
<path fill="black" fill-rule="evenodd" clip-rule="evenodd" d="M14.5 7C14.2239 7 14 7.22386 14 7.5V11.5C14 11.7761 14.2239 12 14.5 12H16C16.8284 12 17.5 12.6716 17.5 13.5V17H19V7.5C19 7.22386 18.7761 7 18.5 7H14.5ZM12 7.5C12 6.11929 13.1193 5 14.5 5H18.5C19.8807 5 21 6.11929 21 7.5V17.5C21 18.3284 20.3284 19 19.5 19H17C16.1716 19 15.5 18.3284 15.5 17.5V14H14.5C13.1193 14 12 12.8807 12 11.5V7.5Z"/>
</svg>
