<svg width="24" height="24" viewBox="0 0 24 24" fill="none" xmlns="http://www.w3.org/2000/svg">
<path d="M11 3V2H9V3C9 5.20914 10.7909 7 13 7H16V5H13C11.8954 5 11 4.10457 11 3Z" fill="#808080"/>
<path d="M7 18H10V16H7C4.79086 16 3 17.7909 3 20V21H5V20C5 18.8954 5.89543 18 7 18Z" fill="#808080"/>
<path fill-rule="evenodd" clip-rule="evenodd" d="M12.3441 8.77812C12.4619 6.65845 14.215 5 16.338 5H18C20.2091 5 22 6.79086 22 9V14.0784C22 15.2781 21.4615 16.4145 20.533 17.1742L16.9621 20.0958C16.2474 20.6805 15.3525 21 14.4291 21H11.5C9.567 21 8 19.433 8 17.5V17.0555C8 15.368 9.368 14 11.0555 14C11.6157 14 12.0783 13.5624 12.1094 13.003L12.3441 8.77812ZM16.338 7C15.2765 7 14.3999 7.82923 14.341 8.88906L14.1063 13.114C14.0164 14.7331 12.6772 16 11.0555 16C10.4726 16 10 16.4726 10 17.0555V17.5C10 18.3284 10.6716 19 11.5 19H14.4291C14.8908 19 15.3383 18.8403 15.6956 18.5479L19.2665 15.6263C19.7307 15.2464 20 14.6782 20 14.0784V9C20 7.89543 19.1046 7 18 7H16.338Z" fill="black"/>
</svg>
