<svg width="24" height="24" viewBox="0 0 24 24" fill="none" xmlns="http://www.w3.org/2000/svg">
<path fill="black" fill-rule="evenodd" clip-rule="evenodd" d="M13 8C11.8954 8 11 8.89543 11 10V14C11 15.1046 11.8954 16 13 16H17C18.1046 16 19 15.1046 19 14V13H21V14C21 16.2091 19.2091 18 17 18H13C10.7909 18 9 16.2091 9 14V10C9 7.79086 10.7909 6 13 6H17C19.2091 6 21 7.79086 21 10V11H19V10C19 8.89543 18.1046 8 17 8H13Z"/>
<path fill="black" fill-rule="evenodd" clip-rule="evenodd" d="M8 5C6.34315 5 5 6.34315 5 8V16C5 17.6569 6.34315 19 8 19H16C17.6569 19 19 17.6569 19 16V13.3333H21V16C21 18.7614 18.7614 21 16 21H8C5.23858 21 3 18.7614 3 16V8C3 5.23858 5.23858 3 8 3H16C18.7614 3 21 5.23858 21 8V10.6667H19V8C19 6.34315 17.6569 5 16 5H8Z"/>
</svg>
