<svg width="24" height="24" viewBox="0 0 24 24" fill="none" xmlns="http://www.w3.org/2000/svg">
<path fill="black" fill-rule="evenodd" clip-rule="evenodd" d="M14.7279 8.65681L12.6065 6.53549L14.0208 5.12128L16.1421 7.2426C17.7042 8.80469 17.7042 11.3374 16.1421 12.8995L15.435 13.6066L14.0208 12.1923L14.7279 11.4852C15.5089 10.7042 15.5089 9.43786 14.7279 8.65681Z"/>
<path fill="black" d="M15.4349 3.70708L17.5562 5.8284C18.3373 6.60944 18.3373 7.87578 17.5562 8.65682L14.3494 11.8636C14.174 11.207 13.8288 10.5862 13.3136 10.071L11.1922 7.94969L9.77804 9.3639L11.8994 11.4852C12.6804 12.2663 12.6804 13.5326 11.8994 14.3137L5.5354 20.6776L6.94961 22.0919L18.9704 10.071C20.5325 8.50894 20.5325 5.97628 18.9704 4.41418L16.8491 2.29286L15.4349 3.70708Z"/>
</svg>
