<svg width="24" height="24" viewBox="0 0 24 24" fill="none" xmlns="http://www.w3.org/2000/svg">
<path d="M8 1.99998L7.99998 4.99993L9.99998 4.99995L10 2L8 1.99998Z" fill="black"/>
<path d="M2.29283 3.7071L5.29283 6.7071L6.70705 5.29289L3.70705 2.29289L2.29283 3.7071Z" fill="black"/>
<path d="M2 9.99997H4.99998V7.99997H2V9.99997Z" fill="black"/>
<path fill-rule="evenodd" clip-rule="evenodd" d="M7 11C7 8.79085 8.79086 6.99999 11 6.99999H15C17.2091 6.99999 19 8.79085 19 11V17.05C20.1411 17.2816 21 18.2905 21 19.5V20.5C21 21.8807 19.8807 23 18.5 23H7.5C6.11929 23 5 21.8807 5 20.5V19.5C5 18.2905 5.85888 17.2816 7 17.05V11ZM17 11V17H9V11C9 9.89542 9.89543 8.99999 11 8.99999H15C16.1046 8.99999 17 9.89542 17 11ZM7.5 19C7.22386 19 7 19.2239 7 19.5V20.5C7 20.7761 7.22386 21 7.5 21H18.5C18.7761 21 19 20.7761 19 20.5V19.5C19 19.2239 18.7761 19 18.5 19H7.5Z" fill="black"/>
<path fill-rule="evenodd" clip-rule="evenodd" d="M12 15L12 11L14 11L14 15L12 15Z" fill="black"/>
</svg>
