<svg width="24" height="24" viewBox="0 0 24 24" fill="none" xmlns="http://www.w3.org/2000/svg">
<path d="M20.7659 17.3517C20.9174 16.9294 21 16.4744 21 16V8C21 5.79086 19.2091 4 17 4H16V6H17C18.1046 6 19 6.89543 19 8V15.5858L20.7659 17.3517Z" fill="black"/>
<path d="M18.1919 17.6062C17.8591 17.8536 17.4466 18 17 18H16V20H17C17.9991 20 18.9127 19.6337 19.6138 19.028L18.1919 17.6062Z" fill="black"/>
<path d="M16.9986 13.5844C16.9995 13.5564 17 13.5282 17 13.5V10.5C17 9.11929 15.8807 8 14.5 8H14V10H14.5C14.7761 10 15 10.2239 15 10.5V11.5858L16.9986 13.5844Z" fill="black"/>
<path d="M14.5795 13.9937L16.0486 15.4628C15.6227 15.7992 15.0848 16 14.5 16H14V14H14.5C14.5271 14 14.5536 13.9979 14.5795 13.9937Z" fill="black"/>
<path fill-rule="evenodd" clip-rule="evenodd" d="M12 11.4142V21H10V19C10 17.8954 9.10457 17 8 17H5.5C4.11929 17 3 15.8807 3 14.5V10.5C3 9.11929 4.11929 8 5.5 8H8C8.17916 8 8.35282 7.97644 8.51804 7.93226L12 11.4142ZM8 10C8.72857 10 9.41165 9.80521 10 9.46487V15.5351C9.41165 15.1948 8.72857 15 8 15H5.5C5.22386 15 5 14.7761 5 14.5V10.5C5 10.2239 5.22386 10 5.5 10H8Z" fill="black"/>
<path d="M12 8.58579V4H10V6C10 6.17916 9.97644 6.35282 9.93226 6.51804L12 8.58579Z" fill="black"/>
<path fill-rule="evenodd" clip-rule="evenodd" d="M20.293 21.7072L1.29297 2.70718L2.70718 1.29297L21.7072 20.293L20.293 21.7072Z" fill="#808080"/>
</svg>
