<svg width="24" height="24" viewBox="0 0 24 24" fill="none" xmlns="http://www.w3.org/2000/svg">
<path fill="black" fill-rule="evenodd" clip-rule="evenodd" d="M8.29415 3.82358C9.5189 1.52718 13 2.39747 13 5.00005V8.50005C13 8.7762 13.2239 9.00005 13.5 9.00005H17.5C19.3873 9.00005 20.5941 11.0113 19.7059 12.6765L15.7059 20.1765C14.4812 22.4729 11 21.6026 11 19.0001V15.5001C11 15.2239 10.7762 15.0001 10.5 15.0001H6.50004C4.61273 15.0001 3.40601 12.9888 4.29415 11.3236L8.29415 3.82358ZM11 5.00005C11 4.47953 10.3038 4.30548 10.0589 4.76476L6.05886 12.2648C5.88123 12.5978 6.12258 13.0001 6.50004 13.0001H10.5C11.8807 13.0001 13 14.1193 13 15.5001V19.0001C13 19.5206 13.6963 19.6946 13.9412 19.2353L17.9412 11.7353C18.1188 11.4023 17.8775 11.0001 17.5 11.0001H13.5C12.1193 11.0001 11 9.88077 11 8.50005V5.00005Z"/>
</svg>
