<svg width="24" height="24" viewBox="0 0 24 24" fill="none" xmlns="http://www.w3.org/2000/svg">
<path fill-rule="evenodd" clip-rule="evenodd" d="M3.35322 8.76774C2.3769 7.79142 2.37691 6.20851 3.35322 5.2322L5.2319 3.35352C6.20821 2.37721 7.79112 2.37721 8.76743 3.35352L20.6461 15.2322C21.6224 16.2085 21.6224 17.7914 20.6461 18.7677L18.7674 20.6464C17.7911 21.6227 16.2082 21.6227 15.2319 20.6464L3.35322 8.76774ZM4.76743 6.64642C4.57217 6.84168 4.57217 7.15826 4.76743 7.35352L16.6461 19.2322C16.8414 19.4275 17.158 19.4275 17.3532 19.2322L19.2319 17.3535C19.4272 17.1583 19.4272 16.8417 19.2319 16.6464L7.35322 4.76774C7.15795 4.57247 6.84137 4.57247 6.64611 4.76774L4.76743 6.64642Z" fill="black"/>
<path d="M10.9394 11.6464C10.7441 11.8417 10.7441 12.1583 10.9394 12.3535L11.6465 13.0606C11.8418 13.2559 12.1583 13.2559 12.3536 13.0606L13.0607 12.3535C13.256 12.1583 13.256 11.8417 13.0607 11.6464L12.3536 10.9393C12.1583 10.7441 11.8418 10.7441 11.6465 10.9393L10.9394 11.6464Z" fill="black"/>
<path fill-rule="evenodd" clip-rule="evenodd" d="M18.7678 3.35354C17.7915 2.37723 16.2086 2.37723 15.2323 3.35354L3.35357 15.2322C2.37726 16.2085 2.37726 17.7914 3.35357 18.7678L5.23225 20.6464C6.20856 21.6227 7.79147 21.6227 8.76778 20.6464L20.6465 8.76775C21.6228 7.79144 21.6228 6.20853 20.6465 5.23222L18.7678 3.35354ZM16.6465 4.76775C16.8417 4.57249 17.1583 4.57249 17.3536 4.76775L19.2323 6.64644C19.4275 6.8417 19.4275 7.15828 19.2323 7.35354L7.35357 19.2322C7.15831 19.4275 6.84173 19.4275 6.64646 19.2322L4.76778 17.3535C4.57252 17.1583 4.57252 16.8417 4.76779 16.6464L16.6465 4.76775Z" fill="black"/>
</svg>
