<svg width="24" height="24" viewBox="0 0 24 24" fill="none" xmlns="http://www.w3.org/2000/svg">
<path fill-rule="evenodd" clip-rule="evenodd" d="M2 17V14H4V17C4 18.1046 4.89543 19 6 19H18C19.1046 19 20 18.1046 20 17V14H22V17C22 19.2091 20.2091 21 18 21H6C3.79086 21 2 19.2091 2 17Z" fill="black"/>
<path d="M13 11.5351C13.5883 11.1948 14.2714 11 15 11H16V13H15C13.8954 13 13 13.8954 13 15V16H11V15C11 13.8954 10.1046 13 9 13H8V11H9C9.72857 11 10.4117 11.1948 11 11.5351L11 2H13L13 11.5351Z" fill="black"/>
</svg>
