<svg width="24" height="24" viewBox="0 0 24 24" fill="none" xmlns="http://www.w3.org/2000/svg">
<path d="M15 9C15 10.1046 15.8954 11 17 11V13C15.8954 13 15 13.8954 15 15H13C13 14.2714 13.1948 13.5883 13.5351 13L7 13V11L13.5351 11C13.1948 10.4117 13 9.72857 13 9H15Z" fill="#808080"/>
<path fill-rule="evenodd" clip-rule="evenodd" d="M2 6C2 3.79086 3.79086 2 6 2H18C20.2091 2 22 3.79086 22 6V18C22 20.2091 20.2091 22 18 22H6C3.79086 22 2 20.2091 2 18V6ZM6 4C4.89543 4 4 4.89543 4 6V18C4 19.1046 4.89543 20 6 20H18C19.1046 20 20 19.1046 20 18V6C20 4.89543 19.1046 4 18 4H6Z" fill="black"/>
</svg>
