<svg width="24" height="24" viewBox="0 0 24 24" fill="none" xmlns="http://www.w3.org/2000/svg">
<path fill="black" fill-rule="evenodd" clip-rule="evenodd" d="M13 2V5H15C15.7418 5 16.4365 5.20193 17.032 5.55382L19.2929 3.29289L20.7071 4.70711L18.4462 6.96803C18.7981 7.56355 19 8.25819 19 9V11H22V13H19V15C19 15.7418 18.7981 16.4365 18.4462 17.032L20.7071 19.2929L19.2929 20.7071L17.032 18.4462C16.4364 18.7981 15.7418 19 15 19H13V22H11V19H9C8.25819 19 7.56355 18.7981 6.96803 18.4462L4.70711 20.7071L3.29289 19.2929L5.55382 17.032C5.20193 16.4365 5 15.7418 5 15V13H2V11H5V9C5 8.25819 5.20193 7.56353 5.55383 6.96802L3.29289 4.70708L4.70711 3.29287L6.96805 5.55381C7.56356 5.20193 8.2582 5 9 5H11V2H13ZM9 7C7.89543 7 7 7.89543 7 9V15C7 16.1046 7.89543 17 9 17H15C16.1046 17 17 16.1046 17 15V9C17 7.89543 16.1046 7 15 7H9Z"/>
<path fill="black" fill-rule="evenodd" clip-rule="evenodd" d="M11.5 11C11.2239 11 11 11.2239 11 11.5V12.5C11 12.7761 11.2239 13 11.5 13H12.5C12.7761 13 13 12.7761 13 12.5V11.5C13 11.2239 12.7761 11 12.5 11H11.5ZM9 11.5C9 10.1193 10.1193 9 11.5 9H12.5C13.8807 9 15 10.1193 15 11.5V12.5C15 13.8807 13.8807 15 12.5 15H11.5C10.1193 15 9 13.8807 9 12.5V11.5Z"/>
</svg>
