<svg width="24" height="24" viewBox="0 0 24 24" fill="none" xmlns="http://www.w3.org/2000/svg">
<path d="M8 9L16 9V7H8V9Z" fill="#808080"/>
<path d="M8 17L16 17V15L8 15V17Z" fill="#808080"/>
<path d="M11.5 11C11.2239 11 11 11.2239 11 11.5V12.5C11 12.7761 11.2239 13 11.5 13H12.5C12.7761 13 13 12.7761 13 12.5V11.5C13 11.2239 12.7761 11 12.5 11H11.5Z" fill="black"/>
<path fill-rule="evenodd" clip-rule="evenodd" d="M11 2C8.79086 2 7 3.79086 7 6V18C7 20.2091 8.79086 22 11 22H13C15.2091 22 17 20.2091 17 18V6C17 3.79086 15.2091 2 13 2H11ZM9 6C9 4.89543 9.89543 4 11 4H13C14.1046 4 15 4.89543 15 6V18C15 19.1046 14.1046 20 13 20H11C9.89543 20 9 19.1046 9 18V6Z" fill="black"/>
</svg>
