<svg width="24" height="24" viewBox="0 0 24 24" fill="none" xmlns="http://www.w3.org/2000/svg">
<path fill="black" fill-rule="evenodd" clip-rule="evenodd" d="M4.5 11C3.11929 11 2 12.1193 2 13.5V14.5C2 15.8807 3.11929 17 4.5 17H9C9 18.1046 8.10457 19 7 19H2V21H7C9.20914 21 11 19.2091 11 17H13C13 19.2091 14.7909 21 17 21H22V19H17C15.8954 19 15 18.1046 15 17H19.5C20.8807 17 22 15.8807 22 14.5V13.5C22 12.1193 20.8807 11 19.5 11H4.5ZM4 13.5C4 13.2239 4.22386 13 4.5 13H19.5C19.7761 13 20 13.2239 20 13.5V14.5C20 14.7761 19.7761 15 19.5 15H4.5C4.22386 15 4 14.7761 4 14.5V13.5Z"/>
<path fill="black" fill-rule="evenodd" clip-rule="evenodd" d="M13 3V5H15V7H13V9H11V7H9V5H11V3H13Z"/>
</svg>
