<svg width="24" height="24" viewBox="0 0 24 24" fill="none" xmlns="http://www.w3.org/2000/svg">
<path fill-rule="evenodd" clip-rule="evenodd" d="M3 7C3 4.79086 4.79086 3 7 3H8.09167C8.88137 3 9.6534 3.23375 10.3105 3.6718L10.8906 4.05855C11.5624 4.50642 12.4376 4.50642 13.1094 4.05855L13.6895 3.6718C14.3466 3.23375 15.1186 3 15.9083 3H17C19.2091 3 21 4.79086 21 7V9.75736C21 10.8182 20.5786 11.8356 19.8284 12.5858L19.5858 12.8284C19.2107 13.2035 19 13.7122 19 14.2426V19.2566C19 20.7717 17.7717 22 16.2566 22C15.0757 22 14.0274 21.2444 13.6539 20.1241L12.3675 16.2649C12.3148 16.1067 12.1668 16 12 16C11.8332 16 11.6852 16.1067 11.6325 16.2649L10.346 20.1241C9.97263 21.2444 8.92427 22 7.74342 22C6.22827 22 5 20.7717 5 19.2566V14.2426C5 13.7122 4.78929 13.2035 4.41421 12.8284L4.17157 12.5858C3.42143 11.8356 3 10.8182 3 9.75736V7ZM7 5C5.89543 5 5 5.89543 5 7V9.75736C5 10.2878 5.21071 10.7965 5.58579 11.1716L5.82843 11.4142C6.57857 12.1644 7 13.1818 7 14.2426V19.2566C7 19.6672 7.33284 20 7.74342 20C8.06341 20 8.34749 19.7952 8.44868 19.4917L9.73509 15.6325C10.0601 14.6576 10.9724 14 12 14C13.0276 14 13.9399 14.6576 14.2649 15.6325L15.5513 19.4917C15.6525 19.7952 15.9366 20 16.2566 20C16.6672 20 17 19.6672 17 19.2566V14.2426C17 13.1818 17.4214 12.1644 18.1716 11.4142L18.4142 11.1716C18.7893 10.7965 19 10.2878 19 9.75736V7C19 5.89543 18.1046 5 17 5H15.9083C15.5135 5 15.1275 5.11688 14.7989 5.3359L14.2188 5.72265C12.8752 6.61838 11.1248 6.61838 9.7812 5.72265L9.20107 5.3359C8.87254 5.11688 8.48652 5 8.09167 5H7Z" fill="black"/>
<path d="M7 7.5C7 7.22386 7.22386 7 7.5 7H8.5C8.77614 7 9 7.22386 9 7.5V8.5C9 8.77614 8.77614 9 8.5 9H7.5C7.22386 9 7 8.77614 7 8.5V7.5Z" fill="#808080"/>
<path d="M11 8.5C11 8.22386 11.2239 8 11.5 8H12.5C12.7761 8 13 8.22386 13 8.5V9.5C13 9.77614 12.7761 10 12.5 10H11.5C11.2239 10 11 9.77614 11 9.5V8.5Z" fill="#808080"/>
<path d="M15.5 7C15.2239 7 15 7.22386 15 7.5V8.5C15 8.77614 15.2239 9 15.5 9H16.5C16.7761 9 17 8.77614 17 8.5V7.5C17 7.22386 16.7761 7 16.5 7H15.5Z" fill="#808080"/>
</svg>
