<svg width="24" height="24" viewBox="0 0 24 24" fill="none" xmlns="http://www.w3.org/2000/svg">
<path d="M10.4142 11.0001L12.7071 8.70718L11.2929 7.29297L8.35357 10.2323C7.37726 11.2086 7.37726 12.7915 8.35357 13.7678L11.2929 16.7072L12.7071 15.293L10.4142 13.0001L21 13.0001V11.0001L10.4142 11.0001Z" fill="#808080"/>
<path fill-rule="evenodd" clip-rule="evenodd" d="M7 2L12 2L12 4L7 4C5.89543 4 5 4.89543 5 6L5 18C5 19.1046 5.89543 20 7 20L12 20L12 22L7 22C4.79086 22 3 20.2091 3 18L3 6C3 3.79086 4.79086 2 7 2Z" fill="black"/>
</svg>
