<svg width="24" height="24" viewBox="0 0 24 24" fill="none" xmlns="http://www.w3.org/2000/svg">
<path fill="black" fill-rule="evenodd" clip-rule="evenodd" d="M13 9C13 9.52529 12.8965 10.0454 12.6955 10.5307C12.4945 11.016 12.1999 11.457 11.8284 11.8284C11.457 12.1999 11.016 12.4945 10.5307 12.6955C10.0454 12.8965 9.52529 13 9 13V15C9.52529 15 10.0454 15.1035 10.5307 15.3045C11.016 15.5055 11.457 15.8001 11.8284 16.1716C12.1999 16.543 12.4945 16.984 12.6955 17.4693C12.8965 17.9546 13 18.4747 13 19H15C15 18.4747 15.1035 17.9546 15.3045 17.4693C15.5055 16.984 15.8001 16.543 16.1716 16.1716C16.543 15.8001 16.984 15.5055 17.4693 15.3045C17.9546 15.1035 18.4747 15 19 15V13C18.4747 13 17.9546 12.8965 17.4693 12.6955C16.984 12.4945 16.543 12.1999 16.1716 11.8284C15.8001 11.457 15.5055 11.016 15.3045 10.5307C15.1035 10.0454 15 9.52529 15 9H13ZM15.6834 14C15.351 13.7796 15.0407 13.526 14.7574 13.2426C14.474 12.9593 14.2204 12.649 14 12.3166C13.7796 12.649 13.526 12.9593 13.2426 13.2426C12.9593 13.526 12.649 13.7796 12.3166 14C12.649 14.2204 12.9593 14.474 13.2426 14.7574C13.526 15.0407 13.7796 15.351 14 15.6834C14.2204 15.351 14.474 15.0407 14.7574 14.7574C15.0407 14.474 15.351 14.2204 15.6834 14Z"/>
<path fill="black" d="M8.76274 6.2884L8.47426 5.42294C8.32231 4.96709 7.67752 4.96709 7.52557 5.42294L7.23709 6.2884C7.08778 6.73631 6.73631 7.08778 6.2884 7.23709L5.42294 7.52557C4.96709 7.67752 4.96709 8.32231 5.42294 8.47426L6.2884 8.76274C6.73631 8.91205 7.08778 9.26352 7.23709 9.71143L7.52557 10.5769C7.67752 11.0327 8.32231 11.0327 8.47426 10.5769L8.76274 9.71143C8.91205 9.26352 9.26352 8.91205 9.71143 8.76274L10.5769 8.47426C11.0327 8.32231 11.0327 7.67752 10.5769 7.52557L9.71143 7.23709C9.26352 7.08778 8.91205 6.73631 8.76274 6.2884Z"/>
</svg>
