<svg width="24" height="24" viewBox="0 0 24 24" fill="none" xmlns="http://www.w3.org/2000/svg">
<path d="M17 3C19.2091 3 21 4.79086 21 7V10H19V7C19 5.89543 18.1046 5 17 5H14V3H17Z" fill="black"/>
<path d="M7 21C4.79086 21 3 19.2091 3 17V14H5V17C5 18.1046 5.89543 19 7 19H10V21H7Z" fill="black"/>
<path d="M7 3C4.79086 3 3 4.79086 3 7V10H5V7C5 5.89543 5.89543 5 7 5H10V3H7Z" fill="#808080"/>
<path d="M17 21C19.2091 21 21 19.2091 21 17V14H19V17C19 18.1046 18.1046 19 17 19H14V21H17Z" fill="#808080"/>
</svg>
