<svg width="24" height="24" viewBox="0 0 24 24" fill="none" xmlns="http://www.w3.org/2000/svg">
<path fill-rule="evenodd" clip-rule="evenodd" d="M4 12H8.07295C9.01988 12 9.88554 12.535 10.309 13.382L10.4798 13.7236C10.5645 13.893 10.7377 14 10.9271 14H13.0729C13.2623 14 13.4355 13.893 13.5202 13.7236L13.691 13.382C14.1145 12.535 14.9801 12 15.9271 12H20V14H15.9271C15.7377 14 15.5645 14.107 15.4798 14.2764L15.309 14.618C14.8855 15.465 14.0199 16 13.0729 16H10.9271C9.98012 16 9.11446 15.465 8.69098 14.618L8.52016 14.2764C8.43547 14.107 8.26234 14 8.07295 14H4V12Z" fill="black"/>
<path fill-rule="evenodd" clip-rule="evenodd" d="M5.69868 5.62219C6.06459 4.64643 6.99739 4 8.0395 4H15.9605C17.0026 4 17.9354 4.64643 18.3013 5.62219L20.8408 12.3942C20.9461 12.6749 21 12.9722 21 13.272V17.5C21 18.8807 19.8807 20 18.5 20H5.5C4.11929 20 3 18.8807 3 17.5V13.272C3 12.9722 3.05392 12.6749 3.15918 12.3942L5.69868 5.62219ZM8.0395 6C7.83108 6 7.64452 6.12929 7.57134 6.32444L5.03184 13.0964C5.01078 13.1526 5 13.212 5 13.272V17.5C5 17.7761 5.22386 18 5.5 18H18.5C18.7761 18 19 17.7761 19 17.5V13.272C19 13.212 18.9892 13.1526 18.9682 13.0964L16.4287 6.32444C16.3555 6.12929 16.1689 6 15.9605 6H8.0395Z" fill="black"/>
</svg>
