<svg width="24" height="24" viewBox="0 0 24 24" fill="none" xmlns="http://www.w3.org/2000/svg">
<path d="M19 6L5 6V4H19V6Z" fill="black"/>
<path d="M5 17L19 17V15L5 15V17Z" fill="black"/>
<path d="M5 20L19 20V18L5 18V20Z" fill="black"/>
<path d="M5 9L19 9V7L5 7V9Z" fill="black"/>
<path d="M20 1.99994V8.99994C20 10.1946 19.4762 11.267 18.6458 12C19.4762 12.7329 20 13.8053 20 15V22H18V15C18 13.8954 17.1046 13 16 13H8C7.9957 13 7.9914 13 7.98711 13C6.88847 13.0069 6 13.8997 6 14.9999V21.9999H4V14.9999C4 13.8053 4.52374 12.7329 5.35414 12C4.52374 11.267 4 10.1947 4 9V2H6V9C6 10.1003 6.88848 10.993 7.98711 11C7.99141 10.9999 7.9957 10.9999 8 10.9999H16C17.1046 10.9999 18 10.1045 18 8.99994V1.99994H20Z" fill="black"/>
</svg>
