<svg width="24" height="24" viewBox="0 0 24 24" fill="none" xmlns="http://www.w3.org/2000/svg">
<path fill="black" d="M8.23245 8.60504L6.60498 9.76752L11.8051 17.0477L11.628 17.343L12.3071 17.7505L12.7675 18.395L13.0477 18.1948L13.3429 18.372L13.7504 17.6929L14.3949 17.2325L14.1948 16.9523L17.3719 11.657L15.657 10.628L12.9272 15.1777L8.23245 8.60504Z"/>
<path fill="black" fill-rule="evenodd" clip-rule="evenodd" d="M3 3.5H10C12.2091 3.5 14 5.29086 14 7.5V7.53513C14.5883 7.19479 15.2714 7 16 7H21V14C21 16.2091 19.2091 18 17 18H14V20H12V18H7C4.79086 18 3 16.2091 3 14V3.5ZM14 16H17C18.1046 16 19 15.1046 19 14V9H16C14.8954 9 14 9.89543 14 11V16ZM12 16H7C5.89543 16 5 15.1046 5 14V5.5H10C11.1046 5.5 12 6.39543 12 7.5V16Z"/>
</svg>
