<svg width="24" height="24" viewBox="0 0 24 24" fill="none" xmlns="http://www.w3.org/2000/svg">
<path fill-rule="evenodd" clip-rule="evenodd" d="M14.2928 16.7071L8.29282 10.7071L9.70703 9.29291L15.707 15.2929L14.2928 16.7071Z" fill="#808080"/>
<path fill-rule="evenodd" clip-rule="evenodd" d="M18.2929 6.70711C17.0266 5.44077 14.9734 5.44077 13.7071 6.7071L5.70711 14.7071C4.44078 15.9734 4.44078 18.0266 5.70711 19.2929C6.97344 20.5592 9.02656 20.5592 10.2929 19.2929L18.2929 11.2929C19.5592 10.0266 19.5592 7.97344 18.2929 6.70711ZM12.2929 5.29289C14.3403 3.24551 17.6597 3.24551 19.7071 5.29289C21.7545 7.34027 21.7545 10.6597 19.7071 12.7071L11.7071 20.7071C9.65972 22.7545 6.34027 22.7545 4.29289 20.7071C2.24552 18.6597 2.24551 15.3403 4.29289 13.2929L12.2929 5.29289Z" fill="black"/>
</svg>
