<svg width="24" height="24" viewBox="0 0 24 24" fill="none" xmlns="http://www.w3.org/2000/svg">
<path fill="black" d="M18.5858 13.0001L8 13.0001V11.0001L18.5858 11.0001L16.2929 8.70718L17.7071 7.29297L20.6464 10.2323C21.6228 11.2086 21.6228 12.7915 20.6464 13.7678L17.7071 16.7072L16.2929 15.293L18.5858 13.0001Z"/>
<path fill="black" fill-rule="evenodd" clip-rule="evenodd" d="M7 2L12 2L12 4L7 4C5.89543 4 5 4.89543 5 6L5 18C5 19.1046 5.89543 20 7 20L12 20L12 22L7 22C4.79086 22 3 20.2091 3 18L3 6C3 3.79086 4.79086 2 7 2Z"/>
</svg>
