<svg width="24" height="24" viewBox="0 0 24 24" fill="none" xmlns="http://www.w3.org/2000/svg">
<path fill="black" fill-rule="evenodd" clip-rule="evenodd" d="M9.01036 3.85817C10.6015 2.06811 13.3985 2.06811 14.9896 3.85817L19.9896 9.48317C20.6405 10.2154 21 11.161 21 12.1406V18.5C21 19.8807 19.8807 21 18.5 21H15.5C14.1193 21 13 19.8807 13 18.5V15.5C13 15.2239 12.7761 15 12.5 15H11.5C11.2239 15 11 15.2239 11 15.5V18.5C11 19.8807 9.88071 21 8.5 21H5.5C4.11929 21 3 19.8807 3 18.5V12.1406C3 11.161 3.35951 10.2154 4.01036 9.48317L9.01036 3.85817ZM13.4948 5.1869C12.6992 4.29187 11.3008 4.29187 10.5052 5.1869L5.50518 10.8119C5.17976 11.178 5 11.6508 5 12.1406V18.5C5 18.7762 5.22386 19 5.5 19H8.5C8.77614 19 9 18.7762 9 18.5V15.5C9 14.1193 10.1193 13 11.5 13H12.5C13.8807 13 15 14.1193 15 15.5V18.5C15 18.7762 15.2239 19 15.5 19H18.5C18.7761 19 19 18.7762 19 18.5V12.1406C19 11.6508 18.8202 11.178 18.4948 10.8119L13.4948 5.1869Z"/>
</svg>
