<svg width="24" height="24" viewBox="0 0 24 24" fill="none" xmlns="http://www.w3.org/2000/svg">
<path fill="black" fill-rule="evenodd" clip-rule="evenodd" d="M16 7H8V5H16V7Z"/>
<path fill="black" fill-rule="evenodd" clip-rule="evenodd" d="M9.5 2C8.11929 2 7 3.11929 7 4.5V9.5C7 10.8807 8.11929 12 9.5 12H14.5C15.8807 12 17 10.8807 17 9.5V4.5C17 3.11929 15.8807 2 14.5 2H9.5ZM9 4.5C9 4.22386 9.22386 4 9.5 4H14.5C14.7761 4 15 4.22386 15 4.5V9.5C15 9.77614 14.7761 10 14.5 10H9.5C9.22386 10 9 9.77614 9 9.5V4.5Z"/>
<path fill="black" fill-rule="evenodd" clip-rule="evenodd" d="M5 15.5C5 15.2239 5.22386 15 5.5 15H7V16.5C7 17.8807 8.11929 19 9.5 19H11V21H13V19H14.5C15.8807 19 17 17.8807 17 16.5V15H18.5C18.7761 15 19 15.2239 19 15.5V21H21V15.5C21 14.1193 19.8807 13 18.5 13H5.5C4.11929 13 3 14.1193 3 15.5V21H5V15.5ZM9 16.5V15H15V16.5C15 16.7761 14.7761 17 14.5 17H9.5C9.22386 17 9 16.7761 9 16.5Z"/>
</svg>
