<svg width="24" height="24" viewBox="0 0 24 24" fill="none" xmlns="http://www.w3.org/2000/svg">
<path d="M19 9H5V11H19V9Z" fill="#808080"/>
<path d="M19 13H5V15H19V13Z" fill="#808080"/>
<path fill-rule="evenodd" clip-rule="evenodd" d="M4.60188 8.01601L2.29297 5.70711L3.70718 4.29289L6.04844 6.63415C6.34395 6.46904 6.6641 6.33958 7.00391 6.2522L11.0039 5.22362C11.6574 5.05559 12.3428 5.05559 12.9962 5.22362L16.9962 6.25219C17.3361 6.33957 17.6562 6.46904 17.9517 6.63415L20.293 4.29289L21.7072 5.70711L19.3983 8.01601C19.7821 8.63373 20.0001 9.35953 20.0001 10.1262V13.8738C20.0001 14.6405 19.7821 15.3663 19.3983 15.984L21.7072 18.2929L20.293 19.7071L17.9517 17.3658C17.6562 17.531 17.3361 17.6604 16.9962 17.7478L12.9962 18.7764C12.3428 18.9444 11.6574 18.9444 11.0039 18.7764L7.00391 17.7478C6.6641 17.6604 6.34395 17.531 6.04844 17.3658L3.70718 19.7071L2.29297 18.2929L4.60188 15.984C4.21805 15.3663 4.00008 14.6405 4.00008 13.8738V10.1262C4.00008 9.35953 4.21805 8.63373 4.60188 8.01601ZM12.4982 7.16061C12.1714 7.07659 11.8287 7.07659 11.502 7.16061L7.50199 8.18918C6.61802 8.41649 6.00008 9.21343 6.00008 10.1262V13.8738C6.00008 14.7866 6.61802 15.5835 7.50199 15.8108L11.502 16.8394C11.8287 16.9234 12.1714 16.9234 12.4982 16.8394L16.4982 15.8108C17.3821 15.5835 18.0001 14.7866 18.0001 13.8738V10.1262C18.0001 9.21343 17.3821 8.41649 16.4982 8.18918L12.4982 7.16061Z" fill="black"/>
</svg>
