<svg width="24" height="24" viewBox="0 0 24 24" fill="none" xmlns="http://www.w3.org/2000/svg">
<path fill-rule="evenodd" clip-rule="evenodd" d="M18.7072 8.70706L12.8285 14.5857C11.2664 16.1478 8.73375 16.1478 7.17165 14.5857L5.29297 12.7071L6.70718 11.2928L8.58586 13.1715C9.36691 13.9526 10.6332 13.9526 11.4143 13.1715L17.293 7.29285L18.7072 8.70706Z" fill="black"/>
<path fill-rule="evenodd" clip-rule="evenodd" d="M2 6C2 3.79086 3.79086 2 6 2H18C20.2091 2 22 3.79086 22 6V18C22 20.2091 20.2091 22 18 22H6C3.79086 22 2 20.2091 2 18V6ZM6 4C4.89543 4 4 4.89543 4 6V18C4 19.1046 4.89543 20 6 20H18C19.1046 20 20 19.1046 20 18V6C20 4.89543 19.1046 4 18 4H6Z" fill="black"/>
</svg>
