<svg width="24" height="24" viewBox="0 0 24 24" fill="none" xmlns="http://www.w3.org/2000/svg">
<path fill="black" fill-rule="evenodd" clip-rule="evenodd" d="M3 6C3 3.79086 4.79086 2 7 2H18C20.2091 2 22 3.79086 22 6V12C22 14.2091 20.2091 16 18 16H7C4.79086 16 3 14.2091 3 12V6ZM7 4C5.89543 4 5 4.89543 5 6V12C5 13.1046 5.89543 14 7 14H18C19.1046 14 20 13.1046 20 12V6C20 4.89543 19.1046 4 18 4H7Z"/>
<path fill="black" fill-rule="evenodd" clip-rule="evenodd" d="M7 10C5.89543 10 5 10.8954 5 12V21H3V12C3 9.79086 4.79086 8 7 8H14V10H7Z"/>
</svg>
