<svg width="24" height="24" viewBox="0 0 24 24" fill="none" xmlns="http://www.w3.org/2000/svg">
<path fill="black" fill-rule="evenodd" clip-rule="evenodd" d="M10.9134 4.38061C9.99979 4.00217 8.99446 3.90315 8.02455 4.09608C7.05465 4.289 6.16373 4.76521 5.46447 5.46447C4.76521 6.16373 4.289 7.05465 4.09608 8.02455C3.90315 8.99446 4.00217 9.99979 4.38061 10.9134C4.75904 11.8271 5.39991 12.6079 6.22215 13.1574L5.11101 14.8203C3.95987 14.0511 3.06266 12.9579 2.53285 11.6788C2.00303 10.3997 1.86441 8.99224 2.13451 7.63437C2.4046 6.2765 3.07129 5.02922 4.05026 4.05026C5.02922 3.07129 6.2765 2.4046 7.63437 2.13451C8.99224 1.86441 10.3997 2.00303 11.6788 2.53285C12.9579 3.06266 14.0511 3.95987 14.8203 5.11101L13.1574 6.22215C12.6079 5.39991 11.8271 4.75904 10.9134 4.38061Z"/>
<path fill="black" fill-rule="evenodd" clip-rule="evenodd" d="M15 8C11.134 8 8 11.134 8 15C8 18.866 11.134 22 15 22C18.866 22 22 18.866 22 15C22 11.134 18.866 8 15 8ZM10 15C10 12.2386 12.2386 10 15 10C16.0191 10 16.967 10.3049 17.7574 10.8284L10.8284 17.7574C10.3049 16.967 10 16.0191 10 15ZM12.2426 19.1716C13.033 19.6951 13.9809 20 15 20C17.7614 20 20 17.7614 20 15C20 13.9809 19.6951 13.033 19.1716 12.2426L12.2426 19.1716Z"/>
</svg>
