<svg width="24" height="24" viewBox="0 0 24 24" fill="none" xmlns="http://www.w3.org/2000/svg">
<path fill-rule="evenodd" clip-rule="evenodd" d="M18.293 12.7071L12.293 6.70706L13.7072 5.29285L19.7072 11.2928L18.293 12.7071Z" fill="black"/>
<path fill-rule="evenodd" clip-rule="evenodd" d="M13.1716 3.41425C14.7337 1.85215 17.2663 1.85215 18.8284 3.41425L20.5858 5.17161C22.1479 6.73371 22.1479 9.26637 20.5858 10.8285L10.1464 21.2678C9.67761 21.7366 9.04172 22 8.37868 22H4.5C3.11929 22 2 20.8807 2 19.5V15.6214C2 14.9583 2.26339 14.3224 2.73223 13.8536L13.1716 3.41425ZM17.4142 4.82846C16.6332 4.04741 15.3668 4.04741 14.5858 4.82846L4.14645 15.2678C4.05268 15.3616 4 15.4887 4 15.6214V19.5C4 19.7762 4.22386 20 4.5 20H8.37868C8.51129 20 8.63846 19.9474 8.73223 19.8536L19.1716 9.41425C19.9526 8.6332 19.9526 7.36687 19.1716 6.58582L17.4142 4.82846Z" fill="black"/>
</svg>
