<svg width="24" height="24" viewBox="0 0 24 24" fill="none" xmlns="http://www.w3.org/2000/svg">
<path fill-rule="evenodd" clip-rule="evenodd" d="M5 7C5 4.79086 6.79086 3 9 3H11C13.2091 3 15 4.79086 15 7V13.5C15 14.8807 13.8807 16 12.5 16H11.5C10.1193 16 9 14.8807 9 13.5V8H11V13.5C11 13.7761 11.2239 14 11.5 14H12.5C12.7761 14 13 13.7761 13 13.5V7C13 5.89543 12.1046 5 11 5H9C7.89543 5 7 5.89543 7 7V17C7 18.1046 7.89543 19 9 19H15C16.1046 19 17 18.1046 17 17V7.5H19V17C19 19.2091 17.2091 21 15 21H9C6.79086 21 5 19.2091 5 17V7Z" fill="black"/>
</svg>
