<svg width="24" height="24" viewBox="0 0 24 24" fill="none" xmlns="http://www.w3.org/2000/svg">
<path d="M10 18V19.5C10 20.3284 10.6716 21 11.5 21H12.5C13.3284 21 14 20.3284 14 19.5V18" stroke="#808080" stroke-width="2"/>
<path d="M4 18H20" stroke="black" stroke-width="2"/>
<path d="M13 5V3H11V5H10C7.79086 5 6 6.79086 6 9V15C6 16.1046 5.10457 17 4 17H3V19H4C6.20914 19 8 17.2091 8 15V9C8 7.89543 8.89543 7 10 7H14C15.1046 7 16 7.89543 16 9V15C16 17.2091 17.7909 19 20 19H21V17H20C18.8954 17 18 16.1046 18 15V9C18 6.79086 16.2091 5 14 5H13Z" fill="black"/>
</svg>
