<svg width="24" height="24" viewBox="0 0 24 24" fill="none" xmlns="http://www.w3.org/2000/svg">
<path fill="black" fill-rule="evenodd" clip-rule="evenodd" d="M8.51206 4.8004C10.1175 4.02262 11.9369 3.80376 13.681 4.17862C15.4252 4.55348 16.9939 5.50055 18.1381 6.8693C19.2822 8.23805 19.936 9.94995 19.9955 11.7329C20.0551 13.5159 19.517 15.2676 18.4668 16.7096C17.4166 18.1517 15.9145 19.2013 14.1993 19.6918C12.4841 20.1822 10.6541 20.0853 9.00034 19.4163C7.34654 18.7474 5.96377 17.545 5.07179 16L3.33974 17C4.45471 18.9312 6.18318 20.4343 8.25043 21.2704C10.3177 22.1066 12.6051 22.2277 14.7491 21.6147C16.8931 21.0017 18.7707 19.6896 20.0835 17.887C21.3963 16.0845 22.0689 13.8948 21.9944 11.6661C21.92 9.43743 21.1027 7.29756 19.6726 5.58662C18.2424 3.87568 16.2814 2.69185 14.1013 2.22327C11.9211 1.7547 9.64692 2.02827 7.64008 3.0005C5.63325 3.97274 4.00895 5.58785 3.02535 7.58914L4.82028 8.47132C5.60716 6.87028 6.9066 5.57819 8.51206 4.8004Z"/>
<path fill="black" fill-rule="evenodd" clip-rule="evenodd" d="M2 2.5V7C2 8.38071 3.11929 9.5 4.5 9.5H9V7.5H4.5C4.22386 7.5 4 7.27614 4 7V2.5H2Z"/>
</svg>
