<svg width="24" height="24" viewBox="0 0 24 24" fill="none" xmlns="http://www.w3.org/2000/svg">
<path fill-rule="evenodd" clip-rule="evenodd" d="M11.5 10C10.1193 10 9 11.1193 9 12.5V13.5C9 14.0628 9.18597 14.5822 9.49982 15C8.11919 15.0001 7 16.1193 7 17.5V20H9V17.5C9 17.2239 9.22386 17 9.5 17H14.5C14.7761 17 15 17.2239 15 17.5V20H17V17.5C17 16.1193 15.8808 15.0001 14.5002 15C14.814 14.5822 15 14.0628 15 13.5V12.5C15 11.1193 13.8807 10 12.5 10H11.5ZM11 12.5C11 12.2239 11.2239 12 11.5 12H12.5C12.7761 12 13 12.2239 13 12.5V13.5C13 13.7761 12.7761 14 12.5 14H11.5C11.2239 14 11 13.7761 11 13.5V12.5Z" fill="black"/>
<path d="M6.5 6C6.22386 6 6 6.22386 6 6.5V7.5C6 7.77614 6.22386 8 6.5 8H7.5C7.77614 8 8 7.77614 8 7.5V6.5C8 6.22386 7.77614 6 7.5 6H6.5Z" fill="black"/>
<path d="M9 6.5C9 6.22386 9.22386 6 9.5 6H10.5C10.7761 6 11 6.22386 11 6.5V7.5C11 7.77614 10.7761 8 10.5 8H9.5C9.22386 8 9 7.77614 9 7.5V6.5Z" fill="black"/>
<path d="M16.5 6C16.2239 6 16 6.22386 16 6.5V7.5C16 7.77614 16.2239 8 16.5 8H17.5C17.7761 8 18 7.77614 18 7.5V6.5C18 6.22386 17.7761 6 17.5 6H16.5Z" fill="black"/>
<path fill-rule="evenodd" clip-rule="evenodd" d="M6 2C3.79086 2 2 3.79086 2 6V18C2 20.2091 3.79086 22 6 22H18C20.2091 22 22 20.2091 22 18V6C22 3.79086 20.2091 2 18 2H6ZM4 6C4 4.89543 4.89543 4 6 4H18C19.1046 4 20 4.89543 20 6V18C20 19.1046 19.1046 20 18 20H6C4.89543 20 4 19.1046 4 18V6Z" fill="black"/>
</svg>
