<svg width="24" height="24" viewBox="0 0 24 24" fill="none" xmlns="http://www.w3.org/2000/svg">
<path fill-rule="evenodd" clip-rule="evenodd" d="M6.5 4C5.11929 4 4 5.11929 4 6.5V17.5C4 18.8807 5.11929 20 6.5 20H17.5C18.8807 20 20 18.8807 20 17.5V15H18V17.5C18 17.7761 17.7761 18 17.5 18H6.5C6.22386 18 6 17.7761 6 17.5V9.5C6 9.22386 6.22386 9 6.5 9H17.5C17.7761 9 18 9.22386 18 9.5V12H20V9.5C20 8.11929 18.8807 7 17.5 7H16V6.5C16 5.11929 14.8807 4 13.5 4H6.5ZM14 7V6.5C14 6.22386 13.7761 6 13.5 6H6.5C6.22386 6 6 6.22386 6 6.5V7.05001C6.16156 7.01722 6.32877 7 6.5 7H14Z" fill="black"/>
<path fill-rule="evenodd" clip-rule="evenodd" d="M12 12.5C12 11.6716 12.6716 11 13.5 11H19.5C20.3284 11 21 11.6716 21 12.5V14.5C21 15.3284 20.3284 16 19.5 16H13.5C12.6716 16 12 15.3284 12 14.5V12.5ZM14 13V14H19V13H14Z" fill="#808080"/>
</svg>
