<svg width="24" height="24" viewBox="0 0 24 24" fill="none" xmlns="http://www.w3.org/2000/svg">
<path d="M12 22V18" stroke="black" stroke-width="2"/>
<path d="M18.9627 15.5486C18.9873 15.3692 19 15.1861 19 15V12H17V13.5859L18.9627 15.5486Z" fill="black"/>
<path d="M16 12.5859V4.5C16 3.11929 14.8807 2 13.5 2H10.5C9.11929 2 8 3.11929 8 4.5V4.58591L10 6.58591V4.5C10 4.22386 10.2239 4 10.5 4H13.5C13.7761 4 14 4.22386 14 4.5V10.5859L16 12.5859Z" fill="black"/>
<path d="M14 13.4143L15.5363 14.9507C15.083 15.5859 14.3399 16 13.5 16H10.5C9.11929 16 8 14.8807 8 13.5V7.41434L10 9.41434V13.5C10 13.7761 10.2239 14 10.5 14H13.5C13.7761 14 14 13.7761 14 13.5V13.4143Z" fill="black"/>
<path d="M16.6766 16.0909L18.1062 17.5205C17.3727 18.4232 16.2537 19 15 19H9C6.79086 19 5 17.2091 5 15V12H7V15C7 16.1046 7.89543 17 9 17H15C15.7021 17 16.3197 16.6382 16.6766 16.0909Z" fill="black"/>
<path fill-rule="evenodd" clip-rule="evenodd" d="M20.293 21.7072L1.29297 2.70718L2.70718 1.29297L21.7072 20.293L20.293 21.7072Z" fill="#808080"/>
</svg>
