<svg width="24" height="24" viewBox="0 0 24 24" fill="none" xmlns="http://www.w3.org/2000/svg">
<path fill-rule="evenodd" clip-rule="evenodd" d="M10.293 12.2929L14.293 8.29289L15.7072 9.70711L11.7072 13.7071L10.293 12.2929Z" fill="#808080"/>
<path fill-rule="evenodd" clip-rule="evenodd" d="M17.8285 4.41421C16.2664 2.85212 13.7337 2.85212 12.1716 4.41421L6.41429 10.1716C4.85219 11.7337 4.85219 14.2663 6.41429 15.8284L6.58586 16L3.29297 19.2929L4.70718 20.7071L8.00008 17.4142L8.17165 17.5858C9.73374 19.1479 12.2664 19.1479 13.8285 17.5858L19.5859 11.8284C21.148 10.2663 21.148 7.73367 19.5859 6.17157L17.8285 4.41421ZM13.5859 5.82843C14.3669 5.04738 15.6332 5.04738 16.4143 5.82843L18.1716 7.58579C18.9527 8.36684 18.9527 9.63316 18.1717 10.4142L12.4143 16.1716C11.6332 16.9526 10.3669 16.9526 9.58586 16.1716L7.8285 14.4142C7.04745 13.6332 7.04745 12.3668 7.8285 11.5858L13.5859 5.82843Z" fill="black"/>
</svg>
