<svg width="24" height="24" viewBox="0 0 24 24" fill="none" xmlns="http://www.w3.org/2000/svg">
<path d="M11 15V18H13V15H16V13H13V10H11V13H8V15H11Z" fill="#808080"/>
<path d="M6.5 6C6.22386 6 6 6.22386 6 6.5V7.5C6 7.77614 6.22386 8 6.5 8H7.5C7.77614 8 8 7.77614 8 7.5V6.5C8 6.22386 7.77614 6 7.5 6H6.5Z" fill="black"/>
<path d="M9 6.5C9 6.22386 9.22386 6 9.5 6H10.5C10.7761 6 11 6.22386 11 6.5V7.5C11 7.77614 10.7761 8 10.5 8H9.5C9.22386 8 9 7.77614 9 7.5V6.5Z" fill="black"/>
<path d="M16.5 6C16.2239 6 16 6.22386 16 6.5V7.5C16 7.77614 16.2239 8 16.5 8H17.5C17.7761 8 18 7.77614 18 7.5V6.5C18 6.22386 17.7761 6 17.5 6H16.5Z" fill="black"/>
<path fill-rule="evenodd" clip-rule="evenodd" d="M6 2C3.79086 2 2 3.79086 2 6V18C2 20.2091 3.79086 22 6 22H18C20.2091 22 22 20.2091 22 18V6C22 3.79086 20.2091 2 18 2H6ZM4 6C4 4.89543 4.89543 4 6 4H18C19.1046 4 20 4.89543 20 6V18C20 19.1046 19.1046 20 18 20H6C4.89543 20 4 19.1046 4 18V6Z" fill="black"/>
</svg>
