<svg width="24" height="24" viewBox="0 0 24 24" fill="none" xmlns="http://www.w3.org/2000/svg">
<path d="M9.29291 2.29297L6.35357 5.23231C5.37726 6.20862 5.37726 7.79153 6.35357 8.76784L9.29291 11.7072L10.7071 10.293L8.41423 8.00008H17C18.1046 8.00008 19 8.89551 19 10.0001V13.0001H21V10.0001C21 7.79094 19.2092 6.00008 17 6.00008H8.41423L10.7071 3.70718L9.29291 2.29297Z" fill="black"/>
<path d="M15.5858 16L13.2929 13.7071L14.7071 12.2929L17.6464 15.2322C18.6228 16.2085 18.6228 17.7915 17.6464 18.7678L14.7071 21.7071L13.2929 20.2929L15.5858 18H7C4.79086 18 3 16.2091 3 14V11H5V14C5 15.1046 5.89543 16 7 16H15.5858Z" fill="#808080"/>
</svg>
