<svg width="24" height="24" viewBox="0 0 24 24" fill="none" xmlns="http://www.w3.org/2000/svg">
<path fill-rule="evenodd" clip-rule="evenodd" d="M6.74315 9.95736C8.43892 8.68553 10.6917 8 13 8C15.3083 8 17.5611 8.68553 19.2569 9.95736C20.9581 11.2333 22 13.0354 22 15H20C20 13.782 19.3562 12.5318 18.0569 11.5574C16.752 10.5788 14.9351 10 13 10C11.0649 10 9.24796 10.5788 7.94315 11.5574C6.64384 12.5318 6 13.782 6 15H4C4 13.0354 5.04187 11.2333 6.74315 9.95736Z" fill="black"/>
<path fill-rule="evenodd" clip-rule="evenodd" d="M2.5 9V13.5C2.5 14.8807 3.61929 16 5 16H9.5V14H5C4.72386 14 4.5 13.7761 4.5 13.5V9H2.5Z" fill="black"/>
</svg>
