<svg width="24" height="24" viewBox="0 0 24 24" fill="none" xmlns="http://www.w3.org/2000/svg">
<path fill="black" d="M8 8V10H16V8H8Z"/>
<path fill="black" d="M8 11V13H12V11H8Z"/>
<path fill="black" fill-rule="evenodd" clip-rule="evenodd" d="M8 4C5.79086 4 4 5.79086 4 8V16C4 18.2091 5.79086 20 8 20H12.7574C13.8182 20 14.8356 19.5786 15.5858 18.8284L18.8284 15.5858C19.5786 14.8356 20 13.8182 20 12.7574V8C20 5.79086 18.2091 4 16 4H8ZM6 8C6 6.89543 6.89543 6 8 6H16C17.1046 6 18 6.89543 18 8V12.7574C18 12.8389 17.995 12.9199 17.9852 13H15C13.8954 13 13 13.8954 13 15V17.9852C12.9199 17.995 12.8389 18 12.7574 18H8C6.89543 18 6 17.1046 6 16V8ZM15 16.5858L16.5858 15H15V16.5858Z"/>
</svg>
