<svg width="24" height="24" viewBox="0 0 24 24" fill="none" xmlns="http://www.w3.org/2000/svg">
<path fill="black" fill-rule="evenodd" clip-rule="evenodd" d="M6 6C4.89543 6 4 6.89543 4 8V16C4 17.1046 4.89543 18 6 18H18C19.1046 18 20 17.1046 20 16V10.4706C20 9.36602 19.1046 8.47059 18 8.47059H12.971C12.0091 8.47059 11.0794 8.12393 10.3522 7.49415L9.19082 6.48822C8.82726 6.17333 8.3624 6 7.88143 6H6ZM2 8C2 5.79086 3.79086 4 6 4H7.88143C8.84337 4 9.77309 4.34665 10.5002 4.97643L11.6616 5.98237C12.0252 6.29726 12.4901 6.47059 12.971 6.47059H18C20.2091 6.47059 22 8.26145 22 10.4706V16C22 18.2091 20.2091 20 18 20H6C3.79086 20 2 18.2091 2 16V8Z"/>
</svg>
