<svg width="24" height="24" viewBox="0 0 24 24" fill="none" xmlns="http://www.w3.org/2000/svg">
<path fill-rule="evenodd" clip-rule="evenodd" d="M6 10C6 7.79086 7.79086 6 10 6H14C16.2091 6 18 7.79086 18 10V14C18 16.2091 16.2091 18 14 18H10C7.79086 18 6 16.2091 6 14V10ZM10 8C8.89543 8 8 8.89543 8 10V14C8 15.1046 8.89543 16 10 16H14C15.1046 16 16 15.1046 16 14V10C16 8.89543 15.1046 8 14 8H10Z" fill="black"/>
<path d="M13 4V1H11V4H13Z" fill="#808080"/>
<path d="M18.7071 6.70711L20.7071 4.70711L19.2929 3.29289L17.2929 5.29289L18.7071 6.70711Z" fill="#808080"/>
<path d="M3.29289 4.70711L5.29289 6.70711L6.70711 5.29289L4.70711 3.29289L3.29289 4.70711Z" fill="#808080"/>
<path d="M11 20V23H13V20H11Z" fill="#808080"/>
<path d="M20.7071 19.2929L18.7071 17.2929L17.2929 18.7071L19.2929 20.7071L20.7071 19.2929Z" fill="#808080"/>
<path d="M5.29289 17.2929L3.29289 19.2929L4.70711 20.7071L6.70711 18.7071L5.29289 17.2929Z" fill="#808080"/>
<path d="M1 11H4V13H1V11Z" fill="#808080"/>
<path d="M23 11H20V13H23V11Z" fill="#808080"/>
</svg>
