<svg width="24" height="24" viewBox="0 0 24 24" fill="none" xmlns="http://www.w3.org/2000/svg">
<path fill-rule="evenodd" clip-rule="evenodd" d="M12.3536 14.7678C12.1583 14.5725 11.8417 14.5725 11.6464 14.7678L10.4142 16C10.149 16.2652 10 16.6249 10 17C10 17.2626 10.0517 17.5227 10.1522 17.7654C10.2528 18.008 10.4001 18.2285 10.5858 18.4142C10.7715 18.5999 10.992 18.7473 11.2346 18.8478C11.4773 18.9483 11.7374 19 12 19C12.2626 19 12.5227 18.9483 12.7654 18.8478C13.008 18.7473 13.2285 18.5999 13.4142 18.4142C13.5999 18.2285 13.7472 18.008 13.8478 17.7654C13.9483 17.5227 14 17.2626 14 17C14 16.6249 13.851 16.2652 13.5858 16L12.3536 14.7678ZM10.2322 13.3536C11.2085 12.3772 12.7915 12.3772 13.7678 13.3536L15 14.5858C15.6403 15.2261 16 16.0945 16 17C16 17.5253 15.8965 18.0454 15.6955 18.5307C15.4945 19.016 15.1999 19.457 14.8284 19.8284C14.457 20.1999 14.016 20.4945 13.5307 20.6955C13.0454 20.8965 12.5253 21 12 21C11.4747 21 10.9546 20.8965 10.4693 20.6955C9.98396 20.4945 9.54301 20.1999 9.17157 19.8284C8.80014 19.457 8.5055 19.016 8.30448 18.5307C8.10346 18.0454 8 17.5253 8 17C8 16.0945 8.35971 15.2261 9 14.5858L10.2322 13.3536Z" fill="#808080"/>
<path fill-rule="evenodd" clip-rule="evenodd" d="M4 8.8626C4 5.07249 7.07249 2 10.8626 2C11.4908 2 12 2.50923 12 3.1374V8.5C12 8.77614 12.2239 9 12.5 9H13.5C13.7761 9 14 8.77614 14 8.5V6.23529C14 5.55306 14.5531 5 15.2353 5C17.8668 5 20 7.13323 20 9.76471V13C20 17.4183 16.4183 21 12 21C7.58172 21 4 17.4183 4 13V8.8626ZM10 4.07628C7.72594 4.48338 6 6.47143 6 8.8626V13C6 16.3137 8.68629 19 12 19C15.3137 19 18 16.3137 18 13V9.76471C18 8.50309 17.155 7.43884 16 7.10712V8.5C16 9.88071 14.8807 11 13.5 11H12.5C11.1193 11 10 9.88071 10 8.5V4.07628Z" fill="black"/>
</svg>
