<svg width="24" height="24" viewBox="0 0 24 24" fill="none" xmlns="http://www.w3.org/2000/svg">
<path fill-rule="evenodd" clip-rule="evenodd" d="M2.35346 13.5656L3.62614 12.2929C4.56895 11.3501 6.09755 11.3501 7.04036 12.2929C7.20212 12.4547 7.46439 12.4547 7.62615 12.2929L9.95949 9.95955L11.3737 11.3738L9.04037 13.7071C8.09756 14.6499 6.56896 14.6499 5.62615 13.7071C5.46439 13.5453 5.20212 13.5453 5.04035 13.7071L3.76767 14.9798C3.57241 15.175 3.57241 15.4916 3.76767 15.6869L4.26768 16.1869C4.36145 16.2807 4.48863 16.3333 4.62123 16.3333L5.16659 16.3333C6.5473 16.3333 7.66659 17.4526 7.66659 18.8333L7.66659 19.3787C7.66659 19.5113 7.71927 19.6385 7.81303 19.7323L8.31304 20.2323C8.50831 20.4275 8.82489 20.4275 9.02015 20.2323L10.2928 18.9596C10.4546 18.7978 10.4546 18.5355 10.2928 18.3738C9.35002 17.431 9.35002 15.9024 10.2928 14.9596L12.6262 12.6262L14.0404 14.0404L11.707 16.3738C11.5453 16.5355 11.5453 16.7978 11.707 16.9596C12.6499 17.9024 12.6499 19.431 11.707 20.3738L10.4344 21.6465C9.45805 22.6228 7.87514 22.6228 6.89883 21.6465L6.39882 21.1465C5.92998 20.6776 5.66659 20.0417 5.66659 19.3787L5.66659 18.8333C5.66659 18.5572 5.44273 18.3333 5.16659 18.3333L4.62123 18.3333C3.95819 18.3333 3.32231 18.07 2.85347 17.6011L2.35346 17.1011C1.37715 16.1248 1.37715 14.5419 2.35346 13.5656Z" fill="black"/>
<path fill-rule="evenodd" clip-rule="evenodd" d="M13.707 5.04043C13.5453 5.20219 13.5453 5.46446 13.707 5.62622C14.6498 6.56903 14.6498 8.09763 13.707 9.04044L11.3737 11.3738L9.95948 9.95957L12.2928 7.62623C12.4546 7.46447 12.4546 7.2022 12.2928 7.04044C11.35 6.09763 11.35 4.56903 12.2928 3.62622L13.5655 2.35354C14.5418 1.37723 16.1247 1.37723 17.101 2.35354L17.601 2.85354C18.0699 3.32238 18.3333 3.95827 18.3333 4.62131L18.3333 5.16666C18.3333 5.44281 18.5571 5.66666 18.8333 5.66666L19.3786 5.66667C20.0417 5.66666 20.6776 5.93006 21.1464 6.3989L21.6464 6.89891C22.6227 7.87522 22.6227 9.45813 21.6464 10.4344L20.3737 11.7071C19.4309 12.6499 17.9023 12.6499 16.9595 11.7071C16.7977 11.5454 16.5355 11.5454 16.3737 11.7071L14.0404 14.0405L12.6262 12.6262L14.9595 10.2929C15.9023 9.35009 17.4309 9.35009 18.3737 10.2929C18.5355 10.4547 18.7977 10.4547 18.9595 10.2929L20.2322 9.02023C20.4275 8.82496 20.4275 8.50838 20.2322 8.31312L19.7322 7.81311C19.6384 7.71934 19.5112 7.66666 19.3786 7.66666L18.8333 7.66666C17.4526 7.66666 16.3333 6.54737 16.3333 5.16666V4.62131C16.3333 4.4887 16.2806 4.36152 16.1868 4.26776L15.6868 3.76775C15.4916 3.57249 15.175 3.57249 14.9797 3.76775L13.707 5.04043Z" fill="black"/>
</svg>
