<svg width="24" height="24" viewBox="0 0 24 24" fill="none" xmlns="http://www.w3.org/2000/svg">
<path fill="black" fill-rule="evenodd" clip-rule="evenodd" d="M16 9H5V7H16C18.2091 7 20 8.79086 20 11V15C20 17.2091 18.2091 19 16 19H7V17H16C17.1046 17 18 16.1046 18 15V11C18 9.89543 17.1046 9 16 9Z"/>
<path fill="black" fill-rule="evenodd" clip-rule="evenodd" d="M8.70712 4.70718L5.76779 7.64652C5.57252 7.84179 5.57252 8.15837 5.76778 8.35363L8.70712 11.293L7.29291 12.7072L4.35357 9.76784C3.37726 8.79153 3.37726 7.20862 4.35357 6.23231L7.29291 3.29297L8.70712 4.70718Z"/>
</svg>
