<svg width="24" height="24" viewBox="0 0 24 24" fill="none" xmlns="http://www.w3.org/2000/svg">
<path fill-rule="evenodd" clip-rule="evenodd" d="M18 15V4H20V15C20 17.2091 18.2091 19 16 19H9V17H16C17.1046 17 18 16.1046 18 15Z" fill="black"/>
<path fill-rule="evenodd" clip-rule="evenodd" d="M13 15V6H15V15C15 17.2091 13.2091 19 11 19H6V17H11C12.1046 17 13 16.1046 13 15Z" fill="black"/>
<path fill-rule="evenodd" clip-rule="evenodd" d="M8 15V10H10V15C10 17.2091 8.20914 19 6 19H3V17H6C7.10457 17 8 16.1046 8 15Z" fill="black"/>
</svg>
