<svg width="24" height="24" viewBox="0 0 24 24" fill="none" xmlns="http://www.w3.org/2000/svg">
<path fill="black" d="M19.0526 15.6383L21.1605 13.952C22.4115 12.9512 22.4115 11.0485 21.1605 10.0477L16.3728 6.21751C14.2011 4.48013 11.2528 4.21863 8.84732 5.43298L10.3704 6.95605C11.9551 6.41017 13.7551 6.68457 15.1234 7.77925L19.9111 11.6094C20.1613 11.8096 20.1613 12.1901 19.9111 12.3903L17.6297 14.2154L19.0526 15.6383Z"/>
<path fill="black" d="M15.9627 12.5483C15.9872 12.369 16 12.1859 16 11.9998C16 9.7907 14.2091 7.99984 12 7.99984C11.8139 7.99984 11.6308 8.01255 11.4515 8.03714L15.9627 12.5483Z"/>
<path fill="black" d="M9.47954 8.89363C8.57678 9.62703 7.99995 10.7461 7.99995 11.9998C7.99995 14.209 9.79081 15.9998 12 15.9998C13.2537 15.9998 14.3728 15.423 15.1062 14.5203L13.6766 13.0907C13.3197 13.638 12.7021 13.9998 12 13.9998C10.8954 13.9998 9.99995 13.1044 9.99995 11.9998C9.99995 11.2977 10.3618 10.6801 10.9091 10.3232L9.47954 8.89363Z"/>
<path fill="black" d="M8.59241 8.0065L4.08878 11.6094C3.83857 11.8096 3.83857 12.1901 4.08878 12.3903L8.87648 16.2204C10.7026 17.6813 13.2973 17.6813 15.1234 16.2204L16.0584 15.4725L17.4813 16.8954L16.3728 17.7822C13.8163 19.8274 10.1836 19.8274 7.62709 17.7822L2.83939 13.952C1.58837 12.9512 1.58837 11.0485 2.83939 10.0477L7.16949 6.58359L8.59241 8.0065Z"/>
<path fill="black" fill-rule="evenodd" clip-rule="evenodd" d="M20.293 21.7072L1.29297 2.70718L2.70718 1.29297L21.7072 20.293L20.293 21.7072Z"/>
</svg>
