<svg width="24" height="24" viewBox="0 0 24 24" fill="none" xmlns="http://www.w3.org/2000/svg">
<path fill-rule="evenodd" clip-rule="evenodd" d="M13.5 2C12.2905 2 11.2816 2.85888 11.05 4H11V19.5C11 20.8807 12.1193 22 13.5 22H16.5C17.8807 22 19 20.8807 19 19.5V16.5C19 16.2239 19.2239 16 19.5 16H20V15.95C21.1411 15.7184 22 14.7095 22 13.5V10.5C22 9.11929 20.8807 8 19.5 8C19.2239 8 19 7.77614 19 7.5V4.5C19 3.11929 17.8807 2 16.5 2H13.5ZM17 4.5C17 4.22386 16.7761 4 16.5 4H13.5C13.2239 4 13 4.22386 13 4.5V5.5C13 5.77614 13.2239 6 13.5 6H15V8H13.5C13.3288 8 13.1616 7.98278 13 7.94999V19.5C13 19.7761 13.2239 20 13.5 20H16.5C16.7761 20 17 19.7761 17 19.5V16.5C17 16.3288 17.0172 16.1616 17.05 16H16.5C16.2239 16 16 16.2239 16 16.5V17H14V16.5C14 15.1193 15.1193 14 16.5 14H19.5C19.7761 14 20 13.7761 20 13.5V10.5C20 10.2239 19.7761 10 19.5 10C19.315 10 19.1347 9.9799 18.9611 9.94177C18.7525 11.1118 17.73 12 16.5 12H15V10H16.5C16.7761 10 17 9.77614 17 9.5V4.5Z" fill="black"/>
<path fill-rule="evenodd" clip-rule="evenodd" d="M10.5 2C11.7095 2 12.7184 2.85888 12.95 4H13V19.5C13 20.8807 11.8807 22 10.5 22H7.5C6.11929 22 5 20.8807 5 19.5V16.5C5 16.2239 4.77614 16 4.5 16H4V15.95C2.85888 15.7184 2 14.7095 2 13.5V10.5C2 9.11929 3.11929 8 4.5 8C4.77614 8 5 7.77614 5 7.5V4.5C5 3.11929 6.11929 2 7.5 2H10.5ZM7 9.5C7 9.77614 7.22386 10 7.5 10H9V12H7.5C6.27003 12 5.24752 11.1118 5.03891 9.94177C4.86534 9.9799 4.68502 10 4.5 10C4.22386 10 4 10.2239 4 10.5V13.5C4 13.7761 4.22386 14 4.5 14H7.5C8.88071 14 10 15.1193 10 16.5V17H8V16.5C8 16.2239 7.77614 16 7.5 16H6.94999C6.98278 16.1616 7 16.3288 7 16.5V19.5C7 19.7761 7.22386 20 7.5 20H10.5C10.7761 20 11 19.7761 11 19.5V7.94999C10.8384 7.98278 10.6712 8 10.5 8H9V6H10.5C10.7761 6 11 5.77614 11 5.5V4.5C11 4.22386 10.7761 4 10.5 4H7.5C7.22386 4 7 4.22386 7 4.5V9.5Z" fill="black"/>
</svg>
