<svg width="24" height="24" viewBox="0 0 24 24" fill="none" xmlns="http://www.w3.org/2000/svg">
<path fill="black" fill-rule="evenodd" clip-rule="evenodd" d="M3 4H2V2H3C5.20914 2 7 3.79086 7 6V13C7 14.1046 7.89543 15 9 15H18C19.1046 15 20 14.1046 20 13V9C20 7.89543 19.1046 7 18 7H9V5H18C20.2091 5 22 6.79086 22 9V13C22 15.2091 20.2091 17 18 17H9C6.79086 17 5 15.2091 5 13V6C5 4.89543 4.10457 4 3 4Z"/>
<path fill="black" d="M7.5 18C6.67157 18 6 18.6716 6 19.5C6 20.3284 6.67157 21 7.5 21C8.32843 21 9 20.3284 9 19.5C9 18.6716 8.32843 18 7.5 18Z"/>
<path fill="black" d="M19.5 18C18.6716 18 18 18.6716 18 19.5C18 20.3284 18.6716 21 19.5 21C20.3284 21 21 20.3284 21 19.5C21 18.6716 20.3284 18 19.5 18Z"/>
</svg>
