<svg width="24" height="24" viewBox="0 0 24 24" fill="none" xmlns="http://www.w3.org/2000/svg">
<path fill-rule="evenodd" clip-rule="evenodd" d="M7 15.5C7 14.1193 8.11929 13 9.5 13H14.5C15.8807 13 17 14.1193 17 15.5V17H15V15.5C15 15.2239 14.7761 15 14.5 15H9.5C9.22386 15 9 15.2239 9 15.5V17H7V15.5Z" fill="#808080"/>
<path d="M15 10.4142L13.7071 11.7071L12.2929 10.2929L13.5858 9L12.2929 7.70711L13.7071 6.29289L15 7.58579L16.2929 6.29289L17.7071 7.70711L16.4142 9L17.7071 10.2929L16.2929 11.7071L15 10.4142Z" fill="black"/>
<path d="M9 10.4142L7.70711 11.7071L6.29289 10.2929L7.58579 9L6.29289 7.70711L7.70711 6.29289L9 7.58579L10.2929 6.29289L11.7071 7.70711L10.4142 9L11.7071 10.2929L10.2929 11.7071L9 10.4142Z" fill="black"/>
<path fill-rule="evenodd" clip-rule="evenodd" d="M3 7C3 4.79086 4.79086 3 7 3H17C19.2091 3 21 4.79086 21 7V17C21 19.2091 19.2091 21 17 21H7C4.79086 21 3 19.2091 3 17V7ZM7 5C5.89543 5 5 5.89543 5 7V17C5 18.1046 5.89543 19 7 19H17C18.1046 19 19 18.1046 19 17V7C19 5.89543 18.1046 5 17 5H7Z" fill="black"/>
</svg>
