<svg width="24" height="24" viewBox="0 0 24 24" fill="none" xmlns="http://www.w3.org/2000/svg">
<path d="M11 6V3H9V6H11Z" fill="#808080"/>
<path d="M15 6V3H13V6H15Z" fill="#808080"/>
<path d="M11 18V21H9V18H11Z" fill="#808080"/>
<path d="M15 21V18H13V21H15Z" fill="#808080"/>
<path fill-rule="evenodd" clip-rule="evenodd" d="M8.5 7C8.22386 7 8 7.22386 8 7.5V10.5C8 10.7761 8.22386 11 8.5 11H15.5C16.8807 11 18 12.1193 18 13.5V16.5C18 17.8807 16.8807 19 15.5 19H8.5C7.11929 19 6 17.8807 6 16.5V15H8V16.5C8 16.7761 8.22386 17 8.5 17H15.5C15.7761 17 16 16.7761 16 16.5V13.5C16 13.2239 15.7761 13 15.5 13H8.5C7.11929 13 6 11.8807 6 10.5V7.5C6 6.11929 7.11929 5 8.5 5H15.5C16.8807 5 18 6.11929 18 7.5V9H16V7.5C16 7.22386 15.7761 7 15.5 7H8.5Z" fill="black"/>
</svg>
