<svg width="24" height="24" viewBox="0 0 24 24" fill="none" xmlns="http://www.w3.org/2000/svg">
<path fill="black" fill-rule="evenodd" clip-rule="evenodd" d="M13 12L13 18L11 18L11 12L13 12Z"/>
<path fill="black" fill-rule="evenodd" clip-rule="evenodd" d="M10 2C7.79086 2 6 3.79086 6 6V15C6 17.2091 7.79086 19 10 19H14C16.2091 19 18 17.2091 18 15V6C18 3.79086 16.2091 2 14 2H10ZM8 6C8 4.89543 8.89543 4 10 4H14C15.1046 4 16 4.89543 16 6V15C16 16.1046 15.1046 17 14 17H10C8.89543 17 8 16.1046 8 15V6Z"/>
<path fill="black" d="M9 22H15V20H9V22Z"/>
</svg>
