<svg width="24" height="24" viewBox="0 0 24 24" fill="none" xmlns="http://www.w3.org/2000/svg">
<path d="M5 12V15C5 17.2091 6.79086 19 9 19H11V22H13V19H15C17.2091 19 19 17.2091 19 15V12H17V15C17 16.1046 16.1046 17 15 17H9C7.89543 17 7 16.1046 7 15V12H5Z" fill="black"/>
<path fill-rule="evenodd" clip-rule="evenodd" d="M8 4.5C8 3.11929 9.11929 2 10.5 2H13.5C14.8807 2 16 3.11929 16 4.5V13.5C16 14.8807 14.8807 16 13.5 16H10.5C9.11929 16 8 14.8807 8 13.5V4.5ZM10.5 4C10.2239 4 10 4.22386 10 4.5V13.5C10 13.7761 10.2239 14 10.5 14H13.5C13.7761 14 14 13.7761 14 13.5V4.5C14 4.22386 13.7761 4 13.5 4H10.5Z" fill="#808080"/>
</svg>
