<svg width="24" height="24" viewBox="0 0 24 24" fill="none" xmlns="http://www.w3.org/2000/svg">
<rect fill="black" x="14" y="1" width="4" height="4" rx="1.5"/>
<path fill="black" fill-rule="evenodd" clip-rule="evenodd" d="M19.5 11.5C19.5 11.7761 19.2757 12.002 19.0003 11.9811C16.8991 11.8213 15.0198 10.6615 14 8.9L12.2 11.8L13.6906 12.736C15.4388 13.8337 16.5 15.753 16.5 17.8173V20H17C18.1046 20 19 19.1046 19 18H21C21 20.2091 19.2091 22 17 22H7C4.79086 22 3 20.2091 3 18H5C5 19.0292 5.77734 19.8768 6.77692 19.9877L8.54857 17.8617C9.20365 17.0756 9.41288 16.0098 9.1036 15.0344L8.3 12.5C8.1 11.9 8.2 11.3 8.5 10.8L11 7H10.2799C9.23623 7 8.26753 7.54245 7.72213 8.43231L6.96775 9.66315C6.82095 9.90267 6.50568 9.97427 6.26982 9.82165L5.41324 9.26739C5.18397 9.11904 5.11614 8.81418 5.26087 8.58261L5.7375 7.82001C6.83393 6.06572 8.75675 5 10.8255 5H13.2C14.1 5 14.7 5.6 14.8 6.1L15.4 7.3C16.0346 8.75044 17.4087 9.78998 19.001 9.97165C19.2754 10.003 19.5 10.2239 19.5 10.5V11.5ZM9.375 20H14.5V17.5577C14.5 16.5261 13.9699 15.5668 13.0965 15.0178L11 13.7L11.0346 13.8142C11.6351 15.7958 11.1714 17.947 9.80791 19.5052L9.375 20Z"/>
</svg>
