<svg width="24" height="24" viewBox="0 0 24 24" fill="none" xmlns="http://www.w3.org/2000/svg">
<path fill="black" fill-rule="evenodd" clip-rule="evenodd" d="M12 6C10.8954 6 10 6.89543 10 8C10 9.10457 10.8954 10 12 10C13.1046 10 14 9.10457 14 8C14 6.89543 13.1046 6 12 6ZM8 8C8 5.79086 9.79086 4 12 4C14.2091 4 16 5.79086 16 8C16 10.2091 14.2091 12 12 12C9.79086 12 8 10.2091 8 8Z"/>
<path fill="black" fill-rule="evenodd" clip-rule="evenodd" d="M4 17C4 14.7909 5.79086 13 8 13H16C18.2091 13 20 14.7909 20 17V20H4V17ZM8 15C6.89543 15 6 15.8954 6 17V18H18V17C18 15.8954 17.1046 15 16 15H8Z"/>
</svg>
