<svg width="24" height="24" viewBox="0 0 24 24" fill="none" xmlns="http://www.w3.org/2000/svg">
<path fill="black" fill-rule="evenodd" clip-rule="evenodd" d="M18 13L5 13L5 11L18 11L18 13Z"/>
<path fill="black" fill-rule="evenodd" clip-rule="evenodd" d="M4 10H2V8H4.12602C4.57006 6.27477 6.13616 5 8 5H16C17.8638 5 19.4299 6.27477 19.874 8L22 8V10L20 10V14H22V16H19.874C19.4299 17.7252 17.8638 19 16 19H8C6.13616 19 4.57006 17.7252 4.12602 16H2V14H4V10ZM6 10V14L18 14V10L6 10ZM17.7324 8C17.3866 7.4022 16.7403 7 16 7H8C7.25972 7 6.61337 7.4022 6.26756 8L17.7324 8ZM17.7324 16L6.26756 16C6.61337 16.5978 7.25972 17 8 17H16C16.7403 17 17.3866 16.5978 17.7324 16Z"/>
</svg>
