<svg width="24" height="24" viewBox="0 0 24 24" fill="none" xmlns="http://www.w3.org/2000/svg">
<path fill="black" fill-rule="evenodd" clip-rule="evenodd" d="M13 2V22H11V2H13Z"/>
<path fill="black" d="M3.55471 5.16795L8.81048 8.6718C11.1854 10.2551 11.1854 13.7449 8.81049 15.3282L3.55471 18.8321L2.44531 17.168L7.70109 13.6641C8.88855 12.8725 8.88855 11.1275 7.70108 10.3359L2.44531 6.83205L3.55471 5.16795Z"/>
<path fill="black" d="M20.4453 5.16795L15.1895 8.6718C12.8146 10.2551 12.8146 13.7449 15.1895 15.3282L20.4453 18.8321L21.5547 17.168L16.2989 13.6641C15.1115 12.8725 15.1115 11.1275 16.2989 10.3359L21.5547 6.83205L20.4453 5.16795Z"/>
</svg>
