<svg width="24" height="24" viewBox="0 0 24 24" fill="none" xmlns="http://www.w3.org/2000/svg">
<path fill-rule="evenodd" clip-rule="evenodd" d="M13.4143 5.82846C12.6332 5.04741 11.3669 5.04741 10.5858 5.82846L5.82846 10.5858C5.04741 11.3669 5.04741 12.6332 5.82846 13.4142L12 19.5858L18.1716 13.4143C18.9527 12.6332 18.9527 11.3669 18.1716 10.5858L13.4143 5.82846ZM9.17161 4.41425C10.7337 2.85215 13.2664 2.85215 14.8285 4.41425L19.5858 9.17161C21.1479 10.7337 21.1479 13.2664 19.5858 14.8285L12 22.4142L4.41425 14.8285C2.85215 13.2664 2.85215 10.7337 4.41425 9.17161L9.17161 4.41425Z" fill="black"/>
<path fill-rule="evenodd" clip-rule="evenodd" d="M10.5858 9.00003C11.3668 8.21898 12.6332 8.21898 13.4142 9.00003L15 10.5858C15.781 11.3669 15.781 12.6332 15 13.4142L13.4142 15C12.6332 15.7811 11.3668 15.7811 10.5858 15L9 13.4142C8.21895 12.6332 8.21895 11.3669 9 10.5858L10.5858 9.00003ZM13.5858 12L12 10.4142L10.4142 12L12 13.5858L13.5858 12Z" fill="black"/>
</svg>
