<svg width="24" height="24" viewBox="0 0 24 24" fill="none" xmlns="http://www.w3.org/2000/svg">
<path fill="black" fill-rule="evenodd" clip-rule="evenodd" d="M9.01036 3.85817C10.6015 2.06811 13.3985 2.06811 14.9896 3.85817L19.9896 9.48317C20.6405 10.2154 21 11.161 21 12.1406V17C21 19.2092 19.2091 21 17 21H7C4.79086 21 3 19.2092 3 17V12.1406C3 11.161 3.35951 10.2154 4.01036 9.48317L9.01036 3.85817ZM13.4948 5.1869C12.6992 4.29187 11.3008 4.29187 10.5052 5.1869L5.50518 10.8119C5.17976 11.178 5 11.6508 5 12.1406V17C5 18.1046 5.89543 19 7 19H17C18.1046 19 19 18.1046 19 17V12.1406C19 11.6508 18.8202 11.178 18.4948 10.8119L13.4948 5.1869Z"/>
</svg>
