<svg width="24" height="24" viewBox="0 0 24 24" fill="none" xmlns="http://www.w3.org/2000/svg">
<path fill-rule="evenodd" clip-rule="evenodd" d="M11 22V14H13V22H11Z" fill="black"/>
<path fill-rule="evenodd" clip-rule="evenodd" d="M10 3C7.79086 3 6 4.79086 6 7V11C6 13.2091 7.79086 15 10 15H14C16.2091 15 18 13.2091 18 11V7C18 4.79086 16.2091 3 14 3H10ZM8 7C8 5.89543 8.89543 5 10 5H14C15.1046 5 16 5.89543 16 7V11C16 12.1046 15.1046 13 14 13H10C8.89543 13 8 12.1046 8 11V7Z" fill="black"/>
<path d="M15 17H9V19H15V17Z" fill="black"/>
</svg>
