<svg width="24" height="24" viewBox="0 0 24 24" fill="none" xmlns="http://www.w3.org/2000/svg">
<path d="M9 4C10.1046 4 11 4.89543 11 6V8H13V6C13 4.89543 13.8954 4 15 4V2C13.8053 2 12.7329 2.52375 12 3.35418C11.2671 2.52375 10.1947 2 9 2V4Z" fill="#808080"/>
<path fill-rule="evenodd" clip-rule="evenodd" d="M14.2565 6.02039C16.0794 5.29124 18.1619 5.99282 19.172 7.67631L20.0919 9.20949C20.7351 10.2814 20.8401 11.5924 20.3759 12.753L18.0661 18.5275C17.2364 20.6016 14.8113 21.5236 12.8132 20.5246C12.3013 20.2687 11.6988 20.2687 11.1869 20.5246C9.18883 21.5236 6.76366 20.6016 5.93402 18.5275L3.62424 12.753C3.15997 11.5924 3.26502 10.2814 3.90817 9.20949L4.82808 7.67631C5.83818 5.99281 7.92075 5.29125 9.74361 6.02039L11.2573 6.62585C11.7341 6.81658 12.266 6.81658 12.7428 6.62585L14.2565 6.02039ZM17.457 8.7053C16.952 7.86355 15.9107 7.51277 14.9993 7.87734L13.4856 8.48281C12.532 8.86426 11.4681 8.86426 10.5145 8.48281L9.00083 7.87734C8.0894 7.51277 7.04811 7.86355 6.54306 8.7053L5.62316 10.2385C5.30158 10.7744 5.24906 11.4299 5.48119 12.0103L7.79097 17.7847C8.18606 18.7724 9.34095 19.2115 10.2924 18.7358C11.3674 18.1983 12.6327 18.1983 13.7077 18.7358C14.6592 19.2115 15.8141 18.7724 16.2091 17.7847L18.5189 12.0103C18.7511 11.4299 18.6985 10.7744 18.377 10.2385L17.457 8.7053Z" fill="black"/>
</svg>
