<svg width="24" height="24" viewBox="0 0 24 24" fill="none" xmlns="http://www.w3.org/2000/svg">
<path fill="black" fill-rule="evenodd" clip-rule="evenodd" d="M6.5 6C6.22386 6 6 6.22386 6 6.5V19.5C6 19.7761 6.22386 20 6.5 20H17.5C17.7761 20 18 19.7761 18 19.5V6.5C18 6.22386 17.7761 6 17.5 6H15V4H17.5C18.8807 4 20 5.11929 20 6.5V19.5C20 20.8807 18.8807 22 17.5 22H6.5C5.11929 22 4 20.8807 4 19.5V6.5C4 5.11929 5.11929 4 6.5 4H9V6H6.5Z"/>
<path fill="black" fill-rule="evenodd" clip-rule="evenodd" d="M8 3.5C8 2.67157 8.67157 2 9.5 2H14.5C15.3284 2 16 2.67157 16 3.5V6.5C16 7.32843 15.3284 8 14.5 8H9.5C8.67157 8 8 7.32843 8 6.5V3.5ZM10 4V6H14V4H10Z"/>
</svg>
