<svg width="24" height="24" viewBox="0 0 24 24" fill="none" xmlns="http://www.w3.org/2000/svg">
<path fill-rule="evenodd" clip-rule="evenodd" d="M18.7072 6.70711L13.7072 11.7071L12.293 10.2929L17.293 5.29289L18.7072 6.70711Z" fill="black"/>
<path d="M14 6H17.5C17.7761 6 18 6.22386 18 6.5V10H20V6.5C20 5.11929 18.8807 4 17.5 4H14V6Z" fill="black"/>
<path fill-rule="evenodd" clip-rule="evenodd" d="M7 9C4.79086 9 3 10.7909 3 13V17C3 19.2091 4.79086 21 7 21H11C13.2091 21 15 19.2091 15 17V13C15 10.7909 13.2091 9 11 9H7ZM5 13C5 11.8954 5.89543 11 7 11H11C12.1046 11 13 11.8954 13 13V17C13 18.1046 12.1046 19 11 19H7C5.89543 19 5 18.1046 5 17V13Z" fill="black"/>
</svg>
