<svg width="24" height="24" viewBox="0 0 24 24" fill="none" xmlns="http://www.w3.org/2000/svg">
<path fill-rule="evenodd" clip-rule="evenodd" d="M11 16H20V19.5C20 20.8807 18.8807 22 17.5 22H16.75C15.9631 22 15.2221 21.6295 14.75 21L11 16ZM15 18L16.35 19.8C16.4444 19.9259 16.5926 20 16.75 20H17.5C17.7761 20 18 19.7761 18 19.5V18H15Z" fill="black"/>
<path fill-rule="evenodd" clip-rule="evenodd" d="M2 6C2 3.79086 3.79086 2 6 2H18C20.2091 2 22 3.79086 22 6V14C22 16.2091 20.2091 18 18 18H10C8.34315 18 7 16.6569 7 15C7 14.4477 6.55228 14 6 14H5.5C3.567 14 2 12.433 2 10.5V6ZM18 16H14.5C14.2239 16 14 15.7761 14 15.5V13H12V15.5C12 15.6712 12.0172 15.8384 12.05 16H10C9.44772 16 9 15.5523 9 15V11.5C9 11.2239 9.22386 11 9.5 11H12.5C13.8807 11 15 9.88071 15 8.5V6H13V8.5C13 8.77614 12.7761 9 12.5 9H9.5C8.11929 9 7 10.1193 7 11.5V12.1707C6.68722 12.0602 6.35064 12 6 12H5.5C4.67157 12 4 11.3284 4 10.5V6C4 4.89543 4.89543 4 6 4H9V5.5C9 5.77614 8.77614 6 8.5 6H6L6 8H8.5C9.88071 8 11 6.88071 11 5.5V4H18C19.1046 4 20 4.89543 20 6V8H18.5C17.1193 8 16 9.11929 16 10.5V13H18V10.5C18 10.2239 18.2239 10 18.5 10H20V14C20 15.1046 19.1046 16 18 16Z" fill="black"/>
</svg>
