<svg width="24" height="24" viewBox="0 0 24 24" fill="none" xmlns="http://www.w3.org/2000/svg">
<path fill-rule="evenodd" clip-rule="evenodd" d="M8 9H19V7H8C5.79086 7 4 8.79086 4 11V15C4 17.2091 5.79086 19 8 19H17V17H8C6.89543 17 6 16.1046 6 15V11C6 9.89543 6.89543 9 8 9Z" fill="black"/>
<path fill-rule="evenodd" clip-rule="evenodd" d="M15.2929 4.70718L18.2322 7.64652C18.4275 7.84179 18.4275 8.15837 18.2322 8.35363L15.2929 11.293L16.7071 12.7072L19.6464 9.76784C20.6227 8.79153 20.6227 7.20862 19.6464 6.23231L16.7071 3.29297L15.2929 4.70718Z" fill="#808080"/>
</svg>
