<svg width="24" height="24" viewBox="0 0 24 24" fill="none" xmlns="http://www.w3.org/2000/svg">
<path d="M11.0001 16V15H10.0001H9.08123C8.73995 15 8.49897 14.6657 8.60689 14.3419L10.6069 8.34189C10.6749 8.13771 10.866 8 11.0812 8H12.919C13.1342 8 13.3252 8.13771 13.3933 8.34188L15.3933 14.3419C15.5012 14.6657 15.2602 15 14.919 15H14.0001H13.0001V16V20.5C13.0001 20.7761 12.7762 21 12.5001 21H11.5001C11.2239 21 11.0001 20.7761 11.0001 20.5V16Z" stroke="black" stroke-width="2"/>
<mask id="path-2-inside-1_3_12650" fill="white">
<rect x="10" y="2" width="4" height="4" rx="1.5"/>
</mask>
<rect x="10" y="2" width="4" height="4" rx="1.5" stroke="black" stroke-width="4" mask="url(#path-2-inside-1_3_12650)"/>
</svg>
