<svg width="24" height="24" viewBox="0 0 24 24" fill="none" xmlns="http://www.w3.org/2000/svg">
<path fill-rule="evenodd" clip-rule="evenodd" d="M18 7C20.2091 7 22 8.79086 22 11V17C22 19.2091 20.2091 21 18 21H6C3.79086 21 2 19.2091 2 17V11C2 8.79086 3.79086 7 6 7V5.5C6 4.11929 7.11929 3 8.5 3H15.5C16.8807 3 18 4.11929 18 5.5V7ZM8 5.5V7H16V5.5C16 5.22386 15.7761 5 15.5 5H8.5C8.22386 5 8 5.22386 8 5.5ZM4 11C4 9.89543 4.89543 9 6 9H18C19.1046 9 20 9.89543 20 11V17C20 18.1046 19.1046 19 18 19H6C4.89543 19 4 18.1046 4 17V11Z" fill="black"/>
<path d="M11 15V17H13V15H15V13H13V11H11V13H9V15H11Z" fill="black"/>
</svg>
