<svg width="24" height="24" viewBox="0 0 24 24" fill="none" xmlns="http://www.w3.org/2000/svg">
<path fill="black" fill-rule="evenodd" clip-rule="evenodd" d="M2 2H3.42624C5.40053 2 7.07953 3.44044 7.37973 5.39177L8.59701 13.3041C8.74712 14.2798 9.58661 15 10.5738 15H16.5406C17.494 15 18.3148 14.3271 18.5018 13.3922L19.3018 9.39223C19.5493 8.15465 18.6027 7 17.3406 7H10V5H17.3406C19.8648 5 21.7579 7.3093 21.2629 9.78447L20.4629 13.7845C20.089 15.6542 18.4473 17 16.5406 17H10.5738C8.59947 17 6.92047 15.5596 6.62027 13.6082L5.40299 5.69589C5.25288 4.72022 4.41339 4 3.42624 4H2V2Z"/>
<path fill="black" d="M8.5 18C7.67157 18 7 18.6716 7 19.5C7 20.3284 7.67157 21 8.5 21C9.32843 21 10 20.3284 10 19.5C10 18.6716 9.32843 18 8.5 18Z"/>
<path fill="black" d="M18.5 18C17.6716 18 17 18.6716 17 19.5C17 20.3284 17.6716 21 18.5 21C19.3284 21 20 20.3284 20 19.5C20 18.6716 19.3284 18 18.5 18Z"/>
</svg>
