<svg width="24" height="24" viewBox="0 0 24 24" fill="none" xmlns="http://www.w3.org/2000/svg">
<path fill="black" d="M6 2C3.79086 2 2 3.79086 2 6V9H4V6C4 4.89543 4.89543 4 6 4H9V2H6Z"/>
<path fill="black" d="M6 22C3.79086 22 2 20.2091 2 18V15H4V18C4 19.1046 4.89543 20 6 20H9V22H6Z"/>
<path fill="black" d="M22 6C22 3.79086 20.2091 2 18 2H15V4H18C19.1046 4 20 4.89543 20 6V9H22V6Z"/>
<path fill="black" d="M18 22C20.2091 22 22 20.2091 22 18V15H20V18C20 19.1046 19.1046 20 18 20H15V22H18Z"/>
<path fill="black" fill-rule="evenodd" clip-rule="evenodd" d="M7 9.5C7 8.11929 8.11929 7 9.5 7H14.5C15.8807 7 17 8.11929 17 9.5V14.5C17 15.8807 15.8807 17 14.5 17H9.5C8.11929 17 7 15.8807 7 14.5V9.5ZM9.5 9C9.22386 9 9 9.22386 9 9.5V14.5C9 14.7761 9.22386 15 9.5 15H14.5C14.7761 15 15 14.7761 15 14.5V9.5C15 9.22386 14.7761 9 14.5 9H9.5Z"/>
</svg>
