<svg width="24" height="24" viewBox="0 0 24 24" fill="none" xmlns="http://www.w3.org/2000/svg">
<path d="M3 7H13V5H3V7Z" fill="black"/>
<path d="M21 13V11L11 11V13L21 13Z" fill="black"/>
<path d="M13 19H3V17H13V19Z" fill="black"/>
<path d="M3 13H7V11H3V13Z" fill="black"/>
<path d="M16 7H21V5H16V7Z" fill="black"/>
<path d="M21 17H17V19H21V17Z" fill="black"/>
<path fill-rule="evenodd" clip-rule="evenodd" d="M12 5.5C12 4.11929 13.1193 3 14.5 3H15.5C16.8807 3 18 4.11929 18 5.5V6.5C18 7.88071 16.8807 9 15.5 9H14.5C13.1193 9 12 7.88071 12 6.5V5.5ZM14.5 5C14.2239 5 14 5.22386 14 5.5V6.5C14 6.77614 14.2239 7 14.5 7H15.5C15.7761 7 16 6.77614 16 6.5V5.5C16 5.22386 15.7761 5 15.5 5H14.5Z" fill="black"/>
<path fill-rule="evenodd" clip-rule="evenodd" d="M6 11.5C6 10.1193 7.11929 9 8.5 9H9.5C10.8807 9 12 10.1193 12 11.5V12.5C12 13.8807 10.8807 15 9.5 15H8.5C7.11929 15 6 13.8807 6 12.5V11.5ZM8.5 11C8.22386 11 8 11.2239 8 11.5V12.5C8 12.7761 8.22386 13 8.5 13H9.5C9.77614 13 10 12.7761 10 12.5V11.5C10 11.2239 9.77614 11 9.5 11H8.5Z" fill="black"/>
<path fill-rule="evenodd" clip-rule="evenodd" d="M14.5 15C13.1193 15 12 16.1193 12 17.5V18.5C12 19.8807 13.1193 21 14.5 21H15.5C16.8807 21 18 19.8807 18 18.5V17.5C18 16.1193 16.8807 15 15.5 15H14.5ZM14 17.5C14 17.2239 14.2239 17 14.5 17H15.5C15.7761 17 16 17.2239 16 17.5V18.5C16 18.7761 15.7761 19 15.5 19H14.5C14.2239 19 14 18.7761 14 18.5V17.5Z" fill="black"/>
</svg>
