<svg width="24" height="24" viewBox="0 0 24 24" fill="none" xmlns="http://www.w3.org/2000/svg">
<path fill-rule="evenodd" clip-rule="evenodd" d="M13.2322 12.6466L12.2929 11.7072L13.7071 10.293L14.6464 11.2324C15.6227 12.2087 15.6227 13.7916 14.6464 14.7679L9.76781 19.6466C8.7915 20.6229 7.20857 20.6229 6.23225 19.6466L4.35358 17.7679C3.37727 16.7916 3.37727 15.2087 4.35357 14.2324L6.79291 11.793L8.20712 13.2072L5.76779 15.6466C5.57253 15.8419 5.57253 16.1584 5.76779 16.3537L7.64647 18.2324C7.84173 18.4276 8.15832 18.4276 8.35358 18.2324L13.2322 13.3537C13.4275 13.1584 13.4275 12.8418 13.2322 12.6466Z" fill="#808080"/>
<path fill-rule="evenodd" clip-rule="evenodd" d="M14.2322 4.35347C15.2085 3.37714 16.7915 3.37715 17.7678 4.35347L19.6464 6.23214C20.6227 7.20845 20.6227 8.79134 19.6464 9.76765L17.2071 12.207L15.7929 10.7928L18.2322 8.35345C18.4275 8.15818 18.4275 7.84161 18.2322 7.64635L16.3536 5.76768C16.1583 5.57241 15.8417 5.57241 15.6464 5.76767L10.7678 10.6464C10.5725 10.8416 10.5725 11.1582 10.7678 11.3535L11.7071 12.2928L10.2929 13.707L9.35358 12.7677C8.37727 11.7914 8.37727 10.2085 9.35358 9.23216L14.2322 4.35347Z" fill="black"/>
</svg>
