<svg width="24" height="24" viewBox="0 0 24 24" fill="none" xmlns="http://www.w3.org/2000/svg">
<path fill-rule="evenodd" clip-rule="evenodd" d="M10.6235 2.81599C11.1011 1.54931 12.8799 1.51348 13.4081 2.75988L15.343 7.32509C15.4213 7.50992 15.6026 7.62997 15.8034 7.62997H20.6348C22.0322 7.62997 22.6705 9.37256 21.6037 10.2751L17.5901 13.6708C17.4336 13.8032 17.3738 14.0176 17.4391 14.2119L19.1722 19.3661C19.6201 20.698 18.1549 21.8593 16.9604 21.1193L12.2633 18.2091C12.1019 18.1091 11.8979 18.1091 11.7366 18.2091L7.03944 21.1193C5.84494 21.8593 4.3798 20.698 4.82766 19.3661L6.56081 14.2119C6.62613 14.0176 6.56629 13.8032 6.40983 13.6708L2.39622 10.2751C1.32941 9.37255 1.96767 7.62997 3.36506 7.62997H8.46246C8.67055 7.62997 8.85688 7.50109 8.9303 7.30638L10.6235 2.81599ZM12.0542 4.69048L10.8017 8.01203C10.4346 8.98557 9.50291 9.62997 8.46246 9.62997H4.73017L7.70161 12.1439C8.48391 12.8058 8.78311 13.878 8.45651 14.8493L7.1656 18.6884L10.6833 16.5089C11.4899 16.0092 12.51 16.0092 13.3166 16.5089L16.8343 18.6884L15.5434 14.8493C15.2168 13.878 15.516 12.8058 16.2983 12.1439L19.2697 9.62997H15.8034C14.7996 9.62997 13.8932 9.02968 13.5016 8.10555L12.0542 4.69048Z" fill="black"/>
</svg>
