<svg width="24" height="24" viewBox="0 0 24 24" fill="none" xmlns="http://www.w3.org/2000/svg">
<path fill="black" fill-rule="evenodd" clip-rule="evenodd" d="M6 5C4.89543 5 4 5.89543 4 7V15.0458C4 15.5728 4.42719 16 4.95416 16C5.27319 16 5.57111 15.8406 5.74808 15.5751L6.27735 14.7812C7.01921 13.6684 8.26814 13 9.60555 13H12C13.1046 13 14 12.1046 14 11V9H16V11C16 11.3453 15.9562 11.6804 15.874 12H16.5C17.1295 12 17.7223 11.7036 18.1 11.2L19.6 9.2C19.8596 8.85381 20 8.43274 20 8V7C20 5.89543 19.1046 5 18 5H6ZM14.6458 14H16.5C17.759 14 18.9446 13.4072 19.7 12.4L21.2 10.4C21.7193 9.70762 22 8.86548 22 8V7C22 4.79086 20.2091 3 18 3H6C3.79086 3 2 4.79086 2 7V15.0458C2 16.6774 3.32262 18 4.95416 18C5.9419 18 6.86428 17.5064 7.41218 16.6845L7.94145 15.8906C8.31238 15.3342 8.93684 15 9.60555 15H12C13.0144 15 13.9407 14.6224 14.6458 14Z"/>
<path fill="black" d="M11 10C11 8.89543 11.8954 8 13 8H14V6H13C10.9431 6 9.24878 7.55257 9.02506 9.54975C8.43108 9.20037 7.73894 9 7 9H6V11H7C8.10457 11 9 11.8954 9 13V21H11V10Z"/>
</svg>
