<svg width="24" height="24" viewBox="0 0 24 24" fill="none" xmlns="http://www.w3.org/2000/svg">
<path fill-rule="evenodd" clip-rule="evenodd" d="M15 19C15 17.3431 16.3431 16 18 16C19.6569 16 21 17.3431 21 19C21 20.6569 19.6569 22 18 22C16.3431 22 15 20.6569 15 19ZM18 18C17.4477 18 17 18.4477 17 19C17 19.5523 17.4477 20 18 20C18.5523 20 19 19.5523 19 19C19 18.4477 18.5523 18 18 18Z" fill="black"/>
<path fill-rule="evenodd" clip-rule="evenodd" d="M17.8285 3.41422C16.2664 1.85212 13.7337 1.85212 12.1716 3.41422L8.93525 6.65061C8.37685 7.20902 7.99623 7.92021 7.84136 8.69458L7.29684 11.4171C7.12518 12.2755 7.27 13.1547 7.68479 13.9011L2.29297 19.2929L3.70718 20.7071L9.099 15.3153C9.84541 15.7301 10.7246 15.8749 11.5829 15.7032L14.3055 15.1587C15.0799 15.0038 15.7911 14.6232 16.3495 14.0648L19.5859 10.8284C21.148 9.26634 21.148 6.73368 19.5859 5.17158L17.8285 3.41422ZM13.5859 4.82843C14.3669 4.04738 15.6332 4.04738 16.4143 4.82843L18.1716 6.58579C18.9527 7.36684 18.9527 8.63317 18.1716 9.41422L14.9353 12.6506C14.6561 12.9298 14.3005 13.1201 13.9133 13.1976L11.1907 13.7421C10.6522 13.8498 10.0955 13.6812 9.70718 13.2929C9.31886 12.9046 9.15031 12.3479 9.25801 11.8094L9.80252 9.08681C9.87995 8.69963 10.0703 8.34403 10.3495 8.06483L13.5859 4.82843Z" fill="black"/>
</svg>
