<svg width="24" height="24" viewBox="0 0 24 24" fill="none" xmlns="http://www.w3.org/2000/svg">
<path fill="black" fill-rule="evenodd" clip-rule="evenodd" d="M18.0001 8.05001C18.1616 8.01722 18.3288 8 18.5001 8H19.5001C20.8808 8 22.0001 9.11929 22.0001 10.5V15.9477C22.0001 16.8559 21.6909 17.7372 21.1235 18.4464L18.6817 21.4988C17.9226 22.4476 16.7733 23 15.5582 23H10.781C9.31718 23 7.9703 22.2005 7.26937 20.9154L2.77942 12.6838C2.15934 11.547 2.50996 10.1249 3.58741 9.40658L4.13643 9.04056C5.3241 8.24878 6.93252 8.61047 7.66691 9.83445L8.00005 10.3897V3.5C8.00005 2.11929 9.11934 1 10.5001 1H11.5001C12.8808 1 14.0001 2.11929 14.0001 3.5V5.05001C14.1616 5.01722 14.3288 5 14.5001 5H15.5001C16.8808 5 18.0001 6.11929 18.0001 7.5V8.05001ZM10.0001 3.5C10.0001 3.22386 10.2239 3 10.5001 3H11.5001C11.7762 3 12.0001 3.22386 12.0001 3.5V11H14.0001V7.5C14.0001 7.22386 14.2239 7 14.5001 7H15.5001C15.7762 7 16.0001 7.22386 16.0001 7.5V13H18.0001V10.5C18.0001 10.2239 18.2239 10 18.5001 10H19.5001C19.7762 10 20.0001 10.2239 20.0001 10.5V15.9477C20.0001 16.4018 19.8455 16.8424 19.5618 17.197L17.1199 20.2494C16.7404 20.7238 16.1657 21 15.5582 21H10.781C10.0491 21 9.37563 20.6002 9.02516 19.9577L4.53521 11.7261C4.4112 11.4988 4.48132 11.2143 4.69681 11.0707L5.24583 10.7047C5.48337 10.5463 5.80505 10.6186 5.95193 10.8634L7.95681 14.2049C8.53081 15.1616 10.0001 14.7546 10.0001 13.639V3.5Z"/>
</svg>
