<svg width="24" height="24" viewBox="0 0 24 24" fill="none" xmlns="http://www.w3.org/2000/svg">
<path fill="black" d="M4 10H20V8H4V10Z"/>
<path fill="black" d="M4 16H20V14H4V16Z"/>
<path fill="black" fill-rule="evenodd" clip-rule="evenodd" d="M2 6C2 3.79086 3.79086 2 6 2H18C20.2091 2 22 3.79086 22 6V18C22 20.2091 20.2091 22 18 22H6C3.79086 22 2 20.2091 2 18V6ZM6 4C4.89543 4 4 4.89543 4 6V18C4 19.1046 4.89543 20 6 20H8L8 4H6ZM10 4L10 20H14L14 4H10ZM18 20H16L16 4H18C19.1046 4 20 4.89543 20 6V18C20 19.1046 19.1046 20 18 20Z"/>
</svg>
