<svg width="24" height="24" viewBox="0 0 24 24" fill="none" xmlns="http://www.w3.org/2000/svg">
<path fill-rule="evenodd" clip-rule="evenodd" d="M7 6H10.5C11.8807 6 13 7.11929 13 8.5V9.5C13 10.1187 12.7752 10.6849 12.4029 11.1215L13.5 12.438L15.2318 10.3598L16.7682 11.6402L14.8017 14L16.7682 16.3598L15.2318 17.6402L13.5 15.562L11.7682 17.6402L10.2318 16.3598L12.1983 14L10.5315 11.9998L10.5 12H9V14H7V6ZM9 10H10.5C10.7761 10 11 9.77614 11 9.5V8.5C11 8.22386 10.7761 8 10.5 8H9V10Z" fill="#808080"/>
<path fill-rule="evenodd" clip-rule="evenodd" d="M2 6C2 3.79086 3.79086 2 6 2H18C20.2091 2 22 3.79086 22 6V18C22 20.2091 20.2091 22 18 22H6C3.79086 22 2 20.2091 2 18V6ZM6 4C4.89543 4 4 4.89543 4 6V18C4 19.1046 4.89543 20 6 20H18C19.1046 20 20 19.1046 20 18V6C20 4.89543 19.1046 4 18 4H6Z" fill="black"/>
</svg>
