<svg width="24" height="24" viewBox="0 0 24 24" fill="none" xmlns="http://www.w3.org/2000/svg">
<path fill-rule="evenodd" clip-rule="evenodd" d="M11 5.5C11 4.11929 12.1193 3 13.5 3H19.5C20.8807 3 22 4.11929 22 5.5V8.5C22 9.88071 20.8807 11 19.5 11H14.6213C14.4887 11 14.3615 11.0527 14.2678 11.1464L13.5607 11.8536C12.6157 12.7985 11 12.1292 11 10.7929V5.5ZM13.5 5C13.2239 5 13 5.22386 13 5.5V9.59702C13.4506 9.21306 14.025 9 14.6213 9H19.5C19.7761 9 20 8.77614 20 8.5V5.5C20 5.22386 19.7761 5 19.5 5H13.5Z" fill="black"/>
<path d="M7 9C5.89543 9 5 9.89543 5 11V17C5 18.1046 5.89543 19 7 19H17C18.1046 19 19 18.1046 19 17V12H21V13H22V15H21V17C21 19.2091 19.2091 21 17 21H7C4.79086 21 3 19.2091 3 17V15H2V13H3V11C3 8.79086 4.79086 7 7 7H10V9H7Z" fill="black"/>
<path d="M14 13.5C14 13.2239 14.2239 13 14.5 13H15.5C15.7761 13 16 13.2239 16 13.5V14.5C16 14.7761 15.7761 15 15.5 15H14.5C14.2239 15 14 14.7761 14 14.5V13.5Z" fill="black"/>
<path d="M8.5 13C8.22386 13 8 13.2239 8 13.5V14.5C8 14.7761 8.22386 15 8.5 15H9.5C9.77614 15 10 14.7761 10 14.5V13.5C10 13.2239 9.77614 13 9.5 13H8.5Z" fill="black"/>
</svg>
