<svg width="24" height="24" viewBox="0 0 24 24" fill="none" xmlns="http://www.w3.org/2000/svg">
<path fill-rule="evenodd" clip-rule="evenodd" d="M7 6C7 3.79086 8.79086 2 11 2H13C15.2091 2 17 3.79086 17 6V7.5H15V6C15 4.89543 14.1046 4 13 4H11C9.89543 4 9 4.89543 9 6V7.5H7V6ZM9 16.5V18C9 19.1046 9.89543 20 11 20H13C14.1046 20 15 19.1046 15 18V16.5H17V18C17 20.2091 15.2091 22 13 22H11C8.79086 22 7 20.2091 7 18V16.5H9Z" fill="black"/>
<path d="M11.5 11C11.2239 11 11 11.2239 11 11.5V12.5C11 12.7761 11.2239 13 11.5 13H12.5C12.7761 13 13 12.7761 13 12.5V11.5C13 11.2239 12.7761 11 12.5 11H11.5Z" fill="black"/>
<path d="M15 11.5C15 11.2239 15.2239 11 15.5 11H16.5C16.7761 11 17 11.2239 17 11.5V12.5C17 12.7761 16.7761 13 16.5 13H15.5C15.2239 13 15 12.7761 15 12.5V11.5Z" fill="black"/>
<path d="M7.5 11C7.22386 11 7 11.2239 7 11.5V12.5C7 12.7761 7.22386 13 7.5 13H8.5C8.77614 13 9 12.7761 9 12.5V11.5C9 11.2239 8.77614 11 8.5 11H7.5Z" fill="black"/>
<path fill-rule="evenodd" clip-rule="evenodd" d="M22 11C22 8.79086 20.2091 7 18 7H6C3.79086 7 2 8.79086 2 11V13C2 15.2091 3.79086 17 6 17H18C20.2091 17 22 15.2091 22 13V11ZM18 9C19.1046 9 20 9.89543 20 11V13C20 14.1046 19.1046 15 18 15H6C4.89543 15 4 14.1046 4 13L4 11C4 9.89543 4.89543 9 6 9L18 9Z" fill="black"/>
</svg>
