<svg width="24" height="24" viewBox="0 0 24 24" fill="none" xmlns="http://www.w3.org/2000/svg">
<path d="M13 10C13 11.1046 13.8954 12 15 12V14C13.8053 14 12.7329 13.4762 12 12.6458C11.2671 13.4762 10.1947 14 9 14V12C10.1046 12 11 11.1046 11 10V3H13V10Z" fill="#808080"/>
<path fill-rule="evenodd" clip-rule="evenodd" d="M7.40725 6C6.56726 6 5.78342 6.42183 5.32072 7.12289L2.41348 11.5278C2.14377 11.9365 2 12.4153 2 12.9049V17.5C2 18.8807 3.11929 20 4.5 20H7.5C8.88071 20 10 18.8807 10 17.5V8.5C10 7.11929 8.88071 6 7.5 6H7.40725ZM6.98994 8.22458C7.08248 8.08437 7.23925 8 7.40725 8H7.5C7.77614 8 8 8.22386 8 8.5V17.5C8 17.7761 7.77614 18 7.5 18H4.5C4.22386 18 4 17.7761 4 17.5V12.9049C4 12.807 4.02875 12.7112 4.0827 12.6295L6.98994 8.22458Z" fill="black"/>
<path fill-rule="evenodd" clip-rule="evenodd" d="M16.5928 6C17.4327 6 18.2166 6.42183 18.6793 7.12289L21.5865 11.5278C21.8562 11.9365 22 12.4153 22 12.9049V17.5C22 18.8807 20.8807 20 19.5 20H16.5C15.1193 20 14 18.8807 14 17.5V8.5C14 7.11929 15.1193 6 16.5 6H16.5928ZM17.0101 8.22458C16.9175 8.08437 16.7607 8 16.5928 8H16.5C16.2239 8 16 8.22386 16 8.5V17.5C16 17.7761 16.2239 18 16.5 18H19.5C19.7761 18 20 17.7761 20 17.5V12.9049C20 12.807 19.9712 12.7112 19.9173 12.6295L17.0101 8.22458Z" fill="black"/>
</svg>
