<svg width="24" height="24" viewBox="0 0 24 24" fill="none" xmlns="http://www.w3.org/2000/svg">
<path fill-rule="evenodd" clip-rule="evenodd" d="M3 7C3 4.79086 4.79086 3 7 3H17C19.2091 3 21 4.79086 21 7V17C21 19.2091 19.2091 21 17 21H7C4.79086 21 3 19.2091 3 17V7ZM7 5C5.89543 5 5 5.89543 5 7V17C5 18.1046 5.89543 19 7 19H17C18.1046 19 19 18.1046 19 17V7C19 5.89543 18.1046 5 17 5H7Z" fill="black"/>
<path d="M8 7V10.5C8 11.0628 8.18597 11.5822 8.49982 12C8.18597 12.4178 8 12.9372 8 13.5V17H10V13.5C10 13.2239 10.2239 13 10.5 13H13.5C13.7761 13 14 13.2239 14 13.5V17H16V13.5C16 12.9372 15.814 12.4178 15.5002 12C15.814 11.5822 16 11.0628 16 10.5V7H14V10.5C14 10.7761 13.7761 11 13.5 11H10.5C10.2239 11 10 10.7761 10 10.5V7H8Z" fill="#808080"/>
</svg>
