<svg width="24" height="24" viewBox="0 0 24 24" fill="none" xmlns="http://www.w3.org/2000/svg">
<path fill="black" fill-rule="evenodd" clip-rule="evenodd" d="M3 17V4H5V17C5 18.1046 5.89543 19 7 19H20V21H7C4.79086 21 3 19.2091 3 17Z"/>
<path fill="black" fill-rule="evenodd" clip-rule="evenodd" d="M20.7072 10.7071L17.2678 14.1464C16.2915 15.1228 14.7086 15.1228 13.7323 14.1464L12.3536 12.7678C12.1584 12.5725 11.8418 12.5725 11.6465 12.7678L7.70718 16.7071L6.29297 15.2929L10.2323 11.3536C11.2086 10.3772 12.7915 10.3772 13.7678 11.3536L15.1465 12.7322C15.3418 12.9275 15.6584 12.9275 15.8536 12.7322L19.293 9.29289L20.7072 10.7071Z"/>
</svg>
