<svg width="24" height="24" viewBox="0 0 24 24" fill="none" xmlns="http://www.w3.org/2000/svg">
<path fill-rule="evenodd" clip-rule="evenodd" d="M5.7371 13H2V11H5.7371C7.52302 11 9.09256 12.1839 9.58319 13.9011L10 15.3599L11.0385 11.7253L12.9615 12.2747L10.9615 19.2747C10.8389 19.704 10.4465 20 10 20C9.55352 20 9.16113 19.704 9.03848 19.2747L7.66014 14.4506C7.41483 13.592 6.63006 13 5.7371 13Z" fill="black"/>
<path fill-rule="evenodd" clip-rule="evenodd" d="M18.2629 11H22V13H18.2629C16.477 13 14.9074 11.8161 14.4168 10.0989L14 8.64005L12.9615 12.2747L11.0385 11.7253L13.0385 4.72528C13.1611 4.29598 13.5535 4 14 4C14.4465 4 14.8389 4.29598 14.9615 4.72528L16.3399 9.54944C16.5852 10.408 17.3699 11 18.2629 11Z" fill="#808080"/>
</svg>
