<svg width="24" height="24" viewBox="0 0 24 24" fill="none" xmlns="http://www.w3.org/2000/svg">
<path fill-rule="evenodd" clip-rule="evenodd" d="M17.8137 9.58124L12.8137 16.5812L11.1863 15.4188L16.1863 8.41876L17.8137 9.58124Z" fill="#808080"/>
<path fill-rule="evenodd" clip-rule="evenodd" d="M7 3C4.79086 3 3 4.79086 3 7V17.5V18V18.5C3 19.8807 4.11929 21 5.5 21H18.5C19.8807 21 21 19.8807 21 18.5V18V17.5V7C21 4.79086 19.2091 3 17 3H7ZM19 15.05V7C19 5.89543 18.1046 5 17 5H7C5.89543 5 5 5.89543 5 7V15.05C5.16156 15.0172 5.32877 15 5.5 15H18.5C18.6712 15 18.8384 15.0172 19 15.05ZM5 17.5V18V18.5C5 18.7761 5.22386 19 5.5 19H18.5C18.7761 19 19 18.7761 19 18.5V18V17.5C19 17.2239 18.7761 17 18.5 17H5.5C5.22386 17 5 17.2239 5 17.5Z" fill="black"/>
</svg>
