<svg width="24" height="24" viewBox="0 0 24 24" fill="none" xmlns="http://www.w3.org/2000/svg">
<path fill-rule="evenodd" clip-rule="evenodd" d="M2 6C2 3.79086 3.79086 2 6 2H18C20.2091 2 22 3.79086 22 6V18C22 20.2091 20.2091 22 18 22H6C3.79086 22 2 20.2091 2 18V6ZM6 4C4.89543 4 4 4.89543 4 6V18C4 19.1046 4.89543 20 6 20H18C19.1046 20 20 19.1046 20 18V6C20 4.89543 19.1046 4 18 4H6Z" fill="black"/>
<path fill-rule="evenodd" clip-rule="evenodd" d="M13.9203 10.0766L12.1871 12.9654C11.685 13.8022 10.5302 13.9444 9.84015 13.2544L9.19862 12.6128L7.76627 15.0001H16.382L13.9203 10.0766ZM12.674 8.26661C13.2829 7.25166 14.7725 7.30886 15.3018 8.36753L18.5327 14.8293C19.0314 15.8266 18.3061 17.0001 17.1911 17.0001H6.88318C5.71723 17.0001 4.99706 15.7281 5.59694 14.7283L7.81311 11.0347C8.31518 10.1979 9.46998 10.0558 10.16 10.7458L10.8015 11.3873L12.674 8.26661Z" fill="black"/>
</svg>
