<svg width="24" height="24" viewBox="0 0 24 24" fill="none" xmlns="http://www.w3.org/2000/svg">
<path d="M14 10H18V8H14V10Z" fill="#808080"/>
<path d="M14 14H18V12H14V14Z" fill="#808080"/>
<path fill-rule="evenodd" clip-rule="evenodd" d="M13 4V3H11V4H9C6.79086 4 5 5.79086 5 8V14C5 16.2091 6.79086 18 9 18L9 22H11V18H13V19.5C13 20.8807 14.1193 22 15.5 22H20V20H15.5C15.2239 20 15 19.7761 15 19.5V18C17.2091 18 19 16.2091 19 14V8C19 5.79086 17.2091 4 15 4H13ZM7 8C7 6.89543 7.89543 6 9 6H15C16.1046 6 17 6.89543 17 8V14C17 15.1046 16.1046 16 15 16H9C7.89543 16 7 15.1046 7 14V8Z" fill="black"/>
</svg>
