<svg width="24" height="24" viewBox="0 0 24 24" fill="none" xmlns="http://www.w3.org/2000/svg">
<path fill-rule="evenodd" clip-rule="evenodd" d="M2 6C2 3.79086 3.79086 2 6 2H18C20.2091 2 22 3.79086 22 6V18C22 20.2091 20.2091 22 18 22H6C3.79086 22 2 20.2091 2 18V6ZM6 4C4.89543 4 4 4.89543 4 6V18C4 19.1046 4.89543 20 6 20H18C19.1046 20 20 19.1046 20 18V6C20 4.89543 19.1046 4 18 4H6Z" fill="black"/>
<path fill-rule="evenodd" clip-rule="evenodd" d="M9.17165 10.4141L7.29297 12.2928L8.70718 13.707L10.5859 11.8284C11.3669 11.0473 12.6332 11.0473 13.4143 11.8284L15.293 13.707L16.7072 12.2928L14.8285 10.4141C13.2664 8.85204 10.7337 8.85204 9.17165 10.4141Z" fill="#808080"/>
</svg>
