<svg width="24" height="24" viewBox="0 0 24 24" fill="none" xmlns="http://www.w3.org/2000/svg">
<path fill="black" fill-rule="evenodd" clip-rule="evenodd" d="M2 6C2 3.79086 3.79086 2 6 2H18C20.2091 2 22 3.79086 22 6V18C22 20.2091 20.2091 22 18 22H6C3.79086 22 2 20.2091 2 18V6ZM6 4C4.89543 4 4 4.89543 4 6V18C4 19.1046 4.89543 20 6 20H18C19.1046 20 20 19.1046 20 18V6C20 4.89543 19.1046 4 18 4H6Z"/>
<path fill="black" fill-rule="evenodd" clip-rule="evenodd" d="M10.4141 9.17165L12.2928 7.29297L13.707 8.70718L11.8284 10.5859C11.0473 11.3669 11.0473 12.6332 11.8284 13.4143L13.707 15.293L12.2928 16.7072L10.4141 14.8285C8.85204 13.2664 8.85204 10.7337 10.4141 9.17165Z"/>
</svg>
