<svg width="24" height="24" viewBox="0 0 24 24" fill="none" xmlns="http://www.w3.org/2000/svg">
<path d="M15 10.5V4H13V10.5C13 11.8807 14.1193 13 15.5 13H16L16 20H18L18 13H18.5C19.8807 13 21 11.8807 21 10.5V4H19V10.5C19 10.7761 18.7761 11 18.5 11H15.5C15.2239 11 15 10.7761 15 10.5Z" fill="#808080"/>
<path d="M3 4V10.5C3 11.0628 3.18597 11.5822 3.49982 12C3.18597 12.4178 3 12.9372 3 13.5V20H5V13.5C5 13.2239 5.22386 13 5.5 13H8.5C8.77614 13 9 13.2239 9 13.5V20H11V13.5C11 12.9372 10.814 12.4178 10.5002 12C10.814 11.5822 11 11.0628 11 10.5V4H9V10.5C9 10.7761 8.77614 11 8.5 11H5.5C5.22386 11 5 10.7761 5 10.5V4H3Z" fill="black"/>
</svg>
