<svg width="24" height="24" viewBox="0 0 24 24" fill="none" xmlns="http://www.w3.org/2000/svg">
<path d="M7.5 2C6.11929 2 5 3.11929 5 4.5V7H7V4.5C7 4.22386 7.22386 4 7.5 4H8.5C8.77614 4 9 4.22386 9 4.5C9 5.88071 10.1193 7 11.5 7H17C18.1046 7 19 7.89543 19 9V14.7574C19 15.2878 18.7893 15.7965 18.4142 16.1716L15.1716 19.4142C14.7965 19.7893 14.2878 20 13.7574 20H9C7.89543 20 7 19.1046 7 18V13H5V18C5 20.2091 6.79086 22 9 22H13.7574C14.8182 22 15.8356 21.5786 16.5858 20.8284L19.8284 17.5858C20.5786 16.8356 21 15.8182 21 14.7574V9C21 6.79086 19.2091 5 17 5H14V4.5C14 4.22386 14.2239 4 14.5 4H18V2H14.5C13.1193 2 12 3.11929 12 4.5V5H11.5C11.2239 5 11 4.77614 11 4.5C11 3.11929 9.88071 2 8.5 2H7.5Z" fill="black"/>
<path d="M3 9V11H9C10.1046 11 11 11.8954 11 13V17H13V13C13 12.2714 12.8052 11.5883 12.4649 11H13C14.1046 11 15 11.8954 15 13V14H17V13C17 10.7909 15.2091 9 13 9H3Z" fill="#808080"/>
</svg>
