<svg width="24" height="24" viewBox="0 0 24 24" fill="none" xmlns="http://www.w3.org/2000/svg">
<path fill-rule="evenodd" clip-rule="evenodd" d="M11.7072 8.29289L15.7072 12.2929L14.293 13.7071L10.293 9.70711L11.7072 8.29289Z" fill="#808080"/>
<path fill-rule="evenodd" clip-rule="evenodd" d="M13.5859 5L12.293 3.70711L13.7072 2.29289L21.7072 10.2929L20.293 11.7071L19.0001 10.4142L14.208 15.2063C13.7689 15.6454 13.2336 15.9763 12.6444 16.1726L10.1624 17C9.56101 17.2004 8.96866 17.1632 8.45569 16.9586L3.70718 21.7071L2.29297 20.2929L7.04147 15.5444C6.83688 15.0314 6.79963 14.4391 7.00008 13.8377L7.82744 11.3556C8.02381 10.7665 8.35464 10.2312 8.79374 9.79212L13.5859 5ZM15.0001 6.41421L10.208 11.2063C9.98841 11.4259 9.82299 11.6935 9.7248 11.9881L8.89744 14.4702C8.76715 14.8611 9.13902 15.2329 9.5299 15.1026L12.012 14.2753C12.3065 14.1771 12.5742 14.0117 12.7937 13.7921L17.5859 9L15.0001 6.41421Z" fill="black"/>
</svg>
