<svg width="24" height="24" viewBox="0 0 24 24" fill="none" xmlns="http://www.w3.org/2000/svg">
<path d="M17.5 10.78C16.27 10.41 15.28 9.61 14.7 8.6L13.7 7C13.29 6.35 12.59 6 11.86 6C11.08 6 10.27 6.5 10.08 7.44C9.91306 8.26613 7.66062 19.6586 7.11734 22.4067C7.05624 22.7157 7.29349 23 7.60856 23H8.70004C8.9339 23 9.13652 22.8379 9.18785 22.6098L10.9 15L12.069 16.1133C12.6636 16.6795 13 17.4647 13 18.2857V22.5C13 22.7761 13.2239 23 13.5 23H14.5C14.7762 23 15 22.7761 15 22.5V18.0714C15 16.4294 14.3271 14.8591 13.138 13.7266L12.9 13.5L13.5 10.5C14.5 11.65 15.91 12.51 17.5 12.84V22.5C17.5 22.7761 17.7239 23 18 23H18.5C18.7762 23 19 22.7761 19 22.5V9.5C19 9.22386 18.7762 9 18.5 9H18C17.7239 9 17.5 9.22386 17.5 9.5V10.78ZM7.43004 13.13L5.31004 12.72C4.77004 12.61 4.41004 12.09 4.52004 11.55L5.28004 7.62C5.49004 6.54 6.54004 5.83 7.62004 6.04L8.78004 6.27L7.43004 13.13Z" fill="black"/>
<rect x="11" y="1" width="4" height="4" rx="1.5" fill="#808080"/>
</svg>
