<svg width="24" height="24" viewBox="0 0 24 24" fill="none" xmlns="http://www.w3.org/2000/svg">
<path fill-rule="evenodd" clip-rule="evenodd" d="M5.00008 11.4142L3.70718 12.7071L2.29297 11.2929L9.87876 3.70711C11.0503 2.53553 12.9498 2.53554 14.1214 3.70711L21.7072 11.2929L20.293 12.7071L19.0001 11.4142V17C19.0001 19.2091 17.2092 21 15.0001 21H9.00008C6.79094 21 5.00008 19.2091 5.00008 17V11.4142ZM11.293 5.12132C11.6835 4.7308 12.3167 4.7308 12.7072 5.12132L17.0001 9.41421V17C17.0001 18.1046 16.1046 19 15.0001 19H9.00008C7.89551 19 7.00008 18.1046 7.00008 17V9.41421L11.293 5.12132Z" fill="black"/>
<path d="M11 14V16H13V14H15V12H13V10H11V12H9V14H11Z" fill="black"/>
</svg>
