<svg width="24" height="24" viewBox="0 0 24 24" fill="none" xmlns="http://www.w3.org/2000/svg">
<path fill-rule="evenodd" clip-rule="evenodd" d="M18.5 9C17.1193 9 16 10.1193 16 11.5V19.5C16 20.8807 17.1193 22 18.5 22H19.5C20.8807 22 22 20.8807 22 19.5V11.5C22 10.1193 20.8807 9 19.5 9H18.5ZM18 11.5C18 11.2239 18.2239 11 18.5 11H19.5C19.7761 11 20 11.2239 20 11.5V19.5C20 19.7761 19.7761 20 19.5 20H18.5C18.2239 20 18 19.7761 18 19.5V11.5Z" fill="black"/>
<path fill-rule="evenodd" clip-rule="evenodd" d="M4.5 13C3.11929 13 2 14.1193 2 15.5V19.5C2 20.8807 3.11929 22 4.5 22H5.5C6.88071 22 8 20.8807 8 19.5V15.5C8 14.1193 6.88071 13 5.5 13H4.5ZM4 15.5C4 15.2239 4.22386 15 4.5 15H5.5C5.77614 15 6 15.2239 6 15.5V19.5C6 19.7761 5.77614 20 5.5 20H4.5C4.22386 20 4 19.7761 4 19.5V15.5Z" fill="black"/>
<path fill-rule="evenodd" clip-rule="evenodd" d="M9 6.5C9 5.11929 10.1193 4 11.5 4H12.5C13.8807 4 15 5.11929 15 6.5V19.5C15 20.8807 13.8807 22 12.5 22H11.5C10.1193 22 9 20.8807 9 19.5V6.5ZM11.5 6C11.2239 6 11 6.22386 11 6.5V19.5C11 19.7761 11.2239 20 11.5 20H12.5C12.7761 20 13 19.7761 13 19.5V6.5C13 6.22386 12.7761 6 12.5 6H11.5Z" fill="#808080"/>
</svg>
