<svg width="24" height="24" viewBox="0 0 24 24" fill="none" xmlns="http://www.w3.org/2000/svg">
<path fill="black" fill-rule="evenodd" clip-rule="evenodd" d="M15.1234 7.77949C13.2973 6.31862 10.7026 6.31862 8.87647 7.77949L4.08878 11.6097C3.83857 11.8098 3.83857 12.1904 4.08878 12.3905L8.87648 16.2207C10.7026 17.6816 13.2973 17.6816 15.1234 16.2207L19.9111 12.3905C20.1613 12.1904 20.1613 11.8098 19.9111 11.6097L15.1234 7.77949ZM7.62708 6.21776C10.1836 4.17253 13.8163 4.17253 16.3728 6.21776L21.1605 10.0479C22.4115 11.0487 22.4115 12.9514 21.1605 13.9523L16.3728 17.7824C13.8163 19.8276 10.1836 19.8276 7.62709 17.7824L2.83939 13.9523C1.58837 12.9514 1.58837 11.0487 2.83939 10.0479L7.62708 6.21776Z"/>
<path fill="black" fill-rule="evenodd" clip-rule="evenodd" d="M12 16C9.79086 16 8 14.2091 8 12C8 9.79086 9.79086 8 12 8C14.2091 8 16 9.79086 16 12C16 14.2091 14.2091 16 12 16ZM10 12C10 13.1046 10.8954 14 12 14C13.1046 14 14 13.1046 14 12C14 10.8954 13.1046 10 12 10C10.8954 10 10 10.8954 10 12Z"/>
</svg>
