<svg width="24" height="24" viewBox="0 0 24 24" fill="none" xmlns="http://www.w3.org/2000/svg">
<path fill-rule="evenodd" clip-rule="evenodd" d="M11 3.5V2H13V3.5C13 3.77614 13.2239 4 13.5 4C14.8807 4 16 5.11929 16 6.5C16 7.88071 14.8807 9 13.5 9H6.5C6.22386 9 6 9.22386 6 9.5V10.5C6 10.7761 6.22386 11 6.5 11H12V13H6.5C5.11929 13 4 11.8807 4 10.5V9.5C4 8.11929 5.11929 7 6.5 7H13.5C13.7761 7 14 6.77614 14 6.5C14 6.22386 13.7761 6 13.5 6C12.1193 6 11 4.88071 11 3.5Z" fill="#808080"/>
<path fill-rule="evenodd" clip-rule="evenodd" d="M17.5 13H12V11H17.5C18.8807 11 20 12.1193 20 13.5V14.5C20 15.8807 18.8807 17 17.5 17H7.5C7.22386 17 7 17.2239 7 17.5C7 17.7761 7.22386 18 7.5 18H10.5C11.8807 18 13 19.1193 13 20.5V22H11V20.5C11 20.2239 10.7761 20 10.5 20H7.5C6.11929 20 5 18.8807 5 17.5C5 16.1193 6.11929 15 7.5 15H17.5C17.7761 15 18 14.7761 18 14.5V13.5C18 13.2239 17.7761 13 17.5 13Z" fill="black"/>
</svg>
