<svg width="24" height="24" viewBox="0 0 24 24" fill="none" xmlns="http://www.w3.org/2000/svg">
<path fill="black" fill-rule="evenodd" clip-rule="evenodd" d="M8 12C6.89543 12 6 12.8954 6 14V15H4V14C4 11.7909 5.79086 10 8 10H16C18.2091 10 20 11.7909 20 14V15H18V14C18 12.8954 17.1046 12 16 12H8Z"/>
<path fill="black" d="M4 10C4 8.34315 5.34315 7 7 7H17C18.6569 7 20 8.34315 20 10H22C22 7.23858 19.7614 5 17 5H7C4.23858 5 2 7.23858 2 10H4Z"/>
<path fill="black" d="M9 19C9 17.8954 9.89543 17 11 17H13C14.1046 17 15 17.8954 15 19H17C17 16.7909 15.2091 15 13 15H11C8.79086 15 7 16.7909 7 19H9Z"/>
</svg>
