<svg width="24" height="24" viewBox="0 0 24 24" fill="none" xmlns="http://www.w3.org/2000/svg">
<path fill="black" fill-rule="evenodd" clip-rule="evenodd" d="M3 9L21 9V11H3V9Z"/>
<path fill="black" d="M6.5 13C6.22386 13 6 13.2239 6 13.5V14.5C6 14.7761 6.22386 15 6.5 15H7.5C7.77614 15 8 14.7761 8 14.5V13.5C8 13.2239 7.77614 13 7.5 13H6.5Z"/>
<path fill="black" d="M11 13.5C11 13.2239 11.2239 13 11.5 13H12.5C12.7761 13 13 13.2239 13 13.5V14.5C13 14.7761 12.7761 15 12.5 15H11.5C11.2239 15 11 14.7761 11 14.5V13.5Z"/>
<path fill="black" d="M16.5 13C16.2239 13 16 13.2239 16 13.5V14.5C16 14.7761 16.2239 15 16.5 15H17.5C17.7761 15 18 14.7761 18 14.5V13.5C18 13.2239 17.7761 13 17.5 13H16.5Z"/>
<path fill="black" fill-rule="evenodd" clip-rule="evenodd" d="M6 5H7V3H9V5H15V3H17V5H18C20.2091 5 22 6.79086 22 9V17C22 19.2091 20.2091 21 18 21H6C3.79086 21 2 19.2091 2 17V9C2 6.79086 3.79086 5 6 5ZM6 7C4.89543 7 4 7.89543 4 9V17C4 18.1046 4.89543 19 6 19H18C19.1046 19 20 18.1046 20 17V9C20 7.89543 19.1046 7 18 7H6Z"/>
</svg>
