<svg width="24" height="24" viewBox="0 0 24 24" fill="none" xmlns="http://www.w3.org/2000/svg">
<path fill-rule="evenodd" clip-rule="evenodd" d="M7.58039 2.26414C8.76213 2.02779 9.94429 2.66817 10.3919 3.78712L11.5111 6.58508C11.9129 7.58958 11.6774 8.73687 10.9124 9.50187C10.6372 9.77699 10.6372 10.2231 10.9124 10.4982L13.203 12.7888C13.6432 13.229 14.3568 13.229 14.797 12.7888C15.3807 12.2051 16.2561 12.0254 17.0225 12.332L20.2129 13.6082C21.3319 14.0557 21.9722 15.2379 21.7359 16.4196L21.4629 17.7845C21.089 19.6542 19.4473 21 17.5406 21H15.2426C14.1818 21 13.1644 20.5786 12.4142 19.8285L4.17157 11.5858C3.42143 10.8357 3 9.81825 3 8.75738V6.45943C3 4.55271 4.34584 2.91105 6.21554 2.53711L7.58039 2.26414ZM8.53492 4.5299C8.4454 4.30611 8.20897 4.17803 7.97262 4.2253L6.60777 4.49827C5.67292 4.68524 5 5.50607 5 6.45943V8.75738C5 9.28782 5.21071 9.79652 5.58579 10.1716L13.8284 18.4142C14.2035 18.7893 14.7122 19 15.2426 19H17.5406C18.494 19 19.3148 18.3271 19.5018 17.3923L19.7747 16.0274C19.822 15.7911 19.6939 15.5546 19.4701 15.4651L16.2798 14.189C16.2561 14.1795 16.2292 14.1851 16.2112 14.203C14.99 15.4242 13.01 15.4242 11.7888 14.203L9.49815 11.9124C8.44198 10.8562 8.44198 9.14383 9.49815 8.08766C9.69743 7.88838 9.75877 7.58953 9.6541 7.32787L8.53492 4.5299Z" fill="black"/>
</svg>
