<svg width="24" height="24" viewBox="0 0 24 24" fill="none" xmlns="http://www.w3.org/2000/svg">
<path fill="black" fill-rule="evenodd" clip-rule="evenodd" d="M18 15H6V13H18V15Z"/>
<path fill="black" fill-rule="evenodd" clip-rule="evenodd" d="M16 3V5H15V7.21988C15 8.03351 15.5628 8.85822 16.474 9.61621C18.0158 10.8987 19 12.8348 19 15C19 18.866 15.866 22 12 22C8.13401 22 5 18.866 5 15C5 12.8348 5.98421 10.8987 7.52597 9.61621C8.43723 8.85822 9 8.0335 9 7.21988V5H8V3H16ZM11 5V7.21988C11 8.94916 9.84867 10.2856 8.80495 11.1538C7.70043 12.0726 7 13.454 7 15C7 17.7614 9.23858 20 12 20C14.7614 20 17 17.7614 17 15C17 13.454 16.2996 12.0726 15.1951 11.1538C14.1513 10.2856 13 8.94917 13 7.21988V5H11Z"/>
</svg>
