<svg width="24" height="24" viewBox="0 0 24 24" fill="none" xmlns="http://www.w3.org/2000/svg">
<path fill-rule="evenodd" clip-rule="evenodd" d="M8 4.5C8 3.11929 9.11929 2 10.5 2H13.5C14.8807 2 16 3.11929 16 4.5V7.5C16 7.77614 16.2239 8 16.5 8H19.5C20.8807 8 22 9.11929 22 10.5V13.5C22 14.8807 20.8807 16 19.5 16H16.5C16.2239 16 16 16.2239 16 16.5V19.5C16 20.8807 14.8807 22 13.5 22H10.5C9.11929 22 8 20.8807 8 19.5V16.5C8 16.2239 7.77614 16 7.5 16H4.5C3.11929 16 2 14.8807 2 13.5V10.5C2 9.11929 3.11929 8 4.5 8H7.5C7.77614 8 8 7.77614 8 7.5V4.5ZM10.5 4C10.2239 4 10 4.22386 10 4.5V7.5C10 8.88071 8.88071 10 7.5 10H4.5C4.22386 10 4 10.2239 4 10.5V13.5C4 13.7761 4.22386 14 4.5 14H7.5C8.88071 14 10 15.1193 10 16.5V19.5C10 19.7761 10.2239 20 10.5 20H13.5C13.7761 20 14 19.7761 14 19.5V16.5C14 15.1193 15.1193 14 16.5 14H19.5C19.7761 14 20 13.7761 20 13.5V10.5C20 10.2239 19.7761 10 19.5 10H16.5C15.1193 10 14 8.88071 14 7.5V4.5C14 4.22386 13.7761 4 13.5 4H10.5Z" fill="black"/>
</svg>
