<svg width="24" height="24" viewBox="0 0 24 24" fill="none" xmlns="http://www.w3.org/2000/svg">
<path fill-rule="evenodd" clip-rule="evenodd" d="M2 6C2 3.79086 3.79086 2 6 2H18C20.2091 2 22 3.79086 22 6V18C22 20.2091 20.2091 22 18 22H6C3.79086 22 2 20.2091 2 18V6ZM6 4C4.89543 4 4 4.89543 4 6V18C4 19.1046 4.89543 20 6 20H18C19.1046 20 20 19.1046 20 18V6C20 4.89543 19.1046 4 18 4H6Z" fill="black"/>
<path d="M15.293 7.29285L13.0607 9.52509C12.4749 10.1109 11.5252 10.1109 10.9394 9.52509L8.70718 7.29287L7.29297 8.70708L9.52519 10.9393C10.892 12.3061 13.1081 12.3061 14.4749 10.9393L16.7072 8.70706L15.293 7.29285Z" fill="black"/>
<path d="M8.70718 16.7071L10.9394 14.4748C11.5252 13.889 12.475 13.889 13.0607 14.4748L15.293 16.7071L16.7072 15.2928L14.475 13.0606C13.1081 11.6938 10.892 11.6938 9.52521 13.0606L7.29297 15.2928L8.70718 16.7071Z" fill="black"/>
</svg>
