<svg width="24" height="24" viewBox="0 0 24 24" fill="none" xmlns="http://www.w3.org/2000/svg">
<path fill="black" d="M13 9H11V13H13V9Z"/>
<path fill="black" fill-rule="evenodd" clip-rule="evenodd" d="M7 3C4.79086 3 3 4.79086 3 7V17C3 19.2091 4.79086 21 7 21H17C19.2091 21 21 19.2091 21 17V7C21 4.79086 19.2091 3 17 3H7ZM5 7C5 5.89543 5.89543 5 7 5H17C18.1046 5 19 5.89543 19 7V17C19 18.1046 18.1046 19 17 19H7C5.89543 19 5 18.1046 5 17V7Z"/>
<path fill="black" fill-rule="evenodd" clip-rule="evenodd" d="M6 7.5C6 6.67157 6.67157 6 7.5 6H16.5C17.3284 6 18 6.67157 18 7.5V11.5C18 12.3284 17.3284 13 16.5 13H7.5C6.67157 13 6 12.3284 6 11.5V7.5ZM8 8V11H16V8H8Z"/>
</svg>
