<svg width="24" height="24" viewBox="0 0 24 24" fill="none" xmlns="http://www.w3.org/2000/svg">
<path fill-rule="evenodd" clip-rule="evenodd" d="M7 14.5C7 15.8807 8.11929 17 9.5 17H14.5C15.8807 17 17 15.8807 17 14.5V13H15V14.5C15 14.7761 14.7761 15 14.5 15H9.5C9.22386 15 9 14.7761 9 14.5V13H7V14.5Z" fill="#808080"/>
<path d="M9.35355 9.76777C9.15829 9.5725 8.84171 9.5725 8.64645 9.76777L7.70711 10.7071L6.29289 9.29289L7.23223 8.35355C8.20854 7.37724 9.79146 7.37724 10.7678 8.35355L11.7071 9.29289L10.2929 10.7071L9.35355 9.76777Z" fill="black"/>
<path d="M14.6464 9.76777C14.8417 9.5725 15.1583 9.5725 15.3536 9.76777L16.2929 10.7071L17.7071 9.29289L16.7678 8.35355C15.7915 7.37724 14.2085 7.37724 13.2322 8.35355L12.2929 9.29289L13.7071 10.7071L14.6464 9.76777Z" fill="black"/>
<path fill-rule="evenodd" clip-rule="evenodd" d="M3 7C3 4.79086 4.79086 3 7 3H17C19.2091 3 21 4.79086 21 7V17C21 19.2091 19.2091 21 17 21H7C4.79086 21 3 19.2091 3 17V7ZM7 5C5.89543 5 5 5.89543 5 7V17C5 18.1046 5.89543 19 7 19H17C18.1046 19 19 18.1046 19 17V7C19 5.89543 18.1046 5 17 5H7Z" fill="black"/>
</svg>
