<svg width="24" height="24" viewBox="0 0 24 24" fill="none" xmlns="http://www.w3.org/2000/svg">
<path fill="black" fill-rule="evenodd" clip-rule="evenodd" d="M19.5 13H13V11H19.5C20.8807 11 22 12.1193 22 13.5V16H20V13.5C20 13.2239 19.7761 13 19.5 13Z"/>
<path fill="black" fill-rule="evenodd" clip-rule="evenodd" d="M16.5 13H10V11H16.5C17.8807 11 19 12.1193 19 13.5V16H17V13.5C17 13.2239 16.7761 13 16.5 13Z"/>
<path fill="black" d="M6.5 11C6.22386 11 6 11.2239 6 11.5V12.5C6 12.7761 6.22386 13 6.5 13H7.5C7.77614 13 8 12.7761 8 12.5V11.5C8 11.2239 7.77614 11 7.5 11H6.5Z"/>
<path fill="black" fill-rule="evenodd" clip-rule="evenodd" d="M2 11C2 8.79086 3.79086 7 6 7H8C10.2091 7 12 8.79086 12 11H13.5C14.8807 11 16 12.1193 16 13.5V16H14V13.5C14 13.2239 13.7761 13 13.5 13H12C12 15.2091 10.2091 17 8 17H6C3.79086 17 2 15.2091 2 13V11ZM6 9C4.89543 9 4 9.89543 4 11V13C4 14.1046 4.89543 15 6 15H8C9.10457 15 10 14.1046 10 13V11C10 9.89543 9.10457 9 8 9H6Z"/>
</svg>
