<svg width="24" height="24" viewBox="0 0 24 24" fill="none" xmlns="http://www.w3.org/2000/svg">
<path fill-rule="evenodd" clip-rule="evenodd" d="M11 4H9V2H7V4.12602C5.59439 4.4878 4.4878 5.59439 4.12602 7H2V9H4V11H2V13H4V15H2V17H4.12602C4.4878 18.4056 5.59439 19.5122 7 19.874V22H9V20H11V22H13V20H15V22H17V19.874C18.4056 19.5122 19.5122 18.4056 19.874 17H22V15H20V13H22V11H20V9L22 9V7L19.874 7C19.5122 5.59439 18.4056 4.4878 17 4.12602V2H15V4H13V2H11V4ZM8 6C6.89543 6 6 6.89543 6 8V16C6 17.1046 6.89543 18 8 18H16C17.1046 18 18 17.1046 18 16V8C18 6.89543 17.1046 6 16 6H8Z" fill="black"/>
<path fill-rule="evenodd" clip-rule="evenodd" d="M10 10V14H14V10H10ZM8 9.5C8 8.67157 8.67157 8 9.5 8H14.5C15.3284 8 16 8.67157 16 9.5V14.5C16 15.3284 15.3284 16 14.5 16H9.5C8.67157 16 8 15.3284 8 14.5V9.5Z" fill="#808080"/>
</svg>
