<svg width="24" height="24" viewBox="0 0 24 24" fill="none" xmlns="http://www.w3.org/2000/svg">
<path fill-rule="evenodd" clip-rule="evenodd" d="M14.293 15.7071L7.29297 8.70711L8.70718 7.29289L15.7072 14.2929L14.293 15.7071Z" fill="#808080"/>
<path fill-rule="evenodd" clip-rule="evenodd" d="M11.6466 3.23236C12.6229 4.20867 12.6229 5.79158 11.6466 6.7679L6.76789 11.6466C5.79158 12.6229 4.20866 12.6229 3.23235 11.6466L2.35357 10.7678C1.37725 9.79147 1.37726 8.20853 2.3536 7.23223L4.08577 5.50011L3.29277 4.70711L4.70699 3.2929L5.50001 4.08593L7.23237 2.35363C8.20869 1.37735 9.79157 1.37736 10.7679 2.35366L11.6466 3.23236ZM10.2324 5.35368C10.4276 5.15842 10.4276 4.84184 10.2324 4.64657L9.35366 3.76788C9.1584 3.57262 8.84182 3.57261 8.64656 3.76787L3.76779 8.64647C3.57252 8.84173 3.57252 9.15831 3.76778 9.35358L4.64657 10.2324C4.84183 10.4276 5.15841 10.4276 5.35367 10.2324L10.2324 5.35368Z" fill="black"/>
<path fill-rule="evenodd" clip-rule="evenodd" d="M18.5001 19.9144L19.2928 20.7071L20.707 19.2929L19.9143 18.5002L21.6466 16.7679C22.6229 15.7916 22.6229 14.2087 21.6466 13.2324L20.7679 12.3537C19.7916 11.3774 18.2087 11.3773 17.2324 12.3536L12.3536 17.2322C11.3773 18.2085 11.3772 19.7915 12.3536 20.7678L13.2324 21.6466C14.2087 22.6229 15.7916 22.6229 16.7679 21.6466L18.5001 19.9144ZM20.2324 14.6466C20.4276 14.8418 20.4276 15.1584 20.2324 15.3537L15.3537 20.2324C15.1584 20.4276 14.8418 20.4276 14.6466 20.2324L13.7678 19.3536C13.5725 19.1583 13.5725 18.8417 13.7678 18.6465L18.6466 13.7679C18.8418 13.5726 19.1584 13.5726 19.3537 13.7679L20.2324 14.6466Z" fill="black"/>
</svg>
