<svg width="24" height="24" viewBox="0 0 24 24" fill="none" xmlns="http://www.w3.org/2000/svg">
<path fill-rule="evenodd" clip-rule="evenodd" d="M5 6.5C5 5.11929 6.11929 4 7.5 4H8.5C9.88071 4 11 5.11929 11 6.5V17.5C11 18.8807 9.88071 20 8.5 20H7.5C6.11929 20 5 18.8807 5 17.5V6.5ZM7.5 6C7.22386 6 7 6.22386 7 6.5V17.5C7 17.7761 7.22386 18 7.5 18H8.5C8.77614 18 9 17.7761 9 17.5V6.5C9 6.22386 8.77614 6 8.5 6H7.5Z" fill="#808080"/>
<path fill-rule="evenodd" clip-rule="evenodd" d="M13 6.5C13 5.11929 14.1193 4 15.5 4H16.5C17.8807 4 19 5.11929 19 6.5V17.5C19 18.8807 17.8807 20 16.5 20H15.5C14.1193 20 13 18.8807 13 17.5V6.5ZM15.5 6C15.2239 6 15 6.22386 15 6.5V17.5C15 17.7761 15.2239 18 15.5 18H16.5C16.7761 18 17 17.7761 17 17.5V6.5C17 6.22386 16.7761 6 16.5 6H15.5Z" fill="black"/>
</svg>
