<svg width="24" height="24" viewBox="0 0 24 24" fill="none" xmlns="http://www.w3.org/2000/svg">
<path d="M7.76784 17.6465L11.7072 13.7072L10.293 12.293L6.35363 16.2323C6.15837 16.4276 5.84178 16.4276 5.64652 16.2323L3.70718 14.293L2.29297 15.7072L4.23231 17.6465C5.20862 18.6228 6.79153 18.6228 7.76784 17.6465Z" fill="black"/>
<path d="M13.0001 17.0001H22.0001V15.0001H13.0001V17.0001Z" fill="black"/>
<path d="M7.76784 9.64652L11.7072 5.70718L10.293 4.29297L6.35363 8.23231C6.15837 8.42757 5.84178 8.42757 5.64652 8.23231L3.70718 6.29297L2.29297 7.70718L4.23231 9.64652C5.20862 10.6228 6.79153 10.6228 7.76784 9.64652Z" fill="#808080"/>
<path d="M13.0001 9.00008H22.0001V7.00008H13.0001V9.00008Z" fill="#808080"/>
</svg>
