<svg width="24" height="24" viewBox="0 0 24 24" fill="none" xmlns="http://www.w3.org/2000/svg">
<path fill-rule="evenodd" clip-rule="evenodd" d="M7 5C5.89543 5 5 5.89543 5 7V17C5 18.1046 5.89543 19 7 19H17C18.1046 19 19 18.1046 19 17V11.4667H21V17C21 19.2091 19.2091 21 17 21H7C4.79086 21 3 19.2091 3 17V7C3 4.79086 4.79086 3 7 3H12.5333V5H7Z" fill="black"/>
<path fill-rule="evenodd" clip-rule="evenodd" d="M17.2322 2.35357C18.2085 1.37726 19.7915 1.37726 20.7678 2.35357L21.6464 3.23225C22.6228 4.20856 22.6228 5.79147 21.6464 6.76778L14.1464 14.2678C13.6776 14.7366 13.0417 15 12.3787 15H9V11.6213C9 10.9583 9.26339 10.3224 9.73223 9.85357L17.2322 2.35357ZM18.6464 3.76778C18.8417 3.57252 19.1583 3.57252 19.3536 3.76778L20.2322 4.64646C20.4275 4.84173 20.4275 5.15831 20.2322 5.35357L19 6.5858L17.4142 5.00002L18.6464 3.76778ZM11.1464 11.2678L16 6.41423L17.5858 8.00002L12.7322 12.8536C12.6385 12.9473 12.5113 13 12.3787 13H11V11.6213C11 11.4887 11.0527 11.3616 11.1464 11.2678Z" fill="#808080"/>
</svg>
