<svg width="24" height="24" viewBox="0 0 24 24" fill="none" xmlns="http://www.w3.org/2000/svg">
<path fill="black" d="M7 11C8.10457 11 9 10.1046 9 9H11C11 9.72857 10.8052 10.4117 10.4649 11L17 11V13L10.4649 13C10.8052 13.5883 11 14.2714 11 15H9C9 13.8954 8.10457 13 7 13V11Z"/>
<path fill="black" fill-rule="evenodd" clip-rule="evenodd" d="M2 6C2 3.79086 3.79086 2 6 2H18C20.2091 2 22 3.79086 22 6V18C22 20.2091 20.2091 22 18 22H6C3.79086 22 2 20.2091 2 18V6ZM6 4C4.89543 4 4 4.89543 4 6V18C4 19.1046 4.89543 20 6 20H18C19.1046 20 20 19.1046 20 18V6C20 4.89543 19.1046 4 18 4H6Z"/>
</svg>
