<svg width="24" height="24" viewBox="0 0 24 24" fill="none" xmlns="http://www.w3.org/2000/svg">
<path fill-rule="evenodd" clip-rule="evenodd" d="M9 10.5C9 9.11929 10.1193 8 11.5 8H12.5C13.8807 8 15 9.11929 15 10.5V17.5C15 18.8807 13.8807 20 12.5 20H11.5C10.1193 20 9 18.8807 9 17.5V10.5ZM11.5 10C11.2239 10 11 10.2239 11 10.5V17.5C11 17.7761 11.2239 18 11.5 18H12.5C12.7761 18 13 17.7761 13 17.5V10.5C13 10.2239 12.7761 10 12.5 10H11.5Z" fill="#808080"/>
<path fill-rule="evenodd" clip-rule="evenodd" d="M18 3C16.6193 3 15.5 4.11929 15.5 5.5V17.5C15.5 18.8807 16.6193 20 18 20H19C20.3807 20 21.5 18.8807 21.5 17.5V5.5C21.5 4.11929 20.3807 3 19 3H18ZM17.5 5.5C17.5 5.22386 17.7239 5 18 5H19C19.2761 5 19.5 5.22386 19.5 5.5V17.5C19.5 17.7761 19.2761 18 19 18H18C17.7239 18 17.5 17.7761 17.5 17.5V5.5Z" fill="black"/>
<path fill-rule="evenodd" clip-rule="evenodd" d="M5 11C3.61929 11 2.5 12.1193 2.5 13.5V17.5C2.5 18.8807 3.61929 20 5 20H6C7.38071 20 8.5 18.8807 8.5 17.5V13.5C8.5 12.1193 7.38071 11 6 11H5ZM4.5 13.5C4.5 13.2239 4.72386 13 5 13H6C6.27614 13 6.5 13.2239 6.5 13.5V17.5C6.5 17.7761 6.27614 18 6 18H5C4.72386 18 4.5 17.7761 4.5 17.5V13.5Z" fill="black"/>
</svg>
