<svg width="24" height="24" viewBox="0 0 24 24" fill="none" xmlns="http://www.w3.org/2000/svg">
<path d="M7 5L17 5V3H7L7 5Z" fill="black"/>
<path fill-rule="evenodd" clip-rule="evenodd" d="M9 6C6.79086 6 5 7.79086 5 10V17C5 19.2091 6.79086 21 9 21H15C17.2091 21 19 19.2091 19 17V10C19 7.79086 17.2091 6 15 6H9ZM7 10C7 8.89543 7.89543 8 9 8H15C16.1046 8 17 8.89543 17 10V17C17 18.1046 16.1046 19 15 19H9C7.89543 19 7 18.1046 7 17V10Z" fill="black"/>
<path d="M11 14V16H13V14H15V12H13V10H11V12H9V14H11Z" fill="#808080"/>
</svg>
