<svg width="24" height="24" viewBox="0 0 24 24" fill="none" xmlns="http://www.w3.org/2000/svg">
<path fill-rule="evenodd" clip-rule="evenodd" d="M3 8C3 5.79086 4.79086 4 7 4H17C19.2091 4 21 5.79086 21 8V14C21 16.2091 19.2091 18 17 18H9.24264C8.71221 18 8.2035 18.2107 7.82843 18.5858L7.26777 19.1464C5.69285 20.7214 3 19.6059 3 17.3787V8ZM7 6C5.89543 6 5 6.89543 5 8V17.3787C5 17.8241 5.53857 18.0472 5.85355 17.7322L6.41421 17.1716C7.16436 16.4214 8.18177 16 9.24264 16H17C18.1046 16 19 15.1046 19 14V8C19 6.89543 18.1046 6 17 6H7Z" fill="black"/>
<path d="M7 10L17 10V8H7V10Z" fill="#808080"/>
<path d="M7 14L12 14V12L7 12V14Z" fill="#808080"/>
</svg>
