<svg width="24" height="24" viewBox="0 0 24 24" fill="none" xmlns="http://www.w3.org/2000/svg">
<path fill-rule="evenodd" clip-rule="evenodd" d="M6 2C3.79086 2 2 3.79086 2 6V14C2 16.2091 3.79086 18 6 18H11C11 19.1046 10.1046 20 9 20H6V22H9C10.1947 22 11.2671 21.4762 12 20.6458C12.7329 21.4762 13.8053 22 15 22H18V20H15C13.8954 20 13 19.1046 13 18H18C20.2091 18 22 16.2091 22 14V6C22 3.79086 20.2091 2 18 2H6ZM4 6C4 4.89543 4.89543 4 6 4H18C19.1046 4 20 4.89543 20 6V14C20 15.1046 19.1046 16 18 16H6C4.89543 16 4 15.1046 4 14V6Z" fill="black"/>
<path d="M11 11V14H13V11H16V9H13V6H11V9H8V11H11Z" fill="#808080"/>
</svg>
