<svg width="24" height="24" viewBox="0 0 24 24" fill="none" xmlns="http://www.w3.org/2000/svg">
<path fill-rule="evenodd" clip-rule="evenodd" d="M7 13C7 10.2386 9.23858 8 12 8C14.7614 8 17 10.2386 17 13C17 15.7614 14.7614 18 12 18C9.23858 18 7 15.7614 7 13ZM12 10C10.3431 10 9 11.3431 9 13C9 14.6569 10.3431 16 12 16C13.6569 16 15 14.6569 15 13C15 11.3431 13.6569 10 12 10Z" fill="#808080"/>
<path fill-rule="evenodd" clip-rule="evenodd" d="M8.27735 4.7812C9.01921 3.6684 10.2681 3 11.6056 3H12.3944C13.7319 3 14.9808 3.6684 15.7226 4.7812L15.9415 5.1094C16.3124 5.6658 16.9368 6 17.6056 6H18C20.2091 6 22 7.79086 22 10V17C22 19.2091 20.2091 21 18 21H6C3.79086 21 2 19.2091 2 17V10C2 7.79086 3.79086 6 6 6H6.39445C7.06315 6 7.68762 5.6658 8.05855 5.1094L8.27735 4.7812ZM11.6056 5C10.9368 5 10.3124 5.3342 9.94145 5.8906L9.72265 6.2188C8.98079 7.3316 7.73186 8 6.39445 8H6C4.89543 8 4 8.89543 4 10V17C4 18.1046 4.89543 19 6 19H18C19.1046 19 20 18.1046 20 17V10C20 8.89543 19.1046 8 18 8H17.6056C16.2681 8 15.0192 7.3316 14.2774 6.2188L14.0585 5.8906C13.6876 5.3342 13.0632 5 12.3944 5H11.6056Z" fill="black"/>
</svg>
