<svg width="24" height="24" viewBox="0 0 24 24" fill="none" xmlns="http://www.w3.org/2000/svg">
<path fill-rule="evenodd" clip-rule="evenodd" d="M9 10.5C9 9.67157 9.67157 9 10.5 9H13.5C14.3284 9 15 9.67157 15 10.5V13.5C15 14.3284 14.3284 15 13.5 15H10.5C9.67157 15 9 14.3284 9 13.5V10.5ZM11 11V13H13V11H11Z" fill="black"/>
<path fill-rule="evenodd" clip-rule="evenodd" d="M3.5 9C2.67157 9 2 9.67157 2 10.5V13.5C2 14.3284 2.67157 15 3.5 15H6.5C7.32843 15 8 14.3284 8 13.5V10.5C8 9.67157 7.32843 9 6.5 9H3.5ZM4 13V11H6V13H4Z" fill="black"/>
<path fill-rule="evenodd" clip-rule="evenodd" d="M17.5 9C16.6716 9 16 9.67157 16 10.5V13.5C16 14.3284 16.6716 15 17.5 15H20.5C21.3284 15 22 14.3284 22 13.5V10.5C22 9.67157 21.3284 9 20.5 9H17.5ZM18 13V11H20V13H18Z" fill="black"/>
</svg>
