<svg width="24" height="24" viewBox="0 0 24 24" fill="none" xmlns="http://www.w3.org/2000/svg">
<path fill="black" fill-rule="evenodd" clip-rule="evenodd" d="M11.5 11C11.2239 11 11 11.2239 11 11.5V12.5C11 12.7761 11.2239 13 11.5 13H12.5C12.7761 13 13 12.7761 13 12.5V11.5C13 11.2239 12.7761 11 12.5 11H11.5ZM9 11.5C9 10.1193 10.1193 9 11.5 9H12.5C13.8807 9 15 10.1193 15 11.5V12.5C15 13.8807 13.8807 15 12.5 15H11.5C10.1193 15 9 13.8807 9 12.5V11.5Z"/>
<path fill="black" fill-rule="evenodd" clip-rule="evenodd" d="M13.5 3C13.2239 3 13 3.22386 13 3.5V5H15C15.7418 5 16.4365 5.20193 17.032 5.55382L17.7322 4.85355C17.9275 4.65829 17.9275 4.34171 17.7322 4.14645L17.2929 3.70711L18.7071 2.29289L19.1464 2.73223C19.5444 3.1302 19.7802 3.62894 19.8537 4.14632C20.3711 4.21985 20.8698 4.45559 21.2678 4.85355L21.7071 5.29289L20.2929 6.70711L19.8536 6.26777C19.6583 6.0725 19.3417 6.0725 19.1464 6.26777L18.4462 6.96803C18.7981 7.56355 19 8.25819 19 9V11H20.5C20.7761 11 21 10.7761 21 10.5V10H23V10.5C23 11.0628 22.814 11.5822 22.5002 12C22.814 12.4178 23 12.9372 23 13.5V14H21V13.5C21 13.2239 20.7761 13 20.5 13H19V15C19 15.7418 18.7981 16.4365 18.4462 17.032L19.1464 17.7322C19.3417 17.9275 19.6583 17.9275 19.8536 17.7322L20.2929 17.2929L21.7071 18.7071L21.2678 19.1464C20.8698 19.5444 20.3711 19.7802 19.8537 19.8537C19.7802 20.3711 19.5444 20.8698 19.1464 21.2678L18.7071 21.7071L17.2929 20.2929L17.7322 19.8536C17.9275 19.6583 17.9275 19.3417 17.7322 19.1464L17.032 18.4462C16.4365 18.7981 15.7418 19 15 19H13V20.5C13 20.7761 13.2239 21 13.5 21H14V23H13.5C12.9372 23 12.4178 22.814 12 22.5002C11.5822 22.814 11.0628 23 10.5 23H10V21H10.5C10.7761 21 11 20.7761 11 20.5V19H9C8.25819 19 7.56355 18.7981 6.96803 18.4462L6.26777 19.1464C6.0725 19.3417 6.0725 19.6583 6.26777 19.8536L6.70711 20.2929L5.29289 21.7071L4.85355 21.2678C4.45559 20.8698 4.21985 20.3711 4.14632 19.8537C3.62895 19.7802 3.1302 19.5444 2.73223 19.1464L2.29289 18.7071L3.70711 17.2929L4.14645 17.7322C4.34171 17.9275 4.65829 17.9275 4.85355 17.7322L5.55382 17.032C5.20193 16.4365 5 15.7418 5 15V13H3.5C3.22386 13 3 13.2239 3 13.5V14H1V13.5C1 12.9372 1.18597 12.4178 1.49982 12C1.18597 11.5822 1 11.0628 1 10.5V10H3V10.5C3 10.7761 3.22386 11 3.5 11H5V9C5 8.25819 5.20193 7.56355 5.55382 6.96803L4.85355 6.26777C4.65829 6.0725 4.34171 6.0725 4.14645 6.26777L3.70711 6.70711L2.29289 5.29289L2.73223 4.85355C3.13019 4.45559 3.62894 4.21985 4.14632 4.14632C4.21985 3.62894 4.45559 3.13019 4.85355 2.73223L5.29289 2.29289L6.70711 3.70711L6.26777 4.14645C6.0725 4.34171 6.0725 4.65829 6.26777 4.85355L6.96803 5.55382C7.56355 5.20193 8.25819 5 9 5H11V3.5C11 3.22386 10.7761 3 10.5 3H10V1H10.5C11.0628 1 11.5822 1.18597 12 1.49982C12.4178 1.18597 12.9372 1 13.5 1H14V3H13.5ZM9 7C7.89543 7 7 7.89543 7 9V15C7 16.1046 7.89543 17 9 17H15C16.1046 17 17 16.1046 17 15V9C17 7.89543 16.1046 7 15 7H9Z"/>
</svg>
