<svg width="24" height="24" viewBox="0 0 24 24" fill="none" xmlns="http://www.w3.org/2000/svg">
<path fill="black" fill-rule="evenodd" clip-rule="evenodd" d="M3 12L21 12V14H3V12Z"/>
<path fill="black" fill-rule="evenodd" clip-rule="evenodd" d="M18 8C20.2091 8 22 9.79086 22 12V18C22 20.2091 20.2091 22 18 22H6C3.79086 22 2 20.2091 2 18V12C2 9.79086 3.79086 8 6 8V7C6 4.79086 7.79086 3 10 3H14C16.2091 3 18 4.79086 18 7V8ZM8 7V8H16V7C16 5.89543 15.1046 5 14 5H10C8.89543 5 8 5.89543 8 7ZM4 12C4 10.8954 4.89543 10 6 10H18C19.1046 10 20 10.8954 20 12V18C20 19.1046 19.1046 20 18 20H6C4.89543 20 4 19.1046 4 18V12Z"/>
</svg>
