<svg width="24" height="24" viewBox="0 0 24 24" fill="none" xmlns="http://www.w3.org/2000/svg">
<path fill-rule="evenodd" clip-rule="evenodd" d="M12 13H7V11H12V13Z" fill="black"/>
<path fill-rule="evenodd" clip-rule="evenodd" d="M4.23531 6.86792C3.52209 4.72826 5.78344 2.81261 7.77674 3.86789L18.9639 9.79051C20.7376 10.7295 20.7376 13.2704 18.9639 14.2094L7.77673 20.1321C5.78343 21.1873 3.52209 19.2717 4.23531 17.132L5.89329 12.1581C5.9275 12.0555 5.9275 11.9445 5.89329 11.8419L4.23531 6.86792ZM6.84096 5.63546C6.4423 5.42441 5.99003 5.80754 6.13267 6.23547L7.79065 11.2094C7.96171 11.7226 7.96171 12.2774 7.79065 12.7905L6.13267 17.7645C5.99003 18.1924 6.4423 18.5755 6.84096 18.3645L18.0281 12.4419C18.3829 12.2541 18.3829 11.7459 18.0281 11.5581L6.84096 5.63546Z" fill="black"/>
</svg>
