<svg width="24" height="24" viewBox="0 0 24 24" fill="none" xmlns="http://www.w3.org/2000/svg">
<path d="M8 9V7H10V9H12V11H10V13H8V11H6V9H8Z" fill="#808080"/>
<path d="M6 17.5C6 16.1193 7.11929 15 8.5 15H9.5C10.8807 15 12 16.1193 12 17.5V21H10V17.5C10 17.2239 9.77614 17 9.5 17H8.5C8.22386 17 8 17.2239 8 17.5V21H6V17.5Z" fill="#808080"/>
<path fill-rule="evenodd" clip-rule="evenodd" d="M15 11.05V7C15 4.79086 13.2091 3 11 3H7C4.79086 3 3 4.79086 3 7V20H2V22L22 22V20H21V13.5C21 12.1193 19.8807 11 18.5 11H15.5C15.3288 11 15.1616 11.0172 15 11.05ZM7 5C5.89543 5 5 5.89543 5 7V20L13 20V7C13 5.89543 12.1046 5 11 5H7ZM15 13.5V20H19V13.5C19 13.2239 18.7761 13 18.5 13H15.5C15.2239 13 15 13.2239 15 13.5Z" fill="black"/>
</svg>
