<svg width="24" height="24" viewBox="0 0 24 24" fill="none" xmlns="http://www.w3.org/2000/svg">
<path d="M6.5753 18.4951C9.03737 18.9875 11.4434 17.4284 11.9999 14.98L13.1688 16.0933C13.7634 16.6595 14.0999 17.4447 14.0999 18.2657V22.48C14.0999 22.7561 14.3237 22.98 14.5999 22.98H15.5999C15.876 22.98 16.0999 22.7561 16.0999 22.48V17.2453C16.0999 16.118 15.6379 15.04 14.8216 14.2625C14.31 13.7754 14.0839 13.06 14.2224 12.3673L14.5999 10.48C15.8007 11.8656 17.5988 12.8245 19.6001 12.9627C19.8756 12.9818 20.0999 12.7561 20.0999 12.48V11.48C20.0999 11.2038 19.8754 10.9825 19.6005 10.9567C17.9217 10.799 16.5287 9.85549 15.7999 8.57998L14.7999 6.97998C14.3999 6.37998 13.7999 5.97998 13.0999 5.97998C13.029 5.97998 12.9637 5.98557 12.9013 5.9941C12.5034 6.04852 12.1093 6.16061 11.7395 6.31708L10.1517 6.98883C8.30183 7.77146 7.09988 9.58508 7.09988 11.5937V12.48C7.09988 12.7561 7.32374 12.98 7.59988 12.98H8.59988C8.87602 12.98 9.09988 12.7561 9.09988 12.48V11.5113C9.09988 10.3469 9.81469 9.302 10.8999 8.87998L9.88491 14.0183C9.56241 15.6509 7.97253 16.7091 6.3419 16.3763L4.89171 16.0804C4.62039 16.025 4.35575 16.2007 4.30144 16.4722L4.09794 17.4897C4.04378 17.7605 4.21939 18.0239 4.49017 18.078L6.5753 18.4951Z" fill="black"/>
<rect x="12" y="1" width="4" height="4" rx="1.5" fill="black"/>
</svg>
