<svg width="24" height="24" viewBox="0 0 24 24" fill="none" xmlns="http://www.w3.org/2000/svg">
<path d="M9.70718 8.29289L4.70718 3.29289L3.29297 4.70711L8.29297 9.70711L9.70718 8.29289Z" fill="#808080"/>
<path d="M20.7072 4.70711L15.7072 9.70711L14.293 8.29289L19.293 3.29289L20.7072 4.70711Z" fill="#808080"/>
<path d="M11.0001 22V16H13.0001V22H11.0001Z" fill="#808080"/>
<path d="M8 4H6C4.89543 4 4 4.89543 4 6V8H2V6C2 3.79086 3.79086 2 6 2H8V4Z" fill="black"/>
<path d="M18 4H16V2H18C20.2091 2 22 3.79086 22 6V8H20V6C20 4.89543 19.1046 4 18 4Z" fill="black"/>
<path fill-rule="evenodd" clip-rule="evenodd" d="M7 11C7 8.79086 8.79086 7 11 7H13C15.2091 7 17 8.79086 17 11V13C17 15.2091 15.2091 17 13 17H11C8.79086 17 7 15.2091 7 13V11ZM11 9C9.89543 9 9 9.89543 9 11V13C9 14.1046 9.89543 15 11 15H13C14.1046 15 15 14.1046 15 13V11C15 9.89543 14.1046 9 13 9H11Z" fill="black"/>
<path d="M8.99988 18H14.9999V20H8.99988V18Z" fill="black"/>
<path d="M5.70711 9.70711L9.70711 5.70711L8.29289 4.29289L4.29289 8.29289L5.70711 9.70711Z" fill="black"/>
</svg>
