<svg width="24" height="24" viewBox="0 0 24 24" fill="none" xmlns="http://www.w3.org/2000/svg">
<path fill-rule="evenodd" clip-rule="evenodd" d="M16.5 5C15.1193 5 14 6.11929 14 7.5V14.5C14 15.8807 15.1193 17 16.5 17H17.5C18.8807 17 20 15.8807 20 14.5V7.5C20 6.11929 18.8807 5 17.5 5H16.5ZM16 7.5C16 7.22386 16.2239 7 16.5 7H17.5C17.7761 7 18 7.22386 18 7.5V14.5C18 14.7761 17.7761 15 17.5 15H16.5C16.2239 15 16 14.7761 16 14.5V7.5Z" fill="black"/>
<path fill-rule="evenodd" clip-rule="evenodd" d="M9.5 9C8.11929 9 7 10.1193 7 11.5V14.5C7 15.8807 8.11929 17 9.5 17H10.5C11.8807 17 13 15.8807 13 14.5V11.5C13 10.1193 11.8807 9 10.5 9H9.5ZM9 11.5C9 11.2239 9.22386 11 9.5 11H10.5C10.7761 11 11 11.2239 11 11.5V14.5C11 14.7761 10.7761 15 10.5 15H9.5C9.22386 15 9 14.7761 9 14.5V11.5Z" fill="black"/>
<path fill-rule="evenodd" clip-rule="evenodd" d="M3 17V4H5V17C5 18.1046 5.89543 19 7 19H20V21H7C4.79086 21 3 19.2091 3 17Z" fill="black"/>
</svg>
