<svg width="24" height="24" viewBox="0 0 24 24" fill="none" xmlns="http://www.w3.org/2000/svg">
<path fill-rule="evenodd" clip-rule="evenodd" d="M14.5857 6.82843C15.3668 6.04738 16.6331 6.04738 17.4142 6.82843L19.1715 8.58579C19.9526 9.36684 19.9526 10.6332 19.1715 11.4142L10.5858 20L12 21.4142L20.5858 12.8284C22.1479 11.2663 22.1478 8.73367 20.5858 7.17157L18.8284 5.41421C17.2663 3.85212 14.7336 3.85212 13.1715 5.41421L10.5858 8L12 9.41421L14.5857 6.82843Z" fill="black"/>
<path fill-rule="evenodd" clip-rule="evenodd" d="M9.41425 6.82843C8.6332 6.04738 7.36687 6.04738 6.58582 6.82843L4.82846 8.58579C4.04741 9.36684 4.04741 10.6332 4.82846 11.4142L13.4142 20L12 21.4142L3.41425 12.8284C1.85215 11.2663 1.85215 8.73367 3.41425 7.17157L5.17161 5.41421C6.7337 3.85212 9.26637 3.85212 10.8285 5.41421L13.4142 8L12 9.41421L9.41425 6.82843Z" fill="#808080"/>
</svg>
