<svg width="24" height="24" viewBox="0 0 24 24" fill="none" xmlns="http://www.w3.org/2000/svg">
<path fill="black" fill-rule="evenodd" clip-rule="evenodd" d="M2 6C2 3.79086 3.79086 2 6 2H18C20.2091 2 22 3.79086 22 6V18C22 20.2091 20.2091 22 18 22H6C3.79086 22 2 20.2091 2 18V6ZM6 4C4.89543 4 4 4.89543 4 6V18C4 19.1046 4.89543 20 6 20H18C19.1046 20 20 19.1046 20 18V6C20 4.89543 19.1046 4 18 4H6Z"/>
<path fill="black" d="M10 8.5C10 8.22386 10.2239 8 10.5 8H13.5C13.7761 8 14 8.22386 14 8.5V10.5C14 10.7761 13.7761 11 13.5 11C12.1193 11 11 12.1193 11 13.5V15H13V13.5C13 13.2239 13.2239 13 13.5 13C14.8807 13 16 11.8807 16 10.5V8.5C16 7.11929 14.8807 6 13.5 6H10.5C9.11929 6 8 7.11929 8 8.5V10H10V8.5Z"/>
<path fill="black" d="M11.5 16C11.2239 16 11 16.2239 11 16.5V17.5C11 17.7761 11.2239 18 11.5 18H12.5C12.7761 18 13 17.7761 13 17.5V16.5C13 16.2239 12.7761 16 12.5 16H11.5Z"/>
</svg>
