<svg width="24" height="24" viewBox="0 0 24 24" fill="none" xmlns="http://www.w3.org/2000/svg">
<path fill-rule="evenodd" clip-rule="evenodd" d="M21.7072 16.2928L15.2678 9.85348C14.2915 8.87717 12.7086 8.87716 11.7323 9.85348L9.85363 11.7322C9.65837 11.9274 9.34178 11.9274 9.14652 11.7322L3.70718 6.29282L2.29297 7.70703L7.73231 13.1464C8.70862 14.1227 10.2915 14.1227 11.2678 13.1464L13.1465 11.2677C13.3418 11.0724 13.6584 11.0724 13.8536 11.2677L20.293 17.707L21.7072 16.2928Z" fill="black"/>
<path fill-rule="evenodd" clip-rule="evenodd" d="M19.5 16H15V18H19.5C20.8807 18 22 16.8807 22 15.5V11H20V15.5C20 15.7761 19.7761 16 19.5 16Z" fill="black"/>
</svg>
