<svg width="24" height="24" viewBox="0 0 24 24" fill="none" xmlns="http://www.w3.org/2000/svg">
<path d="M11 12V14H13V12H15V10H13V8H11V10H9V12H11Z" fill="black"/>
<path fill-rule="evenodd" clip-rule="evenodd" d="M9.5 2C8.11929 2 7 3.11929 7 4.5V6.5C7 6.77614 6.77614 7 6.5 7H4.5C3.11929 7 2 8.11929 2 9.5V14.5C2 15.8807 3.11929 17 4.5 17H7V18.5C7 18.7761 6.77614 19 6.5 19H4V21H6.5C7.88071 21 9 19.8807 9 18.5V17H11V21H13V17H15V18.5C15 19.8807 16.1193 21 17.5 21H20V19H17.5C17.2239 19 17 18.7761 17 18.5V17H19.5C20.8807 17 22 15.8807 22 14.5V9.5C22 8.11929 20.8807 7 19.5 7H17.5C17.2239 7 17 6.77614 17 6.5V4.5C17 3.11929 15.8807 2 14.5 2H9.5ZM9 4.5C9 4.22386 9.22386 4 9.5 4H14.5C14.7761 4 15 4.22386 15 4.5V6.5C15 7.88071 16.1193 9 17.5 9H19.5C19.7761 9 20 9.22386 20 9.5V14.5C20 14.7761 19.7761 15 19.5 15H4.5C4.22386 15 4 14.7761 4 14.5V9.5C4 9.22386 4.22386 9 4.5 9H6.5C7.88071 9 9 7.88071 9 6.5V4.5Z" fill="black"/>
</svg>
