<svg width="24" height="24" viewBox="0 0 24 24" fill="none" xmlns="http://www.w3.org/2000/svg">
<path d="M8 13V15H10V13H12V11L10 11V9H8V11L6 11V13H8Z" fill="#808080"/>
<path fill-rule="evenodd" clip-rule="evenodd" d="M15.7574 5H14V4H12V5H6C3.79086 5 2 6.79086 2 9V16C2 17.8742 3.28902 19.4474 5.02889 19.8813C5.21249 21.081 6.24893 22 7.5 22H8.5C9.70948 22 10.7184 21.1411 10.95 20H13.05C13.2816 21.1411 14.2905 22 15.5 22H16.5C17.7511 22 18.7875 21.081 18.9711 19.8813C20.711 19.4474 22 17.8742 22 16V11.2426C22 10.1818 21.5786 9.16436 20.8284 8.41421L18.5858 6.17157C17.8356 5.42143 16.8182 5 15.7574 5ZM7.5 16C6.36667 16 5.40947 16.7541 5.10286 17.788C4.44879 17.4591 4 16.782 4 16V9C4 7.89543 4.89543 7 6 7H14V11.5C14 12.8807 15.1193 14 16.5 14H20V16C20 16.782 19.5512 17.4591 18.8971 17.788C18.5905 16.7541 17.6333 16 16.5 16H15.5C14.2905 16 13.2816 16.8589 13.05 18H10.95C10.7184 16.8589 9.70948 16 8.5 16H7.5ZM20 12V11.2426C20 10.7122 19.7893 10.2035 19.4142 9.82843L17.1716 7.58579C16.8541 7.26836 16.441 7.06866 16 7.01477V11.5C16 11.7761 16.2239 12 16.5 12H20ZM15.5 18C15.2239 18 15 18.2239 15 18.5V19.5C15 19.7761 15.2239 20 15.5 20H16.5C16.7761 20 17 19.7761 17 19.5V18.5C17 18.2239 16.7761 18 16.5 18H15.5ZM7 18.5C7 18.2239 7.22386 18 7.5 18H8.5C8.77614 18 9 18.2239 9 18.5V19.5C9 19.7761 8.77614 20 8.5 20H7.5C7.22386 20 7 19.7761 7 19.5V18.5Z" fill="black"/>
</svg>
