<svg width="24" height="24" viewBox="0 0 24 24" fill="none" xmlns="http://www.w3.org/2000/svg">
<path d="M7 7C7 8.10457 7.89543 9 9 9H15C16.1046 9 17 8.10457 17 7H7Z" fill="black"/>
<path d="M4 14H2V12H4L4 14Z" fill="black"/>
<path d="M22 14H20V12H22V14Z" fill="black"/>
<path d="M8 12.5C8 12.2239 8.22386 12 8.5 12H9.5C9.77614 12 10 12.2239 10 12.5V13.5C10 13.7761 9.77614 14 9.5 14H8.5C8.22386 14 8 13.7761 8 13.5V12.5Z" fill="black"/>
<path d="M14 12.5C14 12.2239 14.2239 12 14.5 12H15.5C15.7761 12 16 12.2239 16 12.5V13.5C16 13.7761 15.7761 14 15.5 14H14.5C14.2239 14 14 13.7761 14 13.5V12.5Z" fill="black"/>
<path fill-rule="evenodd" clip-rule="evenodd" d="M7 6C4.79086 6 3 7.79086 3 10V16C3 18.2091 4.79086 20 7 20H17C19.2091 20 21 18.2091 21 16V10C21 7.79086 19.2091 6 17 6H7ZM5 10C5 8.89543 5.89543 8 7 8H17C18.1046 8 19 8.89543 19 10V16C19 17.1046 18.1046 18 17 18H7C5.89543 18 5 17.1046 5 16V10Z" fill="black"/>
</svg>
