<svg width="24" height="24" viewBox="0 0 24 24" fill="none" xmlns="http://www.w3.org/2000/svg">
<path fill-rule="evenodd" clip-rule="evenodd" d="M12 5C9.79086 5 8 6.79086 8 9C8 11.2091 9.79086 13 12 13C14.2091 13 16 11.2091 16 9C16 6.79086 14.2091 5 12 5ZM10 9C10 7.89543 10.8954 7 12 7C13.1046 7 14 7.89543 14 9C14 10.1046 13.1046 11 12 11C10.8954 11 10 10.1046 10 9Z" fill="black"/>
<path d="M6 18C6 16.8954 6.89543 16 8 16H16C17.1046 16 18 16.8954 18 18V21H20V18C20 15.7909 18.2091 14 16 14H8C5.79086 14 4 15.7909 4 18V21H6V18Z" fill="black"/>
<path d="M19 4C17.8954 4 17 4.89543 17 6C17 7.10457 17.8954 8 19 8C20.1046 8 21 7.10457 21 6C21 4.89543 20.1046 4 19 4Z" fill="black"/>
<path d="M17 11H19C20.1046 11 21 11.8954 21 13V15H23V13C23 10.7909 21.2091 9 19 9H17V11Z" fill="black"/>
<path d="M5 11H7V9H5C2.79086 9 1 10.7909 1 13V14H3V13C3 11.8954 3.89543 11 5 11Z" fill="black"/>
<path d="M5 4C6.10457 4 7 4.89543 7 6C7 7.10457 6.10457 8 5 8C3.89543 8 3 7.10457 3 6C3 4.89543 3.89543 4 5 4Z" fill="black"/>
</svg>
