<svg width="24" height="24" viewBox="0 0 24 24" fill="none" xmlns="http://www.w3.org/2000/svg">
<path fill="black" fill-rule="evenodd" clip-rule="evenodd" d="M8 4.5V4H10V4.5C10 4.77614 10.2239 5 10.5 5H13.5C13.7761 5 14 4.77614 14 4.5V4H16V4.5C16 5.88071 14.8807 7 13.5 7H10.5C9.11929 7 8 5.88071 8 4.5Z"/>
<path fill="black" d="M11.5 16C11.2239 16 11 16.2239 11 16.5V17.5C11 17.7761 11.2239 18 11.5 18H12.5C12.7761 18 13 17.7761 13 17.5V16.5C13 16.2239 12.7761 16 12.5 16H11.5Z"/>
<path fill="black" fill-rule="evenodd" clip-rule="evenodd" d="M9 2C6.79086 2 5 3.79086 5 6V18C5 20.2091 6.79086 22 9 22H15C17.2091 22 19 20.2091 19 18V6C19 3.79086 17.2091 2 15 2H9ZM7 6C7 4.89543 7.89543 4 9 4H15C16.1046 4 17 4.89543 17 6V18C17 19.1046 16.1046 20 15 20H9C7.89543 20 7 19.1046 7 18V6Z"/>
</svg>
