<svg width="24" height="24" viewBox="0 0 24 24" fill="none" xmlns="http://www.w3.org/2000/svg">
<path d="M17 9V7H19V9C19 10.1947 18.4762 11.2671 17.6458 12C18.4762 12.7329 19 13.8053 19 15V17H17V15C17 13.8954 16.1046 13 15 13H8V11H15C16.1046 11 17 10.1046 17 9Z" fill="#808080"/>
<path fill-rule="evenodd" clip-rule="evenodd" d="M15 4.5C15 3.11929 16.1193 2 17.5 2H18.5C19.8807 2 21 3.11929 21 4.5V5.5C21 6.88071 19.8807 8 18.5 8H17.5C16.1193 8 15 6.88071 15 5.5V4.5ZM17.5 4C17.2239 4 17 4.22386 17 4.5V5.5C17 5.77614 17.2239 6 17.5 6H18.5C18.7761 6 19 5.77614 19 5.5V4.5C19 4.22386 18.7761 4 18.5 4H17.5Z" fill="black"/>
<path fill-rule="evenodd" clip-rule="evenodd" d="M3 11.5C3 10.1193 4.11929 9 5.5 9H6.5C7.88071 9 9 10.1193 9 11.5V12.5C9 13.8807 7.88071 15 6.5 15H5.5C4.11929 15 3 13.8807 3 12.5V11.5ZM5.5 11C5.22386 11 5 11.2239 5 11.5V12.5C5 12.7761 5.22386 13 5.5 13H6.5C6.77614 13 7 12.7761 7 12.5V11.5C7 11.2239 6.77614 11 6.5 11H5.5Z" fill="black"/>
<path fill-rule="evenodd" clip-rule="evenodd" d="M17.5 16C16.1193 16 15 17.1193 15 18.5V19.5C15 20.8807 16.1193 22 17.5 22H18.5C19.8807 22 21 20.8807 21 19.5V18.5C21 17.1193 19.8807 16 18.5 16H17.5ZM17 18.5C17 18.2239 17.2239 18 17.5 18H18.5C18.7761 18 19 18.2239 19 18.5V19.5C19 19.7761 18.7761 20 18.5 20H17.5C17.2239 20 17 19.7761 17 19.5V18.5Z" fill="black"/>
</svg>
