<svg width="24" height="24" viewBox="0 0 24 24" fill="none" xmlns="http://www.w3.org/2000/svg">
<path fill="black" fill-rule="evenodd" clip-rule="evenodd" d="M3 5H7.12602C7.57006 3.27477 9.13616 2 11 2H13C14.8638 2 16.4299 3.27477 16.874 5H21V7H19V18C19 20.2091 17.2091 22 15 22H9C6.79086 22 5 20.2091 5 18V7H3V5ZM7 7V18C7 19.1046 7.89543 20 9 20H15C16.1046 20 17 19.1046 17 18V7H7ZM14.7324 5H9.26756C9.61337 4.4022 10.2597 4 11 4H13C13.7403 4 14.3866 4.4022 14.7324 5Z"/>
<path fill="black" d="M9 9V18H11V9H9Z"/>
<path fill="black" d="M13 9V18H15V9H13Z"/>
</svg>
