<svg width="24" height="24" viewBox="0 0 24 24" fill="none" xmlns="http://www.w3.org/2000/svg">
<path fill-rule="evenodd" clip-rule="evenodd" d="M13.6385 6.08446C12.8423 4.94703 11.1577 4.94703 10.3615 6.08446L6.96616 10.935C6.3373 11.8334 6 12.9034 6 14C6 14.7879 6.15519 15.5681 6.45672 16.2961C6.75825 17.0241 7.20021 17.6855 7.75736 18.2426C8.31451 18.7998 8.97595 19.2418 9.7039 19.5433C10.4319 19.8448 11.2121 20 12 20C12.7879 20 13.5681 19.8448 14.2961 19.5433C15.0241 19.2418 15.6855 18.7998 16.2426 18.2426C16.7998 17.6855 17.2417 17.0241 17.5433 16.2961C17.8448 15.5681 18 14.7879 18 14C18 12.9034 17.6627 11.8334 17.0338 10.935L13.6385 6.08446ZM8.72307 4.93754C10.3155 2.66267 13.6845 2.66266 15.2769 4.93753L18.6723 9.78807C19.5365 11.0226 20 12.4931 20 14C20 15.0506 19.7931 16.0909 19.391 17.0615C18.989 18.0321 18.3997 18.914 17.6569 19.6569C16.914 20.3997 16.0321 20.989 15.0615 21.391C14.0909 21.7931 13.0506 22 12 22C10.9494 22 9.90914 21.7931 8.93853 21.391C7.96793 20.989 7.08601 20.3997 6.34315 19.6569C5.60028 18.914 5.011 18.0321 4.60896 17.0615C4.20693 16.0909 4 15.0506 4 14C4 12.4931 4.46352 11.0226 5.32769 9.78808L8.72307 4.93754Z" fill="black"/>
<path d="M11.5 10C11.2239 10 11 10.2239 11 10.5V11.5C11 11.7761 11.2239 12 11.5 12H12.5C12.7761 12 13 11.7761 13 11.5V10.5C13 10.2239 12.7761 10 12.5 10H11.5Z" fill="black"/>
<path d="M11.5 16C11.2239 16 11 16.2239 11 16.5V17.5C11 17.7761 11.2239 18 11.5 18H12.5C12.7761 18 13 17.7761 13 17.5V16.5C13 16.2239 12.7761 16 12.5 16H11.5Z" fill="black"/>
<path d="M8 13.5C8 13.2239 8.22386 13 8.5 13H9.5C9.77614 13 10 13.2239 10 13.5V14.5C10 14.7761 9.77614 15 9.5 15H8.5C8.22386 15 8 14.7761 8 14.5V13.5Z" fill="black"/>
<path d="M14.5 13C14.2239 13 14 13.2239 14 13.5V14.5C14 14.7761 14.2239 15 14.5 15H15.5C15.7761 15 16 14.7761 16 14.5V13.5C16 13.2239 15.7761 13 15.5 13H14.5Z" fill="black"/>
</svg>
