<svg width="24" height="24" viewBox="0 0 24 24" fill="none" xmlns="http://www.w3.org/2000/svg">
<path fill-rule="evenodd" clip-rule="evenodd" d="M15.4879 4.8004C13.8825 4.02262 12.0631 3.80376 10.319 4.17862C8.57485 4.55348 7.00606 5.50055 5.86194 6.8693C4.71782 8.23805 4.06403 9.94995 4.00446 11.7329C3.9449 13.5159 4.48299 15.2676 5.5332 16.7096C6.58342 18.1517 8.0855 19.2013 9.80072 19.6918C11.5159 20.1822 13.3459 20.0853 14.9997 19.4163C16.6535 18.7474 18.0362 17.545 18.9282 16L20.6603 17C19.5453 18.9312 17.8168 20.4343 15.7496 21.2704C13.6823 22.1066 11.3949 22.2277 9.2509 21.6147C7.10688 21.0017 5.22927 19.6896 3.9165 17.887C2.60373 16.0845 1.93112 13.8948 2.00558 11.6661C2.08003 9.43743 2.89728 7.29756 4.32742 5.58662C5.75757 3.87568 7.71856 2.69185 9.89871 2.22327C12.0789 1.7547 14.3531 2.02827 16.3599 3.0005C18.3668 3.97274 19.9911 5.58785 20.9746 7.58914L19.1797 8.47132C18.3928 6.87028 17.0934 5.57819 15.4879 4.8004Z" fill="black"/>
<path fill-rule="evenodd" clip-rule="evenodd" d="M22 2.5V7C22 8.38071 20.8807 9.5 19.5 9.5H15V7.5H19.5C19.7761 7.5 20 7.27614 20 7V2.5H22Z" fill="black"/>
</svg>
