<svg width="24" height="24" viewBox="0 0 24 24" fill="none" xmlns="http://www.w3.org/2000/svg">
<path fill="black" fill-rule="evenodd" clip-rule="evenodd" d="M11.5 15C11.2239 15 11 15.2239 11 15.5L11 20L9 20L9 15.5C9 14.1193 10.1193 13 11.5 13L12.5 13C13.8807 13 15 14.1193 15 15.5L15 20L13 20L13 15.5C13 15.2239 12.7761 15 12.5 15L11.5 15Z"/>
<path fill="black" fill-rule="evenodd" clip-rule="evenodd" d="M5.00008 11.4142L3.70718 12.707L2.29297 11.2928L9.87876 3.70705C11.0503 2.53547 12.9498 2.53548 14.1214 3.70705L21.7072 11.2928L20.293 12.707L19.0001 11.4142V16.9999C19.0001 19.2091 17.2092 20.9999 15.0001 20.9999H9.00008C6.79094 20.9999 5.00008 19.2091 5.00008 16.9999V11.4142ZM11.293 5.12126C11.6835 4.73074 12.3167 4.73074 12.7072 5.12126L17.0001 9.41416V16.9999C17.0001 18.1045 16.1046 18.9999 15.0001 18.9999H9.00008C7.89551 18.9999 7.00008 18.1045 7.00008 16.9999V9.41416L11.293 5.12126Z"/>
</svg>
