<svg width="24" height="24" viewBox="0 0 24 24" fill="none" xmlns="http://www.w3.org/2000/svg">
<path fill-rule="evenodd" clip-rule="evenodd" d="M13.5 9C14.3284 9 15 9.67157 15 10.5L15 13.5C15 14.3284 14.3284 15 13.5 15L10.5 15C9.67157 15 9 14.3284 9 13.5L9 10.5C9 9.67157 9.67157 9 10.5 9L13.5 9ZM13 11L11 11L11 13L13 13L13 11Z" fill="#808080"/>
<path fill-rule="evenodd" clip-rule="evenodd" d="M15 3.5C15 2.67157 14.3284 2 13.5 2H10.5C9.67157 2 9 2.67157 9 3.5V6.5C9 7.32843 9.67157 8 10.5 8H13.5C14.3284 8 15 7.32843 15 6.5V3.5ZM11 4H13L13 6H11L11 4Z" fill="black"/>
<path fill-rule="evenodd" clip-rule="evenodd" d="M15 17.5C15 16.6716 14.3284 16 13.5 16H10.5C9.67157 16 9 16.6716 9 17.5V20.5C9 21.3284 9.67157 22 10.5 22H13.5C14.3284 22 15 21.3284 15 20.5V17.5ZM11 18H13L13 20H11L11 18Z" fill="black"/>
</svg>
