<svg width="24" height="24" viewBox="0 0 24 24" fill="none" xmlns="http://www.w3.org/2000/svg">
<path fill-rule="evenodd" clip-rule="evenodd" d="M4.5 4C3.11929 4 2 5.11929 2 6.5V9.5C2 10.8807 3.11929 12 4.5 12H19.5C20.8807 12 22 10.8807 22 9.5V6.5C22 5.11929 20.8807 4 19.5 4H4.5ZM4 6.5C4 6.22386 4.22386 6 4.5 6H19.5C19.7761 6 20 6.22386 20 6.5V9.5C20 9.77614 19.7761 10 19.5 10H4.5C4.22386 10 4 9.77614 4 9.5V6.5Z" fill="black"/>
<path fill-rule="evenodd" clip-rule="evenodd" d="M4.5 13C3.11929 13 2 14.1193 2 15.5V18.5C2 19.8807 3.11929 21 4.5 21H19.5C20.8807 21 22 19.8807 22 18.5V15.5C22 14.1193 20.8807 13 19.5 13H4.5ZM4 15.5C4 15.2239 4.22386 15 4.5 15H19.5C19.7761 15 20 15.2239 20 15.5V18.5C20 18.7761 19.7761 19 19.5 19H4.5C4.22386 19 4 18.7761 4 18.5V15.5Z" fill="black"/>
<path d="M14.5 7C14.2239 7 14 7.22386 14 7.5V8.5C14 8.77614 14.2239 9 14.5 9H15.5C15.7761 9 16 8.77614 16 8.5V7.5C16 7.22386 15.7761 7 15.5 7H14.5Z" fill="black"/>
<path d="M17.5 7C17.2239 7 17 7.22386 17 7.5V8.5C17 8.77614 17.2239 9 17.5 9H18.5C18.7761 9 19 8.77614 19 8.5V7.5C19 7.22386 18.7761 7 18.5 7H17.5Z" fill="black"/>
<path d="M17 16.5C17 16.2239 17.2239 16 17.5 16H18.5C18.7761 16 19 16.2239 19 16.5V17.5C19 17.7761 18.7761 18 18.5 18H17.5C17.2239 18 17 17.7761 17 17.5V16.5Z" fill="black"/>
<path d="M14.5 16C14.2239 16 14 16.2239 14 16.5V17.5C14 17.7761 14.2239 18 14.5 18H15.5C15.7761 18 16 17.7761 16 17.5V16.5C16 16.2239 15.7761 16 15.5 16H14.5Z" fill="black"/>
</svg>
