<svg width="24" height="24" viewBox="0 0 24 24" fill="none" xmlns="http://www.w3.org/2000/svg">
<path fill="black" d="M11.8333 2.5C11.9383 2.18524 12.1852 1.93825 12.5 1.83333C13.1491 1.61696 13.8509 1.61696 14.5 1.83333C14.8148 1.93825 15.0617 2.18524 15.1667 2.5C15.383 3.14911 15.383 3.85089 15.1667 4.5C15.0617 4.81476 14.8148 5.06175 14.5 5.16667C13.8509 5.38304 13.1491 5.38304 12.5 5.16667C12.1852 5.06175 11.9383 4.81476 11.8333 4.5C11.617 3.85089 11.617 3.14911 11.8333 2.5Z"/>
<path fill="black" d="M7.51482 22.243C7.32115 22.0942 7.22869 21.8484 7.27626 21.6088L9.8 8.9L9.27511 9.10412C8.65789 9.34416 8.34928 9.46417 8.17464 9.71946C8 9.97476 8 10.3059 8 10.9681V12.573C8 12.8347 7.85213 13.0739 7.61804 13.191C7.22898 13.3855 6.77102 13.3855 6.38196 13.191C6.14787 13.0739 6 12.8347 6 12.573V10.9445C6 9.66207 6 9.02088 6.33164 8.51925C6.66327 8.01762 7.25322 7.76645 8.43312 7.26412L11.05 6.15C11.2833 6.05 11.5292 5.99167 11.7875 5.975C12.0458 5.95833 12.2917 5.99167 12.525 6.075C12.7583 6.15833 12.9792 6.275 13.1875 6.425C13.3958 6.575 13.5667 6.76667 13.7 7L14.7 8.6C15.1333 9.3 15.7208 9.875 16.4625 10.325C17.0912 10.7065 17.7948 10.9263 18.5733 10.9844C18.8343 11.0038 19.0739 11.1479 19.191 11.382C19.3855 11.771 19.3855 12.229 19.191 12.618C19.0739 12.8521 18.8345 13.0027 18.5731 12.9889C17.5777 12.9366 16.6784 12.6986 15.875 12.275C14.9583 11.7917 14.175 11.175 13.525 10.425L12.9 13.5L13.7586 14.3177C14.3706 14.9006 14.6766 15.192 14.8383 15.5693C15 15.9466 15 16.3692 15 17.2143V21.7574C15 21.9127 14.9383 22.0617 14.8284 22.1716C14.3709 22.6291 13.6291 22.6291 13.1716 22.1716C13.0617 22.0617 13 21.9127 13 21.7574V17.4905C13 17.0043 13 16.7612 12.8961 16.5515C12.7922 16.3417 12.5988 16.1944 12.2121 15.8997L10.9 14.9L9.35311 21.861C9.3328 21.9524 9.29124 22.0377 9.23178 22.11C8.82379 22.6062 8.09574 22.6894 7.58635 22.298L7.51482 22.243Z"/>
</svg>
