<svg width="24" height="24" viewBox="0 0 24 24" fill="none" xmlns="http://www.w3.org/2000/svg">
<path d="M19 13H16.2361C15.6347 13 15.334 13 15.0923 13.1493C14.8507 13.2987 14.7162 13.5677 14.4472 14.1056L14.1 14.8C14.0351 14.9298 13.9298 15.0351 13.8 15.1V15.1C12.6669 15.6666 11.3331 15.6666 10.2 15.1V15.1C10.0702 15.0351 9.96491 14.9298 9.9 14.8L9.55279 14.1056C9.28383 13.5677 9.14935 13.2987 8.9077 13.1493C8.66605 13 8.36534 13 7.76393 13H5" stroke="black" stroke-width="2" stroke-linejoin="round"/>
<path d="M5.17914 12.2834L6.64949 6.40202L6.6495 6.40202C6.69147 6.23414 6.71245 6.1502 6.73802 6.07433C6.94828 5.4503 7.45225 4.96976 8.08557 4.78941C8.16258 4.76748 8.24742 4.75052 8.41711 4.71658C8.86022 4.62796 9.08178 4.58364 9.30256 4.54588C11.0879 4.24052 12.9121 4.24052 14.6974 4.54588C14.9182 4.58364 15.1398 4.62795 15.5829 4.71657L15.5829 4.71658C15.7526 4.75052 15.8374 4.76748 15.9144 4.78941C16.5478 4.96976 17.0517 5.4503 17.262 6.07433C17.2875 6.15019 17.3085 6.23413 17.3505 6.40198L17.3505 6.40202L18.8209 12.2834L18.8209 12.2834C18.9103 12.6413 18.955 12.8202 18.9775 13.0028C19 13.1854 19 13.3698 19 13.7386V17.3534C19 18.2982 18.3053 19.0992 17.3699 19.2329C13.8081 19.7417 10.1919 19.7417 6.63006 19.2329C5.69474 19.0992 5 18.2982 5 17.3534V13.7386C5 13.3698 5 13.1854 5.02248 13.0028C5.04495 12.8202 5.08968 12.6413 5.17914 12.2834Z" stroke="black" stroke-width="2" stroke-linejoin="round"/>
</svg>
