<svg width="24" height="24" viewBox="0 0 24 24" fill="none" xmlns="http://www.w3.org/2000/svg">
<path d="M12 5.41421V5.87085C12 5.99079 12 6.05076 11.9949 6.10126C11.9468 6.57345 11.5734 6.9468 11.1013 6.99486C11.0508 7 10.9908 7 10.8708 7H10.4142C9.50871 7 8.64029 6.64029 8 6C7.35971 5.35971 7 4.49129 7 3.58579V3.12915C7 3.00921 7 2.94924 7.00514 2.89874C7.0532 2.42655 7.42655 2.0532 7.89874 2.00514C7.94924 2 8.00921 2 8.12915 2H8.58579C9.49129 2 10.3597 2.35971 11 3C11.6403 3.64029 12 4.50871 12 5.41421Z" fill="#808080"/>
<path d="M6.47368 10.3158C6.80978 9.47555 7.47555 8.80978 8.31579 8.47369V8.47369C10.6808 7.52767 13.3192 7.52767 15.6842 8.47369V8.47369C16.5244 8.80978 17.1902 9.47555 17.5263 10.3158V10.3158C18.4723 12.6808 18.4723 15.3192 17.5263 17.6842V17.6842C17.1902 18.5244 16.5244 19.1902 15.6842 19.5263V19.5263C13.3192 20.4723 10.6808 20.4723 8.31579 19.5263V19.5263C7.47555 19.1902 6.80978 18.5244 6.47368 17.6842V17.6842C5.52767 15.3192 5.52767 12.6808 6.47368 10.3158V10.3158Z" stroke="black" stroke-width="2" stroke-linejoin="round"/>
<path d="M12 8V7.82843C12 6.01742 12.7194 4.28058 14 3V3" stroke="black" stroke-width="2" stroke-linejoin="round"/>
</svg>
