<svg width="24" height="24" viewBox="0 0 24 24" fill="none" xmlns="http://www.w3.org/2000/svg">
<path d="M15 15L9 9" stroke="#808080" stroke-width="2" stroke-linejoin="round"/>
<path d="M7 17L3 21" stroke="black" stroke-width="2" stroke-linejoin="round"/>
<path d="M12 2L13.541 3.54101C13.77 3.77001 13.8845 3.88451 13.9788 4.0153C14.073 4.14609 14.1455 4.29092 14.2903 4.58058L14.8074 5.61486C15.3985 6.79696 15.694 7.38801 16.153 7.847C16.612 8.30599 17.203 8.60152 18.3851 9.19257L19.4194 9.70971C19.7091 9.85454 19.8539 9.92696 19.9847 10.0212C20.1155 10.1155 20.23 10.23 20.459 10.459L22 12" stroke="black" stroke-width="2" stroke-linejoin="round"/>
<path d="M14 4L5.71153 14.1304C5.69843 14.1464 5.69188 14.1544 5.68579 14.162C5.26508 14.6865 5.13611 15.3873 5.34252 16.0273C5.34551 16.0365 5.34878 16.0463 5.35532 16.066V16.066C5.36725 16.1017 5.37321 16.1196 5.37903 16.1366C5.77967 17.3036 6.69645 18.2203 7.86342 18.621C7.88037 18.6268 7.89825 18.6328 7.93403 18.6447V18.6447C7.95365 18.6512 7.96346 18.6545 7.97273 18.6575C8.61267 18.8639 9.3135 18.7349 9.83804 18.3142C9.84563 18.3081 9.85363 18.3016 9.86965 18.2885L20 10" stroke="black" stroke-width="2" stroke-linejoin="round"/>
</svg>
