<svg width="24" height="24" viewBox="0 0 24 24" fill="none" xmlns="http://www.w3.org/2000/svg">
<path d="M2 12H22" stroke="black" stroke-width="2" stroke-linejoin="round"/>
<path d="M10 12V14.618C10 14.8521 10.1323 15.0661 10.3416 15.1708V15.1708C11.3856 15.6928 12.6144 15.6928 13.6584 15.1708V15.1708C13.8677 15.0661 14 14.8521 14 14.618V12" stroke="black" stroke-width="2" stroke-linejoin="round"/>
<path d="M2.52424 10.8545C2.8057 9.16579 4.17464 7.86948 5.87622 7.68042L6.25726 7.63808C10.074 7.214 13.926 7.214 17.7427 7.63808L18.1238 7.68042C19.8254 7.86948 21.1943 9.16579 21.4758 10.8545V10.8545C21.8229 12.9372 21.8229 15.0628 21.4758 17.1455V17.1455C21.1943 18.8342 19.8254 20.1305 18.1238 20.3196L17.7427 20.3619C13.926 20.786 10.074 20.786 6.25725 20.3619L5.87621 20.3196C4.17464 20.1305 2.8057 18.8342 2.52424 17.1455V17.1455C2.17714 15.0628 2.17714 12.9372 2.52424 10.8545V10.8545Z" stroke="black" stroke-width="2" stroke-linejoin="round"/>
<path d="M16 8V5.80776C16 4.74533 15.2769 3.81923 14.2462 3.56155V3.56155C12.7714 3.19286 11.2286 3.19286 9.75379 3.56155V3.56155C8.72307 3.81923 8 4.74533 8 5.80776V8" stroke="black" stroke-width="2" stroke-linejoin="round"/>
</svg>
