<svg width="24" height="24" viewBox="0 0 24 24" fill="none" xmlns="http://www.w3.org/2000/svg">
<path fill="black" d="M8.85255 6.22998C10.1242 4.11697 10.76 3.06047 11.6655 2.90688C11.8869 2.86933 12.1131 2.86933 12.3345 2.90688C13.24 3.06047 13.8758 4.11697 15.1474 6.22998V6.22998C15.5075 6.82829 15.6875 7.12744 15.9478 7.34387C16.0149 7.39967 16.0856 7.45102 16.1594 7.49759C16.4456 7.67821 16.7858 7.75699 17.4661 7.91455V7.91455C19.8686 8.47098 21.0699 8.7492 21.4958 9.56297C21.5999 9.76192 21.6698 9.97698 21.7025 10.1991C21.8362 11.1078 21.0279 12.039 19.4113 13.9014V13.9014C18.9535 14.4287 18.7247 14.6923 18.5992 15.0067C18.5669 15.0878 18.5399 15.1709 18.5184 15.2555C18.4351 15.5835 18.4653 15.9314 18.5257 16.627V16.627C18.7389 19.0839 18.8455 20.3124 18.2032 20.9689C18.0461 21.1294 17.8632 21.2623 17.662 21.3621C16.8391 21.7701 15.7037 21.2891 13.433 20.3271V20.3271C12.79 20.0547 12.4685 19.9185 12.1308 19.8964C12.0437 19.8907 11.9563 19.8907 11.8692 19.8964C11.5315 19.9185 11.21 20.0547 10.567 20.3271V20.3271C8.29626 21.2891 7.16088 21.7701 6.33798 21.3621C6.13681 21.2623 5.95387 21.1294 5.79683 20.9689C5.1545 20.3124 5.26112 19.0839 5.47434 16.627V16.627C5.53472 15.9314 5.56491 15.5835 5.48158 15.2555C5.4601 15.1709 5.4331 15.0878 5.40077 15.0067C5.27535 14.6923 5.04647 14.4287 4.58871 13.9014V13.9014C2.97208 12.039 2.16376 11.1078 2.29752 10.1991C2.33022 9.97698 2.40009 9.76192 2.50422 9.56297C2.93013 8.7492 4.1314 8.47098 6.53394 7.91455V7.91455C7.21423 7.75699 7.55438 7.67821 7.84063 7.49759C7.91444 7.45102 7.98511 7.39967 8.05221 7.34387C8.31245 7.12744 8.49249 6.82829 8.85255 6.22998V6.22998Z"/>
</svg>
