<svg width="24" height="24" viewBox="0 0 24 24" fill="none" xmlns="http://www.w3.org/2000/svg">
<path fill="black" d="M19 8L19 20"/>
<path fill="black" d="M12 3L12 10"/>
<path fill="black" d="M12 13L12 20"/>
<path fill="black" d="M5 3L5 16"/>
<path fill="black" d="M19.8571 4.28571C20.2618 4.42061 20.5794 4.73817 20.7143 5.14286V5.14286C20.8997 5.69924 20.8997 6.30076 20.7143 6.85714V6.85714C20.5794 7.26183 20.2618 7.57939 19.8571 7.71429V7.71429C19.3008 7.89975 18.6992 7.89975 18.1429 7.71429V7.71429C17.7382 7.57939 17.4206 7.26183 17.2857 6.85714V6.85714C17.1003 6.30076 17.1003 5.69924 17.2857 5.14286V5.14286C17.4206 4.73817 17.7382 4.42061 18.1429 4.28571V4.28571C18.6992 4.10025 19.3008 4.10025 19.8571 4.28571V4.28571Z"/>
<path fill="black" d="M12.8571 10.2857C13.2618 10.4206 13.5794 10.7382 13.7143 11.1429V11.1429C13.8997 11.6992 13.8997 12.3008 13.7143 12.8571V12.8571C13.5794 13.2618 13.2618 13.5794 12.8571 13.7143V13.7143C12.3008 13.8997 11.6992 13.8997 11.1429 13.7143V13.7143C10.7382 13.5794 10.4206 13.2618 10.2857 12.8571V12.8571C10.1003 12.3008 10.1003 11.6992 10.2857 11.1429V11.1429C10.4206 10.7382 10.7382 10.4206 11.1429 10.2857V10.2857C11.6992 10.1003 12.3008 10.1003 12.8571 10.2857V10.2857Z"/>
<path fill="black" d="M5.85714 16.2857C6.26183 16.4206 6.57939 16.7382 6.71429 17.1429V17.1429C6.89975 17.6992 6.89975 18.3008 6.71429 18.8571V18.8571C6.57939 19.2618 6.26183 19.5794 5.85714 19.7143V19.7143C5.30076 19.8997 4.69924 19.8997 4.14286 19.7143V19.7143C3.73817 19.5794 3.42061 19.2618 3.28571 18.8571V18.8571C3.10025 18.3008 3.10025 17.6992 3.28571 17.1429V17.1429C3.42061 16.7382 3.73817 16.4206 4.14286 16.2857V16.2857C4.69924 16.1003 5.30076 16.1003 5.85714 16.2857V16.2857Z"/>
</svg>
