<svg width="24" height="24" viewBox="0 0 24 24" fill="none" xmlns="http://www.w3.org/2000/svg">
<path d="M4.44 6.96C4.78827 5.74107 5.74107 4.78827 6.96 4.44V4.44C10.2541 3.49883 13.7459 3.49883 17.04 4.44V4.44C18.2589 4.78827 19.2117 5.74107 19.56 6.96V6.96C20.5012 10.2541 20.5012 13.7459 19.56 17.04V17.04C19.2117 18.2589 18.2589 19.2117 17.04 19.56V19.56C13.7459 20.5012 10.2541 20.5012 6.96 19.56V19.56C5.74107 19.2117 4.78826 18.2589 4.44 17.04V17.04C3.49883 13.7459 3.49883 10.2541 4.44 6.96V6.96Z" stroke="black" stroke-width="2" stroke-linejoin="round"/>
<path d="M6 12L17 12" stroke="#808080" stroke-width="2" stroke-linejoin="round"/>
<path d="M12 7L15.622 8.81099C15.8697 8.93485 16.0808 9.12121 16.2344 9.35165V9.35165C17.3036 10.9554 17.3036 13.0446 16.2344 14.6483V14.6483C16.0808 14.8788 15.8697 15.0651 15.622 15.189L12 17" stroke="#808080" stroke-width="2" stroke-linejoin="round"/>
</svg>
