<svg width="24" height="24" viewBox="0 0 24 24" fill="none" xmlns="http://www.w3.org/2000/svg">
<path d="M2 9H22" stroke="black" stroke-width="2" stroke-linejoin="round"/>
<path d="M2 13H22" stroke="black" stroke-width="2" stroke-linejoin="round"/>
<path d="M2.62401 7.63194C2.84535 6.08258 4.08689 4.87923 5.6424 4.7064L7.19111 4.53432C10.3872 4.1792 13.6128 4.1792 16.8089 4.53432L18.3576 4.7064C19.9131 4.87924 21.1547 6.08258 21.376 7.63194V7.63194C21.7899 10.5293 21.7899 13.4707 21.376 16.3681V16.3681C21.1547 17.9174 19.9131 19.1208 18.3576 19.2936L16.8089 19.4657C13.6128 19.8208 10.3872 19.8208 7.19111 19.4657L5.6424 19.2936C4.08688 19.1208 2.84535 17.9174 2.62401 16.3681V16.3681C2.2101 13.4707 2.2101 10.5293 2.62401 7.63194V7.63194Z" stroke="black" stroke-width="2" stroke-linejoin="round"/>
</svg>
