<svg width="24" height="24" viewBox="0 0 24 24" fill="none" xmlns="http://www.w3.org/2000/svg">
<path d="M6.23421 10H17.7658C18.5112 10 19.1815 9.54617 19.4584 8.85407C19.8061 7.98484 19.8061 7.01516 19.4584 6.14593L19.3789 5.94734C19.1445 5.36123 18.6149 4.94498 17.9899 4.85571C14.0168 4.28812 9.98319 4.28812 6.01006 4.85571C5.38515 4.94498 4.85551 5.36123 4.62106 5.94734L4.54163 6.14593C4.19393 7.01516 4.19393 7.98484 4.54163 8.85407C4.81847 9.54617 5.48879 10 6.23421 10Z" stroke="black" stroke-width="2" stroke-linejoin="round"/>
<path d="M17.7658 13H6.23421C5.48879 13 4.81847 13.4538 4.54163 14.1459C4.19393 15.0152 4.19393 15.9848 4.54163 16.8541C4.81847 17.5462 5.48879 18 6.23421 18H17.7658C18.5112 18 19.1815 17.5462 19.4584 16.8541C19.8061 15.9848 19.8061 15.0152 19.4584 14.1459C19.1815 13.4538 18.5112 13 17.7658 13Z" stroke="black" stroke-width="2" stroke-linejoin="round"/>
<path d="M18.6987 10H5.51635C5.19376 10 4.89252 10.1612 4.71358 10.4296C4.28147 11.0778 4.28147 11.9222 4.71358 12.5704C4.89252 12.8388 5.19377 13 5.51635 13H18.4836C18.8062 13 19.1075 12.8388 19.2864 12.5704C19.7185 11.9222 19.7185 11.0778 19.2864 10.4296L19.1671 10.2507C19.0627 10.0941 18.8869 10 18.6987 10Z" stroke="#808080" stroke-width="2" stroke-linejoin="round"/>
<path d="M18.6987 18H5.51635C5.19376 18 4.89252 18.1612 4.71358 18.4296C4.28147 19.0778 4.28147 19.9222 4.71358 20.5704C4.89252 20.8388 5.19377 21 5.51635 21H18.4836C18.8062 21 19.1075 20.8388 19.2864 20.5704C19.7185 19.9222 19.7185 19.0778 19.2864 18.4296L19.1671 18.2507C19.0627 18.0941 18.8869 18 18.6987 18Z" stroke="#808080" stroke-width="2" stroke-linejoin="round"/>
<path d="M22 7H19" stroke="black" stroke-width="2" stroke-linejoin="round"/>
<path d="M5 7H2" stroke="black" stroke-width="2" stroke-linejoin="round"/>
<path d="M22 16H20" stroke="black" stroke-width="2" stroke-linejoin="round"/>
<path d="M4 16H2" stroke="black" stroke-width="2" stroke-linejoin="round"/>
</svg>
