<svg width="24" height="24" viewBox="0 0 24 24" fill="none" xmlns="http://www.w3.org/2000/svg">
<path d="M3.53462 5.39614C3.8224 4.5328 4.55072 3.88986 5.44308 3.71138L5.62982 3.67404C7.85458 3.22908 10.1454 3.22908 12.3702 3.67404L12.5569 3.71138C13.4493 3.88986 14.1776 4.5328 14.4654 5.39614V5.39614C14.8124 6.43722 14.8124 7.56278 14.4654 8.60386V8.60386C14.1776 9.4672 13.4493 10.1101 12.5569 10.2886L12.3702 10.326C10.1454 10.7709 7.85458 10.7709 5.62982 10.326L5.44308 10.2886C4.55072 10.1101 3.8224 9.4672 3.53462 8.60386V8.60386C3.18759 7.56278 3.18759 6.43722 3.53462 5.39614V5.39614Z" stroke="black" stroke-width="2" stroke-linejoin="round"/>
<path d="M17.9393 4.18198C17.9782 4.06546 18.0617 3.96914 18.1716 3.91421V3.91421C18.6931 3.65346 19.3069 3.65346 19.8284 3.91421V3.91421C19.9383 3.96914 20.0218 4.06546 20.0607 4.18198L20.1605 4.48148C20.7054 6.11628 20.7054 7.88372 20.1605 9.51852L20.0607 9.81802C20.0218 9.93454 19.9383 10.0309 19.8284 10.0858V10.0858C19.3069 10.3465 18.6931 10.3465 18.1716 10.0858V10.0858C18.0617 10.0309 17.9782 9.93454 17.9393 9.81802L17.8395 9.51852C17.2946 7.88372 17.2946 6.11628 17.8395 4.48148L17.9393 4.18198Z" stroke="#808080" stroke-width="2" stroke-linejoin="round"/>
<path d="M20.4654 15.3961C20.1776 14.5328 19.4493 13.8899 18.5569 13.7114L18.3702 13.674C16.1454 13.2291 13.8546 13.2291 11.6298 13.674L11.4431 13.7114C10.5507 13.8899 9.8224 14.5328 9.53462 15.3961V15.3961C9.18759 16.4372 9.18759 17.5628 9.53462 18.6039V18.6039C9.8224 19.4672 10.5507 20.1101 11.4431 20.2886L11.6298 20.326C13.8546 20.7709 16.1454 20.7709 18.3702 20.326L18.5569 20.2886C19.4493 20.1101 20.1776 19.4672 20.4654 18.6039V18.6039C20.8124 17.5628 20.8124 16.4372 20.4654 15.3961V15.3961Z" stroke="black" stroke-width="2" stroke-linejoin="round"/>
<path d="M6.06066 14.182C6.02182 14.0655 5.93828 13.9691 5.82843 13.9142V13.9142C5.30692 13.6535 4.69308 13.6535 4.17157 13.9142V13.9142C4.06172 13.9691 3.97818 14.0655 3.93934 14.182L3.83951 14.4815C3.29457 16.1163 3.29457 17.8837 3.83951 19.5185L3.93934 19.818C3.97818 19.9345 4.06172 20.0309 4.17157 20.0858V20.0858C4.69308 20.3465 5.30692 20.3465 5.82843 20.0858V20.0858C5.93828 20.0309 6.02182 19.9345 6.06066 19.818L6.16049 19.5185C6.70543 17.8837 6.70543 16.1163 6.16049 14.4815L6.06066 14.182Z" stroke="#808080" stroke-width="2" stroke-linejoin="round"/>
</svg>
