<svg width="24" height="24" viewBox="0 0 24 24" fill="none" xmlns="http://www.w3.org/2000/svg">
<path d="M17 17H6.22076C6.07454 17 5.92928 16.9764 5.79057 16.9302V16.9302C4.97814 16.6594 4.34062 16.0219 4.06981 15.2094V15.2094C4.02357 15.0707 4 14.9255 4 14.7792V11" stroke="black" stroke-width="2" stroke-linejoin="round"/>
<path d="M14 21L16.6096 19.2603C16.8654 19.0897 17.0723 18.8553 17.2098 18.5803V18.5803C17.7073 17.5855 17.7073 16.4145 17.2098 15.4197V15.4197C17.0723 15.1447 16.8654 14.9103 16.6096 14.7397L14 13" stroke="black" stroke-width="2" stroke-linejoin="round"/>
<path d="M7 7H17.7792C17.9255 7 18.0707 7.02357 18.2094 7.06981V7.06981C19.0219 7.34062 19.6594 7.97814 19.9302 8.79057V8.79057C19.9764 8.92928 20 9.07454 20 9.22076V13" stroke="#808080" stroke-width="2" stroke-linejoin="round"/>
<path d="M10 3L7.39041 4.73973C7.13457 4.91029 6.92767 5.14466 6.79016 5.41968V5.41968C6.29274 6.41451 6.29274 7.58549 6.79016 8.58032V8.58032C6.92767 8.85534 7.13457 9.08971 7.39041 9.26027L10 11" stroke="#808080" stroke-width="2" stroke-linejoin="round"/>
</svg>
