<svg width="24" height="24" viewBox="0 0 24 24" fill="none" xmlns="http://www.w3.org/2000/svg">
<path fill="black" d="M12.8028 6H17.1224C17.5069 6 17.6991 6 17.8668 6.01414C19.5996 6.16022 21.0394 7.40901 21.4291 9.10366C21.4668 9.26768 21.494 9.45797 21.5484 9.83853L21.5484 9.83861L21.5484 9.83897C21.5959 10.171 21.6196 10.337 21.6404 10.5027C21.8491 12.161 21.8491 13.839 21.6404 15.4973C21.6196 15.663 21.5959 15.829 21.5484 16.161L21.5484 16.1614L21.4706 16.7056C21.4398 16.9211 21.4245 17.0288 21.406 17.1245C21.0876 18.7743 19.7722 20.0493 18.1132 20.316C18.017 20.3314 17.9042 20.344 17.6785 20.3691C17.3092 20.4101 17.1245 20.4306 16.9481 20.4489C13.6582 20.7899 10.3418 20.7899 7.05188 20.4489C6.87552 20.4306 6.69881 20.411 6.34541 20.3717H6.34539C6.14671 20.3496 6.04737 20.3386 5.95924 20.3248C4.26178 20.0591 2.92358 18.7391 2.63469 17.0455C2.61969 16.9576 2.6073 16.8584 2.5825 16.66L2.45934 15.6747C2.37225 14.978 2.32871 14.6297 2.29545 14.2814C2.15055 12.7639 2.15055 11.2361 2.29545 9.71861C2.32871 9.37033 2.37225 9.02198 2.45934 8.3253L2.45934 8.32529L2.53821 7.69432L2.53821 7.69431C2.56058 7.51533 2.57177 7.42583 2.58458 7.34825C2.89389 5.47529 4.47706 4.0777 6.37392 4.00309C6.4525 4 6.54269 4 6.72307 4C6.78826 4 6.82086 4 6.85282 4.00051C7.59892 4.01244 8.32682 4.23282 8.95423 4.63677C8.9811 4.65407 9.00823 4.67215 9.06247 4.70831L9.5 5C9.98782 5.32521 10.2317 5.48782 10.4915 5.61153C10.8543 5.78423 11.2409 5.90131 11.6385 5.95881C11.9233 6 12.2165 6 12.8028 6Z"/>
</svg>
