<svg width="24" height="24" viewBox="0 0 24 24" fill="none" xmlns="http://www.w3.org/2000/svg">
<path fill="black" d="M15.375 10.25C15.4561 10.0877 15.5877 9.95614 15.75 9.875C16.2221 9.63893 16.7779 9.63893 17.25 9.875C17.4123 9.95614 17.5439 10.0877 17.625 10.25C17.8611 10.7221 17.8611 11.2779 17.625 11.75C17.5439 11.9123 17.4123 12.0439 17.25 12.125C16.7779 12.3611 16.2221 12.3611 15.75 12.125C15.5877 12.0439 15.4561 11.9123 15.375 11.75C15.1389 11.2779 15.1389 10.7221 15.375 10.25Z"/>
<path fill="black" d="M6.375 10.25C6.45614 10.0877 6.58772 9.95614 6.75 9.875C7.22214 9.63893 7.77786 9.63893 8.25 9.875C8.41228 9.95614 8.54386 10.0877 8.625 10.25C8.86107 10.7221 8.86107 11.2779 8.625 11.75C8.54386 11.9123 8.41228 12.0439 8.25 12.125C7.77786 12.3611 7.22214 12.3611 6.75 12.125C6.58772 12.0439 6.45614 11.9123 6.375 11.75C6.13893 11.2779 6.13893 10.7221 6.375 10.25Z"/>
<path fill="black" d="M10.875 10.25C10.9561 10.0877 11.0877 9.95614 11.25 9.875C11.7221 9.63893 12.2779 9.63893 12.75 9.875C12.9123 9.95614 13.0439 10.0877 13.125 10.25C13.3611 10.7221 13.3611 11.2779 13.125 11.75C13.0439 11.9123 12.9123 12.0439 12.75 12.125C12.2779 12.3611 11.7221 12.3611 11.25 12.125C11.0877 12.0439 10.9561 11.9123 10.875 11.75C10.6389 11.2779 10.6389 10.7221 10.875 10.25Z"/>
<path fill="black" d="M3.52734 6.41798C3.82631 5.52108 4.51429 4.80714 5.39951 4.47518V4.47518C9.65515 2.87932 14.3449 2.87932 18.6005 4.47518V4.47518C19.4857 4.80714 20.1737 5.52108 20.4727 6.41798L20.5833 6.74983C21.5029 9.50866 21.5029 12.4913 20.5833 15.2502V15.2502C20.22 16.34 19.3251 17.1687 18.2106 17.4474L16.764 17.809C13.6271 18.5932 10.3553 18.6711 7.18479 18.037V18.037C7.06647 18.0133 6.9436 18.0376 6.8432 18.1045L4 20V17.0948C4 17.032 3.98988 16.9696 3.97003 16.9101L3.47297 15.4189C2.51685 12.5505 2.51685 9.44946 3.47297 6.5811L3.52734 6.41798Z"/>
</svg>
