<svg width="24" height="24" viewBox="0 0 24 24" fill="none" xmlns="http://www.w3.org/2000/svg">
<path d="M12 7V17" stroke="#808080" stroke-width="2" stroke-linejoin="round"/>
<path d="M17 12L7 12" stroke="#808080" stroke-width="2" stroke-linejoin="round"/>
<path d="M4.43988 6.96C4.78814 5.74107 5.74095 4.78827 6.95988 4.44V4.44C10.254 3.49883 13.7458 3.49883 17.0399 4.44V4.44C18.2588 4.78827 19.2116 5.74107 19.5599 6.96V6.96C20.501 10.2541 20.501 13.7459 19.5599 17.04V17.04C19.2116 18.2589 18.2588 19.2117 17.0399 19.56V19.56C13.7458 20.5012 10.254 20.5012 6.95988 19.56V19.56C5.74095 19.2117 4.78814 18.2589 4.43988 17.04V17.04C3.49871 13.7459 3.49871 10.2541 4.43988 6.96V6.96Z" stroke="black" stroke-width="2" stroke-linejoin="round"/>
</svg>
