<svg width="24" height="24" viewBox="0 0 24 24" fill="none" xmlns="http://www.w3.org/2000/svg">
<path d="M10 14L9.45247 12.3573C9.16418 11.4924 9.25211 10.5462 9.69486 9.7493V9.7493C10.8747 7.62558 12.6256 5.87465 14.7493 4.6948L15.3732 4.34822C15.7726 4.12631 16.2468 4.08224 16.6803 4.22673V4.22673C18.1406 4.7135 19.2864 5.85941 19.7732 7.31968V7.31968C19.9177 7.75316 19.8736 8.22738 19.6517 8.62681L17.5 12.5" stroke="black" stroke-width="2" stroke-linejoin="round"/>
<path d="M14 9.99997L14.5475 11.6427C14.8358 12.5075 14.7479 13.4537 14.3051 14.2506V14.2506C13.1253 16.3744 11.3744 18.1253 9.25068 19.3052L8.62689 19.6517C8.22745 19.8737 7.75322 19.9177 7.31973 19.7732V19.7732C5.85945 19.2865 4.71356 18.1406 4.2268 16.6803V16.6803C4.0823 16.2468 4.12637 15.7726 4.34828 15.3731L6.50002 11.5" stroke="black" stroke-width="2" stroke-linejoin="round"/>
</svg>
