<svg width="24" height="24" viewBox="0 0 24 24" fill="none" xmlns="http://www.w3.org/2000/svg">
<path d="M10.7028 3.1055C11.3221 2.57774 11.6317 2.31386 12 2.31386C12.3683 2.31386 12.6779 2.57774 13.2972 3.1055L14.5687 4.18903C14.813 4.39725 14.9352 4.50137 15.081 4.56176C15.2268 4.62216 15.3868 4.63493 15.7068 4.66046L17.3721 4.79335C18.1832 4.85808 18.5887 4.89044 18.8491 5.15087C19.1096 5.41129 19.1419 5.81683 19.2066 6.62792L19.3395 8.29316C19.3651 8.61317 19.3778 8.77317 19.4382 8.91898C19.4986 9.06479 19.6027 9.18696 19.811 9.4313L20.8945 10.7028C21.4223 11.3221 21.6861 11.6317 21.6861 12C21.6861 12.3683 21.4223 12.6779 20.8945 13.2972L19.811 14.5687C19.6027 14.813 19.4986 14.9352 19.4382 15.081C19.3778 15.2268 19.3651 15.3868 19.3395 15.7068L19.2066 17.3721C19.1419 18.1832 19.1096 18.5887 18.8491 18.8491C18.5887 19.1096 18.1832 19.1419 17.3721 19.2066L15.7068 19.3395C15.3868 19.3651 15.2268 19.3778 15.081 19.4382C14.9352 19.4986 14.813 19.6027 14.5687 19.811L13.2972 20.8945C12.6779 21.4223 12.3683 21.6861 12 21.6861C11.6317 21.6861 11.3221 21.4223 10.7028 20.8945L9.4313 19.811C9.18696 19.6027 9.06479 19.4986 8.91898 19.4382C8.77317 19.3778 8.61317 19.3651 8.29316 19.3395L6.62792 19.2066C5.81683 19.1419 5.41129 19.1096 5.15087 18.8491C4.89044 18.5887 4.85808 18.1832 4.79335 17.3721L4.66046 15.7068C4.63493 15.3868 4.62216 15.2268 4.56176 15.081C4.50137 14.9352 4.39725 14.813 4.18903 14.5687L3.1055 13.2972C2.57774 12.6779 2.31386 12.3683 2.31386 12C2.31386 11.6317 2.57774 11.3221 3.1055 10.7028L4.18903 9.4313C4.39725 9.18696 4.50137 9.06479 4.56176 8.91898C4.62216 8.77317 4.63493 8.61317 4.66046 8.29316L4.79335 6.62792C4.85808 5.81684 4.89044 5.41129 5.15087 5.15087C5.41129 4.89044 5.81684 4.85808 6.62792 4.79335L8.29316 4.66046C8.61317 4.63493 8.77317 4.62216 8.91898 4.56176C9.06479 4.50137 9.18696 4.39725 9.4313 4.18903L10.7028 3.1055Z" stroke="black" stroke-width="2" stroke-linejoin="round"/>
<path d="M7 13L7.17157 13.1716C8.50491 14.5049 9.17157 15.1716 10 15.1716C10.8284 15.1716 11.4951 14.5049 12.8284 13.1716L17 9" stroke="#808080" stroke-width="2" stroke-linejoin="round"/>
</svg>
