<svg width="24" height="24" viewBox="0 0 24 24" fill="none" xmlns="http://www.w3.org/2000/svg">
<path d="M8 2V3C8 4.86923 8 5.80385 8.40192 6.5C8.66523 6.95606 9.04394 7.33477 9.5 7.59808C10.1962 8 11.1308 8 13 8V8" stroke="black" stroke-width="2" stroke-linejoin="round"/>
<path d="M3 22V22C3 21.07 3 20.605 3.10222 20.2235C3.37962 19.1883 4.18827 18.3796 5.22354 18.1022C5.60504 18 6.07003 18 7 18V18" stroke="black" stroke-width="2" stroke-linejoin="round"/>
<path d="M9.34922 14.2169L8.03243 14.6559C7.37764 14.8741 6.85216 15.3696 6.59582 16.0104C6.20958 16.976 6.15503 18.0426 6.44074 19.0426L6.47546 19.1641C6.78594 20.2508 7.77919 21 8.90936 21H12.1974C13.3913 21 14.5774 20.8075 15.7101 20.43C18.3439 19.552 20.2654 17.2746 20.6876 14.5306L20.8419 13.528C20.9471 12.8436 21 12.1523 21 11.46V6.82357C21 5.17379 19.8542 3.74537 18.2437 3.38748L17.9291 3.31758C16.9912 3.10916 16.0162 3.13824 15.0924 3.40218C13.8539 3.75604 13 4.88804 13 6.17609V9.15175C13 10.075 13 10.5367 12.9129 10.9472C12.6796 12.0468 11.9944 12.9974 11.025 13.5665C10.6631 13.779 10.2251 13.925 9.34924 14.2169L9.34922 14.2169Z" stroke="black" stroke-width="2" stroke-linejoin="round"/>
</svg>
