<svg width="24" height="24" viewBox="0 0 24 24" fill="none" xmlns="http://www.w3.org/2000/svg">
<path d="M2 3H11.9819C11.9935 3 12.0046 3.0046 12.0128 3.01278V3.01278C12.558 3.55801 12.551 4.44896 12.0058 4.99419V4.99419C12.002 4.998 11.9975 5.00112 11.9925 5.00331L3.00746 8.99669C3.00253 8.99888 2.998 9.002 2.99419 9.00581V9.00581C2.44896 9.55104 2.44199 10.442 2.98722 10.9872V10.9872C2.9954 10.9954 3.0065 11 3.01807 11H13" stroke="black" stroke-width="2" stroke-linejoin="round"/>
<path d="M14 12H20.9087C20.9671 12 21.0232 12.0232 21.0646 12.0646V12.0646C21.5812 12.5812 21.5812 13.4188 21.0646 13.9354L21.0379 13.9621C21.013 13.987 20.9826 14.0058 20.9492 14.0169L15.0508 15.9831C15.0174 15.9942 14.987 16.013 14.9621 16.0379L14.9354 16.0646C14.4188 16.5812 14.4188 17.4188 14.9354 17.9354V17.9354C14.9768 17.9768 15.0329 18 15.0913 18H22" stroke="#808080" stroke-width="2" stroke-linejoin="round"/>
<path d="M4 15H10.9087C10.9671 15 11.0232 15.0232 11.0646 15.0646V15.0646C11.5812 15.5812 11.5812 16.4188 11.0646 16.9354L11.0379 16.9621C11.013 16.987 10.9826 17.0058 10.9492 17.0169L5.05079 18.9831C5.01739 18.9942 4.98704 19.013 4.96214 19.0379L4.93542 19.0646C4.4188 19.5812 4.4188 20.4188 4.93542 20.9354V20.9354C4.97677 20.9768 5.03285 21 5.09133 21H12" stroke="black" stroke-width="2" stroke-linejoin="round"/>
</svg>
