<svg width="24" height="24" viewBox="0 0 24 24" fill="none" xmlns="http://www.w3.org/2000/svg">
<path fill="black" d="M13 13L20 20"/>
<path fill="black" d="M3.21457 10.9285C2.43605 9.76068 2.43605 8.23932 3.21457 7.07153V7.07153C4.23301 5.54388 5.54387 4.23302 7.07152 3.21458V3.21458C8.23931 2.43605 9.76067 2.43605 10.9285 3.21458V3.21458C12.4561 4.23302 13.767 5.54388 14.7854 7.07153V7.07153C15.5639 8.23932 15.5639 9.76068 14.7854 10.9285V10.9285C13.767 12.4561 12.4561 13.767 10.9285 14.7854V14.7854C9.76067 15.5639 8.23931 15.5639 7.07152 14.7854V14.7854C5.54387 13.767 4.23301 12.4561 3.21457 10.9285V10.9285Z"/>
</svg>
