<svg width="24" height="24" viewBox="0 0 24 24" fill="none" xmlns="http://www.w3.org/2000/svg">
<path d="M17.6364 5.90909C17.5505 5.65156 17.3484 5.44948 17.0909 5.36364V5.36364C16.3828 5.1276 15.6172 5.1276 14.9091 5.36364V5.36364C14.6516 5.44948 14.4495 5.65156 14.3636 5.90909V5.90909C14.1276 6.61721 14.1276 7.38279 14.3636 8.09091V8.09091C14.4495 8.34844 14.6516 8.55052 14.9091 8.63636V8.63636C15.6172 8.8724 16.3828 8.8724 17.0909 8.63636V8.63636C17.3484 8.55052 17.5505 8.34844 17.6364 8.09091V8.09091C17.8724 7.38279 17.8724 6.61721 17.6364 5.90909V5.90909Z" stroke="black" stroke-width="2" stroke-linejoin="round"/>
<path d="M9.63636 5.90909C9.55052 5.65156 9.34844 5.44948 9.09091 5.36364V5.36364C8.38279 5.1276 7.61721 5.1276 6.90909 5.36364V5.36364C6.65156 5.44948 6.44948 5.65156 6.36364 5.90909V5.90909C6.1276 6.61721 6.1276 7.38279 6.36364 8.09091V8.09091C6.44948 8.34844 6.65156 8.55052 6.90909 8.63636V8.63636C7.61721 8.8724 8.38279 8.8724 9.09091 8.63636V8.63636C9.34844 8.55052 9.55052 8.34844 9.63636 8.09091V8.09091C9.8724 7.38279 9.8724 6.61721 9.63636 5.90909V5.90909Z" stroke="black" stroke-width="2" stroke-linejoin="round"/>
<path d="M13.6364 11.9091C13.5505 11.6516 13.3484 11.4495 13.0909 11.3636V11.3636C12.3828 11.1276 11.6172 11.1276 10.9091 11.3636V11.3636C10.6516 11.4495 10.4495 11.6516 10.3636 11.9091V11.9091C10.1276 12.6172 10.1276 13.3828 10.3636 14.0909V14.0909C10.4495 14.3484 10.6516 14.5505 10.9091 14.6364V14.6364C11.6172 14.8724 12.3828 14.8724 13.0909 14.6364V14.6364C13.3484 14.5505 13.5505 14.3484 13.6364 14.0909V14.0909C13.8724 13.3828 13.8724 12.6172 13.6364 11.9091V11.9091Z" stroke="black" stroke-width="2" stroke-linejoin="round"/>
<path d="M6 8V8C5.74686 8.08438 5.62028 8.12657 5.508 8.17171C4.07425 8.7481 3.10073 10.0988 3.00732 11.6412C3 11.762 3 11.8954 3 12.1623V14" stroke="black" stroke-width="2" stroke-linejoin="round"/>
<path d="M18 8V8C18.2531 8.08438 18.3797 8.12657 18.492 8.17171C19.9258 8.7481 20.8993 10.0988 20.9927 11.6412C21 11.762 21 11.8954 21 12.1623V14" stroke="black" stroke-width="2" stroke-linejoin="round"/>
<path d="M17 21L16.9701 20.8806C16.768 20.072 16.6669 19.6677 16.5109 19.3285C15.9693 18.151 14.8908 17.3089 13.6171 17.0691C13.2502 17 12.8335 17 12 17V17C11.1665 17 10.7498 17 10.3829 17.0691C9.10921 17.3089 8.03069 18.151 7.48909 19.3285C7.33308 19.6677 7.23201 20.072 7.02986 20.8806L7 21" stroke="black" stroke-width="2" stroke-linejoin="round"/>
</svg>
