<svg width="24" height="24" viewBox="0 0 24 24" fill="none" xmlns="http://www.w3.org/2000/svg">
<path fill="black" d="M4.4624 9.2312C4.16453 9.08227 3.93168 8.8292 3.808 8.52L3.65794 8.14486C3.23558 7.08896 3.23558 5.91104 3.65794 4.85514V4.85514C3.85617 4.35957 4.37974 4.07595 4.90313 4.18063L5.65362 4.33072C11.1645 5.43289 16.406 7.60402 21.0821 10.7214V10.7214C21.9945 11.3297 21.9945 12.6703 21.0821 13.2786V13.2786C16.406 16.396 11.1645 18.5671 5.65362 19.6693L4.90313 19.8194C4.37974 19.9241 3.85617 19.6404 3.65794 19.1449V19.1449C3.23558 18.089 3.23558 16.911 3.65794 15.8551L3.808 15.48C3.93168 15.1708 4.16453 14.9177 4.4624 14.7688L6.42229 13.7889C7.98339 13.0083 8.76393 12.618 8.76393 12C8.76393 11.382 7.98339 10.9917 6.42229 10.2111L4.4624 9.2312Z"/>
</svg>
