<svg width="24" height="24" viewBox="0 0 24 24" fill="none" xmlns="http://www.w3.org/2000/svg">
<path d="M5.15529 15.7718L5.84773 16.9835C6.02518 17.2941 6.11391 17.4493 6.21071 17.5895C6.77738 18.4103 7.63024 18.9897 8.60203 19.2142C8.76802 19.2526 8.94505 19.2779 9.29912 19.3284L10 19.4286L10.0801 19.44C12.6804 19.8076 15.3196 19.8076 17.9199 19.44L18 19.4286L18.056 19.4205C19.7951 19.1604 21.1604 17.7951 21.4205 16.056L21.4286 16L21.4667 15.7333C21.515 15.3949 21.5392 15.2256 21.5609 15.0568C21.8215 13.0273 21.8215 10.9727 21.5609 8.94316C21.5392 8.77436 21.515 8.60513 21.4667 8.26667L21.4286 8L21.4205 7.94399C21.1604 6.20488 19.7951 4.83957 18.056 4.57952L18 4.57143L17.9199 4.56001C15.3196 4.19236 12.6804 4.19236 10.0801 4.56001L10 4.57143L9.29912 4.67155C8.94506 4.72213 8.76802 4.74743 8.60203 4.78577C7.63024 5.01026 6.77738 5.58971 6.21071 6.41046C6.11391 6.55066 6.02518 6.70593 5.84773 7.01647L5.15529 8.22824C4.15942 9.97102 3.66148 10.8424 3.61233 11.7936C3.60523 11.9311 3.60523 12.0689 3.61233 12.2064C3.66148 13.1576 4.15942 14.029 5.15529 15.7718Z" stroke="black" stroke-width="2" stroke-linejoin="round"/>
<path d="M16 9L10 15" stroke="#808080" stroke-width="2" stroke-linejoin="round"/>
<path d="M10 9L16 15" stroke="#808080" stroke-width="2" stroke-linejoin="round"/>
</svg>
