<svg width="24" height="24" viewBox="0 0 24 24" fill="none" xmlns="http://www.w3.org/2000/svg">
<path d="M3 3V3C4.21844 3 4.82766 3 5.29641 3.27508C5.50209 3.39578 5.68453 3.5523 5.83511 3.73724C6.17826 4.15871 6.2709 4.76084 6.45617 5.96512L7.57931 13.2655C7.83108 14.902 9.093 16.1987 10.722 16.4949V16.4949C12.5589 16.8289 14.4411 16.8289 16.278 16.4949L16.3436 16.483C17.947 16.1915 19.2099 14.9505 19.5295 13.3524L20.0539 10.7304C20.4863 8.56874 20.7024 7.4879 20.1321 6.76315C20.1156 6.74223 20.0987 6.72164 20.0815 6.7014C19.4826 6 18.3804 6 16.1759 6H11" stroke="black" stroke-width="2" stroke-linejoin="round"/>
<rect x="7" y="18" width="3" height="3" rx="1.5" fill="#808080"/>
<rect x="17" y="18" width="3" height="3" rx="1.5" fill="#808080"/>
</svg>
