<svg width="24" height="24" viewBox="0 0 24 24" fill="none" xmlns="http://www.w3.org/2000/svg">
<path d="M4.44 6.96C4.78827 5.74107 5.74107 4.78827 6.96 4.44V4.44C10.2541 3.49883 13.7459 3.49883 17.04 4.44V4.44C18.2589 4.78827 19.2117 5.74107 19.56 6.96V6.96C20.5012 10.2541 20.5012 13.7459 19.56 17.04V17.04C19.2117 18.2589 18.2589 19.2117 17.04 19.56V19.56C13.7459 20.5012 10.2541 20.5012 6.96 19.56V19.56C5.74107 19.2117 4.78826 18.2589 4.44 17.04V17.04C3.49883 13.7459 3.49883 10.2541 4.44 6.96V6.96Z" stroke="black" stroke-width="2" stroke-linejoin="round"/>
<path d="M12 6L12 17" stroke="#808080" stroke-width="2" stroke-linejoin="round"/>
<path d="M7 12L8.81099 15.622C8.93485 15.8697 9.12121 16.0808 9.35165 16.2344V16.2344C10.9554 17.3036 13.0446 17.3036 14.6483 16.2344V16.2344C14.8788 16.0808 15.0652 15.8697 15.189 15.622L17 12" stroke="#808080" stroke-width="2" stroke-linejoin="round"/>
</svg>
