<svg width="24" height="24" viewBox="0 0 24 24" fill="none" xmlns="http://www.w3.org/2000/svg">
<path fill="black" d="M5 2V9.67544C5 10.4665 5.50616 11.1687 6.25658 11.4189V11.4189C7.38825 11.7961 8.61175 11.7961 9.74342 11.4189V11.4189C10.4938 11.1687 11 10.4665 11 9.67544V2"/>
<path fill="black" d="M8 2V22"/>
<path fill="black" d="M18 22V4.38426C18 3.50441 16.9362 3.06378 16.3141 3.68593V3.68593C14.8324 5.1676 14 7.17719 14 9.27259V11.6125C14 12.91 14 13.5587 14.2896 14.0366C14.4566 14.3122 14.6878 14.5434 14.9634 14.7104C15.4413 15 16.09 15 17.3875 15H18"/>
</svg>
