<svg width="24" height="24" viewBox="0 0 24 24" fill="none" xmlns="http://www.w3.org/2000/svg">
<path d="M4.44 6.96C4.78827 5.74107 5.74107 4.78827 6.96 4.44V4.44C10.2541 3.49883 13.7459 3.49883 17.04 4.44V4.44C18.2589 4.78827 19.2117 5.74107 19.56 6.96V6.96C20.5012 10.2541 20.5012 13.7459 19.56 17.04V17.04C19.2117 18.2589 18.2589 19.2117 17.04 19.56V19.56C13.7459 20.5012 10.2541 20.5012 6.96 19.56V19.56C5.74107 19.2117 4.78826 18.2589 4.44 17.04V17.04C3.49883 13.7459 3.49883 10.2541 4.44 6.96V6.96Z" stroke="black" stroke-width="2" stroke-linejoin="round"/>
<path d="M8.72727 9.81818C8.89896 9.30312 9.30312 8.89896 9.81818 8.72727V8.72727C11.2344 8.25519 12.7656 8.25519 14.1818 8.72727V8.72727C14.6969 8.89896 15.101 9.30312 15.2727 9.81818V9.81818C15.7448 11.2344 15.7448 12.7656 15.2727 14.1818V14.1818C15.101 14.6969 14.6969 15.101 14.1818 15.2727V15.2727C12.7656 15.7448 11.2344 15.7448 9.81818 15.2727V15.2727C9.30312 15.101 8.89896 14.6969 8.72727 14.1818V14.1818C8.25519 12.7656 8.25519 11.2344 8.72727 9.81818V9.81818Z" stroke="#808080" stroke-width="2" stroke-linejoin="round"/>
</svg>
