<svg width="24" height="24" viewBox="0 0 24 24" fill="none" xmlns="http://www.w3.org/2000/svg">
<path fill-rule="evenodd" clip-rule="evenodd" d="M21.5833 18.169C23.556 13.027 22.9723 7.15564 19.8321 2.44531L18.168 3.55471C20.7714 7.45989 21.3868 12.268 20.0142 16.6L21.5833 18.169ZM19.2093 18.6235C18.9073 19.2481 18.5602 19.857 18.168 20.4453L19.8321 21.5547C20.1457 21.0843 20.4338 20.6023 20.6964 20.1106L19.2093 18.6235ZM18.4649 15.0507C19.2574 12.5921 19.0673 9.89844 17.8944 7.55273L16.1056 8.44716C16.8807 9.99741 17.1185 11.7379 16.8191 13.4049L18.4649 15.0507ZM16.1165 15.5307L16.1715 15.5857L16.1056 15.5527C16.1092 15.5454 16.1129 15.5381 16.1165 15.5307ZM14.7143 14.1286C14.7017 14.4184 14.6866 14.7082 14.6688 14.9979C14.6112 15.9383 14.5174 16.8762 14.3357 18.6931L14.3303 18.7472L14.3303 18.7472L14.3303 18.7473C14.2937 19.1132 14.262 19.4304 14.2225 19.6792C14.1858 19.911 14.1233 20.2337 13.9475 20.5164C13.4118 21.3779 12.3161 21.702 11.3981 21.2704C11.0967 21.1287 10.8688 20.892 10.7118 20.7174C10.5434 20.5301 10.3443 20.2811 10.1145 19.9939L9.07749 18.6976C8.66536 18.1825 8.57786 18.0887 8.48539 18.0247C8.44439 17.9963 8.40133 17.971 8.35656 17.9491C8.25559 17.8996 8.13103 17.869 7.48027 17.7605L4.44617 17.2548C3.07548 17.0264 1.97088 16.0066 1.63386 14.6585C1.19749 12.913 1.19749 11.087 1.63386 9.34149C1.97088 7.99339 3.07548 6.97363 4.44617 6.74518L6.91885 6.33307L8.64159 8.05581C8.41154 8.11254 8.16849 8.15276 7.9097 8.19559L7.80907 8.21228L4.77497 8.71797C4.1897 8.81551 3.71805 9.25094 3.57414 9.82656C3.21739 11.2536 3.21739 12.7464 3.57414 14.1734C3.71805 14.7491 4.1897 15.1845 4.77497 15.282L7.80907 15.7877L7.9097 15.8044L7.90971 15.8044C8.403 15.8861 8.8391 15.9582 9.23701 16.1533C9.37132 16.2192 9.5005 16.295 9.6235 16.3801C9.98792 16.6323 10.2636 16.9777 10.5756 17.3685L10.5756 17.3685L10.6392 17.4482L11.658 18.7217C11.9113 19.0383 12.0741 19.2412 12.1992 19.3803C12.2134 19.3962 12.2262 19.4101 12.2377 19.4224C12.2407 19.4058 12.2439 19.3872 12.2472 19.3661C12.2765 19.1814 12.3028 18.9225 12.3431 18.5191C12.5279 16.6715 12.6175 15.7732 12.6726 14.8756C12.7277 13.976 12.7569 13.0753 12.7603 12.1745L14.7143 14.1286ZM14.7562 11.342C14.7457 10.5616 14.7166 9.78141 14.6688 9.00208C14.6112 8.06173 14.5174 7.12384 14.3357 5.30705L14.3357 5.30693L14.3303 5.25285C14.2937 4.88683 14.262 4.56962 14.2225 4.32081C14.1858 4.08896 14.1233 3.76634 13.9475 3.48355C13.4118 2.62207 12.3161 2.29802 11.3981 2.72962C11.0967 2.87129 10.8688 3.108 10.7118 3.28258C10.5434 3.46992 10.3443 3.71885 10.1145 4.00609L9.07749 5.30237C9.01728 5.37763 8.96399 5.4439 8.91661 5.5024L10.3388 6.92458C10.4167 6.83045 10.4949 6.73247 10.5756 6.63146L10.6392 6.55176L11.658 5.27826C11.9113 4.9617 12.0741 4.7588 12.1992 4.61965C12.2134 4.60383 12.2262 4.58988 12.2377 4.57762C12.2407 4.59416 12.2439 4.61283 12.2472 4.63385C12.2765 4.81865 12.3028 5.07748 12.3431 5.48086C12.5279 7.32854 12.6175 8.22685 12.6726 9.12445C12.6755 9.17191 12.6783 9.21938 12.6811 9.26685L14.7562 11.342Z" fill="black"/>
<path d="M3 3L21 21" stroke="black" stroke-width="2" stroke-linejoin="round"/>
</svg>
