<svg width="24" height="24" viewBox="0 0 24 24" fill="none" xmlns="http://www.w3.org/2000/svg">
<path fill="black" d="M8 16L4 20"/>
<path fill="black" d="M15 9L11 13"/>
<path fill="black" d="M12.597 17.9353L12.1284 18.2477C11.4306 18.7129 10.5371 18.7685 9.78699 18.3935C7.97792 17.489 6.51104 16.0221 5.60651 14.213C5.23146 13.4629 5.28709 12.5694 5.75228 11.8716L6.06465 11.403C8.00236 8.49645 10.4965 6.00236 13.403 4.06465L13.8716 3.75228C14.5694 3.28709 15.4629 3.23146 16.213 3.60651C18.0221 4.51104 19.489 5.97792 20.3935 7.78699C20.7685 8.53708 20.7129 9.43063 20.2477 10.1284L19.9353 10.597C17.9976 13.5035 15.5035 15.9976 12.597 17.9353Z"/>
</svg>
