<svg width="24" height="24" viewBox="0 0 24 24" fill="none" xmlns="http://www.w3.org/2000/svg">
<path d="M11.3333 2C11.4383 1.68524 11.6852 1.43825 12 1.33333C12.6491 1.11696 13.3509 1.11696 14 1.33333C14.3148 1.43825 14.5617 1.68524 14.6667 2C14.883 2.64911 14.883 3.35089 14.6667 4C14.5617 4.31476 14.3148 4.56175 14 4.66667C13.3509 4.88304 12.6491 4.88304 12 4.66667C11.6852 4.56175 11.4383 4.31476 11.3333 4C11.117 3.35089 11.117 2.64911 11.3333 2Z" fill="#808080"/>
<path d="M17.5 10.78C16.27 10.41 15.28 9.61 14.7 8.6L13.7 7C13.29 6.35 12.59 6 11.86 6C11.08 6 10.27 6.5 10.08 7.44C9.92611 8.2014 8.00074 17.9383 7.27466 21.6108C7.22722 21.8507 7.32047 22.0943 7.51448 22.2433L7.58482 22.2973C8.09534 22.6893 8.82464 22.6065 9.23428 22.11C9.29393 22.0377 9.33574 21.9523 9.35631 21.8609L10.9 15L12.3793 16.4089C12.6853 16.7003 12.8383 16.846 12.9192 17.0347C13 17.2233 13 17.4346 13 17.8571V21.7574C13 21.9127 13.0617 22.0617 13.1716 22.1716C13.6291 22.6291 14.3709 22.6291 14.8284 22.1716C14.9383 22.0617 15 21.9127 15 21.7574V17.2143C15 16.3692 15 15.9466 14.8383 15.5693C14.6766 15.192 14.3706 14.9006 13.7586 14.3177L12.9 13.5L13.5 10.5C14.5 11.65 15.91 12.51 17.5 12.84V21.8611C17.5 21.9513 17.5293 22.039 17.5833 22.1111C17.9167 22.5555 18.5833 22.5555 18.9166 22.1111C18.9707 22.039 19 21.9513 19 21.8611L19 9.25C19 9.08772 18.9474 8.92982 18.85 8.8C18.55 8.4 17.95 8.4 17.65 8.8C17.5526 8.92982 17.5 9.08772 17.5 9.25V10.78ZM7.74928 12.196C7.56625 12.7315 7.01651 13.05 6.46096 12.9426L5.31001 12.72C4.77001 12.61 4.41001 12.09 4.52001 11.55L5.28001 7.62C5.49001 6.54 6.54001 5.83 7.62001 6.04L8.12718 6.14056C8.4998 6.21444 8.75863 6.55487 8.73019 6.93368L8.67372 7.6857C8.55836 9.22231 8.24771 10.738 7.74928 12.196Z" fill="black"/>
</svg>
