<svg width="24" height="24" viewBox="0 0 24 24" fill="none" xmlns="http://www.w3.org/2000/svg">
<path fill="black" d="M9 3.98106C8.314 4.09477 7.63288 4.24775 6.96001 4.44C5.74108 4.78826 4.78827 5.74107 4.44001 6.96C3.49884 10.2541 3.49884 13.7459 4.44001 17.04C4.78827 18.2589 5.74108 19.2117 6.96001 19.56C8.60705 20.0306 10.3035 20.2659 12 20.2659M20.2659 12C20.2659 10.3035 20.0306 8.60704 19.56 6.96C19.2117 5.74107 18.2589 4.78826 17.04 4.44C15.0692 3.87692 13.0277 3.65072 11 3.7614"/>
<path fill="black" d="M14 20.1565C15.0242 20.0442 16.0412 19.8454 17.04 19.56C18.2589 19.2117 19.2117 18.2589 19.56 17.04C19.8454 16.0412 20.0442 15.0242 20.1565 14"/>
</svg>
