<svg width="24" height="24" viewBox="0 0 24 24" fill="none" xmlns="http://www.w3.org/2000/svg">
<path d="M4.11658 6.65027C4.66943 4.99171 6.00513 3.71282 7.68614 3.23253L8.35996 3.04001C10.739 2.36027 13.2609 2.36027 15.64 3.04001L16.3139 3.23253C17.9949 3.71282 19.3306 4.99171 19.8834 6.65027V6.65027C20.6082 8.82462 20.6082 11.1754 19.8834 13.3497L19.614 14.1581C19.2132 15.3604 18.4735 16.4212 17.4839 17.2129L14.3053 19.7558C14.1023 19.9181 13.8828 20.0586 13.6503 20.1748V20.1748C12.6114 20.6943 11.3886 20.6943 10.3497 20.1748V20.1748C10.1172 20.0586 9.89767 19.9181 9.69472 19.7558L6.51609 17.2129C5.52649 16.4212 4.78679 15.3604 4.38603 14.1581L4.11658 13.3497C3.39179 11.1754 3.39179 8.82462 4.11658 6.65027V6.65027Z" stroke="black" stroke-width="2" stroke-linejoin="round"/>
<path d="M9.85714 8.28571C9.94987 8.10025 10.1003 7.94987 10.2857 7.85714V7.85714C11.3649 7.31756 12.6351 7.31756 13.7143 7.85714V7.85714C13.8997 7.94987 14.0501 8.10025 14.1429 8.28571V8.28571C14.6824 9.36488 14.6824 10.6351 14.1429 11.7143V11.7143C14.0501 11.8997 13.8997 12.0501 13.7143 12.1429V12.1429C12.6351 12.6824 11.3649 12.6824 10.2857 12.1429V12.1429C10.1003 12.0501 9.94987 11.8997 9.85714 11.7143V11.7143C9.31756 10.6351 9.31756 9.36488 9.85714 8.28571V8.28571Z" stroke="#808080" stroke-width="2" stroke-linejoin="round"/>
</svg>
