<svg width="24" height="24" viewBox="0 0 24 24" fill="none" xmlns="http://www.w3.org/2000/svg">
<path d="M10 22V20.0616C10 18.85 9.17541 17.7939 8 17.5L7.27607 17.319C6.52611 17.1315 6 16.4577 6 15.6847V15.0845C6 14.4856 5.51444 14 4.91548 14V14C4.07248 14 3.55179 13.0804 3.9855 12.3575L5.90004 9.1666C5.96545 9.05758 6 8.93285 6 8.80572V8.80572C6 7.03948 6.83158 5.37631 8.24457 4.31657L8.4 4.2C9.43858 3.42107 10.7018 3 12 3H13.4575C15.0854 3 16.6467 3.64669 17.7978 4.79781V4.79781C18.5845 5.58446 19.1425 6.57011 19.4123 7.64939L19.5256 8.10241C19.8371 9.3483 19.8371 10.6517 19.5256 11.8976L19.4468 12.2127C19.1519 13.3923 18.6242 14.5011 17.8946 15.4739L16.5131 17.3158C16.18 17.7599 16 18.3001 16 18.8552V22" stroke="black" stroke-width="2" stroke-linejoin="round"/>
</svg>
