<svg width="24" height="24" viewBox="0 0 24 24" fill="none" xmlns="http://www.w3.org/2000/svg">
<path fill="black" d="M15 4V20"/>
<path fill="black" d="M9 4V20"/>
<path fill="black" d="M20 9L4 9"/>
<path fill="black" d="M20 15L4 15"/>
<path fill="black" d="M4.26316 7.57894C4.7214 5.97509 5.97509 4.7214 7.57895 4.26316V4.26316C10.4685 3.43757 13.5315 3.43757 16.4211 4.26316V4.26316C18.0249 4.7214 19.2786 5.97509 19.7368 7.57894V7.57894C20.5624 10.4685 20.5624 13.5315 19.7368 16.421V16.421C19.2786 18.0249 18.0249 19.2786 16.4211 19.7368V19.7368C13.5315 20.5624 10.4685 20.5624 7.57895 19.7368V19.7368C5.97509 19.2786 4.7214 18.0249 4.26316 16.421V16.421C3.43757 13.5315 3.43757 10.4685 4.26316 7.57894V7.57894Z"/>
</svg>
