<svg width="24" height="24" viewBox="0 0 24 24" fill="none" xmlns="http://www.w3.org/2000/svg">
<path d="M16.6958 20.6984C18.6319 20.1453 20.1452 18.6319 20.6984 16.6958C21.5753 13.6267 21.5753 10.3734 20.6984 7.3043C20.1452 5.36824 18.6318 3.85487 16.6958 3.30171C15.1612 2.86326 13.5806 2.64404 11.9999 2.64404V21.3561C13.5806 21.3561 15.1612 21.1369 16.6958 20.6984Z" fill="#808080"/>
<path d="M7.3043 3.30171C5.36824 3.85487 3.85487 5.36824 3.30171 7.3043C2.42482 10.3734 2.42482 13.6267 3.30171 16.6958C3.85487 18.6319 5.36824 20.1453 7.3043 20.6984C8.83883 21.1369 10.4194 21.3561 12 21.3561V2.64404C10.4194 2.64405 8.83883 2.86327 7.3043 3.30171Z" fill="black"/>
</svg>
