<svg width="24" height="24" viewBox="0 0 24 24" fill="none" xmlns="http://www.w3.org/2000/svg">
<path fill="black" d="M14 4.85449C14.7044 4.96488 15.4019 5.13394 16.0851 5.36167C17.2906 5.76349 18.2365 6.70941 18.6383 7.91486C18.866 8.59806 19.0351 9.29555 19.1455 9.99996M19.1455 14C19.0351 14.7044 18.866 15.4019 18.6383 16.0851C18.2365 17.2905 17.2906 18.2364 16.0851 18.6383C15.4019 18.866 14.7044 19.0351 14 19.1454M9.99999 19.1454C9.29558 19.0351 8.5981 18.866 7.91489 18.6383C6.70944 18.2364 5.76352 17.2905 5.3617 16.0851C5.13397 15.4019 4.96491 14.7044 4.85452 14M4.85452 9.99997C4.96491 9.29556 5.13397 8.59807 5.3617 7.91486C5.76352 6.70941 6.70944 5.76349 7.91489 5.36167C8.5981 5.13394 9.29559 4.96488 10 4.85449"/>
</svg>
