<svg width="24" height="24" viewBox="0 0 24 24" fill="none" xmlns="http://www.w3.org/2000/svg">
<path d="M6 10V10C8.3698 11.1849 9.5547 11.7773 10.8066 11.9662C11.5977 12.0856 12.4023 12.0856 13.1934 11.9662C14.4453 11.7773 15.6302 11.1849 18 10V10" stroke="#808080" stroke-width="2" stroke-linejoin="round"/>
<path d="M3.53691 8.15773C3.8319 7.42025 4.4238 6.84107 5.16752 6.56218L5.31227 6.5079C9.62415 4.89094 14.3758 4.89094 18.6877 6.5079L18.8325 6.56218C19.5762 6.84107 20.1681 7.42025 20.4631 8.15773V8.15773C21.4555 10.6386 21.5363 13.391 20.6914 15.9259L20.5451 16.3648C20.2056 17.3832 19.3693 18.1577 18.3278 18.4181L17.8567 18.5358C14.0114 19.4972 9.9886 19.4972 6.14333 18.5358L5.67223 18.4181C4.63071 18.1577 3.79441 17.3832 3.45492 16.3648L3.30863 15.9259C2.46366 13.391 2.54454 10.6386 3.53691 8.15773V8.15773Z" stroke="black" stroke-width="2" stroke-linejoin="round"/>
</svg>
