<svg width="24" height="24" viewBox="0 0 24 24" fill="none" xmlns="http://www.w3.org/2000/svg">
<path fill="black" d="M10.4277 2.78615L10.8749 3.68058V3.68058L10.4277 2.78615ZM9.94694 3.47757L8.95305 3.36713V3.36713L9.94694 3.47757ZM13.5723 2.78615L13.1251 3.68058L13.1251 3.68058L13.5723 2.78615ZM14.0531 3.47757L13.0592 3.588V3.588L14.0531 3.47757ZM14.4107 7.82446L13.4121 7.87817C13.4303 8.21582 13.6179 8.52142 13.9107 8.69049C14.2035 8.85956 14.562 8.86919 14.8635 8.71609L14.4107 7.82446ZM18.3541 5.96071L18.7554 6.87665L18.3541 5.96071ZM19.1933 6.03134L19.7443 5.19683V5.19683L19.1933 6.03134ZM20.7656 8.75467L19.7674 8.81458V8.81458L20.7656 8.75467ZM20.4072 9.51672L20.9998 10.3222L20.4072 9.51672ZM16.8214 11.9999L16.2756 11.162C15.9923 11.3466 15.8214 11.6618 15.8214 11.9999C15.8214 12.3381 15.9923 12.6533 16.2756 12.8378L16.8214 11.9999ZM20.4072 14.4831L19.8146 15.2886V15.2886L20.4072 14.4831ZM20.7656 15.2452L21.7638 15.3051V15.3051L20.7656 15.2452ZM19.1933 17.9685L19.7443 18.803L19.1933 17.9685ZM18.3541 18.0391L18.7554 17.1232H18.7554L18.3541 18.0391ZM14.4107 16.1754L14.8635 15.2838C14.562 15.1307 14.2035 15.1403 13.9107 15.3094C13.6179 15.4784 13.4303 15.784 13.4122 16.1217L14.4107 16.1754ZM14.0531 20.5224L13.0592 20.412V20.412L14.0531 20.5224ZM13.5723 21.2138L13.1251 20.3194L13.1251 20.3194L13.5723 21.2138ZM10.4277 21.2138L10.8749 20.3194L10.8749 20.3194L10.4277 21.2138ZM9.94694 20.5224L10.9408 20.412L9.94694 20.5224ZM9.58929 16.1754L10.5878 16.1217C10.5697 15.784 10.3821 15.4784 10.0893 15.3094C9.79645 15.1403 9.43801 15.1307 9.13652 15.2838L9.58929 16.1754ZM5.64589 18.0391L5.24459 17.1232L5.24458 17.1232L5.64589 18.0391ZM4.80673 17.9685L5.35772 17.134L5.35772 17.134L4.80673 17.9685ZM3.23442 15.2452L4.23262 15.1853L4.23262 15.1853L3.23442 15.2452ZM3.59283 14.4831L3.00025 13.6776H3.00025L3.59283 14.4831ZM7.17859 11.9999L7.72438 12.8378C8.00771 12.6533 8.17859 12.3381 8.17859 11.9999C8.17859 11.6618 8.00771 11.3466 7.72438 11.162L7.17859 11.9999ZM3.59283 9.51672L4.18541 8.7112L4.18541 8.7112L3.59283 9.51672ZM3.23442 8.75466L4.23263 8.81458L4.23263 8.81458L3.23442 8.75466ZM4.80673 6.03134L5.35772 6.86585L5.35773 6.86585L4.80673 6.03134ZM5.64589 5.96071L5.24459 6.87665H5.24459L5.64589 5.96071ZM9.5893 7.82446L9.13653 8.71609C9.43802 8.86919 9.79646 8.85955 10.0893 8.69049C10.3821 8.52142 10.5697 8.21582 10.5879 7.87817L9.5893 7.82446ZM9.98048 1.89172C9.40779 2.17806 9.02311 2.73659 8.95305 3.36713L10.9408 3.588C10.9366 3.6259 10.9142 3.66091 10.8749 3.68058L9.98048 1.89172ZM14.0195 1.89172C12.7482 1.25606 11.2518 1.25606 9.98048 1.89172L10.8749 3.68058C11.5832 3.32644 12.4168 3.32644 13.1251 3.68058L14.0195 1.89172ZM15.0469 3.36714C14.9769 2.73659 14.5922 2.17806 14.0195 1.89172L13.1251 3.68058C13.0858 3.66091 13.0634 3.6259 13.0592 3.588L15.0469 3.36714ZM15.4093 7.77075C15.33 6.29719 15.2092 4.8278 15.0469 3.36714L13.0592 3.588C13.2172 5.01061 13.3349 6.44216 13.4121 7.87817L15.4093 7.77075ZM17.9528 5.04476C16.6067 5.63455 15.2737 6.26467 13.9579 6.93283L14.8635 8.71609C16.1457 8.06496 17.4443 7.45108 18.7554 6.87665L17.9528 5.04476ZM19.7443 5.19683C19.2099 4.84404 18.5339 4.79016 17.9528 5.04476L18.7554 6.87665C18.7205 6.89195 18.679 6.89009 18.6423 6.86586L19.7443 5.19683ZM21.7638 8.69475C21.6786 7.27592 20.9304 5.98 19.7443 5.19683L18.6423 6.86586C19.3031 7.30216 19.7199 8.02414 19.7674 8.81458L21.7638 8.69475ZM20.9998 10.3222C21.5108 9.94628 21.8021 9.33388 21.7638 8.69475L19.7674 8.81458C19.7647 8.77068 19.7839 8.7338 19.8146 8.71121L20.9998 10.3222ZM17.3672 12.8378C18.6037 12.0324 19.8159 11.1931 20.9998 10.3222L19.8146 8.71121C18.6616 9.55942 17.4806 10.3771 16.2756 11.162L17.3672 12.8378ZM16.2756 12.8378C17.4806 13.6228 18.6616 14.4404 19.8146 15.2886L20.9998 13.6776C19.8159 12.8067 18.6037 11.9674 17.3672 11.162L16.2756 12.8378ZM19.8146 15.2886C19.7839 15.2661 19.7647 15.2292 19.7674 15.1853L21.7638 15.3051C21.8021 14.666 21.5108 14.0536 20.9998 13.6776L19.8146 15.2886ZM19.7674 15.1853C19.7199 15.9757 19.3031 16.6977 18.6423 17.134L19.7443 18.803C20.9304 18.0199 21.6786 16.7239 21.7638 15.3051L19.7674 15.1853ZM18.6423 17.134C18.679 17.1098 18.7205 17.1079 18.7554 17.1232L17.9528 18.9551C18.5339 19.2097 19.2099 19.1558 19.7443 18.803L18.6423 17.134ZM18.7554 17.1232C17.4443 16.5488 16.1457 15.9349 14.8635 15.2838L13.9579 17.067C15.2737 17.7352 16.6067 18.3653 17.9528 18.9551L18.7554 17.1232ZM15.0469 20.6329C15.2092 19.1721 15.33 17.7027 15.4093 16.2291L13.4122 16.1217C13.3349 17.5577 13.2173 18.9893 13.0592 20.412L15.0469 20.6329ZM14.0195 22.1083C14.5922 21.8219 14.9769 21.2634 15.0469 20.6329L13.0592 20.412C13.0634 20.3741 13.0858 20.3391 13.1251 20.3194L14.0195 22.1083ZM9.98048 22.1083C11.2518 22.7439 12.7482 22.7439 14.0195 22.1083L13.1251 20.3194C12.4168 20.6735 11.5832 20.6735 10.8749 20.3194L9.98048 22.1083ZM8.95305 20.6329C9.02311 21.2634 9.40779 21.8219 9.98048 22.1083L10.8749 20.3194C10.9142 20.3391 10.9366 20.3741 10.9408 20.412L8.95305 20.6329ZM8.59073 16.2291C8.66999 17.7027 8.79075 19.1721 8.95305 20.6329L10.9408 20.412C10.7827 18.9893 10.6651 17.5577 10.5878 16.1217L8.59073 16.2291ZM6.0472 18.9551C7.39334 18.3653 8.72627 17.7352 10.0421 17.067L9.13652 15.2838C7.85427 15.9349 6.55566 16.5488 5.24459 17.1232L6.0472 18.9551ZM4.25574 18.803C4.79006 19.1558 5.46609 19.2097 6.0472 18.9551L5.24458 17.1232C5.27951 17.1079 5.32102 17.1098 5.35772 17.134L4.25574 18.803ZM2.23622 15.3051C2.32138 16.7239 3.06958 18.0199 4.25574 18.803L5.35772 17.134C4.6969 16.6977 4.28007 15.9757 4.23262 15.1853L2.23622 15.3051ZM3.00025 13.6776C2.48921 14.0536 2.19785 14.666 2.23622 15.3051L4.23262 15.1853C4.23526 15.2292 4.21612 15.2661 4.18541 15.2886L3.00025 13.6776ZM6.6328 11.162C5.39626 11.9674 4.18409 12.8067 3.00025 13.6776L4.18541 15.2886C5.33841 14.4404 6.51936 13.6227 7.72438 12.8378L6.6328 11.162ZM7.72438 11.162C6.51936 10.3771 5.33841 9.55941 4.18541 8.7112L3.00025 10.3222C4.1841 11.1931 5.39626 12.0324 6.6328 12.8378L7.72438 11.162ZM4.18541 8.7112C4.21612 8.7338 4.23526 8.77068 4.23263 8.81458L2.23622 8.69475C2.19786 9.33387 2.48921 9.94628 3.00025 10.3222L4.18541 8.7112ZM4.23263 8.81458C4.28007 8.02414 4.6969 7.30216 5.35772 6.86585L4.25574 5.19683C3.06959 5.98 2.32138 7.27592 2.23622 8.69475L4.23263 8.81458ZM5.35773 6.86585C5.32102 6.89009 5.27951 6.89195 5.24459 6.87665L6.0472 5.04476C5.4661 4.79016 4.79006 4.84404 4.25574 5.19683L5.35773 6.86585ZM5.24459 6.87665C6.55566 7.45107 7.85427 8.06496 9.13653 8.71609L10.0421 6.93283C8.72627 6.26467 7.39334 5.63455 6.0472 5.04476L5.24459 6.87665ZM8.95305 3.36713C8.79076 4.8278 8.66999 6.29719 8.59074 7.77075L10.5879 7.87817C10.6651 6.44216 10.7828 5.01061 10.9408 3.588L8.95305 3.36713Z"/>
</svg>
