<svg width="24" height="24" viewBox="0 0 24 24" fill="none" xmlns="http://www.w3.org/2000/svg">
<path fill="black" d="M12 4V2"/>
<path fill="black" d="M9 19L9.85714 20.7143C9.94987 20.8997 10.1003 21.0501 10.2857 21.1429V21.1429C11.3649 21.6824 12.6351 21.6824 13.7143 21.1429V21.1429C13.8997 21.0501 14.0501 20.8997 14.1429 20.7143L15 19"/>
<path fill="black" d="M17.8291 11.6328L17.1799 6.43943C17.0689 5.55132 16.4841 4.79365 15.6531 4.46125C13.308 3.52321 10.692 3.52321 8.34688 4.46125C7.51587 4.79365 6.93109 5.55132 6.82007 6.43943L6.1709 11.6328C6.06413 12.4869 5.53753 13.2312 4.76759 13.6162C4.26934 13.8653 3.86533 14.2693 3.6162 14.7676L3.52087 14.9583C3.19297 15.6141 3.19297 16.3859 3.52087 17.0417C3.82498 17.65 4.37968 18.0949 5.03938 18.2598L5.49576 18.3739C9.76621 19.4416 14.2338 19.4416 18.5042 18.3739L18.9606 18.2598C19.6203 18.0949 20.175 17.65 20.4791 17.0417C20.807 16.3859 20.807 15.6141 20.4791 14.9583L20.3838 14.7676C20.1347 14.2693 19.7307 13.8653 19.2324 13.6162C18.4625 13.2312 17.9359 12.4869 17.8291 11.6328Z"/>
</svg>
