<svg width="24" height="24" viewBox="0 0 24 24" fill="none" xmlns="http://www.w3.org/2000/svg">
<path d="M8 2V5" stroke="black" stroke-width="2" stroke-linejoin="round"/>
<path d="M16 2V5" stroke="black" stroke-width="2" stroke-linejoin="round"/>
<path d="M3 10H21" stroke="#808080" stroke-width="2" stroke-linejoin="round"/>
<path d="M3.57043 7.50351C3.84062 6.55784 4.54322 5.79629 5.46411 5.45096V5.45096C9.6781 3.87071 14.3219 3.87071 18.5359 5.45096V5.45096C19.4568 5.79629 20.1594 6.55783 20.4296 7.50351L20.6714 8.34998C21.5398 11.3892 21.5398 14.6108 20.6714 17.65L20.6298 17.7958C20.2401 19.1597 19.1521 20.212 17.776 20.556V20.556C13.9837 21.5041 10.0163 21.5041 6.224 20.556V20.556C4.84785 20.212 3.75991 19.1597 3.37022 17.7958L3.32858 17.65C2.46023 14.6108 2.46023 11.3892 3.32858 8.34998L3.57043 7.50351Z" stroke="black" stroke-width="2" stroke-linejoin="round"/>
</svg>
