<svg width="24" height="24" viewBox="0 0 24 24" fill="none" xmlns="http://www.w3.org/2000/svg">
<path d="M12.8571 11.2857C13.2618 11.4206 13.5794 11.7382 13.7143 12.1429V12.1429C13.8997 12.6992 13.8997 13.3008 13.7143 13.8571V13.8571C13.5794 14.2618 13.2618 14.5794 12.8571 14.7143V14.7143C12.3008 14.8997 11.6992 14.8997 11.1429 14.7143V14.7143C10.7382 14.5794 10.4206 14.2618 10.2857 13.8571V13.8571C10.1003 13.3008 10.1003 12.6992 10.2857 12.1429V12.1429C10.4206 11.7382 10.7382 11.4206 11.1429 11.2857V11.2857C11.6992 11.1003 12.3008 11.1003 12.8571 11.2857V11.2857Z" stroke="#808080" stroke-width="2" stroke-linejoin="round"/>
<path d="M7 20L7.02986 19.8806C7.23201 19.072 7.33308 18.6677 7.48909 18.3285C8.03069 17.151 9.10921 16.3089 10.3829 16.0691C10.7498 16 11.1665 16 12 16V16C12.8335 16 13.2502 16 13.6171 16.0691C14.8908 16.3089 15.9693 17.151 16.5109 18.3285C16.6669 18.6677 16.768 19.072 16.9701 19.8806L17 20" stroke="#808080" stroke-width="2" stroke-linejoin="round"/>
<path d="M6.375 6.75C6.45614 6.58772 6.58772 6.45614 6.75 6.375C7.22214 6.13893 7.77786 6.13893 8.25 6.375C8.41228 6.45614 8.54386 6.58772 8.625 6.75C8.86107 7.22214 8.86107 7.77786 8.625 8.25C8.54386 8.41228 8.41228 8.54386 8.25 8.625C7.77786 8.86107 7.22214 8.86107 6.75 8.625C6.58772 8.54386 6.45614 8.41228 6.375 8.25C6.13893 7.77786 6.13893 7.22214 6.375 6.75Z" fill="black"/>
<path d="M12.375 6.75C12.4561 6.58772 12.5877 6.45614 12.75 6.375C13.2221 6.13893 13.7779 6.13893 14.25 6.375C14.4123 6.45614 14.5439 6.58772 14.625 6.75C14.8611 7.22214 14.8611 7.77786 14.625 8.25C14.5439 8.41228 14.4123 8.54386 14.25 8.625C13.7779 8.86107 13.2221 8.86107 12.75 8.625C12.5877 8.54386 12.4561 8.41228 12.375 8.25C12.1389 7.77786 12.1389 7.22214 12.375 6.75Z" fill="black"/>
<path d="M15.375 6.75C15.4561 6.58772 15.5877 6.45614 15.75 6.375C16.2221 6.13893 16.7779 6.13893 17.25 6.375C17.4123 6.45614 17.5439 6.58772 17.625 6.75C17.8611 7.22214 17.8611 7.77786 17.625 8.25C17.5439 8.41228 17.4123 8.54386 17.25 8.625C16.7779 8.86107 16.2221 8.86107 15.75 8.625C15.5877 8.54386 15.4561 8.41228 15.375 8.25C15.1389 7.77786 15.1389 7.22214 15.375 6.75Z" fill="black"/>
<path d="M4.44 6.96C4.78827 5.74107 5.74107 4.78827 6.96 4.44V4.44C10.2541 3.49883 13.7459 3.49883 17.04 4.44V4.44C18.2589 4.78827 19.2117 5.74107 19.56 6.96V6.96C20.5012 10.2541 20.5012 13.7459 19.56 17.04V17.04C19.2117 18.2589 18.2589 19.2117 17.04 19.56V19.56C13.7459 20.5012 10.2541 20.5012 6.96 19.56V19.56C5.74107 19.2117 4.78826 18.2589 4.44 17.04V17.04C3.49883 13.7459 3.49883 10.2541 4.44 6.96V6.96Z" stroke="black" stroke-width="2" stroke-linejoin="round"/>
</svg>
