<svg width="24" height="24" viewBox="0 0 24 24" fill="none" xmlns="http://www.w3.org/2000/svg">
<path fill="black" d="M5.01201 10.2236L4.22632 10.1363C3.47874 10.0532 2.84768 9.54304 2.60982 8.82946C2.21398 7.64194 2.21398 6.35806 2.60982 5.17054C2.84768 4.45696 3.47874 3.94681 4.22632 3.86374L5.01201 3.77644C9.65638 3.2604 14.3436 3.2604 18.988 3.77644L19.7737 3.86374C20.5213 3.94681 21.1523 4.45696 21.3902 5.17054C21.786 6.35806 21.786 7.64194 21.3902 8.82946C21.1523 9.54304 20.5213 10.0532 19.7737 10.1363L18.988 10.2236C14.3436 10.7396 9.65638 10.7396 5.01201 10.2236Z"/>
<path fill="black" d="M16.375 6.25C16.4561 6.08772 16.5877 5.95614 16.75 5.875C17.2221 5.63893 17.7779 5.63893 18.25 5.875C18.4123 5.95614 18.5439 6.08772 18.625 6.25C18.8611 6.72214 18.8611 7.27786 18.625 7.75C18.5439 7.91228 18.4123 8.04386 18.25 8.125C17.7779 8.36107 17.2221 8.36107 16.75 8.125C16.5877 8.04386 16.4561 7.91228 16.375 7.75C16.1389 7.27786 16.1389 6.72214 16.375 6.25Z"/>
<path fill="black" d="M13 7H5"/>
<path fill="black" d="M5.01201 20.2236L4.22632 20.1363C3.47874 20.0532 2.84768 19.543 2.60982 18.8295C2.21398 17.6419 2.21398 16.3581 2.60982 15.1705C2.84768 14.457 3.47874 13.9468 4.22632 13.8637L5.01201 13.7764C9.65638 13.2604 14.3436 13.2604 18.988 13.7764L19.7737 13.8637C20.5213 13.9468 21.1523 14.457 21.3902 15.1705C21.786 16.3581 21.786 17.6419 21.3902 18.8295C21.1523 19.543 20.5213 20.0532 19.7737 20.1363L18.988 20.2236C14.3436 20.7396 9.65638 20.7396 5.01201 20.2236Z"/>
<path fill="black" d="M16.375 16.25C16.4561 16.0877 16.5877 15.9561 16.75 15.875C17.2221 15.6389 17.7779 15.6389 18.25 15.875C18.4123 15.9561 18.5439 16.0877 18.625 16.25C18.8611 16.7221 18.8611 17.2779 18.625 17.75C18.5439 17.9123 18.4123 18.0439 18.25 18.125C17.7779 18.3611 17.2221 18.3611 16.75 18.125C16.5877 18.0439 16.4561 17.9123 16.375 17.75C16.1389 17.2779 16.1389 16.7221 16.375 16.25Z"/>
<path fill="black" d="M13 17H5"/>
</svg>
