<svg width="24" height="24" viewBox="0 0 24 24" fill="none" xmlns="http://www.w3.org/2000/svg">
<path fill="black" d="M4.44 6.96C4.78827 5.74107 5.74107 4.78827 6.96 4.44V4.44C10.2541 3.49883 13.7459 3.49883 17.04 4.44V4.44C18.2589 4.78827 19.2117 5.74107 19.56 6.96V6.96C20.5012 10.2541 20.5012 13.7459 19.56 17.04V17.04C19.2117 18.2589 18.2589 19.2117 17.04 19.56V19.56C13.7459 20.5012 10.2541 20.5012 6.96 19.56V19.56C5.74107 19.2117 4.78826 18.2589 4.44 17.04V17.04C3.49883 13.7459 3.49883 10.2541 4.44 6.96V6.96Z"/>
<path fill="black" d="M8.01901 15.0435L7.66901 15.7155C7.36435 16.3004 7.78876 17 8.44827 17H15.5517C16.2112 17 16.6356 16.3004 16.331 15.7155L15.981 15.0435C15.8316 14.7567 15.5875 14.5306 15.2901 14.4038C13.1883 13.507 10.8117 13.507 8.70993 14.4038C8.41254 14.5306 8.16837 14.7567 8.01901 15.0435Z"/>
<path fill="black" d="M10.5 8L7.5 11"/>
<path fill="black" d="M10.5 11L7.5 8"/>
<path fill="black" d="M16.5 8L13.5 11"/>
<path fill="black" d="M16.5 11L13.5 8"/>
</svg>
