<svg width="24" height="24" viewBox="0 0 24 24" fill="none" xmlns="http://www.w3.org/2000/svg">
<path d="M13 11L17 7" stroke="black" stroke-width="2" stroke-linejoin="round"/>
<path d="M4.44 6.95999C4.78827 5.74107 5.74107 4.78827 6.96 4.44V4.44C10.2541 3.49883 13.7459 3.49883 17.04 4.44V4.44C18.2589 4.78827 19.2117 5.74107 19.56 6.96L19.6911 7.41887C20.5466 10.413 20.5466 13.5869 19.6911 16.5811V16.5811C19.282 18.0129 17.9734 19 16.4843 19H7.51568C6.02662 19 4.71797 18.0129 4.30889 16.5811V16.5811C3.45341 13.5869 3.45341 10.413 4.30889 7.41886L4.44 6.95999Z" stroke="black" stroke-width="2" stroke-linejoin="round"/>
<path d="M10.6 10.8C10.6433 10.7135 10.7135 10.6433 10.8 10.6V10.6C11.5554 10.2223 12.4446 10.2223 13.2 10.6V10.6C13.2865 10.6433 13.3567 10.7135 13.4 10.8V10.8C13.7777 11.5554 13.7777 12.4446 13.4 13.2V13.2C13.3567 13.2865 13.2865 13.3567 13.2 13.4V13.4C12.4446 13.7777 11.5554 13.7777 10.8 13.4V13.4C10.7135 13.3567 10.6433 13.2865 10.6 13.2V13.2C10.2223 12.4446 10.2223 11.5554 10.6 10.8V10.8Z" stroke="black" stroke-width="2" stroke-linejoin="round"/>
</svg>
