<svg width="24" height="24" viewBox="0 0 24 24" fill="none" xmlns="http://www.w3.org/2000/svg">
<path d="M14 12.1909V7.07108C14 5.84518 14.8127 4.76781 15.9914 4.43103C16.9774 4.14931 18.0226 4.14931 19.0086 4.43103L20.0151 4.71859C20.6245 4.89272 21.0947 5.37885 21.2484 5.99376L21.5704 7.28179C21.851 8.40396 21.8057 9.58286 21.4399 10.6802C21.1548 11.5356 20.5927 12.2715 19.8425 12.7717L18.9184 13.3877C18.3196 13.787 17.6159 14 16.8962 14H15.8091C14.8099 14 14 13.1901 14 12.1909Z" stroke="black" stroke-width="2" stroke-linejoin="round"/>
<path d="M8.47214 16.0557L7.46993 18.0601C7.18193 18.6361 6.5932 19 5.9492 19C4.25696 19 2.82224 17.7557 2.58292 16.0804L2.56854 15.9798C2.19143 13.34 2.19143 10.66 2.56854 8.0202L2.68548 7.20166C2.87331 5.88685 3.8814 4.83974 5.18814 4.60216L5.3839 4.56656C7.44441 4.19193 9.55559 4.19193 11.6161 4.56656C12.9966 4.81756 14 6.01988 14 7.42298V11.1803C14 13.2899 12.2899 15 10.1803 15C9.45695 15 8.79565 15.4087 8.47214 16.0557Z" stroke="black" stroke-width="2" stroke-linejoin="round"/>
<path d="M14 21L14 15.883C14 14.4916 14 13.7959 13.6225 13.2721C13.245 12.7483 12.5849 12.5283 11.2649 12.0883L10.7351 11.9117C9.41505 11.4717 8.75503 11.2517 8.37752 10.7279C8 10.2041 8 9.50841 8 8.11696V8" stroke="#808080" stroke-width="2" stroke-linejoin="round"/>
<path d="M14 21L14 13.1231C14 11.6232 14 10.8733 14.4236 10.3307C14.8472 9.78821 15.5747 9.60632 17.0299 9.24254L18 9" stroke="#808080" stroke-width="2" stroke-linejoin="round"/>
</svg>
