<svg width="24" height="24" viewBox="0 0 24 24" fill="none" xmlns="http://www.w3.org/2000/svg">
<path d="M11.8333 2.5C11.9383 2.18524 12.1852 1.93825 12.5 1.83333C13.1491 1.61696 13.8509 1.61696 14.5 1.83333C14.8148 1.93825 15.0617 2.18524 15.1667 2.5C15.383 3.14911 15.383 3.85089 15.1667 4.5C15.0617 4.81476 14.8148 5.06175 14.5 5.16667C13.8509 5.38304 13.1491 5.38304 12.5 5.16667C12.1852 5.06175 11.9383 4.81476 11.8333 4.5C11.617 3.85089 11.617 3.14911 11.8333 2.5Z" fill="#808080"/>
<path d="M13.382 22.691C13.1479 22.5739 13 22.3347 13 22.0729V17.8571C13 17.4346 13 17.2233 12.9191 17.0347C12.8383 16.846 12.6853 16.7003 12.3793 16.4089L10.9 15L10.7661 15.5893C10.357 17.3892 10.1525 18.2892 9.46804 18.7313C8.78362 19.1735 7.87913 18.99 6.07015 18.6229L3.28858 18.0586C3.10643 18.0216 2.95143 17.9029 2.86831 17.7366C2.64612 17.2922 2.71857 16.7571 3.05094 16.3878L3.13305 16.2966C3.29834 16.113 3.54878 16.031 3.79067 16.0814L6.22162 16.5878C7.1534 16.782 7.61929 16.879 7.96712 16.6485C8.31495 16.4181 8.40717 15.9512 8.59162 15.0174L9.8 8.9L9.12892 9.16097C8.65508 9.34525 8.41816 9.43738 8.25986 9.61162C8.19809 9.6796 8.14599 9.75577 8.10501 9.83798C8 10.0487 8 10.3029 8 10.8113V12.5729C8 12.8347 7.85213 13.0739 7.61803 13.191C7.22897 13.3855 6.77103 13.3855 6.38197 13.191C6.14787 13.0739 6 12.8347 6 12.5729V10.7241C6 9.6526 6 9.11683 6.23509 8.67581C6.29312 8.56696 6.36108 8.46371 6.43813 8.36738C6.75029 7.97709 7.24242 7.76529 8.22668 7.34168L9.95 6.6C10.5333 6.35 10.9625 6.1875 11.2375 6.1125C11.5125 6.0375 11.7667 6 12 6C12.35 6 12.675 6.09167 12.975 6.275C13.275 6.45833 13.5167 6.7 13.7 7L14.7 8.6C15.1333 9.3 15.7208 9.875 16.4625 10.325C17.0912 10.7065 17.7948 10.9263 18.5733 10.9844C18.8343 11.0038 19.0739 11.1479 19.191 11.382C19.3855 11.771 19.3855 12.229 19.191 12.618C19.0739 12.8521 18.8345 13.0027 18.5731 12.9883C17.6327 12.9363 16.7458 12.711 15.9125 12.3125C14.9542 11.8542 14.15 11.25 13.5 10.5L12.9 13.5L13.7586 14.3177C14.3706 14.9006 14.6766 15.192 14.8383 15.5693C15 15.9466 15 16.3692 15 17.2143V22.0729C15 22.3347 14.8521 22.5739 14.618 22.691C14.229 22.8855 13.771 22.8855 13.382 22.691Z" fill="black"/>
</svg>
