<svg width="24" height="24" viewBox="0 0 24 24" fill="none" xmlns="http://www.w3.org/2000/svg">
<path fill="black" d="M13.3333 3C13.4383 2.68524 13.6852 2.43825 14 2.33333C14.6491 2.11696 15.3509 2.11696 16 2.33333C16.3148 2.43825 16.5617 2.68524 16.6667 3C16.883 3.64911 16.883 4.35089 16.6667 5C16.5617 5.31476 16.3148 5.56175 16 5.66667C15.3509 5.88304 14.6491 5.88304 14 5.66667C13.6852 5.56175 13.4383 5.31476 13.3333 5C13.117 4.35089 13.117 3.64911 13.3333 3Z"/>
<path fill="black" d="M10.8 11.5L13.2 9.1L14 9.9C15.2495 11.1495 16.8685 11.9371 18.8571 11.9964C19.0124 12.001 19.1617 11.9383 19.2715 11.8284C19.7291 11.3709 19.7291 10.6291 19.2715 10.1716C19.1617 10.0617 19.0124 10.0015 18.8572 9.9947C17.47 9.93367 16.3509 9.35092 15.5 8.5L13.6 6.6C13.1 6.2 12.6 6 12 6C11.4 6 10.9 6.2 10.6 6.6L7.79995 9.4C7.39995 9.8 7.19995 10.3 7.19995 10.8C7.19995 11.4 7.39995 11.9 7.79995 12.2L10.317 14.4024C10.6531 14.6965 10.8212 14.8436 10.9106 15.0406C11 15.2375 11 15.4608 11 15.9075V19.7574C11 19.9127 11.0617 20.0617 11.1715 20.1716C11.6291 20.6291 12.3709 20.6291 12.8284 20.1716C12.9382 20.0617 13 19.9127 13 19.7574V15.405C13 14.6125 13 14.2162 12.8561 13.8577C12.7122 13.4992 12.4383 13.2129 11.8905 12.6401L10.8 11.5Z"/>
<rect fill="black" x="15" y="14" width="7" height="7" rx="3"/>
<rect fill="black" x="2" y="14" width="7" height="7" rx="3"/>
</svg>
