<svg width="24" height="24" viewBox="0 0 24 24" fill="none" xmlns="http://www.w3.org/2000/svg">
<path d="M4.44 6.96C4.78827 5.74107 5.74107 4.78827 6.96 4.44V4.44C10.2541 3.49883 13.7459 3.49883 17.04 4.44V4.44C18.2589 4.78827 19.2117 5.74107 19.56 6.96V6.96C20.5012 10.2541 20.5012 13.7459 19.56 17.04V17.04C19.2117 18.2589 18.2589 19.2117 17.04 19.56V19.56C13.7459 20.5012 10.2541 20.5012 6.96 19.56V19.56C5.74107 19.2117 4.78826 18.2589 4.44 17.04V17.04C3.49883 13.7459 3.49883 10.2541 4.44 6.96V6.96Z" stroke="black" stroke-width="2" stroke-linejoin="round"/>
<path d="M14.375 8.75C14.4561 8.58772 14.5877 8.45614 14.75 8.375C15.2221 8.13893 15.7779 8.13893 16.25 8.375C16.4123 8.45614 16.5439 8.58772 16.625 8.75C16.8611 9.22214 16.8611 9.77786 16.625 10.25C16.5439 10.4123 16.4123 10.5439 16.25 10.625C15.7779 10.8611 15.2221 10.8611 14.75 10.625C14.5877 10.5439 14.4561 10.4123 14.375 10.25C14.1389 9.77786 14.1389 9.22214 14.375 8.75Z" fill="black"/>
<path d="M7.375 8.75C7.45614 8.58772 7.58772 8.45614 7.75 8.375C8.22214 8.13893 8.77786 8.13893 9.25 8.375C9.41228 8.45614 9.54386 8.58772 9.625 8.75C9.86107 9.22214 9.86107 9.77786 9.625 10.25C9.54386 10.4123 9.41228 10.5439 9.25 10.625C8.77786 10.8611 8.22214 10.8611 7.75 10.625C7.58772 10.5439 7.45614 10.4123 7.375 10.25C7.13893 9.77786 7.13893 9.22214 7.375 8.75Z" fill="black"/>
<path d="M8 13L8.0883 13.2649C8.52832 14.5849 8.74832 15.245 9.2721 15.6225C9.79587 16 10.4916 16 11.883 16H12.117C13.5084 16 14.2041 16 14.7279 15.6225C15.2517 15.245 15.4717 14.5849 15.9117 13.2649L16 13" stroke="black" stroke-width="2" stroke-linejoin="round"/>
</svg>
