<svg width="24" height="24" viewBox="0 0 24 24" fill="none" xmlns="http://www.w3.org/2000/svg">
<path d="M10.875 11.25C10.9561 11.0877 11.0877 10.9561 11.25 10.875C11.7221 10.6389 12.2779 10.6389 12.75 10.875C12.9123 10.9561 13.0439 11.0877 13.125 11.25C13.3611 11.7221 13.3611 12.2779 13.125 12.75C13.0439 12.9123 12.9123 13.0439 12.75 13.125C12.2779 13.3611 11.7221 13.3611 11.25 13.125C11.0877 13.0439 10.9561 12.9123 10.875 12.75C10.6389 12.2779 10.6389 11.7221 10.875 11.25Z" fill="black"/>
<path d="M15.375 11.25C15.4561 11.0877 15.5877 10.9561 15.75 10.875C16.2221 10.6389 16.7779 10.6389 17.25 10.875C17.4123 10.9561 17.5439 11.0877 17.625 11.25C17.8611 11.7221 17.8611 12.2779 17.625 12.75C17.5439 12.9123 17.4123 13.0439 17.25 13.125C16.7779 13.3611 16.2221 13.3611 15.75 13.125C15.5877 13.0439 15.4561 12.9123 15.375 12.75C15.1389 12.2779 15.1389 11.7221 15.375 11.25Z" fill="black"/>
<path d="M6.375 11.25C6.45614 11.0877 6.58772 10.9561 6.75 10.875C7.22214 10.6389 7.77786 10.6389 8.25 10.875C8.41228 10.9561 8.54386 11.0877 8.625 11.25C8.86107 11.7221 8.86107 12.2779 8.625 12.75C8.54386 12.9123 8.41228 13.0439 8.25 13.125C7.77786 13.3611 7.22214 13.3611 6.75 13.125C6.58772 13.0439 6.45614 12.9123 6.375 12.75C6.13893 12.2779 6.13893 11.7221 6.375 11.25Z" fill="black"/>
<path d="M8 7.5V5.80776C8 4.74533 8.72307 3.81923 9.75379 3.56155V3.56155C11.2286 3.19286 12.7714 3.19286 14.2462 3.56155V3.56155C15.2769 3.81923 16 4.74533 16 5.80776V7.5M8 16.5L8 18.1922C8 19.2547 8.72308 20.1808 9.75379 20.4384V20.4384C11.2286 20.8071 12.7714 20.8071 14.2462 20.4384V20.4384C15.2769 20.1808 16 19.2547 16 18.1922V16.5" stroke="black" stroke-width="2" stroke-linejoin="round"/>
<path d="M17.9088 7.72118C19.1711 7.88948 20.2028 8.81125 20.5117 10.0467L20.576 10.3039C20.8544 11.4175 20.8544 12.5825 20.576 13.6961L20.5117 13.9533C20.2028 15.1888 19.1711 16.1105 17.9088 16.2788V16.2788C14.317 16.7577 10.6795 16.7858 7.08069 16.3624L6.37513 16.2794C4.94557 16.1112 3.76908 15.0763 3.41997 13.6799V13.6799C3.14423 12.5769 3.14423 11.4231 3.41997 10.3201V10.3201C3.76908 8.92366 4.94557 7.88876 6.37513 7.72057L7.08069 7.63757C10.6795 7.21418 14.317 7.24227 17.9088 7.72118V7.72118Z" stroke="black" stroke-width="2" stroke-linejoin="round"/>
</svg>
