<svg width="24" height="24" viewBox="0 0 24 24" fill="none" xmlns="http://www.w3.org/2000/svg">
<path d="M23 15L1 15" stroke="#808080" stroke-width="2" stroke-linejoin="round"/>
<path d="M23 9L1 9" stroke="#808080" stroke-width="2" stroke-linejoin="round"/>
<path d="M20 12L4 12" stroke="black" stroke-width="2" stroke-linejoin="round"/>
<path d="M7.41691 5.57289C8.02984 5.49627 8.3363 5.45796 8.64239 5.42567C10.8746 5.19015 13.1254 5.19015 15.3576 5.42567C15.6637 5.45796 15.9702 5.49627 16.5831 5.57289L16.8135 5.60169C17.0302 5.62877 17.1385 5.64231 17.2355 5.65931C18.8359 5.93991 20.1075 7.16071 20.4531 8.74833C20.4741 8.84452 20.492 8.9522 20.5279 9.16757V9.16757C20.5615 9.369 20.5783 9.46972 20.5937 9.57003C20.8412 11.1806 20.8412 12.8194 20.5937 14.43C20.5783 14.5303 20.5615 14.631 20.5279 14.8324V14.8324C20.492 15.0478 20.4741 15.1555 20.4531 15.2517C20.1075 16.8393 18.8359 18.0601 17.2355 18.3407C17.1385 18.3577 17.0302 18.3712 16.8135 18.3983L16.5831 18.4271C15.9702 18.5037 15.6637 18.542 15.3576 18.5743C13.1254 18.8098 10.8746 18.8098 8.64239 18.5743C8.3363 18.542 8.02984 18.5037 7.41691 18.4271L7.18647 18.3983C6.96981 18.3712 6.86149 18.3577 6.76453 18.3407C5.16413 18.0601 3.89248 16.8393 3.54685 15.2517C3.52591 15.1555 3.50797 15.0478 3.47207 14.8324V14.8324C3.4385 14.631 3.42171 14.5303 3.4063 14.43C3.15883 12.8194 3.15883 11.1806 3.4063 9.57003C3.42171 9.46972 3.4385 9.369 3.47207 9.16757V9.16757C3.50797 8.9522 3.52591 8.84452 3.54685 8.74833C3.89248 7.16071 5.16413 5.93991 6.76453 5.65931C6.86149 5.64231 6.96981 5.62877 7.18647 5.60169L7.41691 5.57289Z" stroke="black" stroke-width="2" stroke-linejoin="round"/>
</svg>
