<svg width="24" height="24" viewBox="0 0 24 24" fill="none" xmlns="http://www.w3.org/2000/svg">
<path d="M14 10L20 4" stroke="black" stroke-width="2" stroke-linejoin="round"/>
<path d="M10 14L4 20" stroke="black" stroke-width="2" stroke-linejoin="round"/>
<path d="M19 10L16.2191 10.927C16.0755 10.9748 15.922 10.9844 15.7736 10.9547V10.9547C14.3968 10.6794 13.3206 9.60319 13.0453 8.22642V8.22642C13.0156 8.07804 13.0252 7.92449 13.073 7.78095L14 5" stroke="black" stroke-width="2" stroke-linejoin="round"/>
<path d="M5 14L7.78095 13.073C7.92449 13.0252 8.07804 13.0156 8.22642 13.0453V13.0453C9.60319 13.3206 10.6794 14.3968 10.9547 15.7736V15.7736C10.9844 15.922 10.9748 16.0755 10.927 16.2191L10 19" stroke="black" stroke-width="2" stroke-linejoin="round"/>
</svg>
