<svg width="24" height="24" viewBox="0 0 24 24" fill="none" xmlns="http://www.w3.org/2000/svg">
<path fill-rule="evenodd" clip-rule="evenodd" d="M20.4867 17.0724C20.8151 16.4561 21 15.754 21 15.0131V13.0001H19V15.0131C19 15.1901 18.9806 15.3629 18.9437 15.5295L20.4867 17.0724ZM17.7148 17.129C17.4701 17.2561 17.1998 17.3423 16.9121 17.3783C13.6501 17.786 10.3499 17.786 7.0879 17.3783C5.89511 17.2292 5 16.2152 5 15.0131V13.0001H3V15.0131C3 17.2239 4.64618 19.0886 6.83984 19.3628C8.2218 19.5356 9.61027 19.6387 11 19.6721V22.0001H13V19.6721C14.3897 19.6387 15.7782 19.5356 17.1602 19.3628C17.9064 19.2696 18.5893 18.9922 19.1656 18.5798L17.7148 17.129ZM16.9541 13.5399C17.1033 13.2442 17.212 12.9244 17.2731 12.5881L17.2911 12.489C17.7707 9.85132 17.7707 7.14881 17.2911 4.51117L17.2731 4.41204C17.0268 3.05706 16.01 1.97178 14.6739 1.63776C12.9183 1.19887 11.0817 1.19887 9.32613 1.63776C8.27889 1.89957 7.42781 2.62292 6.99013 3.57592L8.61852 5.20431C8.63694 5.0924 8.6563 4.98061 8.6766 4.86894L8.69462 4.76982C8.80045 4.18774 9.23725 3.72153 9.8112 3.57805C11.2483 3.21878 12.7517 3.21878 14.1888 3.57805C14.7628 3.72154 15.1995 4.18774 15.3054 4.76981L15.3234 4.86894C15.7485 7.20717 15.7597 9.6014 15.3568 11.9426L16.9541 13.5399ZM14.043 13.4573L15.5808 14.995C15.3014 15.1569 14.997 15.2816 14.6739 15.3624C12.9183 15.8013 11.0817 15.8013 9.32613 15.3624C7.99004 15.0284 6.97324 13.9431 6.72688 12.5881L6.70886 12.489C6.31398 10.3171 6.24424 8.10127 6.49966 5.91388L8.36209 7.7763C8.31014 9.2322 8.41498 10.6923 8.6766 12.1312L8.69462 12.2303C8.80045 12.8124 9.23725 13.2786 9.8112 13.4221C11.1998 13.7692 12.6503 13.781 14.043 13.4573Z" fill="black"/>
<path d="M3 3L21 21" stroke="#808080" stroke-width="2" stroke-linejoin="round"/>
</svg>
