<svg width="24" height="24" viewBox="0 0 24 24" fill="none" xmlns="http://www.w3.org/2000/svg">
<path d="M6 11H7.28286C7.75447 11 8.21961 11.1098 8.64143 11.3207V11.3207C9.49667 11.7483 10.5033 11.7483 11.3586 11.3207L12.6414 10.6793C13.4967 10.2517 14.5033 10.2517 15.3586 10.6793V10.6793C15.7804 10.8902 16.2455 11 16.7171 11H18" stroke="#808080" stroke-width="2" stroke-linejoin="round"/>
<path d="M18 4H6L5.97028 4.20805C5.88683 4.79217 5.84511 5.08423 5.80904 5.37457C5.34714 9.09216 5.54161 12.862 6.38359 16.5123C6.44935 16.7974 6.52091 17.0836 6.66402 17.6561L6.66402 17.6561C6.69199 17.768 6.70597 17.8239 6.72165 17.8749C6.92632 18.5405 7.46249 19.0517 8.1371 19.2245C8.18878 19.2378 8.24532 19.2491 8.3584 19.2717L8.41711 19.2834L8.4172 19.2834C8.86025 19.372 9.08179 19.4164 9.30256 19.4541C11.0879 19.7595 12.9121 19.7595 14.6974 19.4541C14.9182 19.4164 15.1398 19.372 15.5829 19.2834L15.6416 19.2717C15.7547 19.2491 15.8112 19.2378 15.8629 19.2245C16.5375 19.0517 17.0737 18.5405 17.2784 17.8749C17.294 17.8239 17.308 17.7679 17.336 17.6561L17.336 17.6561C17.4791 17.0836 17.5506 16.7974 17.6164 16.5123C18.4584 12.862 18.6529 9.09216 18.191 5.37457C18.1549 5.08423 18.1132 4.79217 18.0297 4.20805L18 4Z" stroke="black" stroke-width="2" stroke-linejoin="round"/>
</svg>
