<svg width="24" height="24" viewBox="0 0 24 24" fill="none" xmlns="http://www.w3.org/2000/svg">
<path fill="black" d="M9 9L15 15"/>
<path fill="black" d="M14.6334 3.02492C15.471 2.39678 16.5915 2.29574 17.5279 2.76393V2.76393C19.1326 3.56628 20.4337 4.86745 21.2361 6.47214V6.47214C21.7043 7.40851 21.6032 8.52904 20.9751 9.36656L20.5836 9.88854C17.5433 13.9423 13.9423 17.5433 9.88854 20.5836L9.36656 20.9751C8.52904 21.6032 7.40851 21.7043 6.47214 21.2361V21.2361C4.86744 20.4337 3.56627 19.1326 2.76393 17.5279V17.5279C2.29574 16.5915 2.39678 15.471 3.02492 14.6334L3.41641 14.1115C6.4567 10.0577 10.0577 6.4567 14.1115 3.41641L14.6334 3.02492Z"/>
</svg>
