<svg width="24" height="24" viewBox="0 0 24 24" fill="none" xmlns="http://www.w3.org/2000/svg">
<path d="M5.57671 7.38629C5.82785 5.37722 7.36905 3.77182 9.36621 3.43897V3.43897C11.11 3.14833 12.89 3.14833 14.6338 3.43897V3.43897C16.6309 3.77182 18.1722 5.37722 18.4233 7.38629L18.4985 7.9881C18.8315 10.6523 18.8315 13.3477 18.4985 16.0119L18.2482 18.0148C18.1198 19.0418 17.0839 19.6946 16.102 19.3673L16.0525 19.3508C15.3604 19.1201 14.7314 18.7314 14.2155 18.2155V18.2155C12.9919 16.9919 11.0081 16.9919 9.78451 18.2155V18.2155C9.26859 18.7314 8.63964 19.1201 7.94747 19.3508L7.89803 19.3673C6.91611 19.6946 5.88022 19.0418 5.75184 18.0148L5.50149 16.0119C5.16846 13.3477 5.16846 10.6523 5.50149 7.9881L5.57671 7.38629Z" stroke="black" stroke-width="2" stroke-linejoin="round"/>
<path d="M10.6 7.8C10.6433 7.71345 10.7135 7.64327 10.8 7.6V7.6C11.5554 7.22229 12.4446 7.22229 13.2 7.6V7.6C13.2865 7.64327 13.3567 7.71345 13.4 7.8V7.8C13.7777 8.55542 13.7777 9.44458 13.4 10.2V10.2C13.3567 10.2865 13.2865 10.3567 13.2 10.4V10.4C12.4446 10.7777 11.5554 10.7777 10.8 10.4V10.4C10.7135 10.3567 10.6433 10.2865 10.6 10.2V10.2C10.2223 9.44458 10.2223 8.55542 10.6 7.8V7.8Z" stroke="#808080" stroke-width="2" stroke-linejoin="round"/>
</svg>
