<svg width="24" height="24" viewBox="0 0 24 24" fill="none" xmlns="http://www.w3.org/2000/svg">
<path d="M13.8731 9.50749L14 9L14.1269 9.50749C14.5523 11.2091 14.765 12.0599 15.3525 12.6475C15.9401 13.235 16.7909 13.4477 18.4925 13.8731L19 14L18.4925 14.1269C16.7909 14.5523 15.9401 14.765 15.3525 15.3525C14.765 15.9401 14.5523 16.7909 14.1269 18.4925L14 19L13.8731 18.4925C13.4477 16.7909 13.235 15.9401 12.6475 15.3525C12.0599 14.765 11.2091 14.5523 9.50749 14.1269L9.50749 14.1269L9 14L9.50749 13.8731C11.2091 13.4477 12.0599 13.235 12.6475 12.6475C13.235 12.0599 13.4477 11.2091 13.8731 9.50749Z" stroke="black" stroke-width="2"/>
<path d="M6.76678 7.03971C6.65425 7.11525 6.5195 7.16017 6.25 7.25C5.57859 7.4738 5.24289 7.5857 5.14802 7.75018C5.05884 7.90479 5.05884 8.09521 5.14802 8.24982C5.24289 8.4143 5.57859 8.5262 6.25 8.75C6.5195 8.83983 6.65425 8.88475 6.76678 8.96029C6.87462 9.03268 6.96732 9.12538 7.03971 9.23322C7.11525 9.34575 7.16017 9.4805 7.25 9.75C7.4738 10.4214 7.5857 10.7571 7.75018 10.852C7.90479 10.9412 8.09521 10.9412 8.24982 10.852C8.4143 10.7571 8.5262 10.4214 8.75 9.75C8.83983 9.4805 8.88475 9.34575 8.96029 9.23322C9.03268 9.12538 9.12538 9.03268 9.23322 8.96029C9.34575 8.88475 9.4805 8.83983 9.75 8.75C10.4214 8.5262 10.7571 8.4143 10.852 8.24982C10.9412 8.09521 10.9412 7.90479 10.852 7.75018C10.7571 7.5857 10.4214 7.4738 9.75 7.25C9.4805 7.16017 9.34575 7.11525 9.23322 7.03971C9.12538 6.96732 9.03268 6.87462 8.96029 6.76678C8.88475 6.65425 8.83983 6.5195 8.75 6.25C8.5262 5.57859 8.4143 5.24289 8.24982 5.14802C8.09521 5.05884 7.90479 5.05884 7.75018 5.14802C7.5857 5.24289 7.4738 5.57859 7.25 6.25C7.16017 6.5195 7.11525 6.65425 7.03971 6.76678C6.96732 6.87462 6.87462 6.96732 6.76678 7.03971Z" fill="#808080"/>
</svg>
