<svg width="24" height="24" viewBox="0 0 24 24" fill="none" xmlns="http://www.w3.org/2000/svg">
<path d="M4.44 6.96C4.78827 5.74107 5.74107 4.78827 6.96 4.44V4.44C10.2541 3.49883 13.7459 3.49883 17.04 4.44V4.44C18.2589 4.78827 19.2117 5.74107 19.56 6.96V6.96C20.5012 10.2541 20.5012 13.7459 19.56 17.04V17.04C19.2117 18.2589 18.2589 19.2117 17.04 19.56V19.56C13.7459 20.5012 10.2541 20.5012 6.96 19.56V19.56C5.74107 19.2117 4.78826 18.2589 4.44 17.04V17.04C3.49883 13.7459 3.49883 10.2541 4.44 6.96V6.96Z" stroke="black" stroke-width="2" stroke-linejoin="round"/>
<path d="M12 18L12 7" stroke="black" stroke-width="2" stroke-linejoin="round"/>
<path d="M17 12L15.189 8.37802C15.0651 8.1303 14.8788 7.91919 14.6483 7.76556V7.76556C13.0446 6.69642 10.9554 6.69642 9.35165 7.76556V7.76556C9.12121 7.91919 8.93485 8.1303 8.81099 8.37802L7 12" stroke="black" stroke-width="2" stroke-linejoin="round"/>
</svg>
