<svg width="24" height="24" viewBox="0 0 24 24" fill="none" xmlns="http://www.w3.org/2000/svg">
<path fill="black" d="M10 8L9.86658 8.46698C9.30019 10.4493 9.30019 12.5507 9.86658 14.533L9.92144 14.725C9.9715 14.9002 10.0928 15.0464 10.2558 15.1279L10.2857 15.1429C11.3649 15.6824 12.6351 15.6824 13.7143 15.1429V15.1429C13.8941 15.0529 14.0212 14.8836 14.0571 14.6857L14.2282 13.7448C14.7386 10.9379 14.7386 8.06207 14.2282 5.25522V5.25522C14.0893 4.49103 13.5158 3.87896 12.7623 3.69057L12.5837 3.64592C10.8873 3.22183 9.11266 3.22183 7.4163 3.64592V3.64592C6.56268 3.85933 5.92806 4.57552 5.81892 5.44862L5.47207 8.22343C5.15858 10.7314 5.15858 13.2686 5.47207 15.7766L5.60169 16.8135C5.83801 18.704 7.28827 20.2147 9.16757 20.5279L9.35763 20.5596C11.1071 20.8512 12.8929 20.8512 14.6424 20.5596V20.5596C16.5799 20.2367 18 18.5603 18 16.5961V7.5"/>
</svg>
