<svg width="24" height="24" viewBox="0 0 24 24" fill="none" xmlns="http://www.w3.org/2000/svg">
<path d="M14.7209 21.0655C13.6011 21.0827 12.4907 20.7446 11.5654 20.1136V20.1136C8.57652 18.0752 5.96836 15.4525 3.96155 12.4423L3.81938 12.2291C3.2851 11.4277 3 10.486 3 9.52284L3 8.11427C3 6.20564 4.07836 4.46082 5.78549 3.60726V3.60726C6.4939 3.25305 7.35348 3.44185 7.84825 4.06032L9.75432 6.44291C10.4962 7.37022 10.5526 8.671 9.89389 9.6591L9.19109 10.7133C9.0705 10.8942 9.04018 11.1206 9.10893 11.3268V11.3268C9.66985 13.0096 10.9903 14.3301 12.6731 14.891L12.7185 14.9061C12.8987 14.9662 13.0954 14.9522 13.2654 14.8673L14.9611 14.0194C16.1504 13.4248 17.5934 13.7417 18.424 14.78L20.2862 17.1078C20.7113 17.6391 20.7437 18.3845 20.3662 18.9507V18.9507C19.5108 20.2338 18.0792 21.0141 16.5374 21.0377L14.7209 21.0655Z" stroke="black" stroke-width="2" stroke-linejoin="round"/>
</svg>
