<svg width="24" height="24" viewBox="0 0 24 24" fill="none" xmlns="http://www.w3.org/2000/svg">
<path fill="black" d="M4 10.22C4 9.43883 4.3103 8.6897 4.86264 8.13736V8.13736C6.27285 6.72715 7.9548 5.61808 9.80648 4.87741L10.5978 4.5609C11.4979 4.20083 12.5021 4.20083 13.4022 4.5609L14.1935 4.87741C16.0452 5.61808 17.7272 6.72715 19.1374 8.13736V8.13736C19.6897 8.6897 20 9.43883 20 10.22V17.0131C20 18.7195 18.7294 20.1588 17.0361 20.3705V20.3705C13.6917 20.7885 10.3083 20.7885 6.96387 20.3705V20.3705C5.27065 20.1588 4 18.7195 4 17.0131V10.22Z"/>
<path fill="black" d="M9 21V16.3246C9 15.5335 9.50616 14.8313 10.2566 14.5811V14.5811C11.3883 14.2039 12.6117 14.2039 13.7434 14.5811V14.5811C14.4938 14.8313 15 15.5335 15 16.3246V21"/>
</svg>
