<svg width="24" height="24" viewBox="0 0 24 24" fill="none" xmlns="http://www.w3.org/2000/svg">
<path d="M16.8362 10.6207C15.6162 9.92354 15.0062 9.57497 14.7366 9.01139C14.6659 8.86356 14.6137 8.70759 14.581 8.54701C14.4565 7.93481 14.7333 7.28905 15.2868 5.99751L15.9547 4.439C16.057 4.20034 16.1081 4.08101 16.1274 4.0056C16.3098 3.28975 15.6798 2.63 14.9563 2.77925C14.8801 2.79497 14.7585 2.84055 14.5154 2.93173L14.2837 3.01862C13.8697 3.17385 13.6628 3.25147 13.4593 3.33202C10.548 4.48474 7.89036 6.19602 5.63624 8.3694C5.47873 8.52127 5.32243 8.67757 5.00982 8.99018V8.99018C4.86728 9.13272 4.79602 9.20398 4.745 9.26371C3.97156 10.1692 4.15591 11.5459 5.14036 12.216C5.20529 12.2602 5.2928 12.3102 5.46782 12.4102L7.16379 13.3793C8.3838 14.0765 8.9938 14.425 9.26336 14.9886C9.33406 15.1364 9.38633 15.2924 9.41899 15.453C9.54349 16.0652 9.26673 16.711 8.71322 18.0025L8.04529 19.561C7.943 19.7997 7.89186 19.919 7.87264 19.9944C7.69019 20.7102 8.3202 21.37 9.0437 21.2208C9.11992 21.205 9.24148 21.1594 9.4846 21.0683L9.71633 20.9814C10.1303 20.8261 10.3372 20.7485 10.5407 20.668C13.452 19.5153 16.1096 17.804 18.3638 15.6306C18.5213 15.4787 18.6776 15.3224 18.9902 15.0098V15.0098C19.1327 14.8673 19.204 14.796 19.255 14.7363C20.0284 13.8308 19.8441 12.4541 18.8596 11.784C18.7947 11.7398 18.7072 11.6898 18.5322 11.5898L16.8362 10.6207Z" stroke="black" stroke-width="2" stroke-linejoin="round"/>
</svg>
