<svg width="24" height="24" viewBox="0 0 24 24" fill="none" xmlns="http://www.w3.org/2000/svg">
<path fill="black" d="M4.89525 9H19.1048C19.1682 9 19.1999 9 19.2215 9.00093C19.9715 9.03333 20.4197 9.84982 20.0444 10.5C20.0336 10.5187 20.0165 10.5454 19.9825 10.5989C19.8866 10.7496 19.8387 10.8249 19.7906 10.899C18.2621 13.2547 16.2547 15.2621 13.899 16.7906C13.8249 16.8387 13.7496 16.8866 13.5989 16.9825L13.2244 17.2208L13.2244 17.2209C13.0792 17.3132 13.0066 17.3594 12.9364 17.3967C12.3507 17.707 11.6493 17.707 11.0636 17.3967C10.9934 17.3594 10.9208 17.3132 10.7756 17.2208L10.4011 16.9825L10.4009 16.9824C10.2504 16.8866 10.1751 16.8387 10.101 16.7906C7.74529 15.2621 5.73786 13.2547 4.20938 10.899C4.1613 10.8249 4.11337 10.7496 4.01751 10.5989L4.01749 10.5989C3.98345 10.5454 3.96642 10.5187 3.95563 10.5C3.58029 9.84982 4.0285 9.03333 4.77852 9.00093C4.80009 9 4.83181 9 4.89525 9Z"/>
</svg>
