<svg width="24" height="24" viewBox="0 0 24 24" fill="none" xmlns="http://www.w3.org/2000/svg">
<path fill="black" d="M6 8.2626V12.1433C6 13.2697 6.67128 14.2877 7.70661 14.7314L8.83674 15.2157C11.4513 16.3363 14.4606 16.1237 16.8997 14.6602C17.6234 14.226 18.2604 13.6528 18.7668 12.9777C20.193 11.0759 20.7789 8.67337 20.3881 6.32858L20.2996 5.79733C20.1212 4.72715 19.2702 3.89575 18.1962 3.74231L15.7802 3.39718C13.9361 3.13373 12.0639 3.13373 10.2198 3.39718C7.79848 3.74307 6 5.81674 6 8.2626Z"/>
<path fill="black" d="M15 9H14C10.2288 9 8.34315 9 7.17157 10.1716C6 11.3431 6 13.2288 6 17V21"/>
</svg>
