<svg width="24" height="24" viewBox="0 0 24 24" fill="none" xmlns="http://www.w3.org/2000/svg">
<path d="M16 8L8 16" stroke="black" stroke-width="2" stroke-linejoin="round"/>
<path d="M9.99994 5.70501C10.8179 5.15209 11.6905 4.67253 12.6088 4.27533C13.0145 4.09984 13.4478 3.94019 14.3145 3.62089L14.8126 3.4374C15.5751 3.15648 16.4162 3.17831 17.1631 3.49842C18.6633 4.14133 19.8586 5.33667 20.5015 6.8368C20.8216 7.5837 20.8434 8.42485 20.5625 9.18736L20.379 9.6854C20.0597 10.5521 19.9001 10.9854 19.7246 11.3911C19.3274 12.3094 18.8478 13.182 18.2949 13.9999M5.70503 9.99994C5.15213 10.8178 4.67258 11.6904 4.27539 12.6087C4.09991 13.0144 3.94025 13.4478 3.62095 14.3145L3.43746 14.8125C3.15654 15.575 3.17838 16.4162 3.49848 17.1631C4.14139 18.6632 5.33673 19.8585 6.83686 20.5014C7.58376 20.8215 8.42491 20.8434 9.18742 20.5625L9.68546 20.379C10.5521 20.0597 10.9855 19.9 11.3912 19.7245C12.3095 19.3273 13.1821 18.8478 13.9999 18.2949" stroke="black" stroke-width="2" stroke-linejoin="round"/>
</svg>
