<svg width="24" height="24" viewBox="0 0 24 24" fill="none" xmlns="http://www.w3.org/2000/svg">
<path d="M3 14L9 14" stroke="#808080" stroke-width="2" stroke-linejoin="round"/>
<path d="M21 17L15 17" stroke="#808080" stroke-width="2" stroke-linejoin="round"/>
<path d="M3.2309 5.30731L3.36736 4.89793C3.76139 3.71584 4.73203 2.81699 5.94086 2.51479L6.34929 2.41268C7.42737 2.14316 8.55996 2.18665 9.61419 2.53806C10.4866 2.82886 11.1711 3.51342 11.4619 4.38581L11.4849 4.45472C11.8225 5.46736 11.8899 6.55055 11.6806 7.59724L11.1247 10.3763C11.1188 10.4059 11.1159 10.4207 11.1127 10.4352C11.0338 10.8015 10.8536 11.1383 10.5926 11.4071C10.5823 11.4177 10.5716 11.4284 10.5503 11.4497L9.78916 12.2108L9.78915 12.2108C9.58921 12.4108 9.48923 12.5108 9.4067 12.6195C9.19895 12.8934 9.06527 13.2161 9.01856 13.5566C9 13.6919 9 13.8333 9 14.116V16.3572C9 17.3383 8.37223 18.2093 7.44152 18.5195C6.50581 18.8314 5.49419 18.8314 4.55848 18.5195L4.46919 18.4897C3.57355 18.1912 2.93324 17.3991 2.82898 16.4608L2.42985 12.8686C2.14666 10.3199 2.41996 7.74011 3.2309 5.30731Z" stroke="black" stroke-width="2" stroke-linejoin="round"/>
<path d="M20.7691 8.30731L20.6326 7.89793C20.2386 6.71584 19.268 5.81699 18.0591 5.51479L17.6507 5.41268C16.5726 5.14316 15.44 5.18665 14.3858 5.53806C13.5134 5.82886 12.8289 6.51342 12.5381 7.38581L12.5151 7.45472C12.1775 8.46736 12.1101 9.55055 12.3194 10.5972L12.8753 13.3763C12.8812 13.4059 12.8841 13.4207 12.8873 13.4352C12.9662 13.8015 13.1464 14.1383 13.4074 14.4071C13.4177 14.4177 13.4284 14.4284 13.4497 14.4497L14.2108 15.2108L14.2108 15.2108C14.4108 15.4108 14.5108 15.5108 14.5933 15.6195C14.801 15.8934 14.9347 16.2161 14.9814 16.5566C15 16.6919 15 16.8333 15 17.116V19.3572C15 20.3383 15.6278 21.2093 16.5585 21.5195C17.4942 21.8314 18.5058 21.8314 19.4415 21.5195L19.5308 21.4897C20.4264 21.1912 21.0668 20.3991 21.171 19.4608L21.5702 15.8686C21.8533 13.3199 21.58 10.7401 20.7691 8.30731Z" stroke="black" stroke-width="2" stroke-linejoin="round"/>
</svg>
