<svg width="24" height="24" viewBox="0 0 24 24" fill="none" xmlns="http://www.w3.org/2000/svg">
<path d="M2.91721 10.1656C2.97215 10.0557 3.04166 9.95371 3.12385 9.86239L3.79947 9.1117C4.50428 8.32857 4.85669 7.93701 5.17305 7.64143C9.01617 4.05082 14.9838 4.05082 18.8269 7.64143C19.1433 7.93701 19.4957 8.32857 20.2005 9.1117L20.8762 9.86239C20.9583 9.95371 21.0278 10.0557 21.0828 10.1656V10.1656C21.6602 11.3204 21.6602 12.6796 21.0828 13.8344V13.8344C21.0278 13.9443 20.9583 14.0463 20.8762 14.1376L20.2005 14.8883C19.4957 15.6714 19.1433 16.063 18.8269 16.3586C14.9838 19.9492 9.01617 19.9492 5.17305 16.3586C4.85669 16.063 4.50428 15.6714 3.79947 14.8883L3.12385 14.1376C3.04166 14.0463 2.97215 13.9443 2.91721 13.8344V13.8344C2.33981 12.6796 2.33981 11.3204 2.91721 10.1656V10.1656Z" stroke="black" stroke-width="2" stroke-linejoin="round"/>
<path d="M8.57143 10.2857C8.84122 9.47634 9.47634 8.84122 10.2857 8.57143V8.57143C11.3985 8.20051 12.6015 8.20051 13.7143 8.57143V8.57143C14.5237 8.84122 15.1588 9.47634 15.4286 10.2857V10.2857C15.7995 11.3985 15.7995 12.6015 15.4286 13.7143V13.7143C15.1588 14.5237 14.5237 15.1588 13.7143 15.4286V15.4286C12.6015 15.7995 11.3985 15.7995 10.2857 15.4286V15.4286C9.47634 15.1588 8.84122 14.5237 8.57143 13.7143V13.7143C8.20051 12.6015 8.20051 11.3985 8.57143 10.2857V10.2857Z" stroke="black" stroke-width="2" stroke-linejoin="round"/>
</svg>
