<svg width="24" height="24" viewBox="0 0 24 24" fill="none" xmlns="http://www.w3.org/2000/svg">
<path fill="black" d="M14.0902 2.69675C12.7334 2.24448 11.2576 2.24745 9.90085 2.69972V2.69972C9.34466 2.88511 8.92341 3.35102 8.79844 3.92382L8.46471 5.45343C8.19507 6.68926 8.06025 7.30718 7.63725 7.72436C7.21424 8.14154 6.59451 8.26778 5.35506 8.52026L3.93699 8.80913C3.35726 8.92722 2.88444 9.34667 2.69735 9.90795V9.90795C2.24509 11.2647 2.24448 12.7334 2.69675 14.0902V14.0902C2.88427 14.6528 3.35886 15.0718 3.94035 15.1881L5.38512 15.477C6.65261 15.7305 7.28635 15.8573 7.71454 16.2855C8.14273 16.7136 8.26948 17.3474 8.52298 18.6149L8.81193 20.0597C8.92823 20.6411 9.34719 21.1157 9.90976 21.3033V21.3033C11.2666 21.7555 12.7334 21.7555 14.0902 21.3033V21.3033C14.6528 21.1157 15.0718 20.6411 15.1881 20.0597L15.477 18.6149C15.7305 17.3474 15.8573 16.7136 16.2855 16.2855C16.7136 15.8573 17.3474 15.7305 18.6149 15.477L20.0597 15.1881C20.6411 15.0718 21.1157 14.6528 21.3033 14.0902V14.0902C21.7555 12.7334 21.7555 11.2666 21.3033 9.90976V9.90976C21.1157 9.34719 20.6411 8.92823 20.0597 8.81193L18.6149 8.52298C17.3474 8.26948 16.7136 8.14273 16.2855 7.71454C15.8573 7.28635 15.7305 6.65261 15.477 5.38512L15.1881 3.94035C15.0718 3.35886 14.6528 2.88427 14.0902 2.69675V2.69675Z"/>
</svg>
