<svg width="24" height="24" viewBox="0 0 24 24" fill="none" xmlns="http://www.w3.org/2000/svg">
<path d="M9 21V16.3246C9 15.5335 9.50616 14.8313 10.2566 14.5811V14.5811C11.3883 14.2039 12.6117 14.2039 13.7434 14.5811V14.5811C14.4938 14.8313 15 15.5335 15 16.3246V21" stroke="#808080" stroke-width="2" stroke-linejoin="round"/>
<path d="M4 13.8341C4 13.2841 4.1154 12.7403 4.33875 12.2378V12.2378C5.42812 9.78674 7.12648 7.65514 9.27228 6.04579L10.4107 5.19198C11.3525 4.48562 12.6475 4.48562 13.5893 5.19198L14.7277 6.04579C16.8735 7.65514 18.5719 9.78674 19.6613 12.2378V12.2378C19.8846 12.7403 20 13.2841 20 13.8341V17.0131C20 18.7195 18.7294 20.1588 17.0361 20.3705V20.3705C13.6917 20.7885 10.3083 20.7885 6.96387 20.3705V20.3705C5.27065 20.1588 4 18.7195 4 17.0131V13.8341Z" stroke="black" stroke-width="2" stroke-linejoin="round"/>
</svg>
