<svg width="24" height="24" viewBox="0 0 24 24" fill="none" xmlns="http://www.w3.org/2000/svg">
<path fill="black" d="M8.57143 5.28571C8.84122 4.47634 9.47634 3.84122 10.2857 3.57143V3.57143C11.3985 3.20051 12.6015 3.20051 13.7143 3.57143V3.57143C14.5237 3.84122 15.1588 4.47634 15.4286 5.28571V5.28571C15.7995 6.39848 15.7995 7.60152 15.4286 8.71429V8.71429C15.1588 9.52366 14.5237 10.1588 13.7143 10.4286V10.4286C12.6015 10.7995 11.3985 10.7995 10.2857 10.4286V10.4286C9.47634 10.1588 8.84122 9.52366 8.57143 8.71429V8.71429C8.20051 7.60152 8.20051 6.39848 8.57143 5.28571V5.28571Z"/>
<path fill="black" d="M4 18.167C4 18.2304 4 18.2621 4.00076 18.2897C4.02747 19.2561 4.74159 20.065 5.6972 20.2114C5.72451 20.2156 5.75596 20.2195 5.81887 20.2274V20.2274C6.04594 20.2557 6.15948 20.2699 6.27269 20.2835C10.0772 20.7408 13.9228 20.7408 17.7273 20.2835C17.8405 20.2699 17.9541 20.2557 18.1811 20.2274V20.2274C18.244 20.2195 18.2755 20.2156 18.3028 20.2114C19.2584 20.065 19.9725 19.2561 19.9992 18.2897C20 18.2621 20 18.2304 20 18.167V17.3057C20 15.9188 19.1397 14.6774 17.8411 14.1904V14.1904C14.0751 12.7782 9.92491 12.7782 6.15888 14.1904V14.1904C4.8603 14.6774 4 15.9188 4 17.3057V18.167Z"/>
</svg>
