<svg width="24" height="24" viewBox="0 0 24 24" fill="none" xmlns="http://www.w3.org/2000/svg">
<path fill="black" d="M12 15L12 22"/>
<path fill="black" d="M6.54545 6.27273C6.82071 4.89647 7.89647 3.82071 9.27273 3.54545V3.54545C11.0731 3.18538 12.9269 3.18538 14.7273 3.54545V3.54545C16.1035 3.82071 17.1793 4.89647 17.4545 6.27273V6.27273C17.8146 8.07308 17.8146 9.92692 17.4545 11.7273V11.7273C17.1793 13.1035 16.1035 14.1793 14.7273 14.4545V14.4545C12.9269 14.8146 11.0731 14.8146 9.27273 14.4545V14.4545C7.89647 14.1793 6.82071 13.1035 6.54545 11.7273V11.7273C6.18538 9.92692 6.18538 8.07308 6.54545 6.27273V6.27273Z"/>
<path fill="black" d="M8 19H16"/>
</svg>
