<svg width="24" height="24" viewBox="0 0 24 24" fill="none" xmlns="http://www.w3.org/2000/svg">
<path fill="black" d="M8 10V17.5294V18"/>
<path fill="black" d="M5.15767 10H6.59993C7.51987 10 7.97984 10 8.36538 9.83C8.62159 9.71703 8.85122 9.55153 9.03941 9.34419C9.3226 9.03219 9.46806 8.59582 9.75897 7.72309L10.6026 5.1921C10.7654 4.7037 10.8468 4.4595 11.0141 4.29245C11.0898 4.21679 11.1773 4.15379 11.273 4.10586C11.4844 4 11.7418 4 12.2566 4C12.9525 4 13.3005 4 13.5513 4.16567C13.6637 4.23998 13.76 4.33627 13.8343 4.44874C14 4.69947 14 5.04746 14 5.74342V7.77304C14 7.9838 14 8.08919 14.0079 8.17802C14.0941 9.14196 14.858 9.90592 15.822 9.99206C15.9108 10 16.0162 10 16.227 10H17.9862C19.1483 10 20.14 10.8402 20.3311 11.9864C20.7583 14.5497 20.1178 17.1762 18.5586 19.2551L18.2509 19.6655C18.0875 19.8833 17.8616 20.0461 17.6033 20.1322L17.4306 20.1898C15.8529 20.7157 14.1471 20.7157 12.5694 20.1898L12.2738 20.0913L12.2345 20.0781C12.0795 20.0246 11.9317 19.9523 11.7944 19.8628L11.7598 19.8399L9 18H5.15767C4.4773 18 3.88424 17.537 3.71922 16.8769C3.24701 14.988 3.24701 13.012 3.71922 11.1231C3.88424 10.463 4.4773 10 5.15767 10Z"/>
</svg>
