<svg width="24" height="24" viewBox="0 0 24 24" fill="none" xmlns="http://www.w3.org/2000/svg">
<path d="M19.5 16.5L17.25 14.25C16.7415 13.7415 16.4872 13.4872 16.1814 13.4308C16.0615 13.4087 15.9385 13.4087 15.8186 13.4308C15.5128 13.4872 15.2585 13.7415 14.75 14.25V14.25C14.2415 14.7585 13.9872 15.0128 13.6814 15.0692C13.5615 15.0913 13.4385 15.0913 13.3186 15.0692C13.0128 15.0128 12.7585 14.7585 12.25 14.25L10.4142 12.4142C9.74755 11.7475 9.41421 11.4142 9 11.4142C8.58579 11.4142 8.25245 11.7475 7.58579 12.4142L4 16" stroke="black" stroke-width="2" stroke-linejoin="round"/>
<circle cx="14.5" cy="9.5" r="1.5" fill="black"/>
<path d="M4.43988 6.96C4.78814 5.74107 5.74095 4.78827 6.95988 4.44V4.44C10.254 3.49883 13.7458 3.49883 17.0399 4.44V4.44C18.2588 4.78827 19.2116 5.74107 19.5599 6.96V6.96C20.501 10.2541 20.501 13.7459 19.5599 17.04V17.04C19.2116 18.2589 18.2588 19.2117 17.0399 19.56V19.56C13.7458 20.5012 10.254 20.5012 6.95988 19.56V19.56C5.74095 19.2117 4.78814 18.2589 4.43988 17.04V17.04C3.49871 13.7459 3.49871 10.2541 4.43988 6.96V6.96Z" stroke="black" stroke-width="2" stroke-linejoin="round"/>
</svg>
