<svg width="24" height="24" viewBox="0 0 24 24" fill="none" xmlns="http://www.w3.org/2000/svg">
<path d="M19.56 6.96C19.2117 5.74108 18.2589 4.78827 17.04 4.44001C13.7459 3.49884 10.2541 3.49884 6.96001 4.44001C5.74108 4.78827 4.78827 5.74108 4.44001 6.96C3.49884 10.2541 3.49884 13.7459 4.44001 17.04C4.78827 18.2589 5.74108 19.2117 6.96001 19.56C10.2541 20.5012 13.7459 20.5012 17.04 19.56C18.2589 19.2117 19.2117 18.2589 19.56 17.04C20.0306 15.393 20.2659 13.6965 20.2659 12" stroke="black" stroke-width="2" stroke-linejoin="round"/>
<path d="M20.2427 1.99985L20.2427 5.79883C20.2427 5.81833 20.2396 5.83771 20.2334 5.85621V5.85621C20.0167 6.50632 19.5065 7.01647 18.8564 7.23318V7.23318C18.8379 7.23934 18.8185 7.24249 18.799 7.24249L15.0001 7.24249" stroke="black" stroke-width="2" stroke-linejoin="round"/>
</svg>
