<svg width="24" height="24" viewBox="0 0 24 24" fill="none" xmlns="http://www.w3.org/2000/svg">
<path d="M7.79383 5.23699C7.91902 4.48586 8.47785 3.88054 9.21661 3.69585V3.69585C11.0441 3.23898 12.9559 3.23898 14.7834 3.69585V3.69585C15.5221 3.88054 16.081 4.48586 16.2062 5.23699L16.396 6.37604C16.7959 8.77546 16.7959 11.2245 16.396 13.624L16.2062 14.763C16.081 15.5141 15.5221 16.1195 14.7834 16.3042V16.3042C12.9559 16.761 11.0441 16.761 9.21661 16.3042V16.3042C8.47785 16.1195 7.91902 15.5141 7.79383 14.763L7.60399 13.624C7.20409 11.2245 7.20409 8.77546 7.60399 6.37604L7.79383 5.23699Z" stroke="black" stroke-width="2" stroke-linejoin="round"/>
<path d="M9 20H15" stroke="black" stroke-width="2" stroke-linejoin="round"/>
<path d="M12 11V17" stroke="black" stroke-width="2" stroke-linejoin="round"/>
</svg>
