<svg width="24" height="24" viewBox="0 0 24 24" fill="none" xmlns="http://www.w3.org/2000/svg">
<path d="M18.7071 20.7071C18.4142 21 17.9428 21 17 21C16.5093 21 16.2639 21 16.0528 20.8944C15.8416 20.7889 15.6944 20.5926 15.4 20.2C14.3528 18.8037 13.8292 18.1056 14.1056 17.5528C14.382 17 15.2546 17 17 17C17.9428 17 18.4142 17 18.7071 17.2929C19 17.5858 19 18.0572 19 19C19 19.9428 19 20.4142 18.7071 20.7071Z" stroke="#808080" stroke-width="2" stroke-linejoin="round"/>
<path d="M11.2546 17H17.2987C18.8528 17 20.1744 15.8661 20.4107 14.3302C20.8013 11.7917 20.8013 9.20835 20.4107 6.66985L20.3215 6.08969C20.1312 4.85311 19.1435 3.89294 17.9021 3.73776C13.981 3.24762 10.0158 3.22046 6.0884 3.65684L5.04246 3.77306C3.82089 3.90879 2.82083 4.80627 2.5542 6.00609C2.18919 7.64866 2.18919 9.35134 2.5542 10.9939L2.57709 11.0969C2.83416 12.2537 3.74962 13.1499 4.91167 13.3823L7.10997 13.822C7.66034 13.9321 8.10954 14.3286 8.28703 14.8611C8.71281 16.1384 9.90818 17 11.2546 17Z" stroke="black" stroke-width="2" stroke-linejoin="round"/>
<path d="M9 16L8.23607 14.4721C7.54048 13.081 7.19269 12.3854 7.24431 11.8186C7.30129 11.1929 7.64895 10.6304 8.18308 10.2996C8.66694 10 9.44463 10 11 10V10" stroke="black" stroke-width="2" stroke-linejoin="round"/>
<path d="M13 6V8C13 9.10457 12.1046 10 11 10V10" stroke="black" stroke-width="2" stroke-linejoin="round"/>
<path d="M5 7V7C5.93188 7 6.39782 7 6.76537 6.84776C7.25542 6.64477 7.64477 6.25542 7.84776 5.76537C8 5.39782 8 4.93188 8 4L8 3" stroke="black" stroke-width="2" stroke-linejoin="round"/>
<path d="M13 13V13C13 14.8856 13 15.8284 13.5858 16.4142C14.1716 17 15.1144 17 17 17V17" stroke="black" stroke-width="2" stroke-linejoin="round"/>
<path d="M17 13V13C17 11.1144 17 10.1716 17.5858 9.58579C18.1716 9 19.1144 9 21 9V9" stroke="black" stroke-width="2" stroke-linejoin="round"/>
</svg>
