<svg width="24" height="24" viewBox="0 0 24 24" fill="none" xmlns="http://www.w3.org/2000/svg">
<path d="M7 17H17.7792C17.9255 17 18.0707 16.9764 18.2094 16.9302V16.9302C19.0219 16.6594 19.6594 16.0219 19.9302 15.2094V15.2094C19.9764 15.0707 20 14.9255 20 14.7792V11" stroke="black" stroke-width="2" stroke-linejoin="round"/>
<path d="M10 21L7.39041 19.2603C7.13457 19.0897 6.92767 18.8553 6.79016 18.5803V18.5803C6.29274 17.5855 6.29274 16.4145 6.79016 15.4197V15.4197C6.92767 15.1447 7.13457 14.9103 7.39041 14.7397L10 13" stroke="black" stroke-width="2" stroke-linejoin="round"/>
<path d="M17 7H6.22076C6.07454 7 5.92928 7.02357 5.79057 7.06981V7.06981C4.97814 7.34062 4.34062 7.97814 4.06981 8.79057V8.79057C4.02357 8.92928 4 9.07454 4 9.22076V13" stroke="black" stroke-width="2" stroke-linejoin="round"/>
<path d="M14 3L16.6096 4.73973C16.8654 4.91029 17.0723 5.14466 17.2098 5.41968V5.41968C17.7073 6.41451 17.7073 7.58549 17.2098 8.58032V8.58032C17.0723 8.85534 16.8654 9.08971 16.6096 9.26027L14 11" stroke="black" stroke-width="2" stroke-linejoin="round"/>
</svg>
