<svg width="24" height="24" viewBox="0 0 24 24" fill="none" xmlns="http://www.w3.org/2000/svg">
<path d="M16 3L17.0572 4.05718C17.4086 4.40857 17.5843 4.58426 17.7092 4.78978C17.8156 4.96487 17.8944 5.15526 17.943 5.35431C18 5.58794 18 5.83641 18 6.33335V6.33335C18 7.3272 18 7.82413 17.886 8.2914C17.7888 8.68947 17.6311 9.07026 17.4183 9.42042C17.1685 9.83146 16.8171 10.1828 16.1144 10.8856L5.99995 21" stroke="black" stroke-width="2" stroke-linejoin="round"/>
<path d="M13 6L14.0572 7.05719C14.4086 7.40857 14.5843 7.58426 14.7092 7.78978C14.8156 7.96487 14.8944 8.15527 14.943 8.35431C15 8.58794 15 8.8364 15 9.33333V9.33333C15 10.3272 15 10.8241 14.886 11.2914C14.7888 11.6895 14.6311 12.0703 14.4183 12.4204C14.1685 12.8315 13.8171 13.1829 13.1144 13.8856L5.99995 21" stroke="black" stroke-width="2" stroke-linejoin="round"/>
<path d="M10 9L11.0572 10.0572C11.4086 10.4086 11.5843 10.5843 11.7092 10.7898C11.8156 10.9649 11.8944 11.1553 11.943 11.3543C12 11.5879 12 11.8364 12 12.3333V12.3333C12 13.3272 12 13.8241 11.886 14.2914C11.7888 14.6895 11.6311 15.0703 11.4183 15.4204C11.1685 15.8315 10.8171 16.1829 10.1144 16.8856L5.99995 21" stroke="black" stroke-width="2" stroke-linejoin="round"/>
</svg>
