<svg width="24" height="24" viewBox="0 0 24 24" fill="none" xmlns="http://www.w3.org/2000/svg">
<path d="M3.8264 9.1736C4.5882 8.4118 5.57652 7.91764 6.64304 7.76528L7.22727 7.68182C10.393 7.22957 13.607 7.22957 16.7727 7.68182L17.357 7.76528C18.4235 7.91764 19.4118 8.4118 20.1736 9.1736L20.7508 9.75085C22.156 11.156 22.7659 13.1704 22.3762 15.119V15.119C22.1665 16.1675 21.1626 16.8604 20.1079 16.6846L17.5176 16.2529C16.5961 16.0993 15.8534 15.4137 15.6269 14.5074L15.1309 12.5237C15.0494 12.1975 14.8068 11.9356 14.4879 11.8293V11.8293C12.873 11.291 11.127 11.291 9.51214 11.8293V11.8293C9.19316 11.9356 8.95062 12.1975 8.86907 12.5237L8.37315 14.5074C8.14656 15.4137 7.40393 16.0993 6.4824 16.2529L3.89214 16.6846C2.83741 16.8604 1.8335 16.1675 1.6238 15.119V15.119C1.23409 13.1704 1.84401 11.156 3.24915 9.75085L3.8264 9.1736Z" stroke="black" stroke-width="2" stroke-linejoin="round"/>
</svg>
