<svg width="24" height="24" viewBox="0 0 24 24" fill="none" xmlns="http://www.w3.org/2000/svg">
<path d="M5.90683 6.55901C5.96537 6.20779 6.18842 5.90579 6.50689 5.74656V5.74656C7.44682 5.27659 8.55318 5.27659 9.49311 5.74656V5.74656C9.81158 5.90579 10.0346 6.20779 10.0932 6.55901L10.2029 7.21765C10.7307 10.384 10.7307 13.616 10.2029 16.7824L10.0932 17.441C10.0346 17.7922 9.81158 18.0942 9.49311 18.2534V18.2534C8.55318 18.7234 7.44682 18.7234 6.50689 18.2534V18.2534C6.18842 18.0942 5.96537 17.7922 5.90683 17.441L5.79706 16.7824C5.26933 13.616 5.26933 10.384 5.79706 7.21765L5.90683 6.55901Z" stroke="black" stroke-width="2" stroke-linejoin="round"/>
<path d="M13.9068 6.55901C13.9654 6.20779 14.1884 5.90579 14.5069 5.74656V5.74656C15.4468 5.27659 16.5532 5.27659 17.4931 5.74656V5.74656C17.8116 5.90579 18.0346 6.20779 18.0932 6.55901L18.2029 7.21765C18.7307 10.384 18.7307 13.616 18.2029 16.7824L18.0932 17.441C18.0346 17.7922 17.8116 18.0942 17.4931 18.2534V18.2534C16.5532 18.7234 15.4468 18.7234 14.5069 18.2534V18.2534C14.1884 18.0942 13.9654 17.7922 13.9068 17.441L13.7971 16.7824C13.2693 13.616 13.2693 10.384 13.7971 7.21765L13.9068 6.55901Z" stroke="#808080" stroke-width="2" stroke-linejoin="round"/>
</svg>
