<svg width="24" height="24" viewBox="0 0 24 24" fill="none" xmlns="http://www.w3.org/2000/svg">
<path d="M12 17V14.5625C12 14.1899 11.9399 13.8198 11.8221 13.4664V13.4664C11.3046 11.9137 10.0863 10.6954 8.53365 10.1779V10.1779C8.18019 10.0601 7.81006 10 7.43749 10H3" stroke="#808080" stroke-width="2" stroke-linejoin="round"/>
<path d="M13 6V6C13.0844 5.74686 13.1266 5.62028 13.1717 5.508C13.7481 4.07425 15.0988 3.10073 16.6412 3.00732C16.762 3 16.8954 3 17.1623 3H18" stroke="black" stroke-width="2" stroke-linejoin="round"/>
<path d="M6 7V3.8541C6 3.33065 6.29574 2.85213 6.76393 2.61803V2.61803C7.54205 2.22897 8.45794 2.22897 9.23607 2.61803V2.61803C9.70426 2.85213 10 3.33065 10 3.8541V4.1459C10 5.16989 10.8301 6 11.8541 6H16.1121C18.343 6 20.2343 7.64039 20.5498 9.84884V9.84884C20.841 11.8873 20.4217 13.9638 19.3623 15.7295L18.6821 16.8632C18.231 17.615 17.6494 18.2805 16.9647 18.8282L16.2848 19.3721C14.2241 21.0207 11.4927 21.5693 8.95524 20.8444V20.8444C7.206 20.3446 6 18.7457 6 16.9265V13" stroke="black" stroke-width="2" stroke-linejoin="round"/>
<path d="M7 10H11.5585C11.8509 10 12.1414 10.0471 12.4189 10.1396V10.1396C14.0437 10.6812 15.3188 11.9563 15.8604 13.5811L16 14" stroke="#808080" stroke-width="2" stroke-linejoin="round"/>
</svg>
