<svg width="24" height="24" viewBox="0 0 24 24" fill="none" xmlns="http://www.w3.org/2000/svg">
<path d="M9.78132 3.89075C10.6555 3.14581 11.0925 2.77335 11.5939 2.66938C11.8618 2.61384 12.1382 2.61384 12.4061 2.66938C12.9075 2.77335 13.3445 3.14581 14.2187 3.89075V3.89075C14.5653 4.18616 14.7387 4.33387 14.9364 4.43765C15.0435 4.49389 15.1555 4.54029 15.2711 4.57628C15.4843 4.6427 15.7113 4.66082 16.1653 4.69705V4.69705C17.3101 4.78841 17.8825 4.83409 18.3106 5.11513C18.5393 5.26526 18.7347 5.4607 18.8849 5.68938C19.1659 6.11745 19.2116 6.68988 19.303 7.83474V7.83474C19.3392 8.28875 19.3573 8.51575 19.4237 8.72894C19.4597 8.84447 19.5061 8.95649 19.5623 9.06363C19.6661 9.26134 19.8138 9.43467 20.1093 9.78132V9.78132C20.8542 10.6555 21.2267 11.0925 21.3306 11.5939C21.3862 11.8618 21.3862 12.1382 21.3306 12.4061C21.2267 12.9075 20.8542 13.3445 20.1093 14.2187V14.2187C19.8138 14.5653 19.6661 14.7387 19.5623 14.9364C19.5061 15.0435 19.4597 15.1555 19.4237 15.2711C19.3573 15.4843 19.3392 15.7113 19.303 16.1653V16.1653C19.2116 17.3101 19.1659 17.8825 18.8849 18.3106C18.7347 18.5393 18.5393 18.7347 18.3106 18.8849C17.8825 19.1659 17.3101 19.2116 16.1653 19.303V19.303C15.7113 19.3392 15.4843 19.3573 15.2711 19.4237C15.1555 19.4597 15.0435 19.5061 14.9364 19.5623C14.7387 19.6661 14.5653 19.8138 14.2187 20.1093V20.1093C13.3445 20.8542 12.9075 21.2267 12.4061 21.3306C12.1382 21.3862 11.8618 21.3862 11.5939 21.3306C11.0925 21.2267 10.6555 20.8542 9.78132 20.1093V20.1093C9.43467 19.8138 9.26134 19.6661 9.06363 19.5623C8.95649 19.5061 8.84447 19.4597 8.72894 19.4237C8.51575 19.3573 8.28875 19.3392 7.83474 19.303V19.303C6.68988 19.2116 6.11745 19.1659 5.68938 18.8849C5.4607 18.7347 5.26526 18.5393 5.11513 18.3106C4.83409 17.8825 4.78841 17.3101 4.69705 16.1653V16.1653C4.66082 15.7113 4.6427 15.4843 4.57628 15.2711C4.54029 15.1555 4.49389 15.0435 4.43765 14.9364C4.33387 14.7387 4.18616 14.5653 3.89075 14.2187V14.2187C3.14581 13.3445 2.77335 12.9075 2.66938 12.4061C2.61384 12.1382 2.61384 11.8618 2.66938 11.5939C2.77335 11.0925 3.14581 10.6555 3.89075 9.78132V9.78132C4.18616 9.43467 4.33387 9.26134 4.43765 9.06363C4.49389 8.95649 4.54029 8.84447 4.57628 8.72894C4.6427 8.51575 4.66082 8.28875 4.69705 7.83474V7.83474C4.78841 6.68988 4.83409 6.11745 5.11513 5.68938C5.26526 5.4607 5.4607 5.26526 5.68938 5.11513C6.11745 4.83409 6.68988 4.78841 7.83474 4.69705V4.69705C8.28875 4.66082 8.51575 4.6427 8.72894 4.57628C8.84447 4.54029 8.95649 4.49389 9.06363 4.43765C9.26134 4.33387 9.43467 4.18616 9.78132 3.89075V3.89075Z" stroke="black" stroke-width="2" stroke-linejoin="round"/>
<path d="M8.72727 9.81818C8.89896 9.30312 9.30312 8.89896 9.81818 8.72727V8.72727C11.2344 8.25519 12.7656 8.25519 14.1818 8.72727V8.72727C14.6969 8.89896 15.101 9.30312 15.2727 9.81818V9.81818C15.7448 11.2344 15.7448 12.7656 15.2727 14.1818V14.1818C15.101 14.6969 14.6969 15.101 14.1818 15.2727V15.2727C12.7656 15.7448 11.2344 15.7448 9.81818 15.2727V15.2727C9.30312 15.101 8.89896 14.6969 8.72727 14.1818V14.1818C8.25519 12.7656 8.25519 11.2344 8.72727 9.81818V9.81818Z" stroke="#808080" stroke-width="2" stroke-linejoin="round"/>
</svg>
