<svg width="24" height="24" viewBox="0 0 24 24" fill="none" xmlns="http://www.w3.org/2000/svg">
<path d="M13 11V7.8541C13 7.33065 13.2957 6.85213 13.7639 6.61803V6.61803C14.5421 6.22897 15.4579 6.22897 16.2361 6.61803V6.61803C16.7043 6.85213 17 7.33065 17 7.8541V11" stroke="black" stroke-width="2" stroke-linejoin="round"/>
<path d="M17 13V10.8541C17 10.3307 17.2957 9.85213 17.7639 9.61803V9.61803C18.5421 9.22897 19.4579 9.22897 20.2361 9.61803V9.61803C20.7043 9.85213 21 10.3307 21 10.8541V12.2809C21 13.1824 21 13.6331 20.9519 14.0699C20.8183 15.2819 20.4095 16.4473 19.7567 17.4771C19.5214 17.8482 19.2399 18.2002 18.6767 18.9041L17.8658 19.9178C17.3042 20.6198 16.5277 21.1181 15.6555 21.3361L15.4671 21.3832C13.8473 21.7882 12.1527 21.7882 10.5329 21.3832V21.3832C9.55139 21.1378 8.70758 20.5126 8.18707 19.6451L3.41746 11.6958C3.16253 11.2709 3.17523 10.7372 3.45008 10.3249V10.3249C3.80393 9.7941 4.34291 9.41427 4.96178 9.25955L5.02131 9.24467C5.60268 9.09933 6.21071 9.35119 6.51903 9.86504L9 14V3.26541C9 3.09547 9.06751 2.93249 9.18767 2.81233V2.81233C10.1886 1.81141 11.8114 1.81141 12.8123 2.81233V2.81233C12.9325 2.93249 13 3.09547 13 3.26541V10" stroke="black" stroke-width="2" stroke-linejoin="round"/>
</svg>
