<svg width="24" height="24" viewBox="0 0 24 24" fill="none" xmlns="http://www.w3.org/2000/svg">
<path d="M4.44 6.96C4.78827 5.74107 5.74107 4.78827 6.96 4.44V4.44C10.2541 3.49883 13.7459 3.49883 17.04 4.44V4.44C18.2589 4.78827 19.2117 5.74107 19.56 6.96V6.96C20.5012 10.2541 20.5012 13.7459 19.56 17.04V17.04C19.2117 18.2589 18.2589 19.2117 17.04 19.56V19.56C13.7459 20.5012 10.2541 20.5012 6.96 19.56V19.56C5.74107 19.2117 4.78826 18.2589 4.44 17.04V17.04C3.49883 13.7459 3.49883 10.2541 4.44 6.96V6.96Z" stroke="black" stroke-width="2" stroke-linejoin="round"/>
<path d="M8.5 11.5H10.5C11.4428 11.5 11.9142 11.5 12.2071 11.2071C12.5 10.9142 12.5 10.4428 12.5 9.5V9.5C12.5 8.55719 12.5 8.08579 12.2071 7.79289C11.9142 7.5 11.4428 7.5 10.5 7.5V7.5C9.55719 7.5 9.08579 7.5 8.79289 7.79289C8.5 8.08579 8.5 8.55719 8.5 9.5V14.5" stroke="#808080" stroke-width="2" stroke-linejoin="round"/>
<path d="M11.5 11.5L16.5 16.5" stroke="#808080" stroke-width="2" stroke-linejoin="round"/>
<path d="M16.5 11.5L11.5 16.5" stroke="#808080" stroke-width="2" stroke-linejoin="round"/>
</svg>
