<svg width="24" height="24" viewBox="0 0 24 24" fill="none" xmlns="http://www.w3.org/2000/svg">
<path d="M4.34579 7.28972C4.75265 5.86574 5.86574 4.75265 7.28972 4.3458V4.3458C10.3683 3.4662 13.6317 3.4662 16.7103 4.3458V4.3458C18.1343 4.75265 19.2474 5.86573 19.6542 7.28971V7.28971C20.5338 10.3683 20.5338 13.6317 19.6542 16.7103V16.7103C19.2474 18.1343 18.1343 19.2474 16.7103 19.6542V19.6542C13.6317 20.5338 10.3683 20.5338 7.28972 19.6542V19.6542C5.86574 19.2474 4.75265 18.1343 4.34579 16.7103V16.7103C3.4662 13.6317 3.4662 10.3683 4.34579 7.28972V7.28972Z" stroke="black" stroke-width="2" stroke-linejoin="round"/>
<path d="M14.375 8.75C14.4561 8.58772 14.5877 8.45614 14.75 8.375C15.2221 8.13893 15.7779 8.13893 16.25 8.375C16.4123 8.45614 16.5439 8.58772 16.625 8.75C16.8611 9.22214 16.8611 9.77786 16.625 10.25C16.5439 10.4123 16.4123 10.5439 16.25 10.625C15.7779 10.8611 15.2221 10.8611 14.75 10.625C14.5877 10.5439 14.4561 10.4123 14.375 10.25C14.1389 9.77786 14.1389 9.22214 14.375 8.75Z" fill="#808080"/>
<path d="M7.375 8.75C7.45614 8.58772 7.58772 8.45614 7.75 8.375C8.22214 8.13893 8.77786 8.13893 9.25 8.375C9.41228 8.45614 9.54386 8.58772 9.625 8.75C9.86107 9.22214 9.86107 9.77786 9.625 10.25C9.54386 10.4123 9.41228 10.5439 9.25 10.625C8.77786 10.8611 8.22214 10.8611 7.75 10.625C7.58772 10.5439 7.45614 10.4123 7.375 10.25C7.13893 9.77786 7.13893 9.22214 7.375 8.75Z" fill="#808080"/>
<path d="M8 17L8.0883 16.7351C8.52832 15.4151 8.74832 14.755 9.2721 14.3775C9.79587 14 10.4916 14 11.883 14H12.117C13.5084 14 14.2041 14 14.7279 14.3775C15.2517 14.755 15.4717 15.4151 15.9117 16.7351L16 17" stroke="#808080" stroke-width="2" stroke-linejoin="round"/>
</svg>
