<svg width="24" height="24" viewBox="0 0 24 24" fill="none" xmlns="http://www.w3.org/2000/svg">
<path fill="black" d="M6 12V17.0558C6 18.7677 7.20835 20.2417 8.88703 20.5774V20.5774C10.2819 20.8564 11.7181 20.8564 13.113 20.5774V20.5774C14.7917 20.2417 16 18.7677 16 17.0558V13"/>
<path fill="black" d="M15 3H14.8407C13.1957 3 11.7861 4.17643 11.4918 5.79489L11.4672 5.93053C11.1588 7.62639 11.1926 9.36678 11.5665 11.0494L11.6584 11.4626C11.8677 12.4048 12.5915 13.1479 13.5279 13.382V13.382C15.151 13.7877 16.849 13.7877 18.4721 13.382V13.382C19.4085 13.1479 20.1323 12.4048 20.3416 11.4626L20.4335 11.0494C20.8074 9.36678 20.8412 7.62639 20.5328 5.93053L20.5082 5.7949C20.2139 4.17643 18.8043 3 17.1593 3H17"/>
<path fill="black" d="M3.75 8.5C3.91228 8.17544 4.17544 7.91228 4.5 7.75V7.75C5.44427 7.27786 6.55573 7.27786 7.5 7.75V7.75C7.82456 7.91228 8.08772 8.17544 8.25 8.5V8.5C8.72214 9.44427 8.72214 10.5557 8.25 11.5V11.5C8.08772 11.8246 7.82456 12.0877 7.5 12.25V12.25C6.55573 12.7221 5.44427 12.7221 4.5 12.25V12.25C4.17544 12.0877 3.91228 11.8246 3.75 11.5V11.5C3.27786 10.5557 3.27786 9.44427 3.75 8.5V8.5Z"/>
</svg>
