<svg width="24" height="24" viewBox="0 0 24 24" fill="none" xmlns="http://www.w3.org/2000/svg">
<path d="M15 17L9.5 13.5" stroke="black" stroke-width="2" stroke-linejoin="round"/>
<path d="M15 7L9 11" stroke="black" stroke-width="2" stroke-linejoin="round"/>
<path d="M14.8571 4.28571C14.9499 4.10025 15.1003 3.94987 15.2857 3.85714V3.85714C16.3649 3.31756 17.6351 3.31756 18.7143 3.85714V3.85714C18.8997 3.94987 19.0501 4.10025 19.1429 4.28571V4.28571C19.6824 5.36488 19.6824 6.63512 19.1429 7.71429V7.71429C19.0501 7.89975 18.8997 8.05013 18.7143 8.14286V8.14286C17.6351 8.68244 16.3649 8.68244 15.2857 8.14286V8.14286C15.1003 8.05013 14.9499 7.89975 14.8571 7.71429V7.71429C14.3176 6.63512 14.3176 5.36488 14.8571 4.28571V4.28571Z" stroke="black" stroke-width="2" stroke-linejoin="round"/>
<path d="M4.85714 10.2857C4.94987 10.1003 5.10025 9.94987 5.28571 9.85714V9.85714C6.36488 9.31756 7.63512 9.31756 8.71429 9.85714V9.85714C8.89975 9.94987 9.05013 10.1003 9.14286 10.2857V10.2857C9.68244 11.3649 9.68244 12.6351 9.14286 13.7143V13.7143C9.05013 13.8997 8.89975 14.0501 8.71429 14.1429V14.1429C7.63512 14.6824 6.36488 14.6824 5.28571 14.1429V14.1429C5.10025 14.0501 4.94987 13.8997 4.85714 13.7143V13.7143C4.31756 12.6351 4.31756 11.3649 4.85714 10.2857V10.2857Z" stroke="black" stroke-width="2" stroke-linejoin="round"/>
<path d="M14.8571 16.2857C14.9499 16.1003 15.1003 15.9499 15.2857 15.8571V15.8571C16.3649 15.3176 17.6351 15.3176 18.7143 15.8571V15.8571C18.8997 15.9499 19.0501 16.1003 19.1429 16.2857V16.2857C19.6824 17.3649 19.6824 18.6351 19.1429 19.7143V19.7143C19.0501 19.8997 18.8997 20.0501 18.7143 20.1429V20.1429C17.6351 20.6824 16.3649 20.6824 15.2857 20.1429V20.1429C15.1003 20.0501 14.9499 19.8997 14.8571 19.7143V19.7143C14.3176 18.6351 14.3176 17.3649 14.8571 16.2857V16.2857Z" stroke="black" stroke-width="2" stroke-linejoin="round"/>
</svg>
