<svg width="24" height="24" viewBox="0 0 24 24" fill="none" xmlns="http://www.w3.org/2000/svg">
<path fill="black" d="M6 11H9C9.93188 11 10.3978 11 10.7654 10.8478C11.2554 10.6448 11.6448 10.2554 11.8478 9.76537C12 9.39782 12 8.93188 12 8V8C12 7.06812 12 6.60218 11.8478 6.23463C11.6448 5.74458 11.2554 5.35523 10.7654 5.15224C10.3978 5 9.93188 5 9 5V5C8.06812 5 7.60218 5 7.23463 5.15224C6.74458 5.35523 6.35523 5.74458 6.15224 6.23463C6 6.60218 6 7.06812 6 8V16"/>
<path fill="black" d="M10 11L19 20"/>
<path fill="black" d="M19 12L11 20"/>
</svg>
