<svg width="24" height="24" viewBox="0 0 24 24" fill="none" xmlns="http://www.w3.org/2000/svg">
<path fill="black" d="M21 13H23"/>
<path fill="black" d="M1 13L3 13"/>
<path fill="black" d="M7 7L7.81253 8.2188C8.39382 9.09073 8.68447 9.5267 9.12665 9.76335C9.56884 10 10.0928 10 11.1407 10H12.8593C13.9072 10 14.4312 10 14.8733 9.76335C15.3155 9.5267 15.6062 9.09073 16.1875 8.2188L17 7"/>
<path fill="black" d="M7.41691 6.57289L7.18647 6.60169C5.29595 6.83801 3.78529 8.28827 3.47207 10.1676C3.15951 12.0429 3.15951 13.9571 3.47207 15.8324C3.78529 17.7117 5.29595 19.162 7.18647 19.3983L7.41691 19.4271C10.4605 19.8076 13.5395 19.8076 16.5831 19.4271L16.8135 19.3983C18.704 19.162 20.2147 17.7117 20.5279 15.8324C20.8405 13.9571 20.8405 12.0429 20.5279 10.1676C20.2147 8.28827 18.704 6.83801 16.8135 6.60169L16.5831 6.57289C13.5395 6.19244 10.4605 6.19244 7.41691 6.57289Z"/>
<path fill="black" d="M7.375 12.75C7.45614 12.5877 7.58772 12.4561 7.75 12.375C8.22214 12.1389 8.77786 12.1389 9.25 12.375C9.41228 12.4561 9.54386 12.5877 9.625 12.75C9.86107 13.2221 9.86107 13.7779 9.625 14.25C9.54386 14.4123 9.41228 14.5439 9.25 14.625C8.77786 14.8611 8.22214 14.8611 7.75 14.625C7.58772 14.5439 7.45614 14.4123 7.375 14.25C7.13893 13.7779 7.13893 13.2221 7.375 12.75Z"/>
<path fill="black" d="M14.375 12.75C14.4561 12.5877 14.5877 12.4561 14.75 12.375C15.2221 12.1389 15.7779 12.1389 16.25 12.375C16.4123 12.4561 16.5439 12.5877 16.625 12.75C16.8611 13.2221 16.8611 13.7779 16.625 14.25C16.5439 14.4123 16.4123 14.5439 16.25 14.625C15.7779 14.8611 15.2221 14.8611 14.75 14.625C14.5877 14.5439 14.4561 14.4123 14.375 14.25C14.1389 13.7779 14.1389 13.2221 14.375 12.75Z"/>
</svg>
