<svg width="24" height="24" viewBox="0 0 24 24" fill="none" xmlns="http://www.w3.org/2000/svg">
<path d="M8.57143 5.28571C8.84122 4.47634 9.47634 3.84122 10.2857 3.57143V3.57143C11.3985 3.20051 12.6015 3.20051 13.7143 3.57143V3.57143C14.5237 3.84122 15.1588 4.47634 15.4286 5.28571V5.28571C15.7995 6.39848 15.7995 7.60152 15.4286 8.71429V8.71429C15.1588 9.52366 14.5237 10.1588 13.7143 10.4286V10.4286C12.6015 10.7995 11.3985 10.7995 10.2857 10.4286V10.4286C9.47634 10.1588 8.84122 9.52366 8.57143 8.71429V8.71429C8.20051 7.60152 8.20051 6.39848 8.57143 5.28571V5.28571Z" stroke="black" stroke-width="2" stroke-linejoin="round"/>
<path d="M4 21V17.3057C4 15.9188 4.8603 14.6774 6.15888 14.1904V14.1904C9.92491 12.7782 14.0751 12.7782 17.8411 14.1904V14.1904C19.1397 14.6774 20 15.9188 20 17.3057V21" stroke="black" stroke-width="2" stroke-linejoin="round"/>
<path d="M9 18H15" stroke="black" stroke-width="2" stroke-linejoin="round"/>
<path d="M12 15L12 21" stroke="black" stroke-width="2" stroke-linejoin="round"/>
</svg>
