<svg width="24" height="24" viewBox="0 0 24 24" fill="none" xmlns="http://www.w3.org/2000/svg">
<path fill="black" d="M14 12V12C16.5264 12.4211 17.7897 12.6316 18.6495 13.3918C18.9376 13.6466 19.1876 13.9416 19.3915 14.2677C20 15.2408 20 16.5215 20 19.0828V22"/>
<path fill="black" d="M12.5 12L15.0439 11.6608C16.4435 11.4742 17.1433 11.3809 17.7043 11.1167C18.7113 10.6424 19.4752 9.76991 19.8123 8.70898C20 8.11801 20 7.41201 20 6V6"/>
<path fill="black" d="M15.5246 5.62276L15.4517 5.25855C15.1759 3.87934 14.13 2.78251 12.7655 2.44137L12.5708 2.39271C11.5395 2.13487 10.4605 2.13487 9.42917 2.39271L8.69988 2.57503C7.60607 2.84848 6.65346 3.5198 6.02806 4.45791C2.98331 9.02503 2.98331 14.975 6.02806 19.5421C6.65346 20.4802 7.60607 21.1515 8.69987 21.425L9.42917 21.6073C10.4605 21.8651 11.5395 21.8651 12.5708 21.6073L12.7655 21.5586C14.13 21.2175 15.1759 20.1207 15.4517 18.7414L15.5246 18.3772C15.5493 18.2537 15.5616 18.192 15.5715 18.1338C15.7949 16.8155 15.3449 15.4728 14.3722 14.5554C14.3293 14.5149 14.2822 14.4731 14.188 14.3894L13.728 13.9805C13.2263 13.5345 12.9754 13.3115 12.8265 13.0791C12.405 12.4214 12.405 11.5786 12.8265 10.9209C12.9754 10.6885 13.2263 10.4655 13.728 10.0195L14.188 9.61063L14.1881 9.61061C14.2822 9.52693 14.3293 9.48509 14.3722 9.44462C15.3449 8.52723 15.7949 7.18448 15.5715 5.86621C15.5616 5.80804 15.5493 5.74628 15.5246 5.62276Z"/>
</svg>
