<svg width="24" height="24" viewBox="0 0 24 24" fill="none" xmlns="http://www.w3.org/2000/svg">
<path fill="black" d="M9.72362 4.90654L9.90137 5.03096C11.1614 5.913 12.8386 5.913 14.0986 5.03095L14.2764 4.90653C15.7948 3.84363 17.8827 4.17689 18.9948 5.65968L19.4666 6.28881C19.8171 6.75609 20.0501 7.30074 20.1461 7.87689C20.6984 11.1904 20.0898 14.5929 18.4232 17.5095L17.6472 18.8674C17.247 19.5678 16.5022 20 15.6955 20C14.6919 20 13.8099 19.3347 13.5342 18.3697L13.0741 16.7593C12.7654 15.679 11.2346 15.679 10.9259 16.7593L10.4658 18.3697C10.1901 19.3347 9.30807 20 8.30446 20C7.49782 20 6.75301 19.5678 6.35281 18.8674L5.57683 17.5095C3.91022 14.5929 3.30161 11.1904 3.85385 7.87689C3.94988 7.30074 4.18293 6.75609 4.53339 6.28881L5.00524 5.65968C6.11733 4.17689 8.20518 3.84363 9.72362 4.90654Z"/>
</svg>
