<svg width="24" height="24" viewBox="0 0 24 24" fill="none" xmlns="http://www.w3.org/2000/svg">
<path d="M3.70122 6.74696C3.88885 6.27787 4.29034 5.92742 4.78048 5.80488L5.01687 5.74578C6.97548 5.25613 9.02452 5.25613 10.9831 5.74578L12 6V11H4L3.70122 10.253C3.25108 9.12769 3.25108 7.87231 3.70122 6.74696V6.74696Z" stroke="black" stroke-width="2" stroke-linejoin="round"/>
<path d="M20.2988 6.74696C20.1111 6.27787 19.7097 5.92742 19.2195 5.80488L18.9831 5.74578C17.0245 5.25613 14.9755 5.25613 13.0169 5.74578L12 6V11H20L20.2988 10.253C20.7489 9.12769 20.7489 7.87231 20.2988 6.74696V6.74696Z" stroke="black" stroke-width="2" stroke-linejoin="round"/>
<path d="M2 19L2.12403 18.0077C2.54113 14.671 2.74968 13.0026 3.88392 12.0013C5.01816 11 6.69953 11 10.0623 11H13.9377C17.3005 11 18.9818 11 20.1161 12.0013C21.2503 13.0026 21.4589 14.671 21.876 18.0077L22 19" stroke="black" stroke-width="2" stroke-linejoin="round"/>
<path d="M3 16H21" stroke="black" stroke-width="2" stroke-linejoin="round"/>
</svg>
