<svg width="24" height="24" viewBox="0 0 24 24" fill="none" xmlns="http://www.w3.org/2000/svg">
<path d="M5 14H19" stroke="black" stroke-width="2" stroke-linejoin="round"/>
<path d="M9.99979 3V8.7619C9.99979 9.03264 9.99979 9.16801 9.98316 9.29617C9.92796 9.72153 9.73747 10.1179 9.43981 10.4267C9.35013 10.5198 9.24443 10.6043 9.03302 10.7735L7.51965 11.9842C5.86549 13.3076 4.56341 15.0187 3.72888 16.9658V16.9658C2.87214 18.9647 4.20318 21.2203 6.36714 21.4367L6.6009 21.4601C10.1912 21.8191 13.8084 21.8191 17.3987 21.4601L17.6331 21.4367C19.7968 21.2203 21.1277 18.965 20.2712 16.9663V16.9663C19.4367 15.0189 18.1344 13.3075 16.48 11.9841L14.9665 10.7734C14.7552 10.6043 14.6496 10.5198 14.5599 10.4268C14.2622 10.1179 14.0716 9.72146 14.0164 9.29597C13.9998 9.16788 13.9998 9.03258 13.9998 8.76199V3" stroke="black" stroke-width="2" stroke-linejoin="round"/>
<path d="M7 3L17 3" stroke="black" stroke-width="2" stroke-linejoin="round"/>
</svg>
