<svg width="24" height="24" viewBox="0 0 24 24" fill="none" xmlns="http://www.w3.org/2000/svg">
<circle cx="12" cy="4" r="2" fill="black"/>
<path d="M13.7575 16.0299L13 16.2192V17V20C13 20.4997 12.9979 20.7738 12.9723 20.964C12.972 20.9665 12.9716 20.9689 12.9713 20.9713C12.9689 20.9716 12.9665 20.972 12.964 20.9723C12.7738 20.9979 12.4997 21 12 21C11.5003 21 11.2262 20.9979 11.036 20.9723C11.0335 20.972 11.0311 20.9716 11.0287 20.9713C11.0284 20.9689 11.028 20.9665 11.0277 20.964C11.0021 20.7738 11 20.4997 11 20V17V16.2192L10.2425 16.0299C9.44389 15.8302 8.92151 15.6983 8.54153 15.5595C8.17431 15.4255 8.06764 15.3278 8.0215 15.2716L7.2486 15.9061L8.0215 15.2716C7.92222 15.1507 7.85271 15.0081 7.81854 14.8555C7.80265 14.7845 7.79134 14.6403 7.91178 14.2684C8.0364 13.8835 8.25402 13.3907 8.58836 12.6384L10.1015 9.23376C10.4036 8.55413 10.4745 8.42285 10.5537 8.3341C10.6724 8.20111 10.8245 8.10227 10.9942 8.04781C11.1075 8.01147 11.2563 8 12 8C12.7437 8 12.8925 8.01147 13.0058 8.04781C13.1755 8.10227 13.3276 8.20111 13.4463 8.3341C13.5255 8.42285 13.5964 8.55413 13.8985 9.23376L13.8985 9.23376L15.4116 12.6384C15.746 13.3907 15.9636 13.8835 16.0882 14.2684C16.2087 14.6403 16.1973 14.7845 16.1815 14.8555C16.1473 15.0081 16.0778 15.1507 15.9785 15.2716C15.9324 15.3278 15.8257 15.4255 15.4585 15.5595C15.0785 15.6983 14.5561 15.8302 13.7575 16.0299Z" stroke="black" stroke-width="2"/>
</svg>
