<svg width="24" height="24" viewBox="0 0 24 24" fill="none" xmlns="http://www.w3.org/2000/svg">
<path d="M5.52087 6.91653C5.82498 5.70009 6.64545 4.67727 7.76695 4.11653L7.89023 4.05489C10.4774 2.7613 13.5226 2.76131 16.1098 4.05489L16.2331 4.11653C17.3546 4.67728 18.175 5.70009 18.4791 6.91653V6.91653C18.8211 8.28446 18.8211 9.71554 18.4791 11.0835L18.3565 11.5741C18.1232 12.5071 17.6408 13.3592 16.9607 14.0393L14.3874 16.6126C14.1308 16.8692 13.8345 17.0827 13.5099 17.245V17.245C12.5594 17.7203 11.4406 17.7203 10.4901 17.245V17.245C10.1655 17.0827 9.86918 16.8692 9.61257 16.6126L7.03933 14.0393C6.35924 13.3592 5.87678 12.5071 5.64351 11.5741L5.52087 11.0835C5.17889 9.71554 5.17889 8.28446 5.52087 6.91653V6.91653Z" stroke="black" stroke-width="2" stroke-linejoin="round"/>
<path d="M4 21H20" stroke="black" stroke-width="2" stroke-linejoin="round"/>
<path d="M9.85714 7.28571C9.94987 7.10025 10.1003 6.94987 10.2857 6.85714V6.85714C11.3649 6.31756 12.6351 6.31756 13.7143 6.85714V6.85714C13.8997 6.94987 14.0501 7.10025 14.1429 7.28571V7.28571C14.6824 8.36488 14.6824 9.63512 14.1429 10.7143V10.7143C14.0501 10.8997 13.8997 11.0501 13.7143 11.1429V11.1429C12.6351 11.6824 11.3649 11.6824 10.2857 11.1429V11.1429C10.1003 11.0501 9.94987 10.8997 9.85714 10.7143V10.7143C9.31756 9.63512 9.31756 8.36488 9.85714 7.28571V7.28571Z" stroke="#808080" stroke-width="2" stroke-linejoin="round"/>
</svg>
