<svg width="24" height="24" viewBox="0 0 24 24" fill="none" xmlns="http://www.w3.org/2000/svg">
<path d="M4.18252 8.11311L6.33368 6.49974C6.7662 6.17535 7.29225 6 7.8329 6C9.07637 6 10.1306 6.91434 10.3065 8.14532L10.3778 8.64435C10.7905 11.5334 10.7905 14.4665 10.3778 17.3557L10.2736 18.0845C10.1072 19.2497 9.27126 20.2082 8.13948 20.5316C7.06793 20.8377 5.93207 20.8377 4.86052 20.5316L4.82393 20.5211C3.70713 20.202 2.86844 19.2764 2.66067 18.1337L2.63694 18.0031C2.21576 15.6867 2.21576 13.3133 2.63694 10.9969L2.73558 10.4543C2.90556 9.51943 3.42235 8.68323 4.18252 8.11311Z" stroke="black" stroke-width="2" stroke-linejoin="round"/>
<path d="M19.8175 8.11311L17.6663 6.49974C17.2338 6.17535 16.7077 6 16.1671 6C14.9236 6 13.8694 6.91434 13.6935 8.14532L13.6222 8.64435C13.2095 11.5334 13.2095 14.4665 13.6222 17.3557L13.7264 18.0845C13.8928 19.2497 14.7287 20.2082 15.8605 20.5316C16.9321 20.8377 18.0679 20.8377 19.1395 20.5316L19.1761 20.5211C20.2929 20.202 21.1316 19.2764 21.3393 18.1337L21.3631 18.0031C21.7842 15.6867 21.7842 13.3133 21.3631 10.9969L21.2644 10.4543C21.0944 9.51943 20.5776 8.68323 19.8175 8.11311Z" stroke="black" stroke-width="2" stroke-linejoin="round"/>
<path d="M12 2V7.11696C12 8.50841 12 9.20413 11.6225 9.7279C11.245 10.2517 10.5849 10.4717 9.26491 10.9117L8.73509 11.0883C7.41505 11.5283 6.75503 11.7483 6.37752 12.2721C6 12.7959 6 13.4916 6 14.883V15.5" stroke="black" stroke-width="2" stroke-linejoin="round"/>
<path d="M12 2V7.11696C12 8.50841 12 9.20413 12.3775 9.7279C12.755 10.2517 13.4151 10.4717 14.7351 10.9117L15.2649 11.0883C16.5849 11.5283 17.245 11.7483 17.6225 12.2721C18 12.7959 18 13.4916 18 14.883V15.5" stroke="black" stroke-width="2" stroke-linejoin="round"/>
</svg>
