<svg width="24" height="24" viewBox="0 0 24 24" fill="none" xmlns="http://www.w3.org/2000/svg">
<path fill="black" d="M10 7L17 14"/>
<path fill="black" d="M7 10L14 17"/>
<path fill="black" d="M15.7348 6.67418C15.907 6.6168 16.093 6.6168 16.2652 6.67418C16.7659 6.8411 17.1589 7.23406 17.3258 7.73484C17.3832 7.90696 17.3832 8.09305 17.3258 8.26517C17.1589 8.76594 16.7659 9.1589 16.2652 9.32583C16.093 9.3832 15.907 9.3832 15.7348 9.32583C15.2341 9.1589 14.8411 8.76594 14.6742 8.26517C14.6168 8.09305 14.6168 7.90696 14.6742 7.73484C14.8411 7.23406 15.2341 6.8411 15.7348 6.67418Z"/>
<path fill="black" d="M7.73483 14.6742C7.90696 14.6168 8.09304 14.6168 8.26517 14.6742C8.76594 14.8411 9.1589 15.2341 9.32583 15.7348C9.3832 15.907 9.3832 16.093 9.32583 16.2652C9.1589 16.7659 8.76594 17.1589 8.26517 17.3258C8.09304 17.3832 7.90696 17.3832 7.73483 17.3258C7.23406 17.1589 6.8411 16.7659 6.67417 16.2652C6.6168 16.093 6.6168 15.907 6.67417 15.7348C6.8411 15.2341 7.23406 14.8411 7.73483 14.6742Z"/>
<path fill="black" d="M10.8581 19.673L10.7273 19.7665C9.66484 20.5253 8.26994 20.6348 7.10215 20.0509C5.73784 19.3687 4.63159 18.2625 3.94943 16.8982C3.36553 15.7304 3.47498 14.3355 4.23387 13.273L4.3272 13.1424C6.75912 9.7377 9.73782 6.75903 13.1425 4.32714L13.2733 4.23376C14.3357 3.4749 15.7306 3.36547 16.8984 3.94931C18.2627 4.63139 19.369 5.7376 20.0512 7.10184C20.6351 8.2696 20.5257 9.66448 19.7668 10.7269L19.6734 10.8577C17.2415 14.2624 14.2628 17.2411 10.8581 19.673Z"/>
</svg>
