<svg width="24" height="24" viewBox="0 0 24 24" fill="none" xmlns="http://www.w3.org/2000/svg">
<path fill="black" d="M21 4.93974C21 3.83544 20.1697 2.90774 19.0721 2.78579L17.3851 2.59834C13.806 2.20067 10.194 2.20067 6.61491 2.59834L4.92788 2.78579C3.83033 2.90774 3 3.83544 3 4.93974V4.93974C3 7.51247 4.14275 9.95229 6.11917 11.5993L8.33333 13.4444C8.75576 13.7965 9 14.3179 9 14.8678V20.4937C9 21.2822 9.70805 21.882 10.4859 21.7524V21.7524C11.4896 21.5851 12.4628 21.2686 13.373 20.8135L13.9818 20.5091C14.6058 20.1971 15 19.5593 15 18.8616V14.4594C15 14.1683 15.1293 13.8922 15.3529 13.7059L17.8808 11.5993C19.8572 9.95229 21 7.51247 21 4.93974V4.93974Z"/>
</svg>
