<svg width="24" height="24" viewBox="0 0 24 24" fill="none" xmlns="http://www.w3.org/2000/svg">
<path fill="black" d="M8.50001 17H12.2103C12.6657 17 13.1021 16.9069 13.5 16.7374M5.00001 17C3.8459 17 2.86094 16.1656 2.67121 15.0272L2.54139 14.2483C2.18294 12.0976 2.18294 9.9024 2.54139 7.75171L2.58334 7.5C2.83259 6.00449 4.0045 4.83258 5.50001 4.58333C7.81736 4.19711 10.1827 4.19711 12.5 4.58333C13.9955 4.83258 15.1674 6.0045 15.4167 7.5L15.4586 7.75171C15.8171 9.9024 15.8171 12.0976 15.4586 14.2483C15.4147 14.5117 15.3403 14.7634 15.2394 15"/>
<path fill="black" d="M16 8H16.6384C17.269 8 17.5844 8 17.8524 8.07615C18.4071 8.23378 18.8669 8.62322 19.1136 9.14454C19.2327 9.39638 19.2846 9.70741 19.3882 10.3295V10.3295C19.4196 10.5178 19.4353 10.6119 19.4595 10.7031C19.5092 10.8902 19.5857 11.0692 19.6868 11.2343C19.736 11.3147 19.7933 11.3911 19.9079 11.5438L20.4 12.2C20.5978 12.4638 20.6967 12.5956 20.7716 12.7385C20.8713 12.9289 20.9397 13.1341 20.9742 13.3463C21 13.5054 21 13.6703 21 14V14C21 14.9319 21 15.3978 20.8478 15.7654C20.6448 16.2554 20.2554 16.6448 19.7654 16.8478C19.3978 17 18.9319 17 18 17H17.5"/>
<path fill="black" d="M4.71429 16.0714C4.79156 15.9169 4.91688 15.7916 5.07143 15.7143V15.7143C5.97073 15.2646 7.02927 15.2646 7.92857 15.7143V15.7143C8.08312 15.7916 8.20844 15.9169 8.28571 16.0714V16.0714C8.73537 16.9707 8.73537 18.0293 8.28571 18.9286V18.9286C8.20844 19.0831 8.08312 19.2084 7.92857 19.2857V19.2857C7.02927 19.7354 5.97073 19.7354 5.07143 19.2857V19.2857C4.91688 19.2084 4.79156 19.0831 4.71429 18.9286V18.9286C4.26463 18.0293 4.26463 16.9707 4.71429 16.0714V16.0714Z"/>
<path fill="black" d="M13.7143 16.0714C13.7916 15.9169 13.9169 15.7916 14.0714 15.7143V15.7143C14.9707 15.2646 16.0293 15.2646 16.9286 15.7143V15.7143C17.0831 15.7916 17.2084 15.9169 17.2857 16.0714V16.0714C17.7354 16.9707 17.7354 18.0293 17.2857 18.9286V18.9286C17.2084 19.0831 17.0831 19.2084 16.9286 19.2857V19.2857C16.0293 19.7354 14.9707 19.7354 14.0714 19.2857V19.2857C13.9169 19.2084 13.7916 19.0831 13.7143 18.9286V18.9286C13.2646 18.0293 13.2646 16.9707 13.7143 16.0714V16.0714Z"/>
<path fill="black" d="M9 7V13"/>
<path fill="black" d="M12 10H6"/>
</svg>
