<svg width="24" height="24" viewBox="0 0 24 24" fill="none" xmlns="http://www.w3.org/2000/svg">
<path d="M6.37504 5.87487C6.7714 4.68579 7.67118 3.73153 8.83494 3.26602V3.26602C10.8667 2.45331 13.1333 2.45331 15.1651 3.26602V3.26602C16.3288 3.73153 17.2286 4.68579 17.625 5.87487L17.8205 6.46163C18.5861 8.75843 18.5861 11.2416 17.8205 13.5384L17.3915 14.8254C17.1322 15.6034 16.7492 16.3345 16.2571 16.9905L14.4303 19.4263C14.1473 19.8036 13.7804 20.1098 13.3586 20.3207V20.3207C12.5033 20.7483 11.4967 20.7483 10.6414 20.3207V20.3207C10.2196 20.1098 9.85268 19.8036 9.56972 19.4263L7.74287 16.9905C7.25084 16.3345 6.86779 15.6034 6.60847 14.8254L6.17946 13.5384C5.41386 11.2416 5.41386 8.75843 6.17946 6.46163L6.37504 5.87487Z" stroke="black" stroke-width="2" stroke-linejoin="round"/>
<path d="M9.85714 8.28571C9.94987 8.10025 10.1003 7.94987 10.2857 7.85714V7.85714C11.3649 7.31756 12.6351 7.31756 13.7143 7.85714V7.85714C13.8997 7.94987 14.0501 8.10025 14.1429 8.28571V8.28571C14.6824 9.36488 14.6824 10.6351 14.1429 11.7143V11.7143C14.0501 11.8997 13.8997 12.0501 13.7143 12.1429V12.1429C12.6351 12.6824 11.3649 12.6824 10.2857 12.1429V12.1429C10.1003 12.0501 9.94987 11.8997 9.85714 11.7143V11.7143C9.31756 10.6351 9.31756 9.36488 9.85714 8.28571V8.28571Z" stroke="#808080" stroke-width="2" stroke-linejoin="round"/>
</svg>
