<svg width="24" height="24" viewBox="0 0 24 24" fill="none" xmlns="http://www.w3.org/2000/svg">
<path d="M3.24258 8.65098C3.6909 7.08183 5.12512 6 6.75706 6H7.31995C7.73673 6 8.11774 5.76452 8.30413 5.39175L8.75736 4.48528C8.91272 4.17456 9.18515 3.93828 9.51472 3.82843V3.82843C11.1279 3.29069 12.8721 3.29069 14.4853 3.82843V3.82843C14.8149 3.93828 15.0873 4.17456 15.2426 4.48528L15.6959 5.39175C15.8823 5.76452 16.2633 6 16.68 6H17.2429C18.8749 6 20.3091 7.08183 20.7574 8.65098L20.7964 8.78749C21.5805 11.5317 21.5171 14.4487 20.6146 17.1563V17.1563C20.2318 18.3046 19.2889 19.1778 18.1145 19.4714L17.8567 19.5358C14.0114 20.4972 9.9886 20.4972 6.14333 19.5358L5.88545 19.4714C4.71113 19.1778 3.7682 18.3046 3.38542 17.1563V17.1563C2.48291 14.4487 2.41952 11.5317 3.20357 8.78749L3.24258 8.65098Z" stroke="black" stroke-width="2" stroke-linejoin="round"/>
<path d="M8.72727 10.8182C8.89896 10.3031 9.30312 9.89896 9.81818 9.72727V9.72727C11.2344 9.25519 12.7656 9.25519 14.1818 9.72727V9.72727C14.6969 9.89896 15.101 10.3031 15.2727 10.8182V10.8182C15.7448 12.2344 15.7448 13.7656 15.2727 15.1818V15.1818C15.101 15.6969 14.6969 16.101 14.1818 16.2727V16.2727C12.7656 16.7448 11.2344 16.7448 9.81818 16.2727V16.2727C9.30312 16.101 8.89896 15.6969 8.72727 15.1818V15.1818C8.25519 13.7656 8.25519 12.2344 8.72727 10.8182V10.8182Z" stroke="black" stroke-width="2" stroke-linejoin="round"/>
</svg>
