<svg width="24" height="24" viewBox="0 0 24 24" fill="none" xmlns="http://www.w3.org/2000/svg">
<path fill="black" d="M6.44444 12.7778C6.78086 11.0957 8.09569 9.78086 9.77778 9.44444V9.44444C11.2447 9.15105 12.7553 9.15105 14.2222 9.44444V9.44444C15.9043 9.78086 17.2191 11.0957 17.5556 12.7778V12.7778C17.8489 14.2447 17.8489 15.7553 17.5556 17.2222V17.2222C17.2191 18.9043 15.9043 20.2191 14.2222 20.5556V20.5556C12.7553 20.8489 11.2447 20.8489 9.77778 20.5556V20.5556C8.09569 20.2191 6.78086 18.9043 6.44444 17.2222V17.2222C6.15105 15.7553 6.15105 14.2447 6.44444 12.7778V12.7778Z"/>
<path fill="black" d="M9 4L15 4C17.2091 4 19 5.79086 19 8V8"/>
<path fill="black" d="M12 4L12 9"/>
<path fill="black" d="M12 12L12 18"/>
<path fill="black" d="M15 15L9 15"/>
</svg>
