<svg width="24" height="24" viewBox="0 0 24 24" fill="none" xmlns="http://www.w3.org/2000/svg">
<path d="M15 12L9 12" stroke="black" stroke-width="2" stroke-linejoin="round"/>
<path d="M15.8418 8.63261C15.9412 8.23533 16.2252 7.90991 16.6054 7.75782V7.75782C17.8216 7.27135 19.1784 7.27135 20.3946 7.75782V7.75782C20.7748 7.90991 21.0588 8.23533 21.1582 8.63261L21.2036 8.81441C21.7265 10.906 21.7265 13.094 21.2036 15.1856L21.1582 15.3674C21.0588 15.7647 20.7748 16.0901 20.3946 16.2422V16.2422C19.1784 16.7287 17.8216 16.7287 16.6054 16.2422V16.2422C16.2252 16.0901 15.9412 15.7647 15.8418 15.3674L15.7964 15.1856C15.2735 13.094 15.2735 10.906 15.7964 8.81441L15.8418 8.63261Z" stroke="black" stroke-width="2" stroke-linejoin="round"/>
<path d="M2.84185 8.63261C2.94117 8.23533 3.22522 7.90991 3.60544 7.75782V7.75782C4.82164 7.27135 6.17836 7.27135 7.39456 7.75782V7.75782C7.77478 7.90991 8.05883 8.23533 8.15815 8.63261L8.2036 8.81441C8.72649 10.906 8.72649 13.094 8.2036 15.1856L8.15815 15.3674C8.05883 15.7647 7.77478 16.0901 7.39456 16.2422V16.2422C6.17836 16.7287 4.82164 16.7287 3.60544 16.2422V16.2422C3.22522 16.0901 2.94117 15.7647 2.84185 15.3674L2.7964 15.1856C2.27351 13.094 2.27351 10.906 2.7964 8.81441L2.84185 8.63261Z" stroke="black" stroke-width="2" stroke-linejoin="round"/>
<path d="M22 12H23" stroke="black" stroke-width="2" stroke-linejoin="round"/>
<path d="M1 12H2" stroke="black" stroke-width="2" stroke-linejoin="round"/>
</svg>
