<svg width="24" height="24" viewBox="0 0 24 24" fill="none" xmlns="http://www.w3.org/2000/svg">
<path d="M17.9862 3.66513L18.2822 3.69802C19.8295 3.86994 21 5.19944 21 6.7562C21 7.54632 20.6861 8.31388 20.1274 8.87258C19.4231 9.57693 19.1173 10.5867 19.3127 11.5634L19.4693 12.3466C19.8196 14.0982 19.8196 15.9018 19.4693 17.6534C19.1881 19.0596 18.0506 20.1356 16.631 20.3384L16.3235 20.3824C13.4557 20.792 10.5443 20.792 7.67655 20.3824L7.36905 20.3384C5.94938 20.1356 4.81192 19.0596 4.53067 17.6534C4.18036 15.9018 4.18036 14.0982 4.53067 12.3466L4.68731 11.5634C4.88266 10.5867 4.57693 9.57693 3.87258 8.87258C3.31388 8.31388 3 7.54632 3 6.7562C3 5.19944 4.17054 3.86994 5.71778 3.69802L6.01381 3.66513C9.99236 3.22307 14.0076 3.22307 17.9862 3.66513Z" stroke="black" stroke-width="2" stroke-linejoin="round"/>
<path d="M11.8586 10.1615C11.9504 10.1309 12.0496 10.1309 12.1414 10.1615V10.1615C12.9427 10.4286 13.5714 11.0573 13.8385 11.8586V11.8586C13.8691 11.9504 13.8691 12.0496 13.8385 12.1414V12.1414C13.5714 12.9427 12.9427 13.5714 12.1414 13.8385V13.8385C12.0496 13.8691 11.9504 13.8691 11.8586 13.8385V13.8385C11.0573 13.5714 10.4286 12.9427 10.1615 12.1414V12.1414C10.1309 12.0496 10.1309 11.9504 10.1615 11.8586V11.8586C10.4286 11.0573 11.0573 10.4286 11.8586 10.1615V10.1615Z" stroke="black" stroke-width="2" stroke-linejoin="round"/>
</svg>
