<svg width="24" height="24" viewBox="0 0 24 24" fill="none" xmlns="http://www.w3.org/2000/svg">
<path d="M2.85714 12.2857C2.94987 12.1003 3.10025 11.9499 3.28571 11.8571V11.8571C4.36488 11.3176 5.63512 11.3176 6.71429 11.8571V11.8571C6.89975 11.9499 7.05013 12.1003 7.14286 12.2857V12.2857C7.68244 13.3649 7.68244 14.6351 7.14286 15.7143V15.7143C7.05013 15.8997 6.89975 16.0501 6.71429 16.1429V16.1429C5.63512 16.6824 4.36488 16.6824 3.28571 16.1429V16.1429C3.10025 16.0501 2.94987 15.8997 2.85714 15.7143V15.7143C2.31756 14.6351 2.31756 13.3649 2.85714 12.2857V12.2857Z" stroke="black" stroke-width="2" stroke-linejoin="round"/>
<path d="M9.85714 6.28571C9.94987 6.10025 10.1003 5.94987 10.2857 5.85714V5.85714C11.3649 5.31756 12.6351 5.31756 13.7143 5.85714V5.85714C13.8997 5.94987 14.0501 6.10025 14.1429 6.28571V6.28571C14.6824 7.36488 14.6824 8.63512 14.1429 9.71429V9.71429C14.0501 9.89975 13.8997 10.0501 13.7143 10.1429V10.1429C12.6351 10.6824 11.3649 10.6824 10.2857 10.1429V10.1429C10.1003 10.0501 9.94987 9.89975 9.85714 9.71429V9.71429C9.31756 8.63512 9.31756 7.36488 9.85714 6.28571V6.28571Z" stroke="black" stroke-width="2" stroke-linejoin="round"/>
<path d="M16.8571 12.2857C16.9499 12.1003 17.1003 11.9499 17.2857 11.8571V11.8571C18.3649 11.3176 19.6351 11.3176 20.7143 11.8571V11.8571C20.8997 11.9499 21.0501 12.1003 21.1429 12.2857V12.2857C21.6824 13.3649 21.6824 14.6351 21.1429 15.7143V15.7143C21.0501 15.8997 20.8997 16.0501 20.7143 16.1429V16.1429C19.6351 16.6824 18.3649 16.6824 17.2857 16.1429V16.1429C17.1003 16.0501 16.9499 15.8997 16.8571 15.7143V15.7143C16.3176 14.6351 16.3176 13.3649 16.8571 12.2857V12.2857Z" stroke="black" stroke-width="2" stroke-linejoin="round"/>
</svg>
