<svg width="24" height="24" viewBox="0 0 24 24" fill="none" xmlns="http://www.w3.org/2000/svg">
<path d="M4.44 6.96C4.78827 5.74107 5.74107 4.78827 6.96 4.44V4.44C10.2541 3.49883 13.7459 3.49883 17.04 4.44V4.44C18.2589 4.78827 19.2117 5.74107 19.56 6.96V6.96C20.5012 10.2541 20.5012 13.7459 19.56 17.04V17.04C19.2117 18.2589 18.2589 19.2117 17.04 19.56V19.56C13.7459 20.5012 10.2541 20.5012 6.96 19.56V19.56C5.74107 19.2117 4.78826 18.2589 4.44 17.04V17.04C3.49883 13.7459 3.49883 10.2541 4.44 6.96V6.96Z" stroke="black" stroke-width="2" stroke-linejoin="round"/>
<path d="M7 10L7.25746 8.97014C7.308 8.76799 7.33327 8.66692 7.37227 8.58212C7.50767 8.28775 7.7773 8.07723 8.09572 8.01727C8.18744 8 8.29163 8 8.5 8V8C8.70837 8 8.81256 8 8.90428 8.01727C9.2227 8.07723 9.49233 8.28775 9.62773 8.58212C9.66673 8.66692 9.692 8.76799 9.74254 8.97014L10 10" stroke="black" stroke-width="2" stroke-linejoin="round"/>
<path d="M14 10L14.2575 8.97014C14.308 8.76799 14.3333 8.66692 14.3723 8.58212C14.5077 8.28775 14.7773 8.07723 15.0957 8.01727C15.1874 8 15.2916 8 15.5 8V8C15.7084 8 15.8126 8 15.9043 8.01727C16.2227 8.07723 16.4923 8.28775 16.6277 8.58212C16.6667 8.66692 16.692 8.76799 16.7425 8.97014L17 10" stroke="black" stroke-width="2" stroke-linejoin="round"/>
<path d="M8 13L8.27239 14.0896C8.6069 15.4276 8.77415 16.0966 9.25006 16.51C9.30268 16.5557 9.35765 16.5986 9.41476 16.6386C9.93119 17 10.6208 17 12 17V17C13.3792 17 14.0688 17 14.5852 16.6386C14.6423 16.5986 14.6973 16.5557 14.7499 16.51C15.2258 16.0966 15.3931 15.4276 15.7276 14.0896L16 13" stroke="black" stroke-width="2" stroke-linejoin="round"/>
</svg>
