<svg width="24" height="24" viewBox="0 0 24 24" fill="none" xmlns="http://www.w3.org/2000/svg">
<path d="M4 7L4 21" stroke="black" stroke-width="2" stroke-linejoin="round"/>
<path d="M4 6.02313C4 5.80436 4 5.69497 4.00903 5.60028C4.09219 4.72789 4.73362 4.01125 5.59149 3.83225C5.6846 3.81282 5.79332 3.80074 6.01075 3.77658V3.77658C6.81474 3.68725 7.21674 3.64258 7.61824 3.60382C11.1978 3.25822 14.8022 3.25822 18.3818 3.60382C18.7833 3.64258 19.1853 3.68725 19.9892 3.77658L20.1974 3.79971C20.421 3.82456 20.5328 3.83698 20.6118 3.85924C21.1822 4.01989 21.4886 4.63845 21.2707 5.18949C21.2405 5.26586 21.1826 5.36232 21.0669 5.55523L19.6174 7.97101C19.3166 8.47235 19.1662 8.72302 19.1662 9C19.1662 9.27698 19.3166 9.52765 19.6174 10.029L21.0669 12.4448C21.1826 12.6377 21.2405 12.7341 21.2707 12.8105C21.4886 13.3615 21.1822 13.9801 20.6118 14.1408C20.5328 14.163 20.421 14.1754 20.1974 14.2003L19.9892 14.2234C19.1853 14.3127 18.7833 14.3574 18.3818 14.3962C14.8022 14.7418 11.1978 14.7418 7.61824 14.3962C7.21674 14.3574 6.81474 14.3127 6.01075 14.2234V14.2234C5.79332 14.1993 5.6846 14.1872 5.59149 14.1678C4.73362 13.9888 4.09219 13.2721 4.00903 12.3997C4 12.305 4 12.1956 4 11.9769V9V6.02313Z" stroke="black" stroke-width="2" stroke-linejoin="round"/>
</svg>
