<svg width="24" height="24" viewBox="0 0 24 24" fill="none" xmlns="http://www.w3.org/2000/svg">
<path d="M8 2V5" stroke="black" stroke-width="2" stroke-linejoin="round"/>
<path d="M16 2V5" stroke="black" stroke-width="2" stroke-linejoin="round"/>
<path d="M3 10H21" stroke="black" stroke-width="2" stroke-linejoin="round"/>
<path d="M3.57043 7.50351C3.84062 6.55784 4.54322 5.79629 5.46411 5.45096V5.45096C9.6781 3.87071 14.3219 3.87071 18.5359 5.45096V5.45096C19.4568 5.79629 20.1594 6.55783 20.4296 7.50351L20.6714 8.34998C21.5398 11.3892 21.5398 14.6108 20.6714 17.65L20.6298 17.7958C20.2401 19.1597 19.1521 20.212 17.776 20.556V20.556C13.9837 21.5041 10.0163 21.5041 6.224 20.556V20.556C4.84785 20.212 3.75991 19.1597 3.37022 17.7958L3.32858 17.65C2.46023 14.6108 2.46023 11.3892 3.32858 8.34998L3.57043 7.50351Z" stroke="black" stroke-width="2" stroke-linejoin="round"/>
<path d="M6.375 13.75C6.45614 13.5877 6.58772 13.4561 6.75 13.375C7.22214 13.1389 7.77786 13.1389 8.25 13.375C8.41228 13.4561 8.54386 13.5877 8.625 13.75C8.86107 14.2221 8.86107 14.7779 8.625 15.25C8.54386 15.4123 8.41228 15.5439 8.25 15.625C7.77786 15.8611 7.22214 15.8611 6.75 15.625C6.58772 15.5439 6.45614 15.4123 6.375 15.25C6.13893 14.7779 6.13893 14.2221 6.375 13.75Z" fill="black"/>
<path d="M10.875 13.75C10.9561 13.5877 11.0877 13.4561 11.25 13.375C11.7221 13.1389 12.2779 13.1389 12.75 13.375C12.9123 13.4561 13.0439 13.5877 13.125 13.75C13.3611 14.2221 13.3611 14.7779 13.125 15.25C13.0439 15.4123 12.9123 15.5439 12.75 15.625C12.2779 15.8611 11.7221 15.8611 11.25 15.625C11.0877 15.5439 10.9561 15.4123 10.875 15.25C10.6389 14.7779 10.6389 14.2221 10.875 13.75Z" fill="black"/>
<path d="M15.375 13.75C15.4561 13.5877 15.5877 13.4561 15.75 13.375C16.2221 13.1389 16.7779 13.1389 17.25 13.375C17.4123 13.4561 17.5439 13.5877 17.625 13.75C17.8611 14.2221 17.8611 14.7779 17.625 15.25C17.5439 15.4123 17.4123 15.5439 17.25 15.625C16.7779 15.8611 16.2221 15.8611 15.75 15.625C15.5877 15.5439 15.4561 15.4123 15.375 15.25C15.1389 14.7779 15.1389 14.2221 15.375 13.75Z" fill="black"/>
</svg>
