<svg width="24" height="24" viewBox="0 0 24 24" fill="none" xmlns="http://www.w3.org/2000/svg">
<path d="M10 6V2" stroke="black" stroke-width="2" stroke-linejoin="round"/>
<path d="M10 22V18" stroke="black" stroke-width="2" stroke-linejoin="round"/>
<path d="M14 22V18" stroke="black" stroke-width="2" stroke-linejoin="round"/>
<path d="M14 6V2" stroke="black" stroke-width="2" stroke-linejoin="round"/>
<path d="M18 9L17.4292 7.28753C17.369 7.10688 17.3389 7.01656 17.3033 6.93488C17.0669 6.39229 16.6024 5.98223 16.0347 5.81502C15.9493 5.78985 15.8559 5.77118 15.6692 5.73384V5.73384C15.1401 5.62803 14.8756 5.57513 14.6118 5.53147C12.8824 5.24533 11.1176 5.24533 9.3882 5.53147C9.12437 5.57513 8.85985 5.62803 8.33082 5.73384L7.94035 5.81193C7.35886 5.92823 6.88427 6.34719 6.69675 6.90976L6.64911 7.05267C6.22777 8.3167 6.22777 9.6833 6.64911 10.9473V10.9473C6.85866 11.576 7.44696 12 8.10961 12H15.8904C16.553 12 17.1413 12.424 17.3509 13.0527V13.0527C17.7722 14.3167 17.7722 15.6833 17.3509 16.9473L17.3033 17.0902C17.1157 17.6528 16.6411 18.0718 16.0597 18.1881L15.6692 18.2662C15.1401 18.372 14.8756 18.4249 14.6118 18.4685C12.8824 18.7547 11.1176 18.7547 9.3882 18.4685C9.12437 18.4249 8.85985 18.372 8.33082 18.2662V18.2662C8.1441 18.2288 8.05074 18.2101 7.96528 18.185C7.39756 18.0178 6.93306 17.6077 6.69672 17.0651C6.66115 16.9834 6.63104 16.8931 6.57082 16.7125L6 15" stroke="black" stroke-width="2" stroke-linejoin="round"/>
</svg>
