<svg width="24" height="24" viewBox="0 0 24 24" fill="none" xmlns="http://www.w3.org/2000/svg">
<path d="M6.73171 9.67073C6.86998 9.32505 7.29129 9.1942 7.60107 9.40071L8.57613 10.0508C9.40405 10.6027 10.5065 10.4935 11.2101 9.78995V9.78995C11.7036 9.29643 11.9178 8.58892 11.7809 7.90454L11.3549 5.77469C11.2277 5.13849 11.9448 4.67484 12.4727 5.05195L15.5219 7.2299C17.114 8.36712 18.2135 10.0677 18.5972 11.9862V11.9862C18.8631 13.3156 18.8631 14.6844 18.5972 16.0138L18.5211 16.3945C18.1989 18.0057 17.038 19.3207 15.4793 19.8402L15.2077 19.9308C13.1256 20.6248 10.8744 20.6248 8.79227 19.9308L8.38941 19.7965C6.91186 19.304 5.8115 18.0575 5.50605 16.5303V16.5303C5.17582 14.8791 5.33296 13.1676 5.95832 11.6042L6.73171 9.67073Z" stroke="black" stroke-width="2" stroke-linejoin="round"/>
</svg>
