<svg width="24" height="24" viewBox="0 0 24 24" fill="none" xmlns="http://www.w3.org/2000/svg">
<path fill="black" d="M3.96427 7.17862L4.94485 7.37474L4.94485 7.37474L3.96427 7.17862ZM3.98865 7.05884L3.01098 6.8487L3.01098 6.8487L3.98865 7.05884ZM3.91899 7.40646L4.9005 7.59786L4.9005 7.59786L3.91899 7.40646ZM3.91899 16.5936L4.9005 16.4022L4.9005 16.4022L3.91899 16.5936ZM3.96427 16.8215L4.94564 16.6293L4.94485 16.6254L3.96427 16.8215ZM3.96428 16.8215L2.98291 17.0137L2.9837 17.0176L3.96428 16.8215ZM3.98865 16.9413L4.96632 16.7311L4.96632 16.7311L3.98865 16.9413ZM7.05878 20.0114L7.26893 19.0337L7.26892 19.0337L7.05878 20.0114ZM7.17856 20.0358L7.37495 19.0552L7.37468 19.0552L7.17856 20.0358ZM7.18083 20.0362L6.98444 21.0167L6.98473 21.0168L7.18083 20.0362ZM7.4064 20.081L7.5978 19.0995L7.59777 19.0995L7.4064 20.081ZM16.5936 20.081L16.4022 19.0995L16.4022 19.0995L16.5936 20.081ZM16.8191 20.0362L17.0152 21.0168L17.0156 21.0167L16.8191 20.0362ZM16.8214 20.0358L16.6893 19.0445C16.6677 19.0474 16.6463 19.051 16.625 19.0552L16.8214 20.0358ZM16.8215 20.0358L16.9536 21.027C16.9751 21.0241 16.9964 21.0206 17.0176 21.0163L16.8215 20.0358ZM16.9412 20.0114L16.7311 19.0337L16.7311 19.0337L16.9412 20.0114ZM20.0113 16.9413L19.0337 16.7311L19.0337 16.7311L20.0113 16.9413ZM20.0357 16.8215L21.0163 17.0177C21.0205 16.9965 21.0241 16.9751 21.0269 16.9537L20.0357 16.8215ZM20.0357 16.8215L19.0552 16.625C19.0509 16.6463 19.0473 16.6678 19.0445 16.6893L20.0357 16.8215ZM20.0362 16.8192L21.0167 17.0156L21.0167 17.0153L20.0362 16.8192ZM20.081 16.5936L19.0995 16.4022L19.0995 16.4023L20.081 16.5936ZM20.4175 14.2657L21.4131 14.3601C21.4634 13.8294 21.0886 13.3525 20.5611 13.276C20.0335 13.1995 19.5387 13.5502 19.4362 14.0733L20.4175 14.2657ZM20.2857 14.8572L21.2558 15.0997L21.2558 15.0997L20.2857 14.8572ZM18.8571 16.2858L19.0997 17.2559H19.0997L18.8571 16.2858ZM13.1428 16.2858L12.9003 17.2559H12.9003L13.1428 16.2858ZM11.7143 14.8572L10.7441 15.0997V15.0997L11.7143 14.8572ZM11.7143 9.14291L10.7441 8.90037V8.90037L11.7143 9.14291ZM18.8571 7.71433L18.6146 8.68448L18.8571 7.71433ZM20.2857 9.14291L21.2558 8.90037L21.2558 8.90037L20.2857 9.14291ZM20.4175 9.73443L19.4362 9.92676C19.5387 10.4499 20.0335 10.8006 20.5611 10.7241C21.0886 10.6476 21.4634 10.1707 21.4131 9.64003L20.4175 9.73443ZM20.081 7.40646L19.0995 7.59783L19.0995 7.59786L20.081 7.40646ZM20.0362 7.1809L21.0167 6.98479L21.0167 6.9845L20.0362 7.1809ZM20.0357 7.17862L19.0551 7.37474L19.0552 7.37501L20.0357 7.17862ZM20.0113 7.05884L19.0337 7.26898L19.0337 7.26899L20.0113 7.05884ZM16.9412 3.98871L16.7311 4.96638L16.7311 4.96638L16.9412 3.98871ZM16.8215 3.96434L17.0176 2.98375L17.0136 2.98298L16.8215 3.96434ZM16.8214 3.96433L16.6253 4.94492L16.6292 4.94569L16.8214 3.96433ZM16.5936 3.91905L16.4022 4.90056L16.4022 4.90056L16.5936 3.91905ZM7.4064 3.91905L7.5978 4.90056L7.5978 4.90056L7.4064 3.91905ZM7.17856 3.96433L7.37467 4.94491L7.37468 4.94491L7.17856 3.96433ZM7.05878 3.98871L6.84864 3.01104L6.84864 3.01104L7.05878 3.98871ZM4.94485 7.37474C4.9577 7.31053 4.96217 7.2883 4.96632 7.26897L3.01098 6.8487C3.00309 6.88539 2.99532 6.92434 2.98369 6.9825L4.94485 7.37474ZM4.9005 7.59786C4.91098 7.54413 4.92185 7.48977 4.94485 7.37474L2.98369 6.9825C2.96104 7.09575 2.94908 7.15554 2.93747 7.21506L4.9005 7.59786ZM4.9005 16.4022C4.33354 13.4948 4.33354 10.5053 4.9005 7.59786L2.93747 7.21506C2.32122 10.3753 2.32122 13.6248 2.93747 16.785L4.9005 16.4022ZM4.94485 16.6254C4.92185 16.5103 4.91098 16.456 4.9005 16.4022L2.93747 16.785C2.94908 16.8446 2.96104 16.9043 2.98369 17.0176L4.94485 16.6254ZM4.94564 16.6293L4.94563 16.6293L2.98291 17.0137L2.98292 17.0137L4.94564 16.6293ZM4.96632 16.7311C4.96217 16.7118 4.9577 16.6896 4.94486 16.6254L2.9837 17.0176C2.99533 17.0758 3.00309 17.1147 3.01098 17.1514L4.96632 16.7311ZM7.26892 19.0337C6.11536 18.7858 5.21426 17.8847 4.96632 16.7311L3.01098 17.1514C3.42421 19.074 4.92605 20.5758 6.84864 20.9891L7.26892 19.0337ZM7.37468 19.0552C7.31047 19.0423 7.28825 19.0379 7.26893 19.0337L6.84863 20.9891C6.88532 20.9969 6.92427 21.0047 6.98243 21.0163L7.37468 19.0552ZM7.37723 19.0557L7.37495 19.0552L6.98217 21.0163L6.98444 21.0167L7.37723 19.0557ZM7.59777 19.0995C7.54443 19.0891 7.49046 19.0783 7.37694 19.0556L6.98473 21.0168C7.09646 21.0391 7.15587 21.051 7.21503 21.0626L7.59777 19.0995ZM16.4022 19.0995C13.4948 19.6665 10.5052 19.6665 7.5978 19.0995L7.215 21.0626C10.3752 21.6788 13.6247 21.6788 16.785 21.0626L16.4022 19.0995ZM16.623 19.0556C16.5095 19.0783 16.4555 19.0891 16.4022 19.0995L16.7849 21.0626C16.8441 21.051 16.9035 21.0391 17.0152 21.0168L16.623 19.0556ZM16.625 19.0552L16.6227 19.0557L17.0156 21.0167L17.0178 21.0163L16.625 19.0552ZM16.6893 19.0445L16.6893 19.0445L16.9536 21.027L16.9536 21.027L16.6893 19.0445ZM16.7311 19.0337C16.7117 19.0379 16.6895 19.0423 16.6253 19.0552L17.0176 21.0163C17.0757 21.0047 17.1147 20.9969 17.1513 20.9891L16.7311 19.0337ZM19.0337 16.7311C18.7857 17.8847 17.8846 18.7858 16.7311 19.0337L17.1513 20.9891C19.0739 20.5758 20.5758 19.074 20.989 17.1514L19.0337 16.7311ZM19.0551 16.6253C19.0423 16.6896 19.0378 16.7118 19.0337 16.7311L20.989 17.1514C20.9969 17.1147 21.0046 17.0758 21.0163 17.0177L19.0551 16.6253ZM19.0445 16.6893L19.0445 16.6894L21.0269 16.9537L21.0269 16.9536L19.0445 16.6893ZM19.0556 16.6228L19.0552 16.625L21.0162 17.0179L21.0167 17.0156L19.0556 16.6228ZM19.0995 16.4023C19.0891 16.4556 19.0783 16.5096 19.0556 16.6231L21.0167 17.0153C21.0391 16.9036 21.051 16.8442 21.0625 16.785L19.0995 16.4023ZM19.422 14.1713C19.3511 14.9184 19.2436 15.663 19.0995 16.4022L21.0625 16.785C21.2192 15.9815 21.336 15.1722 21.4131 14.3601L19.422 14.1713ZM19.4362 14.0733C19.4007 14.2545 19.3605 14.435 19.3156 14.6147L21.2558 15.0997C21.3091 14.8868 21.3568 14.6728 21.3988 14.458L19.4362 14.0733ZM19.3156 14.6147C19.2293 14.9598 18.9598 15.2293 18.6146 15.3156L19.0997 17.2559C20.1614 16.9905 20.9904 16.1615 21.2558 15.0997L19.3156 14.6147ZM18.6146 15.3156C16.8979 15.7448 15.102 15.7448 13.3854 15.3156L12.9003 17.2559C14.9354 17.7647 17.0645 17.7647 19.0997 17.2559L18.6146 15.3156ZM13.3854 15.3156C13.0402 15.2293 12.7707 14.9598 12.6844 14.6147L10.7441 15.0997C11.0096 16.1615 11.8386 16.9905 12.9003 17.2559L13.3854 15.3156ZM12.6844 14.6147C12.2553 12.898 12.2553 11.1021 12.6844 9.38544L10.7441 8.90037C10.2353 10.9355 10.2353 13.0646 10.7441 15.0997L12.6844 14.6147ZM12.6844 9.38544C12.7707 9.04028 13.0402 8.77077 13.3854 8.68448L12.9003 6.74419C11.8386 7.00963 11.0096 7.83863 10.7441 8.90037L12.6844 9.38544ZM13.3854 8.68448C15.102 8.25531 16.8979 8.25531 18.6146 8.68448L19.0997 6.74419C17.0645 6.23541 14.9354 6.23541 12.9003 6.74419L13.3854 8.68448ZM18.6146 8.68448C18.9598 8.77077 19.2293 9.04027 19.3156 9.38544L21.2558 8.90037C20.9904 7.83863 20.1614 7.00963 19.0997 6.74419L18.6146 8.68448ZM19.3156 9.38544C19.3605 9.56508 19.4007 9.74558 19.4362 9.92676L21.3988 9.5421C21.3568 9.3273 21.3091 9.11332 21.2558 8.90037L19.3156 9.38544ZM19.0995 7.59786C19.2436 8.33711 19.3511 9.08167 19.422 9.82883L21.4131 9.64003C21.336 8.82789 21.2192 8.01859 21.0625 7.21506L19.0995 7.59786ZM19.0556 7.377C19.0783 7.49052 19.0891 7.54449 19.0995 7.59783L21.0625 7.21509C21.051 7.15594 21.0391 7.09652 21.0167 6.98479L19.0556 7.377ZM19.0552 7.37501L19.0556 7.37729L21.0167 6.9845L21.0162 6.98223L19.0552 7.37501ZM19.0337 7.26899C19.0378 7.28831 19.0423 7.31054 19.0551 7.37474L21.0163 6.98249C21.0046 6.92433 20.9969 6.88538 20.989 6.84869L19.0337 7.26899ZM16.7311 4.96638C17.8846 5.21432 18.7857 6.11542 19.0337 7.26898L20.989 6.8487C20.5758 4.92611 19.0739 3.42428 17.1513 3.01104L16.7311 4.96638ZM16.6253 4.94492C16.6895 4.95776 16.7117 4.96223 16.7311 4.96638L17.1513 3.01104C17.1147 3.00315 17.0757 2.99539 17.0176 2.98376L16.6253 4.94492ZM16.6292 4.94569L16.6293 4.9457L17.0136 2.98298L17.0136 2.98297L16.6292 4.94569ZM16.4022 4.90056C16.4559 4.91104 16.5103 4.92191 16.6253 4.94491L17.0175 2.98375C16.9043 2.9611 16.8445 2.94914 16.785 2.93754L16.4022 4.90056ZM7.5978 4.90056C10.5052 4.3336 13.4948 4.3336 16.4022 4.90056L16.785 2.93754C13.6247 2.32128 10.3752 2.32128 7.215 2.93754L7.5978 4.90056ZM7.37468 4.94491C7.48971 4.92191 7.54407 4.91104 7.5978 4.90056L7.215 2.93754C7.15548 2.94914 7.09569 2.9611 6.98244 2.98375L7.37468 4.94491ZM7.26891 4.96638C7.28823 4.96223 7.31047 4.95776 7.37467 4.94491L6.98244 2.98375C6.92428 2.99539 6.88533 3.00315 6.84864 3.01104L7.26891 4.96638ZM4.96632 7.26898C5.21426 6.11542 6.11536 5.21432 7.26892 4.96638L6.84864 3.01104C4.92605 3.42428 3.42421 4.92611 3.01098 6.8487L4.96632 7.26898Z"/>
</svg>
