<svg width="24" height="24" viewBox="0 0 24 24" fill="none" xmlns="http://www.w3.org/2000/svg">
<path fill="black" d="M21 4L20.2151 9.49401C20.0833 10.417 19.4413 11.1862 18.5568 11.4811V11.4811C17.5463 11.8179 16.4537 11.8179 15.4432 11.4811V11.4811C14.5587 11.1862 13.9167 10.417 13.7849 9.49401L13 4"/>
<path fill="black" d="M11 4L10.2151 9.49401C10.0833 10.417 9.44128 11.1862 8.55678 11.4811V11.4811C7.54626 11.8179 6.45374 11.8179 5.44322 11.4811V11.4811C4.55872 11.1862 3.91671 10.417 3.78486 9.49401L3 4"/>
<path fill="black" d="M11 20L10.2151 14.506C10.0833 13.583 9.44128 12.8138 8.55678 12.5189V12.5189C7.54626 12.1821 6.45374 12.1821 5.44322 12.5189V12.5189C4.55872 12.8138 3.91671 13.583 3.78486 14.506L3 20"/>
<path fill="black" d="M17 12L17 20"/>
</svg>
