<svg width="24" height="24" viewBox="0 0 24 24" fill="none" xmlns="http://www.w3.org/2000/svg">
<path fill="black" d="M14 7L10.378 8.81099C10.1303 8.93485 9.91919 9.12121 9.76556 9.35165V9.35165C8.69642 10.9554 8.69642 13.0446 9.76556 14.6483V14.6483C9.91919 14.8788 10.1303 15.0651 10.378 15.189L14 17"/>
<path fill="black" d="M4.44 6.96C4.78827 5.74107 5.74107 4.78827 6.96 4.44V4.44C10.2541 3.49883 13.7459 3.49883 17.04 4.44V4.44C18.2589 4.78827 19.2117 5.74107 19.56 6.96V6.96C20.5012 10.2541 20.5012 13.7459 19.56 17.04V17.04C19.2117 18.2589 18.2589 19.2117 17.04 19.56V19.56C13.7459 20.5012 10.2541 20.5012 6.96 19.56V19.56C5.74107 19.2117 4.78826 18.2589 4.44 17.04V17.04C3.49883 13.7459 3.49883 10.2541 4.44 6.96V6.96Z"/>
</svg>
