<svg width="24" height="24" viewBox="0 0 24 24" fill="none" xmlns="http://www.w3.org/2000/svg">
<path fill="black" d="M4.60377 7.77364C4.20329 10.577 4.20329 13.4231 4.60377 16.2265C4.83857 17.8701 6.12997 19.1615 7.77358 19.3963C8.84362 19.5491 9.91989 19.6437 10.9976 19.6798C12.2986 19.7235 12.949 19.7453 13.7216 19.4404C14.4942 19.1354 15.0375 18.5921 16.1242 17.5054L17.5054 16.1242C18.5921 15.0375 19.1354 14.4942 19.4403 13.7216C19.7453 12.949 19.7234 12.2986 19.6798 10.9977V10.9977C19.6436 9.91993 19.5491 8.84368 19.3962 7.77364C19.1614 6.13003 17.87 4.83863 16.2264 4.60383C13.423 4.20335 10.577 4.20335 7.77358 4.60383C6.12997 4.83863 4.83857 6.13003 4.60377 7.77364Z"/>
<path fill="black" d="M8 9H16"/>
<path fill="black" d="M8 12H12"/>
<path fill="black" d="M19 14H18C16.1144 14 15.1716 14 14.5858 14.5858C14 15.1716 14 16.1144 14 18V19"/>
</svg>
