<svg width="24" height="24" viewBox="0 0 24 24" fill="none" xmlns="http://www.w3.org/2000/svg">
<path d="M4.94374 13H4.11225C3.4539 13 2.8753 12.5636 2.69444 11.9305C2.24056 10.342 2.24056 8.65804 2.69444 7.06946L2.75524 6.85664C2.90746 6.32389 3.3239 5.90746 3.85664 5.75524L3.94285 5.73061C5.61418 5.25309 7.38582 5.25309 9.05715 5.73061C9.63302 5.89515 10.0627 6.37647 10.1612 6.96724L10.1916 7.14967C10.7268 10.3611 10.7268 13.6389 10.1916 16.8503L10.1371 17.1776C10.058 17.6522 9.64738 18 9.16626 18H8.47541C7.85054 18 7.53811 18 7.29783 17.853C7.2195 17.805 7.14814 17.7465 7.08577 17.6791C6.89447 17.4723 6.83319 17.166 6.71065 16.5532L6.20715 14.0358C6.16324 13.8162 6.14129 13.7065 6.10301 13.6148C5.97496 13.308 5.70287 13.085 5.37697 13.0196C5.27956 13 5.16762 13 4.94374 13Z" stroke="#808080" stroke-width="2" stroke-linejoin="round"/>
<path d="M15.9437 13H15.1123C14.4539 13 13.8753 12.5636 13.6944 11.9305C13.2406 10.342 13.2406 8.65804 13.6944 7.06946L13.7552 6.85664C13.9075 6.32389 14.3239 5.90746 14.8566 5.75524L14.9429 5.73061C16.6142 5.25309 18.3858 5.25309 20.0571 5.73061C20.633 5.89515 21.0627 6.37647 21.1612 6.96724L21.1916 7.14967C21.7268 10.3611 21.7268 13.6389 21.1916 16.8503L21.1371 17.1776C21.058 17.6522 20.6474 18 20.1663 18H19.4754C18.8505 18 18.5381 18 18.2978 17.853C18.2195 17.805 18.1481 17.7465 18.0858 17.6791C17.8945 17.4723 17.8332 17.166 17.7106 16.5532L17.2072 14.0358C17.1632 13.8162 17.1413 13.7065 17.103 13.6148C16.975 13.308 16.7029 13.085 16.377 13.0196C16.2796 13 16.1676 13 15.9437 13Z" stroke="black" stroke-width="2" stroke-linejoin="round"/>
</svg>
