<svg width="24" height="24" viewBox="0 0 24 24" fill="none" xmlns="http://www.w3.org/2000/svg">
<path fill="black" d="M16 17L15.5522 12.9694C15.4047 11.6423 15.331 10.9787 15.1038 10.4416C14.6385 9.34184 13.7063 8.50742 12.5618 8.16649C12.003 8 11.3353 8 10 8V8"/>
<path fill="black" d="M8 12V14"/>
<path fill="black" d="M8 2L8 4"/>
<path fill="black" d="M6 5.8541C6 5.33065 6.29574 4.85213 6.76393 4.61803V4.61803C7.54206 4.22897 8.45795 4.22897 9.23607 4.61803V4.61803C9.70426 4.85213 10 5.33065 10 5.8541V10.1459C10 10.6693 9.70426 11.1479 9.23607 11.382V11.382C8.45794 11.771 7.54205 11.771 6.76393 11.382V11.382C6.29574 11.1479 6 10.6693 6 10.1459V5.8541Z"/>
<path fill="black" d="M4 21H7.76393C8.73426 21 9.21942 21 9.62999 20.8028C9.75717 20.7417 9.87753 20.6673 9.98906 20.5808C10.3491 20.3018 10.5661 19.8679 11 19V19C11.4339 18.1321 11.6509 17.6982 12.0109 17.4192C12.1225 17.3327 12.2428 17.2583 12.37 17.1972C12.7806 17 13.2657 17 14.2361 17H16C17.8856 17 18.8284 17 19.4142 17.5858C20 18.1716 20 19.1144 20 21V22"/>
</svg>
