<svg width="24" height="24" viewBox="0 0 24 24" fill="none" xmlns="http://www.w3.org/2000/svg">
<path fill="black" d="M2.84699 13.459C2.94496 13.1651 3.15567 12.9222 3.43278 12.7836V12.7836C4.41937 12.2903 5.58063 12.2903 6.56722 12.7836V12.7836C6.84433 12.9222 7.05504 13.1651 7.15301 13.459L7.29289 13.8787C7.75188 15.2557 7.75188 16.7443 7.29289 18.1213L7.15301 18.541C7.05504 18.8349 6.84433 19.0778 6.56722 19.2164V19.2164C5.58063 19.7097 4.41937 19.7097 3.43278 19.2164V19.2164C3.15567 19.0778 2.94496 18.8349 2.84699 18.541L2.70711 18.1213C2.24812 16.7443 2.24812 15.2557 2.70711 13.8787L2.84699 13.459Z"/>
<path fill="black" d="M9.92285 4.57862C9.97111 4.21671 10.1955 3.90223 10.5221 3.73894V3.73894C11.4525 3.27377 12.5475 3.27377 13.4779 3.73894V3.73894C13.8045 3.90223 14.0289 4.21671 14.0771 4.57862L14.1658 5.24333C14.7195 9.39607 14.7195 13.6039 14.1658 17.7567L14.0771 18.4214C14.0289 18.7833 13.8045 19.0978 13.4779 19.2611V19.2611C12.5475 19.7262 11.4525 19.7262 10.5221 19.2611V19.2611C10.1955 19.0978 9.97111 18.7833 9.92285 18.4214L9.83422 17.7567C9.28052 13.6039 9.28052 9.39607 9.83422 5.24333L9.92285 4.57862Z"/>
<path fill="black" d="M16.8832 10.5258C16.9571 10.1931 17.177 9.91152 17.4818 9.75912V9.75912C18.4375 9.28124 19.5625 9.28124 20.5182 9.75912V9.75912C20.823 9.91152 21.0429 10.1931 21.1168 10.5258L21.1369 10.6162C21.7054 13.1742 21.7054 15.8258 21.1369 18.3838L21.1168 18.4742C21.0429 18.8069 20.823 19.0885 20.5182 19.2409V19.2409C19.5625 19.7188 18.4375 19.7188 17.4818 19.2409V19.2409C17.177 19.0885 16.9571 18.8069 16.8832 18.4742L16.8631 18.3838C16.2946 15.8258 16.2946 13.1742 16.8631 10.6162L16.8832 10.5258Z"/>
</svg>
