<svg width="24" height="24" viewBox="0 0 24 24" fill="none" xmlns="http://www.w3.org/2000/svg">
<path d="M9 9H15" stroke="#808080" stroke-width="2" stroke-linejoin="round"/>
<path d="M15.1108 3H8.88919C8.52454 3 8.34222 3 8.21302 3.09056C8.16539 3.12394 8.12394 3.16539 8.09056 3.21302C8 3.34222 8 3.52454 8 3.88919V9.07181C8 12.3531 8.2329 15.6303 8.69695 18.8787L8.82918 19.8043C8.93387 20.5371 9.44362 21.1479 10.1459 21.382C11.3494 21.7831 12.6506 21.7831 13.8541 21.382C14.5564 21.1479 15.0661 20.5371 15.1708 19.8043L15.303 18.8787C15.7671 15.6303 16 12.3531 16 9.07181V3.88919C16 3.52454 16 3.34222 15.9094 3.21302C15.8761 3.16539 15.8346 3.12394 15.787 3.09056C15.6578 3 15.4755 3 15.1108 3Z" stroke="black" stroke-width="2" stroke-linejoin="round"/>
<path d="M5 3L19 3" stroke="black" stroke-width="2" stroke-linejoin="round"/>
</svg>
