<svg width="24" height="24" viewBox="0 0 24 24" fill="none" xmlns="http://www.w3.org/2000/svg">
<path d="M14 10L18.2283 7.88583C19.228 7.38598 20.444 7.74008 21.0191 8.6985V8.6985C22.2384 10.7306 22.2384 13.2694 21.0191 15.3015V15.3015C20.444 16.2599 19.228 16.614 18.2283 16.1142L14 14" stroke="black" stroke-width="2" stroke-linejoin="round"/>
<path d="M10 10L5.77165 7.88583C4.77195 7.38598 3.55595 7.74008 2.9809 8.6985V8.6985C1.76162 10.7306 1.76162 13.2694 2.9809 15.3015V15.3015C3.55595 16.2599 4.77195 16.614 5.77166 16.1142L10 14" stroke="black" stroke-width="2" stroke-linejoin="round"/>
<path d="M9.85714 10.2857C9.94987 10.1003 10.1003 9.94987 10.2857 9.85714V9.85714C11.3649 9.31756 12.6351 9.31756 13.7143 9.85714V9.85714C13.8997 9.94987 14.0501 10.1003 14.1429 10.2857V10.2857C14.6824 11.3649 14.6824 12.6351 14.1429 13.7143V13.7143C14.0501 13.8997 13.8997 14.0501 13.7143 14.1429V14.1429C12.6351 14.6824 11.3649 14.6824 10.2857 14.1429V14.1429C10.1003 14.0501 9.94987 13.8997 9.85714 13.7143V13.7143C9.31756 12.6351 9.31756 11.3649 9.85714 10.2857V10.2857Z" stroke="#808080" stroke-width="2" stroke-linejoin="round"/>
</svg>
