<svg width="24" height="24" viewBox="0 0 24 24" fill="none" xmlns="http://www.w3.org/2000/svg">
<path d="M13 13L18 18" stroke="black" stroke-width="2" stroke-linejoin="round"/>
<path d="M15.3074 11.2694L15.9595 10.7804C16.6112 10.2916 17.4611 10.1537 18.2338 10.4113C19.3457 10.7819 20.2181 11.6543 20.5887 12.7662C20.8463 13.5389 20.7084 14.3888 20.2196 15.0405L19.7306 15.6926C18.5827 17.2231 17.2231 18.5827 15.6926 19.7306L15.0405 20.2196C14.3888 20.7084 13.5389 20.8463 12.7662 20.5887C11.6543 20.2181 10.7819 19.3457 10.4113 18.2338C10.1537 17.4611 10.2916 16.6112 10.7804 15.9595L11.2694 15.3074C12.4173 13.7769 13.7769 12.4173 15.3074 11.2694Z" stroke="black" stroke-width="2" stroke-linejoin="round"/>
<path d="M22 9L21.5 6L21.4443 5.66572C21.1814 4.08867 19.8789 2.87544 18.2899 2.69888V2.69888C14.1467 2.23852 9.90928 2.2323 5.76609 2.69266V2.69266C4.14399 2.87289 2.85723 4.14215 2.6548 5.76162L2.16399 9.68805C2.06738 10.461 2.50438 11.2018 3.22759 11.491V11.491C4.0444 11.8178 4.9556 11.8178 5.77241 11.491L5.85407 11.4584C6.54617 11.1815 7 10.5112 7 9.76579V9" stroke="black" stroke-width="2" stroke-linejoin="round"/>
<path d="M7 8V9.76579C7 10.5112 7.45383 11.1815 8.14593 11.4584V11.4584C9.01516 11.8061 9.98484 11.8061 10.8541 11.4584V11.4584C11.5462 11.1815 12 10.5112 12 9.76579V8" stroke="black" stroke-width="2" stroke-linejoin="round"/>
<path d="M8 21V21C6.11438 21 5.17157 21 4.58579 20.4142C4 19.8284 4 18.8856 4 17V12" stroke="black" stroke-width="2" stroke-linejoin="round"/>
</svg>
