<svg width="24" height="24" viewBox="0 0 24 24" fill="none" xmlns="http://www.w3.org/2000/svg">
<path d="M3 16H21" stroke="#808080" stroke-width="2" stroke-linejoin="round"/>
<path d="M21 19V14.0324C21 12.306 19.702 10.8558 17.9862 10.6651V10.6651C14.0076 10.2231 9.99236 10.2231 6.01381 10.6651V10.6651C4.29804 10.8558 3 12.306 3 14.0324V19" stroke="black" stroke-width="2" stroke-linejoin="round"/>
<path d="M12 11V7.80776C12 7.57388 12 7.45694 11.9891 7.35289C11.9093 6.59258 11.4031 5.94425 10.6849 5.68246C10.5866 5.64664 10.4731 5.61828 10.2462 5.56155V5.56155C9.94232 5.48558 9.79038 5.44759 9.63913 5.41593C8.55809 5.18964 7.44191 5.18964 6.36087 5.41593C6.20962 5.44759 6.05768 5.48558 5.75379 5.56155V5.56155C5.52689 5.61828 5.41344 5.64664 5.31514 5.68246C4.59688 5.94425 4.09067 6.59258 4.01091 7.35289C4 7.45694 4 7.57388 4 7.80776V12" stroke="black" stroke-width="2" stroke-linejoin="round"/>
<path d="M20 12V7.80776C20 7.57388 20 7.45694 19.9891 7.35289C19.9093 6.59258 19.4031 5.94425 18.6849 5.68246C18.5866 5.64664 18.4731 5.61828 18.2462 5.56155V5.56155C17.9423 5.48558 17.7904 5.44759 17.6391 5.41593C16.5581 5.18964 15.4419 5.18964 14.3609 5.41593C14.2096 5.44759 14.0577 5.48558 13.7538 5.56155V5.56155C13.5269 5.61828 13.4134 5.64664 13.3151 5.68246C12.5969 5.94425 12.0907 6.59258 12.0109 7.35289C12 7.45694 12 7.57388 12 7.80776V11" stroke="black" stroke-width="2" stroke-linejoin="round"/>
</svg>
