<svg width="24" height="24" viewBox="0 0 24 24" fill="none" xmlns="http://www.w3.org/2000/svg">
<path d="M7 7.89485C7 7.5248 7 7.33977 7.09313 7.20939C7.1252 7.16448 7.16448 7.1252 7.20939 7.09313C7.33977 7 7.5248 7 7.89485 7H16.1051C16.4752 7 16.6602 7 16.7906 7.09313C16.8355 7.1252 16.8748 7.16448 16.9069 7.20939C17 7.33977 17 7.5248 17 7.89485V10.0463C17 10.5884 17 10.8595 16.9969 11.1303C16.9754 13.0401 16.8399 14.9468 16.5911 16.8404C16.5559 17.1089 16.5175 17.3773 16.4409 17.914L16.3344 18.6591C16.1322 20.0746 15.0931 21.2267 13.7059 21.5735V21.5735C12.5859 21.8535 11.4141 21.8535 10.2941 21.5735V21.5735C8.90691 21.2267 7.8678 20.0746 7.66558 18.6591L7.55914 17.914C7.48247 17.3773 7.44413 17.1089 7.40886 16.8404C7.16011 14.9468 7.0246 13.0401 7.00306 11.1303C7 10.8595 7 10.5884 7 10.0463V7.89485Z" stroke="black" stroke-width="2" stroke-linejoin="round"/>
<path d="M5.58349 4.66604C5.83641 3.65437 6.66534 2.88911 7.69395 2.71768V2.71768C10.545 2.2425 13.455 2.2425 16.3061 2.71768V2.71768C17.3347 2.88911 18.1636 3.65438 18.4165 4.66604L18.5059 5.02355C18.7569 6.02749 17.9976 7 16.9627 7H7.03728C6.00244 7 5.24313 6.02749 5.49411 5.02355L5.58349 4.66604Z" stroke="black" stroke-width="2" stroke-linejoin="round"/>
<path d="M10 3L10 7" stroke="black" stroke-width="2" stroke-linejoin="round"/>
<path d="M14 3V7" stroke="black" stroke-width="2" stroke-linejoin="round"/>
<path d="M9 11H15" stroke="black" stroke-width="2" stroke-linejoin="round"/>
<path d="M9 15H13" stroke="black" stroke-width="2" stroke-linejoin="round"/>
</svg>
