<svg width="24" height="24" viewBox="0 0 24 24" fill="none" xmlns="http://www.w3.org/2000/svg">
<path d="M8 7L8.72727 4.81818C8.89896 4.30312 9.30312 3.89896 9.81818 3.72727V3.72727C11.2344 3.25519 12.7656 3.25519 14.1818 3.72727V3.72727C14.6969 3.89896 15.101 4.30312 15.2727 4.81818L16 7" stroke="black" stroke-width="2" stroke-linejoin="round"/>
<path d="M8 17L8.72727 19.1818C8.89896 19.6969 9.30312 20.101 9.81818 20.2727V20.2727C11.2344 20.7448 12.7656 20.7448 14.1818 20.2727V20.2727C14.6969 20.101 15.101 19.6969 15.2727 19.1818L16 17" stroke="black" stroke-width="2" stroke-linejoin="round"/>
<path d="M9 12H15" stroke="black" stroke-width="2" stroke-linejoin="round"/>
<path d="M12 9L12 15" stroke="black" stroke-width="2" stroke-linejoin="round"/>
<path d="M6.44444 9.77778C6.78086 8.09569 8.09569 6.78086 9.77778 6.44444V6.44444C11.2447 6.15105 12.7553 6.15105 14.2222 6.44444V6.44444C15.9043 6.78086 17.2191 8.09569 17.5556 9.77778V9.77778C17.8489 11.2447 17.8489 12.7553 17.5556 14.2222V14.2222C17.2191 15.9043 15.9043 17.2191 14.2222 17.5556V17.5556C12.7553 17.8489 11.2447 17.8489 9.77778 17.5556V17.5556C8.09569 17.2191 6.78086 15.9043 6.44444 14.2222V14.2222C6.15105 12.7553 6.15105 11.2447 6.44444 9.77778V9.77778Z" stroke="black" stroke-width="2" stroke-linejoin="round"/>
</svg>
