<svg width="24" height="24" viewBox="0 0 24 24" fill="none" xmlns="http://www.w3.org/2000/svg">
<path d="M15 8V6.72749C15 6.64436 15 6.6028 14.9986 6.56601C14.9656 5.66825 14.338 4.90269 13.4641 4.69421C13.4283 4.68567 13.3876 4.67751 13.3061 4.66121V4.66121C13.1386 4.62772 13.0549 4.61097 12.9717 4.59525C11.0079 4.22407 8.99205 4.22407 7.02832 4.59525C6.94514 4.61097 6.86141 4.62772 6.69395 4.66121L6.59943 4.68011C6.48174 4.70365 6.42289 4.71542 6.37057 4.72886C5.58415 4.93085 4.99789 5.58823 4.88688 6.39254C4.8795 6.44606 4.87451 6.50586 4.86454 6.62547L4.5 11" stroke="#808080" stroke-width="2" stroke-linejoin="round"/>
<path d="M19.6082 12C19.5548 11.2709 19.4626 10.544 19.3313 9.82229C19.1335 8.734 18.2614 7.89442 17.1664 7.73799L16.2927 7.61318C13.4454 7.20641 10.5546 7.20641 7.70727 7.61318L6.83361 7.73799C5.7386 7.89442 4.86654 8.734 4.66866 9.82229C4.22651 12.2541 4.22651 14.7457 4.66866 17.1776C4.86654 18.2659 5.7386 19.1054 6.83362 19.2619L7.70727 19.3867C10.5546 19.7935 13.4454 19.7935 16.2927 19.3867L17.1664 19.2619C18.2614 19.1054 19.1335 18.2659 19.3313 17.1776C19.4626 16.4559 19.5548 15.729 19.6082 14.9999" stroke="black" stroke-width="2" stroke-linejoin="round"/>
<path d="M13 13.5C13 13.0341 13 12.8011 13.0761 12.6173C13.1776 12.3723 13.3723 12.1776 13.6173 12.0761C13.8011 12 14.0341 12 14.5 12H18.5C18.9659 12 19.1989 12 19.3827 12.0761C19.6277 12.1776 19.8224 12.3723 19.9239 12.6173C20 12.8011 20 13.0341 20 13.5V13.5C20 13.9659 20 14.1989 19.9239 14.3827C19.8224 14.6277 19.6277 14.8224 19.3827 14.9239C19.1989 15 18.9659 15 18.5 15H14.5C14.0341 15 13.8011 15 13.6173 14.9239C13.3723 14.8224 13.1776 14.6277 13.0761 14.3827C13 14.1989 13 13.9659 13 13.5V13.5Z" stroke="black" stroke-width="2" stroke-linejoin="round"/>
</svg>
