<svg width="24" height="24" viewBox="0 0 24 24" fill="none" xmlns="http://www.w3.org/2000/svg">
<path d="M7.71075 4.59086C7.88685 3.62233 8.61365 2.84659 9.56866 2.60783V2.60783C11.165 2.20875 12.835 2.20875 14.4313 2.60783V2.60783C15.3864 2.84659 16.1132 3.62233 16.2892 4.59086L16.3073 4.68998C16.7653 7.20934 16.7653 9.79066 16.3073 12.31L16.2892 12.4091C16.1132 13.3777 15.3864 14.1534 14.4313 14.3922V14.3922C12.835 14.7912 11.165 14.7912 9.56866 14.3922V14.3922C8.61365 14.1534 7.88685 13.3777 7.71075 12.4091L7.69273 12.31C7.23467 9.79066 7.23466 7.20934 7.69273 4.68999L7.71075 4.59086Z" stroke="black" stroke-width="2" stroke-linejoin="round"/>
<path d="M4 13V15.0131C4 16.7195 5.27065 18.1588 6.96387 18.3705V18.3705C10.3083 18.7885 13.6917 18.7885 17.0361 18.3705V18.3705C18.7294 18.1588 20 16.7195 20 15.0131V13" stroke="black" stroke-width="2" stroke-linejoin="round"/>
<path d="M12 18V22" stroke="black" stroke-width="2" stroke-linejoin="round"/>
</svg>
