<svg width="24" height="24" viewBox="0 0 24 24" fill="none" xmlns="http://www.w3.org/2000/svg">
<path d="M7.64466 16.7741L4.61056 16.2684C3.63258 16.1054 2.84446 15.3778 2.60399 14.416C2.20743 12.8297 2.20743 11.1703 2.60399 9.58403C2.84446 8.62216 3.63258 7.89457 4.61056 7.73157L7.64466 7.22589C8.2375 7.12708 8.53391 7.07768 8.79678 6.9488C8.88632 6.9049 8.97244 6.85437 9.05444 6.79763C9.29518 6.63103 9.4829 6.39637 9.85835 5.92707L9.85835 5.92706L10.8772 4.65356C11.3679 4.04015 11.6132 3.73344 11.8235 3.63459C12.2825 3.41879 12.8304 3.58082 13.0982 4.01156C13.2209 4.20888 13.26 4.5997 13.3381 5.38135C13.5222 7.22186 13.6142 8.14212 13.6707 9.06326C13.7906 11.0193 13.7906 12.9807 13.6707 14.9367C13.6142 15.8579 13.5222 16.7781 13.3381 18.6186C13.26 19.4003 13.2209 19.7911 13.0982 19.9884C12.8304 20.4192 12.2825 20.5812 11.8235 20.3654C11.6132 20.2666 11.3679 19.9599 10.8772 19.3464L9.85835 18.0729C9.4829 17.6036 9.29518 17.369 9.05444 17.2024C8.97244 17.1456 8.88632 17.0951 8.79678 17.0512C8.53391 16.9223 8.2375 16.8729 7.64467 16.7741L7.64466 16.7741Z" stroke="black" stroke-width="2" stroke-linejoin="round"/>
<path d="M17 8V8C18.259 10.5181 18.259 13.4819 17 16V16" stroke="black" stroke-width="2" stroke-linejoin="round"/>
<path d="M19 3V3C22.6333 8.44996 22.6333 15.55 19 21V21" stroke="black" stroke-width="2" stroke-linejoin="round"/>
</svg>
