<svg width="24" height="24" viewBox="0 0 24 24" fill="none" xmlns="http://www.w3.org/2000/svg">
<path d="M8.58542 8.35364L7.89474 8.52632C6.72849 8.81788 5.81788 9.72849 5.52632 10.8947C5.18076 12.277 5.18076 13.723 5.52632 15.1053C5.81788 16.2715 6.72849 17.1821 7.89474 17.4737L7.94792 17.487C9.29524 17.8238 10.7048 17.8238 12.0521 17.487L12.1862 17.4535C13.2938 17.1765 14.1428 16.2862 14.3667 15.1667C14.7349 13.3254 16.3516 12 18.2294 12H21V8H11.4581C10.4897 8 9.52493 8.11877 8.58542 8.35364Z" stroke="black" stroke-width="2" stroke-linejoin="round"/>
<path d="M3.6 6.8C3.64327 6.71345 3.71345 6.64327 3.8 6.6V6.6C4.55542 6.22229 5.44458 6.22229 6.2 6.6V6.6C6.28655 6.64327 6.35673 6.71345 6.4 6.8V6.8C6.77771 7.55542 6.77771 8.44458 6.4 9.2V9.2C6.35673 9.28655 6.28655 9.35673 6.2 9.4V9.4C5.44458 9.77771 4.55542 9.77771 3.8 9.4V9.4C3.71345 9.35673 3.64327 9.28655 3.6 9.2V9.2C3.22229 8.44458 3.22229 7.55542 3.6 6.8V6.8Z" stroke="black" stroke-width="2" stroke-linejoin="round"/>
<path d="M8.6 11.8C8.64327 11.7135 8.71345 11.6433 8.8 11.6V11.6C9.55542 11.2223 10.4446 11.2223 11.2 11.6V11.6C11.2865 11.6433 11.3567 11.7135 11.4 11.8V11.8C11.7777 12.5554 11.7777 13.4446 11.4 14.2V14.2C11.3567 14.2865 11.2865 14.3567 11.2 14.4V14.4C10.4446 14.7777 9.55542 14.7777 8.8 14.4V14.4C8.71345 14.3567 8.64327 14.2865 8.6 14.2V14.2C8.22229 13.4446 8.22229 12.5554 8.6 11.8V11.8Z" stroke="#808080" stroke-width="2" stroke-linejoin="round"/>
</svg>
