<svg width="24" height="24" viewBox="0 0 24 24" fill="none" xmlns="http://www.w3.org/2000/svg">
<path fill="black" d="M9.28873 4.52817C9.42364 4.19089 9.69089 3.92364 10.0282 3.78873V3.78873C11.294 3.28241 12.706 3.28241 13.9718 3.78873V3.78873C14.3091 3.92364 14.5764 4.19089 14.7113 4.52817V4.52817C15.2176 5.79397 15.2176 7.20603 14.7113 8.47183V8.47183C14.5764 8.80911 14.3091 9.07636 13.9718 9.21127V9.21127C12.706 9.71759 11.294 9.71759 10.0282 9.21127V9.21127C9.69089 9.07636 9.42364 8.80911 9.28873 8.47183V8.47183C8.78241 7.20603 8.78241 5.79397 9.28873 4.52817V4.52817Z"/>
<path fill="black" d="M9.28873 15.5282C9.42364 15.1909 9.69089 14.9236 10.0282 14.7887V14.7887C11.294 14.2824 12.706 14.2824 13.9718 14.7887V14.7887C14.3091 14.9236 14.5764 15.1909 14.7113 15.5282V15.5282C15.2176 16.794 15.2176 18.206 14.7113 19.4718V19.4718C14.5764 19.8091 14.3091 20.0764 13.9718 20.2113V20.2113C12.706 20.7176 11.294 20.7176 10.0282 20.2113V20.2113C9.69089 20.0764 9.42364 19.8091 9.28873 19.4718V19.4718C8.78241 18.206 8.78241 16.794 9.28873 15.5282V15.5282Z"/>
<path fill="black" d="M19.4718 9.28873C19.8091 9.42364 20.0764 9.69089 20.2113 10.0282V10.0282C20.7176 11.294 20.7176 12.706 20.2113 13.9718V13.9718C20.0764 14.3091 19.8091 14.5764 19.4718 14.7113V14.7113C18.206 15.2176 16.794 15.2176 15.5282 14.7113V14.7113C15.1909 14.5764 14.9236 14.3091 14.7887 13.9718V13.9718C14.2824 12.706 14.2824 11.294 14.7887 10.0282V10.0282C14.9236 9.69089 15.1909 9.42364 15.5282 9.28873V9.28873C16.794 8.78241 18.206 8.78241 19.4718 9.28873V9.28873Z"/>
<path fill="black" d="M8.47183 9.28873C8.80911 9.42364 9.07636 9.69089 9.21127 10.0282V10.0282C9.71759 11.294 9.71759 12.706 9.21127 13.9718V13.9718C9.07636 14.3091 8.80911 14.5764 8.47183 14.7113V14.7113C7.20603 15.2176 5.79397 15.2176 4.52817 14.7113V14.7113C4.19089 14.5764 3.92364 14.3091 3.78873 13.9718V13.9718C3.28241 12.706 3.28241 11.294 3.78873 10.0282V10.0282C3.92364 9.69089 4.19089 9.42364 4.52817 9.28873V9.28873C5.79397 8.78241 7.20603 8.78241 8.47183 9.28873V9.28873Z"/>
</svg>
