<svg width="24" height="24" viewBox="0 0 24 24" fill="none" xmlns="http://www.w3.org/2000/svg">
<path d="M4.66754 6.8259C4.86352 5.16005 6.15631 3.83481 7.81679 3.5976V3.5976C10.5915 3.20121 13.4085 3.20121 16.1832 3.5976V3.5976C17.8437 3.83481 19.1365 5.16005 19.3325 6.8259L19.3954 7.3613C19.4501 7.82564 19.4774 8.05781 19.5019 8.28958C19.7982 11.0887 19.7982 13.9113 19.5019 16.7104C19.4774 16.9422 19.4501 17.1744 19.3954 17.6387L19.3325 18.1741C19.1365 19.84 17.8437 21.1652 16.1832 21.4024V21.4024C13.4085 21.7988 10.5915 21.7988 7.81679 21.4024V21.4024C6.15631 21.1652 4.86352 19.84 4.66754 18.1741L4.60455 17.6387C4.54992 17.1744 4.52261 16.9422 4.49808 16.7104C4.20179 13.9113 4.20179 11.0887 4.49808 8.28958C4.52261 8.05781 4.54992 7.82564 4.60455 7.3613L4.66754 6.8259Z" stroke="black" stroke-width="2" stroke-linejoin="round"/>
<path d="M8.72361 4.44721C8.39929 3.79858 8.23713 3.47427 8.38369 3.23713C8.53025 3 8.89284 3 9.61803 3H14.382C15.1072 3 15.4698 3 15.6163 3.23713C15.7629 3.47427 15.6007 3.79858 15.2764 4.44721V4.44721C15.1419 4.71617 15.0747 4.85065 14.9538 4.92533C14.833 5 14.6827 5 14.382 5H9.61803C9.31733 5 9.16698 5 9.04615 4.92533C8.92533 4.85065 8.85809 4.71617 8.72361 4.44721V4.44721Z" stroke="black" stroke-width="2" stroke-linejoin="round"/>
</svg>
