<svg width="24" height="24" viewBox="0 0 24 24" fill="none" xmlns="http://www.w3.org/2000/svg">
<path d="M2 3V3C4.35083 3.58771 6 5.69993 6 8.12311V10.3547C6 12.0943 6.40503 13.8101 7.18301 15.366L7.29803 15.5961C7.74094 16.4819 8.56802 17.1136 9.53917 17.3078V17.3078C11.8273 17.7655 14.1796 17.8034 16.4813 17.4198L17.1549 17.3075C18.3141 17.1143 19.311 16.3781 19.8366 15.3269V15.3269C20.6017 13.7967 21 12.1093 21 10.3985V9.91977C21 8.82303 20.1833 7.89792 19.0951 7.76188L18.1635 7.64544C14.7365 7.21706 11.2676 7.24749 7.84859 7.73592L6 8" stroke="black" stroke-width="2" stroke-linejoin="round"/>
<path d="M6.375 19.75C6.45614 19.5877 6.58772 19.4561 6.75 19.375C7.22214 19.1389 7.77786 19.1389 8.25 19.375C8.41228 19.4561 8.54386 19.5877 8.625 19.75C8.86107 20.2221 8.86107 20.7779 8.625 21.25C8.54386 21.4123 8.41228 21.5439 8.25 21.625C7.77786 21.8611 7.22214 21.8611 6.75 21.625C6.58772 21.5439 6.45614 21.4123 6.375 21.25C6.13893 20.7779 6.13893 20.2221 6.375 19.75Z" fill="black"/>
<path d="M17.375 19.75C17.4561 19.5877 17.5877 19.4561 17.75 19.375C18.2221 19.1389 18.7779 19.1389 19.25 19.375C19.4123 19.4561 19.5439 19.5877 19.625 19.75C19.8611 20.2221 19.8611 20.7779 19.625 21.25C19.5439 21.4123 19.4123 21.5439 19.25 21.625C18.7779 21.8611 18.2221 21.8611 17.75 21.625C17.5877 21.5439 17.4561 21.4123 17.375 21.25C17.1389 20.7779 17.1389 20.2221 17.375 19.75Z" fill="black"/>
</svg>
