<svg width="24" height="24" viewBox="0 0 24 24" fill="none" xmlns="http://www.w3.org/2000/svg">
<path d="M3.33333 4C3.43825 3.68524 3.68524 3.43825 4 3.33333C4.64911 3.11696 5.35089 3.11696 6 3.33333C6.31476 3.43825 6.56175 3.68524 6.66667 4C6.88304 4.64911 6.88304 5.35089 6.66667 6C6.56175 6.31476 6.31476 6.56175 6 6.66667C5.35089 6.88304 4.64911 6.88304 4 6.66667C3.68524 6.56175 3.43825 6.31476 3.33333 6C3.11696 5.35089 3.11696 4.64911 3.33333 4Z" fill="#808080"/>
<path d="M20.1574 2.25533C19.9464 2.10461 19.6606 2.11387 19.4598 2.27794L11.6 8.7L10.39 7.66L10.4318 7.63585C11.6124 6.95372 12.2027 6.61265 12.4709 6.14229C12.7299 5.68787 12.8006 5.15005 12.6679 4.64411C12.5304 4.12042 12.0483 3.63835 11.0842 2.6742L9.82368 1.41368C9.57857 1.16858 9.20104 1.11481 8.89724 1.28172C8.63776 1.42428 8.42423 1.63781 8.28167 1.8973C8.11478 2.20107 8.16856 2.57856 8.41364 2.82365L9.91034 4.32035C10.2466 4.65657 10.4147 4.82469 10.4247 5.01632C10.428 5.07762 10.4199 5.13899 10.4009 5.19735C10.3415 5.37982 10.1355 5.49859 9.72358 5.73612L7.54438 6.99277C6.43479 7.63262 5.87999 7.95255 5.46109 8.41193C5.31694 8.57001 5.1857 8.73941 5.06864 8.91849C4.72847 9.43886 4.55729 10.056 4.21492 11.2902C4.03849 11.9263 3.95027 12.2443 3.96514 12.5638C3.97026 12.6737 3.98443 12.7829 4.00752 12.8905C4.07464 13.2032 4.24107 13.4882 4.57393 14.0581L5.83341 16.2148C5.93654 16.3914 6.12566 16.5 6.33016 16.5C6.81346 16.5 7.24723 16.1925 7.41292 15.7384C7.46803 15.5874 7.45871 15.4186 7.38606 15.2752L6.31636 13.1637C6.14516 12.8258 6.05955 12.6568 6.04054 12.4727C6.02152 12.2886 6.07076 12.1057 6.16925 11.7399L6.32 11.18L9.5 13L9.98407 21.7134C9.99433 21.8979 10.0725 22.0725 10.2033 22.2033C10.6427 22.6427 11.3562 22.6438 11.7957 22.2043C11.9272 22.0728 12.0051 21.8971 12.0144 21.7114L12.5 12L20.6339 3.7704C20.8509 3.55089 20.897 3.21455 20.7471 2.94476L20.7044 2.86794C20.5698 2.62568 20.3829 2.41642 20.1574 2.25533Z" fill="black"/>
</svg>
