<svg width="24" height="24" viewBox="0 0 24 24" fill="none" xmlns="http://www.w3.org/2000/svg">
<path d="M9.9 8.55C9.96295 8.20377 10.1852 7.90738 10.5 7.75V7.75C11.4443 7.27786 12.5557 7.27786 13.5 7.75V7.75C13.8148 7.90738 14.037 8.20377 14.1 8.55L14.1692 8.93077C14.7186 11.9522 14.7186 15.0478 14.1692 18.0692L14.1 18.45C14.037 18.7962 13.8148 19.0926 13.5 19.25V19.25C12.5557 19.7221 11.4443 19.7221 10.5 19.25V19.25C10.1852 19.0926 9.96295 18.7962 9.9 18.45L9.83077 18.0692C9.28143 15.0478 9.28143 11.9522 9.83077 8.93077L9.9 8.55Z" stroke="#808080" stroke-width="2" stroke-linejoin="round"/>
<path d="M2.84699 13.459C2.94496 13.1651 3.15567 12.9222 3.43278 12.7836V12.7836C4.41937 12.2903 5.58063 12.2903 6.56722 12.7836V12.7836C6.84433 12.9222 7.05504 13.1651 7.15301 13.459L7.29289 13.8787C7.75188 15.2557 7.75188 16.7443 7.29289 18.1213L7.15301 18.541C7.05504 18.8349 6.84433 19.0778 6.56722 19.2164V19.2164C5.58063 19.7097 4.41937 19.7097 3.43278 19.2164V19.2164C3.15567 19.0778 2.94496 18.8349 2.84699 18.541L2.70711 18.1213C2.24812 16.7443 2.24812 15.2557 2.70711 13.8787L2.84699 13.459Z" stroke="black" stroke-width="2" stroke-linejoin="round"/>
<path d="M16.9229 4.57862C16.9711 4.21671 17.1955 3.90223 17.5221 3.73894V3.73894C18.4525 3.27377 19.5475 3.27377 20.4779 3.73894V3.73894C20.8045 3.90223 21.0289 4.21671 21.0771 4.57862L21.1658 5.24333C21.7195 9.39607 21.7195 13.6039 21.1658 17.7567L21.0771 18.4214C21.0289 18.7833 20.8045 19.0978 20.4779 19.2611V19.2611C19.5475 19.7262 18.4525 19.7262 17.5221 19.2611V19.2611C17.1955 19.0978 16.9711 18.7833 16.9229 18.4214L16.8342 17.7567C16.2805 13.6039 16.2805 9.39607 16.8342 5.24333L16.9229 4.57862Z" stroke="black" stroke-width="2" stroke-linejoin="round"/>
</svg>
