<svg width="24" height="24" viewBox="0 0 24 24" fill="none" xmlns="http://www.w3.org/2000/svg">
<path d="M10.1623 5.16228L11.6808 6.68082C11.8571 6.8571 12.1429 6.8571 12.3192 6.68082L13.8377 5.16228C15.129 3.87099 17.1017 3.55086 18.7351 4.36754C19.5562 4.77808 20.2219 5.44384 20.6325 6.26491L20.8363 6.67266C21.5744 8.14871 21.6251 9.87482 20.975 11.3917L20.9311 11.4942C19.6779 14.4181 17.5057 16.8539 14.7437 18.4322L13.78 18.9828C12.677 19.6131 11.323 19.6131 10.22 18.9828L9.25627 18.4322C6.49425 16.8539 4.32206 14.4181 3.06894 11.4942L3.02499 11.3917C2.37492 9.87482 2.42565 8.14871 3.16367 6.67266L3.36754 6.26491C3.77808 5.44384 4.44384 4.77808 5.26491 4.36754C6.89828 3.55086 8.87099 3.87099 10.1623 5.16228Z" stroke="black" stroke-width="2" stroke-linejoin="round"/>
</svg>
