<svg width="24" height="24" viewBox="0 0 24 24" fill="none" xmlns="http://www.w3.org/2000/svg">
<path fill="black" d="M5.71075 5.60327C5.88187 4.06317 7.05516 2.82414 8.58365 2.56939V2.56939C10.8456 2.1924 13.1544 2.1924 15.4164 2.56939V2.56939C16.9448 2.82414 18.1181 4.06317 18.2893 5.60327L18.3619 6.25726C18.411 6.69869 18.4355 6.9194 18.4579 7.13973C18.7868 10.3716 18.7868 13.6284 18.4579 16.8603C18.4355 17.0806 18.411 17.3013 18.3619 17.7427L18.2893 18.3967C18.1181 19.9368 16.9448 21.1759 15.4164 21.4306V21.4306C13.1544 21.8076 10.8456 21.8076 8.58365 21.4306V21.4306C7.05516 21.1759 5.88187 19.9368 5.71075 18.3967L5.63808 17.7427C5.58903 17.3013 5.56451 17.0806 5.54209 16.8603C5.21315 13.6284 5.21315 10.3716 5.54209 7.13973C5.56451 6.9194 5.58903 6.69869 5.63808 6.25725L5.71075 5.60327Z"/>
<path fill="black" d="M10.875 16.75C10.9561 16.5877 11.0877 16.4561 11.25 16.375C11.7221 16.1389 12.2779 16.1389 12.75 16.375C12.9123 16.4561 13.0439 16.5877 13.125 16.75C13.3611 17.2221 13.3611 17.7779 13.125 18.25C13.0439 18.4123 12.9123 18.5439 12.75 18.625C12.2779 18.8611 11.7221 18.8611 11.25 18.625C11.0877 18.5439 10.9561 18.4123 10.875 18.25C10.6389 17.7779 10.6389 17.2221 10.875 16.75Z"/>
</svg>
