<svg width="24" height="24" viewBox="0 0 24 24" fill="none" xmlns="http://www.w3.org/2000/svg">
<path d="M16.37 4.85023C16.1441 3.72036 15.2873 2.82183 14.1695 2.54237V2.54237C12.7451 2.18627 11.2549 2.18627 9.83054 2.54237V2.54237C8.71269 2.82183 7.85593 3.72036 7.62995 4.85023L7.2862 6.569C7.24958 6.75209 7.23127 6.84363 7.20709 6.92656C7.02525 7.55017 6.55188 8.04662 5.93763 8.25791C5.85594 8.28602 5.76537 8.30866 5.58424 8.35394L4.42161 8.6446C3.54196 8.86451 2.84653 9.53714 2.59743 10.409L2.53191 10.6383C2.18426 11.8551 2.18426 13.1449 2.53191 14.3617V14.3617C2.80898 15.3314 3.69533 16 4.70387 16H19.2961C20.3047 16 21.191 15.3314 21.4681 14.3617V14.3617C21.8157 13.1449 21.8157 11.8551 21.4681 10.6383L21.4026 10.409C21.1535 9.53714 20.458 8.86451 19.5784 8.6446L18.4158 8.35394C18.2346 8.30866 18.1441 8.28602 18.0624 8.25791C17.4481 8.04662 16.9748 7.55017 16.7929 6.92656C16.7687 6.84363 16.7504 6.75209 16.7138 6.569L16.37 4.85023Z" stroke="black" stroke-width="2" stroke-linejoin="round"/>
<path d="M9 10H15" stroke="#808080" stroke-width="2" stroke-linejoin="round"/>
<path d="M12 7L12 13" stroke="#808080" stroke-width="2" stroke-linejoin="round"/>
<path d="M12 16L12 21" stroke="black" stroke-width="2" stroke-linejoin="round"/>
<path d="M16 16V16C16 17.8856 16 18.8284 16.5858 19.4142C17.1716 20 18.1144 20 20 20V20" stroke="black" stroke-width="2" stroke-linejoin="round"/>
<path d="M8 16V16C8 17.8856 8 18.8284 7.41421 19.4142C6.82843 20 5.88562 20 4 20V20" stroke="black" stroke-width="2" stroke-linejoin="round"/>
</svg>
