<svg width="24" height="24" viewBox="0 0 24 24" fill="none" xmlns="http://www.w3.org/2000/svg">
<path fill="black" d="M17.871 5.87097L15.2485 3.24845C15.0851 3.08506 14.8859 2.96196 14.6667 2.88889C12.913 2.30433 11.0473 2.1361 9.21734 2.39752L7.0362 2.70911C5.83754 2.88035 4.90657 3.84087 4.77286 5.04429L4.6325 6.30748C4.58903 6.69875 4.56729 6.89439 4.54721 7.08966C4.21145 10.3546 4.21145 13.6454 4.54721 16.9103C4.56729 17.1056 4.58903 17.3012 4.6325 17.6925L4.68453 18.1607C4.87024 19.8321 6.16323 21.1662 7.82802 21.404C10.5953 21.7993 13.4374 21.7947 16.2047 21.3993C17.8483 21.1645 19.1614 19.87 19.3962 18.2264C19.7967 15.423 19.7967 12.577 19.3962 9.77359L19.2258 8.58065C19.189 8.32292 19.1706 8.19406 19.1446 8.06959C19.0034 7.39177 18.6886 6.76222 18.2311 6.24253C18.1471 6.1471 18.0551 6.05505 17.871 5.87097Z"/>
<path fill="black" d="M8 12L16 12"/>
<path fill="black" d="M8 16L14 16"/>
<path fill="black" d="M14 3V4C14 5.88562 14 6.82843 14.5858 7.41421C15.1716 8 16.1144 8 18 8H19"/>
</svg>
