<svg width="24" height="24" viewBox="0 0 24 24" fill="none" xmlns="http://www.w3.org/2000/svg">
<path fill="black" d="M4.68462 6.96C5.03289 5.74108 5.98569 4.78827 7.20462 4.44001C10.4987 3.49884 13.9905 3.49884 17.2846 4.44001C18.5036 4.78827 19.4564 5.74108 19.8046 6.96C20.7458 10.2541 20.7458 13.7459 19.8046 17.04C19.4564 18.2589 18.5036 19.2117 17.2846 19.56C13.9905 20.5012 10.4987 20.5012 7.20462 19.56C5.98569 19.2117 5.03289 18.2589 4.68462 17.04C4.21404 15.393 3.97874 13.6965 3.97874 12"/>
<path fill="black" d="M4.00193 1.99985L4.00193 5.79883C4.00193 5.81833 4.00508 5.83771 4.01124 5.85621V5.85621C4.22795 6.50632 4.7381 7.01647 5.38822 7.23318V7.23318C5.40672 7.23934 5.42609 7.24249 5.44559 7.24249L9.24457 7.24249"/>
</svg>
