<svg width="24" height="24" viewBox="0 0 24 24" fill="none" xmlns="http://www.w3.org/2000/svg">
<path fill="black" d="M12 10V16"/>
<path fill="black" d="M15 13H9"/>
<path fill="black" d="M5.43035 11.8483C5.79897 10.0051 6.78747 8.34378 8.23142 7.14048L12 4L15.7686 7.14048C17.2125 8.34378 18.201 10.0051 18.5697 11.8483L18.6852 12.4258C18.893 13.465 18.893 14.535 18.6852 15.5742L18.5772 16.1138C18.2203 17.8986 16.9344 19.3552 15.2077 19.9308V19.9308C13.1256 20.6248 10.8744 20.6248 8.79227 19.9308V19.9308C7.0656 19.3552 5.77971 17.8986 5.42277 16.1138L5.31484 15.5742C5.10701 14.535 5.107 13.465 5.31484 12.4258L5.43035 11.8483Z"/>
</svg>
