<svg width="24" height="24" viewBox="0 0 24 24" fill="none" xmlns="http://www.w3.org/2000/svg">
<path fill="black" d="M8 14H16"/>
<path fill="black" d="M12 10L12 18"/>
<path fill="black" d="M6.375 6.75C6.45614 6.58772 6.58772 6.45614 6.75 6.375C7.22214 6.13893 7.77786 6.13893 8.25 6.375C8.41228 6.45614 8.54386 6.58772 8.625 6.75C8.86107 7.22214 8.86107 7.77786 8.625 8.25C8.54386 8.41228 8.41228 8.54386 8.25 8.625C7.77786 8.86107 7.22214 8.86107 6.75 8.625C6.58772 8.54386 6.45614 8.41228 6.375 8.25C6.13893 7.77786 6.13893 7.22214 6.375 6.75Z"/>
<path fill="black" d="M12.375 6.75C12.4561 6.58772 12.5877 6.45614 12.75 6.375C13.2221 6.13893 13.7779 6.13893 14.25 6.375C14.4123 6.45614 14.5439 6.58772 14.625 6.75C14.8611 7.22214 14.8611 7.77786 14.625 8.25C14.5439 8.41228 14.4123 8.54386 14.25 8.625C13.7779 8.86107 13.2221 8.86107 12.75 8.625C12.5877 8.54386 12.4561 8.41228 12.375 8.25C12.1389 7.77786 12.1389 7.22214 12.375 6.75Z"/>
<path fill="black" d="M15.375 6.75C15.4561 6.58772 15.5877 6.45614 15.75 6.375C16.2221 6.13893 16.7779 6.13893 17.25 6.375C17.4123 6.45614 17.5439 6.58772 17.625 6.75C17.8611 7.22214 17.8611 7.77786 17.625 8.25C17.5439 8.41228 17.4123 8.54386 17.25 8.625C16.7779 8.86107 16.2221 8.86107 15.75 8.625C15.5877 8.54386 15.4561 8.41228 15.375 8.25C15.1389 7.77786 15.1389 7.22214 15.375 6.75Z"/>
<path fill="black" d="M4.44 6.96C4.78827 5.74107 5.74107 4.78827 6.96 4.44V4.44C10.2541 3.49883 13.7459 3.49883 17.04 4.44V4.44C18.2589 4.78827 19.2117 5.74107 19.56 6.96V6.96C20.5012 10.2541 20.5012 13.7459 19.56 17.04V17.04C19.2117 18.2589 18.2589 19.2117 17.04 19.56V19.56C13.7459 20.5012 10.2541 20.5012 6.96 19.56V19.56C5.74107 19.2117 4.78826 18.2589 4.44 17.04V17.04C3.49883 13.7459 3.49883 10.2541 4.44 6.96V6.96Z"/>
</svg>
