<svg width="24" height="24" viewBox="0 0 24 24" fill="none" xmlns="http://www.w3.org/2000/svg">
<path fill="black" d="M13 4L19.5 10.5"/>
<path fill="black" d="M4 18.1083V16.0877C4 14.7299 4.42425 13.406 5.21346 12.3012L5.87906 11.3693C7.94544 8.47639 10.4764 5.94544 13.3693 3.87906L14.2731 3.23353C15.3355 2.47464 16.7494 2.37471 17.9172 2.9586C19.2558 3.62788 20.3618 4.72358 21.0311 6.06213C21.6237 7.24735 21.4869 8.66698 20.679 9.7173L20.1221 10.4413C18.0561 13.127 15.5429 15.4367 12.6927 17.269L11.1555 18.2572C10.3932 18.7472 9.53895 19.0768 8.64498 19.2258L5.86593 19.689C5.22227 19.7963 4.90044 19.8499 4.64979 19.7562C4.43218 19.6748 4.24968 19.5203 4.13365 19.319C4 19.0871 4 18.7609 4 18.1083Z"/>
</svg>
