<svg width="24" height="24" viewBox="0 0 24 24" fill="none" xmlns="http://www.w3.org/2000/svg">
<path d="M8.02074 5.97926L9.06824 4.93175L9.06829 4.93171C9.1642 4.8358 9.21216 4.78784 9.25388 4.74845C10.7954 3.29299 13.2046 3.29299 14.7461 4.74845C14.7878 4.78785 14.8358 4.83582 14.9318 4.93175L15.9793 5.97926C18.6063 8.60632 20.4385 11.9216 21.265 15.5437C21.6704 17.3203 20.5541 19.0879 18.7758 19.4854L17.7178 19.7219L17.7175 19.722C17.238 19.8291 16.9982 19.8828 16.76 19.931C13.6185 20.5666 10.3815 20.5666 7.24003 19.931C7.00179 19.8828 6.76199 19.8291 6.28246 19.722L6.28221 19.7219L5.22425 19.4854C3.44586 19.0879 2.3296 17.3203 2.735 15.5437C3.56152 11.9216 5.39368 8.60632 8.02074 5.97926Z" stroke="black" stroke-width="2" stroke-linejoin="round"/>
<path d="M12 7L12 14" stroke="black" stroke-width="2" stroke-linejoin="round"/>
<path d="M10.875 15.75C10.9561 15.5877 11.0877 15.4561 11.25 15.375C11.7221 15.1389 12.2779 15.1389 12.75 15.375C12.9123 15.4561 13.0439 15.5877 13.125 15.75C13.3611 16.2221 13.3611 16.7779 13.125 17.25C13.0439 17.4123 12.9123 17.5439 12.75 17.625C12.2779 17.8611 11.7221 17.8611 11.25 17.625C11.0877 17.5439 10.9561 17.4123 10.875 17.25C10.6389 16.7779 10.6389 16.2221 10.875 15.75Z" fill="black"/>
</svg>
