<svg width="24" height="24" viewBox="0 0 24 24" fill="none" xmlns="http://www.w3.org/2000/svg">
<path d="M7.84064 7.49754C7.55438 7.67816 7.21424 7.75694 6.53395 7.9145C4.13141 8.47093 2.93014 8.74915 2.50423 9.56292C2.4001 9.76187 2.33022 9.97693 2.29752 10.1991C2.16377 11.1078 2.97209 12.039 4.58872 13.9013C5.04648 14.4286 5.27535 14.6923 5.40077 15.0067C5.43311 15.0877 5.46011 15.1708 5.48159 15.2554C5.56491 15.5835 5.53473 15.9313 5.47435 16.627C5.26112 19.0839 5.15451 20.3123 5.79684 20.9689C5.95388 21.1294 6.13682 21.2623 6.33799 21.362C7.16089 21.7701 8.29627 21.2891 10.567 20.327C11.21 20.0546 11.5315 19.9184 11.8692 19.8963C11.9128 19.8935 11.9564 19.892 12 19.892V2.87866C11.8881 2.87866 11.7762 2.88805 11.6656 2.90682C10.76 3.06042 10.1242 4.11692 8.85256 6.22993L8.85256 6.22993C8.49249 6.82824 8.31246 7.12739 8.05222 7.34382C7.98512 7.39962 7.91444 7.45097 7.84064 7.49754Z" stroke="black" stroke-width="2" stroke-linejoin="round"/>
</svg>
