<svg width="24" height="24" viewBox="0 0 24 24" fill="none" xmlns="http://www.w3.org/2000/svg">
<path d="M9 9L14 14" stroke="black" stroke-width="2" stroke-linejoin="round"/>
<path d="M15.6732 20.8911C15.8794 20.9598 16.1058 20.9295 16.2867 20.8089L16.3977 20.7348C18.1156 19.5896 19.5896 18.1156 20.7348 16.3977L20.8089 16.2867C20.9295 16.1058 20.9598 15.8794 20.891 15.6732V15.6732C20.3301 13.9904 19.0096 12.6699 17.3268 12.1089V12.1089C17.1206 12.0402 16.8942 12.0705 16.7133 12.1911L16.6023 12.2652C14.8844 13.4104 13.4104 14.8844 12.2652 16.6023L12.1911 16.7133C12.0705 16.8942 12.0402 17.1206 12.1089 17.3268V17.3268C12.6699 19.0096 13.9904 20.3301 15.6732 20.8911V20.8911Z" stroke="black" stroke-width="2" stroke-linejoin="round"/>
<path d="M5.41053 10.8035C5.78246 10.9275 6.1908 10.8728 6.517 10.6553L6.70234 10.5318C8.2191 9.5206 9.5206 8.2191 10.5318 6.70234L10.6553 6.517C10.8728 6.1908 10.9275 5.78246 10.8035 5.41053V5.41053C10.2977 3.89306 9.10693 2.70231 7.58947 2.19649V2.19649C7.21754 2.07251 6.8092 2.1272 6.483 2.34467L6.29766 2.46823C4.7809 3.4794 3.4794 4.7809 2.46823 6.29766L2.34467 6.483C2.1272 6.8092 2.07251 7.21754 2.19649 7.58947V7.58947C2.70231 9.10694 3.89306 10.2977 5.41053 10.8035V10.8035Z" stroke="black" stroke-width="2" stroke-linejoin="round"/>
<path d="M19 19L20 20" stroke="black" stroke-width="2" stroke-linejoin="round"/>
<path d="M3 3L4 4" stroke="black" stroke-width="2" stroke-linejoin="round"/>
</svg>
