<svg width="24" height="24" viewBox="0 0 24 24" fill="none" xmlns="http://www.w3.org/2000/svg">
<path fill-rule="evenodd" clip-rule="evenodd" d="M20.0044 16.5901C20.2426 16.3364 20.5257 16.0219 20.8986 15.6075L20.8987 15.6074L20.8988 15.6073L20.9438 15.5573L21.6194 14.8066C21.7617 14.6485 21.8821 14.4719 21.9772 14.2816C22.6954 12.8453 22.6954 11.1547 21.9772 9.71839C21.8821 9.52813 21.7617 9.35155 21.6194 9.19344L20.9438 8.44275L20.8988 8.39272C20.2365 7.65686 19.8579 7.23614 19.5096 6.91074C16.3544 3.96287 11.8974 3.21516 8.08185 4.66764L9.66863 6.25442C12.5785 5.47641 15.8004 6.18232 18.1442 8.37215C18.4209 8.63061 18.7378 8.98138 19.4572 9.78068L20.1328 10.5314C20.1549 10.5559 20.1736 10.5833 20.1883 10.6128C20.625 11.4861 20.625 12.514 20.1883 13.3872C20.1736 13.4167 20.1549 13.4441 20.1328 13.4687L19.4572 14.2193C19.0703 14.6492 18.7998 14.9494 18.5894 15.1752L20.0044 16.5901ZM16.5969 13.1827C16.797 12.115 16.7237 11.009 16.3772 9.9695C16.0079 8.86152 15.1385 7.99209 14.0305 7.62276C12.991 7.27626 11.8849 7.20304 10.8173 7.4031L12.7761 9.36191C12.986 9.39934 13.1939 9.45208 13.398 9.52013C13.9088 9.69038 14.3096 10.0912 14.4799 10.602C14.5479 10.8061 14.6006 11.014 14.6381 11.2239L16.5969 13.1827ZM14.3236 13.7378L15.7574 15.1716C15.3158 15.7248 14.7192 16.1477 14.0305 16.3773C12.7125 16.8166 11.2875 16.8166 9.96946 16.3773C8.86148 16.0079 7.99204 15.1385 7.62272 14.0305C7.18337 12.7125 7.18337 11.2875 7.62272 9.9695C7.8523 9.28075 8.27514 8.68418 8.8284 8.24261L10.2622 9.67642C9.91581 9.88445 9.65041 10.211 9.52008 10.602C9.21758 11.5095 9.21758 12.4906 9.52008 13.3981C9.69034 13.9088 10.0911 14.3096 10.6019 14.4799C11.5094 14.7824 12.4905 14.7824 13.398 14.4799C13.789 14.3496 14.1155 14.0842 14.3236 13.7378ZM7.65218 7.0664C7.01468 7.41848 6.41059 7.85373 5.85572 8.37215C5.57909 8.63061 5.26211 8.98138 4.54273 9.78068L3.86711 10.5314C3.84504 10.5559 3.82636 10.5833 3.8116 10.6128C3.37497 11.4861 3.37497 12.514 3.8116 13.3872C3.82636 13.4167 3.84504 13.4441 3.86711 13.4687L4.54273 14.2193C5.26211 15.0187 5.57909 15.3694 5.85572 15.6279C8.97462 18.5419 13.6483 18.8282 17.0727 16.487L18.5072 17.9214C14.2978 21.0161 8.39645 20.7388 4.49033 17.0893C4.14205 16.7639 3.76341 16.3432 3.10115 15.6073L3.05614 15.5573L2.38053 14.8066C2.23822 14.6485 2.11788 14.4719 2.02275 14.2816C1.30459 12.8453 1.30459 11.1547 2.02275 9.71839C2.11788 9.52813 2.23822 9.35155 2.38053 9.19344L3.05614 8.44275L3.10118 8.39272C3.76342 7.65686 4.14205 7.23614 4.49033 6.91074C5.02324 6.41284 5.5933 5.97771 6.19113 5.60534L7.65218 7.0664Z" fill="black"/>
<path d="M3 3L21 21" stroke="#808080" stroke-width="2" stroke-linejoin="round"/>
</svg>
