<svg width="24" height="24" viewBox="0 0 24 24" fill="none" xmlns="http://www.w3.org/2000/svg">
<path d="M14.3333 2C14.4383 1.68524 14.6852 1.43825 15 1.33333C15.6491 1.11696 16.3509 1.11696 17 1.33333C17.3148 1.43825 17.5617 1.68524 17.6667 2C17.883 2.64911 17.883 3.35089 17.6667 4C17.5617 4.31476 17.3148 4.56175 17 4.66667C16.3509 4.88304 15.6491 4.88304 15 4.66667C14.6852 4.56175 14.4383 4.31476 14.3333 4C14.117 3.35089 14.117 2.64911 14.3333 2Z" fill="black"/>
<path d="M19.0732 11.9862C19.3344 12.0031 19.5739 11.8521 19.691 11.618C19.8855 11.229 19.8855 10.771 19.691 10.382C19.5739 10.1479 19.334 10.0047 19.0735 9.97931C17.4505 9.82135 16.0442 8.77239 15.4 7.3L14.8 6.1C14.7 5.6 14.1 5 13.2 5H9.71699C8.6332 5 8.09131 5 7.63896 5.25072C7.18661 5.50143 6.8994 5.96095 6.325 6.88L5.19725 8.6844C5.07473 8.88044 5.06305 9.12611 5.16644 9.33288C5.37358 9.74716 5.78171 10.0235 6.24329 10.0619L6.2752 10.0646C6.53568 10.0863 6.78616 9.95942 6.92275 9.73656L8.01475 7.95488C8.30074 7.48827 8.44373 7.25497 8.67139 7.12749C8.89905 7 9.17269 7 9.71996 7H11L8.5 10.8C8.2 11.3 8.1 11.9 8.3 12.5L9.26907 15.5563C9.43092 16.0668 9.51185 16.322 9.46257 16.573C9.41329 16.824 9.24188 17.0297 8.89905 17.4411L6.6 20.2H9.2L10.5386 18.6702C11.253 17.8537 11.6102 17.4455 11.7192 16.9395C11.8283 16.4335 11.671 15.9143 11.3564 14.8761L11 13.7L13.5643 15.3119C14.0218 15.5994 14.2505 15.7432 14.3753 15.9689C14.5 16.1947 14.5 16.4648 14.5 17.0051V20.3H16.5V16.7115C16.5 15.6303 16.5 15.0897 16.2503 14.6381C16.0006 14.1864 15.5428 13.8989 14.6271 13.324L12.2 11.8L14 8.9C15.0316 10.6818 16.9426 11.848 19.0732 11.9862Z" fill="black"/>
<path d="M3 18V18C4.28058 19.2806 6.01742 20 7.82843 20H16.1716C17.9826 20 19.7194 19.2806 21 18V18" stroke="black" stroke-width="2" stroke-linejoin="round"/>
<path d="M4.375 21.75C4.45614 21.5877 4.58772 21.4561 4.75 21.375C5.22214 21.1389 5.77786 21.1389 6.25 21.375C6.41228 21.4561 6.54386 21.5877 6.625 21.75C6.86107 22.2221 6.86107 22.7779 6.625 23.25C6.54386 23.4123 6.41228 23.5439 6.25 23.625C5.77786 23.8611 5.22214 23.8611 4.75 23.625C4.58772 23.5439 4.45614 23.4123 4.375 23.25C4.13893 22.7779 4.13893 22.2221 4.375 21.75Z" fill="black"/>
<path d="M17.375 21.75C17.4561 21.5877 17.5877 21.4561 17.75 21.375C18.2221 21.1389 18.7779 21.1389 19.25 21.375C19.4123 21.4561 19.5439 21.5877 19.625 21.75C19.8611 22.2221 19.8611 22.7779 19.625 23.25C19.5439 23.4123 19.4123 23.5439 19.25 23.625C18.7779 23.8611 18.2221 23.8611 17.75 23.625C17.5877 23.5439 17.4561 23.4123 17.375 23.25C17.1389 22.7779 17.1389 22.2221 17.375 21.75Z" fill="black"/>
</svg>
