<svg width="24" height="24" viewBox="0 0 24 24" fill="none" xmlns="http://www.w3.org/2000/svg">
<path d="M20.1667 11H17.1754C16.1504 11 15.6379 11 15.2025 11.2278C14.767 11.4555 14.4746 11.8765 13.89 12.7184L13 14L11 8L10.1874 9.2188C9.60613 10.0907 9.31549 10.5267 8.8733 10.7633C8.43112 11 7.90715 11 6.85922 11H3.83333" stroke="#808080" stroke-width="2" stroke-linejoin="round"/>
<path d="M7.10202 5.39942L6.50233 5.57076C5.5547 5.84151 4.78575 6.53563 4.41972 7.45069C3.50834 9.72914 3.50834 12.2709 4.41972 14.5493C4.78575 15.4644 5.5547 16.1585 6.50233 16.4292L7.10202 16.6006C10.3033 17.5152 13.6967 17.5152 16.898 16.6006L17.4977 16.4292C18.4453 16.1585 19.2143 15.4644 19.5803 14.5493C20.4917 12.2709 20.4917 9.72914 19.5803 7.45069C19.2143 6.53563 18.4453 5.84151 17.4977 5.57076L16.898 5.39942C13.6967 4.48477 10.3033 4.48477 7.10202 5.39942Z" stroke="black" stroke-width="2" stroke-linejoin="round"/>
<path d="M12 17V17C12.2306 17.9224 12.3459 18.3835 12.534 18.7659C13.0737 19.8628 14.0854 20.6527 15.2804 20.9102C15.697 21 16.1724 21 17.1231 21H18" stroke="black" stroke-width="2" stroke-linejoin="round"/>
<path d="M12 17V17C11.7694 17.9224 11.6541 18.3835 11.466 18.7659C10.9263 19.8628 9.91463 20.6527 8.71957 20.9102C8.30301 21 7.82764 21 6.87689 21H6" stroke="black" stroke-width="2" stroke-linejoin="round"/>
</svg>
