<svg width="24" height="24" viewBox="0 0 24 24" fill="none" xmlns="http://www.w3.org/2000/svg">
<path d="M4.89525 15H19.1048C19.1682 15 19.1999 15 19.2215 14.9991C19.9715 14.9667 20.4197 14.1502 20.0444 13.5C20.0336 13.4813 20.0165 13.4546 19.9825 13.4011C19.8866 13.2504 19.8387 13.1751 19.7906 13.101C18.2621 10.7453 16.2547 8.73786 13.899 7.20938C13.8249 7.1613 13.7496 7.11337 13.5989 7.01751L13.2244 6.77915L13.2244 6.77914C13.0792 6.68677 13.0066 6.64059 12.9364 6.60335C12.3507 6.29304 11.6493 6.29304 11.0636 6.60335C10.9934 6.64059 10.9208 6.68678 10.7756 6.77915L10.4011 7.01751L10.4009 7.0176C10.2504 7.1134 10.1751 7.16132 10.101 7.20938C7.74529 8.73786 5.73786 10.7453 4.20938 13.101C4.1613 13.1751 4.11337 13.2504 4.01751 13.4011L4.01749 13.4011C3.98345 13.4546 3.96642 13.4813 3.95563 13.5C3.58029 14.1502 4.0285 14.9667 4.77852 14.9991C4.80009 15 4.83181 15 4.89525 15Z" fill="black"/>
</svg>
