<svg width="24" height="24" viewBox="0 0 24 24" fill="none" xmlns="http://www.w3.org/2000/svg">
<path fill="black" d="M5 5H19"/>
<path fill="black" d="M6 8H18"/>
<path fill="black" d="M6 16H18"/>
<path fill="black" d="M6 19H18"/>
<path fill="black" d="M5 2L5.71075 8.39673C5.88187 9.93683 7.05516 11.1759 8.58365 11.4306V11.4306C10.8456 11.8076 13.1544 11.8076 15.4164 11.4306V11.4306C16.9448 11.1759 18.1181 9.93683 18.2893 8.39673L19 2"/>
<path fill="black" d="M5 22L5.71075 15.6033C5.88187 14.0632 7.05516 12.8241 8.58365 12.5694V12.5694C10.8456 12.1924 13.1544 12.1924 15.4164 12.5694V12.5694C16.9448 12.8241 18.1181 14.0632 18.2893 15.6033L19 22"/>
</svg>
