<svg width="24" height="24" viewBox="0 0 24 24" fill="none" xmlns="http://www.w3.org/2000/svg">
<path d="M9 11L8.78571 10.3571C8.60025 9.80076 8.60025 9.19924 8.78571 8.64286V8.64286C8.92061 8.23817 9.23817 7.92061 9.64286 7.78571L9.81818 7.72727C11.2344 7.25519 12.7656 7.25519 14.1818 7.72727L14.3787 7.79289C14.7765 7.9255 15.1054 8.21071 15.2929 8.58579V8.58579C15.738 9.47605 15.738 10.5239 15.2929 11.4142V11.4142C15.1054 11.7893 14.7765 12.0745 14.3787 12.2071L13.8974 12.3675C13.3904 12.5365 13.1369 12.621 12.9314 12.751C12.4948 13.0269 12.182 13.461 12.0583 13.9623C12 14.1984 12 14.4656 12 15V15" stroke="#808080" stroke-width="2" stroke-linejoin="round"/>
<path d="M10.875 16.25C10.9561 16.0877 11.0877 15.9561 11.25 15.875C11.7221 15.6389 12.2779 15.6389 12.75 15.875C12.9123 15.9561 13.0439 16.0877 13.125 16.25C13.3611 16.7221 13.3611 17.2779 13.125 17.75C13.0439 17.9123 12.9123 18.0439 12.75 18.125C12.2779 18.3611 11.7221 18.3611 11.25 18.125C11.0877 18.0439 10.9561 17.9123 10.875 17.75C10.6389 17.2779 10.6389 16.7221 10.875 16.25Z" fill="#808080"/>
<path d="M4.44 6.96C4.78827 5.74107 5.74107 4.78827 6.96 4.44V4.44C10.2541 3.49883 13.7459 3.49883 17.04 4.44V4.44C18.2589 4.78827 19.2117 5.74107 19.56 6.96V6.96C20.5012 10.2541 20.5012 13.7459 19.56 17.04V17.04C19.2117 18.2589 18.2589 19.2117 17.04 19.56V19.56C13.7459 20.5012 10.2541 20.5012 6.96 19.56V19.56C5.74107 19.2117 4.78826 18.2589 4.44 17.04V17.04C3.49883 13.7459 3.49883 10.2541 4.44 6.96V6.96Z" stroke="black" stroke-width="2" stroke-linejoin="round"/>
</svg>
