<svg width="24" height="24" viewBox="0 0 24 24" fill="none" xmlns="http://www.w3.org/2000/svg">
<path d="M19.9091 9.72727C20.5806 9.89514 21.1049 10.4194 21.2727 11.0909C21.4219 11.6878 21.4219 12.3122 21.2727 12.9091C21.1049 13.5806 20.5806 14.1049 19.9091 14.2727C19.3122 14.4219 18.6878 14.4219 18.0909 14.2727C17.4194 14.1049 16.8951 13.5806 16.7273 12.9091C16.5781 12.3122 16.5781 11.6878 16.7273 11.0909C16.8951 10.4194 17.4194 9.89514 18.0909 9.72727C18.6878 9.57805 19.3122 9.57805 19.9091 9.72727Z" fill="black"/>
<path d="M12.9091 9.72727C13.5806 9.89514 14.1049 10.4194 14.2727 11.0909C14.4219 11.6878 14.4219 12.3122 14.2727 12.9091C14.1049 13.5806 13.5806 14.1049 12.9091 14.2727C12.3122 14.4219 11.6878 14.4219 11.0909 14.2727C10.4194 14.1049 9.89514 13.5806 9.72727 12.9091C9.57805 12.3122 9.57805 11.6878 9.72727 11.0909C9.89514 10.4194 10.4194 9.89514 11.0909 9.72727C11.6878 9.57805 12.3122 9.57805 12.9091 9.72727Z" fill="black"/>
<path d="M5.90909 9.72727C6.58057 9.89514 7.10486 10.4194 7.27273 11.0909C7.42195 11.6878 7.42195 12.3122 7.27273 12.9091C7.10486 13.5806 6.58057 14.1049 5.90909 14.2727C5.31221 14.4219 4.68778 14.4219 4.09091 14.2727C3.41943 14.1049 2.89514 13.5806 2.72727 12.9091C2.57805 12.3122 2.57805 11.6878 2.72727 11.0909C2.89514 10.4194 3.41943 9.89514 4.09091 9.72727C4.68778 9.57805 5.31222 9.57805 5.90909 9.72727Z" fill="black"/>
</svg>
