<svg width="24" height="24" viewBox="0 0 24 24" fill="none" xmlns="http://www.w3.org/2000/svg">
<path d="M4.44 6.96C4.78827 5.74107 5.74107 4.78827 6.96 4.44V4.44C10.2541 3.49883 13.7459 3.49883 17.04 4.44V4.44C18.2589 4.78827 19.2117 5.74107 19.56 6.96V6.96C20.5012 10.2541 20.5012 13.7459 19.56 17.04V17.04C19.2117 18.2589 18.2589 19.2117 17.04 19.56V19.56C13.7459 20.5012 10.2541 20.5012 6.96 19.56V19.56C5.74107 19.2117 4.78826 18.2589 4.44 17.04V17.04C3.49883 13.7459 3.49883 10.2541 4.44 6.96V6.96Z" stroke="black" stroke-width="2" stroke-linejoin="round"/>
<path d="M7.83801 8.24299C7.94224 8.08663 8.10101 7.97475 8.28331 7.92917L8.53573 7.86607C10.8102 7.29744 13.1898 7.29744 15.4643 7.86607L15.7167 7.92917C15.899 7.97475 16.0578 8.08663 16.162 8.24299V8.24299C16.6694 9.00417 16.6694 9.99583 16.162 10.757V10.757C16.0578 10.9134 15.899 11.0253 15.7167 11.0708L15.4643 11.1339C13.1898 11.7026 10.8102 11.7026 8.53572 11.1339L8.28331 11.0708C8.10101 11.0253 7.94224 10.9134 7.83801 10.757V10.757C7.33055 9.99583 7.33055 9.00417 7.83801 8.24299V8.24299Z" stroke="#808080" stroke-width="2" stroke-linejoin="round"/>
<path d="M12 12L12 9" stroke="#808080" stroke-width="2" stroke-linejoin="round"/>
</svg>
