<svg width="24" height="24" viewBox="0 0 24 24" fill="none" xmlns="http://www.w3.org/2000/svg">
<path d="M3.52734 6.41798C3.82631 5.52108 4.51429 4.80714 5.39951 4.47518V4.47518C9.65515 2.87932 14.3449 2.87932 18.6005 4.47518V4.47518C19.4857 4.80714 20.1737 5.52108 20.4727 6.41798L20.5833 6.74983C21.5029 9.50866 21.5029 12.4913 20.5833 15.2502V15.2502C20.22 16.34 19.3251 17.1687 18.2106 17.4474L16.764 17.809C13.6271 18.5932 10.3553 18.6711 7.18479 18.037V18.037C7.06647 18.0133 6.9436 18.0376 6.8432 18.1045L4 20V17.6862C4 17.2317 3.92672 16.7802 3.78299 16.349L3.47297 15.4189C2.51685 12.5505 2.51685 9.44946 3.47297 6.5811L3.52734 6.41798Z" stroke="black" stroke-width="2" stroke-linejoin="round"/>
<path d="M7 9H17" stroke="black" stroke-width="2" stroke-linejoin="round"/>
<path d="M7 13H13" stroke="black" stroke-width="2" stroke-linejoin="round"/>
</svg>
