<svg width="24" height="24" viewBox="0 0 24 24" fill="none" xmlns="http://www.w3.org/2000/svg">
<path d="M4.43988 6.96C4.78814 5.74107 5.74095 4.78827 6.95988 4.44V4.44C10.254 3.49883 13.7458 3.49883 17.0399 4.44V4.44C18.2588 4.78827 19.2116 5.74107 19.5599 6.96V6.96C20.501 10.2541 20.501 13.7459 19.5599 17.04V17.04C19.2116 18.2589 18.2588 19.2117 17.0399 19.56V19.56C13.7458 20.5012 10.254 20.5012 6.95988 19.56V19.56C5.74095 19.2117 4.78814 18.2589 4.43988 17.04V17.04C3.49871 13.7459 3.49871 10.2541 4.43988 6.96V6.96Z" stroke="black" stroke-width="2" stroke-linejoin="round"/>
<path d="M14 15H11.6224C11.2101 15 10.8006 14.9335 10.4096 14.8032V14.8032C9.83699 14.6123 9.38767 14.163 9.19681 13.5904V13.5904C9.06645 13.1994 9 12.7899 9 12.3776V10" stroke="black" stroke-width="2" stroke-linejoin="round"/>
<path d="M10 14L15 9" stroke="black" stroke-width="2" stroke-linejoin="round"/>
</svg>
