<svg width="24" height="24" viewBox="0 0 24 24" fill="none" xmlns="http://www.w3.org/2000/svg">
<path d="M4 20H22" stroke="black" stroke-width="2" stroke-linejoin="round"/>
<path d="M19 20L18.2356 10.8273C18.0961 9.15298 16.8655 7.7731 15.218 7.44361V7.44361C13.7538 7.15077 12.2462 7.15077 10.782 7.44361V7.44361C9.13451 7.7731 7.90392 9.15298 7.7644 10.8273L7 20" stroke="black" stroke-width="2" stroke-linejoin="round"/>
<path d="M4 4L7 7" stroke="black" stroke-width="2" stroke-linejoin="round"/>
<path d="M11 2L11 4.99995" stroke="black" stroke-width="2" stroke-linejoin="round"/>
<path d="M2 11H4.99998" stroke="black" stroke-width="2" stroke-linejoin="round"/>
<path d="M11.6 12.8C11.6433 12.7135 11.7135 12.6433 11.8 12.6V12.6C12.5554 12.2223 13.4446 12.2223 14.2 12.6V12.6C14.2865 12.6433 14.3567 12.7135 14.4 12.8V12.8C14.7777 13.5554 14.7777 14.4446 14.4 15.2V15.2C14.3567 15.2865 14.2865 15.3567 14.2 15.4V15.4C13.4446 15.7777 12.5554 15.7777 11.8 15.4V15.4C11.7135 15.3567 11.6433 15.2865 11.6 15.2V15.2C11.2223 14.4446 11.2223 13.5554 11.6 12.8V12.8Z" stroke="black" stroke-width="2" stroke-linejoin="round"/>
</svg>
