<svg width="24" height="24" viewBox="0 0 24 24" fill="none" xmlns="http://www.w3.org/2000/svg">
<path d="M10.6 10.8C10.6433 10.7135 10.7135 10.6433 10.8 10.6V10.6C11.5554 10.2223 12.4446 10.2223 13.2 10.6V10.6C13.2865 10.6433 13.3567 10.7135 13.4 10.8V10.8C13.7777 11.5554 13.7777 12.4446 13.4 13.2V13.2C13.3567 13.2865 13.2865 13.3567 13.2 13.4V13.4C12.4446 13.7777 11.5554 13.7777 10.8 13.4V13.4C10.7135 13.3567 10.6433 13.2865 10.6 13.2V13.2C10.2223 12.4446 10.2223 11.5554 10.6 10.8V10.8Z" stroke="#808080" stroke-width="2" stroke-linejoin="round"/>
<path d="M6.44444 9.77778C6.78086 8.09569 8.09569 6.78086 9.77778 6.44444V6.44444C11.2447 6.15105 12.7553 6.15105 14.2222 6.44444V6.44444C15.9043 6.78086 17.2191 8.09569 17.5556 9.77778V9.77778C17.8489 11.2447 17.8489 12.7553 17.5556 14.2222V14.2222C17.2191 15.9043 15.9043 17.2191 14.2222 17.5556V17.5556C12.7553 17.8489 11.2447 17.8489 9.77778 17.5556V17.5556C8.09569 17.2191 6.78086 15.9043 6.44444 14.2222V14.2222C6.15105 12.7553 6.15105 11.2447 6.44444 9.77778V9.77778Z" stroke="black" stroke-width="2" stroke-linejoin="round"/>
<path d="M12 6V6C12 5.06812 12 4.60218 12.1522 4.23463C12.3552 3.74458 12.7446 3.35523 13.2346 3.15224C13.6022 3 14.0681 3 15 3V3" stroke="black" stroke-width="2" stroke-linejoin="round"/>
<path d="M12 6V6C12 5.06812 12 4.60218 11.8478 4.23463C11.6448 3.74458 11.2554 3.35523 10.7654 3.15224C10.3978 3 9.93188 3 9 3V3" stroke="black" stroke-width="2" stroke-linejoin="round"/>
<path d="M12 18V18C12 18.9319 12 19.3978 12.1522 19.7654C12.3552 20.2554 12.7446 20.6448 13.2346 20.8478C13.6022 21 14.0681 21 15 21V21" stroke="black" stroke-width="2" stroke-linejoin="round"/>
<path d="M12 18V18C12 18.9319 12 19.3978 11.8478 19.7654C11.6448 20.2554 11.2554 20.6448 10.7654 20.8478C10.3978 21 9.93188 21 9 21V21" stroke="black" stroke-width="2" stroke-linejoin="round"/>
<path d="M17.1962 9V9C18.0032 8.53406 18.4067 8.30109 18.8011 8.24916C19.327 8.17993 19.8589 8.32244 20.2797 8.64534C20.5953 8.88752 20.8283 9.29104 21.2943 10.0981V10.0981" stroke="black" stroke-width="2" stroke-linejoin="round"/>
<path d="M17.1962 9V9C18.0032 8.53406 18.4067 8.30109 18.6489 7.98547C18.9718 7.56465 19.1143 7.03279 19.0451 6.5069C18.9932 6.11248 18.7602 5.70896 18.2943 4.90192V4.90192" stroke="black" stroke-width="2" stroke-linejoin="round"/>
<path d="M6.80383 15V15C5.99679 15.4659 5.59327 15.6989 5.35109 16.0145C5.02819 16.4353 4.88568 16.9672 4.95491 17.4931C5.00684 17.8875 5.23981 18.291 5.70575 19.0981V19.0981" stroke="black" stroke-width="2" stroke-linejoin="round"/>
<path d="M6.80383 15V15C5.99679 15.4659 5.59327 15.6989 5.19885 15.7508C4.67296 15.8201 4.1411 15.6776 3.72028 15.3547C3.40466 15.1125 3.17169 14.709 2.70575 13.9019V13.9019" stroke="black" stroke-width="2" stroke-linejoin="round"/>
<path d="M17.1961 15V15C18.0031 15.4659 18.4067 15.6989 18.6488 16.0145C18.9718 16.4353 19.1143 16.9672 19.045 17.4931C18.9931 17.8875 18.7601 18.291 18.2942 19.098V19.098" stroke="black" stroke-width="2" stroke-linejoin="round"/>
<path d="M17.1961 15V15C18.0031 15.4659 18.4067 15.6989 18.8011 15.7508C19.327 15.82 19.8588 15.6775 20.2797 15.3546C20.5953 15.1124 20.8282 14.7089 21.2942 13.9019V13.9019" stroke="black" stroke-width="2" stroke-linejoin="round"/>
<path d="M6.80389 9.00003V9.00003C5.99685 8.53409 5.59334 8.30112 5.19891 8.2492C4.67302 8.17996 4.14116 8.32247 3.72034 8.64538C3.40472 8.88756 3.17175 9.29108 2.70581 10.0981V10.0981" stroke="black" stroke-width="2" stroke-linejoin="round"/>
<path d="M6.80389 9.00003V9.00003C5.99685 8.53409 5.59334 8.30112 5.35115 7.98551C5.02825 7.56469 4.88574 7.03283 4.95497 6.50693C5.0069 6.11251 5.23987 5.70899 5.70581 4.90196V4.90196" stroke="black" stroke-width="2" stroke-linejoin="round"/>
</svg>
