<svg width="24" height="24" viewBox="0 0 24 24" fill="none" xmlns="http://www.w3.org/2000/svg">
<path d="M18.4579 7.13971C18.4355 6.91938 18.411 6.69866 18.3619 6.25723L18.2893 5.60324C18.1181 4.06314 16.9449 2.82412 15.4164 2.56937C13.1544 2.19237 10.8456 2.19237 8.58366 2.56937C7.05516 2.82412 5.88188 4.06314 5.71076 5.60324L5.63809 6.25723C5.58904 6.69866 5.56452 6.91938 5.54209 7.13971C5.21316 10.3715 5.21316 13.6284 5.54209 16.8602C5.56452 17.0806 5.58904 17.3013 5.63809 17.7427L5.71076 18.3967C5.88188 19.9368 7.05516 21.1758 8.58366 21.4306C10.8456 21.8076 13.1544 21.8076 15.4164 21.4306C16.9449 21.1758 18.1181 19.9368 18.2893 18.3967L18.3619 17.7427C18.411 17.3013 18.4355 17.0806 18.4579 16.8602" stroke="black" stroke-width="2" stroke-linejoin="round"/>
<path d="M10 14L10.75 15.5C10.9123 15.8246 11.1754 16.0877 11.5 16.25V16.25C12.4443 16.7221 13.5557 16.7221 14.5 16.25L14.6021 16.199C14.8634 16.0683 15.0888 15.8757 15.2586 15.638L20 9" stroke="black" stroke-width="2" stroke-linejoin="round"/>
<path d="M8 3L8.6648 4.32959C8.87942 4.75885 9.25578 5.08526 9.71108 5.23703V5.23703C11.1968 5.73228 12.8032 5.73228 14.2889 5.23703V5.23703C14.7442 5.08526 15.1206 4.75885 15.3352 4.32959L16 3" stroke="black" stroke-width="2" stroke-linejoin="round"/>
</svg>
