<svg width="24" height="24" viewBox="0 0 24 24" fill="none" xmlns="http://www.w3.org/2000/svg">
<path d="M2.90375 6.67375C2.96403 6.25179 3.22749 5.88625 3.60874 5.69563V5.69563C5.76582 4.61709 8.28116 4.51247 10.5204 5.40815L11.4804 5.79216C11.7942 5.91769 12 6.22163 12 6.55963V20H11.1567C11.0537 20 10.952 19.976 10.8598 19.9299L9.80328 19.4016C8.03857 18.5193 5.96143 18.5193 4.19672 19.4016V19.4016C3.60798 19.696 2.90387 19.3271 2.81078 18.6755L2.71191 17.9834C2.2397 14.6779 2.2397 11.3221 2.71191 8.01661L2.90375 6.67375Z" stroke="#808080" stroke-width="2" stroke-linejoin="round"/>
<path d="M12 6.55963C12 6.22163 12.2058 5.91769 12.5196 5.79216L13.4796 5.40815C15.7188 4.51247 18.2342 4.61709 20.3913 5.69563V5.69563C20.7725 5.88625 21.036 6.25179 21.0962 6.67375L21.2881 8.01661C21.7603 11.3221 21.7603 14.6779 21.2881 17.9834L21.1892 18.6755C21.0961 19.3271 20.392 19.696 19.8033 19.4016V19.4016C18.0386 18.5193 15.9614 18.5193 14.1967 19.4016L13.1402 19.9299C13.048 19.976 12.9463 20 12.8433 20H12V6.55963Z" stroke="black" stroke-width="2" stroke-linejoin="round"/>
</svg>
