<svg width="24" height="24" viewBox="0 0 24 24" fill="none" xmlns="http://www.w3.org/2000/svg">
<path fill="black" d="M10 12V12C10 13.9209 9.23694 15.7631 7.87868 17.1213L6.82139 18.1786C6.33086 18.6691 6.20926 19.4185 6.51949 20.039V20.039C6.8314 20.6628 7.33721 21.1686 7.96101 21.4805V21.4805C8.58149 21.7907 9.33086 21.6691 9.82139 21.1786L10.2566 20.7434C11.2194 19.7806 12.7806 19.7806 13.7434 20.7434L14.1786 21.1786C14.6691 21.6691 15.4185 21.7907 16.039 21.4805V21.4805C16.6628 21.1686 17.1686 20.6628 17.4805 20.039V20.039C17.7907 19.4185 17.6691 18.6691 17.1786 18.1786L16.1213 17.1213C14.7631 15.7631 14 13.9209 14 12V12"/>
<path fill="black" d="M10 12V12C10 10.0791 9.23694 8.23694 7.87868 6.87868L6.82139 5.82139C6.33086 5.33086 6.20926 4.58149 6.51949 3.96101V3.96101C6.8314 3.33721 7.33721 2.8314 7.96101 2.51949V2.51949C8.58149 2.20926 9.33087 2.33087 9.82139 2.82139L10.2566 3.25658C11.2194 4.21945 12.7806 4.21945 13.7434 3.25658L14.1786 2.82139C14.6691 2.33086 15.4185 2.20926 16.039 2.51949V2.51949C16.6628 2.8314 17.1686 3.33721 17.4805 3.96101V3.96101C17.7907 4.58149 17.6691 5.33086 17.1786 5.82139L16.1213 6.87868C14.7631 8.23694 14 10.0791 14 12V12"/>
</svg>
