<svg width="24" height="24" viewBox="0 0 24 24" fill="none" xmlns="http://www.w3.org/2000/svg">
<path d="M10.5 10.5L11.8284 9.17151C12.4065 8.59346 12.6955 8.30444 12.8477 7.93692C12.9999 7.56939 12.9999 7.16066 13 6.34319L13 3.9712C13 3.38463 13.3571 2.85717 13.9017 2.63933V2.63933C14.9277 2.22892 16.0723 2.22893 17.0983 2.63933V2.63933C17.6429 2.85717 18 3.38462 18.0001 3.97118L18.0001 4.21111C18.0001 5.19904 18.801 5.9999 19.7889 5.99995L20.0289 5.99996C20.6154 5.99999 21.1429 6.35712 21.3607 6.90172V6.90172C21.7711 7.92771 21.7711 9.07228 21.3607 10.0983V10.0983C21.1429 10.6429 20.6154 11 20.0288 11L17.6568 11C16.8393 11 16.4305 11 16.063 11.1522C15.6954 11.3045 15.4064 11.5935 14.8283 12.1716L13.5 13.5" stroke="black" stroke-width="2" stroke-linejoin="round"/>
<path d="M10.5 10.5L9.17158 11.8284C8.59352 12.4065 8.30448 12.6955 7.93694 12.8478C7.56939 13 7.16063 13 6.34311 13L3.9712 13C3.38463 13 2.85715 13.3571 2.63931 13.9017V13.9017C2.22891 14.9277 2.22891 16.0723 2.6393 17.0983V17.0983C2.85715 17.6429 3.38463 18 3.9712 18L4.21113 18C5.19909 18 6 18.8009 6 19.7889L6 20.0288C6 20.6154 6.35712 21.1428 6.90173 21.3607V21.3607C7.92773 21.7711 9.07227 21.7711 10.0983 21.3607V21.3607C10.6429 21.1428 11 20.6154 11 20.0288L11 17.6568C11 16.8393 11 16.4306 11.1522 16.0631C11.3045 15.6955 11.5935 15.4065 12.1715 14.8284L13.5 13.5" stroke="#808080" stroke-width="2" stroke-linejoin="round"/>
</svg>
