<svg width="24" height="24" viewBox="0 0 24 24" fill="none" xmlns="http://www.w3.org/2000/svg">
<path d="M6.61059 17.7788C6.85416 17.2917 7.31237 16.9375 7.84643 16.8307C10.5883 16.2823 13.4117 16.2823 16.1536 16.8307C16.6876 16.9375 17.1458 17.2917 17.3894 17.7788C17.7704 18.5409 17.7704 19.4591 17.3894 20.2212C17.1458 20.7083 16.6876 21.0625 16.1536 21.1693C13.4117 21.7177 10.5883 21.7177 7.84643 21.1693C7.31237 21.0625 6.85416 20.7083 6.61059 20.2212C6.22955 19.4591 6.22955 18.5409 6.61059 17.7788Z" fill="black"/>
<path d="M5.23097 10.3858L5.44293 11.6576C5.70899 13.2539 5.84201 14.0521 6.4015 14.526C6.961 15 7.77017 15 9.38851 15H16.1767C16.4254 15 16.5497 15 16.6602 14.9877C17.4105 14.904 18.0498 14.4048 18.313 13.6972C18.3518 13.593 18.3819 13.4724 18.4422 13.2312L18.4422 13.2312L18.7247 12.1012C18.9075 11.3698 19 10.6188 19 9.8649V9.11803C19 8.60437 18.4594 8.27028 18 8.5C17.5406 8.72972 17 8.39563 17 7.88197V6.55753C17 5.08169 15.933 3.82217 14.4773 3.57954L13.6424 3.44039L13.6185 3.43642C11.8847 3.14879 10.1153 3.14879 8.38149 3.43642L8.35763 3.44039L8.32977 3.44506C6.4116 3.77107 5.00625 5.43003 5.00002 7.3757L5 7.40395V7.59508C5 7.67574 5 7.71607 5.0002 7.75634C5.00437 8.58384 5.07272 9.40978 5.20466 10.2267C5.21108 10.2665 5.2177 10.3062 5.23096 10.3858L5.23097 10.3858Z" stroke="#808080" stroke-width="2" stroke-linejoin="round"/>
</svg>
