<svg width="24" height="24" viewBox="0 0 24 24" fill="none" xmlns="http://www.w3.org/2000/svg">
<path fill="black" d="M7.43726 20H8C8.94281 20 9.41421 20 9.70711 19.7071C10 19.4142 10 18.9428 10 18V16.5279C10 16.2044 10.1828 15.9086 10.4721 15.7639C11.4339 15.283 12.5661 15.283 13.5279 15.7639C13.8172 15.9086 14 16.2044 14 16.5279V18C14 18.9428 14 19.4142 14.2929 19.7071C14.5858 20 15.0572 20 16 20H16.5627C17.9075 20 18.5799 20 19.0698 19.6898C19.3198 19.5315 19.5315 19.3198 19.6898 19.0698C20 18.5799 20 17.9075 20 16.5627C20 15.0823 20 14.3422 19.8676 13.6234C19.7986 13.249 19.703 12.8801 19.5815 12.5194C19.3482 11.8268 18.9887 11.1797 18.2698 9.88562L18.2698 9.88561L16.4569 6.62247L16.4569 6.62246C16.1529 6.07522 16.0009 5.8016 15.823 5.56919C15.19 4.7419 14.2592 4.19421 13.2286 4.04259C12.939 4 12.626 4 12 4C11.374 4 11.061 4 10.7714 4.04259C9.74081 4.19421 8.81 4.7419 8.17695 5.56919C7.99911 5.80161 7.8471 6.07523 7.54307 6.62247L5.73022 9.88561L5.73022 9.88561C5.01128 11.1797 4.65181 11.8267 4.41851 12.5194C4.29701 12.8801 4.20141 13.249 4.13243 13.6234C4 14.3422 4 15.0823 4 16.5627C4 17.9075 4 18.5799 4.31019 19.0698C4.46845 19.3198 4.68019 19.5315 4.93016 19.6898C5.42011 20 6.0925 20 7.43726 20Z"/>
</svg>
