<svg width="24" height="24" viewBox="0 0 24 24" fill="none" xmlns="http://www.w3.org/2000/svg">
<path d="M10.875 18.75C10.9561 18.5877 11.0877 18.4561 11.25 18.375C11.7221 18.1389 12.2779 18.1389 12.75 18.375C12.9123 18.4561 13.0439 18.5877 13.125 18.75C13.3611 19.2221 13.3611 19.7779 13.125 20.25C13.0439 20.4123 12.9123 20.5439 12.75 20.625C12.2779 20.8611 11.7221 20.8611 11.25 20.625C11.0877 20.5439 10.9561 20.4123 10.875 20.25C10.6389 19.7779 10.6389 19.2221 10.875 18.75Z" fill="#808080"/>
<path d="M7.5 10L7.28527 9.14109C7.10119 8.40475 7.18658 7.62684 7.52602 6.94797L7.71429 6.57143C7.89975 6.20051 8.20051 5.89975 8.57143 5.71429V5.71429C10.7298 4.63512 13.2702 4.63512 15.4286 5.71429L15.7079 5.85396C15.8993 5.94966 16.0624 6.09365 16.1811 6.2717V6.2717C17.2826 7.92383 17.2826 10.0762 16.1811 11.7283V11.7283C16.0624 11.9063 15.8993 12.0503 15.7079 12.146L14.6833 12.6584C14.2274 12.8863 13.9995 13.0003 13.8017 13.1303C12.8162 13.7787 12.167 14.829 12.0279 16.0004C12 16.2355 12 16.4903 12 17V17" stroke="black" stroke-width="2" stroke-linejoin="round"/>
</svg>
