<svg width="24" height="24" viewBox="0 0 24 24" fill="none" xmlns="http://www.w3.org/2000/svg">
<path fill="black" d="M6.53612 10.2471C6.81163 8.31862 8.31652 6.79746 10.242 6.50124L11.0066 6.3836C12.6591 6.12936 14.3409 6.12936 15.9934 6.3836L16.758 6.50124C18.6835 6.79746 20.1884 8.31862 20.4639 10.2471V10.2471C20.8195 12.7364 20.8195 15.2636 20.4639 17.7529V17.7529C20.1884 19.6814 18.6835 21.2025 16.758 21.4988L15.9934 21.6164C14.3409 21.8706 12.6591 21.8706 11.0066 21.6164L10.242 21.4988C8.31652 21.2025 6.81163 19.6814 6.53612 17.7529V17.7529C6.18051 15.2636 6.18051 12.7364 6.53612 10.2471V10.2471Z"/>
<path fill="black" d="M14 3H10.3836C9.14926 3 7.93629 3.32212 6.86458 3.93453V3.93453C5.64878 4.62927 4.66583 5.66834 4.0396 6.92081L3.8762 7.2476C3.29999 8.40003 3 9.67079 3 10.9592V17"/>
</svg>
