<svg width="24" height="24" viewBox="0 0 24 24" fill="none" xmlns="http://www.w3.org/2000/svg">
<path fill="black" d="M6 12L12 12"/>
<path fill="black" d="M14.7008 17.312L19.7661 14.1462C19.9191 14.0506 20.0427 13.9146 20.1233 13.7533C20.6752 12.6496 20.6752 11.3504 20.1233 10.2467C20.0427 10.0854 19.9191 9.94942 19.7661 9.85384L14.7008 6.68797C13.952 6.21998 13.5776 5.98598 13.1868 5.79711C12.3641 5.39953 11.4795 5.14581 10.5711 5.04696C10.1397 5 9.69815 5 8.81514 5H6.44636C4.91366 5 4.14731 5 3.85827 5.49807C3.56923 5.99615 3.9526 6.66706 4.71936 8.00887C5.83512 9.96145 6.393 10.9377 6.393 12C6.393 13.0623 5.83512 14.0385 4.71936 15.9911C3.9526 17.3329 3.56923 18.0039 3.85827 18.5019C4.14731 19 4.91366 19 6.44636 19H8.81514C9.69815 19 10.1397 19 10.5711 18.953C11.4795 18.8542 12.3641 18.6005 13.1868 18.2029C13.5776 18.014 13.952 17.78 14.7008 17.312Z"/>
</svg>
