<svg width="24" height="24" viewBox="0 0 24 24" fill="none" xmlns="http://www.w3.org/2000/svg">
<path d="M4.26316 7.57894C4.7214 5.97509 5.97509 4.7214 7.57895 4.26316V4.26316C10.4685 3.43757 13.5315 3.43757 16.4211 4.26316V4.26316C18.0249 4.7214 19.2786 5.97509 19.7368 7.57894V7.57894C20.5624 10.4685 20.5624 13.5315 19.7368 16.421V16.421C19.2786 18.0249 18.0249 19.2786 16.4211 19.7368V19.7368C13.5315 20.5624 10.4685 20.5624 7.57895 19.7368V19.7368C5.97509 19.2786 4.7214 18.0249 4.26316 16.421V16.421C3.43757 13.5315 3.43757 10.4685 4.26316 7.57894V7.57894Z" stroke="black" stroke-width="2"/>
<path d="M7.625 9.5C7.85582 8.57672 8.57672 7.85582 9.5 7.625V7.625C11.1414 7.21465 12.8586 7.21465 14.5 7.625V7.625C15.4233 7.85582 16.1442 8.57672 16.375 9.5V9.5C16.7854 11.1414 16.7854 12.8586 16.375 14.5V14.5C16.1442 15.4233 15.4233 16.1442 14.5 16.375V16.375C12.8586 16.7854 11.1414 16.7854 9.5 16.375V16.375C8.57672 16.1442 7.85582 15.4233 7.625 14.5V14.5C7.21465 12.8586 7.21465 11.1414 7.625 9.5V9.5Z" stroke="#808080" stroke-width="2" stroke-linejoin="round"/>
</svg>
