<svg width="24" height="24" viewBox="0 0 24 24" fill="none" xmlns="http://www.w3.org/2000/svg">
<path fill="black" d="M13 11L20 4"/>
<path fill="black" d="M3.54545 12.2727C3.82071 10.8965 4.89647 9.82071 6.27273 9.54545V9.54545C8.07308 9.18538 9.92692 9.18538 11.7273 9.54545V9.54545C13.1035 9.82071 14.1793 10.8965 14.4545 12.2727V12.2727C14.8146 14.0731 14.8146 15.9269 14.4545 17.7273V17.7273C14.1793 19.1035 13.1035 20.1793 11.7273 20.4545V20.4545C9.92692 20.8146 8.07308 20.8146 6.27273 20.4545V20.4545C4.89647 20.1793 3.82071 19.1035 3.54545 17.7273V17.7273C3.18538 15.9269 3.18538 14.0731 3.54545 12.2727V12.2727Z"/>
<path fill="black" d="M14 4L17.5289 3.11779C17.8329 3.04178 18.1541 3.07704 18.4344 3.21719V3.21719C19.4506 3.72532 20.2747 4.54936 20.7828 5.56563V5.56563C20.923 5.84593 20.9582 6.16712 20.8822 6.47114L20 10"/>
</svg>
