<svg width="24" height="24" viewBox="0 0 24 24" fill="none" xmlns="http://www.w3.org/2000/svg">
<path fill="black" d="M6 14H18"/>
<path fill="black" d="M7 3L17 3"/>
<path fill="black" d="M10 3V2C9.44772 2 9 2.44772 9 3H10ZM14 3H15C15 2.44772 14.5523 2 14 2V3ZM10 8.4217L10.142 9.41158C10.6344 9.34096 11 8.91915 11 8.4217H10ZM9.23688 8.55263L9.433 9.53321H9.433L9.23688 8.55263ZM5.55267 12.2368L6.53325 12.433L5.55267 12.2368ZM5.55267 17.7632L4.57209 17.9593L5.55267 17.7632ZM9.23688 21.4474L9.04077 22.4279H9.04077L9.23688 21.4474ZM14.7632 21.4474L14.9593 22.4279H14.9593L14.7632 21.4474ZM18.4474 17.7632L19.428 17.9593V17.9593L18.4474 17.7632ZM18.4474 12.2368L19.428 12.0407V12.0407L18.4474 12.2368ZM14.7632 8.55263L14.9593 7.57205H14.9593L14.7632 8.55263ZM14 8.42169H13C13 8.91914 13.3656 9.34095 13.8581 9.41157L14 8.42169ZM10 4H14V2H10V4ZM11 8.4217V3H9V8.4217H11ZM9.433 9.53321C9.66844 9.48612 9.90485 9.44558 10.142 9.41158L9.85805 7.43183C9.58471 7.47103 9.31218 7.51777 9.04077 7.57205L9.433 9.53321ZM6.53325 12.433C6.82591 10.9697 7.96971 9.82587 9.433 9.53321L9.04077 7.57205C6.78576 8.02305 5.0231 9.78572 4.57209 12.0407L6.53325 12.433ZM6.53326 17.567C6.19434 15.8725 6.19434 14.1275 6.53325 12.433L4.57209 12.0407C4.18139 13.9942 4.18139 16.0058 4.57209 17.9593L6.53326 17.567ZM9.433 20.4668C7.96971 20.1741 6.82591 19.0303 6.53326 17.567L4.57209 17.9593C5.0231 20.2143 6.78576 21.9769 9.04077 22.4279L9.433 20.4668ZM14.5671 20.4668C12.8725 20.8057 11.1276 20.8057 9.433 20.4668L9.04077 22.4279C10.9943 22.8186 13.0058 22.8186 14.9593 22.4279L14.5671 20.4668ZM17.4668 17.567C17.1742 19.0303 16.0304 20.1741 14.5671 20.4668L14.9593 22.4279C17.2143 21.9769 18.977 20.2143 19.428 17.9593L17.4668 17.567ZM17.4668 12.433C17.8057 14.1275 17.8057 15.8725 17.4668 17.567L19.428 17.9593C19.8187 16.0058 19.8187 13.9942 19.428 12.0407L17.4668 12.433ZM14.5671 9.53321C16.0304 9.82587 17.1742 10.9697 17.4668 12.433L19.428 12.0407C18.977 9.78572 17.2143 8.02305 14.9593 7.57205L14.5671 9.53321ZM13.8581 9.41157C14.0952 9.44557 14.3316 9.48612 14.5671 9.53321L14.9593 7.57205C14.6879 7.51776 14.4153 7.47102 14.142 7.43182L13.8581 9.41157ZM13 3V8.42169H15V3H13Z"/>
</svg>
