<svg width="24" height="24" viewBox="0 0 24 24" fill="none" xmlns="http://www.w3.org/2000/svg">
<path d="M2 6H22" stroke="black" stroke-width="2" stroke-linejoin="round"/>
<path d="M5 6V9.0523C5 12.3466 5.23382 15.6368 5.69971 18.898V18.898C5.87851 20.1496 6.85861 21.1431 8.10572 21.351V21.351C10.6704 21.7784 13.3296 21.7784 15.8943 21.351V21.351C17.1414 21.1431 18.1215 20.1496 18.3003 18.898V18.898C18.7662 15.6368 19 12.3466 19 9.0523V6" stroke="black" stroke-width="2" stroke-linejoin="round"/>
<path d="M9 4.10961C9 3.44696 9.42402 2.85866 10.0527 2.64911V2.64911C11.3167 2.22777 12.6833 2.22777 13.9473 2.64911V2.64911C14.576 2.85866 15 3.44696 15 4.10961V6H9V4.10961Z" stroke="black" stroke-width="2" stroke-linejoin="round"/>
</svg>
