<svg width="24" height="24" viewBox="0 0 24 24" fill="none" xmlns="http://www.w3.org/2000/svg">
<path fill="black" d="M9 12H15"/>
<path fill="black" d="M12 9L12 15"/>
<path fill="black" d="M10.0379 20.8788L8.45122 19.9721C6.27365 18.7278 4.79255 16.5478 4.43786 14.065C4.14743 12.032 4.14743 9.96801 4.43786 7.935L4.60377 6.77359C4.83857 5.12998 6.12998 3.83857 7.77358 3.60377C10.577 3.20329 13.423 3.20329 16.2264 3.60377C17.87 3.83857 19.1614 5.12998 19.3962 6.77358L19.5621 7.93499C19.8526 9.96801 19.8526 12.032 19.5621 14.065C19.2075 16.5478 17.7263 18.7278 15.5488 19.9721L13.9621 20.8788C12.7463 21.5736 11.2537 21.5736 10.0379 20.8788Z"/>
</svg>
