<svg width="24" height="24" viewBox="0 0 24 24" fill="none" xmlns="http://www.w3.org/2000/svg">
<path d="M21.153 13.459C21.055 13.1651 20.8443 12.9222 20.5672 12.7836V12.7836C19.5806 12.2903 18.4194 12.2903 17.4328 12.7836V12.7836C17.1557 12.9222 16.945 13.1651 16.847 13.459L16.7071 13.8787C16.2481 15.2557 16.2481 16.7443 16.7071 18.1213L16.847 18.541C16.945 18.8349 17.1557 19.0778 17.4328 19.2164V19.2164C18.4194 19.7097 19.5806 19.7097 20.5672 19.2164V19.2164C20.8443 19.0778 21.055 18.8349 21.153 18.541L21.2929 18.1213C21.7519 16.7443 21.7519 15.2557 21.2929 13.8787L21.153 13.459Z" stroke="black" stroke-width="2" stroke-linejoin="round"/>
<path d="M7.07715 4.57862C7.02889 4.21671 6.80445 3.90223 6.47789 3.73894V3.73894C5.54754 3.27377 4.45246 3.27377 3.52211 3.73894V3.73894C3.19555 3.90223 2.97111 4.21671 2.92285 4.57862L2.83422 5.24333C2.28052 9.39607 2.28052 13.6039 2.83422 17.7567L2.92285 18.4214C2.97111 18.7833 3.19555 19.0978 3.52211 19.2611V19.2611C4.45246 19.7262 5.54754 19.7262 6.47789 19.2611V19.2611C6.80445 19.0978 7.02889 18.7833 7.07715 18.4214L7.16578 17.7567C7.71948 13.6039 7.71948 9.39607 7.16578 5.24333L7.07715 4.57862Z" stroke="black" stroke-width="2" stroke-linejoin="round"/>
<path d="M14.1 8.55C14.037 8.20377 13.8148 7.90738 13.5 7.75V7.75C12.5557 7.27786 11.4443 7.27786 10.5 7.75V7.75C10.1852 7.90738 9.96295 8.20377 9.9 8.55L9.83077 8.93077C9.28143 11.9522 9.28143 15.0478 9.83077 18.0692L9.9 18.45C9.96295 18.7962 10.1852 19.0926 10.5 19.25V19.25C11.4443 19.7221 12.5557 19.7221 13.5 19.25V19.25C13.8148 19.0926 14.037 18.7962 14.1 18.45L14.1692 18.0692C14.7186 15.0478 14.7186 11.9522 14.1692 8.93077L14.1 8.55Z" stroke="#808080" stroke-width="2" stroke-linejoin="round"/>
</svg>
