<svg width="24" height="24" viewBox="0 0 24 24" fill="none" xmlns="http://www.w3.org/2000/svg">
<path d="M13.6 7.8C13.6433 7.71345 13.7135 7.64327 13.8 7.6V7.6C14.5554 7.22229 15.4446 7.22229 16.2 7.6V7.6C16.2865 7.64327 16.3567 7.71345 16.4 7.8V7.8C16.7777 8.55542 16.7777 9.44458 16.4 10.2V10.2C16.3567 10.2865 16.2865 10.3567 16.2 10.4V10.4C15.4446 10.7777 14.5554 10.7777 13.8 10.4V10.4C13.7135 10.3567 13.6433 10.2865 13.6 10.2V10.2C13.2223 9.44458 13.2223 8.55542 13.6 7.8V7.8Z" stroke="black" stroke-width="2" stroke-linejoin="round"/>
<path d="M17 19L15.4019 16.3364C14.4815 14.8024 13.1976 13.5185 11.6636 12.5981V12.5981C10.0241 11.6144 7.97592 11.6144 6.33645 12.5981L4 14" stroke="black" stroke-width="2" stroke-linejoin="round"/>
<path d="M4.44 6.96C4.78827 5.74107 5.74107 4.78827 6.96 4.44V4.44C10.2541 3.49883 13.7459 3.49883 17.04 4.44V4.44C18.2589 4.78827 19.2117 5.74107 19.56 6.96V6.96C20.5012 10.2541 20.5012 13.7459 19.56 17.04V17.04C19.2117 18.2589 18.2589 19.2117 17.04 19.56V19.56C13.7459 20.5012 10.2541 20.5012 6.96 19.56V19.56C5.74107 19.2117 4.78826 18.2589 4.44 17.04V17.04C3.49883 13.7459 3.49883 10.2541 4.44 6.96V6.96Z" stroke="black" stroke-width="2" stroke-linejoin="round"/>
</svg>
