<svg width="24" height="24" viewBox="0 0 24 24" fill="none" xmlns="http://www.w3.org/2000/svg">
<path fill="black" d="M9.72727 4.09091C9.89514 3.41943 10.4194 2.89514 11.0909 2.72727C11.6878 2.57805 12.3122 2.57805 12.9091 2.72727C13.5806 2.89514 14.1049 3.41943 14.2727 4.09091C14.4219 4.68778 14.4219 5.31222 14.2727 5.90909C14.1049 6.58057 13.5806 7.10486 12.9091 7.27273C12.3122 7.42195 11.6878 7.42195 11.0909 7.27273C10.4194 7.10486 9.89514 6.58057 9.72727 5.90909C9.57805 5.31222 9.57805 4.68778 9.72727 4.09091Z"/>
<path fill="black" d="M9.72727 11.0909C9.89514 10.4194 10.4194 9.89514 11.0909 9.72727C11.6878 9.57805 12.3122 9.57805 12.9091 9.72727C13.5806 9.89514 14.1049 10.4194 14.2727 11.0909C14.4219 11.6878 14.4219 12.3122 14.2727 12.9091C14.1049 13.5806 13.5806 14.1049 12.9091 14.2727C12.3122 14.4219 11.6878 14.4219 11.0909 14.2727C10.4194 14.1049 9.89514 13.5806 9.72727 12.9091C9.57805 12.3122 9.57805 11.6878 9.72727 11.0909Z"/>
<path fill="black" d="M9.72727 18.0909C9.89514 17.4194 10.4194 16.8951 11.0909 16.7273C11.6878 16.5781 12.3122 16.5781 12.9091 16.7273C13.5806 16.8951 14.1049 17.4194 14.2727 18.0909C14.4219 18.6878 14.4219 19.3122 14.2727 19.9091C14.1049 20.5806 13.5806 21.1049 12.9091 21.2727C12.3122 21.4219 11.6878 21.4219 11.0909 21.2727C10.4194 21.1049 9.89514 20.5806 9.72727 19.9091C9.57805 19.3122 9.57805 18.6878 9.72727 18.0909Z"/>
</svg>
