<svg width="24" height="24" viewBox="0 0 24 24" fill="none" xmlns="http://www.w3.org/2000/svg">
<path d="M12 8V16" stroke="black" stroke-width="2" stroke-linejoin="round"/>
<path d="M16 12L8 12" stroke="black" stroke-width="2" stroke-linejoin="round"/>
<path d="M4.62729 7.60895C4.85402 6.02189 5.99255 4.71641 7.53404 4.27599V4.27599C10.4529 3.44202 13.5471 3.44202 16.466 4.27599V4.27599C18.0074 4.71641 19.146 6.02189 19.3727 7.60895L19.4308 8.01573C19.808 10.6562 19.7768 13.339 19.3383 15.97V15.97C19.1242 17.2546 18.3439 18.3749 17.2131 19.0211L14.6299 20.4972C14.0038 20.855 13.6907 21.0339 13.3728 21.1501C12.4863 21.474 11.5137 21.474 10.6272 21.1501C10.3093 21.0339 9.99623 20.855 9.37005 20.4972L6.78688 19.0211C5.65611 18.3749 4.87577 17.2546 4.66166 15.97V15.97C4.22316 13.339 4.19197 10.6562 4.56918 8.01573L4.62729 7.60895Z" stroke="black" stroke-width="2" stroke-linejoin="round"/>
</svg>
