<svg width="24" height="24" viewBox="0 0 24 24" fill="none" xmlns="http://www.w3.org/2000/svg">
<path d="M4 10V10C4 8.28613 5.2762 6.84047 6.97683 6.6279L7.75097 6.53113C8.03041 6.4962 8.17013 6.47873 8.30951 6.46255C10.7616 6.17786 13.2384 6.17786 15.6905 6.46255C15.8299 6.47873 15.9696 6.4962 16.249 6.53113L17.0232 6.6279C18.7238 6.84047 20 8.28613 20 10V10" stroke="black" stroke-width="2" stroke-linejoin="round"/>
<path d="M7 14V13.7275C7 12.723 7.70899 11.8582 8.69395 11.6612V11.6612C10.8764 11.2247 13.1236 11.2247 15.3061 11.6612V11.6612C16.291 11.8582 17 12.723 17 13.7275V14" stroke="black" stroke-width="2" stroke-linejoin="round"/>
<path d="M10 18V17.2993C10 17.1159 10.1036 16.9482 10.2677 16.8662V16.8662C11.3582 16.3209 12.6418 16.3209 13.7323 16.8662V16.8662C13.8964 16.9482 14 17.1159 14 17.2993V18" stroke="black" stroke-width="2" stroke-linejoin="round"/>
</svg>
