<svg width="24" height="24" viewBox="0 0 24 24" fill="none" xmlns="http://www.w3.org/2000/svg">
<circle cx="12" cy="4" r="2" fill="black"/>
<path d="M13.5528 15.1056L13 15.382V16V20C13 20.4997 12.9979 20.7738 12.9723 20.964C12.972 20.9665 12.9716 20.9689 12.9713 20.9713C12.9689 20.9716 12.9665 20.972 12.964 20.9723C12.7738 20.9979 12.4997 21 12 21C11.5003 21 11.2262 20.9979 11.036 20.9723C11.0335 20.972 11.0311 20.9716 11.0287 20.9713C11.0284 20.9689 11.028 20.9665 11.0277 20.964C11.0021 20.7738 11 20.4997 11 20V16V15.382L10.4472 15.1056L10.3619 15.0629C9.87695 14.8204 9.57428 14.668 9.35238 14.5299C9.14806 14.4028 9.07679 14.3258 9.03545 14.2674C8.99411 14.209 8.94528 14.1162 8.89339 13.8812C8.83704 13.626 8.79401 13.2898 8.72675 12.7518L8.5543 11.3721C8.4196 10.2945 8.334 9.59101 8.34185 9.06912C8.34928 8.57572 8.44123 8.42277 8.51589 8.3382C8.59055 8.25363 8.73091 8.14341 9.21958 8.07485C9.73646 8.00233 10.4452 8 11.5311 8H12.4689C13.5548 8 14.2635 8.00233 14.7804 8.07485C15.2691 8.14341 15.4095 8.25363 15.4841 8.3382C15.5588 8.42277 15.6507 8.57572 15.6581 9.06912C15.666 9.59101 15.5804 10.2945 15.4457 11.3721L15.2732 12.7518C15.206 13.2898 15.163 13.626 15.1066 13.8812C15.0547 14.1162 15.0059 14.209 14.9645 14.2674C14.9232 14.3258 14.8519 14.4028 14.6476 14.5299C14.4257 14.668 14.1231 14.8204 13.6381 15.0629L13.5528 15.1056Z" stroke="black" stroke-width="2"/>
</svg>
