<svg width="24" height="24" viewBox="0 0 24 24" fill="none" xmlns="http://www.w3.org/2000/svg">
<path fill="black" d="M18 18V6H6V18H18Z"/>
<path fill="black" d="M22 8L19 8"/>
<path fill="black" d="M22 16L19 16"/>
<path fill="black" d="M5 8L2 8"/>
<path fill="black" d="M5 16L2 16"/>
<path fill="black" d="M5 12L2 12"/>
<path fill="black" d="M22 12L19 12"/>
<path fill="black" d="M8 2L8 5"/>
<path fill="black" d="M16 2L16 5"/>
<path fill="black" d="M12 19L12 22"/>
<path fill="black" d="M12 2.00001L12 5.00001"/>
<path fill="black" d="M8 19L8 22"/>
<path fill="black" d="M16 19L16 22"/>
<path fill="black" d="M10 10V14H14V10H10Z"/>
</svg>
