<svg width="24" height="24" viewBox="0 0 24 24" fill="none" xmlns="http://www.w3.org/2000/svg">
<path fill="black" d="M8 8L16 16"/>
<path fill="black" d="M3.86443 15.8134C3.9546 15.2724 4.09697 14.7414 4.28955 14.2279V14.2279C6.01173 9.63538 9.63538 6.01173 14.2279 4.28955V4.28955C14.7414 4.09697 15.2724 3.9546 15.8134 3.86443L16.3032 3.7828C18.6052 3.39914 20.6009 5.39483 20.2172 7.69678L20.1356 8.18659C20.0454 8.72759 19.903 9.25858 19.7105 9.77213V9.77213C17.9883 14.3646 14.3646 17.9883 9.77213 19.7105V19.7105C9.25858 19.903 8.72759 20.0454 8.18659 20.1356L7.69678 20.2172C5.39483 20.6009 3.39914 18.6052 3.7828 16.3032L3.86443 15.8134Z"/>
</svg>
