<svg width="24" height="24" viewBox="0 0 24 24" fill="none" xmlns="http://www.w3.org/2000/svg">
<path fill="black" d="M11 19.38L12 14.98L14.1 16.98V22.98H16.1V15.48L14 13.48L14.6 10.48C15.9 11.98 17.9 12.98 20.1 12.98V10.98C18.2 10.98 16.6 9.97998 15.8 8.57998L14.8 6.97998C14.4 6.37998 13.8 5.97998 13.1 5.97998C12.8 5.97998 12.6 6.07998 12.3 6.07998L7.1 8.27998V12.98H9.1V9.57998L10.9 8.87998L9.3 16.98L4.4 15.98L4 17.98L11 19.38Z"/>
<rect fill="black" x="12" y="1" width="4" height="4" rx="2"/>
</svg>
