<svg width="24" height="24" viewBox="0 0 24 24" fill="none" xmlns="http://www.w3.org/2000/svg">
<mask id="path-1-inside-1_4_18090" fill="white">
<path fill-rule="evenodd" clip-rule="evenodd" d="M12 21C15.5994 21 18.7054 18.887 20.145 15.8337C21.7962 15.3413 23 13.8112 23 12C23 10.1888 21.7962 8.65871 20.145 8.16628C18.7054 5.11301 15.5994 3 12 3C8.40057 3 5.29465 5.11301 3.85501 8.16628C2.20383 8.6587 1 10.1888 1 12C1 13.8112 2.20383 15.3413 3.85501 15.8337C5.29465 18.887 8.40057 21 12 21Z"/>
</mask>
<path d="M20.145 15.8337L19.5734 13.9171L18.7171 14.1725L18.336 14.9808L20.145 15.8337ZM20.145 8.16628L18.336 9.01924L18.7171 9.82749L19.5734 10.0829L20.145 8.16628ZM3.85501 8.16628L4.42659 10.0829L5.28291 9.82749L5.66401 9.01924L3.85501 8.16628ZM3.85501 15.8337L5.66401 14.9808L5.28291 14.1725L4.42659 13.9171L3.85501 15.8337ZM18.336 14.9808C17.2141 17.3601 14.7965 19 12 19V23C16.4023 23 20.1966 20.4138 21.954 16.6867L18.336 14.9808ZM21 12C21 12.9027 20.4004 13.6705 19.5734 13.9171L20.7166 17.7503C23.1919 17.0121 25 14.7198 25 12H21ZM19.5734 10.0829C20.4004 10.3295 21 11.0973 21 12H25C25 9.28019 23.1919 6.9879 20.7166 6.2497L19.5734 10.0829ZM12 5C14.7965 5 17.2141 6.63986 18.336 9.01924L21.954 7.31333C20.1966 3.58616 16.4023 1 12 1V5ZM5.66401 9.01924C6.7859 6.63986 9.20346 5 12 5V1C7.59767 1 3.8034 3.58616 2.04602 7.31332L5.66401 9.01924ZM3 12C3 11.0973 3.59956 10.3295 4.42659 10.0829L3.28344 6.24969C0.808093 6.9879 -1 9.28019 -1 12H3ZM4.42659 13.9171C3.59956 13.6705 3 12.9027 3 12H-1C-1 14.7198 0.808093 17.0121 3.28344 17.7503L4.42659 13.9171ZM12 19C9.20346 19 6.7859 17.3601 5.66401 14.9808L2.04602 16.6867C3.8034 20.4138 7.59767 23 12 23V19Z" fill="black" mask="url(#path-1-inside-1_4_18090)"/>
<circle cx="9.5" cy="10.5" r="1.5" fill="black"/>
<circle cx="14.5" cy="10.5" r="1.5" fill="black"/>
<path d="M7.41748 14C7.66511 14.5674 8.01829 15.0893 8.46452 15.5355C9.4022 16.4732 10.674 17 12.0001 17C13.3261 17 14.5979 16.4732 15.5356 15.5355C15.9818 15.0893 16.335 14.5674 16.5826 14H7.41748Z" fill="black"/>
</svg>
