<svg width="24" height="24" viewBox="0 0 24 24" fill="none" xmlns="http://www.w3.org/2000/svg">
<path fill="black" d="M13.7943 3H14.7943V2H13.7943V3ZM9.79427 3V2H8.79427V3H9.79427ZM13.7943 8.53587H12.7943V10.2679L14.2943 9.4019L13.7943 8.53587ZM18.5885 5.76794L19.4545 5.26794L18.9545 4.40192L18.0885 4.90192L18.5885 5.76794ZM20.5885 9.23205L21.0885 10.0981L21.9545 9.59807L21.4545 8.73205L20.5885 9.23205ZM15.7942 12L15.2942 11.134L13.7942 12L15.2942 12.866L15.7942 12ZM20.5885 14.7679L21.4545 15.2679L21.9545 14.4019L21.0885 13.9019L20.5885 14.7679ZM18.5885 18.232L18.0885 19.0981L18.9545 19.5981L19.4545 18.732L18.5885 18.232ZM13.7943 15.4641L14.2943 14.5981L12.7943 13.7321V15.4641H13.7943ZM13.7943 21V22H14.7943V21H13.7943ZM9.79427 21H8.79427V22H9.79427V21ZM9.79427 15.4641H10.7943V13.732L9.29427 14.598L9.79427 15.4641ZM5 18.232L4.13397 18.732L4.63397 19.5981L5.5 19.0981L5 18.232ZM3 14.7679L2.5 13.9019L1.63397 14.4019L2.13397 15.2679L3 14.7679ZM7.79423 12L8.29423 12.866L9.79423 12L8.29423 11.134L7.79423 12ZM3 9.23204L2.13397 8.73204L1.63397 9.59807L2.5 10.0981L3 9.23204ZM5 5.76794L5.5 4.90192L4.63398 4.40192L4.13398 5.26794L5 5.76794ZM9.79427 8.53591L9.29427 9.40194L10.7943 10.268V8.53591H9.79427ZM13.7943 2H9.79427V4H13.7943V2ZM14.7943 8.53587V3H12.7943V8.53587H14.7943ZM18.0885 4.90192L13.2943 7.66985L14.2943 9.4019L19.0885 6.63397L18.0885 4.90192ZM21.4545 8.73205L19.4545 5.26794L17.7224 6.26794L19.7224 9.73205L21.4545 8.73205ZM16.2942 12.866L21.0885 10.0981L20.0885 8.36602L15.2942 11.134L16.2942 12.866ZM15.2942 12.866L20.0885 15.634L21.0885 13.9019L16.2942 11.134L15.2942 12.866ZM19.7224 14.2679L17.7224 17.732L19.4545 18.732L21.4545 15.2679L19.7224 14.2679ZM19.0885 17.366L14.2943 14.5981L13.2943 16.3301L18.0885 19.0981L19.0885 17.366ZM14.7943 21V15.4641H12.7943V21H14.7943ZM9.79427 22H13.7943V20H9.79427V22ZM8.79427 15.4641V21H10.7943V15.4641H8.79427ZM5.5 19.0981L10.2943 16.3301L9.29427 14.598L4.5 17.366L5.5 19.0981ZM2.13397 15.2679L4.13397 18.732L5.86603 17.732L3.86603 14.2679L2.13397 15.2679ZM7.29423 11.134L2.5 13.9019L3.5 15.634L8.29423 12.866L7.29423 11.134ZM8.29423 11.134L3.5 8.36602L2.5 10.0981L7.29423 12.866L8.29423 11.134ZM3.86603 9.73205L5.86603 6.26794L4.13398 5.26794L2.13397 8.73204L3.86603 9.73205ZM4.5 6.63397L9.29427 9.40194L10.2943 7.66989L5.5 4.90192L4.5 6.63397ZM8.79427 3V8.53591H10.7943V3H8.79427Z"/>
</svg>
