<svg width="24" height="24" viewBox="0 0 24 24" fill="none" xmlns="http://www.w3.org/2000/svg">
<path fill-rule="evenodd" clip-rule="evenodd" d="M22 18.5859V4.00015H20V16.5859L22 18.5859ZM19 15.5859V7.00015H17V13.5859L19 15.5859ZM17 16.4143L17.5858 17.0002H17V16.4143ZM16 12.5859V10.0002H14V10.5859L16 12.5859ZM14 13.4143L14.5858 14.0002H14V13.4143ZM12 8.58591V5.00015V2.58594L10.2929 4.29304L9.00001 5.58592L12 8.58591ZM7.5858 7.00014L6.58579 8.00015H3H2V9.00015V15.0002V16.0002H3H6.58579L10.2929 19.7073L12 21.4144V19.0002V11.4143L10 9.41434V16.5859L7.70711 14.293L7.41421 14.0002H7H4V10.0002H7H7.41421L7.70711 9.70726L9.00001 8.41435L7.5858 7.00014ZM20 19.4143L20.5858 20.0002H20V19.4143Z" fill="black"/>
<path d="M3 3L21 21" stroke="black" stroke-width="2"/>
</svg>
