<svg width="24" height="24" viewBox="0 0 24 24" fill="none" xmlns="http://www.w3.org/2000/svg">
<path d="M10.0004 3V2H9.00039V3H10.0004ZM14.0004 3H15.0004V2H14.0004V3ZM10.0004 5.28975L10.2856 6.24822L11.0004 6.03553V5.28975H10.0004ZM7.19043 6.91386L6.69043 7.77988L7.33604 8.15263L7.87762 7.64033L7.19043 6.91386ZM5.20572 5.76799L5.70572 4.90196L4.83969 4.40196L4.33969 5.26799L5.20572 5.76799ZM3.20572 9.23209L2.33969 8.73209L1.83969 9.59812L2.70572 10.0981L3.20572 9.23209ZM5.18902 10.3771L6.16198 10.6081L6.33399 9.8835L5.68902 9.51112L5.18902 10.3771ZM5.18904 13.623L5.68904 14.489L6.33403 14.1166L6.162 13.392L5.18904 13.623ZM3.20569 14.768L2.70569 13.902L1.83966 14.402L2.33966 15.268L3.20569 14.768ZM5.20569 18.2322L4.33966 18.7322L4.83966 19.5982L5.70569 19.0982L5.20569 18.2322ZM7.19051 17.0862L7.87769 16.3597L7.33611 15.8474L6.69051 16.2202L7.19051 17.0862ZM10.0004 18.7103H11.0004V17.9645L10.2856 17.7518L10.0004 18.7103ZM10.0004 21H9.00039V22H10.0004V21ZM14.0004 21V22H15.0004V21H14.0004ZM14.0004 18.71L13.7151 17.7516L13.0004 17.9643V18.71H14.0004ZM16.8094 17.0862L17.3094 16.2202L16.6638 15.8474L16.1222 16.3597L16.8094 17.0862ZM18.7942 18.2321L18.2942 19.0981L19.1602 19.5981L19.6602 18.7321L18.7942 18.2321ZM20.7942 14.768L21.6602 15.268L22.1602 14.402L21.2942 13.902L20.7942 14.768ZM18.8108 13.6229L17.8379 13.3919L17.6659 14.1166L18.3108 14.4889L18.8108 13.6229ZM18.8109 10.3772L18.3109 9.51117L17.6659 9.88354L17.8379 10.6082L18.8109 10.3772ZM20.7941 9.23215L21.2941 10.0982L22.1602 9.59818L21.6602 8.73215L20.7941 9.23215ZM18.7941 5.76805L19.6602 5.26805L19.1602 4.40202L18.2941 4.90202L18.7941 5.76805ZM16.8095 6.91389L16.1223 7.64036L16.6639 8.15267L17.3095 7.77992L16.8095 6.91389ZM14.0004 5.29001H13.0004V6.03569L13.7151 6.24845L14.0004 5.29001ZM10.0004 4H14.0004V2H10.0004V4ZM11.0004 5.28975V3H9.00039V5.28975H11.0004ZM7.87762 7.64033C8.55251 7.00193 9.37429 6.51936 10.2856 6.24822L9.7152 4.33127C8.49666 4.69384 7.40099 5.33816 6.50323 6.18739L7.87762 7.64033ZM4.70572 6.63401L6.69043 7.77988L7.69043 6.04783L5.70572 4.90196L4.70572 6.63401ZM4.07175 9.73209L6.07175 6.26799L4.33969 5.26799L2.33969 8.73209L4.07175 9.73209ZM5.68902 9.51112L3.70572 8.36607L2.70572 10.0981L4.68902 11.2432L5.68902 9.51112ZM5.99994 12C5.99994 11.5197 6.05617 11.0538 6.16198 10.6081L4.21606 10.1462C4.07459 10.7421 3.99994 11.363 3.99994 12H5.99994ZM6.162 13.392C6.05618 12.9462 5.99994 12.4803 5.99994 12H3.99994C3.99994 12.637 4.0746 13.2579 4.21608 13.8539L6.162 13.392ZM3.70569 15.6341L5.68904 14.489L4.68904 12.7569L2.70569 13.902L3.70569 15.6341ZM6.07171 17.7322L4.07171 14.268L2.33966 15.268L4.33966 18.7322L6.07171 17.7322ZM6.69051 16.2202L4.70569 17.3661L5.70569 19.0982L7.69051 17.9522L6.69051 16.2202ZM10.2856 17.7518C9.37432 17.4806 8.55257 16.9981 7.87769 16.3597L6.50332 17.8127C7.40107 18.6619 8.4967 19.3062 9.7152 19.6687L10.2856 17.7518ZM11.0004 21V18.7103H9.00039V21H11.0004ZM14.0004 20H10.0004V22H14.0004V20ZM13.0004 18.71V21H15.0004V18.71H13.0004ZM16.1222 16.3597C15.4475 16.9979 14.626 17.4804 13.7151 17.7516L14.2857 19.6684C15.5038 19.3058 16.5991 18.6616 17.4966 17.8127L16.1222 16.3597ZM19.2942 17.3661L17.3094 16.2202L16.3094 17.9522L18.2942 19.0981L19.2942 17.3661ZM19.9282 14.268L17.9282 17.7321L19.6602 18.7321L21.6602 15.268L19.9282 14.268ZM18.3108 14.4889L20.2942 15.634L21.2942 13.902L19.3108 12.7569L18.3108 14.4889ZM17.9999 12C17.9999 12.4803 17.9437 12.9462 17.8379 13.3919L19.7838 13.8539C19.9253 13.2579 19.9999 12.637 19.9999 12H17.9999ZM17.8379 10.6082C17.9437 11.0539 17.9999 11.5197 17.9999 12H19.9999C19.9999 11.363 19.9253 10.7422 19.7838 10.1462L17.8379 10.6082ZM20.2941 8.36612L18.3109 9.51117L19.3109 11.2432L21.2941 10.0982L20.2941 8.36612ZM17.9281 6.26805L19.9281 9.73215L21.6602 8.73215L19.6602 5.26805L17.9281 6.26805ZM17.3095 7.77992L19.2941 6.63407L18.2941 4.90202L16.3095 6.04787L17.3095 7.77992ZM13.7151 6.24845C14.6261 6.51964 15.4476 7.00212 16.1223 7.64036L17.4967 6.18743C16.5992 5.33841 15.5038 4.69421 14.2857 4.33158L13.7151 6.24845ZM13.0004 3V5.29001H15.0004V3H13.0004Z" fill="black"/>
<circle cx="12" cy="12" r="3" stroke="black" stroke-width="2"/>
</svg>
