<svg width="24" height="24" viewBox="0 0 24 24" fill="none" xmlns="http://www.w3.org/2000/svg">
<path d="M16 8V7C16 4.79086 14.2091 3 12 3V3C9.79086 3 8 4.79086 8 7V8H7C4.79086 8 3 9.79086 3 12V12C3 14.2091 4.79086 16 7 16H17C19.2091 16 21 14.2091 21 12V12C21 9.79086 19.2091 8 17 8H16Z" stroke="black" stroke-width="2"/>
<path d="M9 11H15" stroke="#808080" stroke-width="2"/>
<path d="M12 8L12 14" stroke="#808080" stroke-width="2"/>
<path d="M8 16V20H4" stroke="black" stroke-width="2"/>
<path d="M12 16L12 21" stroke="black" stroke-width="2"/>
<path d="M16 16V20H20" stroke="black" stroke-width="2"/>
</svg>
