<svg width="24" height="24" viewBox="0 0 24 24" fill="none" xmlns="http://www.w3.org/2000/svg">
<path fill="black" fill-rule="evenodd" clip-rule="evenodd" d="M19.6753 16.2611C19.9445 15.9979 20.2033 15.718 20.4504 15.4215L22.7682 12.6402L23.3017 12L22.7682 11.3598L20.4504 8.57846C17.4378 4.96333 12.6853 3.82469 8.57669 5.16252L10.2124 6.7982C13.3176 6.17398 16.6934 7.19419 18.9139 9.85883L20.6982 12L18.9139 14.1412C18.706 14.3907 18.4878 14.6259 18.2608 14.8466L19.6753 16.2611ZM16.6664 16.0806L18.1151 17.5293C13.5817 20.5668 7.25178 19.8642 3.54952 15.4215L1.23173 12.6402L0.698242 12L1.23173 11.3598L3.54952 8.57845C4.43868 7.51146 5.47941 6.6602 6.61041 6.02467L8.09323 7.50749C6.97327 8.04604 5.94347 8.82981 5.08596 9.85882L3.30166 12L5.08596 14.1412C8.02443 17.6673 12.986 18.3138 16.6664 16.0806ZM15.9627 12.5485C15.9872 12.3692 16 12.1861 16 12C16 9.79085 14.2091 7.99999 12 7.99999C11.8139 7.99999 11.6308 8.01269 11.4515 8.03728L15.9627 12.5485ZM9.47953 8.89379C8.57678 9.62719 7.99995 10.7462 7.99995 12C7.99995 14.2091 9.79081 16 12 16C13.2537 16 14.3727 15.4232 15.1062 14.5204L13.6766 13.0908C13.3197 13.6382 12.7021 14 12 14C10.8954 14 9.99995 13.1046 9.99995 12C9.99995 11.2979 10.3618 10.6802 10.9091 10.3234L9.47953 8.89379Z"/>
<path fill="black" d="M3 3L21 21"/>
</svg>
