<svg width="24" height="24" viewBox="0 0 24 24" fill="none" xmlns="http://www.w3.org/2000/svg">
<path fill="black" d="M10.8 10.5L13.2 8.1L14 8.9C15.3 10.2 17 11 19.1 11V9C17.6 9 16.4 8.4 15.5 7.5L13.6 5.6C13.1 5.2 12.6 5 12 5C11.4 5 10.9 5.2 10.6 5.6L7.79995 8.4C7.39995 8.8 7.19995 9.3 7.19995 9.8C7.19995 10.4 7.39995 10.9 7.79995 11.2L11 14V19H13V12.8L10.8 10.5Z"/>
<rect fill="black" x="15" y="13" width="7" height="7" rx="3.5"/>
<rect fill="black" x="2" y="13" width="7" height="7" rx="3.5"/>
<rect fill="black" x="13" y="1" width="4" height="4" rx="2"/>
</svg>
