<svg width="24" height="24" viewBox="0 0 24 24" fill="none" xmlns="http://www.w3.org/2000/svg">
<path d="M18 18V6H6V18H18Z" stroke="black" stroke-width="2"/>
<path d="M22 8L19 8" stroke="black" stroke-width="2"/>
<path d="M22 16L19 16" stroke="black" stroke-width="2"/>
<path d="M5 8L2 8" stroke="black" stroke-width="2"/>
<path d="M5 16L2 16" stroke="black" stroke-width="2"/>
<path d="M5 12L2 12" stroke="black" stroke-width="2"/>
<path d="M22 12L19 12" stroke="black" stroke-width="2"/>
<path d="M8 2L8 5" stroke="black" stroke-width="2"/>
<path d="M16 2L16 5" stroke="black" stroke-width="2"/>
<path d="M12 19L12 22" stroke="black" stroke-width="2"/>
<path d="M12 2.00001L12 5.00001" stroke="black" stroke-width="2"/>
<path d="M8 19L8 22" stroke="black" stroke-width="2"/>
<path d="M16 19L16 22" stroke="black" stroke-width="2"/>
<path d="M10 10V14H14V10H10Z" stroke="black" stroke-width="2"/>
</svg>
