<svg width="24" height="24" viewBox="0 0 24 24" fill="none" xmlns="http://www.w3.org/2000/svg">
<path d="M14.1962 6C13.736 5.20297 13.0986 4.52249 12.3334 4.01118C11.5682 3.49988 10.6956 3.17146 9.78316 3.05133C8.8707 2.9312 7.94285 3.02259 7.07136 3.31842C6.19988 3.61425 5.40813 4.10659 4.75736 4.75736C4.10659 5.40813 3.61425 6.19988 3.31842 7.07136C3.02259 7.94285 2.9312 8.87071 3.05133 9.78316C3.17146 10.6956 3.49988 11.5682 4.01118 12.3334C4.52249 13.0986 5.20298 13.736 6 14.1962" stroke="black" stroke-width="2"/>
<path d="M20.1962 12C20.5901 12.6824 20.8458 13.4357 20.9487 14.2168C21.0515 14.998 20.9995 15.7918 20.7956 16.5529C20.5916 17.314 20.2398 18.0275 19.7601 18.6526C19.2805 19.2777 18.6824 19.8022 18 20.1962C17.3176 20.5901 16.5643 20.8458 15.7832 20.9487C15.002 21.0515 14.2082 20.9995 13.4471 20.7956C12.686 20.5916 11.9725 20.2398 11.3474 19.7601C10.7223 19.2805 10.1978 18.6824 9.80385 18C9.40988 17.3176 9.15418 16.5643 9.05133 15.7832C8.94849 15.002 9.00051 14.2082 9.20445 13.4471C9.40838 12.686 9.76022 11.9725 10.2399 11.3474C10.7195 10.7223 11.3176 10.1978 12 9.80385C12.6824 9.40988 13.4357 9.15418 14.2168 9.05133C14.998 8.94849 15.7918 9.00051 16.5529 9.20445C17.314 9.40838 18.0275 9.76022 18.6526 10.2399C19.2777 10.7195 19.8022 11.3176 20.1962 12L20.1962 12Z" stroke="black" stroke-width="2"/>
<path d="M11 19L19 11" stroke="black" stroke-width="2"/>
</svg>
